<svg xmlns="http://www.w3.org/2000/svg" xmlns:xlink="http://www.w3.org/1999/xlink" viewBox="0 0 450 420"><defs><linearGradient id="Безымянный_градиент_3" x1="135.6" y1="190.16" x2="133.19" y2="245.44" gradientUnits="userSpaceOnUse"><stop offset=".2" stop-color="#0479e0"/><stop offset=".53" stop-color="#0476da"/><stop offset=".94" stop-color="#036dcb"/><stop offset="1" stop-color="#036cc8"/></linearGradient><linearGradient id="Безымянный_градиент_3-2" x1="182.59" y1="137.19" x2="180.67" y2="159.3" xlink:href="#Безымянный_градиент_3"/><linearGradient id="Безымянный_градиент_3-3" x1="225.1" y1="149.8" x2="216.68" y2="181.16" gradientTransform="rotate(-12.16 623.733 -254.248)" xlink:href="#Безымянный_градиент_3"/><linearGradient id="Безымянный_градиент_3-4" x1="188.36" y1="128.83" x2="171.91" y2="184.12" gradientTransform="rotate(-12.16 623.733 -254.248)" xlink:href="#Безымянный_градиент_3"/><linearGradient id="Безымянный_градиент_3-5" x1="214.33" y1="145.78" x2="197.34" y2="201.22" gradientTransform="rotate(-12.16 623.733 -254.248)" xlink:href="#Безымянный_градиент_3"/><linearGradient id="Безымянный_градиент_3-6" x1="282.1" y1="241" x2="304.27" y2="241" xlink:href="#Безымянный_градиент_3"/><linearGradient id="Безымянный_градиент_3-7" x1="223.88" y1="152.04" x2="222.92" y2="170.31" xlink:href="#Безымянный_градиент_3"/><radialGradient id="radial-gradient" cx="180.64" cy="162.23" r="32.2" gradientUnits="userSpaceOnUse"><stop offset=".32" stop-color="#fff9f2"/><stop offset=".63" stop-color="#fef8f0"/><stop offset=".74" stop-color="#fbf3e9"/><stop offset=".82" stop-color="#f6ebde"/><stop offset=".89" stop-color="#efe0cd"/><stop offset=".94" stop-color="#e5d1b7"/><stop offset=".99" stop-color="#dabf9c"/><stop offset="1" stop-color="#d6ba94"/></radialGradient><radialGradient id="radial-gradient-2" cx="222.79" cy="172.81" r="23.55" xlink:href="#radial-gradient"/><style>.cls-5{fill:#0479e0}.cls-8{fill:#010c5b}.cls-10{fill:#092c42}</style></defs><g style="isolation:isolate"><g id="_1" data-name="1"><path d="M147.8 172.33c-37 14.42-24.51 79.31-13.94 86s13.94-86 13.94-86z" fill="url(#Безымянный_градиент_3)"/><path d="M179.53 296.5c.16.64 13 32.68 13 32.68s-18.75-6.57-23.39-.16c3.36.32 17.94.8 17.94.8s-27.56 1.76-29.16 8.49c8.33-1.28 28.36-6.41 28.36-6.41s-17.49 9.1-14.76 13.1c7.85-5.61 22.27-13 22.27-13s14.74-.64 14.74-2.24-13.78-1.28-13.78-1.28l-8.81-29.8zm70.65 3.68c-.16.64 1.44 29 1.44 29s18.75-6.57 23.39-.16c-3.36.32-17.94.8-17.94.8s27.56 1.76 29.16 8.49c-8.33-1.28-28.36-6.41-28.36-6.41s17.47 9.1 14.74 13.1c-7.85-5.61-22.27-13-22.27-13s-14.74-.64-14.74-2.24 13.78-1.28 13.78-1.28l-5.61-26.12z" fill="#f58c14"/><path d="M202.6 292a11.67 11.67 0 01-2.61 2.6c-6.48 5.2-23.71 14-37.14-12.71q-.81-1.59-1.59-3.35s41.82 12.03 41.34 13.46zm65.4-4.8a16.35 16.35 0 01-1.81 3.52c-5.46 8.4-21.28 22.12-40.47 6.68a50.08 50.08 0 01-4.83-4.43S270.37 280 268 287.2z" fill="#18b292"/><path class="cls-5" d="M319.4 223.28a85.12 85.12 0 01-1.54 8.46 82.46 82.46 0 01-20.42 38.15c-.87.94-1.78 1.86-2.72 2.75a80.86 80.86 0 01-9.92 8.16 86.84 86.84 0 01-18.64 9.92 104.67 104.67 0 01-40.47 6.68q-4.72-.1-9.63-.59-8.48-.81-16.06-2.21-22.34-4-37.14-12.71c-21.65-12.67-31.43-32.82-29.94-60.54.65-12.19 4.26-27.13 10.57-42 16.83-39.6 52.88-78.6 103.34-63.29 33.06 10 61.81 42.16 70.5 76.65a81.62 81.62 0 012.07 30.57z"/><path d="M317.86 231.73c-6.12 26.3-24.39 48.4-51.7 59-5.46 8.4-21.28 22.12-40.47 6.68q-4.72-.1-9.63-.59-8.48-.82-16.06-2.22c-6.48 5.2-23.71 14-37.14-12.71-21.65-12.67-31.43-32.82-29.94-60.54.65-12.19 4.26-27.13 10.57-42-9.82 85.11 98.8 82.66 138.91 33.8 15.13 2.73 27.04 9.59 35.46 18.58z" fill="#0258a9"/><path d="M319.4 223.28a85.12 85.12 0 01-1.54 8.46 82.46 82.46 0 01-20.42 38.15 27.65 27.65 0 01-.5-3.63c-.71 2.29-1.45 4.44-2.22 6.38a80.86 80.86 0 01-9.92 8.16c-1.32-2.22-2.46-6.41-3.32-13.11a4.07 4.07 0 01-1.58 1.46c-5.65 2.36-7.83-.31-14.13-21.82a27.41 27.41 0 01-1.39-4.83c-6.79-34.67 7.57-81.28 30.54-70.49a48.45 48.45 0 0122.4 20.74 81.62 81.62 0 012.08 30.53z" style="mix-blend-mode:multiply" fill="#4670a3" opacity=".2"/><path class="cls-8" d="M212.75 127.62L211 142.13l39.08 5.44 2.74-9.37s-29.12 1.21-40.07-10.58zM149 119l3.36 11.3s36.29-24.27 44.46-16.1a80.36 80.36 0 00-1.2-15.62z"/><path d="M212.85 162v.2a32.2 32.2 0 01-64.3 2.46c-.08-.81-.11-1.63-.11-2.46s0-1.77.11-2.64a32.21 32.21 0 0164.2 0c.06.84.09 1.64.1 2.44z" fill="url(#radial-gradient)"/><circle class="cls-10" cx="188.25" cy="163.27" r="14.11"/><path d="M212.74 159.59h-64.2a32.21 32.21 0 0164.2 0z" fill="url(#Безымянный_градиент_3-2)"/><path class="cls-8" d="M147.08 155.5l-.24 5.05 68.5 1.92-.49-5.28-67.77-1.69z"/><path class="cls-5" d="M227.83 115.37c.72-1.2 49.42-45.66 65.13-39.89 7.21 2.64-47.34 34.61-47.34 34.61s44.94-8.89 53.35-6.25-7.75 7.4-26.68 8.89c-9.13.72-17.3.72-17.3.72s18-.24 17.06 3.6-26.92-.48-26.92-.48zm68.37 52.15c-23-10.78-37.33 35.82-30.54 70.5s60.68 9.05 60.82-14.58-7.8-45.37-30.28-55.92z"/><path d="M311.53 251.24c1 21.66 12.3 5.71 14.86-21.89 3.14-33.85-15.57-20.49-14.67-4.71a187.54 187.54 0 01-.19 26.6z" fill="url(#Безымянный_градиент_3-3)"/><path d="M265.66 238c5.59 26.39 9.47 29.18 15.53 26.65s12.35-42 10.12-55.53-33.89-10-25.65 28.88z" fill="url(#Безымянный_градиент_3-4)"/><path d="M298.12 256.59c-.71 25.23 14 14.67 16.35-23.44 2.93-48.52-13.75-22.61-13.93-14s-2.42 37.44-2.42 37.44z" fill="url(#Безымянный_градиент_3-5)"/><path d="M282.17 257.57c1.72 53.26 23.4-9.71 22-34s-11.17-24.39-16.26-11-6.11 33.66-5.74 45z" fill="url(#Безымянный_градиент_3-6)"/><path d="M194.19 211.5c16.58 0 21.39-19.23 21.39-19.23l-9.13-4.09s-10.82 16.59-12.26 23.32z" fill="#f5a614"/><path d="M244.18 260c-3.25 1.3-1 12.26 1.44 11.78s.96-12.7-1.44-11.78zM231 215.83c-2.88 1.44-.72 10.09 1.68 10.57s1.16-12.02-1.68-10.57zm-18.79 27.39c-2.4 1.44.24 10.57 3.12 10.33s-.72-11.77-3.12-10.33zm-30.52 1.2c-2.92 1 .72 12 3.36 11.54s-1.2-12.26-3.36-11.54zm20.91 26.44c-2.94 1.84 2.4 13.22 4.81 12.5s-2.89-13.7-4.81-12.5zm-38.93-5.29c-3 .9 2.16 11.3 4.57 10.81s-2.17-11.53-4.57-10.81zm-11.06-45.42c-3.19 1 1.36 12.78 2.88 12 1.93-.94.24-12.96-2.88-12z" fill="#046af0"/><path d="M202.6 169c-31.24 19.71-26.54 51.59-19.47 60.32 4.09 5 24.27-30 25-40.86S202.6 169 202.6 169z" fill="#ffba38"/><path d="M246.34 172.81c0 .61 0 1.21-.08 1.8a23.55 23.55 0 01-47-1.8v-.14a23.55 23.55 0 0147.1.14z" fill="url(#radial-gradient-2)"/><circle class="cls-10" cx="222.39" cy="174.97" r="8.17"/><path d="M246.34 172.81c0 .61 0 1.21-.08 1.8l-47-1.94a23.55 23.55 0 0147.1.14z" fill="url(#Безымянный_градиент_3-7)"/><path class="cls-8" d="M197.07 170.4s.48 5.53.72 4.81 49.75 1.2 49.75 1.2l.48-3.85z"/></g></g></svg>