<svg id="_1" data-name="1" xmlns="http://www.w3.org/2000/svg" xmlns:xlink="http://www.w3.org/1999/xlink" viewBox="0 0 450 420"><defs><linearGradient id="Безымянный_градиент_11" x1="481.83" y1="195.27" x2="468.3" y2="256.95" gradientTransform="matrix(-1 0 0 1 740.25 0)" gradientUnits="userSpaceOnUse"><stop offset=".38" stop-color="#cae789"/><stop offset="1" stop-color="#20b419"/></linearGradient><linearGradient id="Безымянный_градиент_7" x1="535.8" y1="141.05" x2="527.8" y2="291.05" gradientTransform="matrix(-1 0 0 1 740.25 0)" gradientUnits="userSpaceOnUse"><stop offset=".38" stop-color="#cae789"/><stop offset="1" stop-color="#169d1d"/></linearGradient><linearGradient id="linear-gradient" x1="500.65" y1="152.68" x2="513.65" y2="159.84" gradientTransform="matrix(-1 0 0 1 740.25 0)" gradientUnits="userSpaceOnUse"><stop offset="0" stop-color="#fff9f2"/><stop offset=".22" stop-color="#fdf7ee"/><stop offset=".42" stop-color="#f8efe3"/><stop offset=".62" stop-color="#f0e2d0"/><stop offset=".81" stop-color="#e5d1b6"/><stop offset="1" stop-color="#d6ba94"/></linearGradient><linearGradient id="Безымянный_градиент_5" x1="539.51" y1="92.14" x2="536.72" y2="124.37" xlink:href="#Безымянный_градиент_11"/><linearGradient id="Безымянный_градиент_11-2" x1="560.81" y1="189.57" x2="609.75" y2="295.42" xlink:href="#Безымянный_градиент_11"/><radialGradient id="radial-gradient" cx="543.35" cy="160.48" r="14.72" gradientTransform="matrix(-1 0 0 1 740.25 0)" gradientUnits="userSpaceOnUse"><stop offset=".32" stop-color="#fff9f2"/><stop offset=".63" stop-color="#fef8f0"/><stop offset=".74" stop-color="#fbf3e9"/><stop offset=".82" stop-color="#f6ebde"/><stop offset=".89" stop-color="#efe0cd"/><stop offset=".94" stop-color="#e5d1b7"/><stop offset=".99" stop-color="#dabf9c"/><stop offset="1" stop-color="#d6ba94"/></radialGradient><style>.cls-5{fill:#ffa215}.cls-6{fill:#0c5057}.cls-8{fill:#0e808a}</style></defs><path d="M229.53 303.93l-4 14.92s23.47-3.58 26.47 3.39c-7.16 1-24.07-1.59-24.07-1.59s21.09 4.78 21.89 9.95c-6.37 0-22.09-8.36-22.09-8.36s8.16 7 7.56 12.73c-7.56-1.59-12.34-13.53-12.34-13.53l-11.34-.4s3.38-5.77 11.74-2c1.19-8.56 2-14.13 2-14.13zm-40.78 0l4 14.92s-23.48-3.58-26.46 3.38c7.16 1 24.07-1.59 24.07-1.59s-21.09 4.78-21.89 9.95c6.37 0 22.09-8.36 22.09-8.36s-8.16 7-7.56 12.73c7.56-1.59 12.34-13.53 12.34-13.53l11.34-.4s-3.38-5.77-11.74-2c-1.19-8.56-2-14.13-2-14.13z" fill="#f58c14"/><path d="M254 180.37c18.11 28.05 21.29 54.12 18.5 72.22-1.66 10.82-8.56 16.51-7.36-1.19S253 189.33 253 189.33z" fill="url(#Безымянный_градиент_11)"/><path d="M207.25 116.51c-20.37-1-34.22 33.43-46.16 73.62s-10.3 78.39 4.38 91.52c15.12 13.53 76.4 16.32 93.91-7.16s-.8-85.16-12.34-114.6-24.27-42.59-39.79-43.38z" fill="url(#Безымянный_градиент_7)"/><path d="M232.92 187.54c-7.76 18.3-33 4.38-46-5.77 7.79 3.23 30.08 8.15 46 5.77z" fill="#f27b26"/><path class="cls-5" d="M214.21 176.2c5.57-6.37 4.58-11.34 8.16-12.14 5.84-1.3 12.53 11.74 25.27 11.74s19.7-3.18 32.23-4 23.28 13.93 20.1 18.3-6.76-5.57-39-3.78-54.72 7.76-74-4.58c10.73 2.26 21.67.82 27.24-5.54z"/><path class="cls-5" d="M183.77 179.78c1.39-2 6 .6 6 .6-5.17 1-3.78 5.37-3.78 5.37s-3.61-3.98-2.22-5.97z"/><path class="cls-6" d="M182.18 160.48a14.72 14.72 0 1029.45 0c0-8.13-4.78-17.11-14.72-17.11s-14.73 8.98-14.73 17.11z"/><circle cx="196.9" cy="160.48" r="14.72" fill="url(#radial-gradient)"/><circle class="cls-8" cx="197.43" cy="162.07" r="8.36"/><path class="cls-6" d="M225.71 151.2c1 5.43 2.59 12.11 6.66 15.11a7.33 7.33 0 006.72 1.33c7.16-2.19-6.17-32-11.94-25-1.36 1.63-2.15 4.9-1.44 8.56z"/><path d="M225.71 151.2c-.12 5.52 2.59 12.11 6.66 15.11a7.33 7.33 0 006.72 1.33c7.16-2.19-5.57-29.84-11.34-22.88a10.32 10.32 0 00-2.04 6.44z" fill="url(#linear-gradient)"/><path class="cls-8" d="M225.71 151.2c-.12 5.52 2.59 12.11 6.66 15.11 2.69-1 3.68-5.28 2.21-9.58s-5-7.13-7.75-6.18a3.44 3.44 0 00-1.12.65z"/><path class="cls-6" d="M202.08 124.07c0 .6.2 9 .2 9l-22.88 3-1.4-6.83zm20.49 4.37l-.2 9.75 16.12 4.38.79-7.96-16.71-6.17z"/><path d="M175.68 113.42c3.41 4.63 25.8.9 25.8.9s-11.64 4.77-10.21 8 9.48 2 15.46-4.32c8.54 7.06 20.9 5.11 16.94 2.36s-10.33-7-10.33-7 15.53-.73 16.15-2.12-5.07-6.54-9.7-6.75c-3.26-.15-8 3.39-10.57 5.5.82-1.15 1.57-3.09 1.26-6.24-.63-6.3-10.05-26.18-9.45-14s.54 10.24 2.48 21.94c-6.21-2.92-31.25-2.9-27.83 1.73z" fill="url(#Безымянный_градиент_5)"/><path d="M183.77 185.35c.4 54.52-18.9 79.19-22.88 78.39s.2-20.49.2-20.49-4.38 16.91-8.36 14.92.6-19.1.6-19.1-1.59 5.37-5.17 3.38 4.37-21.45 4.37-21.45-6 10.94-4.78-1.39 20.89-48.95 20.89-48.95z" fill="url(#Безымянный_градиент_11-2)"/><path d="M242.86 284.23s-5.77 17.11-9.75 20.29-12.53 2.19-14.33-.4-2.59-15.92-2.59-15.92zm-37.8 4.38c-.2.6-3.58 13.73-5.57 15.72s-13.73 2-16.32-1.19-6.57-16.51-6.57-16.51z" fill="#169d1d"/></svg>