<svg xmlns="http://www.w3.org/2000/svg" viewBox="0 0 450 420"><defs><linearGradient id="Безымянный_градиент_14" x1="222.3" y1="126.86" x2="215.13" y2="244.05" gradientUnits="userSpaceOnUse"><stop offset="0" stop-color="#ffe32f"/><stop offset=".49" stop-color="#ffe12f"/><stop offset=".67" stop-color="#ffda2d"/><stop offset=".8" stop-color="#ffcf2a"/><stop offset=".9" stop-color="#ffbe26"/><stop offset=".98" stop-color="#ffa821"/><stop offset="1" stop-color="#ffa320"/></linearGradient><linearGradient id="Безымянный_градиент_15" x1="198.81" y1="223.57" x2="190.37" y2="246.75" gradientUnits="userSpaceOnUse"><stop offset="0" stop-color="#ffe32f"/><stop offset=".17" stop-color="#fede2f"/><stop offset=".37" stop-color="#fbd02f"/><stop offset=".58" stop-color="#f5b92f"/><stop offset=".8" stop-color="#ee982e"/><stop offset="1" stop-color="#e6742e"/></linearGradient><linearGradient id="linear-gradient" x1="194.79" y1="241.33" x2="213.04" y2="241.33" gradientUnits="userSpaceOnUse"><stop offset="0" stop-color="#ffb741"/><stop offset=".23" stop-color="#fdb240"/><stop offset=".49" stop-color="#f8a43c"/><stop offset=".77" stop-color="#ef8d35"/><stop offset="1" stop-color="#e6742e"/></linearGradient><radialGradient id="radial-gradient" cx="230.67" cy="129.86" r="11.11" gradientUnits="userSpaceOnUse"><stop offset=".32" stop-color="#fff9f2"/><stop offset=".62" stop-color="#fef8f0"/><stop offset=".73" stop-color="#fbf3e9"/><stop offset=".8" stop-color="#f6ebde"/><stop offset=".86" stop-color="#efe0cd"/><stop offset=".92" stop-color="#e5d1b7"/><stop offset=".96" stop-color="#dabf9c"/><stop offset=".97" stop-color="#d6ba94"/></radialGradient><radialGradient id="radial-gradient-2" cx="256.48" cy="123.09" r="7.22" gradientTransform="rotate(15.08 258.082 122.97)" gradientUnits="userSpaceOnUse"><stop offset=".32" stop-color="#fff9f2"/><stop offset=".63" stop-color="#fef8f0"/><stop offset=".74" stop-color="#fbf3e9"/><stop offset=".82" stop-color="#f6ebde"/><stop offset=".89" stop-color="#efe0cd"/><stop offset=".94" stop-color="#e5d1b7"/><stop offset=".99" stop-color="#dabf9c"/><stop offset="1" stop-color="#d6ba94"/></radialGradient><style>.cls-2{fill:#f58c14}.cls-8{fill:#ff8430}.cls-9{fill:#ad5723}.cls-12{fill:#85431b}.cls-13{fill:#ffe32f}</style></defs><g style="isolation:isolate"><g id="_1" data-name="1"><path class="cls-2" d="M210.58 261.79c-.84 38.15-7 77.57-7 77.57h3.16s9.27-66 8-77.57c-.79-.85-4.16 0-4.16 0zm26.34 2.52c-10.75 36.68-2.74 75-2.74 75h3.16s-8.5-36.61 3.79-75c-.83-.84-4.21 0-4.21 0z"/><path class="cls-2" d="M204.18 337.81s-12.51 3.58-12 5.2 11.94-2.53 11.94-2.53 1.69 9.91 3.93 9.42-1.41-9.27-1.41-9.27 9 3.37 9.49 1-10.13-3.75-10.13-3.75zm20.94 2.39c.68 1.63 10.47 1.33 10.47 1.33s13.56 7.8 16 6.82-10.47-6.67-10.47-6.67 17.35 2.88 18.27 1.55-15.74-2.74-15.67-3 9.77.35 9.77-1.05-17.07-.56-17.07-.56-12.14-.46-11.3 1.58z"/><path d="M230.39 264.1s4.43 4.64 9.27 3a6.83 6.83 0 004.64-6.53z" fill="#ffb741"/><path d="M282.67 148.17c-3.27 16.68-32 38.78-32 38.78s11.8 21.92 6.32 51.85-28.67 28.67-37.52 24.45c-2.93 2-7.65 2.66-10.79-.46a9.69 9.69 0 01-2.28-3.75q-4.33-3.48-8.26-7.34c-20.79-20.28-33.38-47-36-60.11-3-14.75-5.9-31.62-2.53-24 3.28 7.38 9.35 27.9 9.68 29-.11-.93-1.55-12.61 1.28-13s16 33.3 16 33.3l34.57-1.26s1.69-49.32-20.66-99.49c34.37-5.67 72 5.64 80.65 22.17a14.69 14.69 0 011.54 9.86z" fill="url(#Безымянный_градиент_14)"/><path d="M225.12 232.7c.21 17.5-9.91 26.35-16.48 30.1a9.69 9.69 0 01-2.28-3.75q-4.33-3.48-8.26-7.34z" style="mix-blend-mode:multiply" opacity=".4" fill="#cc4a29"/><path d="M282.67 148.17c-3.27 16.68-32 38.78-32 38.78s11.8 21.92 6.32 51.85-28.67 28.67-37.52 24.45c14.48-5.48 28-29.65 17-63.38s-10.12-45.53-1.41-57c0 0 7 5.55 14.9 2.74 5.21-1.86 20.94-5.7 31.18-7.34a14.69 14.69 0 011.53 9.9z" style="mix-blend-mode:screen" opacity=".4" fill="#ffb741"/><path d="M235 142.9c6.32 13.49 17.5 19.18 24.66 16.23s15-12.86 15-12.86-20.24 1.69-27 1.69S235 142.9 235 142.9z" fill="#eb612f"/><path class="cls-8" d="M235 142.9c11 14.33 23 4.85 36.68 4.64 11-.17 20.83 4.78 26.51 9.15a1.59 1.59 0 002.5-1.66c-4.33-17-18.23-27.49-29.64-28.14-14.73-.89-19.79 22.97-36.05 16.01z"/><path class="cls-8" d="M233.34 147.12c-.11-4.32 3.27-4.74 5.8-4.43-4.43-3.79-8.01.21-5.8 4.43z"/><path class="cls-9" d="M241.21 129.9a10.61 10.61 0 01-1.53 5.51l-16.74 2a10.63 10.63 0 01-3.09-7.5c0-5.89 4.64-12.5 10.54-12.5s10.82 6.59 10.82 12.49z"/><path d="M241.21 129.9a10.61 10.61 0 01-1.53 5.51l-16.74 2a10.68 10.68 0 1118.27-7.5z" fill="url(#radial-gradient)"/><path class="cls-9" d="M263.3 121.52c1 3.7-.56 7.33-3.47 8.12s-6.08-1.58-7.08-5.27-.17-9 2.8-9.5c3.93-.7 6.75 2.96 7.75 6.65z"/><ellipse cx="258.02" cy="122.94" rx="5.46" ry="6.93" transform="rotate(-15.08 258.088 122.95)" fill="url(#radial-gradient-2)"/><ellipse class="cls-12" cx="256.23" cy="123.79" rx="3.27" ry="4.15" transform="rotate(-15.08 256.286 123.788)"/><path class="cls-9" d="M246.27 103.49l-.84 7.58 17.7 1.41 1.13-4.78-17.99-4.21zm-29.09 4.93l.47 4.36 20.29.85 2.28-6-23.04.79z"/><path class="cls-13" d="M203.55 117.12c-7-8.15-1.41-18-1.41-18s-10.4-.84-11.52 6.18 7.03 11.25 12.93 11.82z"/><path class="cls-13" d="M202.85 116c-17.14 5.06-28.67-14.33-27.82-22.76-6.19 18.26.28 37.93 27.82 22.76z"/><circle class="cls-12" cx="230.95" cy="130.04" r="6.04"/><path d="M225.12 232.7c-5.82 19-12.35 25.88-22.39 24.39a22.76 22.76 0 01-2.7-.57 35 35 0 01-4.6-1.6c-8.43-3.63-12.38-9.48-12-11.47.19-1.2 8.94 1.59 9.84 1.87-1.15-.61-17.2-8.93-16.8-11.78s14.56 3.47 16.1 4.15c-1.8-.94-21.15-11-20.94-14.06.14-2.18 9.34.66 15 2.63-6-2.32-16.05-6.69-15-9.8.88-2.64 19.69 3.62 34.76 9.11 2.35.85 4.6 1.69 6.69 2.48 6.97 2.64 12.04 4.65 12.04 4.65z" fill="url(#Безымянный_градиент_15)"/><path d="M211.63 232.91s-5.48 3-2.74 8c-2.11 0-5.69 3.58-2.53 7.59-4.28 1.18-4.11 5.88-3.63 8.58a22.76 22.76 0 01-2.7-.57 35 35 0 01-4.6-1.6c-1.77-2.89.3-7.55 3.76-8.52-2.11-2.11-.63-8.22 3-8.43-2.74-6.53 2.74-7 2.74-7s-2.84-3.85 1.46-5.43c2.35.85 4.6 1.69 6.69 2.48-2.08 1.63-1.45 4.9-1.45 4.9z" style="mix-blend-mode:screen" opacity=".5" fill="url(#linear-gradient)"/></g></g></svg>