<svg xmlns="http://www.w3.org/2000/svg" xmlns:xlink="http://www.w3.org/1999/xlink" viewBox="0 0 134.5 131.09"><defs><style>.cls-1{mask:url(#mask);filter:url(#luminosity-noclip-6);}.cls-10,.cls-16,.cls-19,.cls-2,.cls-4,.cls-6,.cls-8{mix-blend-mode:multiply;}.cls-2{fill:url(#linear-gradient);}.cls-3{mask:url(#mask-2);filter:url(#luminosity-noclip-7);}.cls-4{fill:url(#linear-gradient-2);}.cls-5{mask:url(#mask-3);filter:url(#luminosity-noclip-8);}.cls-6{fill:url(#linear-gradient-3);}.cls-7{mask:url(#mask-4);filter:url(#luminosity-noclip-9);}.cls-8{fill:url(#radial-gradient);}.cls-9{mask:url(#mask-5);filter:url(#luminosity-noclip-10);}.cls-10{fill:url(#radial-gradient-2);}.cls-11{isolation:isolate;}.cls-12{fill:url(#linear-gradient-4);}.cls-13{opacity:0.5;}.cls-13,.cls-23,.cls-25,.cls-27,.cls-28{mix-blend-mode:screen;}.cls-14{fill:#ffdc7c;}.cls-15{fill:#fff6e6;}.cls-16{fill:url(#linear-gradient-5);}.cls-17{fill:url(#linear-gradient-6);}.cls-18{fill:url(#linear-gradient-7);}.cls-20{fill:#215700;}.cls-21{fill:url(#linear-gradient-8);}.cls-22{mask:url(#mask-6);}.cls-23{fill:url(#linear-gradient-9);}.cls-24{mask:url(#mask-7);}.cls-25{fill:url(#linear-gradient-10);}.cls-26{mask:url(#mask-8);}.cls-27{fill:url(#linear-gradient-11);}.cls-29{mask:url(#mask-9);}.cls-30{fill:url(#radial-gradient-3);}.cls-31{mask:url(#mask-10);}.cls-32{fill:url(#radial-gradient-4);}.cls-33{filter:url(#luminosity-noclip-5);}.cls-34{filter:url(#luminosity-noclip-4);}.cls-35{filter:url(#luminosity-noclip-3);}.cls-36{filter:url(#luminosity-noclip-2);}.cls-37{filter:url(#luminosity-noclip);}</style><filter id="luminosity-noclip" x="19.61" y="-6488.52" width="40.16" height="32766" filterUnits="userSpaceOnUse" color-interpolation-filters="sRGB"><feFlood flood-color="#fff" result="bg"/><feBlend in="SourceGraphic" in2="bg"/></filter><mask id="mask" x="19.61" y="-6488.52" width="40.16" height="32766" maskUnits="userSpaceOnUse"><g class="cls-37"/></mask><linearGradient id="linear-gradient" x1="25.65" y1="23.19" x2="43.23" y2="42.2" gradientUnits="userSpaceOnUse"><stop offset="0.03" stop-color="#fff"/><stop offset="0.19" stop-color="#fff"/><stop offset="0.39" stop-color="#fff"/><stop offset="0.95"/></linearGradient><filter id="luminosity-noclip-2" x="62.41" y="-6488.52" width="12.26" height="32766" filterUnits="userSpaceOnUse" color-interpolation-filters="sRGB"><feFlood flood-color="#fff" result="bg"/><feBlend in="SourceGraphic" in2="bg"/></filter><mask id="mask-2" x="62.41" y="-6488.52" width="12.26" height="32766" maskUnits="userSpaceOnUse"><g class="cls-36"/></mask><linearGradient id="linear-gradient-2" x1="58" y1="8.43" x2="77.18" y2="28.76" gradientUnits="userSpaceOnUse"><stop offset="0" stop-color="#fff"/><stop offset="0.31" stop-color="#fff"/><stop offset="0.8"/></linearGradient><filter id="luminosity-noclip-3" x="18.82" y="-6488.52" width="94.65" height="32766" filterUnits="userSpaceOnUse" color-interpolation-filters="sRGB"><feFlood flood-color="#fff" result="bg"/><feBlend in="SourceGraphic" in2="bg"/></filter><mask id="mask-3" x="18.82" y="-6488.52" width="94.65" height="32766" maskUnits="userSpaceOnUse"><g class="cls-35"/></mask><linearGradient id="linear-gradient-3" x1="66.14" y1="120.63" x2="66.14" y2="76.03" xlink:href="#linear-gradient"/><filter id="luminosity-noclip-4" x="27.96" y="-6488.52" width="89.56" height="32766" filterUnits="userSpaceOnUse" color-interpolation-filters="sRGB"><feFlood flood-color="#fff" result="bg"/><feBlend in="SourceGraphic" in2="bg"/></filter><mask id="mask-4" x="27.96" y="-6488.52" width="89.56" height="32766" maskUnits="userSpaceOnUse"><g class="cls-34"/></mask><radialGradient id="radial-gradient" cx="109.14" cy="128.42" r="69.02" gradientUnits="userSpaceOnUse"><stop offset="0" stop-color="#fff"/><stop offset="0.24" stop-color="#fff"/><stop offset="0.79"/></radialGradient><filter id="luminosity-noclip-5" x="14.5" y="-6488.52" width="92.69" height="32766" filterUnits="userSpaceOnUse" color-interpolation-filters="sRGB"><feFlood flood-color="#fff" result="bg"/><feBlend in="SourceGraphic" in2="bg"/></filter><mask id="mask-5" x="14.5" y="-6488.52" width="92.69" height="32766" maskUnits="userSpaceOnUse"><g class="cls-33"/></mask><radialGradient id="radial-gradient-2" cx="4026.2" cy="-24.38" r="68.92" gradientTransform="matrix(-1, 0.08, 0.08, 1, 4043.48, -158.03)" xlink:href="#radial-gradient"/><linearGradient id="linear-gradient-4" x1="67.25" y1="-8.48" x2="67.25" y2="136.19" gradientUnits="userSpaceOnUse"><stop offset="0.42" stop-color="#72c6cc"/><stop offset="0.89" stop-color="#00778b"/></linearGradient><linearGradient id="linear-gradient-5" x1="66.57" y1="120.38" x2="66.57" y2="9.57" xlink:href="#linear-gradient-4"/><linearGradient id="linear-gradient-6" x1="67.25" y1="135.61" x2="67.25" y2="50.76" xlink:href="#linear-gradient-4"/><linearGradient id="linear-gradient-7" x1="66.42" y1="131.59" x2="66.42" y2="33.02" xlink:href="#linear-gradient-4"/><linearGradient id="linear-gradient-8" x1="65.63" y1="126.24" x2="65.63" y2="24" xlink:href="#linear-gradient-4"/><filter id="luminosity-noclip-6" x="19.61" y="17.55" width="40.16" height="40.69" filterUnits="userSpaceOnUse" color-interpolation-filters="sRGB"><feFlood flood-color="#fff" result="bg"/><feBlend in="SourceGraphic" in2="bg"/></filter><mask id="mask-6" x="19.61" y="17.55" width="40.16" height="40.69" maskUnits="userSpaceOnUse"><g class="cls-1"><path class="cls-2" d="M19.82,55c-.65-7.33.39-21.29,1-26.51s-.39-8.52,10.06-9.67a159,159,0,0,1,23.23-1.17c5.23.2,8.32,3.29,2.71,5.22S34.07,34.59,24.27,54.21C23.1,56.52,20.4,61.56,19.82,55Z"/></g></mask><linearGradient id="linear-gradient-9" x1="25.65" y1="23.19" x2="43.23" y2="42.2" gradientUnits="userSpaceOnUse"><stop offset="0.03" stop-color="#fff"/><stop offset="0.19" stop-color="#c8c8c8"/><stop offset="0.39" stop-color="#7f7f7f"/><stop offset="0.95" stop-color="#474747"/></linearGradient><filter id="luminosity-noclip-7" x="62.41" y="17.35" width="12.26" height="4.04" filterUnits="userSpaceOnUse" color-interpolation-filters="sRGB"><feFlood flood-color="#fff" result="bg"/><feBlend in="SourceGraphic" in2="bg"/></filter><mask id="mask-7" x="62.41" y="17.35" width="12.26" height="4.04" maskUnits="userSpaceOnUse"><g class="cls-3"><path class="cls-4" d="M64.14,17.42c6.39-.18,11.23-.18,10.45,2.13s-2.51,1.91-7.16,1.55c-2.52-.2-4.64.59-4.84-.58S61.94,17.49,64.14,17.42Z"/></g></mask><linearGradient id="linear-gradient-10" x1="58" y1="8.43" x2="77.18" y2="28.76" gradientUnits="userSpaceOnUse"><stop offset="0" stop-color="#c8c8c8"/><stop offset="0.31" stop-color="#7f7f7f"/><stop offset="0.8" stop-color="#474747"/></linearGradient><filter id="luminosity-noclip-8" x="18.82" y="68.92" width="94.65" height="42.62" filterUnits="userSpaceOnUse" color-interpolation-filters="sRGB"><feFlood flood-color="#fff" result="bg"/><feBlend in="SourceGraphic" in2="bg"/></filter><mask id="mask-8" x="18.82" y="68.92" width="94.65" height="42.62" maskUnits="userSpaceOnUse"><g class="cls-5"><path class="cls-6" d="M19.23,96.8c-2.32-21.29,5.42-32.51,16.65-17.42s17,15.87,25.93,15.48,23.62-2.7,31.36-15.48,20.52-15.49,19.75,1.16,7.73,31-22.45,30.59c-18.2-.24-41.82-.38-57.69.38C24.2,111.94,20.36,107.09,19.23,96.8Z"/></g></mask><linearGradient id="linear-gradient-11" x1="66.14" y1="120.63" x2="66.14" y2="76.03" xlink:href="#linear-gradient-9"/><filter id="luminosity-noclip-9" x="27.96" y="60.79" width="89.56" height="52.61" filterUnits="userSpaceOnUse" color-interpolation-filters="sRGB"><feFlood flood-color="#fff" result="bg"/><feBlend in="SourceGraphic" in2="bg"/></filter><mask id="mask-9" x="27.96" y="60.79" width="89.56" height="52.61" maskUnits="userSpaceOnUse"><g class="cls-7"><path class="cls-8" d="M40.7,110c13.27-2.16,50,.6,58.33-.89s14.29-3,14.88-11.9-.59-20.24-.59-26.19,3.87-20.25,4.17,1.19-.79,28.66-1.19,32.13-1.78,8-14.88,8-22.32,1.5-38.1.9S7.66,115.33,40.7,110Z"/></g></mask><radialGradient id="radial-gradient-3" cx="109.14" cy="128.42" r="69.02" gradientUnits="userSpaceOnUse"><stop offset="0" stop-color="#c8c8c8"/><stop offset="0.24" stop-color="#7f7f7f"/><stop offset="0.79" stop-color="#474747"/></radialGradient><filter id="luminosity-noclip-10" x="14.5" y="63.75" width="92.69" height="50.31" filterUnits="userSpaceOnUse" color-interpolation-filters="sRGB"><feFlood flood-color="#fff" result="bg"/><feBlend in="SourceGraphic" in2="bg"/></filter><mask id="mask-10" x="14.5" y="63.75" width="92.69" height="50.31" maskUnits="userSpaceOnUse"><g class="cls-9"><path class="cls-10" d="M94.27,106.82c-13.4-1.11-49.8,4.48-58.22,3.64S23,108.26,20.29,99.75C15.4,84.38,18.24,79.9,17.78,74s-4.37-20.25-3,1.14,3,28.52,3.69,32,2.4,7.87,15.46,6.86,22.37-.25,38.05-2.07S127.63,109.58,94.27,106.82Z"/></g></mask><radialGradient id="radial-gradient-4" cx="4026.2" cy="-24.38" r="68.92" gradientTransform="matrix(-1, 0.08, 0.08, 1, 4043.48, -158.03)" xlink:href="#radial-gradient-3"/></defs><title>Монтажная область 55</title><g class="cls-11"><g id="layer_1" data-name="layer 1"><path class="cls-12" d="M134.18,25.13c-.6-10.27-1.65-21.72-13.78-23.49a92,92,0,0,0-13.66-.5c-7.22,0-14.4-.05-21.61-.28C70.32.4,55.51.29,40.7.15,34.36.09,28-.09,21.68.06A28.62,28.62,0,0,0,9.37,2.59c-3.94,2-6.28,5.78-7.63,9.82C.56,16,.63,19.67.8,23.38.37,33.47.45,43.64.36,53.71.24,65.66.29,77.57,0,89.5A159.63,159.63,0,0,0,.49,106c.37,4.39.78,9.2,2.66,13.23C6.3,126,14.52,130.61,21.85,131c6.83.3,13.15-.32,19.64-.79,8.3-.62,14.93-.4,23.25-.87,9-.49,18-.81,27-1,4.27-.07,8.5.11,12.77.26,3.59.1,7.5.24,11-.71,4.08-.38,8.11-.93,11.16-4.06,3.2-3.29,4.24-8.56,4.79-12.95q1.18-9.33,1.48-18.75c.28-8.38-.16-16.7.35-25.08.55-8.9,1.09-17.81,1.18-26.72C134.54,35.28,134.46,30.2,134.18,25.13Z"/><g class="cls-13"><path class="cls-14" d="M18.24,20.85a32.74,32.74,0,0,1,3.48-4.54C19.59,11.13,17.58,5.86,15.6.61a22.25,22.25,0,0,0-6.23,2,15,15,0,0,0-6.79,7.67c3.63,3.22,8.54,5.52,12.34,8.18C16,19.24,17.13,20.06,18.24,20.85Z"/><path class="cls-14" d="M112.24,17.9c.58,1.26,1.27,2.46,1.93,3.67,6.49-1.1,12.87-2.8,19.34-4-1.06-7.39-3.73-14-12-15.75a44.21,44.21,0,0,1-4.81,8.55C115.11,12.85,113.61,15.34,112.24,17.9Z"/><path class="cls-14" d="M111.25,107.17l-.73.68c.25,3.06,2.27,6.66,3,9.54.85,3.46,1.6,7,2.29,10.48,4-.38,7.91-1,10.88-4a15.91,15.91,0,0,0,3.63-6.93c-6-3.67-12.46-6.61-18.46-10.26Z"/><path class="cls-14" d="M21.92,103.29a1.78,1.78,0,0,1-.31.4c-6.07,5.6-11.55,11.79-17.13,17.89,3.38,4.93,9.53,8.35,15.44,9.22,1.74-8.62,3.22-17.29,4.21-26C23.39,104.29,22.64,103.79,21.92,103.29Z"/></g><path class="cls-15" d="M19.3,14.86c-1.75-4.68-4-9.15-5.93-13.76a21,21,0,0,0-4,1.49,2.22,2.22,0,0,0-.25.15C12.71,6.62,16.13,10.66,19.3,14.86Z"/><path class="cls-15" d="M116.66,20.29q2.47-1.55,5-3c3.15-2.24,6.14-4.76,9.09-7.3A150.76,150.76,0,0,0,116.66,20.29Z"/><path class="cls-15" d="M129.65,6.81a12.49,12.49,0,0,0-5.3-4.08C120.64,7,118.05,12.5,115,17.19l-.32.49C119.33,13.68,124.6,10.35,129.65,6.81Z"/><path class="cls-15" d="M122.2,116.85c1.66,2.13,3.32,4.25,5.07,6.24a13.28,13.28,0,0,0,1.59-2.4,31.68,31.68,0,0,1-5.1-3.33c-1.43-1.17-2.92-2.27-4.42-3.33A18.52,18.52,0,0,1,122.2,116.85Z"/><path class="cls-15" d="M7.54,125c.5-.68.9-1.22,1.13-1.57,2.57-3.91,5.25-7.77,7.91-11.64-3.61,3.82-7.26,7.6-10.78,11.5A19.31,19.31,0,0,0,7.54,125Z"/><path class="cls-16" d="M123,59c-.22-7.33-.28-14.14-.42-21.47-.14-6.63,0-12.82-1-19.39-1.2-7.86-8.06-7.73-14.84-7.82-23.8-2.57-48-1.08-71.91-1-7,0-15.15.31-20.43,5.61-3.81,3.82-4.17,9.21-3.73,14.71,0,10-.7,17.15-.72,25.71,0,10.5-.14,21,.58,31.45.31,4.48.71,9,1.31,13.4.51,3.78.85,7.82,2.35,11.36,2.19,5.17,7,7.86,12.58,7.72a.64.64,0,0,0,.39-.16c6,.67,12.23.33,18.17.39,7.74.09,15.48.12,23.22.14s15.61-.16,23.38-.91c5-.46,11.74-.2,16.71-.49,4-.25,7.49-1.2,10.44-4.39s3.09-9.24,3.34-13.35C123.25,86.75,123.43,72.84,123,59Z"/><path class="cls-17" d="M134.18,25.13c-.6-10.27-1.65-21.72-13.78-23.49a92,92,0,0,0-13.66-.5c-7.22,0-14.4-.05-21.61-.28C70.32.4,55.51.29,40.7.15,34.36.09,28-.09,21.68.06A28.62,28.62,0,0,0,9.37,2.59c-3.94,2-6.28,5.78-7.63,9.82C.56,16,.63,19.67.8,23.38.37,33.47.45,43.64.36,53.71.24,65.66.29,77.57,0,89.5A159.63,159.63,0,0,0,.49,106c.37,4.39.78,9.2,2.66,13.23C6.3,126,14.52,130.61,21.85,131c6.83.3,13.15-.32,19.64-.79,8.3-.62,14.93-.4,23.25-.87,9-.49,18-.81,27-1,4.27-.07,8.5.11,12.77.26,3.59.1,7.5.24,11-.71,4.08-.38,8.11-.93,11.16-4.06,3.2-3.29,4.24-8.56,4.79-12.95q1.18-9.33,1.48-18.75c.28-8.38-.16-16.7.35-25.08.55-8.9,1.09-17.81,1.18-26.72C134.54,35.28,134.46,30.2,134.18,25.13ZM131,90.08c-.16,5.36-.4,10.71-.79,16-.35,4.9-1,10-3.46,14.33-2.7,4.78-9.11,5.76-14,6.09-6.57.42-13.19-.07-19.77,0-9,.15-18,.5-27,1-8,.41-14.22.1-22.24.87-3.47.33-12.58,1.09-16.07,1-7.35-.2-13.4-1.79-16.76-4.05a17.6,17.6,0,0,1-7.22-10.47C1,104.67,1.68,93.28,1.87,82.84s-.05-21,.05-31.44c.09-8.56.64-17.27.34-25.89A76,76,0,0,1,2.68,16c.83-5.53,4-10.4,9.29-12.42C16,2,20.54,2.07,24.77,2.06c6.47,0,13,.13,19.43.21,13.65.16,27.29.32,40.93.74,6.84.23,13.65.36,20.5.3A118.91,118.91,0,0,1,119.05,4c6.87.71,10.59,3.1,12.15,10.1,1.31,5.86,1.23,11.84,1.46,17.79C133.4,51.25,131.54,70.72,131,90.08Z"/><path class="cls-18" d="M120.05,58.38c-.2-7-.25-13.46-.39-20.43-.13-6.31,0-12.21-1-18.45-1.14-7.48-7.66-7.37-14.1-7.44-22.62-2.45-45.63-1-68.32-1-6.69,0-14.4.27-19.41,5.32-3.61,3.64-4,8.78-3.54,14,0,9.54-.66,16.33-.69,24.48,0,10-.12,20,.56,29.93.29,4.26.67,8.51,1.25,12.75.48,3.58.8,7.44,2.23,10.81,2.07,4.92,6.63,7.49,11.95,7.34a.52.52,0,0,0,.37-.17c5.67.65,11.62.32,17.26.38,7.36.1,14.71.11,22.06.14s14.82-.16,22.21-.86c4.71-.45,11.16-.2,15.87-.48,3.83-.22,7.12-1.14,9.92-4.16s2.94-8.8,3.18-12.7C120.27,84.74,120.44,71.53,120.05,58.38Z"/><g class="cls-19"><path class="cls-20" d="M120.05,58.38c-.2-7-.25-13.46-.39-20.43-.13-6.31,0-12.21-1-18.45-1.14-7.48-7.66-7.37-14.1-7.44-22.62-2.45-45.63-1-68.32-1-6.69,0-14.4.27-19.41,5.32-3.61,3.64-4,8.78-3.54,14,0,9.54-.66,16.33-.69,24.48,0,10-.12,20,.56,29.93.29,4.26.67,8.51,1.25,12.75.48,3.58.8,7.44,2.23,10.81,2.07,4.92,6.63,7.49,11.95,7.34a.52.52,0,0,0,.37-.17c5.67.65,11.62.32,17.26.38,7.36.1,14.71.11,22.06.14s14.82-.16,22.21-.86c4.71-.45,11.16-.2,15.87-.48,3.83-.22,7.12-1.14,9.92-4.16s2.94-8.8,3.18-12.7C120.27,84.74,120.44,71.53,120.05,58.38Zm-2,36.94c-.19,3.87-.38,9-2.2,12.46-3.46,6.67-12.35,4.9-18.7,5.42-9.23.74-18.47,1.48-27.74,1.51-7,0-13.93,0-20.89-.08-6.64,0-13.62-.75-20.27-.16-2.55-.5-5-.82-7.21-2.32s-3.37-4.4-4.07-7C14.78,96.82,14.47,87.65,14.13,79c-.55-13.72.87-28.33,1-42.09.18,1.59-1-16.28,3.94-20.33,5.86-4.81,15.61-3.77,22.58-3.8,10.92-.07,21.82-.36,32.73-.35,6.81,0,13.63.27,20.43.63,3.52.22,7,.32,10.57.47,3.94.16,7.84-.27,10.16,3.63,2.63,4.43,2.68,10.42,2.76,15.36.17,8.73-.39,17.66,0,26.36a239,239,0,0,1,0,25.49C118.13,87,118.28,91.07,118.09,95.32Z"/></g><path class="cls-21" d="M113.33,56.43c-.18-6.11-.23-11.79-.36-17.9-.12-5.53,0-10.69-.88-16.18-1-6.55-6.81-6.45-12.54-6.52C79.44,13.7,59,14.93,38.8,15c-5.95,0-12.8.25-17.26,4.68-3.22,3.18-3.52,7.69-3.15,12.26,0,8.35-.59,14.32-.61,21.46,0,8.75-.12,17.48.5,26.22.27,3.74.6,7.47,1.11,11.19.43,3.14.72,6.52,2,9.48,1.84,4.3,5.89,6.55,10.62,6.43a.55.55,0,0,0,.33-.13c5,.57,10.33.27,15.35.34,6.53.07,13.08.1,19.62.11s13.18-.15,19.75-.76c4.19-.39,9.92-.17,14.11-.42,3.4-.2,6.32-1,8.82-3.64s2.61-7.72,2.83-11.13C113.52,79.55,113.67,68,113.33,56.43Z"/><g class="cls-22"><path class="cls-23" d="M19.82,55c-.65-7.33.39-21.29,1-26.51s-.39-8.52,10.06-9.67a159,159,0,0,1,23.23-1.17c5.23.2,8.32,3.29,2.71,5.22S34.07,34.59,24.27,54.21C23.1,56.52,20.4,61.56,19.82,55Z"/></g><g class="cls-24"><path class="cls-25" d="M64.14,17.42c6.39-.18,11.23-.18,10.45,2.13s-2.51,1.91-7.16,1.55c-2.52-.2-4.64.59-4.84-.58S61.94,17.49,64.14,17.42Z"/></g><g class="cls-26"><path class="cls-27" d="M19.23,96.8c-2.32-21.29,5.42-32.51,16.65-17.42s17,15.87,25.93,15.48,23.62-2.7,31.36-15.48,20.52-15.49,19.75,1.16,7.73,31-22.45,30.59c-18.2-.24-41.82-.38-57.69.38C24.2,111.94,20.36,107.09,19.23,96.8Z"/></g><g class="cls-28"><g class="cls-29"><path class="cls-30" d="M40.7,110c13.27-2.16,50,.6,58.33-.89s14.29-3,14.88-11.9-.59-20.24-.59-26.19,3.87-20.25,4.17,1.19-.79,28.66-1.19,32.13-1.78,8-14.88,8-22.32,1.5-38.1.9S7.66,115.33,40.7,110Z"/></g></g><g class="cls-28"><g class="cls-31"><path class="cls-32" d="M94.27,106.82c-13.4-1.11-49.8,4.48-58.22,3.64S23,108.26,20.29,99.75C15.4,84.38,18.24,79.9,17.78,74s-4.37-20.25-3,1.14,3,28.52,3.69,32,2.4,7.87,15.46,6.86,22.37-.25,38.05-2.07S127.63,109.58,94.27,106.82Z"/></g></g></g></g></svg>