<svg xmlns="http://www.w3.org/2000/svg" xmlns:xlink="http://www.w3.org/1999/xlink" viewBox="0 0 134.5 131.09"><defs><linearGradient id="linear-gradient-9" x1="25.65" y1="23.19" x2="43.23" y2="42.2" gradientUnits="userSpaceOnUse"><stop offset=".03" stop-color="#fff"/><stop offset=".19" stop-color="#c8c8c8"/><stop offset=".39" stop-color="#7f7f7f"/><stop offset=".95" stop-color="#474747"/></linearGradient><linearGradient id="linear-gradient" x1="25.65" y1="23.19" x2="43.23" y2="42.2" gradientUnits="userSpaceOnUse"><stop offset=".03" stop-color="#fff"/><stop offset=".19" stop-color="#fff"/><stop offset=".39" stop-color="#fff"/><stop offset=".95"/></linearGradient><linearGradient id="linear-gradient-2" x1="58" y1="8.43" x2="77.18" y2="28.76" gradientUnits="userSpaceOnUse"><stop offset="0" stop-color="#fff"/><stop offset=".31" stop-color="#fff"/><stop offset=".8"/></linearGradient><linearGradient id="linear-gradient-3" x1="66.14" y1="120.63" x2="66.14" y2="76.03" xlink:href="#linear-gradient"/><linearGradient id="linear-gradient-4" x1="67.25" y1="-8.48" x2="67.25" y2="136.19" gradientUnits="userSpaceOnUse"><stop offset=".42" stop-color="#72c6cc"/><stop offset=".89" stop-color="#00778b"/></linearGradient><linearGradient id="linear-gradient-5" x1="66.57" y1="120.38" x2="66.57" y2="9.57" xlink:href="#linear-gradient-4"/><linearGradient id="linear-gradient-10" x1="58" y1="8.43" x2="77.18" y2="28.76" gradientUnits="userSpaceOnUse"><stop offset="0" stop-color="#c8c8c8"/><stop offset=".31" stop-color="#7f7f7f"/><stop offset=".8" stop-color="#474747"/></linearGradient><linearGradient id="linear-gradient-11" x1="66.14" y1="120.63" x2="66.14" y2="76.03" xlink:href="#linear-gradient-9"/><linearGradient id="linear-gradient-8" x1="65.63" y1="126.24" x2="65.63" y2="24" xlink:href="#linear-gradient-4"/><linearGradient id="linear-gradient-6" x1="67.25" y1="135.61" x2="67.25" y2="50.76" xlink:href="#linear-gradient-4"/><linearGradient id="linear-gradient-7" x1="66.42" y1="131.59" x2="66.42" y2="33.02" xlink:href="#linear-gradient-4"/><filter id="luminosity-noclip-4" x="27.96" y="-6488.52" width="89.56" height="32766" filterUnits="userSpaceOnUse" color-interpolation-filters="sRGB"><feFlood flood-color="#fff" result="bg"/><feBlend in="SourceGraphic" in2="bg"/></filter><filter id="luminosity-noclip" x="19.61" y="-6488.52" width="40.16" height="32766" filterUnits="userSpaceOnUse" color-interpolation-filters="sRGB"><feFlood flood-color="#fff" result="bg"/><feBlend in="SourceGraphic" in2="bg"/></filter><filter id="luminosity-noclip-5" x="14.5" y="-6488.52" width="92.69" height="32766" filterUnits="userSpaceOnUse" color-interpolation-filters="sRGB"><feFlood flood-color="#fff" result="bg"/><feBlend in="SourceGraphic" in2="bg"/></filter><filter id="luminosity-noclip-10" x="14.5" y="63.75" width="92.69" height="50.31" filterUnits="userSpaceOnUse" color-interpolation-filters="sRGB"><feFlood flood-color="#fff" result="bg"/><feBlend in="SourceGraphic" in2="bg"/></filter><filter id="luminosity-noclip-6" x="19.61" y="17.55" width="40.16" height="40.69" filterUnits="userSpaceOnUse" color-interpolation-filters="sRGB"><feFlood flood-color="#fff" result="bg"/><feBlend in="SourceGraphic" in2="bg"/></filter><filter id="luminosity-noclip-7" x="62.41" y="17.35" width="12.26" height="4.04" filterUnits="userSpaceOnUse" color-interpolation-filters="sRGB"><feFlood flood-color="#fff" result="bg"/><feBlend in="SourceGraphic" in2="bg"/></filter><filter id="luminosity-noclip-9" x="27.96" y="60.79" width="89.56" height="52.61" filterUnits="userSpaceOnUse" color-interpolation-filters="sRGB"><feFlood flood-color="#fff" result="bg"/><feBlend in="SourceGraphic" in2="bg"/></filter><filter id="luminosity-noclip-3" x="18.82" y="-6488.52" width="94.65" height="32766" filterUnits="userSpaceOnUse" color-interpolation-filters="sRGB"><feFlood flood-color="#fff" result="bg"/><feBlend in="SourceGraphic" in2="bg"/></filter><filter id="luminosity-noclip-8" x="18.82" y="68.92" width="94.65" height="42.62" filterUnits="userSpaceOnUse" color-interpolation-filters="sRGB"><feFlood flood-color="#fff" result="bg"/><feBlend in="SourceGraphic" in2="bg"/></filter><filter id="luminosity-noclip-2" x="62.41" y="-6488.52" width="12.26" height="32766" filterUnits="userSpaceOnUse" color-interpolation-filters="sRGB"><feFlood flood-color="#fff" result="bg"/><feBlend in="SourceGraphic" in2="bg"/></filter><mask id="mask-8" x="18.82" y="68.92" width="94.65" height="42.62" maskUnits="userSpaceOnUse"><g mask="url(#mask-3)" filter="url(#luminosity-noclip-8)"><path d="M19.23 96.8c-2.32-21.29 5.42-32.51 16.65-17.42s17 15.87 25.93 15.48 23.62-2.7 31.36-15.48 20.52-15.49 19.75 1.16 7.73 31-22.45 30.59c-18.2-.24-41.82-.38-57.69.38-8.58.43-12.42-4.42-13.55-14.71z" style="mix-blend-mode:multiply" fill="url(#linear-gradient-3)"/></g></mask><mask id="mask-7" x="62.41" y="17.35" width="12.26" height="4.04" maskUnits="userSpaceOnUse"><g mask="url(#mask-2)" filter="url(#luminosity-noclip-7)"><path d="M64.14 17.42c6.39-.18 11.23-.18 10.45 2.13s-2.51 1.91-7.16 1.55c-2.52-.2-4.64.59-4.84-.58s-.65-3.03 1.55-3.1z" style="mix-blend-mode:multiply" fill="url(#linear-gradient-2)"/></g></mask><mask id="mask-9" x="27.96" y="60.79" width="89.56" height="52.61" maskUnits="userSpaceOnUse"><g mask="url(#mask-4)" filter="url(#luminosity-noclip-9)"><path d="M40.7 110c13.27-2.16 50 .6 58.33-.89s14.29-3 14.88-11.9-.59-20.24-.59-26.19 3.87-20.25 4.17 1.19-.79 28.66-1.19 32.13-1.78 8-14.88 8-22.32 1.5-38.1.9S7.66 115.33 40.7 110z" style="mix-blend-mode:multiply" fill="url(#radial-gradient)"/></g></mask><mask id="mask-6" x="19.61" y="17.55" width="40.16" height="40.69" maskUnits="userSpaceOnUse"><g mask="url(#mask)" filter="url(#luminosity-noclip-6)"><path d="M19.82 55c-.65-7.33.39-21.29 1-26.51s-.39-8.52 10.06-9.67a159 159 0 0123.23-1.17c5.23.2 8.32 3.29 2.71 5.22S34.07 34.59 24.27 54.21c-1.17 2.31-3.87 7.35-4.45.79z" style="mix-blend-mode:multiply" fill="url(#linear-gradient)"/></g></mask><mask id="mask-10" x="14.5" y="63.75" width="92.69" height="50.31" maskUnits="userSpaceOnUse"><g mask="url(#mask-5)" filter="url(#luminosity-noclip-10)"><path d="M94.27 106.82c-13.4-1.11-49.8 4.48-58.22 3.64S23 108.26 20.29 99.75C15.4 84.38 18.24 79.9 17.78 74s-4.37-20.25-3 1.14 3 28.52 3.69 32 2.4 7.87 15.46 6.86 22.37-.25 38.05-2.07 55.65-2.35 22.29-5.11z" style="mix-blend-mode:multiply" fill="url(#radial-gradient-2)"/></g></mask><radialGradient id="radial-gradient" cx="109.14" cy="128.42" r="69.02" gradientUnits="userSpaceOnUse"><stop offset="0" stop-color="#fff"/><stop offset=".24" stop-color="#fff"/><stop offset=".79"/></radialGradient><radialGradient id="radial-gradient-3" cx="109.14" cy="128.42" r="69.02" gradientUnits="userSpaceOnUse"><stop offset="0" stop-color="#c8c8c8"/><stop offset=".24" stop-color="#7f7f7f"/><stop offset=".79" stop-color="#474747"/></radialGradient><radialGradient id="radial-gradient-4" cx="4026.2" cy="-24.38" r="68.92" gradientTransform="matrix(-1 .08 .08 1 4043.48 -158.03)" xlink:href="#radial-gradient-3"/><radialGradient id="radial-gradient-2" cx="4026.2" cy="-24.38" r="68.92" gradientTransform="matrix(-1 .08 .08 1 4043.48 -158.03)" xlink:href="#radial-gradient"/><style/></defs><g style="isolation:isolate"><g id="layer_1" data-name="layer 1"><path d="M134.18 25.13c-.6-10.27-1.65-21.72-13.78-23.49a92 92 0 00-13.66-.5c-7.22 0-14.4-.05-21.61-.28C70.32.4 55.51.29 40.7.15 34.36.09 28-.09 21.68.06A28.62 28.62 0 009.37 2.59c-3.94 2-6.28 5.78-7.63 9.82C.56 16 .63 19.67.8 23.38.37 33.47.45 43.64.36 53.71.24 65.66.29 77.57 0 89.5A159.63 159.63 0 00.49 106c.37 4.39.78 9.2 2.66 13.23C6.3 126 14.52 130.61 21.85 131c6.83.3 13.15-.32 19.64-.79 8.3-.62 14.93-.4 23.25-.87 9-.49 18-.81 27-1 4.27-.07 8.5.11 12.77.26 3.59.1 7.5.24 11-.71 4.08-.38 8.11-.93 11.16-4.06 3.2-3.29 4.24-8.56 4.79-12.95q1.18-9.33 1.48-18.75c.28-8.38-.16-16.7.35-25.08.55-8.9 1.09-17.81 1.18-26.72.07-5.05-.01-10.13-.29-15.2z" fill="url(#linear-gradient-4)"/><path d="M18.24 20.85a32.74 32.74 0 013.48-4.54C19.59 11.13 17.58 5.86 15.6.61a22.25 22.25 0 00-6.23 2 15 15 0 00-6.79 7.67c3.63 3.22 8.54 5.52 12.34 8.18 1.08.78 2.21 1.6 3.32 2.39zm94-2.95c.58 1.26 1.27 2.46 1.93 3.67 6.49-1.1 12.87-2.8 19.34-4-1.06-7.39-3.73-14-12-15.75a44.21 44.21 0 01-4.81 8.55c-1.59 2.48-3.09 4.97-4.46 7.53zm-.99 89.27l-.73.68c.25 3.06 2.27 6.66 3 9.54.85 3.46 1.6 7 2.29 10.48 4-.38 7.91-1 10.88-4a15.91 15.91 0 003.63-6.93c-6-3.67-12.46-6.61-18.46-10.26zm-89.33-3.88a1.78 1.78 0 01-.31.4c-6.07 5.6-11.55 11.79-17.13 17.89 3.38 4.93 9.53 8.35 15.44 9.22 1.74-8.62 3.22-17.29 4.21-26-.74-.51-1.49-1.01-2.21-1.51z" fill="#ffdc7c" opacity=".5"/><path d="M19.3 14.86c-1.75-4.68-4-9.15-5.93-13.76a21 21 0 00-4 1.49 2.22 2.22 0 00-.25.15c3.59 3.88 7.01 7.92 10.18 12.12zm97.36 5.43q2.47-1.55 5-3c3.15-2.24 6.14-4.76 9.09-7.3a150.76 150.76 0 00-14.09 10.3zm12.99-13.48a12.49 12.49 0 00-5.3-4.08c-3.71 4.27-6.3 9.77-9.35 14.46l-.32.49c4.65-4 9.92-7.33 14.97-10.87zm-7.45 110.04c1.66 2.13 3.32 4.25 5.07 6.24a13.28 13.28 0 001.59-2.4 31.68 31.68 0 01-5.1-3.33 78.564 78.564 0 00-4.42-3.33 18.52 18.52 0 012.86 2.82zM7.54 125c.5-.68.9-1.22 1.13-1.57 2.57-3.91 5.25-7.77 7.91-11.64-3.61 3.82-7.26 7.6-10.78 11.5A19.31 19.31 0 007.54 125z" fill="#fff6e6"/><path d="M123 59c-.22-7.33-.28-14.14-.42-21.47-.14-6.63 0-12.82-1-19.39-1.2-7.86-8.06-7.73-14.84-7.82-23.8-2.57-48-1.08-71.91-1-7 0-15.15.31-20.43 5.61-3.81 3.82-4.17 9.21-3.73 14.71 0 10-.7 17.15-.72 25.71 0 10.5-.14 21 .58 31.45.31 4.48.71 9 1.31 13.4.51 3.78.85 7.82 2.35 11.36 2.19 5.17 7 7.86 12.58 7.72a.64.64 0 00.39-.16c6 .67 12.23.33 18.17.39 7.74.09 15.48.12 23.22.14s15.61-.16 23.38-.91c5-.46 11.74-.2 16.71-.49 4-.25 7.49-1.2 10.44-4.39s3.09-9.24 3.34-13.35c.83-13.76 1.01-27.67.58-41.51z" style="mix-blend-mode:multiply" fill="url(#linear-gradient-5)"/><path d="M134.18 25.13c-.6-10.27-1.65-21.72-13.78-23.49a92 92 0 00-13.66-.5c-7.22 0-14.4-.05-21.61-.28C70.32.4 55.51.29 40.7.15 34.36.09 28-.09 21.68.06A28.62 28.62 0 009.37 2.59c-3.94 2-6.28 5.78-7.63 9.82C.56 16 .63 19.67.8 23.38.37 33.47.45 43.64.36 53.71.24 65.66.29 77.57 0 89.5A159.63 159.63 0 00.49 106c.37 4.39.78 9.2 2.66 13.23C6.3 126 14.52 130.61 21.85 131c6.83.3 13.15-.32 19.64-.79 8.3-.62 14.93-.4 23.25-.87 9-.49 18-.81 27-1 4.27-.07 8.5.11 12.77.26 3.59.1 7.5.24 11-.71 4.08-.38 8.11-.93 11.16-4.06 3.2-3.29 4.24-8.56 4.79-12.95q1.18-9.33 1.48-18.75c.28-8.38-.16-16.7.35-25.08.55-8.9 1.09-17.81 1.18-26.72.07-5.05-.01-10.13-.29-15.2zM131 90.08c-.16 5.36-.4 10.71-.79 16-.35 4.9-1 10-3.46 14.33-2.7 4.78-9.11 5.76-14 6.09-6.57.42-13.19-.07-19.77 0-9 .15-18 .5-27 1-8 .41-14.22.1-22.24.87-3.47.33-12.58 1.09-16.07 1-7.35-.2-13.4-1.79-16.76-4.05a17.6 17.6 0 01-7.22-10.47C1 104.67 1.68 93.28 1.87 82.84s-.05-21 .05-31.44c.09-8.56.64-17.27.34-25.89A76 76 0 012.68 16c.83-5.53 4-10.4 9.29-12.42C16 2 20.54 2.07 24.77 2.06c6.47 0 13 .13 19.43.21 13.65.16 27.29.32 40.93.74 6.84.23 13.65.36 20.5.3a118.91 118.91 0 0113.42.69c6.87.71 10.59 3.1 12.15 10.1 1.31 5.86 1.23 11.84 1.46 17.79.74 19.36-1.12 38.83-1.66 58.19z" fill="url(#linear-gradient-6)"/><path d="M120.05 58.38c-.2-7-.25-13.46-.39-20.43-.13-6.31 0-12.21-1-18.45-1.14-7.48-7.66-7.37-14.1-7.44-22.62-2.45-45.63-1-68.32-1-6.69 0-14.4.27-19.41 5.32-3.61 3.64-4 8.78-3.54 14 0 9.54-.66 16.33-.69 24.48 0 10-.12 20 .56 29.93.29 4.26.67 8.51 1.25 12.75.48 3.58.8 7.44 2.23 10.81 2.07 4.92 6.63 7.49 11.95 7.34a.52.52 0 00.37-.17c5.67.65 11.62.32 17.26.38 7.36.1 14.71.11 22.06.14s14.82-.16 22.21-.86c4.71-.45 11.16-.2 15.87-.48 3.83-.22 7.12-1.14 9.92-4.16s2.94-8.8 3.18-12.7c.81-13.1.98-26.31.59-39.46z" fill="url(#linear-gradient-7)"/><path d="M120.05 58.38c-.2-7-.25-13.46-.39-20.43-.13-6.31 0-12.21-1-18.45-1.14-7.48-7.66-7.37-14.1-7.44-22.62-2.45-45.63-1-68.32-1-6.69 0-14.4.27-19.41 5.32-3.61 3.64-4 8.78-3.54 14 0 9.54-.66 16.33-.69 24.48 0 10-.12 20 .56 29.93.29 4.26.67 8.51 1.25 12.75.48 3.58.8 7.44 2.23 10.81 2.07 4.92 6.63 7.49 11.95 7.34a.52.52 0 00.37-.17c5.67.65 11.62.32 17.26.38 7.36.1 14.71.11 22.06.14s14.82-.16 22.21-.86c4.71-.45 11.16-.2 15.87-.48 3.83-.22 7.12-1.14 9.92-4.16s2.94-8.8 3.18-12.7c.81-13.1.98-26.31.59-39.46zm-2 36.94c-.19 3.87-.38 9-2.2 12.46-3.46 6.67-12.35 4.9-18.7 5.42-9.23.74-18.47 1.48-27.74 1.51-7 0-13.93 0-20.89-.08-6.64 0-13.62-.75-20.27-.16-2.55-.5-5-.82-7.21-2.32s-3.37-4.4-4.07-7c-2.19-8.33-2.5-17.5-2.84-26.15-.55-13.72.87-28.33 1-42.09.18 1.59-1-16.28 3.94-20.33 5.86-4.81 15.61-3.77 22.58-3.8 10.92-.07 21.82-.36 32.73-.35 6.81 0 13.63.27 20.43.63 3.52.22 7 .32 10.57.47 3.94.16 7.84-.27 10.16 3.63 2.63 4.43 2.68 10.42 2.76 15.36.17 8.73-.39 17.66 0 26.36a239 239 0 010 25.49c-.17 2.63-.02 6.7-.21 10.95z" fill="#215700"/><path d="M113.33 56.43c-.18-6.11-.23-11.79-.36-17.9-.12-5.53 0-10.69-.88-16.18-1-6.55-6.81-6.45-12.54-6.52C79.44 13.7 59 14.93 38.8 15c-5.95 0-12.8.25-17.26 4.68-3.22 3.18-3.52 7.69-3.15 12.26 0 8.35-.59 14.32-.61 21.46 0 8.75-.12 17.48.5 26.22.27 3.74.6 7.47 1.11 11.19.43 3.14.72 6.52 2 9.48 1.84 4.3 5.89 6.55 10.62 6.43a.55.55 0 00.33-.13c5 .57 10.33.27 15.35.34 6.53.07 13.08.1 19.62.11s13.18-.15 19.75-.76c4.19-.39 9.92-.17 14.11-.42 3.4-.2 6.32-1 8.82-3.64s2.61-7.72 2.83-11.13c.7-11.54.85-23.09.51-34.66z" fill="url(#linear-gradient-8)"/><g mask="url(#mask-6)"><path d="M19.82 55c-.65-7.33.39-21.29 1-26.51s-.39-8.52 10.06-9.67a159 159 0 0123.23-1.17c5.23.2 8.32 3.29 2.71 5.22S34.07 34.59 24.27 54.21c-1.17 2.31-3.87 7.35-4.45.79z" style="mix-blend-mode:screen" fill="url(#linear-gradient-9)"/></g><g mask="url(#mask-7)"><path d="M64.14 17.42c6.39-.18 11.23-.18 10.45 2.13s-2.51 1.91-7.16 1.55c-2.52-.2-4.64.59-4.84-.58s-.65-3.03 1.55-3.1z" style="mix-blend-mode:screen" fill="url(#linear-gradient-10)"/></g><g mask="url(#mask-8)"><path d="M19.23 96.8c-2.32-21.29 5.42-32.51 16.65-17.42s17 15.87 25.93 15.48 23.62-2.7 31.36-15.48 20.52-15.49 19.75 1.16 7.73 31-22.45 30.59c-18.2-.24-41.82-.38-57.69.38-8.58.43-12.42-4.42-13.55-14.71z" style="mix-blend-mode:screen" fill="url(#linear-gradient-11)"/></g><g mask="url(#mask-9)"><path d="M40.7 110c13.27-2.16 50 .6 58.33-.89s14.29-3 14.88-11.9-.59-20.24-.59-26.19 3.87-20.25 4.17 1.19-.79 28.66-1.19 32.13-1.78 8-14.88 8-22.32 1.5-38.1.9S7.66 115.33 40.7 110z" fill="url(#radial-gradient-3)"/></g><g mask="url(#mask-10)"><path d="M94.27 106.82c-13.4-1.11-49.8 4.48-58.22 3.64S23 108.26 20.29 99.75C15.4 84.38 18.24 79.9 17.78 74s-4.37-20.25-3 1.14 3 28.52 3.69 32 2.4 7.87 15.46 6.86 22.37-.25 38.05-2.07 55.65-2.35 22.29-5.11z" fill="url(#radial-gradient-4)"/></g></g></g></svg>