<svg xmlns="http://www.w3.org/2000/svg" xmlns:xlink="http://www.w3.org/1999/xlink" viewBox="0 0 450 420"><defs><linearGradient id="linear-gradient" x1="213.82" y1="277.33" x2="240.82" y2="277.33" gradientUnits="userSpaceOnUse"><stop offset="0" stop-color="#ff655a"/><stop offset=".2" stop-color="#f95e54"/><stop offset=".48" stop-color="#e94b43"/><stop offset=".82" stop-color="#cf2b28"/><stop offset="1" stop-color="#bf1717"/></linearGradient><linearGradient id="linear-gradient-2" x1="231.53" y1="281.41" x2="263.46" y2="281.41" xlink:href="#linear-gradient"/><linearGradient id="linear-gradient-3" x1="272.79" y1="164.56" x2="243.62" y2="279.08" xlink:href="#linear-gradient"/><linearGradient id="linear-gradient-4" x1="202.14" y1="154.55" x2="200.07" y2="185.19" gradientUnits="userSpaceOnUse"><stop offset=".15" stop-color="#fff9f2"/><stop offset=".32" stop-color="#fdf6ee"/><stop offset=".5" stop-color="#f8eee1"/><stop offset=".68" stop-color="#efe0cc"/><stop offset=".86" stop-color="#e2ccaf"/><stop offset="1" stop-color="#d6ba94"/></linearGradient><linearGradient id="linear-gradient-5" x1="259.89" y1="215.01" x2="263.38" y2="263.49" gradientUnits="userSpaceOnUse"><stop offset="0" stop-color="#ff785a"/><stop offset=".17" stop-color="#fa7155"/><stop offset=".42" stop-color="#ee5e48"/><stop offset=".71" stop-color="#d93e32"/><stop offset="1" stop-color="#bf1717"/></linearGradient><linearGradient id="linear-gradient-6" x1="213.12" y1="220.55" x2="229.96" y2="273.38" xlink:href="#linear-gradient"/><linearGradient id="linear-gradient-7" x1="261.09" y1="234.01" x2="265.45" y2="267.39" gradientUnits="userSpaceOnUse"><stop offset="0" stop-color="#ff785a"/><stop offset=".15" stop-color="#f97157"/><stop offset=".37" stop-color="#e85e4d"/><stop offset=".64" stop-color="#cc3e3d"/><stop offset=".93" stop-color="#a61228"/><stop offset="1" stop-color="#9c0622"/></linearGradient><linearGradient id="linear-gradient-8" x1="263.41" y1="242.06" x2="267.47" y2="274.87" xlink:href="#linear-gradient-7"/><linearGradient id="linear-gradient-9" x1="229.76" y1="156.93" x2="227.73" y2="187.12" xlink:href="#linear-gradient-4"/><style>.cls-6{fill:#6e1717}.cls-8{fill:#a33333}</style></defs><g style="isolation:isolate"><g id="_1" data-name="1"><path d="M247.79 285.15c-.49.9 1 24 1 24s-6.71-2.54-10.18-2.71a4.22 4.22 0 00-4.31 3.07l13.21 1.26s-6.92 1.4-8.52 2.67-1.11 5-1.11 5l11.8-6s-1.61 7.29 1.91 9.53c2.81-2.27 1.12-11 1.12-11l9 1s.14-1.57-2.32-3.23-7.15.43-7.15.43l.64-22.11zM224.42 281c-.58.87-11.76 26.13-11.76 26.13s-6.53-1.74-10-1.6a5.29 5.29 0 00-4.64 3.19h13.21s-7.11 1.89-8.85 3.19-1.6 4.64-1.6 4.64l12.46-6.55s-2.32 6.82 1 8.56c3-2.32 2.18-10.16 2.18-10.16l9 .15s.29-1.45-2-2.76-7.26 1-7.26 1l13.21-24.53z" fill="#f58c14"/><path d="M213.82 270.07s8.13 14.22 13.93 14.51 13.06-6.39 13.06-6.39z" fill="url(#linear-gradient)"/><path d="M231.53 274.43s13.06 14.8 19.74 13.93 12.19-8.71 12.19-8.71z" fill="url(#linear-gradient-2)"/><path d="M335.46 268.33c-1.45 3.77-34.26 13.06-67.06 13.35a203.65 203.65 0 01-23.51-.87c-21.66-2.34-39.19-10.28-52.83-34.54-.57-1-1.12-2.06-1.63-3.08-15.68-31.55-1-63.53-1-67.46s-4.38-29.71 1.16-34.26c14.52-11.9 55.16-11.32 68.51 0s13.06 22.94 13.65 56.9 1.74 69.37 1.74 69.37 42.67-16 43.83-11.61-26.41 15.09-26.41 15.09 44.99-6.66 43.55-2.89z" fill="url(#linear-gradient-3)"/><path class="cls-6" d="M213.82 163.25s-1.09-17.2-13.72-14.44c-10.21 2.23-19 37.54.07 40.86 6.68 1.16 13.06-14.8 13.06-14.8z"/><path class="cls-6" d="M213.82 163.25s14.8-11.18 25.25-9.65c8.17 1.19 11.61 27.07-3.48 34s-23.22-9.87-24.09-13.06 2.32-11.29 2.32-11.29z"/><path d="M213.82 163.25s-2.18-14.66-14.8-11.9c-10.21 2.23-17.89 35 1.16 38.32 6.68 1.16 13.06-14.8 13.06-14.8z" fill="url(#linear-gradient-4)"/><ellipse class="cls-8" cx="203.81" cy="168.04" rx="5.95" ry="10.89"/><path class="cls-6" d="M214.99 147.28l2.9 7.84 19.45-4.36-.29-7.83-22.06 4.35z"/><path d="M278.27 246c0 1.83-.08 3.95-.25 6.1-.62 7.79-2.43 16.13-5.83 13.63-.58 6.68-5.23 7.84-9.58 1.45-2.61 6.67-13.65-10.45-16.83-23.23a37 37 0 01-.77-4.3 63 63 0 01-.41-10.17 65 65 0 01.63-7c1.72-11.79 7-22.42 18.26-19.19 7.51 2.15 11.21 9.47 13 18.24a86.24 86.24 0 011.51 13.35c.24 3.84.27 7.63.27 11.12z" fill="url(#linear-gradient-5)"/><path d="M244.89 280.81c-21.66-2.34-39.19-10.28-52.83-34.54-.57-1-1.12-2.06-1.63-3.08-17.53-41 37.07-43.4 55-10 12.5 23.19 13.86 44.41-.54 47.62z" style="mix-blend-mode:screen" opacity=".6" fill="url(#linear-gradient-6)"/><path d="M207.15 190.53s4.64 5.52 8.13 4.64 3.19-13.64 3.19-13.64z" fill="#f5a614"/><path d="M211.5 174.57c-17.71 5.81-12.19 21.77-6.39 27.58-.29-9.58 14.8-18.29 14.8-18.29z" fill="#ffd333"/><path class="cls-6" d="M183.05 133.06l2.33 4.35 20.9-5.51-.87-9-22.36 10.16z"/><path d="M234.43 134.8s-11.9-13.35-8.13-15.68 8.13 12.19 8.13 12.19 6.39-18.87 9-18.87-2 16.84-2 16.84 16-9.58 22.64-14.22-3.19 13.64-23.51 20.32c-2.35.87-6.13-.58-6.13-.58z" fill="#ff655a"/><path d="M278.27 246v1.69c0 1.39-.1 2.89-.23 4.42-.63 7.79-2.44 16.14-5.84 13.64-.58 6.68-5.23 7.84-9.58 1.45-2.61 6.67-13.65-10.45-16.83-23.23a37 37 0 01-.77-4.3c-.12-.93-.22-1.92-.3-2.94v-.7c-.12-2.07-.16-4.28-.07-6.53 6.61.94 24.89 3.71 33.48 5.41.11 3.81.14 7.6.14 11.09z" fill="url(#linear-gradient-7)"/><path d="M262.59 267.17c-7.18-11.25-8.27-38.25-8.27-38.25l15.68 2.62s2.18 25 2.18 34.18-7.85 5.74-9.59 1.45z" fill="url(#linear-gradient-8)"/><path d="M278.27 246v.26c-4-.77-7.25-5.49-7.25-5.49s-2.18 8.13-7 7.26-8.42-9.58-8.42-9.58.4 8.61-4.6 7.55c-2.88-.63-4-2.31-6-6.33-.12-.93-.22-1.92-.3-2.94v-.7c-.12-2.07-.16-4.28-.07-6.53a65 65 0 01.63-7c2.87 6.06 8.1 6.93 11 1.42 2.83 6.75 12 5.88 13.06.87 3.77 2.9 6.1 2.33 7.23-3.24a86.24 86.24 0 011.45 13.33c.24 3.84.27 7.63.27 11.12z" fill="#fb8d76"/><path d="M213.82 163.25s17.42-8.42 25.54-7 11.32 24.38-3.77 31.35-23.22-9.87-24.09-13.06 2.32-11.29 2.32-11.29z" fill="url(#linear-gradient-9)"/><circle class="cls-8" cx="229.79" cy="170.5" r="9.29"/></g></g></svg>