<svg xmlns="http://www.w3.org/2000/svg" xmlns:xlink="http://www.w3.org/1999/xlink" viewBox="0 0 450 420"><defs><linearGradient id="Безымянный_градиент_18-18" x1="167.39" y1="226.3" x2="154.24" y2="272.32" xlink:href="#Безымянный_градиент_18"/><linearGradient id="Безымянный_градиент_18" x1="160.29" y1="215.83" x2="153.72" y2="256.15" gradientUnits="userSpaceOnUse"><stop offset=".59" stop-color="#ffa320"/><stop offset=".69" stop-color="#ff981b"/><stop offset=".87" stop-color="#ff7c0c"/><stop offset="1" stop-color="#ff6300"/></linearGradient><linearGradient id="Безымянный_градиент_18-2" x1="295.39" y1="219.52" x2="317.74" y2="219.52" xlink:href="#Безымянный_градиент_18"/><linearGradient id="Безымянный_градиент_18-3" x1="287.5" y1="213.2" x2="312.92" y2="213.2" xlink:href="#Безымянный_градиент_18"/><linearGradient id="Безымянный_градиент_18-4" x1="232.84" y1="120.39" x2="229.78" y2="310.6" xlink:href="#Безымянный_градиент_18"/><linearGradient id="linear-gradient" x1="161.98" y1="249.87" x2="183.05" y2="249.87" gradientUnits="userSpaceOnUse"><stop offset=".59" stop-color="#ef68be"/><stop offset=".69" stop-color="#e861b3"/><stop offset=".87" stop-color="#d75097"/><stop offset="1" stop-color="#c7407d"/></linearGradient><linearGradient id="Безымянный_градиент_18-5" x1="176.22" y1="226.99" x2="167.39" y2="268.47" xlink:href="#Безымянный_градиент_18"/><linearGradient id="Безымянный_градиент_18-6" x1="175.57" y1="177.88" x2="175.57" y2="189.55" xlink:href="#Безымянный_градиент_18"/><linearGradient id="Безымянный_градиент_18-7" x1="191.74" y1="215.08" x2="191.74" y2="227.87" xlink:href="#Безымянный_градиент_18"/><linearGradient id="Безымянный_градиент_18-8" x1="213.21" y1="231.02" x2="213.21" y2="242.73" xlink:href="#Безымянный_градиент_18"/><linearGradient id="Безымянный_градиент_18-9" x1="202.7" y1="282.8" x2="202.7" y2="292.84" xlink:href="#Безымянный_градиент_18"/><linearGradient id="Безымянный_градиент_18-10" x1="195.22" y1="245.19" x2="195.22" y2="260.49" xlink:href="#Безымянный_градиент_18"/><linearGradient id="Безымянный_градиент_18-11" x1="218.04" y1="262.92" x2="218.04" y2="273.81" xlink:href="#Безымянный_градиент_18"/><linearGradient id="Безымянный_градиент_18-12" x1="232.93" y1="290.13" x2="232.93" y2="298.72" xlink:href="#Безымянный_градиент_18"/><linearGradient id="Безымянный_градиент_18-13" x1="244.69" y1="256.46" x2="244.69" y2="271.44" xlink:href="#Безымянный_градиент_18"/><linearGradient id="Безымянный_градиент_18-14" x1="283.12" y1="252.14" x2="283.12" y2="266.03" xlink:href="#Безымянный_градиент_18"/><linearGradient id="Безымянный_градиент_18-15" x1="267.78" y1="280.34" x2="267.78" y2="288.09" xlink:href="#Безымянный_градиент_18"/><linearGradient id="Безымянный_градиент_18-16" x1="290.13" y1="234.61" x2="290.13" y2="242.68" xlink:href="#Безымянный_градиент_18"/><linearGradient id="Безымянный_градиент_18-17" x1="202.04" y1="198.49" x2="202.04" y2="204.01" xlink:href="#Безымянный_градиент_18"/><linearGradient id="linear-gradient-2" x1="252.42" y1="176.04" x2="247.75" y2="247.33" gradientUnits="userSpaceOnUse"><stop offset="0" stop-color="#ffe44a"/><stop offset=".17" stop-color="#fddf48"/><stop offset=".36" stop-color="#f9d244"/><stop offset=".56" stop-color="#f1bb3c"/><stop offset=".77" stop-color="#e69c31"/><stop offset=".98" stop-color="#d77423"/><stop offset="1" stop-color="#d67022"/></linearGradient><linearGradient id="linear-gradient-3" x1="268.11" y1="158.55" x2="287.1" y2="147.74" gradientUnits="userSpaceOnUse"><stop offset=".15" stop-color="#fff9f2"/><stop offset=".54" stop-color="#fef8f0"/><stop offset=".68" stop-color="#fbf3e9"/><stop offset=".78" stop-color="#f6ebde"/><stop offset=".86" stop-color="#efe0cd"/><stop offset=".93" stop-color="#e5d1b7"/><stop offset=".98" stop-color="#dabf9c"/><stop offset="1" stop-color="#d6ba94"/></linearGradient><radialGradient id="radial-gradient" cx="210.37" cy="158.56" r="23.67" gradientUnits="userSpaceOnUse"><stop offset=".32" stop-color="#fff9f2"/><stop offset=".63" stop-color="#fef8f0"/><stop offset=".74" stop-color="#fbf3e9"/><stop offset=".82" stop-color="#f6ebde"/><stop offset=".89" stop-color="#efe0cd"/><stop offset=".94" stop-color="#e5d1b7"/><stop offset=".99" stop-color="#dabf9c"/><stop offset="1" stop-color="#d6ba94"/></radialGradient><style>.cls-25{fill:#4a203b}</style></defs><g style="isolation:isolate"><g id="_1" data-name="1"><path d="M161.28 193.19c-8.33 22.35-11.83 63.11-4.38 62.23 5.7-12.71 8.77-48.65 8.77-48.65z" fill="url(#Безымянный_градиент_18)"/><path d="M209.49 311.74l4.16 14.68s-13.15-4.16-15.56.44c2 1.1 13.59 1.53 13.59 1.53s-14.68 1.1-14.9 6.35c3.29.22 16.65-4.82 16.65-4.82s-5 5.26-3.07 10.08c5.26-3.94 7.67-10.52 7.89-12.49s-3.94-15.78-3.94-15.78zm49.31 0l-4.16 14.68s13.15-4.16 15.56.44c-2 1.1-13.59 1.53-13.59 1.53s14.68 1.1 14.9 6.35c-3.29.22-16.65-4.82-16.65-4.82s5 5.26 3.07 10.08c-5.26-3.94-7.67-10.52-7.89-12.49s3.96-15.77 3.96-15.77z" fill="#f58c14"/><path d="M295.39 186.17c19.89 39.88 23.29 54.78 22.16 63.11s-11.36-.44-11.36-.44z" fill="url(#Безымянный_градиент_18-2)"/><path d="M287.5 165.57c18.14 23.67 32.3 90.49 21.87 95.1-6.94 3.07-10.67-40.32-13.34-46.46s-8.53-48.64-8.53-48.64z" fill="url(#Безымянный_градиент_18-3)"/><path d="M305 255.86c-2.69 20.75-10.09 32.4-14.83 29.64a66.38 66.38 0 01-15.8 15c-7.64 11.5-18.46 16.93-32.3 10.48-1.64.1-3.3.15-5 .13-4.29 0-8.25-.26-11.94-.61-8.8 5.67-25.71 5-33.37-9.77-7.48-4.44-11.2-9.07-13.42-11.09-2.9 5.26-8-1-12.53-12.64a123.64 123.64 0 01-3.81-11.8c-4.48-16.1-7.28-36.78-4.65-53.61 10.9-69.62 43.42-102.93 74.07-101.68 37.09 1.52 60 57.42 69.17 100 2.47 9.48 6.66 28.86 4.41 45.95z" fill="url(#Безымянный_градиент_18-4)"/><path d="M180.48 255.42c-2.67 20.81-8.85 26.43-13.75 21.55A108.41 108.41 0 01162 265.2l20.78-44.08s1.46 4.94-2.3 34.3z" style="mix-blend-mode:multiply" opacity=".3" fill="url(#linear-gradient)"/><path d="M199 122.19s-38.13 6.57-39.44 13.15 21.48 0 21.48 0-36.81 23.23-30.68 29.36 34.15-19.7 34.15-19.7z" fill="#ffa320"/><path d="M216.79 209.06c11.69 41.69 54.28 56.07 62.5 26.38-40.87-12.74-62.5-26.38-62.5-26.38z" style="mix-blend-mode:multiply" opacity=".4" fill="#e6a829"/><path d="M172.41 219.48c-14.11 31.23-7 54.78-1.61 54.35s12.9-47.33 12.37-52.15-10.76-2.2-10.76-2.2z" fill="url(#Безымянный_градиент_18-5)"/><g opacity=".4"><path d="M170.92 180.48s-1.75 14.46 2.63 14.9 7-11 7-11z" fill="url(#Безымянный_градиент_18-6)"/><path d="M186.26 213.35c0 1.31.88 19.28 5.26 19.28s5.7-13.59 5.7-13.59z" fill="url(#Безымянный_градиент_18-7)"/><path d="M207.74 230.44c0 1.31 1.75 14 4.82 14.46s6.14-10.08 6.14-10.08z" fill="url(#Безымянный_градиент_18-8)"/><path d="M198.53 282.15s.88 12.71 4.38 12.71 3.95-11.86 3.95-11.86z" fill="url(#Безымянный_градиент_18-9)"/><path d="M189.77 247.09s-.88 19.28 4.82 19.72 6.14-14 6.14-14z" fill="url(#Безымянный_градиент_18-10)"/><path d="M213.43 262.87s1.75 14.46 4.82 14 4.38-11.83 4.38-11.83z" fill="url(#Безымянный_градиент_18-11)"/><path d="M227.9 288.29l10.1 1.32s-1.75 11-6.14 10.52-3.96-11.84-3.96-11.84z" fill="url(#Безымянный_градиент_18-12)"/><path d="M239.29 255.42s-1.75 21.91 5.7 21 4.82-19.72 4.82-19.72z" fill="url(#Безымянный_градиент_18-13)"/><path d="M276.11 252.79s.44 17.53 7 14.9 7-16.22 7-16.22z" fill="url(#Безымянный_градиент_18-14)"/><path d="M262.52 278.65s.88 11 5.26 10.52 5.26-11 5.26-11z" fill="url(#Безымянный_градиент_18-15)"/><path d="M286.19 235.26s-1.31 10.08 3.94 9.2 3.94-10.08 3.94-10.08z" fill="url(#Безымянный_градиент_18-16)"/><path d="M198.09 196.25l7.89 1.31s-1.75 9.2-4.82 8.77-3.07-10.08-3.07-10.08z" fill="url(#Безымянный_градиент_18-17)"/></g><path d="M282.47 227.32a43.74 43.74 0 01-1.66 5.18c-3.59 9.11-9.81 15.1-17.81 15.5-18.23.85-38.52-20.46-46.17-38.91-.25-.62-.5-1.24-.73-1.85l.67.18c16.89 4.14 18.64-14.9 22.11-34.8 3.51-20.16 26.73-18.85 39.44 11.83 6.32 15.29 7.21 30.94 4.15 42.87z" fill="url(#linear-gradient-2)"/><path class="cls-25" d="M234 158.56a23.67 23.67 0 11-47.33 0c0-13.07 10.6-27 23.67-27s23.66 13.93 23.66 27z"/><circle cx="210.37" cy="158.56" r="23.67" fill="url(#radial-gradient)"/><path d="M282.47 227.33a43.74 43.74 0 01-1.66 5.18h-1.53a16.42 16.42 0 01-3.37-.62 31.05 31.05 0 01-5.37-2.22c-3.23-1.63-6.09-3.36-9-4.66a24.38 24.38 0 00-4.29-1.55 13.6 13.6 0 00-2.07-.34c-.78-.06-1.66-.08-2.48-.12-6.74-.22-14-.18-20.85-2.47a28.38 28.38 0 01-9.34-5.14 33 33 0 01-5.74-6.33c-.38-.53-.74-1.06-1.09-1.6l.36-.25.36-.25.32.43a32.77 32.77 0 006.63 6.85 26.53 26.53 0 009 4.39c6.54 1.83 13.45 1.46 20.27 1.31h2.58a16.3 16.3 0 012.62.26 27 27 0 015 1.46c3.22 1.24 6.26 2.86 9.36 4.23a28.71 28.71 0 004.74 1.72 8.38 8.38 0 004.8 0 4.53 4.53 0 00.75-.28z" style="mix-blend-mode:multiply" opacity=".6" fill="#e6a829"/><circle class="cls-25" cx="210.37" cy="162.07" r="10.96"/><path class="cls-25" d="M289.25 173.9c-4.8 1.3-9.64-1.3-13.74-5.8a44.74 44.74 0 01-9.15-16.87c-2.64-8.91-4.79-21.26.69-24.66 9.2-5.7 38.42 42.95 22.2 47.33z"/><path d="M289.25 173.9c-4.8 1.3-9.64-1.3-13.74-5.8a44.74 44.74 0 01-9.15-16.87c-2.64-8.91-2.31-17.76 3.17-21.15 9.21-5.7 35.94 39.44 19.72 43.82z" fill="url(#linear-gradient-3)"/><path class="cls-25" d="M278.39 167.69a5.38 5.38 0 01-2.88.41 44.74 44.74 0 01-9.15-16.87 5.9 5.9 0 013.09-3.54c3.76-1.68 8.8 1.44 11.27 7s1.43 11.31-2.33 13zm-82.25-70.83l-3.72 11.7 34.2 1.99 3.54-16.42-34.02 2.73zm56.52.34l3.71 16.04 27.45-15.45-8.52-7.57-22.64 6.98z"/><path d="M160.4 221.23c-6.14 28.93-6.14 48.65-.88 52.15s12.71-43.83 12.71-43.83z" fill="url(#Безымянный_градиент_18-18)"/></g></g></svg>