<svg xmlns="http://www.w3.org/2000/svg" xmlns:xlink="http://www.w3.org/1999/xlink" viewBox="0 0 450 420"><defs><style>.cls-1{isolation:isolate;}.cls-2{fill:url(#Безымянный_градиент_18);}.cls-3{fill:#f58c14;}.cls-4{fill:url(#Безымянный_градиент_18-2);}.cls-5{fill:url(#Безымянный_градиент_18-3);}.cls-6{fill:url(#Безымянный_градиент_18-4);}.cls-7{opacity:0.3;fill:url(#linear-gradient);}.cls-27,.cls-7,.cls-9{mix-blend-mode:multiply;}.cls-8{fill:#ffa320;}.cls-27,.cls-9{fill:#e6a829;}.cls-11,.cls-9{opacity:0.4;}.cls-10{fill:url(#Безымянный_градиент_18-5);}.cls-12{fill:url(#Безымянный_градиент_18-6);}.cls-13{fill:url(#Безымянный_градиент_18-7);}.cls-14{fill:url(#Безымянный_градиент_18-8);}.cls-15{fill:url(#Безымянный_градиент_18-9);}.cls-16{fill:url(#Безымянный_градиент_18-10);}.cls-17{fill:url(#Безымянный_градиент_18-11);}.cls-18{fill:url(#Безымянный_градиент_18-12);}.cls-19{fill:url(#Безымянный_градиент_18-13);}.cls-20{fill:url(#Безымянный_градиент_18-14);}.cls-21{fill:url(#Безымянный_градиент_18-15);}.cls-22{fill:url(#Безымянный_градиент_18-16);}.cls-23{fill:url(#Безымянный_градиент_18-17);}.cls-24{fill:url(#linear-gradient-2);}.cls-25{fill:#4a203b;}.cls-26{fill:url(#radial-gradient);}.cls-27{opacity:0.6;}.cls-28{fill:url(#linear-gradient-3);}.cls-29{fill:url(#Безымянный_градиент_18-18);}</style><linearGradient id="Безымянный_градиент_18" x1="160.29" y1="215.83" x2="153.72" y2="256.15" gradientUnits="userSpaceOnUse"><stop offset="0.59" stop-color="#ffa320"/><stop offset="0.69" stop-color="#ff981b"/><stop offset="0.87" stop-color="#ff7c0c"/><stop offset="1" stop-color="#ff6300"/></linearGradient><linearGradient id="Безымянный_градиент_18-2" x1="295.39" y1="219.52" x2="317.74" y2="219.52" xlink:href="#Безымянный_градиент_18"/><linearGradient id="Безымянный_градиент_18-3" x1="287.5" y1="213.2" x2="312.92" y2="213.2" xlink:href="#Безымянный_градиент_18"/><linearGradient id="Безымянный_градиент_18-4" x1="232.84" y1="120.39" x2="229.78" y2="310.6" xlink:href="#Безымянный_градиент_18"/><linearGradient id="linear-gradient" x1="161.98" y1="249.87" x2="183.05" y2="249.87" gradientUnits="userSpaceOnUse"><stop offset="0.59" stop-color="#ef68be"/><stop offset="0.69" stop-color="#e861b3"/><stop offset="0.87" stop-color="#d75097"/><stop offset="1" stop-color="#c7407d"/></linearGradient><linearGradient id="Безымянный_градиент_18-5" x1="176.22" y1="226.99" x2="167.39" y2="268.47" xlink:href="#Безымянный_градиент_18"/><linearGradient id="Безымянный_градиент_18-6" x1="175.57" y1="177.88" x2="175.57" y2="189.55" xlink:href="#Безымянный_градиент_18"/><linearGradient id="Безымянный_градиент_18-7" x1="191.74" y1="215.08" x2="191.74" y2="227.87" xlink:href="#Безымянный_градиент_18"/><linearGradient id="Безымянный_градиент_18-8" x1="213.21" y1="231.02" x2="213.21" y2="242.73" xlink:href="#Безымянный_градиент_18"/><linearGradient id="Безымянный_градиент_18-9" x1="202.7" y1="282.8" x2="202.7" y2="292.84" xlink:href="#Безымянный_градиент_18"/><linearGradient id="Безымянный_градиент_18-10" x1="195.22" y1="245.19" x2="195.22" y2="260.49" xlink:href="#Безымянный_градиент_18"/><linearGradient id="Безымянный_градиент_18-11" x1="218.04" y1="262.92" x2="218.04" y2="273.81" xlink:href="#Безымянный_градиент_18"/><linearGradient id="Безымянный_градиент_18-12" x1="232.93" y1="290.13" x2="232.93" y2="298.72" xlink:href="#Безымянный_градиент_18"/><linearGradient id="Безымянный_градиент_18-13" x1="244.69" y1="256.46" x2="244.69" y2="271.44" xlink:href="#Безымянный_градиент_18"/><linearGradient id="Безымянный_градиент_18-14" x1="283.12" y1="252.14" x2="283.12" y2="266.03" xlink:href="#Безымянный_градиент_18"/><linearGradient id="Безымянный_градиент_18-15" x1="267.78" y1="280.34" x2="267.78" y2="288.09" xlink:href="#Безымянный_градиент_18"/><linearGradient id="Безымянный_градиент_18-16" x1="290.13" y1="234.61" x2="290.13" y2="242.68" xlink:href="#Безымянный_градиент_18"/><linearGradient id="Безымянный_градиент_18-17" x1="202.04" y1="198.49" x2="202.04" y2="204.01" xlink:href="#Безымянный_градиент_18"/><linearGradient id="linear-gradient-2" x1="252.42" y1="176.04" x2="247.75" y2="247.33" gradientUnits="userSpaceOnUse"><stop offset="0" stop-color="#ffe44a"/><stop offset="0.17" stop-color="#fddf48"/><stop offset="0.36" stop-color="#f9d244"/><stop offset="0.56" stop-color="#f1bb3c"/><stop offset="0.77" stop-color="#e69c31"/><stop offset="0.98" stop-color="#d77423"/><stop offset="1" stop-color="#d67022"/></linearGradient><radialGradient id="radial-gradient" cx="210.37" cy="158.56" r="23.67" gradientUnits="userSpaceOnUse"><stop offset="0.32" stop-color="#fff9f2"/><stop offset="0.63" stop-color="#fef8f0"/><stop offset="0.74" stop-color="#fbf3e9"/><stop offset="0.82" stop-color="#f6ebde"/><stop offset="0.89" stop-color="#efe0cd"/><stop offset="0.94" stop-color="#e5d1b7"/><stop offset="0.99" stop-color="#dabf9c"/><stop offset="1" stop-color="#d6ba94"/></radialGradient><linearGradient id="linear-gradient-3" x1="268.11" y1="158.55" x2="287.1" y2="147.74" gradientUnits="userSpaceOnUse"><stop offset="0.15" stop-color="#fff9f2"/><stop offset="0.54" stop-color="#fef8f0"/><stop offset="0.68" stop-color="#fbf3e9"/><stop offset="0.78" stop-color="#f6ebde"/><stop offset="0.86" stop-color="#efe0cd"/><stop offset="0.93" stop-color="#e5d1b7"/><stop offset="0.98" stop-color="#dabf9c"/><stop offset="1" stop-color="#d6ba94"/></linearGradient><linearGradient id="Безымянный_градиент_18-18" x1="167.39" y1="226.3" x2="154.24" y2="272.32" xlink:href="#Безымянный_градиент_18"/></defs><title>Монтажная область 2 копия 4</title><g class="cls-1"><g id="_1" data-name="1"><path class="cls-2" d="M161.28,193.19c-8.33,22.35-11.83,63.11-4.38,62.23,5.7-12.71,8.77-48.65,8.77-48.65Z"/><path class="cls-3" d="M209.49,311.74l4.16,14.68s-13.15-4.16-15.56.44c2,1.1,13.59,1.53,13.59,1.53s-14.68,1.1-14.9,6.35c3.29.22,16.65-4.82,16.65-4.82s-5,5.26-3.07,10.08c5.26-3.94,7.67-10.52,7.89-12.49s-3.94-15.78-3.94-15.78Z"/><path class="cls-3" d="M258.8,311.74l-4.16,14.68s13.15-4.16,15.56.44c-2,1.1-13.59,1.53-13.59,1.53s14.68,1.1,14.9,6.35c-3.29.22-16.65-4.82-16.65-4.82s5,5.26,3.07,10.08c-5.26-3.94-7.67-10.52-7.89-12.49S254,311.74,254,311.74Z"/><path class="cls-4" d="M295.39,186.17c19.89,39.88,23.29,54.78,22.16,63.11s-11.36-.44-11.36-.44Z"/><path class="cls-5" d="M287.5,165.57c18.14,23.67,32.3,90.49,21.87,95.1-6.94,3.07-10.67-40.32-13.34-46.46S287.5,165.57,287.5,165.57Z"/><path class="cls-6" d="M305,255.86c-2.69,20.75-10.09,32.4-14.83,29.64a66.38,66.38,0,0,1-15.8,15c-7.64,11.5-18.46,16.93-32.3,10.48-1.64.1-3.3.15-5,.13-4.29,0-8.25-.26-11.94-.61-8.8,5.67-25.71,5-33.37-9.77-7.48-4.44-11.2-9.07-13.42-11.09-2.9,5.26-8-1-12.53-12.64A123.64,123.64,0,0,1,162,265.2c-4.48-16.1-7.28-36.78-4.65-53.61,10.9-69.62,43.42-102.93,74.07-101.68,37.09,1.52,60,57.42,69.17,100C303.06,219.39,307.25,238.77,305,255.86Z"/><path class="cls-7" d="M180.48,255.42c-2.67,20.81-8.85,26.43-13.75,21.55A108.41,108.41,0,0,1,162,265.2l20.78-44.08S184.24,226.06,180.48,255.42Z"/><path class="cls-8" d="M199,122.19s-38.13,6.57-39.44,13.15,21.48,0,21.48,0-36.81,23.23-30.68,29.36S184.51,145,184.51,145Z"/><path class="cls-9" d="M216.79,209.06c11.69,41.69,54.28,56.07,62.5,26.38C238.42,222.7,216.79,209.06,216.79,209.06Z"/><path class="cls-10" d="M172.41,219.48c-14.11,31.23-7,54.78-1.61,54.35s12.9-47.33,12.37-52.15S172.41,219.48,172.41,219.48Z"/><g class="cls-11"><path class="cls-12" d="M170.92,180.48s-1.75,14.46,2.63,14.9,7-11,7-11Z"/><path class="cls-13" d="M186.26,213.35c0,1.31.88,19.28,5.26,19.28s5.7-13.59,5.7-13.59Z"/><path class="cls-14" d="M207.74,230.44c0,1.31,1.75,14,4.82,14.46s6.14-10.08,6.14-10.08Z"/><path class="cls-15" d="M198.53,282.15s.88,12.71,4.38,12.71S206.86,283,206.86,283Z"/><path class="cls-16" d="M189.77,247.09s-.88,19.28,4.82,19.72,6.14-14,6.14-14Z"/><path class="cls-17" d="M213.43,262.87s1.75,14.46,4.82,14,4.38-11.83,4.38-11.83Z"/><path class="cls-18" d="M227.9,288.29,238,289.61s-1.75,11-6.14,10.52S227.9,288.29,227.9,288.29Z"/><path class="cls-19" d="M239.29,255.42s-1.75,21.91,5.7,21,4.82-19.72,4.82-19.72Z"/><path class="cls-20" d="M276.11,252.79s.44,17.53,7,14.9,7-16.22,7-16.22Z"/><path class="cls-21" d="M262.52,278.65s.88,11,5.26,10.52,5.26-11,5.26-11Z"/><path class="cls-22" d="M286.19,235.26s-1.31,10.08,3.94,9.2,3.94-10.08,3.94-10.08Z"/><path class="cls-23" d="M198.09,196.25l7.89,1.31s-1.75,9.2-4.82,8.77S198.09,196.25,198.09,196.25Z"/></g><path class="cls-24" d="M282.47,227.32h0a43.74,43.74,0,0,1-1.66,5.18C277.22,241.61,271,247.6,263,248c-18.23.85-38.52-20.46-46.17-38.91-.25-.62-.5-1.24-.73-1.85l.67.18h0c16.89,4.14,18.64-14.9,22.11-34.8,3.51-20.16,26.73-18.85,39.44,11.83C284.64,199.74,285.53,215.39,282.47,227.32Z"/><path class="cls-25" d="M234,158.56a23.67,23.67,0,1,1-47.33,0c0-13.07,10.6-27,23.67-27S234,145.49,234,158.56Z"/><circle class="cls-26" cx="210.37" cy="158.56" r="23.67"/><path class="cls-27" d="M282.47,227.33a43.74,43.74,0,0,1-1.66,5.18c-.53,0-1,0-1.53,0a16.42,16.42,0,0,1-3.37-.62,31.05,31.05,0,0,1-5.37-2.22c-3.23-1.63-6.09-3.36-9-4.66a24.38,24.38,0,0,0-4.29-1.55,13.6,13.6,0,0,0-2.07-.34c-.78-.06-1.66-.08-2.48-.12-6.74-.22-14-.18-20.85-2.47a28.38,28.38,0,0,1-9.34-5.14,33,33,0,0,1-5.74-6.33c-.38-.53-.74-1.06-1.09-1.6l.36-.25.36-.25.32.43h0a32.77,32.77,0,0,0,6.63,6.85,26.53,26.53,0,0,0,9,4.39c6.54,1.83,13.45,1.46,20.27,1.31.86,0,1.71,0,2.58,0a16.3,16.3,0,0,1,2.62.26,27,27,0,0,1,5,1.46c3.22,1.24,6.26,2.86,9.36,4.23a28.71,28.71,0,0,0,4.74,1.72,8.38,8.38,0,0,0,4.8,0A4.53,4.53,0,0,0,282.47,227.33Z"/><circle class="cls-25" cx="210.37" cy="162.07" r="10.96"/><path class="cls-25" d="M289.25,173.9c-4.8,1.3-9.64-1.3-13.74-5.8a44.74,44.74,0,0,1-9.15-16.87c-2.64-8.91-4.79-21.26.69-24.66C276.25,120.87,305.47,169.52,289.25,173.9Z"/><path class="cls-28" d="M289.25,173.9c-4.8,1.3-9.64-1.3-13.74-5.8a44.74,44.74,0,0,1-9.15-16.87c-2.64-8.91-2.31-17.76,3.17-21.15C278.74,124.38,305.47,169.52,289.25,173.9Z"/><path class="cls-25" d="M278.39,167.69a5.38,5.38,0,0,1-2.88.41,44.74,44.74,0,0,1-9.15-16.87,5.9,5.9,0,0,1,3.09-3.54c3.76-1.68,8.8,1.44,11.27,7S282.15,166,278.39,167.69Z"/><polygon class="cls-25" points="196.14 96.86 192.42 108.56 226.62 110.55 230.16 94.13 196.14 96.86"/><polygon class="cls-25" points="252.66 97.2 256.37 113.24 283.82 97.79 275.3 90.22 252.66 97.2"/><path class="cls-29" d="M160.4,221.23c-6.14,28.93-6.14,48.65-.88,52.15s12.71-43.83,12.71-43.83Z"/></g></g></svg>