<svg xmlns="http://www.w3.org/2000/svg" xmlns:xlink="http://www.w3.org/1999/xlink" viewBox="0 0 450 420"><defs><style>.cls-1{isolation:isolate;}.cls-2{fill:#f58c14;}.cls-3,.cls-6{fill:#ffb741;}.cls-4{fill:url(#Безымянный_градиент_14);}.cls-5{fill:#cc4a29;mix-blend-mode:multiply;}.cls-5,.cls-6{opacity:0.4;}.cls-15,.cls-6{mix-blend-mode:screen;}.cls-7{fill:#eb612f;}.cls-8{fill:#ff8430;}.cls-9{fill:#ad5723;}.cls-10{fill:url(#radial-gradient);}.cls-11{fill:url(#radial-gradient-2);}.cls-12{fill:#85431b;}.cls-13{fill:#ffe32f;}.cls-14{fill:url(#Безымянный_градиент_15);}.cls-15{opacity:0.5;fill:url(#linear-gradient);}</style><linearGradient id="Безымянный_градиент_14" x1="222.3" y1="126.86" x2="215.13" y2="244.05" gradientUnits="userSpaceOnUse"><stop offset="0" stop-color="#ffe32f"/><stop offset="0.49" stop-color="#ffe12f"/><stop offset="0.67" stop-color="#ffda2d"/><stop offset="0.8" stop-color="#ffcf2a"/><stop offset="0.9" stop-color="#ffbe26"/><stop offset="0.98" stop-color="#ffa821"/><stop offset="1" stop-color="#ffa320"/></linearGradient><radialGradient id="radial-gradient" cx="230.67" cy="129.86" r="11.11" gradientUnits="userSpaceOnUse"><stop offset="0.32" stop-color="#fff9f2"/><stop offset="0.62" stop-color="#fef8f0"/><stop offset="0.73" stop-color="#fbf3e9"/><stop offset="0.8" stop-color="#f6ebde"/><stop offset="0.86" stop-color="#efe0cd"/><stop offset="0.92" stop-color="#e5d1b7"/><stop offset="0.96" stop-color="#dabf9c"/><stop offset="0.97" stop-color="#d6ba94"/></radialGradient><radialGradient id="radial-gradient-2" cx="256.48" cy="123.09" r="7.22" gradientTransform="translate(40.88 -62.91) rotate(15.08)" gradientUnits="userSpaceOnUse"><stop offset="0.32" stop-color="#fff9f2"/><stop offset="0.63" stop-color="#fef8f0"/><stop offset="0.74" stop-color="#fbf3e9"/><stop offset="0.82" stop-color="#f6ebde"/><stop offset="0.89" stop-color="#efe0cd"/><stop offset="0.94" stop-color="#e5d1b7"/><stop offset="0.99" stop-color="#dabf9c"/><stop offset="1" stop-color="#d6ba94"/></radialGradient><linearGradient id="Безымянный_градиент_15" x1="198.81" y1="223.57" x2="190.37" y2="246.75" gradientUnits="userSpaceOnUse"><stop offset="0" stop-color="#ffe32f"/><stop offset="0.17" stop-color="#fede2f"/><stop offset="0.37" stop-color="#fbd02f"/><stop offset="0.58" stop-color="#f5b92f"/><stop offset="0.8" stop-color="#ee982e"/><stop offset="1" stop-color="#e6742e"/></linearGradient><linearGradient id="linear-gradient" x1="194.79" y1="241.33" x2="213.04" y2="241.33" gradientUnits="userSpaceOnUse"><stop offset="0" stop-color="#ffb741"/><stop offset="0.23" stop-color="#fdb240"/><stop offset="0.49" stop-color="#f8a43c"/><stop offset="0.77" stop-color="#ef8d35"/><stop offset="1" stop-color="#e6742e"/></linearGradient></defs><title>Монтажная область 2 копия</title><g class="cls-1"><g id="_1" data-name="1"><path class="cls-2" d="M210.58,261.79c-.84,38.15-7,77.57-7,77.57h3.16s9.27-66,8-77.57C213.95,260.94,210.58,261.79,210.58,261.79Z"/><path class="cls-2" d="M236.92,264.31c-10.75,36.68-2.74,75-2.74,75h3.16s-8.5-36.61,3.79-75C240.3,263.47,236.92,264.31,236.92,264.31Z"/><path class="cls-2" d="M204.18,337.81s-12.51,3.58-12,5.2,11.94-2.53,11.94-2.53,1.69,9.91,3.93,9.42-1.41-9.27-1.41-9.27,9,3.37,9.49,1S206,337.88,206,337.88Z"/><path class="cls-2" d="M225.12,340.2c.68,1.63,10.47,1.33,10.47,1.33s13.56,7.8,16,6.82-10.47-6.67-10.47-6.67,17.35,2.88,18.27,1.55-15.74-2.74-15.67-3,9.77.35,9.77-1.05-17.07-.56-17.07-.56S224.28,338.16,225.12,340.2Z"/><path class="cls-3" d="M230.39,264.1s4.43,4.64,9.27,3a6.83,6.83,0,0,0,4.64-6.53Z"/><path class="cls-4" d="M282.67,148.17c-3.27,16.68-32,38.78-32,38.78s11.8,21.92,6.32,51.85-28.67,28.67-37.52,24.45c-2.93,2-7.65,2.66-10.79-.46a9.69,9.69,0,0,1-2.28-3.75q-4.33-3.48-8.26-7.34c-20.79-20.28-33.38-47-36-60.11-3-14.75-5.9-31.62-2.53-24,3.28,7.38,9.35,27.9,9.68,29-.11-.93-1.55-12.61,1.28-13s16,33.3,16,33.3l34.57-1.26s1.69-49.32-20.66-99.49c34.37-5.67,72,5.64,80.65,22.17A14.69,14.69,0,0,1,282.67,148.17Z"/><path class="cls-5" d="M225.12,232.7c.21,17.5-9.91,26.35-16.48,30.1a9.69,9.69,0,0,1-2.28-3.75q-4.33-3.48-8.26-7.34Z"/><path class="cls-6" d="M282.67,148.17c-3.27,16.68-32,38.78-32,38.78s11.8,21.92,6.32,51.85-28.67,28.67-37.52,24.45c14.48-5.48,28-29.65,17-63.38s-10.12-45.53-1.41-57c0,0,7,5.55,14.9,2.74,5.21-1.86,20.94-5.7,31.18-7.34A14.69,14.69,0,0,1,282.67,148.17Z"/><path class="cls-7" d="M235,142.9c6.32,13.49,17.5,19.18,24.66,16.23s15-12.86,15-12.86-20.24,1.69-27,1.69S235,142.9,235,142.9Z"/><path class="cls-8" d="M235,142.9c11,14.33,23,4.85,36.68,4.64,11-.17,20.83,4.78,26.51,9.15a1.59,1.59,0,0,0,2.5-1.66c-4.33-17-18.23-27.49-29.64-28.14C256.32,126,251.26,149.86,235,142.9Z"/><path class="cls-8" d="M233.34,147.12c-.11-4.32,3.27-4.74,5.8-4.43C234.71,138.9,231.13,142.9,233.34,147.12Z"/><path class="cls-9" d="M241.21,129.9a10.61,10.61,0,0,1-1.53,5.51l-16.74,2a10.63,10.63,0,0,1-3.09-7.5c0-5.89,4.64-12.5,10.54-12.5S241.21,124,241.21,129.9Z"/><path class="cls-10" d="M241.21,129.9a10.61,10.61,0,0,1-1.53,5.51l-16.74,2a10.68,10.68,0,1,1,18.27-7.5Z"/><path class="cls-9" d="M263.3,121.52c1,3.7-.56,7.33-3.47,8.12s-6.08-1.58-7.08-5.27-.17-9,2.8-9.5C259.48,114.17,262.3,117.83,263.3,121.52Z"/><ellipse class="cls-11" cx="258.02" cy="122.94" rx="5.46" ry="6.93" transform="translate(-23.1 71.38) rotate(-15.08)"/><ellipse class="cls-12" cx="256.23" cy="123.79" rx="3.27" ry="4.15" transform="translate(-23.38 70.94) rotate(-15.08)"/><polygon class="cls-9" points="246.27 103.49 245.43 111.07 263.13 112.48 264.26 107.7 246.27 103.49"/><polygon class="cls-9" points="217.18 108.42 217.65 112.78 237.94 113.63 240.22 107.63 217.18 108.42"/><path class="cls-13" d="M203.55,117.12c-7-8.15-1.41-18-1.41-18s-10.4-.84-11.52,6.18S197.65,116.55,203.55,117.12Z"/><path class="cls-13" d="M202.85,116c-17.14,5.06-28.67-14.33-27.82-22.76C168.84,111.5,175.31,131.17,202.85,116Z"/><circle class="cls-12" cx="230.95" cy="130.04" r="6.04"/><path class="cls-14" d="M225.12,232.7c-5.82,19-12.35,25.88-22.39,24.39a22.76,22.76,0,0,1-2.7-.57,35,35,0,0,1-4.6-1.6c-8.43-3.63-12.38-9.48-12-11.47.19-1.2,8.94,1.59,9.84,1.87-1.15-.61-17.2-8.93-16.8-11.78s14.56,3.47,16.1,4.15c-1.8-.94-21.15-11-20.94-14.06.14-2.18,9.34.66,15,2.63-6-2.32-16.05-6.69-15-9.8.88-2.64,19.69,3.62,34.76,9.11,2.35.85,4.6,1.69,6.69,2.48C220.05,230.69,225.12,232.7,225.12,232.7Z"/><path class="cls-15" d="M211.63,232.91s-5.48,3-2.74,8c-2.11,0-5.69,3.58-2.53,7.59-4.28,1.18-4.11,5.88-3.63,8.58a22.76,22.76,0,0,1-2.7-.57,35,35,0,0,1-4.6-1.6c-1.77-2.89.3-7.55,3.76-8.52-2.11-2.11-.63-8.22,3-8.43-2.74-6.53,2.74-7,2.74-7s-2.84-3.85,1.46-5.43c2.35.85,4.6,1.69,6.69,2.48C211,229.64,211.63,232.91,211.63,232.91Z"/></g></g></svg>