<svg id="layer_1" data-name="layer 1" xmlns="http://www.w3.org/2000/svg" xmlns:xlink="http://www.w3.org/1999/xlink" viewBox="0 0 854.54 144.9"><defs><linearGradient id="Безымянный_градиент_5" x1="-356.36" y1="-1059.63" x2="500.54" y2="-1059.63" gradientTransform="matrix(1 0 0 -1 354 -987.18)" gradientUnits="userSpaceOnUse"><stop offset=".1" stop-color="#e69757"/><stop offset=".27" stop-color="#fbc380"/><stop offset=".41" stop-color="#ffe3b8"/><stop offset=".49" stop-color="#ffe4bb"/><stop offset=".55" stop-color="#fee6c5"/><stop offset=".6" stop-color="#fde9d3"/><stop offset=".76" stop-color="#ffe0c0"/><stop offset=".81" stop-color="#ffd6a6"/><stop offset=".85" stop-color="#ffd096"/><stop offset="1" stop-color="#fbc380"/></linearGradient><linearGradient id="Безымянный_градиент_2" x1="-340.62" y1="-1065.2" x2="-257.13" y2="-1045.94" gradientTransform="matrix(1 0 0 -1 354 -987.18)" gradientUnits="userSpaceOnUse"><stop offset=".15" stop-color="#fbc380"/><stop offset=".18" stop-color="#fbc687"/><stop offset=".6" stop-color="#fde9d3"/><stop offset=".76" stop-color="#ffe0c0"/><stop offset=".81" stop-color="#ffd6a6"/><stop offset=".85" stop-color="#ffd096"/><stop offset="1" stop-color="#fbc380"/></linearGradient><linearGradient id="Безымянный_градиент_2-2" x1="489.28" y1="-1062.56" x2="380.32" y2="-1041.03" xlink:href="#Безымянный_градиент_2"/><style>.cls-3{opacity:.4;isolation:isolate;fill:#eea239}</style></defs><g id="layer_1-2" data-name="layer 1"><path d="M841.19 28C834 16.68 818 8.59 795.19 7.26 779 6.32 761.62 9 749 14.58c-.73.32-1.43.66-2.14 1s-1.16.58-1.73.89h-.08l-1 .51c-1.79 1-4.45 1.72-4.68 3.17a157.74 157.74 0 01-4 17c-13-2.32-26.45-4-39.74-5.68l-2-.26q-20.63-2.64-41.52-4.77c-28.44-2.91-57.21-5.1-86-6.85-29.41-1.8-58.69-2.18-88.24-2.6-29.84-.38-59.7-1.32-89.56-1.49-27.76-.15-55.49.74-83.19 1.74-27 1-54 2.42-80.62 5-21.76 2.13-43.15 5.18-64.34 8.6l-2.39.38q-6.63 1.07-13.25 2.19c-12.19 2.05-24.32 4.06-36.64 5.87-10.08 1.48-20 3.28-28.87 6.21-1 .31-2 .64-2.91 1-1-3.11-1.85-6.23-2.65-9.36s-1.23-6.17-1.8-9.26c-.27-1.42.22-2.87.09-4.31a3.86 3.86 0 00-.59-2.1c-.6-.79-3-1.6-4.11-2.27a42.77 42.77 0 00-6.5-2.79 49.75 49.75 0 00-10.44-2.73 74.36 74.36 0 00-23.52.33 87.48 87.48 0 00-11.92 2.81A59.29 59.29 0 00-5 27.25 31.63 31.63 0 00-11.32 34a28.08 28.08 0 00-1.82 3.51c-.91 2-2.83 4-2.14 6C-13 50.12 2 85 6.52 94.18c4.56 9.38 9.42 18.71 13.67 28.14.25.57.48 1.14.73 1.71.74 1.7 1.46 3.4 2.14 5.12s1.37 3.49 2 5.25a19 19 0 007.19 10 1.09 1.09 0 00.82.16 26.8 26.8 0 008 3.81c.78.25 1.58.47 2.39.7l.75.17c.57.15 1.13.29 1.71.41l.94.21c.52.11 1 .23 1.58.32l1.05.19 1.53.26 1.12.16 1.5.21 1.19.14 1.46.16 1.27.14 1.42.12 1.34.1c.44 0 .89.06 1.34.08l1.43.08h1.22l1.57.05h3.43c5.37 0 10.71-.17 15.75-.52a406.06 406.06 0 0042.16-5.35q4.69-.84 9.22-1.6l3.3-.56 5.63-1 3.24-.55 5.48-.91 2.66-.43 5.79-.95 2.07-.33 6.12-1c.5-.08 1-.14 1.49-.23 2.16-.35 4.31-.67 6.4-1l1-.15 6.61-1a3 3 0 00.59-.09l6.59-1c52.26-7.75 78.74-9.65 89.44-10.51 29.43-2.39 58.56-4.14 88.17-5.52 29.91-1.4 59.9-2.25 89.93-2.35 28.43-.09 56.89.72 85.16 2.31s56.54 4 84.51 6.92c10.78 1.15 21.42 2.21 31.91 3.54l1.68.22 2 .27 2.48.34 1.78.25 2.68.39 1.66.26 2.78.43c.54.09 1 .19 1.58.26l2.85.49 1.52.27c1 .17 2 .36 3 .55l1.4.27 3.2.65 1.13.24 4.31.95c9.08 2.11 18.12 4.46 27.41 6.35 3.13.63 6.29 1.21 9.49 1.71a90.15 90.15 0 0010.58 1 1.28 1.28 0 00.78.18q3.82-.06 7.6-.33a5.74 5.74 0 00.93-.05 96.65 96.65 0 0020.3-3.47l1.58-.5.39-.12 1.38-.49.55-.2 1.22-.49.67-.28c.35-.14.72-.31 1.07-.47l.75-.35c.24-.12.64-.29 1-.46s.58-.29.85-.46.53-.28.79-.43l1-.58.6-.36c.51-.33 1-.67 1.49-1 6.33-4.57 10.15-10.45 13.92-15.75a159.89 159.89 0 0011.08-18.39 369.94 369.94 0 0017.23-38.4c2.54-6.55 5.24-12.82 8-19.34C839 38.23 842.4 30 841.19 28z" style="isolation:isolate" opacity=".4" fill="#767575"/><path d="M854.31 20.9c-7.16-11.3-23.16-19.39-46-20.72-16.2-.93-33.57 1.71-46.17 7.31-1.72.77-3.35 1.59-4.93 2.44-1.78 1-4.43 1.71-4.69 3.16a155.22 155.22 0 01-4 17c-13-2.31-26.43-4-39.71-5.67q-21.7-2.79-43.59-5c-28.45-2.91-57.21-5.11-86-6.86C549.8 10.77 520.53 10.39 491 10c-29.91-.42-59.76-1.37-89.66-1.53-27.76-.15-55.49.73-83.18 1.74-27 1-54 2.43-80.63 5-27.12 2.66-53.69 6.74-80 11.17-12.19 2.06-24.32 4.06-36.64 5.87-11.19 1.65-22.13 3.66-31.78 7.2-1-3.11-1.86-6.23-2.64-9.36s-1.23-6.17-1.81-9.26c-.26-1.43.22-2.87.09-4.31a3.89 3.89 0 00-.59-2.1c-.6-.79-3-1.6-4.1-2.26a43.5 43.5 0 00-6.51-2.79 50.31 50.31 0 00-10.38-2.7A74.18 74.18 0 0039.65 7a88.86 88.86 0 00-11.92 2.67A59.51 59.51 0 008.07 20.16 32 32 0 001.73 27a27.4 27.4 0 00-1.81 3.5c-.91 2-2.82 4-2.14 6C.07 43 15.11 77.92 19.58 87.1c4.56 9.38 9.42 18.71 13.66 28.13q2.72 6 4.86 12.09a19 19 0 007.18 10 1.12 1.12 0 00.82.16 27.15 27.15 0 008 3.81c12.91 4 29.68 4.06 44 3.09a402 402 0 0042.21-5.38c97.6-17 141.09-20.08 155.62-21.25 29.42-2.38 58.55-4.14 88.16-5.51C414 110.83 444 110 474 109.88c28.43-.09 56.9.71 85.17 2.31s56.54 4 84.51 6.92c22.59 2.39 44.58 4.41 65.88 9.37 12.14 2.82 24.18 6.06 36.91 8a88.51 88.51 0 0010.59 1 1.28 1.28 0 00.78.19c2.55 0 5.09-.16 7.6-.33a4.12 4.12 0 00.93-.07c13-1 25.42-3.75 33.6-9.68 6.33-4.56 10.13-10.44 13.91-15.74A161.51 161.51 0 00825 93.44a371.42 371.42 0 0017.2-38.39c2.55-6.55 5.23-12.82 8-19.35 1.8-4.55 5.26-12.82 4.11-14.8z" fill="url(#Безымянный_градиент_5)"/><path class="cls-3" d="M131.25 82.29c-4.07-21.79 11.21-42.09 43-55.68 4.08-1.74 8.27-3.38 12.52-4.95q-14.67 2.22-29.19 4.69c-12.19 2.06-24.32 4.06-36.64 5.87-11.19 1.65-22.13 3.66-31.78 7.2-1-3.11-1.86-6.23-2.64-9.36s-1.23-6.17-1.81-9.26c-.26-1.43.22-2.87.09-4.31a3.89 3.89 0 00-.59-2.1c-.6-.79-3-1.6-4.1-2.26a43.5 43.5 0 00-6.51-2.79 50.31 50.31 0 00-10.43-2.67A74.18 74.18 0 0039.65 7a88.86 88.86 0 00-11.92 2.67A59.51 59.51 0 008.07 20.16 32 32 0 001.73 27a27.4 27.4 0 00-1.81 3.5c-.91 2-2.82 4-2.14 6C.07 43 15.11 77.92 19.58 87.1c4.56 9.38 9.42 18.71 13.66 28.13q2.72 6 4.86 12.09a19 19 0 007.18 10 1.12 1.12 0 00.82.16 27.15 27.15 0 008 3.81c12.91 4 29.68 4.06 44 3.09a402 402 0 0042.21-5.38c25.75-4.49 47.71-8 66.38-10.77-39.09-6.84-70.69-20.36-75.44-45.94z"/><path class="cls-3" d="M122 139.51c-9.19.18-14.66-6.61-7.65-10 11-5.33 10.52-12.53 8.95-20-2-9.19-6.27-18.18-10.41-27.15-6.85-14.81-12.34-29.79-18.33-44.71-1.85.56-3.68 1.14-5.45 1.78-1-3.11-1.86-6.23-2.64-9.36s-1.23-6.17-1.81-9.26c-.26-1.43.22-2.87.09-4.31a3.89 3.89 0 00-.59-2.1c-.6-.79-3-1.6-4.1-2.26a43.5 43.5 0 00-6.51-2.79 50.31 50.31 0 00-10.4-2.68 74.18 74.18 0 00-23.5.33 88.86 88.86 0 00-11.92 2.67A59.51 59.51 0 008.07 20.16 32 32 0 001.73 27a27.4 27.4 0 00-1.81 3.5c-.91 2-2.82 4-2.14 6C.07 43 15.11 77.92 19.58 87.1c4.56 9.38 9.42 18.71 13.66 28.13q2.72 6 4.86 12.09a19 19 0 007.18 10 1.12 1.12 0 00.82.16 27.15 27.15 0 008 3.81c12.91 4 29.68 4.06 44 3.09a402 402 0 0042.21-5.38l2.3-.39q-10.25.68-20.61.9z"/><path class="cls-3" d="M74.87 141.93c-10.11-2.45-21-6.48-20.52-13.13.44-5.74 11.9-2.22 16.63-.6 12.87 4.42 31.56 4.4 39.23-3.86 6-6.46 3.14-14.7-7-19.46-8.49-4-20.08-5-30.89-3.81-15.81 1.78-32.17 7.62-38.31 15.86 1.5 3.44 2.9 6.89 4.13 10.37a19 19 0 007.18 10 1.12 1.12 0 00.82.16 27.15 27.15 0 008 3.81c11.95 3.71 27.18 4 40.73 3.28a109.88 109.88 0 01-20-2.62zM854.31 20.9c-7.16-11.3-23.16-19.39-46-20.72-16.2-.93-33.57 1.71-46.17 7.31-1.72.77-3.35 1.59-4.93 2.44-1.78 1-4.43 1.71-4.69 3.16a155.22 155.22 0 01-4 17c-13-2.31-26.43-4-39.71-5.67l-2-.26c10 6.07 15.73 13.88 17.73 22 5.39 21.75.51 45.62-25.87 63.25a136.5 136.5 0 01-25.55 13 347.38 347.38 0 0136.5 6.14c12.14 2.82 24.18 6.06 36.91 8a88.51 88.51 0 0010.59 1 1.28 1.28 0 00.78.19c2.55 0 5.09-.16 7.6-.33a4.12 4.12 0 00.93-.07c13-1 25.42-3.75 33.6-9.68 6.33-4.56 10.13-10.44 13.91-15.74A161.51 161.51 0 00825 93.51a371.42 371.42 0 0017.2-38.39c2.55-6.55 5.23-12.82 8-19.35 1.8-4.62 5.26-12.89 4.11-14.87z"/><path class="cls-3" d="M854.31 20.9c-7.16-11.3-23.16-19.39-46-20.72-16.2-.93-33.57 1.71-46.17 7.31a68.76 68.76 0 00-3.94 1.92c.83 4.78 3 9.55 3.15 14.34 0 .73-1.83 1.78-2.42 2.43a27.36 27.36 0 00-3.62 4.72 52.88 52.88 0 00-4.19 9.2 279.88 279.88 0 01-25.49 53.14c-4.08 6.65-10 15.65-2.37 22.2 5 4.29 11.9 5.4 20.57 6.28 5.5.56 11.36 1 15.93 2.91 5.2 2.14 6.79 5.68.16 7.46-7 1.86-15.25 2.4-23 2.71 3.13.63 6.29 1.22 9.5 1.71a88.51 88.51 0 0010.59 1 1.28 1.28 0 00.78.19c2.55 0 5.09-.16 7.6-.33a4.12 4.12 0 00.93-.07c13-1 25.42-3.75 33.6-9.68 6.33-4.56 10.13-10.44 13.91-15.74a161.51 161.51 0 0011.08-18.41 371.42 371.42 0 0017.23-38.39c2.55-6.55 5.23-12.82 8-19.35 1.86-4.58 5.32-12.85 4.17-14.83z"/><path class="cls-3" d="M854.31 20.9c-7.16-11.3-23.16-19.39-46-20.72-16.2-.93-33.57 1.71-46.17 7.31a68.76 68.76 0 00-3.94 1.92c.83 4.78 3 9.55 3.15 14.34 0 .73-1.83 1.78-2.42 2.43a27.36 27.36 0 00-3.62 4.72 52.88 52.88 0 00-4.19 9.2 279.88 279.88 0 01-25.49 53.14l-.26.41c-1 2.61-2.2 5.22-2.06 7.93a16 16 0 006.75 12.47c1.33-4 12.38-8.58 18.42-10.15.9-.23 2 .14 1.75.72a16.89 16.89 0 01-3.73 5c5.86-.43 11.22 1.48 13 4.44q2.43-3.5 4.51-7.06c-1.11-.23-1-1.26.37-1.22a5.37 5.37 0 01.9.05 2.23 2.23 0 01.88.05c11.61.87 20.07 7.12 22.72 13 2.24 5 1.21 10.14-2.23 14.87a44.48 44.48 0 0013.29-6.22c6.33-4.56 10.13-10.44 13.91-15.74a161.51 161.51 0 0011.08-18.41A371.42 371.42 0 00842.16 55c2.55-6.55 5.23-12.82 8-19.35 1.84-4.5 5.3-12.77 4.15-14.75z"/><path d="M854.31 20.9c-7.16-11.3-23.16-19.39-46-20.72-16.2-.93-33.57 1.71-46.17 7.31-1.72.77-3.35 1.59-4.93 2.44-1.78 1-4.43 1.71-4.69 3.16a155.22 155.22 0 01-4 17c-13-2.31-26.43-4-39.71-5.67q-21.7-2.79-43.59-5c-28.45-2.91-57.21-5.11-86-6.86C549.8 10.77 520.53 10.39 491 10c-29.91-.42-59.76-1.37-89.66-1.53-27.76-.15-55.49.73-83.18 1.74-27 1-54 2.43-80.63 5-27.12 2.66-53.69 6.74-80 11.17-12.19 2.06-24.32 4.06-36.64 5.87-11.19 1.65-22.13 3.66-31.78 7.2-1-3.11-1.86-6.23-2.64-9.36s-1.23-6.17-1.81-9.26c-.26-1.43.22-2.87.09-4.31a3.89 3.89 0 00-.59-2.1c-.6-.79-3-1.6-4.1-2.26a43.5 43.5 0 00-6.51-2.79 50.31 50.31 0 00-10.38-2.7A74.18 74.18 0 0039.65 7a88.86 88.86 0 00-11.92 2.67A59.51 59.51 0 008.07 20.16 32 32 0 001.73 27a27.4 27.4 0 00-1.81 3.5c-.91 2-2.82 4-2.14 6C.07 43 15.11 77.92 19.58 87.1c4.56 9.38 9.42 18.71 13.66 28.13q2.72 6 4.86 12.09a19 19 0 007.18 10 1.12 1.12 0 00.82.16 27.15 27.15 0 008 3.81c12.91 4 29.68 4.06 44 3.09a402 402 0 0042.21-5.38c97.6-17 141.09-20.08 155.62-21.25 29.42-2.38 58.55-4.14 88.16-5.51C414 110.83 444 110 474 109.88c28.43-.09 56.9.71 85.17 2.31s56.54 4 84.51 6.92c22.59 2.39 44.58 4.41 65.88 9.37 12.14 2.82 24.18 6.06 36.91 8a88.51 88.51 0 0010.59 1 1.28 1.28 0 00.78.19c2.55 0 5.09-.16 7.6-.33a4.12 4.12 0 00.93-.07c13-1 25.42-3.75 33.6-9.68 6.33-4.56 10.13-10.44 13.91-15.74A161.51 161.51 0 00825 93.44a371.42 371.42 0 0017.2-38.39c2.55-6.55 5.23-12.82 8-19.35 1.8-4.55 5.26-12.82 4.11-14.8zM40.75 126.1c-1.46-4.12-3.18-8.18-5-12.25-4.1-9.1-8.82-18.13-13.26-27.19C14.29 69.9 6.49 53.07 0 36.09 3.09 26.62 11.39 18 26.11 12.27c12-4.66 32.14-7.17 44.84-1.89 1.86.78 8.94 3.69 10 4.73.6.58 1.71 10.83 2.25 13.28 1.11 5.15 2.65 10.28 4.24 15.39a288.72 288.72 0 0011.43 30.89c4.63 10.45 9.56 20.9 12.12 31.57.93 3.86 1.75 8.44.48 12.6-.92-7.21-15-11.2-27.51-11-13.83.2-26.53 4.92-34.71 10.69-4.36 3.08-7 6.64-7.56 10.12-.38-.84-.69-1.65-.94-2.55zm36.84-2.43c-.62-.81-1.16-1.61-1.69-2.41-2.14-3.23-3.2-6.63-5.46-9.83a68.81 68.81 0 018.09-1.43c1.33-.16 2.68-.27 4-.32.7 1.55 2.34 3.11 3.53 4.54a12.69 12.69 0 002.77 2.46c-8.83-1.2-12.7 2.99-11.24 6.99zm12.63-6.12a.77.77 0 00.29 0 11.61 11.61 0 001.34.56c.24.09.53-.08.38-.21-2.79-2.61-4.33-5.65-7.06-8.27 13.68.17 27.35 5.53 21.89 13.86-3.25 4.94-15 6.63-22.55 3.37-7.2-3.11-5.54-10.88 5.71-9.32zm687.29 16.21c-1.31.39-2.64.7-4 1-3.32.44-6.7.77-10.08 1.13-9.68.27-19.64-1.47-28.65-3.43-11.41-2.49-22.46-5.53-34.06-7.76-12-2.33-24.57-3.68-37-5.13q-22.61-2.65-45.45-4.62-13-1.15-25.94-2.15c-29.15-2.27-58.31-3.87-87.76-4.39-30-.53-60.08-.09-90 .91-29.27 1-58.66 2.3-87.72 4.46-46.71 3.47-88.79 7.92-134.24 14.43-18.16 2.61-39.88 7.1-57.95 9.74-8.57 1.26-17.05 2.69-25.75 3.7-13.91 1.6-28.29 2.19-42.21.35-7.91-1-16-2.95-20.08-7-3.2-3.09-2.44-6.82-.32-10 3.72-5.65 12.42-10.42 22.52-13.13 2.49 6.58 5.36 16.81 19.76 18.4.34 0 .57-.12.56-.27a29.2 29.2 0 0012.49-.87 2 2 0 00.65 0c12.23-3.21 13.35-11.31 12.73-17.84-1-10.58-6-21.11-10.62-31.36-4.85-10.87-9.06-21.74-12.78-32.74-.73-2.15-1.42-4.3-2.09-6.44 11.11-3.83 24-5.76 36.61-7.56 13.67-1.94 27.07-4.37 40.59-6.6 28-4.63 56.42-8.57 85.39-11 29.36-2.47 59.06-3.53 88.69-4.39 29.8-.87 59.43-1.14 89.26-.61 26.82.46 53.62 1.29 80.47 1.38 27.1.08 54.14 1.42 81 3.21s53.41 3.85 79.78 6.65c25.64 2.7 51.8 5.62 76.68 10-1.35 4.65-2.81 9.29-4.23 14a291 291 0 01-11.45 31.84c-2.24 5.14-4.75 10.25-7.2 15.37-2.31 4.81-4 9.69-2.85 14.67 1.38 5.73 7.83 10.09 17.11 11.84a27.88 27.88 0 0010.38.76c5.06-.3 10-2.54 11-5.22 1.38-1.72 1.88-3.7 2.68-5.45 1.52-3.41 3.86-6.76 5.24-10.18 6.87.61 13.49 2.2 18.21 5a14.5 14.5 0 017.2 15.49c-1.14 5.82-7.19 11-16.56 13.8zm-26.93-30c-1 1.71-1.64 4.22-3.94 5.58-.14.08-.2.18-.17.27-.17.14 0 .36.35.36 4.52 0 9.68 1.06 11 3.63 1.76 3.45-7 5.31-11.91 5.5-5.87-.4-11.52-2.84-14.41-5.51-4.21-3.9.2-7.83 5.91-10.38a51.38 51.38 0 0115.9-3.64 30.77 30.77 0 00-2.72 4.22zm6-4.48c2.17-.12 4.33-.16 6.43-.13a25.88 25.88 0 012.64.09c-3.15 4.09-4 8.57-5.69 12.88-2-2.1-6.75-3-11.12-2.8a11 11 0 003.12-3.27c1.72-2.18 3.15-4.48 4.64-6.74zM846.9 36c-3.84 11.61-17.68 42.75-23.69 54.47-5.9 11.5-12.39 23.43-23.23 33.88a34.28 34.28 0 01-12.73 7.36 20.9 20.9 0 008.83-8.42c4.45-8.69-.81-19.63-16.49-23.73-14-3.68-33.14-2.56-45.15 2.84-4.58 2.05-7.86 5-7.73 8.19a13.35 13.35 0 01-1.42-9.15c.81-5.07 3.82-10.12 6.17-15S736 76.6 738 71.7c4-9.71 6.94-19.47 9.91-29.27 1.55-5.09 3.17-10.18 4.68-15.28 1.4-4.78 2.66-9.64 1.65-14.48A112.76 112.76 0 01806 1.87 82.49 82.49 0 01832.73 7C843 11 848.55 15.8 852 22.24c-.42 4.16-3.53 9.14-5 13.75z" fill="#bb8a63"/><path d="M40.75 126.1c-1.46-4.12-3.18-8.18-5-12.25-4.1-9.1-8.82-18.13-13.26-27.19C14.29 69.9 6.49 53.07 0 36.09 3.09 26.62 11.39 18 26.11 12.27c12-4.66 32.14-7.17 44.84-1.89 1.86.78 8.94 3.69 10 4.73.6.58 1.71 10.83 2.25 13.28 1.11 5.15 2.65 10.28 4.24 15.39a288.72 288.72 0 0011.43 30.89c4.63 10.45 9.56 20.9 12.12 31.57.93 3.86 1.75 8.44.48 12.6-.92-7.21-15-11.2-27.51-11-13.83.2-26.53 4.92-34.71 10.69-4.36 3.08-7 6.64-7.56 10.12-.38-.84-.69-1.65-.94-2.55z" fill="url(#Безымянный_градиент_2)"/><path d="M846.92 36c-3.84 11.61-17.68 42.75-23.69 54.47-5.9 11.5-12.39 23.43-23.23 33.88a34.28 34.28 0 01-12.75 7.33 20.9 20.9 0 008.83-8.42c4.45-8.69-.81-19.63-16.49-23.73-14-3.68-33.14-2.56-45.15 2.84-4.58 2.05-7.86 5-7.73 8.19a13.35 13.35 0 01-1.42-9.15c.81-5.07 3.82-10.12 6.17-15S736 76.6 738 71.7c4-9.71 6.94-19.47 9.91-29.27 1.55-5.09 3.17-10.18 4.68-15.28 1.4-4.78 2.66-9.64 1.65-14.48A112.76 112.76 0 01806 1.87 82.49 82.49 0 01832.73 7C843 11 848.55 15.8 852 22.24c-.46 4.16-3.57 9.14-5.08 13.76z" fill="url(#Безымянный_градиент_2-2)"/><path d="M47.41 109.84c-12.74-20.5-19.4-42-25.82-63.33-3.31-11-4.8-22.16.18-32.37-12 5.65-19 13.45-21.77 21.94 6.5 17 14.29 33.81 22.49 50.57 4.44 9.06 9.15 18.09 13.26 27.19 1.84 4.07 3.56 8.14 5 12.25.3.85.61 1.71.95 2.56.52-3.48 3.2-7 7.56-10.12a50.74 50.74 0 017.81-4.5c-4.44-.18-8.07-1.66-9.66-4.19zm63.59-3.56c-2.56-10.67-7.49-21.12-12.12-31.57a288.72 288.72 0 01-11.45-30.94c-1.6-5.1-3.12-10.24-4.25-15.39-.53-2.45-1.65-12.7-2.25-13.28-1.06-1-8.14-3.95-10-4.73a37.24 37.24 0 00-8.7-2.31C74.1 17 76.54 32.17 78.65 41.13c5.35 22.69 13.82 46.39 24.13 69.75 4.81 1.87 8.24 4.56 8.68 8 1.28-4.21.46-8.74-.46-12.6zM742 77.6c4.24-12 11.69-23.51 15.25-35.56 3.2-10.89 5.43-25.11 15.25-36.19a119.24 119.24 0 00-18.28 6.76c1 4.84-.25 9.7-1.65 14.48-1.5 5.1-3.13 10.18-4.68 15.28-3 9.8-5.93 19.56-9.91 29.27q-3 7.37-6.51 14.7c-2.34 4.88-5.37 10-6.17 15a13.35 13.35 0 001.42 9.15c-.12-3 2.75-5.74 6.87-7.78-1.2-8.16 5.72-17.64 8.41-25.11zm93.86-69.33c7 10.35 5.55 22.87 1.26 33.14-9.23 22-23.77 43.34-32.66 65.44-1.07 2.69-4.52 4-8.32 4.19a13.28 13.28 0 010 12.21c-1.76 3.43-4.86 6.22-8.83 8.42a34.28 34.28 0 0012.69-7.32c10.83-10.46 17.33-22.38 23.23-33.88 6-11.72 19.85-42.86 23.69-54.47 1.51-4.61 4.62-9.59 5-13.82-3.01-5.76-7.74-10.18-16.06-13.91z" style="isolation:isolate" opacity=".5" fill="#eea239"/><path d="M50.5 15.67c-3.06-8.62 15.27-6 15.27-6-15.89-6.3-41.56 3.65-41.56 3.65l-2.45.83C26 12.65 35.82 12.66 38.88 19s31.78 90.16 31.78 90.16a70.68 70.68 0 0113.34-1.3S53.56 24.25 50.5 15.67zM780.31 3.86c15.6-1.49 23.85 1.49 20.18 9S759.23 96.4 759.23 96.4l13.76 1s32.09-63.15 37.59-79.06 25.32-10 25.32-10c-25.16-11.08-55.59-4.48-55.59-4.48zM150.44 28.73S251.58 6.67 427.62 9.67c154.22 2.61 204.14 5.62 297.69 18.06 0 0-136.33-14.06-305-15.06S150.44 28.73 150.44 28.73z" fill="#fff"/></g></svg>