<svg id="layer_1" data-name="layer 1" xmlns="http://www.w3.org/2000/svg" viewBox="0 0 70.15 38.11"><defs><style>.cls-2{fill:#ffd537}.cls-5{fill:#ffb939}.cls-7{fill:#00bd36}.cls-9{fill:#f6ea00}</style></defs><g id="layer_1-2" data-name="layer 1"><path d="M12.43 8.21s2 10.35-2.83 11.72c0 0 1.78 5.5 7.2 4.2A6.62 6.62 0 0022 17.5s-3.64 1.13-8.73-9.7zm44.78-1.13s-2 10.35 2.79 11.72c0 0-1.78 5.5-7.19 4.2a6.62 6.62 0 01-5.17-6.63s3.64 1.13 8.73-9.7zM34.65 4.79s-.65 11.5-5.57 11.75c0 0-.32 5.9 6.55 5.33s6.22-5 6.22-5S38 17.79 35.48 5z" fill="#ffb73a"/><path class="cls-2" d="M9.14 34.22l3.78 1.09c1 .28 1.9.58 2.87.79a55.85 55.85 0 007 .9c7.06.65 14.15 1.21 21.22.36 3.2-.38 6.43-.65 9.59-1.27a32.79 32.79 0 004.59-1.2 20.78 20.78 0 003.08-1.29c.14-2.37.4-5.3.88-8.63C63.36 16.48 68 8 68 8l-.6-.18s-3.15 4-5.9 7.11-6 8.73-10.35 4.69-3.8-17.7-3.8-17.7h-.73C46.43 2.46 42 20.56 35 20.4S25.74 2.79 25.74 2.79l-.89.08c-.73 5.82-2.85 18-8.85 18.75S2.78 8.16 2.78 8.16l-.73.16C7.17 17.25 8.12 28.14 8.27 34z"/><path class="cls-2" d="M22.48 26.17c-.17-3.42-.49-6.84-.81-10.25-1.33 3-3.15 5.35-5.66 5.65-2.29.28-4.78-1.63-7-4.09a97 97 0 013.67 17.76l.24.07c1 .28 1.9.58 2.87.79a53.43 53.43 0 006.72.88c.09-3.6.18-7.19-.03-10.81zM67.37 7.79s-2.47 3.1-4.94 6a69.14 69.14 0 00-3 9A99 99 0 0057.65 35l.48-.16a20.78 20.78 0 003.08-1.29c.14-2.37.4-5.3.88-8.63 1.21-8.49 5.82-17 5.82-17z"/><path d="M16 22.79c6-.73 8.12-12.93 8.85-18.79h.89S28.09 21.5 35 21.66s11.44-18 11.55-18.51h.71V1.94h-.73C46.41 2.51 42 20.61 35 20.45S25.74 2.79 25.74 2.79l-.89.08c-.73 5.82-2.85 18-8.85 18.75S2.78 8.16 2.78 8.16l-.73.16c.21.36 8.01 15.2 13.95 14.47zm35.12-1.94c4.36 4 7.6-1.54 10.35-4.69S67.94 8 67.94 8l-.57-.21s-3.15 4-5.9 7.11-6 8.73-10.35 4.69C47.83 16.59 47.34 8 47.3 4c-.03 3.23.18 13.44 3.82 16.85z" fill="#f98712"/><path d="M35.36 38.11c-16.75 0-27.47-3.49-27.58-3.53a.49.49 0 01.31-.92c.11 0 10.69 3.48 27.28 3.48S61 33.23 61 33.2a.49.49 0 01.39.89c-.06.03-9.26 4.02-26.03 4.02z" fill="#f9920b"/><circle class="cls-5" cx="2.68" cy="8.37" r="2.68"/><circle class="cls-5" cx="25.32" cy="2.79" r="2.68"/><circle class="cls-5" cx="46.95" cy="2.68" r="2.68"/><circle class="cls-5" cx="67.47" cy="8.37" r="2.68"/><circle class="cls-5" cx="12.38" cy="6.53" r="2.18"/><circle class="cls-5" cx="35.24" cy="4.41" r="2.17"/><circle class="cls-5" cx="56.99" cy="6.47" r="2.17"/><circle cx="36.43" cy="29.29" r="4.57" fill="#c27300"/><circle class="cls-7" cx="36.43" cy="29.35" r="3.75"/><circle cx="36.43" cy="29.35" r="3.75" fill="#007c27"/><ellipse class="cls-7" cx="36.44" cy="29.06" rx="3.49" ry="3.14"/><circle class="cls-9" cx="35.24" cy="27.66" r=".95"/><circle class="cls-9" cx="33.68" cy="29.55" r=".5"/></g></svg>