<svg id="Layer_1" data-name="Layer 1" xmlns="http://www.w3.org/2000/svg" viewBox="0 0 724.77 298.34"><defs><style>.cls-1{fill:#b0b297}.cls-2{fill:#d3ceba;opacity:.3}.cls-12,.cls-13,.cls-15,.cls-2,.cls-7,.cls-9{isolation:isolate}.cls-3{fill:#a5a58e}.cls-5{fill:#eae8d6}.cls-6{fill:#5b5845}.cls-7{fill:#e5e3cf;opacity:.7}.cls-8{fill:#efebdc}.cls-9{fill:#fefbeb;opacity:.65}.cls-10{fill:#77745f}.cls-11,.cls-13{fill:#4c4a38}.cls-12{fill:#605d4a;opacity:.45}.cls-13{opacity:.54}.cls-14{fill:#a49e85}.cls-15{fill:#51493c;opacity:.55}</style></defs><path class="cls-1" d="M680.79 4.77c-4 0-8 .27-12-.51s-7.87-2-11.83-2.91A46.52 46.52 0 00645.49 0c-4.26.12-8.35 1.3-12.51 2.09-8.3 1.57-17 1.41-25.39 1.55q-13.26.22-26.51-.11c-4.83-.12-9.49-.65-14.29-1.19s-9.8-1-14.57-.13a11.82 11.82 0 00-5.35 2.22c-1.82 1.49-2.13 3.45-2.87 5.57-.33 1-.8 2.1-1.9 2.38-1.65.42-3.34-1.49-4.53-2.34a57.33 57.33 0 00-10-5.81c-3.13-1.42-7.55-3.75-10.87-1.68a28 28 0 00-3.35 3.07 10.22 10.22 0 01-4.64 2.28c-3.31.72-6.77.19-10.08-.24a112.85 112.85 0 00-12.75-.94 178.34 178.34 0 00-25.16 1.62q-3.22.4-6.42.87c-1.69.24-3.58.42-5 1.48-2.67 2-2.26 5.94-3.27 8.78-2.19 6.2-8 10.13-11.51 15.5-3.81 5.84-4.87 12.86-4.69 19.72.18 7.22 1.58 14.33 2.69 21.45a200.54 200.54 0 012.17 25.12c.51 17.22.37 34.59-.38 51.79a236.28 236.28 0 01-2.23 24.68 36.32 36.32 0 00-.38 10.58c.58 4.05 1.88 8 2.54 12a27.82 27.82 0 01-.33 12.23c-1.56 5.41-5.08 10-5.73 15.69-.69 6.15.9 12.38 2 18.39l3.53 19c1 5.11 1.3 11.34 4.82 15.46a26.83 26.83 0 006.27 4.84c2.44 1.55 4.89 3.09 7.43 4.48 4.84 2.65 10.08 4.77 15.65 5.1a23.07 23.07 0 007.64-.78c2.52-.72 4.39-2.23 6.7-3.32a2.47 2.47 0 012.72 0c.92.79.73 2.24 1.25 3.25.93 1.79 3.14 2.36 5 2.63 12 1.75 24.66 1.07 36.56-.68q4.59-.67 9.12-1.64a56.39 56.39 0 019.11-1.6c6.27-.29 12.75 1 19 1.69 12.44 1.36 24.9 2.39 37.43 1.77s24.91-2.41 37.4-3.18a147.19 147.19 0 0118.29-.12c6.22.39 12.25 1.63 18.39 2.64 5.54.91 11.14 1.33 16.5-.64 4.7-1.73 8.78-4.79 12.53-8a55.26 55.26 0 009.42-9.75 43.42 43.42 0 005.43-11c2.84-8.42 3.67-17.41 4-26.24.29-8.62 0-17.25.11-25.87.1-5.44.72-11-.44-16.33-1.24-5.75-4-10.84-3.33-16.89.34-3 1.21-6 1.83-9a50.59 50.59 0 001-8.89 117.92 117.92 0 00-1.3-18c-1.55-12.21-2.08-24.48-2.91-36.76-.32-4.68.14-9.82-1.38-14.32-.81-2.39-2.37-3.8-3.89-5.72-.61-.78-1.54-1.91-.48-2.66.86-.61 2.26-.55 3.24-.91a4.72 4.72 0 003-3.83c.48-2.36.15-4.84.28-7.24.17-3 .39-6.07.57-9.1a111.44 111.44 0 00-.15-18.75 95.3 95.3 0 00-3.1-16.26c-1.52-5.12-4.77-8.82-8.9-12.07-2-1.6-4.18-3.07-6.26-4.62s-4-3.32-6.1-4.9c-4.59-3.36-9.92-3.68-15.37-3.64z"/><path class="cls-2" d="M456 240.84c-1.63 3.94-2.82 7.88-2.7 11.64.15 4.62 3 9.5 7.57 10.36 6.72 1.26 12-6.28 18.77-7.2 6-.83 11.75 3.8 17.83 3.32 5.08-.4 9.13-4.22 12.74-7.82 6.56-6.56 25-28.83 12-37.67-5.64-3.83-17.08 5.9-19-5.43-.51-3 .81-6.15.12-9.12-1-4.38-6-6.7-10.55-6.65-6.21.07-12 3.41-16.38 7.84-6.88 7-10.33 16.16-13.46 25.25-1.74 4.8-4.78 10.13-6.94 15.48zm224-127.4a15.51 15.51 0 00-14.93-15.72c-16-.88-27.42 12.41-36.71 23.39-3.94 4.66-7.75 9.91-8.32 16a6.74 6.74 0 00.53 3.81 5.68 5.68 0 005.32 2.6c6-.27 10-5.06 15-7.59 10.13-5.18 22.71-2.3 32.17-9.1a16.23 16.23 0 006.94-13.39z"/><path class="cls-3" d="M438.57 281.11a26.83 26.83 0 006.27 4.84c2.44 1.55 4.89 3.09 7.43 4.48 4.84 2.65 10.08 4.77 15.65 5.1a23.06 23.06 0 007.64-.77c2.52-.72 4.39-2.23 6.7-3.32a2.47 2.47 0 012.72 0c.92.79.73 2.24 1.25 3.25.93 1.79 3.14 2.36 5 2.63 12 1.75 24.66 1.07 36.56-.68q4.59-.67 9.12-1.64a56.39 56.39 0 019.11-1.6c6.27-.29 12.75 1 19 1.69 12.44 1.36 24.9 2.39 37.43 1.77s24.91-2.41 37.4-3.18a147.21 147.21 0 0118.29-.12c6.22.39 12.25 1.63 18.39 2.64 5.54.91 11.14 1.33 16.5-.64 4.7-1.73 8.78-4.79 12.52-8a55.25 55.25 0 009.42-9.75 43.42 43.42 0 005.43-11c2.84-8.42 3.67-17.41 4-26.24.29-8.62 0-17.25.11-25.87.1-5.44.72-11-.44-16.33-1.24-5.75-4-10.84-3.33-16.89.34-3 1.21-6 1.83-9a50.62 50.62 0 001-8.89 117.92 117.92 0 00-1.3-18c-1.55-12.21-2.08-24.48-2.91-36.76-.36-4.73.14-9.83-1.36-14.37-.81-2.39-2.37-3.8-3.89-5.72-.61-.78-1.54-1.91-.48-2.66.86-.61 2.26-.55 3.24-.91a4.72 4.72 0 003-3.83c.48-2.36.15-4.84.28-7.24.17-3 .39-6.07.57-9.1a111.44 111.44 0 00-.15-18.75A95.32 95.32 0 00717.42 30c-1.52-5.12-4.77-8.82-8.9-12.07-2-1.6-4.18-3.07-6.26-4.62-1.42-1-2.76-2.18-4.12-3.3a76.59 76.59 0 012.17 15.89 59.23 59.23 0 01-.75 10.6 17.76 17.76 0 00-.28 5.91 25.42 25.42 0 001.35 4.31c2.76 7.44 2.65 17.1-2 23.74-4.44 6.39-9 11.16-4.79 19.57 1.17 2.32 3 4.24 4.14 6.61 2.92 6.34-.48 14.07 1.74 20.69 1.45 4.32 5.15 7.68 6.19 12.11 1.12 4.79-1.08 9.63-2.55 14.32a49.88 49.88 0 00-2.19 18c.26 4.14 1 8.53-.85 12.25-1.56 3.14-4.77 5.32-5.88 8.64s.22 7.19 2.18 10.21c2.77 4.26 6.21 8 8.1 12.77 2 5 .61 8.47-.51 13.74-2.39 11.21 6.85 23.88.91 34.33-3 5.32-10 7.33-13.29 12.46-5.17 7.94-11.19 13.94-21.8 10.54-2.55-.82-5-2-7.69-2.27-4.19-.43-8.24 1.41-12.39 2.13-9 1.57-18.12-2.21-27.28-2.17-7.44 0-14.61 2.57-21.94 3.91a68.33 68.33 0 01-31.5-1.7c-8.44-2.5-17.56-6.63-25.59-3a58.07 58.07 0 01-5.31 2.62c-6.74 2.29-14-2.9-21-1.56a41.43 41.43 0 00-5.92 2c-10.35 3.68-18.62-1.31-28.7-1.13-8.37.15-16.38 5.47-24.86 6.09-7.26.54-14.61-1.37-21.6-4.73a14.16 14.16 0 002.32 4.22z"/><path class="cls-2" d="M685 250.33c12.64-14.07 13-40.84-2.46-52.2-5.64-4.13-12-8.63-13.3-15.51-1.91-10.37 8.92-19.07 9.65-29.59.16-2.24-.28-4.74-2-6.17a8 8 0 00-2.4-1.25 32.91 32.91 0 00-31 4.82c-8.61 6.7-13.9 17.76-24 21.86-9.92 4-21.55 0-31.74 3.3-11.21 3.6-17.9 14.9-22.71 25.65s-9.29 22.5-18.91 29.3c-3.44 2.43-7.4 4.1-10.63 6.81-7.52 6.3-9.17 19.33-1.9 25.92 9.71 8.8 41 7.17 52.65 2.71 7.77-3 14-9.75 22.29-10.9 10-1.4 18.73 6.28 28.12 8.63 12.58 3.15 25.64 2.55 37-4.25a49.16 49.16 0 0011.34-9.13z"/><path d="M435.74 275.75a15.2 15.2 0 002.83 5.35 26.83 26.83 0 006.27 4.84c2.44 1.55 4.89 3.09 7.43 4.48 4.84 2.65 10.08 4.77 15.65 5.1a23.06 23.06 0 007.64-.77c2.52-.72 4.39-2.23 6.7-3.32a2.47 2.47 0 012.72 0c.92.79.73 2.24 1.25 3.25.93 1.79 3.14 2.36 5 2.63 12 1.75 24.66 1.07 36.56-.68q4.59-.67 9.12-1.64a56.39 56.39 0 019.11-1.6c6.27-.29 12.75 1 19 1.69 12.44 1.36 24.9 2.39 37.43 1.77s24.91-2.41 37.4-3.18a147.21 147.21 0 0118.29-.12c6.22.39 12.25 1.63 18.39 2.64 5.54.91 11.14 1.33 16.5-.64 4.7-1.73 8.78-4.79 12.52-8a55.25 55.25 0 009.42-9.75 43.42 43.42 0 005.43-11c2.84-8.42 3.67-17.41 4-26.24.29-8.62 0-17.25.11-25.87.1-5.44.72-11-.44-16.33-1.24-5.75-4-10.84-3.33-16.89.34-3 1.21-6 1.83-9a50.62 50.62 0 001-8.89 117.92 117.92 0 00-1.3-18c-1.55-12.21-2.08-24.48-2.91-36.76-.32-4.68.14-9.82-1.38-14.32-.81-2.39-2.37-3.8-3.89-5.72-.61-.78-1.54-1.91-.48-2.66.86-.61 2.26-.55 3.24-.91a4.72 4.72 0 003-3.83c.48-2.36.15-4.84.28-7.24.17-3 .39-6.07.57-9.1a111.44 111.44 0 00-.15-18.75A95.32 95.32 0 00717.42 30c-1.52-5.12-4.77-8.82-8.9-12.07-.76-.6-1.54-1.17-2.32-1.74 1.3 5.44 2.47 10.93 3.84 16.4 3.8 15.1 2.92 29.89-4.5 43.63-1.3 2.4-3.89 3.71-5.09 6.35 0 .12-.08.23-.13.35a25.52 25.52 0 013.33 3.14c3.24 4.18 3.94 7.75 3.46 13a72.37 72.37 0 001.25 21.62c2.61 13 7.45 26.86 5.2 40.23-.93 5.5-4.12 10-5.64 15.21-2 6.85 1 13.58 2.11 20.34 1.25 7.46 2.74 15.54 2.91 23.45 1.16 17.23.67 39.85-9.15 53.17-9.2 12.48-26.45 10.61-40.65 9.48-9.11-.72-18.64-1.18-28.22-1.5-4.22 2.35-9.75 3.1-14.09 3.73a186.35 186.35 0 01-27.32 1.66 152.14 152.14 0 01-23.51-1.4c-10.87-1.74-21.27-5.55-32.44-4.64-7.25.59-14 3.46-21.13 4.46a54.89 54.89 0 01-17.6-.76 163 163 0 00-19.71-2.51c-11.5 10.55-27 1.42-39.57-4.25-1.37-.59-2.61-1.12-3.81-1.6z" style="isolation:isolate" fill="#c9c9b1" opacity=".8"/><path class="cls-5" d="M579.79 110.46a53.36 53.36 0 01-4.17 3.54 35.07 35.07 0 01-2.91 2.18 21.59 21.59 0 01-2.53 1.06 71.38 71.38 0 01-13.81 4.56 70.12 70.12 0 01-13 1.61 6.64 6.64 0 00-2.66.43 5.61 5.61 0 00-1.73 1.44c-3.33 3.77-5.33 6.56-10 9-10.07 5.24-20.3 18.64-32.92 16.47-2.84-.49-6.06-2.75-8.4-4.4 1.19.84 7.52.4 9.23.46 3.57.13 6-1.15 9.06-3.15L522.21 133c6.34-4.17 12.85-8.49 17.15-14.74a1.68 1.68 0 01.6-.62 1.77 1.77 0 011.48.27c7.25 3.59 15.85.06 23.14-3.45 3.93-1.89 7.85-3.75 11.62-5.91 1.89-1.08 9.29-7.5 11.72-8.62-1.07 1.56-2.73 4.12-3.55 5.32a30.56 30.56 0 01-3.32 4z"/><path class="cls-6" d="M539.42 121.5c4-.27 8.07.83 12 0 9.1-1.89 17.51-5.92 25.47-10.62 2.81-1.66 5.08-4 7.75-5.95a39.39 39.39 0 01-3.43 5.25 17.66 17.66 0 01-3.77 4.05c-3.83 2.63-8.23 3.74-12.3 5.82-3.47 1.77-5.74 3.32-9.85 3.71-5.57.53-12.15-2-15.88 3.39-1.22 1.77-2.11 3.81-3.64 5.33s-3.87 2.52-6 3.44c-8.89 3.87-16 11.08-24.77 14.69-6.42 2.63-12.66.84-17.6-3.72-.33-.3-.68-.71-.56-1.14 4.19 2.07 9 3.75 13.75 3.63a9.69 9.69 0 005.49-2c11.47-7.82 25.07-14.67 33.34-25.88z"/><path class="cls-7" d="M708.72 65.58a31.6 31.6 0 01-3.08 4.66c-1.93 2.57-6.19 5.79-3.06 8.54 1.64 1.44 5.47.43 7-.64 10.93-7.4 6.87-31.65 2.24-41.25-.48-1-1.72-2.11-2.48-1.3-1.64 1.75 1.33 13.26 1.48 15.81.31 4.71.09 9.82-2.1 14.18z"/><path class="cls-8" d="M706.2 77a1.74 1.74 0 01-1.44-1.43 3.68 3.68 0 01.58-2.58c1.14-2.08 2.81-3.82 4-5.85a21.16 21.16 0 002.66-8.66 38.5 38.5 0 00.45-6.39 47.93 47.93 0 00-.74-5.44c-.16-1-.32-1.93-.42-2.91-.06-.6-.41-1.64.45-1.27 1.09.47 1.56 3.54 1.85 4.56a42.17 42.17 0 011.19 5.64 34.15 34.15 0 01.16 8.52 33.18 33.18 0 01-1.76 8.06c-.86 2.26-1.69 4.65-3.46 6.4A4.73 4.73 0 01706.2 77z"/><path class="cls-7" d="M717.42 158c.43-14-4.39-28.37-6.72-41.87-1.3-7.56 1.35-16.71-2-23.77-.42-.89-1.28-1.85-2.21-1.52-1 2.39-.5 5.13-.31 7.74.51 6.94-1.29 13.76-.5 20.71 1.77 15.58 8.54 31.05 2.38 46.54a26 26 0 00-1.54 4.35 6 6 0 00.62 4.46 3.45 3.45 0 004 1.47 5.16 5.16 0 002.39-2.83 40.64 40.64 0 003.89-15.28z"/><path class="cls-8" d="M715.92 158.74c0-4.6-.07-9.89-1.28-14.31l-4.34-15.91a6.44 6.44 0 00-.51-1.42c-1 5.86.78 11.72 2.2 17.36A33.43 33.43 0 01709.7 167c-1.14 2.35-1.06 6.09 2.57 4.18 2.75-1.45 3.28-6.88 3.52-9.58.08-.96.13-1.91.13-2.86z"/><path class="cls-3" d="M581.52 218.22a2.23 2.23 0 00-2.05-2.39h-.15c-7.3-1.23-24.54 12.66-13.14 15.27 6.82 1.57 16-5.98 15.34-12.88zm83.25-177.57a3.41 3.41 0 001.54-1.27 2.43 2.43 0 00.15-1.56c-1.06-6.67-20.2-15.64-19.23-5 .58 6.51 10.91 11.18 17.54 7.83z"/><path class="cls-9" d="M464.63 155.15a11.25 11.25 0 011.15.42 7.93 7.93 0 015.22 7.73c.13 4.41-5.44 6.67-9.31 5.7a44.36 44.36 0 01-6-1.94c-3.14-1.28-6.46-3.78-5.6-7.73a5.92 5.92 0 013.24-3.85 12.16 12.16 0 015.06-1.07 18.76 18.76 0 016.24.74z"/><ellipse class="cls-10" cx="461.7" cy="162.82" rx="6.55" ry="9.78" transform="rotate(-78.29 461.707 162.818)"/><path class="cls-11" d="M464 166.21c-3.51 1.89-8.72 0-11.7-3.18.77 2.78 3.92 5.33 8.12 6.2 5.29 1.1 10.17-.89 10.91-4.43.63-3-2-6.21-6.08-7.75 1.99 3.16 2.51 7.1-1.25 9.16z"/><path class="cls-9" d="M665.78 186.33h1.52a11.39 11.39 0 014.25.8c3.19 1.51 3.84 4.9 1.91 7.67-3.38 4.85-16.15 7.2-17.46-1-.39-2.45 1.54-4.69 3.65-6a11.28 11.28 0 016.13-1.47z"/><ellipse class="cls-10" cx="666.15" cy="193.63" rx="9.12" ry="6.11" transform="rotate(-11.38 666.159 193.632)"/><path class="cls-11" d="M663.33 196.53a6.87 6.87 0 01-5.22-4.79 4.85 4.85 0 00-.92 3.75c.67 3.31 5.21 5.18 10.15 4.19s8.41-4.48 7.74-7.79a4.22 4.22 0 00-.59-1.4 9.59 9.59 0 01-11.16 6.04z"/><path class="cls-9" d="M552.86 249.16c2.87-.24 5 1.71 6.69 3.84 2 2.5.71 7.46-2.92 7.43-2.37 0-4.56-2.08-5.84-3.89a6.14 6.14 0 01-1.2-4.62 3.26 3.26 0 011.63-2.35 3.72 3.72 0 01.94-.31 6.16 6.16 0 01.7-.1z"/><ellipse class="cls-10" cx="556" cy="255.45" rx="4.21" ry="6.28" transform="rotate(-41.65 556.002 255.45)"/><path class="cls-11" d="M559.93 254.59a4.45 4.45 0 01-5.82 3.64 7.27 7.27 0 01-2.08-1.07 9.28 9.28 0 00.82 1.08c2.3 2.59 5.58 3.44 7.32 1.9 1.49-1.33 1.35-4-.18-6.36a7.15 7.15 0 01-.06.81z"/><ellipse class="cls-12" cx="660.3" cy="242.93" rx="6.97" ry="4.67" transform="rotate(-23.92 660.298 242.937)"/><ellipse class="cls-12" cx="504.8" cy="234.44" rx="4.19" ry="2.81" transform="rotate(-87.22 504.796 234.439)"/><ellipse class="cls-12" cx="478.38" cy="84.35" rx="9.64" ry="6.45" transform="rotate(-44.9 478.387 84.345)"/><ellipse class="cls-13" cx="507.72" cy="98.89" rx="4.9" ry="3.49" transform="rotate(-67.48 507.72 98.891)"/><ellipse class="cls-13" cx="589.97" cy="74.76" rx="4.19" ry="2.81" transform="rotate(-80.96 589.967 74.757)"/><ellipse class="cls-13" cx="612.23" cy="156.62" rx="4.19" ry="2.81" transform="rotate(-29.26 612.239 156.627)"/><path class="cls-9" d="M569.63 47.48a9.94 9.94 0 018.39-1.6 1.65 1.65 0 011.2.92c.31 1-.5 2.09-.9 3a11.21 11.21 0 01-4.32 4.34 17.16 17.16 0 01-3.77 1.65 11.47 11.47 0 01-3.67.89c-2.1-.12-2.42-2-1.63-3.63a13.62 13.62 0 014.7-5.57z"/><ellipse class="cls-14" cx="571.42" cy="51.99" rx="8.16" ry="3.49" transform="rotate(-33.01 571.415 51.984)"/><path class="cls-15" d="M568.51 54.33c-2.21.22-3.16-.45-2.94-1.75-1.14 1.51-1.59 2.93-1 3.83 1 1.61 5 .93 8.74-1.52a15 15 0 004.32-4.11c-.63.55-6 3.22-9.12 3.55z"/><path class="cls-9" d="M600.8 197.62a5.35 5.35 0 012.29-3.43 5.29 5.29 0 014.14-.77 3.43 3.43 0 011.7 1.31c1.37 2.09 1.86 4.32 1.12 6.12a7.68 7.68 0 01-1.7 2.4 6.4 6.4 0 01-2.23 1.84c-3.46 1.2-4.73-3.13-5.16-4.66a6.08 6.08 0 01-.16-2.81z"/><path class="cls-14" d="M602.38 198.86c1.06-3 3.65-4.73 5.78-4s3 3.79 1.94 6.74-3.66 4.73-5.78 4-3.01-3.78-1.94-6.74z"/><path class="cls-15" d="M605.82 202.86c-1.6.89-2.89.74-3.76-.23a3.77 3.77 0 002.25 3c2.13.77 4.72-1 5.78-4a6.89 6.89 0 00.19-4.29 12.79 12.79 0 01-4.46 5.52z"/><path class="cls-5" d="M637.57 114.38a37.8 37.8 0 00-1.44-7.81c-.36-1.46-.91-2.86-1.37-4.29a65.94 65.94 0 01-2.14-9.43c-.38-2.27-2.34-4.06-4.4-5-1.77-.82-3.17-2.38-4.65-3.69.47.41.91 2 1.37 2.65 1.22 1.65 2.66 3.15 4 4.71a4 4 0 01.47.63 4.14 4.14 0 01.38 1.19c1 4.5 2.49 8.87 3.58 13.34a35.89 35.89 0 001 3.5c.32.9.71 1.77 1 2.66a26.29 26.29 0 011.55 6.3 13.94 13.94 0 00.65-4.76zm1.13-49.75a15 15 0 01.48 3.94 15 15 0 01-.75 3.46c-1.53 5.09-3.08 10.22-5.58 14.91a1 1 0 01-1.23.7l-.14-.05a15.75 15.75 0 01-3.77-1.48 13.9 13.9 0 01-1.73-.92c-.16-.12-1-1.14-1-1.15l3 .61a6.4 6.4 0 002.41.18c1.7-.31 2-1.74 2.43-3.21l2.83-10a34.46 34.46 0 001.33-6 34.42 34.42 0 00.08-3.93 38.33 38.33 0 010-4.12c1.03 1.92 1.23 4.89 1.64 7.06z"/><path class="cls-6" d="M628.69 89.17A14.8 14.8 0 01633 97.4c1.66 7.72 3.87 15.23 3.88 23.22a26.14 26.14 0 001.21-11.89 48.1 48.1 0 00-2-10.18c-1-2.81-2-5.21-1.63-8.33.86-6.85 4.81-13 5.89-19.78a23.13 23.13 0 00-.53-9.59 22.7 22.7 0 00-1.67-4.36c-.54-1.06-2.13-2.59-2.35-3.67q1.14 5.4 2 10.85c1 5.85-1 10.14-2.76 15.64-.25.77-.46 1.62-.66 2.49-.5 2.1-1 4.33-2.17 5.87a37.91 37.91 0 01-9.51-5c.93 3.05 3.8 4.49 5.99 6.5z"/><path class="cls-5" d="M505.41 81.73a24.71 24.71 0 00.82-6.9c.07-1.72-.07-3.44-.12-5.16-.09-3.4-.13-7 1.09-10.23s4-4.5 7.12-5.91a43.89 43.89 0 0110.2-3.2c1.91-.35 3.81-.73 5.69-1.24s3.49-1.48 5.28-1.77c-8.42-.85-16.56 2.16-24.89 2.77a5.71 5.71 0 01-4.35-1.09 35.52 35.52 0 01-4.76-3.48 8.12 8.12 0 01-1.77-1.93 13.94 13.94 0 00-1.21-2.39l.39 4.44a20.82 20.82 0 00.57 3.79 20.82 20.82 0 001.12 2.88c1.17 2.63 2.26 4.89 2.58 7.75.4 3.59.38 7.22.5 10.82a54 54 0 01-.54 11.25 57.46 57.46 0 01-2.62 8.87 26 26 0 004.9-9.27z"/><path class="cls-6" d="M503.7 53.23c2.23 3.7 2.46 7 2 11.17-.64 6.13.26 13.11-.93 19.21a23.65 23.65 0 001.68-4.33 32 32 0 00.85-6.15c.08-2.51-.17-5 .09-7.47.55-5.27 1.37-7.87 6.13-10.39 7.17-3.8 15.65-4.18 22.75-8.17q-10.94 1.83-21.75 4.4c-1.6.38-3.61 1.28-5.25 1.29-2.23 0-1.37 0-3-1.43a30 30 0 01-7.79-11 57.6 57.6 0 002 7.57 17.9 17.9 0 001.32 2.58c.2.28 1.62 2.72 1.9 2.72z"/><path class="cls-5" d="M542 205.22a5.33 5.33 0 00-.91-2.69 6.2 6.2 0 00-1.84-1.35 33.65 33.65 0 01-7.48-5.83 4.39 4.39 0 01-1-1.41 4.69 4.69 0 01-.21-1.69v-10.82c-.48 2.1-1.34 4-1.91 6.08a48.21 48.21 0 00-1.34 6.91 6.17 6.17 0 000 1.82 5.59 5.59 0 002.7 3.56 61.15 61.15 0 017.49 5.21 8.87 8.87 0 013.47 7.05 54 54 0 00.44 7.77 38.83 38.83 0 00.59-14.61z"/><path class="cls-6" d="M524.71 197.57a2.13 2.13 0 001.11 1.15c3.28 2.62 7.53 3.71 10.81 6.35 2.1 1.69 3 2.35 3.36 5s.94 5.24 1.15 7.85a35 35 0 00-1.11-13 1.53 1.53 0 00-.76-1.08c-1-.7-2.2-1.15-3.2-1.86-2.62-1.87-7.7-4.72-7.4-8a71.08 71.08 0 011.41-8.93c.28-1.29.69-2.57 1-3.85l-1.58.81q-2.58 7.14-4.65 14.46a2.1 2.1 0 00-.14 1.1z"/><path class="cls-5" d="M447.7 124.47c1.23-.71 11.65-12.77 12.88-14.18 3-3.47 5.81-7.14 8.75-10.69-2.62 8.74-7.89 18-14.64 24.16-1.46 1.34-2.91 3.27-4.6 4.3a4.57 4.57 0 01-2.78.54 19.76 19.76 0 01-4-.86c-.71-.23-2.62-2.21-3.13-2.12 2.03-.43 7.21-.98 7.52-1.15z"/><path class="cls-6" d="M443.8 130.68a33.24 33.24 0 01-2.87-2.8 12.51 12.51 0 01-2.56-3.42c2.91.62 5.72 2.94 8.73 3 1.51 0 2.64-1.68 3.68-2.74s2.32-2.42 3.45-3.66a111.27 111.27 0 0016.58-24.3c-2.92 13.57-11.42 24.21-21.25 33.57-.56.53-1.62 2-2.36 2.16s-1.67-.57-2.25-1a13.93 13.93 0 01-1.15-.81z"/><path class="cls-5" d="M626.63 258.17c1.56-1.51 5.71-6.74 7.06-8.5a46.79 46.79 0 003.72-5.86c1.12-2 2.25-4.09 3.22-6.21s1.44-4 2.24-6a35 35 0 001.52-5c.19-.8.37-1.61.56-2.43a8.78 8.78 0 01-1.39 2.34c-.77 1.17-1.7 2.25-2.54 3.37a47.85 47.85 0 00-3.4 5l-3 5.34c-1.3 2.28-2.35 4.69-3.57 7a102.21 102.21 0 00-4.42 10.95z"/><path class="cls-6" d="M645.63 222.25c-1.9 4-2.66 8.71-4.58 12.84-3.52 7.57-9 13.54-12.49 21a56.24 56.24 0 0013-14.83c3.25-5.75 5.07-12.48 4.07-19.01z"/><path class="cls-5" d="M653.22 154.33c1.73 1.12 7.4 3.83 9.3 4.69a42.5 42.5 0 006.12 2.15c2.09.58 4.18 1.17 6.3 1.58s3.92.42 5.88.7a30.43 30.43 0 004.85.25H688a7.93 7.93 0 01-2.42-.77c-1.22-.46-2.42-1.08-3.62-1.61a43.73 43.73 0 00-5.26-2l-5.53-1.64c-2.34-.69-4.74-1.12-7.1-1.73a89.69 89.69 0 00-10.85-1.62z"/><path class="cls-6" d="M689.76 163.83c-4-.87-8.36-.47-12.5-1.31-7.58-1.55-14.23-5.32-21.7-6.89a53.35 53.35 0 0016.38 8.78c5.89 1.78 12.29 1.84 17.82-.58z"/><path class="cls-5" d="M685.53 95.74a28.4 28.4 0 004.1-2.41l10.2-6.93a7.43 7.43 0 013.79-1.64 8.62 8.62 0 013.46 1 34.85 34.85 0 006.21 2.06c-.32-.58-.42-1.19.23-1.65.86-.61 2.26-.55 3.24-.91a4.13 4.13 0 001.57-1.06c-4.49-1.49-8.33-3-13.4-3.37a26.81 26.81 0 00-4.93-.13c-3.15.37-4.87 2.79-7.06 4.77l-8.74 7.9c-1.47 1.33-4.25 2-6.17 2.22a66.76 66.76 0 01-8.88.6c4.92 2.14 11.48 1.81 16.38-.45z"/><path class="cls-6" d="M680.12 96.56a23.08 23.08 0 00-5.3 1q2 .19 4 .23h3.26c3.28-.12 5.08-2.36 7.74-4q4.72-3 9.66-5.61c3.1-1.65 6.73-.68 9.89.15a15.42 15.42 0 017.49 4.23 43.46 43.46 0 00-2.9-3.71c-.6-.75-1.47-1.84-.55-2.59-2.27-.89-4.78-.84-7.11-1.52-1.88-.55-3.61-.49-5.48-.91a2.78 2.78 0 00-1.52-.05c-3 1.07-4.69 4-7.22 5.72-3.69 2.5-7.34 6.43-11.96 7.06z"/><path class="cls-5" d="M691.55 187.06q-1.25 1.17-2.43 2.42-.59.62-1.16 1.27c-.22.25-.63 1-.93 1.08a26.09 26.09 0 007.28-4.33c2.2-1.85 5.22-3 7.8-4.25 2.79-1.36 5.79-2.77 8.86-2.33s5.55 2.6 8.47 3.57a7.16 7.16 0 001.19.28 17.47 17.47 0 010-3.41c.06-.52.15-1 .24-1.55a54.58 54.58 0 00-9.25-3.05 10.86 10.86 0 00-4.07-.36 12 12 0 00-4.13 1.77c-2.53 1.49-5.06 3-7.43 4.73a48.23 48.23 0 00-4.44 4.16z"/><path class="cls-6" d="M698.46 187.12c3-1.19 6.62-3.28 9.83-3.73 5.28-.74 10.55 3.37 13.3 7.45.18.27.34.56.51.83a28.66 28.66 0 01-1.55-8.36q-.93-.5-1.89-.93a59.28 59.28 0 00-8-2.91l-.86-.24a6 6 0 00-2.31-.29 6.35 6.35 0 00-2.2.88 138 138 0 00-16.23 11.06q4.69-1.88 9.4-3.76z"/><path class="cls-5" d="M548.32 27.1a15.88 15.88 0 00.06-5.87c-1.15-2.67-5.55-6.7-6.45-7.31-.2 3 1 5.65 1.37 8.6a61.41 61.41 0 01.44 9.67c-.14 4.24-1.55 8.43-1.4 12.67 1.12-2.53 5.49-15.31 5.98-17.76z"/><path class="cls-6" d="M537.47 9.93l2.68 7.67a43.32 43.32 0 012 7 38.3 38.3 0 01.4 6.48c0 5.14-.26 10.27-.51 15.41q2-7.69 3.43-15.49c.62-3.31.91-6.24-.24-9.46l-.33-.93-3-8.2c-1.59.22-3.18-1.54-4.32-2.36z"/><path class="cls-7" d="M707.41 192.17c.58 2.45 1.51 4.85 2.17 7.3 3.13 11.66 3.4 23.71 2.09 35.62a10 10 0 015-1.44 9.59 9.59 0 014.12.92v-1.24c-.12-8.59-.33-17.25-2-25.71-.61-3.1-6.12-23.87-10.91-21.74-.9.4-1.1 1.58-1.06 2.57a18.71 18.71 0 00.59 3.72zm-238.03 92.08a32.28 32.28 0 01-15.54-.53 3.07 3.07 0 001 3.7 9 9 0 003.8 1.56l6.16 1.48a16.62 16.62 0 006.79.66c7.04-1.29 4.41-8.29-2.21-6.87z"/><path class="cls-5" d="M610.16 287.14a77.23 77.23 0 0010.77 8.19l1-.09q-1.62-3.72-3.23-7.45c-3.56-3.15-7-6.45-10.36-9.79-4.73-4.68-8.54-9.89-12.77-15 2.57 8.71 7.84 18 14.59 24.14z"/><path class="cls-6" d="M615.17 293.6c.73.69 1.46 1.39 2.22 2l4.49-.44-.12-.27a84.14 84.14 0 01-11.26-10.61A111.27 111.27 0 01593.92 260c2.93 13.55 11.42 24.23 21.25 33.6z"/><path class="cls-5" d="M680.63 293a79.11 79.11 0 005.85-6 34.14 34.14 0 003.13-4.16 51.54 51.54 0 002.74-4.44c.83-1.52 1.27-2.9 2-4.33a24.44 24.44 0 001.37-3.65c.18-.58.35-1.17.52-1.76a6.37 6.37 0 01-1.18 1.66c-.65.83-1.41 1.59-2.11 2.38a35.13 35.13 0 00-2.85 3.53l-2.6 3.77c-1.1 1.63-2 3.36-3 5a72.06 72.06 0 00-3.87 8z"/><path class="cls-6" d="M696.79 267.33c-1.63 2.84-2.39 6.29-4 9.25-3 5.43-7.53 9.61-10.55 15A42.36 42.36 0 00693 281.12a21.09 21.09 0 003.79-13.79z"/><path class="cls-5" d="M488.24 257.83a41.87 41.87 0 00-7.82 12.5 27.31 27.31 0 00-1.79 11.34 11.72 11.72 0 001.22 4.72l2.6 5a2.35 2.35 0 012.57 0c.92.79.73 2.24 1.25 3.25.93 1.79 3.14 2.36 5 2.63l1.34.16a44.89 44.89 0 00-4.93-7.81c-.79-1.09-1.57-2.18-2.29-3.32-3.39-5.35-3.74-9.82-1.53-15.56 1.6-4.27 3.06-8.51 4.38-12.91z"/><path class="cls-6" d="M486.63 259.79a74.83 74.83 0 00-7.09 8.38 23 23 0 00-3.67 10 14.16 14.16 0 00-.17 2.27c.08 3.13 2 5.42 3.24 8.09.46 1 1 2.35 1.7 3.72.53-.3 1.07-.6 1.64-.86a2.58 2.58 0 012.56-.12 24.29 24.29 0 00-2.41-4.91l-.45-.72c-1.18-1.87-2.71-4.28-2.92-6.3a10 10 0 01.68-4.06 81.32 81.32 0 016.89-15.49z"/><path class="cls-8" d="M714 207.58c.52 4.77.61 9.58.66 14.37a109.48 109.48 0 01-.52 12.08 9.35 9.35 0 012.59-.39 9.92 9.92 0 011.63.14 84.24 84.24 0 00-1.3-22.29 114.78 114.78 0 00-4.1-15.91c-.27-.76-.73-1.66-1.53-1.64-.23 2.19.78 4 1.35 6a47 47 0 011.22 7.64zm-250.16 78.33c-.64.09-1.44.33-1.51 1s.64 1.07 1.26 1.28c1.5.49 7.77 2 8.42-.35.9-3.27-6.89-2.1-8.17-1.93z"/><path class="cls-1" d="M484.69 4.77c-4 0-8 .27-12-.51s-7.87-2-11.83-2.91A46.52 46.52 0 00449.39 0c-4.26.12-8.35 1.3-12.51 2.09-8.3 1.57-17 1.41-25.39 1.55q-13.26.22-26.51-.11c-4.83-.12-9.49-.65-14.29-1.19s-9.8-1-14.57-.13a11.82 11.82 0 00-5.35 2.22c-1.77 1.49-2.13 3.45-2.84 5.57-.33 1-.8 2.1-1.9 2.38-1.65.42-3.34-1.49-4.53-2.34a57.33 57.33 0 00-10-5.81c-3.13-1.43-7.5-3.76-10.87-1.69a28 28 0 00-3.35 3.07 10.22 10.22 0 01-4.65 2.28c-3.31.72-6.77.19-10.08-.24a112.85 112.85 0 00-12.75-.94 178.34 178.34 0 00-25.17 1.62q-3.22.4-6.42.87c-1.69.24-3.58.42-5 1.48-2.67 2-2.26 5.94-3.27 8.78-2.19 6.2-8 10.13-11.51 15.5-3.8 5.84-4.8 12.86-4.67 19.72.18 7.22 1.58 14.33 2.69 21.45a200.54 200.54 0 012.18 25.12c.51 17.22.37 34.59-.38 51.79a236.28 236.28 0 01-2.25 24.68 36.32 36.32 0 00-.39 10.61c.58 4.05 1.88 8 2.54 12a27.82 27.82 0 01-.33 12.23c-1.56 5.41-5.08 10-5.73 15.69-.69 6.15.9 12.38 2 18.39l3.53 19c1 5.11 1.3 11.34 4.82 15.46a26.83 26.83 0 006.27 4.84c2.44 1.55 4.89 3.09 7.43 4.48 4.84 2.65 10.08 4.77 15.65 5.1a23.07 23.07 0 007.64-.78c2.52-.72 4.39-2.23 6.7-3.32a2.47 2.47 0 012.72 0c.92.79.73 2.24 1.25 3.25.93 1.79 3.14 2.36 5 2.63 12 1.75 24.66 1.07 36.56-.68q4.59-.67 9.12-1.64a56.39 56.39 0 019.11-1.6c6.27-.29 12.75 1 19 1.69 12.44 1.36 24.9 2.39 37.43 1.77s24.91-2.41 37.4-3.18a147.19 147.19 0 0118.29-.12c6.22.39 12.25 1.63 18.39 2.64 5.54.91 11.14 1.33 16.5-.64 4.7-1.73 8.78-4.79 12.53-8a55.26 55.26 0 009.42-9.75 43.42 43.42 0 005.43-11c2.84-8.42 3.67-17.41 4-26.24.29-8.62 0-17.25.11-25.87.1-5.44.72-11-.44-16.33-1.24-5.75-4-10.84-3.33-16.89.34-3 1.21-6 1.83-9a50.59 50.59 0 001-8.89 117.92 117.92 0 00-1.3-18c-1.55-12.21-2.08-24.48-2.91-36.76-.32-4.68.14-9.82-1.38-14.32-.81-2.39-2.37-3.8-3.89-5.72-.61-.78-1.54-1.91-.48-2.66.86-.61 2.26-.55 3.24-.91a4.72 4.72 0 002.88-3.82c.48-2.36.15-4.84.28-7.24.17-3 .39-6.07.57-9.1a111.44 111.44 0 00-.15-18.75A95.3 95.3 0 00521.25 30c-1.52-5.12-4.77-8.82-8.9-12.07-2-1.6-4.18-3.07-6.26-4.62s-4-3.32-6.1-4.9c-4.51-3.36-9.85-3.68-15.3-3.64z"/><path class="cls-2" d="M483.92 113.44A15.51 15.51 0 00469 97.72c-16-.88-27.42 12.41-36.71 23.39-3.94 4.66-7.75 9.91-8.32 16a6.74 6.74 0 00.53 3.81 5.68 5.68 0 005.32 2.6c6-.27 10-5.06 15-7.59 10.13-5.18 22.71-2.3 32.17-9.1a16.23 16.23 0 006.93-13.39z"/><path class="cls-5" d="M383.69 110.46a53.35 53.35 0 01-4.17 3.54 35.06 35.06 0 01-2.91 2.18 21.59 21.59 0 01-2.53 1.06 71.38 71.38 0 01-13.81 4.56 70.12 70.12 0 01-13 1.61 6.64 6.64 0 00-2.66.43 5.61 5.61 0 00-1.73 1.44c-3.33 3.77-5.33 6.56-10 9-10.07 5.24-20.3 18.64-32.92 16.47-2.84-.49-6.06-2.75-8.4-4.4 1.19.84 7.52.4 9.23.46 3.57.13 6-1.15 9.06-3.15L326.11 133c6.34-4.17 12.85-8.49 17.15-14.74a1.68 1.68 0 01.6-.62 1.77 1.77 0 011.48.27c7.25 3.59 15.85.06 23.14-3.45 3.93-1.89 7.85-3.75 11.62-5.91 1.89-1.08 9.29-7.5 11.72-8.62-1.07 1.56-2.73 4.12-3.55 5.32a30.56 30.56 0 01-3.32 4z"/><path class="cls-6" d="M343.33 121.5c4-.27 8.07.83 12 0 9.1-1.89 17.51-5.92 25.47-10.62 2.81-1.66 5.08-4 7.75-5.95a39.39 39.39 0 01-3.43 5.25 17.66 17.66 0 01-3.77 4.05c-3.83 2.63-8.23 3.74-12.3 5.82-3.47 1.77-5.74 3.32-9.85 3.71-5.57.53-12.15-2-15.88 3.39-1.22 1.77-2.11 3.81-3.64 5.33s-3.87 2.52-6 3.44c-8.89 3.87-16 11.08-24.77 14.69-6.42 2.63-12.66.84-17.6-3.72-.33-.3-.68-.71-.56-1.14 4.19 2.07 9 3.75 13.75 3.63a9.69 9.69 0 005.49-2c11.46-7.82 25.06-14.67 33.34-25.88z"/><path class="cls-3" d="M385.42 218.22a2.23 2.23 0 00-2.05-2.39h-.15c-7.3-1.23-24.54 12.66-13.14 15.27 6.85 1.57 16.01-5.98 15.34-12.88zm83.21-177.57a3.41 3.41 0 001.54-1.27 2.43 2.43 0 00.15-1.56c-1.06-6.67-20.2-15.64-19.23-5 .62 6.51 10.91 11.18 17.54 7.83z"/><path class="cls-9" d="M268.49 155.15a11.25 11.25 0 011.15.42 7.93 7.93 0 015.24 7.73c.13 4.41-5.44 6.67-9.31 5.7a44.36 44.36 0 01-6-1.94c-3.14-1.28-6.46-3.78-5.6-7.73a5.92 5.92 0 013.24-3.85 12.16 12.16 0 015.06-1.07 18.76 18.76 0 016.22.74z"/><ellipse class="cls-10" cx="265.6" cy="162.82" rx="6.55" ry="9.78" transform="rotate(-78.29 265.606 162.817)"/><path class="cls-11" d="M267.85 166.21c-3.51 1.89-8.72 0-11.7-3.18.77 2.78 3.92 5.33 8.12 6.2 5.29 1.1 10.17-.89 10.91-4.43.63-3-2-6.21-6.08-7.75 2.04 3.16 2.53 7.1-1.25 9.16z"/><path class="cls-9" d="M469.69 186.33h1.52a11.39 11.39 0 014.25.8c3.19 1.51 3.84 4.9 1.91 7.67-3.38 4.85-16.15 7.2-17.46-1-.39-2.45 1.54-4.69 3.65-6a11.28 11.28 0 016.13-1.47z"/><ellipse class="cls-10" cx="470.05" cy="193.65" rx="9.12" ry="6.11" transform="rotate(-11.38 470.074 193.658)"/><path class="cls-11" d="M467.24 196.53a6.87 6.87 0 01-5.22-4.79 4.85 4.85 0 00-.92 3.75c.67 3.31 5.21 5.18 10.15 4.19s8.41-4.48 7.74-7.79a4.22 4.22 0 00-.59-1.4 9.59 9.59 0 01-11.16 6.04z"/><path class="cls-9" d="M356.76 249.16c2.87-.24 5 1.71 6.69 3.84 2 2.5.71 7.46-2.92 7.43-2.37 0-4.56-2.08-5.84-3.89a6.14 6.14 0 01-1.2-4.62 3.26 3.26 0 011.63-2.35 3.72 3.72 0 01.94-.31 6.16 6.16 0 01.7-.1z"/><ellipse class="cls-10" cx="359.91" cy="255.45" rx="4.21" ry="6.28" transform="rotate(-41.65 359.907 255.452)"/><path class="cls-11" d="M363.83 254.59a4.45 4.45 0 01-5.82 3.64 7.27 7.27 0 01-2.08-1.07 9.28 9.28 0 00.82 1.08c2.3 2.59 5.58 3.44 7.32 1.9 1.49-1.33 1.35-4-.18-6.36a7.14 7.14 0 01-.06.81z"/><ellipse class="cls-12" cx="464.21" cy="242.93" rx="6.97" ry="4.67" transform="rotate(-23.92 464.2 242.931)"/><ellipse class="cls-12" cx="308.71" cy="234.44" rx="4.19" ry="2.81" transform="rotate(-87.22 308.705 234.439)"/><ellipse class="cls-12" cx="282.29" cy="84.36" rx="9.64" ry="6.45" transform="rotate(-44.9 282.281 84.364)"/><ellipse class="cls-13" cx="311.62" cy="98.9" rx="4.9" ry="3.49" transform="rotate(-67.48 311.622 98.9)"/><ellipse class="cls-13" cx="393.86" cy="74.76" rx="4.19" ry="2.81" transform="rotate(-80.96 393.863 74.767)"/><ellipse class="cls-13" cx="416.12" cy="156.62" rx="4.19" ry="2.81" transform="rotate(-29.26 416.117 156.62)"/><path class="cls-9" d="M373.53 47.48a9.94 9.94 0 018.39-1.6 1.65 1.65 0 011.2.92c.31 1-.5 2.09-.9 3a11.21 11.21 0 01-4.29 4.34 17.16 17.16 0 01-3.77 1.65 11.47 11.47 0 01-3.67.89c-2.1-.12-2.42-2-1.63-3.63a13.62 13.62 0 014.67-5.57z"/><ellipse class="cls-14" cx="375.31" cy="51.98" rx="8.16" ry="3.49" transform="rotate(-33.01 375.317 51.993)"/><path class="cls-15" d="M372.41 54.33c-2.21.22-3.16-.45-2.94-1.75-1.14 1.51-1.59 2.93-1 3.83 1 1.61 5 .93 8.74-1.52a15 15 0 004.34-4.11c-.64.55-6.05 3.22-9.14 3.55z"/><path class="cls-9" d="M404.7 197.62a5.35 5.35 0 012.29-3.43 5.29 5.29 0 014.14-.77 3.43 3.43 0 011.7 1.31c1.37 2.09 1.86 4.32 1.12 6.12a7.68 7.68 0 01-1.7 2.4 6.4 6.4 0 01-2.23 1.84c-3.46 1.2-4.73-3.13-5.16-4.66a6.08 6.08 0 01-.16-2.81z"/><path class="cls-14" d="M406.28 198.86c1.06-3 3.65-4.73 5.78-4s3 3.79 1.94 6.74-3.66 4.73-5.78 4-3-3.78-1.94-6.74z"/><path class="cls-15" d="M409.73 202.86c-1.6.89-2.89.74-3.76-.23a3.77 3.77 0 002.25 3c2.13.77 4.72-1 5.78-4a6.89 6.89 0 00.19-4.29 12.79 12.79 0 01-4.46 5.52z"/><path class="cls-5" d="M441.47 114.38a37.8 37.8 0 00-1.44-7.81c-.36-1.46-.91-2.86-1.37-4.29a65.94 65.94 0 01-2.14-9.43c-.38-2.27-2.34-4.06-4.4-5-1.77-.82-3.17-2.38-4.65-3.69.47.41.91 2 1.37 2.65 1.22 1.65 2.66 3.15 4 4.71a4 4 0 01.47.63 4.14 4.14 0 01.38 1.19c1 4.5 2.49 8.87 3.58 13.34a35.88 35.88 0 001 3.5c.32.9.71 1.77 1 2.66a26.29 26.29 0 011.55 6.3 13.94 13.94 0 00.65-4.76zm1.16-49.75a15 15 0 01.48 3.94 15 15 0 01-.75 3.46c-1.53 5.09-3.08 10.22-5.58 14.91a1 1 0 01-1.23.7l-.14-.05a15.75 15.75 0 01-3.77-1.48 13.9 13.9 0 01-1.73-.92c-.16-.12-1-1.14-1-1.15l3 .61a6.4 6.4 0 002.41.18c1.7-.31 2-1.74 2.43-3.21l2.83-10a34.46 34.46 0 001.33-6 34.44 34.44 0 00.08-3.93 38.32 38.32 0 010-4.12c1.01 1.92 1.2 4.89 1.64 7.06z"/><path class="cls-6" d="M432.63 89.17A14.8 14.8 0 01437 97.4c1.66 7.72 3.87 15.23 3.88 23.22a26.14 26.14 0 001.21-11.89 48.1 48.1 0 00-2-10.18c-1-2.81-2-5.21-1.63-8.33.86-6.85 4.81-13 5.89-19.78a23.13 23.13 0 00-.53-9.59 22.7 22.7 0 00-1.67-4.36c-.54-1.06-2.13-2.59-2.35-3.67q1.14 5.4 2 10.85c1 5.85-1 10.14-2.76 15.64-.25.77-.46 1.62-.66 2.49-.5 2.1-1 4.33-2.17 5.87a37.91 37.91 0 01-9.51-5c.81 3.05 3.7 4.49 5.93 6.5z"/><path class="cls-5" d="M309.32 81.73a24.71 24.71 0 00.82-6.9c.07-1.72-.07-3.44-.12-5.16-.09-3.4-.13-7 1.09-10.23s4-4.5 7.12-5.91a43.89 43.89 0 0110.2-3.2c1.91-.35 3.81-.73 5.69-1.24s3.51-1.47 5.28-1.76c-8.42-.85-16.56 2.16-24.89 2.77a5.71 5.71 0 01-4.35-1.1 35.52 35.52 0 01-4.76-3.48 8.12 8.12 0 01-1.77-1.93 13.94 13.94 0 00-1.21-2.39l.39 4.44a20.82 20.82 0 00.57 3.79 20.82 20.82 0 001.12 2.88c1.17 2.63 2.26 4.89 2.58 7.75.4 3.59.38 7.22.5 10.82a54 54 0 01-.58 11.21 57.46 57.46 0 01-2.58 8.91 26 26 0 004.9-9.27z"/><path class="cls-6" d="M307.63 53.23c2.23 3.7 2.46 7 2 11.17-.64 6.13.26 13.11-.93 19.21a23.65 23.65 0 001.68-4.33 32 32 0 00.85-6.15c.08-2.51-.17-5 .09-7.47.55-5.27 1.37-7.87 6.13-10.39 7.17-3.8 15.65-4.18 22.75-8.17q-10.94 1.83-21.75 4.4c-1.6.38-3.61 1.28-5.25 1.29-2.23 0-1.37 0-3-1.43a30 30 0 01-7.81-11 57.6 57.6 0 002 7.57 17.9 17.9 0 001.32 2.58c.2.28 1.61 2.72 1.92 2.72z"/><path class="cls-5" d="M345.93 205.22a5.33 5.33 0 00-.91-2.69 6.2 6.2 0 00-1.84-1.35 33.65 33.65 0 01-7.48-5.83 4.39 4.39 0 01-1-1.41 4.69 4.69 0 01-.21-1.69v-10.82c-.48 2.1-1.34 4-1.91 6.08a48.21 48.21 0 00-1.34 6.91 6.17 6.17 0 000 1.82 5.59 5.59 0 002.7 3.56 61.15 61.15 0 017.49 5.21 8.87 8.87 0 013.47 7.05 54 54 0 00.44 7.77 38.83 38.83 0 00.59-14.61z"/><path class="cls-6" d="M328.63 197.57a2.13 2.13 0 001.11 1.15c3.28 2.62 7.53 3.71 10.81 6.35 2.1 1.69 3 2.35 3.36 5s.94 5.24 1.15 7.85a35 35 0 00-1.11-13 1.53 1.53 0 00-.76-1.08c-1-.7-2.2-1.15-3.2-1.86-2.62-1.87-7.7-4.72-7.4-8a71.09 71.09 0 011.41-8.93c.28-1.29.69-2.57 1-3.85l-1.58.81q-2.58 7.14-4.65 14.46a2.1 2.1 0 00-.14 1.1z"/><path class="cls-5" d="M251.63 124.47c1.23-.71 11.65-12.77 12.88-14.18 3-3.47 5.81-7.14 8.75-10.69-2.62 8.74-7.89 18-14.64 24.16-1.46 1.34-2.91 3.27-4.6 4.3a4.57 4.57 0 01-2.78.54 19.76 19.76 0 01-4-.86c-.71-.23-2.62-2.21-3.13-2.12 2-.43 7.18-.98 7.52-1.15z"/><path class="cls-6" d="M247.71 130.68a33.24 33.24 0 01-2.87-2.8 12.51 12.51 0 01-2.56-3.42c2.91.62 5.72 2.94 8.73 3 1.51 0 2.64-1.68 3.68-2.74s2.32-2.42 3.45-3.66a111.27 111.27 0 0016.58-24.3c-2.93 13.57-11.42 24.21-21.25 33.57-.56.53-1.62 2-2.36 2.16s-1.67-.57-2.25-1a13.94 13.94 0 01-1.15-.81z"/><path class="cls-5" d="M430.63 258.17c1.56-1.51 5.71-6.74 7.06-8.5a46.79 46.79 0 003.72-5.86c1.12-2 2.25-4.09 3.22-6.21s1.44-4 2.24-6a35 35 0 001.52-5c.19-.8.37-1.61.56-2.43a8.78 8.78 0 01-1.39 2.34c-.77 1.17-1.7 2.25-2.54 3.37a47.84 47.84 0 00-3.4 5l-3.07 5.38c-1.3 2.28-2.35 4.69-3.57 7a102.21 102.21 0 00-4.35 10.91z"/><path class="cls-6" d="M449.58 222.25c-1.9 4-2.66 8.71-4.58 12.84-3.52 7.57-9 13.54-12.49 21a56.24 56.24 0 0013-14.83c3.2-5.75 4.99-12.48 4.07-19.01z"/><path class="cls-5" d="M457.13 154.33c1.73 1.12 7.4 3.83 9.3 4.69a42.5 42.5 0 006.12 2.15c2.09.58 4.18 1.17 6.3 1.58s3.92.42 5.88.7a30.43 30.43 0 004.85.25h2.28a7.93 7.93 0 01-2.42-.77c-1.22-.46-2.42-1.08-3.62-1.61a43.73 43.73 0 00-5.26-2l-5.56-1.64c-2.34-.69-4.74-1.12-7.1-1.73a89.69 89.69 0 00-10.77-1.62z"/><path class="cls-6" d="M493.63 163.83c-4-.87-8.36-.47-12.5-1.31-7.58-1.55-14.23-5.32-21.7-6.89a53.35 53.35 0 0016.38 8.78c5.89 1.78 12.32 1.84 17.82-.58z"/><path class="cls-5" d="M489.43 95.74a28.4 28.4 0 004.1-2.41l10.2-7a7.43 7.43 0 013.79-1.64 8.62 8.62 0 013.46 1 34.85 34.85 0 006.21 2.06c-.32-.58-.42-1.19.23-1.65.86-.61 2.26-.55 3.24-.91a4.13 4.13 0 001.57-1.06c-4.49-1.49-8.33-3-13.4-3.37a26.81 26.81 0 00-4.94-.13c-3.15.37-4.87 2.79-7.06 4.77l-8.74 7.9c-1.47 1.33-4.25 2-6.17 2.22a66.76 66.76 0 01-8.88.6c4.96 2.21 11.53 1.88 16.39-.38z"/><path class="cls-6" d="M484 96.56a23.08 23.08 0 00-5.3 1q2 .19 4 .23h3.3c3.28-.12 5.08-2.36 7.74-4q4.72-3 9.66-5.61c3.1-1.65 6.73-.68 9.89.15a15.42 15.42 0 017.49 4.23 43.46 43.46 0 00-2.9-3.71c-.6-.75-1.47-1.84-.55-2.59-2.27-.89-4.78-.84-7.11-1.52-1.88-.55-3.61-.49-5.48-.91a2.78 2.78 0 00-1.52-.05c-3 1.07-4.69 4-7.22 5.72-3.7 2.5-7.37 6.43-12 7.06z"/><path class="cls-5" d="M495.46 187.06q-1.25 1.17-2.43 2.42-.59.62-1.16 1.27c-.22.25-.63 1-.93 1.08a26.09 26.09 0 007.28-4.33c2.2-1.85 5.22-3 7.8-4.25 2.79-1.36 5.79-2.77 8.86-2.33s5.55 2.6 8.47 3.57a7.16 7.16 0 001.19.28 17.47 17.47 0 010-3.41c.06-.52.15-1 .24-1.55a54.58 54.58 0 00-9.25-3.05 10.86 10.86 0 00-4.07-.36 12 12 0 00-4.13 1.77c-2.53 1.49-5.06 3-7.43 4.73a48.23 48.23 0 00-4.44 4.16z"/><path class="cls-6" d="M502.37 187.12c3-1.19 6.62-3.28 9.83-3.73 5.28-.74 10.55 3.37 13.3 7.45.18.27.34.56.51.83a28.66 28.66 0 01-1.55-8.36q-.93-.5-1.89-.93a59.28 59.28 0 00-8-2.91l-.86-.24a6 6 0 00-2.31-.29 6.35 6.35 0 00-2.2.88 138 138 0 00-16.2 11.06q4.63-1.88 9.37-3.76z"/><path class="cls-5" d="M352.22 27.1a15.88 15.88 0 00.06-5.87c-1.15-2.67-5.55-6.7-6.45-7.31-.2 3 1 5.65 1.37 8.6a61.41 61.41 0 01.44 9.67c-.14 4.24-1.55 8.43-1.4 12.67 1.12-2.53 5.49-15.31 5.98-17.76z"/><path class="cls-6" d="M341.37 9.93l2.68 7.67a43.32 43.32 0 012 7 38.3 38.3 0 01.4 6.48c0 5.14-.26 10.27-.51 15.41q2-7.69 3.43-15.49c.62-3.31.91-6.24-.24-9.46l-.33-.93-3-8.2c-1.59.22-3.18-1.54-4.32-2.36z"/><path class="cls-7" d="M273.28 284.25a32.28 32.28 0 01-15.54-.53 3.07 3.07 0 001 3.7 9 9 0 003.8 1.56l6.16 1.48a16.62 16.62 0 006.79.66c7.03-1.29 4.42-8.29-2.21-6.87z"/><path class="cls-5" d="M414.06 287.14a77.23 77.23 0 0010.78 8.19l1-.09q-1.62-3.72-3.23-7.45c-3.56-3.15-7-6.45-10.36-9.79-4.73-4.68-8.54-9.89-12.77-15 2.52 8.71 7.83 18 14.58 24.14z"/><path class="cls-6" d="M419.08 293.6c.73.69 1.46 1.39 2.22 2l4.49-.44-.12-.27a84.14 84.14 0 01-11.27-10.61A111.27 111.27 0 01397.82 260c2.93 13.55 11.43 24.23 21.26 33.6z"/><path class="cls-5" d="M484.52 293a79.11 79.11 0 005.85-6 34.14 34.14 0 003.13-4.16c1-1.46 1.91-2.92 2.75-4.44s1.27-2.9 2-4.33a24.44 24.44 0 001.37-3.65c.18-.58.35-1.17.52-1.76a6.37 6.37 0 01-1.18 1.66c-.65.83-1.41 1.59-2.11 2.38a35.13 35.13 0 00-2.85 3.53l-2.6 3.77c-1.1 1.63-2 3.36-3 5a72.06 72.06 0 00-3.88 8z"/><path class="cls-6" d="M500.69 267.33c-1.63 2.84-2.39 6.29-4 9.25-3 5.43-7.53 9.61-10.55 15a42.36 42.36 0 0010.71-10.41 21.09 21.09 0 003.84-13.84z"/><path class="cls-5" d="M292.15 257.83a41.87 41.87 0 00-7.82 12.5 27.31 27.31 0 00-1.82 11.29 11.72 11.72 0 001.22 4.72l2.6 5a2.35 2.35 0 012.57 0c.92.79.73 2.24 1.25 3.25.93 1.79 3.14 2.36 5 2.63l1.34.16a44.89 44.89 0 00-4.93-7.81c-.79-1.09-1.57-2.18-2.29-3.32-3.39-5.35-3.74-9.82-1.53-15.56 1.62-4.22 3.09-8.46 4.41-12.86z"/><path class="cls-6" d="M290.52 259.79a74.83 74.83 0 00-7.09 8.38 23 23 0 00-3.67 10 14.16 14.16 0 00-.17 2.27c.08 3.13 2 5.42 3.24 8.09.46 1 1 2.35 1.7 3.72.53-.3 1.07-.6 1.64-.86a2.58 2.58 0 012.56-.12 24.29 24.29 0 00-2.41-4.91l-.45-.72c-1.18-1.87-2.71-4.28-2.92-6.3a10 10 0 01.68-4 81.32 81.32 0 016.89-15.55z"/><path class="cls-8" d="M267.74 285.91c-.64.09-1.44.33-1.51 1s.64 1.07 1.26 1.28c1.5.49 7.77 2 8.42-.35.9-3.27-6.91-2.1-8.17-1.93z"/><path class="cls-1" d="M43.93 4.77c4 0 8.05.27 12-.51s7.87-2 11.83-2.91A46.52 46.52 0 0179.23 0c4.26.12 8.35 1.3 12.51 2.09 8.3 1.57 17 1.41 25.39 1.55q13.26.22 26.51-.11c4.83-.12 9.49-.65 14.29-1.19s9.8-1 14.57-.13a11.82 11.82 0 015.35 2.22c1.82 1.49 2.13 3.45 2.84 5.56.33 1 .8 2.1 1.9 2.38 1.65.42 3.34-1.49 4.53-2.34a57.33 57.33 0 0110-5.81C200.25 2.8 204.67.47 208 2.54a28 28 0 013.35 3.07A10.22 10.22 0 00216 7.89c3.31.72 6.77.19 10.08-.24a112.85 112.85 0 0112.75-.94A178.34 178.34 0 01264 8.33q3.22.4 6.42.87c1.69.24 3.58.42 5 1.48 2.67 2 2.26 5.94 3.27 8.78 2.19 6.2 8 10.13 11.51 15.5 3.8 5.84 4.8 12.86 4.66 19.72-.18 7.22-1.58 14.33-2.69 21.45a200.54 200.54 0 00-2.17 25.12c-.51 17.22-.37 34.59.38 51.79a236.28 236.28 0 002.25 24.68 36.32 36.32 0 01.37 10.58c-.58 4.05-1.88 8-2.54 12a27.82 27.82 0 00.33 12.23c1.56 5.41 5.08 10 5.73 15.69.69 6.15-.9 12.38-2 18.39l-3.53 19c-1 5.11-1.3 11.34-4.82 15.46a26.83 26.83 0 01-6.27 4.84c-2.44 1.55-4.89 3.09-7.43 4.48-4.84 2.65-10.08 4.77-15.65 5.1a23.07 23.07 0 01-7.64-.78c-2.52-.72-4.39-2.23-6.7-3.32a2.47 2.47 0 00-2.72 0c-.92.79-.73 2.24-1.25 3.25-.93 1.79-3.14 2.36-5 2.63-11.95 1.75-24.66 1.07-36.56-.68q-4.59-.67-9.12-1.64a56.39 56.39 0 00-9.11-1.6c-6.27-.29-12.75 1-19 1.69-12.44 1.36-24.9 2.39-37.43 1.77s-24.91-2.41-37.4-3.18a147.19 147.19 0 00-18.27-.11c-6.22.39-12.25 1.63-18.39 2.64-5.54.91-11.14 1.33-16.5-.64-4.7-1.73-8.78-4.79-12.53-8a55.26 55.26 0 01-9.42-9.75 43.42 43.42 0 01-5.43-11c-2.84-8.42-3.67-17.41-4-26.24-.29-8.62 0-17.25-.11-25.87-.1-5.44-.72-11 .44-16.33 1.24-5.75 4-10.84 3.33-16.89-.34-3-1.21-6-1.83-9a50.59 50.59 0 01-1-8.89 117.92 117.92 0 011.3-18c1.6-12.17 2.14-24.42 3-36.7.32-4.68-.14-9.82 1.38-14.32.81-2.39 2.37-3.8 3.89-5.72.61-.78 1.54-1.91.48-2.66-.86-.61-2.26-.55-3.24-.91A4.72 4.72 0 015 81.33c-.48-2.36-.15-4.84-.28-7.24-.17-3-.39-6.07-.57-9.1a111.44 111.44 0 01.15-18.75A95.3 95.3 0 017.4 30c1.52-5.12 4.77-8.82 8.9-12.07 2-1.6 4.18-3.07 6.26-4.62s4-3.32 6.1-4.9c4.48-3.36 9.82-3.68 15.27-3.64z"/><path class="cls-2" d="M44.7 113.44a15.51 15.51 0 0114.93-15.72c16-.88 27.42 12.41 36.71 23.39 3.94 4.66 7.75 9.91 8.32 16a6.74 6.74 0 01-.53 3.81 5.68 5.68 0 01-5.32 2.6c-6-.27-10-5.06-15-7.59-10.13-5.18-22.71-2.3-32.17-9.1a16.23 16.23 0 01-6.94-13.39zM178 105.2c-9.78-2-17.76-6.21-24.16-14.05-5.78-7.08-10.58-15.25-18.58-20.15-8.7-5.3-19.64-8.34-29.4-11.06-6.81-1.9-13.61-3-18.08-9.12a8.67 8.67 0 01-2-5.38c.16-3 2.78-5.42 5.65-6.32s6-.6 9-.29l16.48 1.7a8.69 8.69 0 003.66-.14 10.34 10.34 0 003.06-2.09 28.89 28.89 0 015.78-3.78c13.64-6.62 25.37 3.78 39.22 8.35 7.54 2.52 16.52 2.38 24.4 3.08 8.17.72 17.85-.46 25.27-3.53 7.69-3.18 14.16-6.37 22.63-1.83 11.7 6.32 17.54 13.71 16.8 26a7.57 7.57 0 01-1.8 5.09 27.85 27.85 0 01-3.74 2.48c-9.48 6.76 1.06 21.44 5.51 27.58 2.79 3.85 5.63 7.82 6.75 12.44s.07 10.09-3.76 12.91a14.37 14.37 0 01-7.46 2.34c-6.9.55-14.59-1.6-18.3-7.45-1.25-2-2-4.3-3.66-5.95-4.7-4.69-12.74-1.24-19.22-2.71-4.51-1-8-4.43-11.89-7-8.16-5.41-13.69.68-22.16-1.12z"/><path class="cls-3" d="M286.15 281.11a26.83 26.83 0 01-6.27 4.84c-2.44 1.55-4.89 3.09-7.43 4.48-4.84 2.65-10.08 4.77-15.65 5.1a23.06 23.06 0 01-7.64-.77c-2.52-.72-4.39-2.23-6.7-3.32a2.47 2.47 0 00-2.72 0c-.92.79-.73 2.24-1.25 3.25-.93 1.79-3.14 2.36-5 2.63-11.95 1.75-24.66 1.07-36.56-.68q-4.59-.67-9.12-1.64a56.39 56.39 0 00-9.11-1.6c-6.27-.29-12.75 1-19 1.69-12.44 1.36-24.9 2.39-37.43 1.77s-24.91-2.41-37.4-3.18a147.21 147.21 0 00-18.24-.16c-6.22.39-12.25 1.63-18.39 2.64-5.54.91-11.14 1.33-16.5-.64-4.7-1.73-8.78-4.79-12.52-8a55.25 55.25 0 01-9.42-9.75 43.42 43.42 0 01-5.43-11c-2.84-8.47-3.67-17.46-4-26.29-.29-8.62 0-17.25-.11-25.87-.1-5.44-.72-11 .44-16.33 1.24-5.75 4-10.84 3.33-16.89-.34-3-1.21-6-1.83-9a50.62 50.62 0 01-1-8.89 117.92 117.92 0 011.3-18c1.59-12.17 2.13-24.42 3-36.7.32-4.68-.14-9.82 1.38-14.32.81-2.39 2.37-3.8 3.89-5.72.61-.78 1.54-1.91.48-2.66-.86-.61-2.26-.55-3.24-.91A4.72 4.72 0 015 81.33c-.48-2.36-.15-4.84-.28-7.24-.17-3-.39-6.07-.57-9.1a111.44 111.44 0 01.15-18.75A95.32 95.32 0 017.4 30c1.52-5.12 4.77-8.82 8.9-12.07 2-1.6 4.18-3.07 6.26-4.62 1.42-1 2.76-2.18 4.12-3.3a76.59 76.59 0 00-2.17 15.89 59.23 59.23 0 00.75 10.6 17.76 17.76 0 01.28 5.91 25.42 25.42 0 01-1.42 4.28c-2.76 7.44-2.65 17.1 2 23.74 4.44 6.39 9 11.16 4.79 19.57-1.17 2.32-3 4.24-4.14 6.61-2.92 6.34.48 14.07-1.74 20.69-1.45 4.32-5.15 7.68-6.19 12.11-1.12 4.79 1.08 9.63 2.55 14.32a49.88 49.88 0 012.19 18c-.26 4.14-1 8.53.85 12.25 1.56 3.14 4.77 5.32 5.88 8.64s-.22 7.19-2.18 10.21c-2.77 4.26-6.21 8-8.1 12.77-2 5-.61 8.47.51 13.74 2.36 11.26-6.91 24-.91 34.39 3 5.32 10 7.33 13.29 12.46 5.17 7.94 11.19 13.94 21.8 10.54 2.55-.82 5-2 7.69-2.27 4.19-.43 8.24 1.41 12.39 2.13 9 1.57 18.12-2.21 27.28-2.17 7.44 0 14.61 2.57 21.94 3.91a68.33 68.33 0 0031.5-1.7c8.44-2.5 17.56-6.63 25.59-3a58.08 58.08 0 005.31 2.62c6.74 2.29 14.05-2.9 21-1.56a41.43 41.43 0 015.92 2c10.35 3.68 18.62-1.31 28.7-1.13 8.37.15 16.38 5.47 24.86 6.09 7.26.54 14.61-1.37 21.6-4.73a14.16 14.16 0 01-2.35 4.19z"/><path class="cls-3" d="M238.48 164.33c2.73-1.08 5.5-2.09 7-4.49a9.37 9.37 0 001.28-5.12 11.21 11.21 0 00-1.54-6 7 7 0 00-5-3.31c-2-.19-3.22.73-4.59 1.95a15.37 15.37 0 01-4.7 2.62c-4.39 1.75-9.32-.26-13.47-1.75a47.4 47.4 0 01-12.46-7.31c-3.79-2.89-7.41-6-11.25-8.84-1.73-1.27-3.62-2.17-5.38-3.32-2-1.29-3-3.48-5.24-4.52-2-.94-4.36-.93-6.6-1.06a53.44 53.44 0 01-30.17-11.46 22.72 22.72 0 01-3.91-3.79 38.71 38.71 0 01-2.3-3.58 57.79 57.79 0 00-12.38-14.27c-4.92-4.1-10-5.1-16.34-5.75-20.34-2.1-41.91-5.74-57-19.57-4.12-3.78-8.39-8.57-14-8.42-1.14 18.11 21.36 35.19 37.64 36.71 3.15.29 6.53.28 9.12 2.1 3.12 2.19 4.07 6.27 5.68 9.73a23.9 23.9 0 0012.63 12c5 2 10.79 2.34 15.23 5.45 6.33 4.43 7.92 12.9 10.94 20 9.54 22.48 33.57 4.89 44.42 20.44 5.37 7.71.76 20.38 8 26.34 3.58 2.93 8.82 2.86 13.22 1.45s8.35-4 12.65-5.69c3.44-1.37 7.17-1.88 10.56-3.3 2.59-1.08 5.3-2.49 6.79-5a23.15 23.15 0 001.4-3.45 14.6 14.6 0 016.57-7.41 29 29 0 013.2-1.38z"/><path class="cls-5" d="M144.93 110.46a53.35 53.35 0 004.17 3.54 35.06 35.06 0 002.91 2.18 21.59 21.59 0 002.53 1.06 71.38 71.38 0 0013.81 4.56 70.12 70.12 0 0013 1.61 6.64 6.64 0 012.66.43 5.61 5.61 0 011.73 1.44c3.33 3.77 5.33 6.56 9.95 9 10.07 5.24 20.3 18.64 32.92 16.47 2.84-.49 6.06-2.75 8.4-4.4-1.19.84-7.52.4-9.23.46-3.57.13-6-1.15-9.06-3.15L202.51 133c-6.34-4.17-12.85-8.49-17.15-14.74a1.68 1.68 0 00-.6-.62 1.77 1.77 0 00-1.48.27c-7.25 3.59-15.85.06-23.14-3.45-3.93-1.89-7.85-3.75-11.62-5.91-1.89-1.08-9.29-7.5-11.72-8.62 1.07 1.56 2.73 4.12 3.55 5.32a30.56 30.56 0 003.32 4z"/><path class="cls-6" d="M185.29 121.5c-4-.27-8.07.83-12 0-9.1-1.89-17.51-5.92-25.47-10.62-2.81-1.66-5.08-4-7.75-5.95a39.39 39.39 0 003.43 5.25 17.66 17.66 0 003.77 4.05c3.83 2.63 8.23 3.74 12.3 5.82 3.47 1.77 5.74 3.32 9.85 3.71 5.57.53 12.15-2 15.88 3.39 1.22 1.77 2.11 3.81 3.64 5.33s3.87 2.52 6 3.44c8.89 3.87 16 11.08 24.77 14.69 6.42 2.63 12.66.84 17.6-3.72.33-.3.68-.71.56-1.14-4.19 2.07-9 3.75-13.75 3.63a9.69 9.69 0 01-5.49-2c-11.46-7.82-25.06-14.67-33.34-25.88z"/><path class="cls-7" d="M16 65.58a31.6 31.6 0 003.08 4.66c1.92 2.57 6.18 5.76 3.05 8.54-1.64 1.44-5.47.43-7-.64-10.93-7.4-6.87-31.65-2.24-41.25.48-1 1.72-2.11 2.48-1.3C17 37.34 14 48.85 13.84 51.4c-.21 4.71-.04 9.82 2.16 14.18z"/><path class="cls-8" d="M18.51 77A1.74 1.74 0 0020 75.52a3.68 3.68 0 00-.58-2.58c-1.14-2.08-2.81-3.82-4-5.85a21.16 21.16 0 01-2.74-8.6 38.5 38.5 0 01-.45-6.39 47.93 47.93 0 01.74-5.44c.16-1 .32-1.93.42-2.91.06-.6.41-1.64-.45-1.27C11.8 43 11.33 46 11 47a42.18 42.18 0 00-1.19 5.64 34.15 34.15 0 00-.16 8.52 33.18 33.18 0 001.76 8.06c.86 2.26 1.69 4.65 3.46 6.4A4.73 4.73 0 0018.51 77z"/><path class="cls-7" d="M7.29 158c-.43-14 4.39-28.37 6.72-41.87 1.3-7.56-1.35-16.71 2-23.77.42-.89 1.28-1.85 2.21-1.52 1 2.39.5 5.13.31 7.74-.51 6.94 1.29 13.76.5 20.71-1.76 15.58-8.53 31.08-2.4 46.55a26 26 0 011.54 4.35 6 6 0 01-.62 4.46 3.45 3.45 0 01-4 1.47 5.16 5.16 0 01-2.39-2.83A40.64 40.64 0 017.29 158z"/><path class="cls-8" d="M8.79 158.74c0-4.6.07-9.89 1.28-14.31l4.34-15.91a6.44 6.44 0 01.51-1.42c1 5.86-.78 11.72-2.2 17.36A33.43 33.43 0 0015 167c1.14 2.35 1.06 6.09-2.57 4.18-2.75-1.45-3.28-6.88-3.52-9.58-.07-.96-.11-1.91-.12-2.86z"/><path class="cls-3" d="M143.2 218.22a2.23 2.23 0 012.05-2.39h.15c7.3-1.23 24.54 12.66 13.14 15.27-6.85 1.57-16.01-5.98-15.34-12.88zM60 40.65a3.41 3.41 0 01-1.54-1.27 2.43 2.43 0 01-.15-1.56c1.06-6.67 20.2-15.64 19.23-5C76.91 39.33 66.58 44 60 40.65z"/><path class="cls-9" d="M260.12 155.15a11.25 11.25 0 00-1.15.42 7.93 7.93 0 00-5.24 7.76c-.13 4.41 5.44 6.67 9.31 5.7a44.36 44.36 0 006-1.94c3.14-1.28 6.46-3.78 5.6-7.73a5.92 5.92 0 00-3.24-3.85 12.16 12.16 0 00-5.06-1.07 18.76 18.76 0 00-6.22.71z"/><ellipse class="cls-10" cx="263.02" cy="162.81" rx="9.78" ry="6.55" transform="rotate(-11.71 263.017 162.812)"/><path class="cls-11" d="M260.77 166.21c3.51 1.89 8.72 0 11.7-3.18-.77 2.78-3.92 5.33-8.12 6.2-5.29 1.1-10.17-.89-10.91-4.43-.63-3 2-6.21 6.08-7.75-2.04 3.16-2.52 7.1 1.25 9.16z"/><path class="cls-9" d="M58.93 186.33h-1.52a11.39 11.39 0 00-4.25.8c-3.19 1.51-3.84 4.9-1.91 7.67 3.38 4.85 16.15 7.2 17.46-1 .39-2.45-1.54-4.69-3.65-6a11.28 11.28 0 00-6.13-1.47z"/><ellipse class="cls-10" cx="58.59" cy="193.7" rx="6.11" ry="9.12" transform="rotate(-78.62 58.587 193.705)"/><path class="cls-11" d="M61.38 196.53a6.87 6.87 0 005.25-4.79 4.85 4.85 0 01.92 3.75c-.67 3.31-5.21 5.18-10.15 4.19s-8.41-4.48-7.74-7.79a4.22 4.22 0 01.59-1.4 9.59 9.59 0 0011.13 6.04z"/><path class="cls-9" d="M171.86 249.16c-2.87-.24-5 1.71-6.69 3.84-2 2.5-.71 7.46 2.92 7.43 2.37 0 4.56-2.08 5.84-3.89a6.14 6.14 0 001.2-4.62 3.26 3.26 0 00-1.63-2.35 3.72 3.72 0 00-.94-.31 6.16 6.16 0 00-.7-.1z"/><ellipse class="cls-10" cx="168.73" cy="255.44" rx="6.28" ry="4.21" transform="rotate(-48.35 168.734 255.437)"/><path class="cls-11" d="M164.79 254.59a4.45 4.45 0 005.84 3.64 7.27 7.27 0 002.08-1.07 9.28 9.28 0 01-.82 1.08c-2.3 2.59-5.58 3.44-7.32 1.9-1.49-1.33-1.35-4 .18-6.36a7.14 7.14 0 00.04.81z"/><ellipse class="cls-12" cx="64.42" cy="242.91" rx="4.67" ry="6.97" transform="rotate(-66.08 64.421 242.914)"/><ellipse class="cls-12" cx="246.34" cy="84.38" rx="6.45" ry="9.64" transform="rotate(-45.1 246.34 84.375)"/><ellipse class="cls-13" cx="215.72" cy="99.13" rx="3.47" ry="4.88" transform="rotate(-22.44 215.743 99.147)"/><ellipse class="cls-13" cx="134.79" cy="74.74" rx="2.81" ry="4.19" transform="rotate(-9.04 134.808 74.746)"/><ellipse class="cls-13" cx="112.5" cy="156.58" rx="2.81" ry="4.19" transform="rotate(-60.74 112.496 156.579)"/><path class="cls-9" d="M155.08 47.48a9.94 9.94 0 00-8.39-1.6 1.65 1.65 0 00-1.2.92c-.31 1 .5 2.09.9 3a11.21 11.21 0 004.29 4.34 17.16 17.16 0 003.77 1.65 11.47 11.47 0 003.67.89c2.1-.12 2.42-2 1.63-3.63a13.62 13.62 0 00-4.67-5.57z"/><ellipse class="cls-14" cx="153.31" cy="51.96" rx="3.49" ry="8.16" transform="rotate(-57.3 152.549 52.324)"/><path class="cls-15" d="M156.21 54.33c2.21.22 3.16-.45 2.94-1.75 1.14 1.51 1.59 2.93 1 3.83-1 1.61-5 .93-8.74-1.52a15 15 0 01-4.34-4.11c.64.55 6.05 3.22 9.14 3.55z"/><path class="cls-9" d="M123.92 197.62a5.35 5.35 0 00-2.29-3.43 5.29 5.29 0 00-4.14-.77 3.43 3.43 0 00-1.7 1.31c-1.37 2.09-1.86 4.32-1.12 6.12a7.68 7.68 0 001.7 2.4 6.4 6.4 0 002.23 1.84c3.46 1.2 4.73-3.13 5.16-4.66a6.08 6.08 0 00.16-2.81z"/><path class="cls-14" d="M122.34 198.86c-1.06-3-3.65-4.73-5.78-4s-3 3.79-1.94 6.74 3.66 4.73 5.78 4 3-3.78 1.94-6.74z"/><path class="cls-15" d="M118.89 202.86c1.6.89 2.89.74 3.76-.23a3.77 3.77 0 01-2.25 3c-2.13.77-4.72-1-5.78-4a6.89 6.89 0 01-.19-4.29 12.79 12.79 0 004.46 5.52z"/><path class="cls-5" d="M87.15 114.38a37.8 37.8 0 011.44-7.81c.36-1.46.91-2.86 1.37-4.29a65.94 65.94 0 002.14-9.43c.38-2.27 2.34-4.06 4.4-5 1.77-.82 3.17-2.38 4.65-3.69-.47.41-.91 2-1.37 2.65-1.22 1.65-2.66 3.15-4 4.71a4 4 0 00-.47.63 4.14 4.14 0 00-.38 1.19c-1 4.5-2.49 8.87-3.58 13.34a35.88 35.88 0 01-1 3.5c-.32.9-.71 1.77-1 2.66a26.29 26.29 0 00-1.55 6.3 13.94 13.94 0 01-.65-4.76zM86 64.63a15 15 0 00-.48 3.94 15 15 0 00.77 3.43c1.53 5.09 3.08 10.22 5.58 14.91a1 1 0 001.23.7l.14-.05A15.75 15.75 0 0097 86.11a13.9 13.9 0 001.73-.92c.16-.12 1-1.14 1-1.15l-3 .61a6.4 6.4 0 01-2.41.18c-1.7-.31-2-1.74-2.43-3.21l-2.83-10a34.46 34.46 0 01-1.33-6 34.43 34.43 0 01-.08-3.93 38.32 38.32 0 000-4.12c-1.02 1.92-1.22 4.89-1.65 7.06z"/><path class="cls-6" d="M96 89.17a14.8 14.8 0 00-4.3 8.23c-1.66 7.72-3.87 15.23-3.88 23.22a26.14 26.14 0 01-1.19-11.89 48.1 48.1 0 012-10.18c1-2.81 2-5.21 1.63-8.33-.86-6.85-4.81-13-5.89-19.78a23.13 23.13 0 01.53-9.59 22.7 22.7 0 011.73-4.36c.54-1.06 2.13-2.59 2.35-3.67q-1.14 5.4-2 10.85c-1 5.85 1 10.14 2.76 15.64.25.77.46 1.62.66 2.49.5 2.1 1 4.33 2.17 5.87a37.91 37.91 0 009.51-5c-.97 3.05-3.86 4.49-6.08 6.5z"/><path class="cls-5" d="M219.3 81.73a24.71 24.71 0 01-.82-6.9c-.07-1.72.07-3.44.12-5.16.09-3.4.13-7-1.09-10.23s-4-4.5-7.12-5.91a43.89 43.89 0 00-10.2-3.2c-1.91-.35-3.81-.73-5.69-1.24s-3.49-1.48-5.28-1.77c8.42-.85 16.56 2.16 24.89 2.77a5.71 5.71 0 004.35-1.09 35.52 35.52 0 004.76-3.48 8.12 8.12 0 001.78-1.98 13.94 13.94 0 011.21-2.39l-.39 4.44a20.82 20.82 0 01-.57 3.79 20.82 20.82 0 01-1.12 2.88c-1.17 2.63-2.26 4.89-2.58 7.75-.4 3.59-.38 7.22-.5 10.82a54 54 0 00.54 11.25A57.46 57.46 0 00224.2 91a26 26 0 01-4.9-9.27z"/><path class="cls-6" d="M221 53.23c-2.23 3.7-2.46 7-2 11.17.64 6.13-.26 13.11.93 19.21a23.65 23.65 0 01-1.68-4.33 32 32 0 01-.85-6.15c-.08-2.51.17-5-.09-7.47-.55-5.27-1.37-7.87-6.13-10.39-7.17-3.8-15.65-4.18-22.75-8.17q10.94 1.83 21.75 4.4c1.6.38 3.61 1.28 5.25 1.29 2.23 0 1.37 0 3-1.43a30 30 0 007.79-11 57.6 57.6 0 01-2 7.57 17.9 17.9 0 01-1.32 2.58c-.19.28-1.6 2.72-1.9 2.72z"/><path class="cls-5" d="M182.69 205.22a5.33 5.33 0 01.91-2.69 6.2 6.2 0 011.84-1.35 33.65 33.65 0 007.48-5.83 4.39 4.39 0 001-1.41 4.69 4.69 0 00.21-1.69v-10.82c.48 2.1 1.34 4 1.91 6.08a48.21 48.21 0 011.34 6.91 6.17 6.17 0 010 1.82 5.59 5.59 0 01-2.7 3.56 61.15 61.15 0 00-7.49 5.21 8.87 8.87 0 00-3.47 7.05 54 54 0 01-.44 7.77 38.83 38.83 0 01-.59-14.61z"/><path class="cls-6" d="M200 197.57a2.13 2.13 0 01-1.11 1.15c-3.28 2.62-7.53 3.71-10.81 6.35-2.1 1.69-3.05 2.35-3.36 5s-.94 5.24-1.15 7.85a35 35 0 011.11-13 1.53 1.53 0 01.76-1.08c1-.7 2.2-1.15 3.2-1.86 2.62-1.87 7.7-4.72 7.4-8a71.09 71.09 0 00-1.41-8.93c-.28-1.29-.69-2.57-1-3.85l1.58.81q2.58 7.14 4.65 14.46a2.1 2.1 0 01.14 1.1z"/><path class="cls-5" d="M277 124.47c-1.23-.71-11.65-12.77-12.88-14.18-3-3.47-5.81-7.14-8.75-10.69 2.62 8.74 7.89 18 14.64 24.16 1.46 1.34 2.91 3.27 4.6 4.3a4.57 4.57 0 002.78.54 19.76 19.76 0 004-.86c.71-.23 2.62-2.21 3.13-2.12-2.01-.43-7.19-.98-7.52-1.15z"/><path class="cls-6" d="M280.91 130.68a33.24 33.24 0 002.87-2.8 12.51 12.51 0 002.56-3.42c-2.91.62-5.72 2.94-8.73 3-1.51 0-2.64-1.68-3.68-2.74s-2.32-2.42-3.45-3.66a111.27 111.27 0 01-16.58-24.3c2.93 13.57 11.42 24.21 21.25 33.57.56.53 1.62 2 2.36 2.16s1.67-.57 2.25-1a13.94 13.94 0 001.15-.81z"/><path class="cls-5" d="M98 258.17c-1.56-1.51-5.71-6.74-7.06-8.5a46.79 46.79 0 01-3.72-5.86c-1.12-2-2.25-4.09-3.22-6.21s-1.44-4-2.24-6a35 35 0 01-1.52-5c-.19-.8-.37-1.61-.56-2.43a8.78 8.78 0 001.39 2.34c.77 1.17 1.7 2.25 2.54 3.37a47.84 47.84 0 013.4 5l3.07 5.38c1.3 2.28 2.35 4.69 3.57 7A102.21 102.21 0 0198 258.17z"/><path class="cls-6" d="M79 222.25c1.9 4 2.66 8.71 4.58 12.84 3.52 7.57 9 13.54 12.49 21a56.24 56.24 0 01-13-14.83c-3.16-5.75-4.95-12.48-4.07-19.01z"/><path class="cls-5" d="M71.49 154.33c-1.73 1.12-7.4 3.83-9.3 4.69a42.5 42.5 0 01-6.12 2.15c-2.09.58-4.18 1.17-6.3 1.58s-3.92.42-5.88.7a30.43 30.43 0 01-4.85.25h-2.28a7.93 7.93 0 002.42-.77c1.22-.46 2.42-1.08 3.62-1.61a43.73 43.73 0 015.26-2l5.57-1.74c2.34-.69 4.74-1.12 7.1-1.73a89.69 89.69 0 0110.76-1.52z"/><path class="cls-6" d="M35 163.83c4-.87 8.36-.47 12.5-1.31 7.58-1.55 14.23-5.32 21.7-6.89a53.35 53.35 0 01-16.38 8.78c-5.94 1.78-12.33 1.84-17.82-.58z"/><path class="cls-5" d="M39.18 95.74a28.4 28.4 0 01-4.09-2.41l-10.2-7a7.43 7.43 0 00-3.79-1.64 8.62 8.62 0 00-3.46 1 34.85 34.85 0 01-6.21 2.06c.32-.58.42-1.19-.23-1.65-.86-.61-2.26-.55-3.24-.91a4.13 4.13 0 01-1.57-1.06c4.49-1.49 8.33-3 13.4-3.37a26.81 26.81 0 014.94-.13c3.15.37 4.87 2.79 7.06 4.77l8.74 7.9c1.47 1.33 4.25 2 6.17 2.22a66.76 66.76 0 008.88.6c-4.95 2.21-11.53 1.88-16.4-.38z"/><path class="cls-6" d="M44.63 96.56a23.08 23.08 0 015.3 1q-2 .19-4 .23h-3.26c-3.28-.12-5.08-2.36-7.74-4q-4.72-3-9.66-5.61c-3.1-1.65-6.73-.68-9.89.15a15.42 15.42 0 00-7.49 4.23 43.45 43.45 0 012.9-3.71c.6-.75 1.47-1.84.55-2.59 2.27-.89 4.78-.84 7.11-1.52 1.88-.55 3.61-.49 5.48-.91a2.78 2.78 0 011.52-.05c3 1.07 4.69 4 7.22 5.72 3.65 2.5 7.33 6.43 11.96 7.06z"/><path class="cls-5" d="M33.16 187.06q1.25 1.17 2.43 2.42.59.62 1.16 1.27c.22.25.63 1 .93 1.08a26.09 26.09 0 01-7.28-4.33c-2.2-1.85-5.22-3-7.8-4.25-2.79-1.36-5.79-2.77-8.86-2.33s-5.55 2.6-8.47 3.57a7.16 7.16 0 01-1.19.28 17.47 17.47 0 000-3.41c-.06-.52-.15-1-.24-1.55a54.58 54.58 0 019.25-3.05 10.86 10.86 0 014.07-.36 12 12 0 014.13 1.77c2.53 1.49 5.06 3 7.43 4.73a48.23 48.23 0 014.44 4.16z"/><path class="cls-6" d="M26.25 187.12c-3-1.19-6.62-3.28-9.83-3.73-5.28-.74-10.55 3.37-13.3 7.45-.18.27-.34.56-.51.83a28.66 28.66 0 001.54-8.34q.93-.5 1.89-.93a59.28 59.28 0 018-2.91l.86-.24a6 6 0 012.31-.29 6.35 6.35 0 012.2.88 138 138 0 0116.22 11Q31 189 26.25 187.12z"/><path class="cls-5" d="M176.39 27.1a15.88 15.88 0 01-.06-5.87c1.15-2.67 5.55-6.7 6.45-7.31.2 3-1 5.65-1.37 8.6a61.41 61.41 0 00-.44 9.67c.14 4.24 1.55 8.43 1.4 12.67-1.11-2.53-5.48-15.31-5.98-17.76z"/><path class="cls-6" d="M187.24 9.93l-2.68 7.67a43.32 43.32 0 00-2 7 38.3 38.3 0 00-.4 6.48c0 5.14.26 10.27.51 15.41q-2-7.69-3.43-15.49c-.62-3.31-.91-6.24.24-9.46l.33-.93 3-8.2c1.59.22 3.18-1.54 4.32-2.36z"/><path class="cls-7" d="M5.92 239.25a10.38 10.38 0 016.61.53c-.86-14.78.19-31.38 2.59-40.32.66-2.44 1.59-4.84 2.17-7.3a18.69 18.69 0 00.54-3.73c0-1-.16-2.17-1.06-2.57C12 183.73 6.48 204.5 5.86 207.6c-1 5-1.5 18.6 0 31.65z"/><path class="cls-5" d="M114.56 287.14a77.23 77.23 0 01-10.78 8.19l-.95-.09q1.62-3.72 3.23-7.45c3.56-3.15 7-6.45 10.36-9.79 4.73-4.68 8.54-9.89 12.77-15-2.61 8.71-7.88 18-14.63 24.14z"/><path class="cls-6" d="M109.54 293.6c-.73.69-1.46 1.39-2.22 2l-4.49-.44.12-.27a84.14 84.14 0 0011.27-10.61A111.27 111.27 0 00130.8 260c-2.93 13.55-11.43 24.23-21.26 33.6z"/><path class="cls-5" d="M44.1 293a79.11 79.11 0 01-5.85-6 34.14 34.14 0 01-3.13-4.16 51.54 51.54 0 01-2.74-4.44c-.83-1.52-1.27-2.9-2-4.33a24.44 24.44 0 01-1.38-3.7c-.18-.58-.35-1.17-.52-1.76a6.37 6.37 0 001.2 1.72c.65.83 1.41 1.59 2.11 2.38a35.13 35.13 0 012.83 3.49l2.6 3.84c1.1 1.63 2 3.36 3 5A72.06 72.06 0 0144.1 293z"/><path class="cls-6" d="M27.93 267.33c1.63 2.84 2.39 6.29 4 9.25 3 5.43 7.53 9.61 10.55 15a42.36 42.36 0 01-10.71-10.41 21.09 21.09 0 01-3.84-13.84z"/><path class="cls-5" d="M236.47 257.83a41.87 41.87 0 017.82 12.5 27.31 27.31 0 011.82 11.29 11.72 11.72 0 01-1.22 4.72l-2.6 5a2.35 2.35 0 00-2.57 0c-.92.79-.73 2.24-1.25 3.25-.93 1.79-3.14 2.36-5 2.63l-1.34.16a44.89 44.89 0 014.93-7.81c.79-1.09 1.57-2.18 2.29-3.32 3.39-5.35 3.74-9.82 1.53-15.56-1.62-4.22-3.09-8.46-4.41-12.86z"/><path class="cls-6" d="M238.1 259.79a74.83 74.83 0 017.09 8.38 23 23 0 013.67 10 14.16 14.16 0 01.17 2.27c-.08 3.13-2 5.42-3.24 8.09-.46 1-1 2.35-1.7 3.72-.53-.3-1.07-.6-1.64-.86a2.58 2.58 0 00-2.56-.12 24.29 24.29 0 012.41-4.91l.45-.72c1.18-1.87 2.71-4.28 2.92-6.3a10 10 0 00-.68-4.06 81.32 81.32 0 00-6.89-15.49z"/><path class="cls-8" d="M10.85 236.23c-.06-.49-.13-1-.18-1.46a108 108 0 01-.59-12.77 132.65 132.65 0 01.66-14.37A47 47 0 0112 200c.57-2 1.57-3.85 1.35-6-.8 0-1.26.88-1.53 1.64a114.79 114.79 0 00-4.19 15.86 85.29 85.29 0 00-1.17 24 11.53 11.53 0 014.39.73z"/><path class="cls-2" d="M39.7 250.33c-12.64-14.07-13-40.84 2.46-52.2 5.64-4.13 12-8.63 13.3-15.51 1.91-10.37-8.92-19.07-9.65-29.59-.16-2.24.28-4.74 2-6.17a8 8 0 012.4-1.25 32.91 32.91 0 0131 4.82c8.61 6.7 13.9 17.76 24 21.86 9.92 4 21.55 0 31.74 3.3 11.21 3.6 17.9 14.9 22.71 25.65s9.29 22.5 18.91 29.3c3.44 2.43 7.4 4.1 10.63 6.81 7.52 6.3 9.17 19.33 1.9 25.92-9.71 8.8-41 7.17-52.65 2.71-7.77-3-14-9.75-22.29-10.9-10-1.4-18.73 6.28-28.12 8.63-12.58 3.15-25.64 2.55-37-4.25a49.16 49.16 0 01-11.34-9.13zm229.07-9.49c1.63 3.94 2.82 7.88 2.7 11.64-.15 4.62-3 9.5-7.57 10.36-6.72 1.26-12-6.28-18.77-7.2-6-.83-11.75 3.8-17.83 3.32-5.08-.4-9.13-4.22-12.74-7.82-6.56-6.56-25-28.83-12-37.67 5.64-3.83 17.08 5.9 19-5.43.51-3-.81-6.15-.12-9.12 1-4.38 6.05-6.7 10.55-6.65 6.21.07 12 3.41 16.38 7.84 6.88 7 10.33 16.16 13.46 25.25 1.69 4.8 4.72 10.13 6.94 15.48zm220.15 9.49c12.64-14.07 13-40.84-2.46-52.2-5.64-4.13-12-8.63-13.3-15.51-1.91-10.37 8.92-19.07 9.65-29.59.16-2.24-.28-4.74-2-6.17a8 8 0 00-2.4-1.25 32.91 32.91 0 00-31 4.82c-8.61 6.7-13.9 17.76-24 21.86-9.92 4-21.55 0-31.74 3.3-11.21 3.6-17.9 14.9-22.71 25.65s-9.29 22.5-18.91 29.3c-3.44 2.43-7.4 4.1-10.63 6.81-7.52 6.3-9.17 19.33-1.9 25.92 9.71 8.8 41 7.17 52.65 2.71 7.77-3 14-9.75 22.29-10.9 10-1.4 18.73 6.28 28.12 8.63 12.58 3.15 25.64 2.55 37-4.25a49.16 49.16 0 0011.34-9.13z"/><path class="cls-3" d="M290.14 164.33c-2.73-1.08-5.5-2.09-7-4.49a9.37 9.37 0 01-1.28-5.12 11.21 11.21 0 011.54-6 7 7 0 015-3.31c2-.19 3.22.73 4.59 1.95a15.37 15.37 0 004.7 2.62c4.39 1.75 9.32-.26 13.47-1.75a47.4 47.4 0 0012.47-7.23c3.79-2.89 7.41-6 11.25-8.84 1.73-1.27 3.62-2.17 5.38-3.32 2-1.29 3-3.48 5.24-4.52 2-.94 4.36-.93 6.6-1.06a53.44 53.44 0 0030.17-11.46 22.72 22.72 0 003.91-3.79 38.71 38.71 0 002.3-3.58 57.79 57.79 0 0112.38-14.27c4.92-4.1 10-5.1 16.34-5.75 20.34-2.1 41.91-5.74 57-19.57 4.12-3.78 8.39-8.57 14-8.42 1.15 18.11-21.35 35.19-37.63 36.71-3.15.29-6.53.28-9.12 2.1-3.12 2.19-4.07 6.27-5.68 9.73a23.9 23.9 0 01-12.63 12c-5 2-10.79 2.34-15.23 5.45-6.33 4.43-7.92 12.9-10.94 20-9.54 22.48-33.57 4.89-44.42 20.44-5.37 7.71-.76 20.38-8 26.34-3.58 2.93-8.82 2.86-13.22 1.45s-8.35-4-12.65-5.69c-3.44-1.37-7.17-1.88-10.56-3.3-2.59-1.08-5.3-2.49-6.79-5a23.15 23.15 0 01-1.4-3.45 14.6 14.6 0 00-6.57-7.41 29 29 0 00-3.22-1.46z"/><path class="cls-2" d="M287.28 224.85c-1.63 3.94-2.82 7.88-2.7 11.64.15 4.62 3 9.5 7.57 10.36 6.72 1.26 12-6.28 18.77-7.2 6-.83 11.75 3.8 17.83 3.32 5.08-.4 9.13-4.22 12.74-7.82 6.56-6.56 25-28.83 12-37.67-5.64-3.83-17.08 5.9-19-5.43-.51-3 .81-6.15.12-9.12-1-4.38-6-6.7-10.55-6.65-6.21.07-12 3.41-16.38 7.84-6.88 7-10.33 16.16-13.46 25.25-1.69 4.81-4.72 10.14-6.94 15.48z"/><path class="cls-3" d="M486.23 164.33c-2.73-1.08-5.5-2.09-7-4.49a9.37 9.37 0 01-1.28-5.12 11.21 11.21 0 011.54-6 7 7 0 015-3.31c2-.19 3.22.73 4.59 1.95a15.37 15.37 0 004.7 2.62c4.39 1.75 9.32-.26 13.47-1.75a47.4 47.4 0 0012.45-7.31c3.79-2.89 7.41-6 11.25-8.84 1.73-1.27 3.62-2.17 5.38-3.32 2-1.29 3-3.48 5.24-4.52 2-.94 4.36-.93 6.6-1.06a53.44 53.44 0 0030.17-11.46 22.72 22.72 0 003.91-3.79 38.71 38.71 0 002.3-3.58 57.79 57.79 0 0112.38-14.27c4.92-4.1 10-5.1 16.34-5.75 20.34-2.1 41.91-5.74 57-19.57 4.12-3.78 8.39-8.57 14-8.42 1.15 18.11-21.35 35.19-37.63 36.71-3.15.29-6.53.28-9.12 2.1-3.12 2.19-4.07 6.27-5.68 9.73a23.9 23.9 0 01-12.63 12c-5 2-10.79 2.34-15.23 5.45-6.33 4.43-7.92 12.9-10.94 20-9.54 22.48-33.57 4.89-44.42 20.44-5.37 7.71-.76 20.38-8 26.34-3.62 2.89-8.82 2.89-13.22 1.45s-8.35-4-12.65-5.69c-3.44-1.37-7.17-1.88-10.56-3.3-2.59-1.08-5.3-2.49-6.79-5a23.15 23.15 0 01-1.4-3.45 14.6 14.6 0 00-6.57-7.41 29 29 0 00-3.2-1.38z"/></svg>