<svg id="layer_1" data-name="layer 1" xmlns="http://www.w3.org/2000/svg" xmlns:xlink="http://www.w3.org/1999/xlink" viewBox="0 0 151.79 211.64"><defs><linearGradient id="linear-gradient-68" x1="0" y1="142.45" x2="110.35" y2="142.45" xlink:href="#linear-gradient-13"/><linearGradient id="linear-gradient" x1="-144.03" y1="-203.77" x2="-144.03" y2="-38.73" gradientTransform="rotate(-5 2421.068 -2081.298)" gradientUnits="userSpaceOnUse"><stop offset=".15"/><stop offset=".2" stop-color="#0c0c0c"/><stop offset=".31" stop-color="#2d2d2d"/><stop offset=".45" stop-color="#626262"/><stop offset=".62" stop-color="#ababab"/><stop offset=".8" stop-color="#fff"/></linearGradient><linearGradient id="linear-gradient-2" x1="-145.85" y1="-197.22" x2="-145.85" y2="-31.16" gradientTransform="rotate(-5 2421.068 -2081.298)" gradientUnits="userSpaceOnUse"><stop offset=".13"/><stop offset=".2" stop-color="#0f0f0f"/><stop offset=".32" stop-color="#363636"/><stop offset=".49" stop-color="#767676"/><stop offset=".7" stop-color="#ccc"/><stop offset=".82" stop-color="#fff"/></linearGradient><linearGradient id="linear-gradient-3" x1="933.4" y1="-139.05" x2="933.4" y2="59.44" gradientTransform="matrix(1.82 -.02 .12 1.05 -1635.49 162.94)" xlink:href="#linear-gradient-2"/><linearGradient id="linear-gradient-4" x1="365.46" y1="296.05" x2="365.46" y2="465.03" gradientTransform="rotate(7.23 2490.823 -2071.825)" xlink:href="#linear-gradient"/><linearGradient id="linear-gradient-5" x1="364.35" y1="303.71" x2="364.35" y2="481" gradientTransform="rotate(7.23 2490.823 -2071.825)" xlink:href="#linear-gradient-2"/><linearGradient id="linear-gradient-6" x1="59.79" y1="99.95" x2="72.76" y2="99.95" gradientUnits="userSpaceOnUse"><stop offset=".12" stop-color="#c58e23"/><stop offset=".28" stop-color="#c08521"/><stop offset=".71" stop-color="#b5711c"/><stop offset="1" stop-color="#b16a1a"/></linearGradient><linearGradient id="linear-gradient-7" x1="96.1" y1="120.96" x2="109.07" y2="120.96" xlink:href="#linear-gradient-6"/><linearGradient id="linear-gradient-8" x1="6163.33" y1="-2899.84" x2="6108.07" y2="-2900.73" gradientTransform="rotate(151.6 2735.098 -2176.198)" gradientUnits="userSpaceOnUse"><stop offset="0" stop-color="#b16a1a"/><stop offset=".29" stop-color="#b5711c"/><stop offset=".72" stop-color="#c08521"/><stop offset=".88" stop-color="#c58e23"/></linearGradient><linearGradient id="linear-gradient-9" x1="6139.12" y1="-2896.62" x2="6124.61" y2="-2908.35" gradientTransform="rotate(151.6 2735.098 -2176.198)" gradientUnits="userSpaceOnUse"><stop offset="0" stop-color="#2a4980"/><stop offset=".23" stop-color="#2e5080"/><stop offset=".58" stop-color="#396481"/><stop offset=".88" stop-color="#467b82"/></linearGradient><linearGradient id="linear-gradient-10" x1="119.57" y1="50.99" x2="116.94" y2="56.63" gradientUnits="userSpaceOnUse"><stop offset=".11" stop-color="#f7e436"/><stop offset=".34" stop-color="#f4d733"/><stop offset=".77" stop-color="#edb62c"/><stop offset="1" stop-color="#e8a127"/></linearGradient><linearGradient id="linear-gradient-11" x1="82.1" y1="41.3" x2="118.04" y2="122.02" xlink:href="#linear-gradient-10"/><linearGradient id="linear-gradient-12" x1="83.1" y1="104.17" x2="117.03" y2="59.15" gradientUnits="userSpaceOnUse"><stop offset="0" stop-color="#3e6e84"/><stop offset=".12" stop-color="#427589"/><stop offset=".3" stop-color="#4e8995"/><stop offset=".51" stop-color="#60a9aa"/><stop offset=".75" stop-color="#7ad6c6"/><stop offset=".88" stop-color="#8bf3d9"/></linearGradient><linearGradient id="linear-gradient-13" x1="35.19" y1="152.99" x2="75.16" y2="99.95" gradientUnits="userSpaceOnUse"><stop offset=".11" stop-color="#f7e436"/><stop offset=".3" stop-color="#f5dd34"/><stop offset=".59" stop-color="#f1c930"/><stop offset=".93" stop-color="#eaa929"/><stop offset="1" stop-color="#e8a127"/></linearGradient><linearGradient id="linear-gradient-14" x1="35.25" y1="147.1" x2="75.1" y2="105.84" gradientUnits="userSpaceOnUse"><stop offset="0" stop-color="#2e515b"/><stop offset=".22" stop-color="#335862"/><stop offset=".54" stop-color="#416b76"/><stop offset=".88" stop-color="#548792"/></linearGradient><linearGradient id="linear-gradient-15" x1="46.62" y1="140.74" x2="81.24" y2="109.57" gradientUnits="userSpaceOnUse"><stop offset="0" stop-color="#52828f"/><stop offset=".19" stop-color="#568993"/><stop offset=".47" stop-color="#629da0"/><stop offset=".81" stop-color="#75bdb4"/><stop offset=".88" stop-color="#7ac5b9"/></linearGradient><linearGradient id="linear-gradient-67" x1="4930.1" y1="184.33" x2="4877.99" y2="151.77" gradientTransform="matrix(-1 0 0 1 4986.5 0)" gradientUnits="userSpaceOnUse"><stop offset="0" stop-color="#355ea6"/><stop offset=".2" stop-color="#3965a6"/><stop offset=".48" stop-color="#4579a7"/><stop offset=".83" stop-color="#5799a8"/><stop offset=".88" stop-color="#5b9fa8"/></linearGradient><linearGradient id="linear-gradient-16" x1="33" y1="12.47" x2="33" y2="175.58" gradientUnits="userSpaceOnUse"><stop offset=".33" stop-color="#fff"/><stop offset=".43" stop-color="#fffef6"/><stop offset=".59" stop-color="#fefcde"/><stop offset=".8" stop-color="#fdf9b6"/><stop offset="1" stop-color="#fbf588"/></linearGradient><linearGradient id="linear-gradient-66" x1="4972.7" y1="176.94" x2="4975.7" y2="176.94" xlink:href="#linear-gradient-63"/><linearGradient id="linear-gradient-17" x1="32.36" y1="19.24" x2="32.36" y2="183.76" xlink:href="#linear-gradient-16"/><linearGradient id="linear-gradient-65" x1="4968.04" y1="136.15" x2="4971.03" y2="136.15" xlink:href="#linear-gradient-63"/><linearGradient id="linear-gradient-18" x1="1113.62" y1="-16.37" x2="1113.62" y2="180.5" gradientTransform="matrix(1.82 .07 -.04 1.05 -1974.83 -64.88)" xlink:href="#linear-gradient-16"/><linearGradient id="linear-gradient-64" x1="5012.22" y1="161.07" x2="5015.61" y2="161.07" xlink:href="#linear-gradient-63"/><linearGradient id="linear-gradient-19" x1="78.56" y1="8.97" x2="78.56" y2="176.37" xlink:href="#linear-gradient-16"/><linearGradient id="linear-gradient-63" x1="5011.49" y1="201.13" x2="5014.87" y2="201.13" gradientTransform="matrix(-1 0 0 1 5073.39 0)" gradientUnits="userSpaceOnUse"><stop offset=".11" stop-color="#b48524"/><stop offset=".48" stop-color="#af7e21"/><stop offset="1" stop-color="#a16b1a"/></linearGradient><linearGradient id="linear-gradient-20" x1="74.72" y1="16.78" x2="74.72" y2="192.43" xlink:href="#linear-gradient-16"/><linearGradient id="linear-gradient-21" x1="8.81" y1="104.53" x2="36.71" y2="104.53" gradientUnits="userSpaceOnUse"><stop offset="0" stop-color="#aa781d"/><stop offset="1" stop-color="#f5de34"/></linearGradient><linearGradient id="linear-gradient-22" x1="6.48" y1="82.79" x2="28.63" y2="82.79" gradientUnits="userSpaceOnUse"><stop offset="0" stop-color="#f5de34"/><stop offset="1" stop-color="#aa781d"/></linearGradient><linearGradient id="linear-gradient-23" x1="16.58" y1="90.71" x2="13.98" y2="74.32" xlink:href="#linear-gradient-21"/><linearGradient id="linear-gradient-24" x1="73.11" y1="104.53" x2="101.02" y2="104.53" xlink:href="#linear-gradient-21"/><linearGradient id="linear-gradient-25" x1="81.19" y1="82.79" x2="103.34" y2="82.79" xlink:href="#linear-gradient-22"/><linearGradient id="linear-gradient-26" x1="95.83" y1="93.03" x2="92.73" y2="73.49" xlink:href="#linear-gradient-21"/><linearGradient id="linear-gradient-27" x1="37.6" y1="174.11" x2="71.98" y2="174.11" xlink:href="#linear-gradient-22"/><linearGradient id="linear-gradient-28" x1="37.6" y1="174.11" x2="71.98" y2="174.11" gradientUnits="userSpaceOnUse"><stop offset="0" stop-color="#e1ba2c"/><stop offset="1" stop-color="#a16919"/></linearGradient><linearGradient id="linear-gradient-29" x1="40.13" y1="169.12" x2="69.46" y2="169.12" xlink:href="#linear-gradient-22"/><linearGradient id="linear-gradient-30" x1="40.13" y1="169.12" x2="69.46" y2="169.12" xlink:href="#linear-gradient-28"/><linearGradient id="linear-gradient-31" x1="43.06" y1="165.15" x2="66.52" y2="165.15" xlink:href="#linear-gradient-22"/><linearGradient id="linear-gradient-32" x1="43.06" y1="165.15" x2="66.52" y2="165.15" xlink:href="#linear-gradient-28"/><linearGradient id="linear-gradient-33" x1="48.16" y1="149.28" x2="61.43" y2="149.28" xlink:href="#linear-gradient-22"/><linearGradient id="linear-gradient-34" x1="43.6" y1="130.41" x2="65.99" y2="130.41" gradientUnits="userSpaceOnUse"><stop offset="0" stop-color="#f9ed38"/><stop offset="1" stop-color="#b28721"/></linearGradient><linearGradient id="linear-gradient-35" x1="43.6" y1="130.41" x2="65.99" y2="130.41" xlink:href="#linear-gradient-28"/><linearGradient id="linear-gradient-36" x1="27.05" y1="101.02" x2="82.53" y2="101.02" xlink:href="#linear-gradient-22"/><linearGradient id="linear-gradient-37" x1="27.05" y1="101.02" x2="82.53" y2="101.02" xlink:href="#linear-gradient-34"/><linearGradient id="linear-gradient-38" x1="25.8" y1="100.57" x2="83.37" y2="100.57" xlink:href="#linear-gradient-28"/><linearGradient id="linear-gradient-39" x1="30.46" y1="71.76" x2="79.12" y2="71.76" xlink:href="#linear-gradient-21"/><linearGradient id="linear-gradient-62" x1="43.24" y1="192.54" x2="121.2" y2="143.83" xlink:href="#linear-gradient-8"/><linearGradient id="linear-gradient-61" x1="9.56" y1="169.05" x2="45.82" y2="169.05" gradientUnits="userSpaceOnUse"><stop offset="0" stop-color="#5596fb"/><stop offset=".14" stop-color="#599dfb"/><stop offset=".35" stop-color="#64b1fa"/><stop offset=".6" stop-color="#76d1f9"/><stop offset=".88" stop-color="#8ffef7"/><stop offset=".88" stop-color="#90fff7"/></linearGradient><linearGradient id="linear-gradient-60" x1="4.76" y1="135.6" x2="7.74" y2="135.6" xlink:href="#linear-gradient-55"/><linearGradient id="linear-gradient-40" x1="54.79" y1="95.66" x2="49.9" y2="104.49" gradientUnits="userSpaceOnUse"><stop offset="0" stop-color="#3c0e02"/><stop offset=".19" stop-color="#500c07"/><stop offset=".57" stop-color="#850712"/><stop offset="1" stop-color="#c70121"/></linearGradient><linearGradient id="linear-gradient-41" x1="53.63" y1="96.38" x2="59.49" y2="103.88" gradientUnits="userSpaceOnUse"><stop offset="0" stop-color="#8b0c0c"/><stop offset=".39" stop-color="#9f0813"/><stop offset="1" stop-color="#c70121"/></linearGradient><linearGradient id="linear-gradient-42" x1="50.45" y1="97.51" x2="52.63" y2="92.37" gradientUnits="userSpaceOnUse"><stop offset="0" stop-color="#711404"/><stop offset=".26" stop-color="#85100b"/><stop offset=".81" stop-color="#ba051b"/><stop offset="1" stop-color="#ce0122"/></linearGradient><linearGradient id="linear-gradient-43" x1="56.78" y1="92.36" x2="59.33" y2="98.08" gradientUnits="userSpaceOnUse"><stop offset=".18" stop-color="#e07e60"/><stop offset="1" stop-color="#b31313"/></linearGradient><linearGradient id="linear-gradient-44" x1="49.76" y1="91.75" x2="59.76" y2="91.75" xlink:href="#linear-gradient-43"/><linearGradient id="linear-gradient-45" x1="34.9" y1="95.77" x2="31.45" y2="102" xlink:href="#linear-gradient-40"/><linearGradient id="linear-gradient-46" x1="33.7" y1="93.79" x2="39.7" y2="101.47" xlink:href="#linear-gradient-41"/><linearGradient id="linear-gradient-47" x1="30.77" y1="95.51" x2="32.64" y2="91.09" xlink:href="#linear-gradient-42"/><linearGradient id="linear-gradient-48" x1="35.75" y1="91.21" x2="38.34" y2="97.03" xlink:href="#linear-gradient-43"/><linearGradient id="linear-gradient-49" x1="31.34" y1="90.87" x2="39.93" y2="90.87" xlink:href="#linear-gradient-43"/><linearGradient id="linear-gradient-50" x1="78.85" y1="94.27" x2="73.35" y2="104.19" xlink:href="#linear-gradient-40"/><linearGradient id="linear-gradient-51" x1="70.88" y1="93.72" x2="77.21" y2="101.81" xlink:href="#linear-gradient-41"/><linearGradient id="linear-gradient-52" x1="77.67" y1="94.85" x2="79.33" y2="90.95" xlink:href="#linear-gradient-42"/><linearGradient id="linear-gradient-53" x1="70.57" y1="90.08" x2="73.3" y2="96.2" xlink:href="#linear-gradient-43"/><linearGradient id="linear-gradient-54" x1="69.78" y1="90.87" x2="78.36" y2="90.87" xlink:href="#linear-gradient-43"/><linearGradient id="linear-gradient-55" x1="25.71" y1="123.77" x2="35.17" y2="213.74" gradientUnits="userSpaceOnUse"><stop offset=".11" stop-color="#daaf39"/><stop offset=".36" stop-color="#d5a835"/><stop offset=".73" stop-color="#c7942a"/><stop offset="1" stop-color="#ba8220"/></linearGradient><linearGradient id="linear-gradient-56" x1="25.71" y1="123.77" x2="35.17" y2="213.74" gradientUnits="userSpaceOnUse"><stop offset=".11" stop-color="#bb8527"/><stop offset=".44" stop-color="#b57e24"/><stop offset=".91" stop-color="#a56a1a"/><stop offset="1" stop-color="#a16618"/></linearGradient><linearGradient id="linear-gradient-57" x1="49.61" y1="161.07" x2="52.99" y2="161.07" xlink:href="#linear-gradient-55"/><linearGradient id="linear-gradient-58" x1="48.82" y1="201.11" x2="52.21" y2="201.11" xlink:href="#linear-gradient-55"/><linearGradient id="linear-gradient-59" x1="10.32" y1="176.64" x2="13.31" y2="176.64" xlink:href="#linear-gradient-55"/><mask id="mask-5" x="59.35" y="16.78" width="30.68" height="177.22" maskUnits="userSpaceOnUse"><path d="M59.35 159.29L67.19 194l7.12-17.53S90.09 70.36 90 42.28 72.74 5.7 67.31 35.3s-7.96 123.99-7.96 123.99z" fill="url(#linear-gradient-5)"/></mask><mask id="mask-4" x="52.17" y="8.97" width="52.77" height="169.54" maskUnits="userSpaceOnUse"><path d="M52.9 143.2L72 178.51 84.94 163s22.47-99.55 19.77-126.8S66.13-2.89 57.77 24.66 52.9 143.2 52.9 143.2z" fill="url(#linear-gradient-4)"/></mask><mask id="mask-3" x="32.18" y="0" width="45.48" height="208.92" maskUnits="userSpaceOnUse"><path d="M44.32 171.11l21.35 37.81 9.13-22.46S81 58.8 75.08 26.29s-38.76-37.1-42.34-1.17 11.58 145.99 11.58 145.99z" fill="url(#linear-gradient-3)"/></mask><mask id="mask-2" x="19.01" y="19.24" width="26.72" height="165.64" maskUnits="userSpaceOnUse"><path d="M28.67 155.5l12.52 29.37 4.51-18.15S46.27 65 42.29 39.4s-22-28.24-23.19.43 9.57 115.67 9.57 115.67z" fill="url(#linear-gradient-2)"/></mask><mask id="mask" x="7.64" y="12.47" width="50.71" height="164.58" maskUnits="userSpaceOnUse"><path d="M20.12 149.36l23.63 27.69L54.2 158.2s8.1-102.13 1.67-127.29-43.15-25.2-47.48 3.74 11.73 114.71 11.73 114.71z" fill="url(#linear-gradient)"/></mask><clipPath id="clip-path-3"><path class="cls-6" d="M59.72 127.63c1.6 1 12.19-5.91 15.53-15.53S79.92 89.78 79.4 87c-.63-3.26-2.57-4.85-6.7-3.35s-5.43 4.22-5.37 8.76-.64 16.61-3.83 23.94-5.38 10.27-3.78 11.28z"/></clipPath><clipPath id="clip-path-2"><path class="cls-6" d="M38.09 83.45C34 82 32 83.55 31.39 86.8c-.53 2.75.8 15.45 4.15 25.07s13.92 16.54 15.52 15.52-.59-3.92-3.77-11.24-3.89-19.42-3.83-23.94-1.25-7.21-5.37-8.76z"/></clipPath><clipPath id="clip-path"><path class="cls-6" d="M47.27 105c2.07 11.09 5.52 22.93 8.23 22.85s6.6-11.64 8.06-22.85S65 84.58 55.5 84.6s-10.33 9.21-8.23 20.4z"/></clipPath><style>.cls-6{fill:none}.cls-8{fill:#d5a028}.cls-9{fill:#8f531e}.cls-13{fill:#1e3445}.cls-16{opacity:.71}.cls-17{fill:#fdfa6f}.cls-20{fill:#2e515b}.cls-23{fill:#fdfaad}.cls-39{fill:#a97c1e}.cls-41,.cls-42{fill:#f4e436}.cls-41{opacity:.64}.cls-231,.cls-232,.cls-233,.cls-234,.cls-235,.cls-236,.cls-237,.cls-238,.cls-239,.cls-240,.cls-241,.cls-242,.cls-243,.cls-44{fill:#fff}.cls-47,.cls-51{fill:#8a6218}.cls-51{opacity:.48}.cls-52{fill:#f9eb75}.cls-53{fill:#785418;opacity:.55}.cls-60{fill:#956a1a}.cls-71{fill:#fdfcb0}.cls-73{fill:#c79c25}.cls-74{fill:#c89d25}.cls-76{fill:#c99f26}.cls-78{fill:#caa126}.cls-82{fill:#cda427}.cls-131{fill:#e6c333}.cls-133{fill:#e7c534}.cls-135{fill:#e8c734}.cls-169{fill:#9f6e1a}.cls-170{fill:#a06f1a}.cls-172{fill:#a2701b}.cls-231{opacity:0}.cls-232{opacity:.08}.cls-233{opacity:.15}.cls-234{opacity:.23}.cls-235{opacity:.31}.cls-236{opacity:.38}.cls-237{opacity:.46}.cls-238{opacity:.54}.cls-239{opacity:.62}.cls-240{opacity:.69}.cls-241{opacity:.77}.cls-242{opacity:.85}.cls-243{opacity:.92}.cls-248{fill:#864a11}.cls-249{fill:#53190a}.cls-251{fill:#b86818}.cls-251,.cls-269{opacity:.63}.cls-252{fill:#f1cc30}.cls-257{fill:#305675}.cls-258{fill:#274562}.cls-259{fill:#e48920}.cls-261{fill:#62ac98}.cls-266{fill:#69390d}.cls-267{fill:#401307}.cls-269{fill:#955315}.cls-270{fill:#c29523}.cls-271{fill:#d2a92e}.cls-272{fill:#65360d}.cls-279{fill:#bc771c}</style></defs><path d="M62.67 95.73c-1.64-.8-3.39.2-2.73 2.44 2.47 1.19 8.55 5.33 10.19 6.07 2.13 1 3.87-1.71 1.51-3.07-3.18-1.82-6.92-4.27-8.97-5.44z" fill="url(#linear-gradient-6)"/><path class="cls-8" d="M71.48 101.08a2.14 2.14 0 00-2.25 2.69c.36.21.67.37.89.47 2.13 1 3.87-1.71 1.51-3.07z"/><path class="cls-9" d="M69.93 101.92a1.82 1.82 0 00.19 2.31c2.13 1 3.86-1.68 1.53-3.06a2 2 0 00-1.72.75zm-5.37-2.81a2.26 2.26 0 00-.23 1.62l.3.19c-.09-1.18.67-1.89 1.61-2.54a1.4 1.4 0 00-1.68.73z"/><path d="M99 116.74c-1.63-.8-3.38.19-2.72 2.43 2.46 1.18 8.54 5.33 10.18 6.08 2.14 1 3.87-1.71 1.5-3.07-3.19-1.82-6.96-4.26-8.96-5.44z" fill="url(#linear-gradient-7)"/><path class="cls-8" d="M107.78 122.09a2.13 2.13 0 00-2.24 2.69c.36.21.66.37.88.47 2.14 1 3.87-1.71 1.5-3.07z"/><path class="cls-9" d="M106.23 122.94a1.83 1.83 0 00.19 2.31c2.13 1 3.86-1.69 1.53-3.06a2 2 0 00-1.72.75zm-5.37-2.81a2.19 2.19 0 00-.23 1.62l.3.19c-.09-1.18.67-1.89 1.6-2.55a1.39 1.39 0 00-1.67.74z"/><path d="M111.24 125l33-54.8s15.72 19.67 1.74 42c-14.89 23.92-34.74 12.8-34.74 12.8z" fill="url(#linear-gradient-8)"/><path class="cls-9" d="M111.24 125l33-54.8-28.14 53.58c17.47 3.84 29.88-11.54 29.88-11.54-14.89 23.88-34.74 12.76-34.74 12.76z"/><path d="M122.35 118.66l20.5-34s6.62 9.89-2.06 23.78c-9.25 14.78-18.44 10.22-18.44 10.22z" fill="url(#linear-gradient-9)"/><path class="cls-13" d="M142.85 84.65l-1.4 2.35c2.8 5.75 1.58 13-1 17.65-7.88 14.17-16.85 12.31-17 12.28l-1.06 1.76s9.18 4.56 18.44-10.24c8.64-13.91 2.02-23.8 2.02-23.8z"/><path d="M108.17 50.37c0-1.88 2.39-3.39 3.57-3l15.69 9c1 1.52-.24 4.7-1 4.54-2.43-.51-18.26-9.3-18.26-10.54z" fill="url(#linear-gradient-10)"/><path fill="url(#linear-gradient-11)" d="M144.26 70.24l-33.02 54.81-55.36-31.97 33.01-54.8 55.37 31.96z"/><g class="cls-16"><path class="cls-17" d="M70.94 69.06A156.87 156.87 0 0191.38 59a84.81 84.81 0 0122.76-6.18L88.89 38.28 70 69.65z"/></g><path class="cls-17" d="M144.26 70.24l-33.02 54.81-55.36-31.97 54.89 29.52 33.49-52.36z"/><path fill="url(#linear-gradient-12)" d="M134.94 72.65l-26.06 43.25L65.2 90.68l26.04-43.26 43.7 25.23z"/><path class="cls-20" d="M91.8 47.74c9.76 11.71 23.51 14.91 27.28 28.91 3.62 13.46-2.51 27.72-11.28 38.61l1.09.63 26.06-43.25z" opacity=".27"/><path class="cls-20" d="M65.2 90.68l26-43.25s12.73 15.3 1.6 33.1C81 99.48 65.2 90.68 65.2 90.68z" opacity=".67"/><path class="cls-20" d="M82.16 84.1a1.66 1.66 0 01-1.5-.86c-2.61-5.65 3-14.48 5.42-19.31 2.29-4.5 4.81-8.88 7.31-13.26a24.14 24.14 0 00-2.15-3.25l-26 43.25S81 99.48 92.85 80.52c.52-.84 1-1.67 1.4-2.49a19.19 19.19 0 01-12.09 6.07z"/><path fill="url(#linear-gradient-13)" d="M110.35 126.47l-55 31.96L0 126.47l54.99-31.96 55.36 31.96z"/><path class="cls-23" d="M96.46 126.47H13.4l41.53-26.52 41.53 26.52z"/><path fill="url(#linear-gradient-14)" d="M96.46 126.47L55.3 150.38l-41.41-23.91 41.14-23.92 41.43 23.92z"/><path class="cls-20" d="M39.47 122.45a102.39 102.39 0 017.85-12.39 51.58 51.58 0 014.47-5.62l-37.91 22 20.66 11.92a58.45 58.45 0 014.93-15.91z" opacity=".36"/><g class="cls-16"><path class="cls-20" d="M29.27 123.46c3-3.31 10.25-11.5 10.93-12.29l-26.31 15.3 10.05 5.8c.86-3.32 3.06-6.27 5.33-8.81z"/></g><path fill="url(#linear-gradient-15)" d="M96.46 126.47L55.3 150.38l-.27-47.83 41.43 23.92z"/><path class="cls-20" d="M61 137.48c-4-3.7-4.33-15.68-5.84-20.7l.19 33.6 22-12.82s-12.18 3.85-16.35-.08z" opacity=".46"/><g mask="url(#mask)"><path d="M8.39 34.65c-3 20.13 3.83 67.72 8.29 94.85C27.2 143.38 40 152.15 52.85 160.62l1.34-2.42S62.3 56.07 55.87 30.91 12.72 5.71 8.39 34.65z" fill="url(#linear-gradient-16)" opacity=".79"/></g><g mask="url(#mask-2)"><path d="M19.1 39.83c-.79 19.65 4 66.65 7.09 94.32A142.5 142.5 0 0045.72 149c0-30.3-.49-90.66-3.43-109.6-4-25.64-22.03-28.24-23.19.43z" fill="url(#linear-gradient-17)"/></g><g mask="url(#mask-3)"><path d="M32.73 25.12c-2.46 24.62 3.89 84 8.13 119 10.95 7.64 22.79 14.07 34.9 20.09 1.47-38.06 3.71-113.91-.69-137.9-5.98-32.52-38.75-37.12-42.34-1.19z" fill="url(#linear-gradient-18)"/></g><g mask="url(#mask-4)"><path d="M57.77 24.66C49.41 52.22 52.9 143.2 52.9 143.2l8.47 15.62 1.38 1c9-8.05 18.53-14.65 27.67-22.35C96.88 106 106.54 54.61 104.71 36.2 102 9 66.13-2.89 57.77 24.66z" fill="url(#linear-gradient-19)" opacity=".79"/></g><g mask="url(#mask-5)"><path d="M67.31 35.3c-5 27.2-7.52 109.08-7.9 122.19 1.12.76 2.24 1.51 3.36 2.29 5.14-4.58 10.45-8.72 15.77-12.82C83.21 113.39 90.07 60.83 90 42.28 90 14.19 72.74 5.7 67.31 35.3z" fill="url(#linear-gradient-20)"/></g><path d="M27.86 116.91a1.67 1.67 0 00-2 1.3 5.32 5.32 0 002.43 5.28 4.86 4.86 0 002.7.84 4.77 4.77 0 002.73-.89c2.7-1.87 3.08-4.06 2.94-5.57-.5-5-7.64-11.14-12-14.15-7.14-4.94-8.41-12.28-9.74-18.15-.2-.9-2-.83-2.91-.83s-3.3 1.65-3.23 2.57c.8 10.78 7.73 19 14.56 21.92 5 2.09 9.7 6.05 10 9 .06.59 0 1.47-1.51 2.49a1.36 1.36 0 01-1.68 0 2.06 2.06 0 01-1-1.81 1.68 1.68 0 00-1.29-2z" fill="url(#linear-gradient-21)"/><path class="cls-39" d="M25.82 118.82a5.45 5.45 0 002.51 4.67 4.86 4.86 0 002.7.84 4.77 4.77 0 002.73-.89c2.7-1.87 3.08-4.06 2.94-5.57-.5-5-7.64-11.14-12-14.15-7.14-4.94-8.41-12.28-9.74-18.15-.2-.9-2-.83-2.91-.83s-3.3 1.65-3.23 2.57A27.66 27.66 0 0010.51 95a3.73 3.73 0 016 0c1.15 1.42 2.75 7.4 11.32 13.14 2.9 1.94 6 4.08 6.82 7.69a5.88 5.88 0 01-.92 4.91c-1.42 1.86-5.73 3.55-7.91-1.92z"/><path d="M28.5 90.19c.58-4-1-8.53-.84-12.63l-.29-.3c-2.91-6-11.29-5.68-15.55-1.69a12.36 12.36 0 00-3.91 7.59c-.19 1.85.56 3.59.31 5.31-.22 1.53-1.42 3-1.74 4.38 3 .47 6.33-1.29 6.72-4.56 1.22.79 2.89 1.2 4.1.11-.92-2.19-2.3-4-1.49-6.48a3.94 3.94 0 015.66-2.52 10.12 10.12 0 013.78 5c.66 2.37-1.16 6.97 3.25 5.79z" fill="url(#linear-gradient-22)"/><path class="cls-41" d="M14.19 95.44c-.8-1-2.18-.8-2 .27-.11 1.82 3.33 6.62 6.28 9.48 1.32 1.29 8.79 5.68 9.82 4.63.74-.75-2.79-1.2-7.95-5.54-3.68-3.07-5.08-7.57-6.15-8.84z"/><path class="cls-42" d="M27.28 117.44c-2.15 0 .23 3.15.91 4-.42-.77-.75-2.09-.32-2.72s.57-1.31-.59-1.28z"/><path d="M23 75.6c-2.26-2.88-10.19-2.6-12.54 2.75A21.11 21.11 0 009.1 85c-.24 2.31.24 5.16-1.17 7 2.86-.27 4.06-3 4.54-5.45a10.53 10.53 0 003.14.76 7.41 7.41 0 01-3-3.12 4.73 4.73 0 01-1.74 1.87c.09-3.59.1-6.14 2.92-8.62 2.3-1.98 6.28-3.3 9.21-1.84z" fill="url(#linear-gradient-23)"/><path class="cls-44" d="M13.43 96.62c-.95 1 1.12 4.2 2.12 3.94s-1.3-4.22-2.12-3.94zm3.11 4.69a.67.67 0 00.2.88c.3.28.71.34.9.12s.1-.61-.2-.88a.66.66 0 00-.9-.12zm-3.09-24.87c.17 1 4.31-.9 4.12-1.74-.91-1.04-4.29.72-4.12 1.74zm-1.74 1.03c-.3.28-.4.68-.21.89s.59.16.91-.12.4-.67.2-.88-.61-.16-.9.11z"/><path d="M86.45 109.23c6.84-2.88 13.77-11.15 14.57-21.92.06-.92-2.31-2.57-3.23-2.57s-2.7-.07-2.91.83c-1.34 5.87-2.61 13.21-9.75 18.15-4.35 3-11.48 9.13-12 14.15-.15 1.51.23 3.71 2.93 5.57a4.81 4.81 0 002.74.89 4.85 4.85 0 002.69-.84 5.31 5.31 0 002.43-5.28 1.67 1.67 0 00-3.27.67 2.08 2.08 0 01-1 1.81 1.37 1.37 0 01-1.69 0c-1.47-1-1.56-1.91-1.51-2.49.31-2.92 5.02-6.88 10-8.97z" fill="url(#linear-gradient-24)"/><path class="cls-39" d="M82 108.13c8.6-5.74 10.2-11.72 11.35-13.13a3.72 3.72 0 016 0 27.71 27.71 0 001.65-7.7c.06-.92-2.31-2.57-3.23-2.57s-2.7-.07-2.91.83c-1.34 5.87-2.61 13.21-9.75 18.15-4.35 3-11.48 9.13-12 14.15-.15 1.51.23 3.71 2.93 5.57a4.81 4.81 0 002.74.89 4.85 4.85 0 002.69-.84 5.46 5.46 0 002.53-4.66c-2.21 5.47-6.49 3.78-7.87 1.91a5.9 5.9 0 01-.92-4.91c.79-3.61 3.92-5.74 6.79-7.69z"/><path d="M96.62 88.29c.39 3.27 3.69 5 6.72 4.56-.31-1.37-1.52-2.89-1.74-4.36-.25-1.73.5-3.46.31-5.31A12.37 12.37 0 0098 75.57c-4.26-4-12.64-4.33-15.55 1.69l-.29.3c.14 4.1-1.41 8.68-.84 12.63 4.41 1.18 2.59-3.43 3.26-5.78a10.09 10.09 0 013.77-5A3.94 3.94 0 0194 81.92c.81 2.52-.58 4.29-1.49 6.48 1.22 1.09 2.89.67 4.11-.11z" fill="url(#linear-gradient-25)"/><path class="cls-47" d="M88.6 72.79a8.08 8.08 0 00-6.15 4.48l-.29.3c.14 4.1-1.41 8.68-.84 12.63 2.3.61 2.9-.35 3-1.74-2.47-4.9-.69-13.01 4.28-15.67z"/><path class="cls-41" d="M95.62 95.44c-1.06 1.27-2.45 5.77-6.09 8.84-5.16 4.35-8.68 4.79-8 5.54 1 1.05 8.5-3.34 9.82-4.63 2.94-2.87 6.38-7.67 6.28-9.48.18-1.07-1.2-1.23-2.01-.27z"/><path class="cls-42" d="M82.54 117.44c-1.16 0-1 .65-.59 1.29s.11 2-.32 2.72c.68-.86 3.06-3.96.91-4.01z"/><path d="M97.23 84.27a7.38 7.38 0 01-3 3.12 10.57 10.57 0 003.14-.76c.47 2.4 1.67 5.18 4.53 5.45-1.4-1.88-.92-4.73-1.16-7a21.12 21.12 0 00-1.37-6.69C97 73 89.08 72.72 86.78 75.6c3-1.47 6.95-.15 9.29 1.91 2.81 2.49 2.83 5 2.91 8.62a4.77 4.77 0 01-1.75-1.86z" fill="url(#linear-gradient-26)"/><path class="cls-44" d="M94.27 100.56c1 .27 3.07-2.93 2.11-3.94-.81-.28-3.1 3.67-2.11 3.94zm-1.89.87c-.3.27-.4.67-.2.88s.6.16.9-.12.4-.68.2-.88a.65.65 0 00-.9.12zm-.12-26.73c-.2.84 3.94 2.76 4.11 1.74s-3.2-2.78-4.11-1.74zm4.95 2.66a.66.66 0 00.21.88c.3.28.7.33.9.12s.1-.61-.2-.89-.73-.32-.91-.11z"/><path d="M37.6 174.11c0 2.92 7.7 5.29 17.19 5.29S72 177 72 174.11s-7.69-5.3-17.18-5.3-17.22 2.37-17.22 5.3z" fill="url(#linear-gradient-27)"/><path d="M61 176.23c-3.16 1.91-6.87 1.91-11 1.44s-9.17-1.47-11.34-5a1.79 1.79 0 01-.13-.22 2.35 2.35 0 00-.91 1.7c0 2.92 7.7 5.29 17.19 5.29S72 177 72 174.11s-7.69-5.3-17.18-5.3h-1.87c3.58.25 5 .78 7.73 3.07.95.86 2.38 3.12.32 4.35z" fill="url(#linear-gradient-28)"/><path class="cls-51" d="M70.53 176.24a8.8 8.8 0 00-5.75-5.7l-.25-.11a2.45 2.45 0 01-.63.46 8.54 8.54 0 01-2.45.79 1.23 1.23 0 00-.24.1c2.39.64 4.28 2.14 4.72 4.61a7.4 7.4 0 01.09 1.72 14.71 14.71 0 004.51-1.87z"/><path class="cls-52" d="M45.69 176.1a8.53 8.53 0 011.33-3 10 10 0 01-3.11-2 8.64 8.64 0 00-3.91 1.72c1.35 1.83 3.34 2.71 5.69 3.28z"/><path class="cls-53" d="M70.37 176.34a2.91 2.91 0 001.63-2.23c0-2.93-7.69-5.3-17.18-5.3-6.85 0-12.76 1.24-15.52 3a3.81 3.81 0 013.11.29 26 26 0 009.42 2.28c3.72.06 9.08 0 12.6-1.15 1.78-.58 2.45-.93 4-.54a2.94 2.94 0 012 3.53.33.33 0 00-.06.12z"/><path d="M40.13 169.13c0 2.74 6.56 5 14.67 5s14.67-2.23 14.67-5-6.57-5-14.67-5-14.67 2.24-14.67 5z" fill="url(#linear-gradient-29)"/><path d="M60.11 171.12c-2.7 1.81-5.86 1.81-9.42 1.37s-7.83-1.38-9.69-4.74l-.1-.21a2.28 2.28 0 00-.77 1.6c0 2.74 6.56 5 14.67 5s14.67-2.23 14.67-5-6.57-5-14.67-5h-1.59a8.79 8.79 0 016.59 2.89c.83.81 2.05 2.97.31 4.09z" fill="url(#linear-gradient-30)"/><path class="cls-51" d="M68.23 171.13a8 8 0 00-4.9-5.37l-.22-.1a2 2 0 01-.53.43 7.17 7.17 0 01-2.09.74l-.21.09a5.35 5.35 0 014 4.35 7.14 7.14 0 01.08 1.62 11.82 11.82 0 003.87-1.76z"/><path class="cls-52" d="M47.34 171.09a9.24 9.24 0 011.76-2.53 8.78 8.78 0 01-3.6-2.27 7.15 7.15 0 00-3.32 1.62c1.19 1.81 3.02 2.63 5.16 3.18z"/><path class="cls-53" d="M68.09 171.24a2.76 2.76 0 001.37-2.1c0-2.76-6.57-5-14.67-5-5.85 0-10.89 1.17-13.25 2.84a3 3 0 012.66.27 20.2 20.2 0 008 2.15c3.18.07 7.75 0 10.75-1.07 1.52-.54 2.1-.87 3.41-.51a2.81 2.81 0 011.7 3.33s.03.05.03.09z"/><ellipse cx="54.79" cy="165.15" rx="11.73" ry="3.98" fill="url(#linear-gradient-31)"/><path d="M59 166.74c-2.16 1.44-4.69 1.44-7.52 1.08s-6.26-1.1-7.74-3.78l-.08-.17a1.81 1.81 0 00-.63 1.27c0 2.2 5.25 4 11.73 4s11.72-1.78 11.72-4-5.25-4-11.72-4h-1.27a7 7 0 015.27 2.31c.7.67 1.67 2.36.24 3.29z" fill="url(#linear-gradient-32)"/><path class="cls-51" d="M65.53 166.74a6.35 6.35 0 00-3.92-4.28l-.17-.08a1.59 1.59 0 01-.43.33 5.34 5.34 0 01-1.67.59l-.16.08a4.26 4.26 0 013.22 3.46 6.11 6.11 0 01.07 1.31 9.55 9.55 0 003.06-1.41z"/><path class="cls-52" d="M49.64 166.91a5.65 5.65 0 011.58-1.85l.06-.08a7.3 7.3 0 01-3.91-2.09 5.77 5.77 0 00-2.65 1.3c1.1 1.65 2.86 2.28 4.92 2.72z"/><path class="cls-44" d="M45.66 163.6c-.22 1.37 3.29 2.84 4 2.06s-3.49-2.75-4-2.06z"/><path class="cls-44" d="M49.56 165.48c0 .24.22.48.57.53s.66-.11.69-.34-.22-.49-.57-.53-.65.09-.69.34zm-2.93 9.78c0 .17.18.37.44.4s.51-.08.53-.27-.16-.37-.43-.41-.51.08-.54.28zm-3.55-7.43c-.22 1.37 3.3 2.84 4 2.06s-3.48-2.75-4-2.06zm4.46 2.1c0 .28.26.57.67.63s.77-.12.81-.41-.26-.56-.67-.62-.76.12-.81.4zm-6.8 2.37c-.21 1.37 3.3 2.84 4 2.06s-3.48-2.75-4-2.06zm4.17 2.39c0 .28.26.57.66.63s.77-.13.82-.41-.26-.56-.67-.62-.77.12-.81.4z"/><path d="M54.79 164.65h.08c5.05 0 6.56-2.22 6.56-2.22-4.56-10.2-.84-28.52-.84-28.52l-5.8 1-5.8-1s3.72 18.32-.83 28.52c0 0 1.51 2.17 6.55 2.22h.08z" fill="url(#linear-gradient-33)"/><path d="M54.79 164.65h.08c5.05 0 6.56-2.22 6.56-2.22-4.56-10.2-.84-28.52-.84-28.52l-5.8 1-5.8-1s.25 1.23.54 3.24a2.69 2.69 0 013.11-.39c2.57 1.17 4 4.57 4 11.2 0 6.19-1.69 12.51-3.67 13.68-1.19.7-3.29 1.07-4.57.1-.1.23-.19.46-.29.68 0 0 1.51 2.17 6.55 2.22h.08z" fill="#956a1a" opacity=".55"/><path class="cls-60" d="M54.79 164.65h.08a10.27 10.27 0 005.56-1.36c-1.46-3.54-1.57-7.87-1.5-11.71.06-2.76.17-5.5.24-8.26a44.84 44.84 0 011-9.33l-5.35.91-5.8-1s.1.53.26 1.46c3.18.46 6.94 0 8.66 3.93.9 2 .71 4.55.62 6.77-.11 2.53-.09 5-.37 7.57-.25 2.18-.38 4.8-1.51 6.68A7.07 7.07 0 0153 163.4a13.3 13.3 0 01-2.25.65 12.51 12.51 0 004 .6h.08z"/><path class="cls-42" d="M50.48 159c-.16 1.33.53 2.64 1.37 1.41 2.26-3.32 2.07-9 2.22-12.65.13-3.1-.06-10.06-2.28-9.1-.8 1.71.61 4.52.24 11.22-.31 5.57-1.29 6.89-1.55 9.12z"/><path d="M54.79 125.6H43.62s-1 9.6 11.07 9.6h.21c12.1.01 11.1-9.6 11.1-9.6H54.79z" fill="url(#linear-gradient-34)"/><path d="M54.58 133.15c-4.62.56-10.42-2.71-10.68-7.55h-.28s-1 9.6 11.07 9.6h.21c12.1.01 11.1-9.6 11.1-9.6h-7.18a4.49 4.49 0 01.77 1.26c1.3 3.3-2.08 5.94-5.01 6.29z" fill="url(#linear-gradient-35)"/><path class="cls-52" d="M46.23 128.88c.74 1.83 2.24 2.55 4.1 2.9.85.16 4.45.15 4.59-1.07.11-.94-3.88-1.15-4.71-1.42-.56-.2-4.74-2.16-3.98-.41z"/><path class="cls-44" d="M46.15 128.31c-.22 1.37 3.29 2.84 4 2.05s-3.48-2.74-4-2.05zm5.21 2.11c0 .28.26.56.67.62s.77-.13.81-.41-.26-.56-.66-.62-.78.13-.82.41z"/><path d="M27.06 72.88s-.5 22.35 6.36 39c7.5 18.2 21.37 17.29 21.37 17.29s13.87.92 21.37-17.29c6.85-16.63 6.36-39 6.36-39H27.06z" fill="url(#linear-gradient-36)"/><path d="M32.71 72.88h-5.65s-.5 22.35 6.36 39c4.71 11.43 11.92 15.32 16.64 16.64a52.39 52.39 0 01-7.18-5.75 37.25 37.25 0 01-6.82-9.77 51.94 51.94 0 01-4.51-12.19c-.67-3-1-6.18-1.41-9.28-.6-4.78-1-10 .5-14.7a12.44 12.44 0 012.07-3.95z" fill="#a97c1e" opacity=".27"/><path d="M30.41 72.88c.59 5.73.57 11.51 1 17.27.57 7.31 2 27.71 17.06 37.84a17.57 17.57 0 006.07 1.18 81.77 81.77 0 01-6.23-24.39 117.86 117.86 0 01.87-31.9z" fill="url(#linear-gradient-37)"/><path d="M60.33 128.26A22.9 22.9 0 0070.78 121a59.37 59.37 0 004.15-9.5c2.16-6.5 4.21-15.5 4.19-22.33 0-6.26-.69-16.28-.69-16.28H64.35a55.25 55.25 0 013.44 17.75 94.51 94.51 0 01-2 23c-1.12 5.12-2.65 10.24-5.46 14.62z" fill="url(#linear-gradient-38)"/><ellipse cx="54.79" cy="71.76" rx="24.33" ry="6.68" fill="url(#linear-gradient-39)"/><path d="M67.62 77.43c6.91-1.18 11.51-3.27 11.51-5.67 0-2.23-4-4.2-10.07-5.41a63.58 63.58 0 01-1.44 11.08z" opacity=".81" fill="#f2d231"/><path class="cls-39" d="M30.46 71.76c0 2.47 4.91 4.63 12.21 5.78a23.07 23.07 0 01-.81-11.43c-6.86 1.18-11.4 3.27-11.4 5.65z"/><path class="cls-42" d="M27.06 72.88c0 5.49 12.41 9.93 27.73 9.93s27.73-4.44 27.73-9.93c0-6.66-12.42-9.94-27.73-9.94s-27.73 3.28-27.73 9.94zm52.06-1.12c0 3.69-10.89 6.67-24.33 6.67s-24.33-3-24.33-6.67 10.9-6.68 24.33-6.68 24.33 2.99 24.33 6.68z"/><path d="M50.2 78.31c-10.11-.53-18-2.77-19.48-5.59a6 6 0 00-3.36 1.6c1.7 4.2 10.7 7.53 22.23 8.32a10 10 0 01.32-3.41 7.64 7.64 0 01.29-.92z" opacity=".66" fill="#fdfcb0"/><path d="M56.35 63.31C81 63.84 82 71.72 82.3 74.13a3.71 3.71 0 00.22-1.24c0-6.66-12.42-9.94-27.73-9.94s-27.73 3.28-27.73 9.94a4.45 4.45 0 001.1 2.78C24 65.31 47.75 63.12 56.35 63.31z" opacity=".61" fill="#a97c1e"/><path class="cls-71" d="M54.79 78.44c-7.9 0-14.9-1-19.35-2.63 3.76 2.58 8.66 3.49 13.09 3.93a70.85 70.85 0 0024-1.57c2.28-.6 7.86-2.69 7.87-5.75 0-5.42-12.12-7.18-15.09-7.42a74.59 74.59 0 00-14.75.18c1.37-.07 2.79-.1 4.23-.1 13.44 0 24.33 3 24.33 6.68s-10.89 6.68-24.33 6.68z"/><path class="cls-44" d="M28.79 73.31c-.58.07-1.38 1.12-1.38 1.12 1.7 3.88 9.62 7 20 8a11.68 11.68 0 01.36-1.23 55.32 55.32 0 01-5.92-.74c-3.85-.67-11.11-2.99-13.06-7.15z"/><path class="cls-71" d="M46.29 104.88c2.07 11.09 5.52 22.93 8.23 22.85s6.59-11.63 8.06-22.85S64 84.42 54.51 84.43s-10.33 9.22-8.22 20.45z"/><g clip-path="url(#clip-path)"><path class="cls-73" d="M45.17 84.58h19.86v43.39H45.17z"/><ellipse class="cls-73" cx="55.28" cy="106.25" rx="23.53" ry="8.14" transform="rotate(-89.9 55.286 106.25)"/><ellipse class="cls-73" cx="55.28" cy="106.25" rx="23.15" ry="8.01" transform="rotate(-89.9 55.286 106.25)"/><ellipse class="cls-74" cx="55.28" cy="106.25" rx="22.77" ry="7.88" transform="rotate(-89.9 55.286 106.25)"/><ellipse class="cls-74" cx="55.28" cy="106.25" rx="22.4" ry="7.74" transform="rotate(-89.9 55.286 106.25)"/><ellipse cx="55.28" cy="106.25" rx="22.02" ry="7.61" transform="rotate(-89.9 55.286 106.25)" fill="#c89e25"/><ellipse class="cls-76" cx="55.28" cy="106.25" rx="21.64" ry="7.48" transform="rotate(-89.9 55.286 106.25)"/><ellipse class="cls-76" cx="55.28" cy="106.25" rx="21.26" ry="7.35" transform="rotate(-89.9 55.286 106.25)"/><ellipse cx="55.28" cy="106.25" rx="20.88" ry="7.22" transform="rotate(-89.9 55.286 106.25)" fill="#caa026"/><ellipse class="cls-78" cx="55.28" cy="106.25" rx="20.5" ry="7.09" transform="rotate(-89.9 55.29 106.255)"/><ellipse class="cls-78" cx="55.28" cy="106.25" rx="20.12" ry="6.96" transform="rotate(-89.9 55.286 106.25)"/><ellipse cx="55.28" cy="106.25" rx="19.74" ry="6.83" transform="rotate(-90 55.145 106.205)" fill="#cba226"/><ellipse cx="55.28" cy="106.25" rx="19.36" ry="6.7" transform="rotate(-89.9 55.286 106.25)" fill="#cba227"/><ellipse cx="55.28" cy="106.25" rx="18.98" ry="6.56" transform="rotate(-89.9 55.286 106.25)" fill="#cca327"/><ellipse class="cls-82" cx="55.28" cy="106.25" rx="18.6" ry="6.43" transform="rotate(-89.9 55.286 106.25)"/><ellipse class="cls-82" cx="55.28" cy="106.25" rx="18.22" ry="6.3" transform="rotate(-89.9 55.286 106.25)"/><ellipse cx="55.28" cy="106.25" rx="17.84" ry="6.17" transform="rotate(-89.9 55.29 106.255)" fill="#cea527"/><ellipse cx="55.28" cy="106.25" rx="17.46" ry="6.04" transform="rotate(-89.9 55.286 106.25)" fill="#cea628"/><ellipse cx="55.28" cy="106.25" rx="17.08" ry="5.91" transform="rotate(-89.9 55.286 106.25)" fill="#cfa728"/><ellipse cx="55.28" cy="106.25" rx="16.7" ry="5.78" transform="rotate(-89.9 55.28 106.245)" fill="#d0a828"/><ellipse cx="55.28" cy="106.25" rx="16.32" ry="5.64" transform="rotate(-89.9 55.286 106.25)" fill="#d1a928"/><ellipse cx="55.28" cy="106.25" rx="15.94" ry="5.51" transform="rotate(-89.9 55.286 106.25)" fill="#d2aa28"/><ellipse cx="55.28" cy="106.25" rx="15.56" ry="5.38" transform="rotate(-89.9 55.28 106.245)" fill="#d2ab29"/><ellipse cx="55.28" cy="106.25" rx="15.18" ry="5.25" transform="rotate(-89.9 55.29 106.255)" fill="#d3ac29"/><ellipse cx="55.28" cy="106.25" rx="14.8" ry="5.12" transform="rotate(-89.9 55.286 106.25)" fill="#d3ad29"/><ellipse cx="55.28" cy="106.25" rx="14.42" ry="4.99" transform="rotate(-89.9 55.286 106.25)" fill="#d4ae29"/><ellipse cx="55.28" cy="106.25" rx="14.04" ry="4.86" transform="rotate(-89.9 55.28 106.245)" fill="#d5af2a"/><ellipse cx="55.28" cy="106.25" rx="13.66" ry="4.73" transform="rotate(-89.9 55.286 106.25)" fill="#d5b12a"/><ellipse cx="55.28" cy="106.25" rx="13.29" ry="4.59" transform="rotate(-89.9 55.286 106.25)" fill="#d6b22a"/><ellipse cx="55.28" cy="106.25" rx="12.91" ry="4.46" transform="rotate(-89.9 55.28 106.245)" fill="#d7b32a"/><ellipse cx="55.28" cy="106.25" rx="12.53" ry="4.33" transform="rotate(-89.9 55.29 106.255)" fill="#d8b42b"/><ellipse cx="55.28" cy="106.25" rx="12.15" ry="4.2" transform="rotate(-89.9 55.286 106.25)" fill="#d9b52b"/><ellipse cx="55.28" cy="106.25" rx="11.77" ry="4.07" transform="rotate(-89.9 55.286 106.25)" fill="#dab62b"/><ellipse cx="55.28" cy="106.25" rx="11.39" ry="3.94" transform="rotate(-89.9 55.276 106.25)" fill="#dbb72b"/><ellipse cx="55.28" cy="106.25" rx="11.01" ry="3.81" transform="rotate(-89.9 55.29 106.255)" fill="#dbb82c"/><ellipse cx="55.28" cy="106.25" rx="10.63" ry="3.68" transform="rotate(-89.9 55.286 106.25)" fill="#dcb92c"/><ellipse cx="55.28" cy="106.25" rx="10.25" ry="3.54" transform="rotate(-89.9 55.28 106.245)" fill="#ddba2c"/><ellipse cx="55.28" cy="106.25" rx="9.87" ry="3.41" transform="rotate(-89.91 55.282 106.245)" fill="#ddbc2c"/><ellipse cx="55.28" cy="106.25" rx="9.49" ry="3.28" transform="rotate(-89.9 55.286 106.25)" fill="#debd2c"/><ellipse cx="55.28" cy="106.25" rx="9.11" ry="3.15" transform="rotate(-89.9 55.286 106.25)" fill="#e0be2d"/><ellipse cx="55.28" cy="106.25" rx="8.73" ry="3.02" transform="rotate(-89.89 55.29 106.254)" fill="#e1bf2d"/><ellipse cx="55.28" cy="106.25" rx="8.35" ry="2.89" transform="rotate(-89.91 55.277 106.25)" fill="#e1c02d"/><ellipse cx="55.28" cy="106.25" rx="7.97" ry="2.76" transform="rotate(-89.9 55.286 106.25)" fill="#e2c12d"/><ellipse cx="55.28" cy="106.25" rx="7.59" ry="2.63" transform="rotate(-89.9 55.28 106.245)" fill="#e3c22e"/><ellipse cx="55.28" cy="106.25" rx="7.21" ry="2.49" transform="rotate(-89.91 55.287 106.25)" fill="#e4c42e"/><ellipse cx="55.28" cy="106.25" rx="6.83" ry="2.36" transform="rotate(-89.91 55.277 106.25)" fill="#e4c52e"/><ellipse cx="55.28" cy="106.25" rx="6.45" ry="2.23" transform="rotate(-89.9 55.286 106.25)" fill="#e5c62f"/><ellipse cx="55.28" cy="106.25" rx="6.07" ry="2.1" transform="rotate(-89.89 55.29 106.254)" fill="#e6c72f"/><ellipse cx="55.28" cy="106.25" rx="5.69" ry="1.97" transform="rotate(-90 55.15 106.21)" fill="#e7c82f"/><ellipse cx="55.28" cy="106.25" rx="5.31" ry="1.84" transform="rotate(-89.9 55.286 106.25)" fill="#e8ca30"/><ellipse cx="55.28" cy="106.25" rx="4.93" ry="1.71" transform="rotate(-89.89 55.285 106.25)" fill="#e9cb30"/><ellipse cx="55.28" cy="106.25" rx="4.56" ry="1.58" transform="rotate(-89.91 55.287 106.25)" fill="#eacc30"/><ellipse cx="55.28" cy="106.25" rx="4.18" ry="1.44" transform="rotate(-89.9 55.286 106.25)" fill="#ebcd30"/><ellipse cx="55.28" cy="106.25" rx="3.8" ry="1.31" transform="rotate(-89.89 55.29 106.254)" fill="#eccf31"/><ellipse cx="55.28" cy="106.25" rx="3.42" ry="1.18" transform="rotate(-89.88 55.284 106.249)" fill="#ecd031"/><ellipse cx="55.28" cy="106.25" rx="3.04" ry="1.05" transform="rotate(-89.91 55.287 106.25)" fill="#edd131"/><ellipse cx="55.28" cy="106.25" rx="2.66" ry=".92" transform="rotate(-89.9 55.28 106.245)" fill="#eed231"/><ellipse cx="55.28" cy="106.25" rx="2.28" ry=".79" transform="rotate(-89.88 55.284 106.249)" fill="#f0d432"/><ellipse cx="55.28" cy="106.25" rx="1.9" ry=".66" transform="rotate(-89.93 55.289 106.251)" fill="#f1d532"/><ellipse cx="55.28" cy="106.25" rx="1.52" ry=".52" transform="rotate(-90 55.16 106.21)" fill="#f2d632"/><ellipse cx="55.28" cy="106.25" rx="1.14" ry=".39" transform="rotate(-89.88 55.29 106.254)" fill="#f2d733"/><ellipse cx="55.28" cy="106.25" rx=".76" ry=".26" transform="rotate(-89.83 55.28 106.246)" fill="#f3d933"/><ellipse cx="55.28" cy="106.25" rx=".13" ry=".38" fill="#f4da33"/></g><path class="cls-60" d="M55.61 125.12c-2.31 1.84-3.92-4.49-4.79-6.44-.4-.88-.76-1.79-1.09-2.7 1.83 6.76 4 12 5.76 11.92 2.71-.08 6.6-11.64 8.06-22.85 1.27-9.75 1.44-18.1-4.91-20 .13.11.23.23.36.34 5.26 4.34 4.05 18.13 3 23-1.67 8.22-4.07 14.9-6.39 16.73z"/><path class="cls-71" d="M37.11 83c-4.13-1.5-6.08.09-6.7 3.36-.53 2.74.8 15.45 4.14 25.06S48.47 128 50.08 127s-.6-3.92-3.78-11.25-3.89-19.41-3.83-23.94-1.23-7.28-5.36-8.81z"/><g clip-path="url(#clip-path-2)"><path class="cls-131" d="M30.86 81.96h21.8v46.45h-21.8z"/><ellipse class="cls-131" cx="39.79" cy="105.85" rx="8.97" ry="22.4" transform="rotate(-17.61 39.8 105.822)"/><ellipse class="cls-131" cx="39.79" cy="105.85" rx="8.74" ry="21.83" transform="rotate(-17.61 39.8 105.822)"/><ellipse cx="39.79" cy="105.85" rx="8.51" ry="21.25" transform="rotate(-17.61 39.795 105.855)" fill="#e6c433"/><ellipse class="cls-133" cx="39.79" cy="105.85" rx="8.28" ry="20.68" transform="rotate(-17.61 39.768 105.817)"/><ellipse class="cls-133" cx="39.79" cy="105.85" rx="8.05" ry="20.1" transform="matrix(.95 -.3 .3 .95 -30.15 17)"/><ellipse cx="39.79" cy="105.85" rx="7.82" ry="19.53" transform="rotate(-17.61 39.8 105.822)" fill="#e8c634"/><ellipse class="cls-135" cx="39.79" cy="105.85" rx="7.59" ry="18.95" transform="rotate(-17.61 39.768 105.817)"/><ellipse class="cls-135" cx="39.79" cy="105.85" rx="7.36" ry="18.38" transform="matrix(.95 -.3 .3 .95 -30.15 16.99)"/><ellipse cx="39.79" cy="105.85" rx="7.13" ry="17.81" transform="rotate(-17.61 39.795 105.855)" fill="#e8c834"/><ellipse cx="39.79" cy="105.85" rx="6.9" ry="17.23" transform="rotate(-17.61 39.795 105.855)" fill="#e9c934"/><ellipse cx="39.79" cy="105.85" rx="6.67" ry="16.66" transform="rotate(-17.61 39.768 105.817)" fill="#e9ca35"/><ellipse cx="39.79" cy="105.85" rx="6.44" ry="16.08" transform="rotate(-17.61 39.768 105.817)" fill="#eacb35"/><ellipse cx="39.79" cy="105.85" rx="6.21" ry="15.51" transform="rotate(-17.61 39.795 105.855)" fill="#ebcc35"/><ellipse cx="39.79" cy="105.85" rx="5.98" ry="14.93" transform="rotate(-17.61 39.768 105.817)" fill="#ebcd35"/><ellipse cx="39.79" cy="105.85" rx="5.75" ry="14.36" transform="rotate(-17.61 39.768 105.817)" fill="#ebce35"/><ellipse cx="39.79" cy="105.85" rx="5.52" ry="13.78" transform="rotate(-17.61 39.795 105.855)" fill="#ebcf36"/><ellipse cx="39.79" cy="105.85" rx="5.29" ry="13.21" transform="rotate(-17.61 39.795 105.855)" fill="#ecd036"/><ellipse cx="39.79" cy="105.85" rx="5.06" ry="12.64" transform="rotate(-17.61 39.8 105.822)" fill="#edd136"/><ellipse cx="39.79" cy="105.85" rx="4.83" ry="12.06" transform="matrix(.95 -.3 .3 .95 -30.15 16.99)" fill="#edd236"/><ellipse cx="39.79" cy="105.85" rx="4.6" ry="11.49" transform="rotate(-17.61 39.795 105.855)" fill="#eed337"/><ellipse cx="39.79" cy="105.85" rx="4.37" ry="10.91" transform="rotate(-17.6 39.8 105.874)" fill="#eed437"/><ellipse cx="39.79" cy="105.85" rx="4.14" ry="10.34" transform="rotate(-17.61 39.795 105.855)" fill="#eed537"/><ellipse cx="39.79" cy="105.85" rx="3.91" ry="9.76" transform="rotate(-17.61 39.8 105.822)" fill="#efd637"/><ellipse cx="39.79" cy="105.85" rx="3.68" ry="9.19" transform="rotate(-17.61 39.795 105.855)" fill="#f0d837"/><ellipse cx="39.79" cy="105.85" rx="3.45" ry="8.62" transform="rotate(-17.6 39.8 105.874)" fill="#f0d937"/><ellipse cx="39.79" cy="105.85" rx="3.22" ry="8.04" transform="rotate(-17.61 39.795 105.855)" fill="#f1da38"/><ellipse cx="39.79" cy="105.85" rx="2.99" ry="7.47" transform="rotate(-17.61 39.795 105.855)" fill="#f2db38"/><ellipse cx="39.79" cy="105.85" rx="2.76" ry="6.89" transform="rotate(-17.6 39.8 105.874)" fill="#f2dc38"/><ellipse cx="39.79" cy="105.85" rx="2.53" ry="6.32" transform="rotate(-17.6 39.804 105.841)" fill="#f2dd38"/><ellipse cx="39.79" cy="105.85" rx="2.3" ry="5.74" transform="rotate(-17.61 39.795 105.855)" fill="#f3df39"/><ellipse cx="39.79" cy="105.85" rx="2.07" ry="5.17" transform="rotate(-17.61 39.795 105.855)" fill="#f4e039"/><ellipse cx="39.79" cy="105.85" rx="1.84" ry="4.59" transform="rotate(-17.6 39.8 105.874)" fill="#f4e139"/><ellipse cx="39.79" cy="105.85" rx="1.61" ry="4.02" transform="rotate(-17.6 39.772 105.836)" fill="#f5e239"/><ellipse cx="39.79" cy="105.85" rx="1.38" ry="3.45" transform="rotate(-17.62 39.79 105.836)" fill="#f5e43a"/><ellipse cx="39.79" cy="105.85" rx="1.15" ry="2.87" transform="rotate(-17.58 39.786 105.842)" fill="#f6e53a"/><ellipse cx="39.79" cy="105.85" rx=".92" ry="2.3" transform="rotate(-17.6 39.8 105.874)" fill="#f7e63a"/><ellipse cx="39.79" cy="105.85" rx=".69" ry="1.72" transform="matrix(.95 -.3 .3 .95 -30.14 16.98)" fill="#f7e73b"/><ellipse cx="39.79" cy="105.85" rx=".46" ry="1.15" transform="rotate(-17.65 39.8 105.849)" fill="#f8e93b"/><ellipse cx="39.79" cy="105.85" rx=".23" ry=".57" transform="rotate(-17.5 39.808 105.86)" fill="#f9ea3b"/></g><path class="cls-39" d="M44.3 123.91c3.13 2.61 6 4 6.76 3.48 1.6-1-.59-3.92-3.77-11.24s-3.89-19.42-3.83-23.94c.05-3.89-.9-6.45-3.78-8 3.47 4.23 2.57 10.67 2.89 15.91A51.82 51.82 0 0048 121c.54 1.13 1.92 4.09 1 4.46s-3.83-1.4-4.7-1.55z"/><path d="M59 127.63c1.6 1 12.19-5.91 15.52-15.53s4.64-22.32 4.11-25.1c-.63-3.26-2.57-4.85-6.7-3.35s-5.43 4.22-5.37 8.76-.64 16.61-3.83 23.94-5.38 10.27-3.73 11.28z" fill="#f2d231"/><g clip-path="url(#clip-path-3)"><path class="cls-169" d="M58.12 82.18h21.8v46.46h-21.8z"/><ellipse class="cls-169" cx="69.35" cy="105.42" rx="23.4" ry="7.39" transform="rotate(-74.6 69.342 105.423)"/><ellipse class="cls-169" cx="69.35" cy="105.42" rx="22.93" ry="7.25" transform="rotate(-74.59 69.353 105.424)"/><ellipse class="cls-170" cx="69.35" cy="105.42" rx="22.46" ry="7.1" transform="rotate(-74.59 69.353 105.424)"/><ellipse class="cls-170" cx="69.35" cy="105.42" rx="21.99" ry="6.95" transform="rotate(-74.6 69.342 105.423)"/><ellipse cx="69.35" cy="105.42" rx="21.52" ry="6.8" transform="rotate(-74.6 69.336 105.418)" fill="#a16f1b"/><ellipse class="cls-172" cx="69.35" cy="105.42" rx="21.06" ry="6.66" transform="rotate(-74.59 69.353 105.424)"/><ellipse class="cls-172" cx="69.35" cy="105.42" rx="20.59" ry="6.51" transform="rotate(-74.59 69.346 105.42)"/><ellipse cx="69.35" cy="105.42" rx="20.12" ry="6.36" transform="rotate(-74.6 69.342 105.423)" fill="#a3711b"/><ellipse cx="69.35" cy="105.42" rx="19.65" ry="6.21" transform="rotate(-74.6 69.342 105.423)" fill="#a4721b"/><ellipse cx="69.35" cy="105.42" rx="19.18" ry="6.06" transform="rotate(-74.59 69.353 105.424)" fill="#a4731c"/><ellipse cx="69.35" cy="105.42" rx="18.72" ry="5.92" transform="rotate(-74.6 69.342 105.423)" fill="#a5741c"/><ellipse cx="69.35" cy="105.42" rx="18.25" ry="5.77" transform="rotate(-74.6 69.336 105.418)" fill="#a6741c"/><ellipse cx="69.35" cy="105.42" rx="17.78" ry="5.62" transform="rotate(-74.6 69.336 105.418)" fill="#a7751c"/><ellipse cx="69.35" cy="105.42" rx="17.31" ry="5.47" transform="rotate(-74.59 69.353 105.424)" fill="#a8761c"/><ellipse cx="69.35" cy="105.42" rx="16.85" ry="5.32" transform="rotate(-74.6 69.342 105.423)" fill="#a8771c"/><ellipse cx="69.35" cy="105.42" rx="16.38" ry="5.18" transform="rotate(-74.6 69.342 105.423)" fill="#a9781d"/><ellipse cx="69.35" cy="105.42" rx="15.91" ry="5.03" transform="rotate(-74.59 69.353 105.424)" fill="#aa791d"/><ellipse cx="69.35" cy="105.42" rx="15.44" ry="4.88" transform="rotate(-74.59 69.353 105.424)" fill="#ab7a1d"/><ellipse cx="69.35" cy="105.42" rx="14.97" ry="4.73" transform="rotate(-74.6 69.342 105.423)" fill="#ac7b1d"/><ellipse cx="69.35" cy="105.42" rx="14.51" ry="4.58" transform="rotate(-74.6 69.336 105.418)" fill="#ad7c1e"/><ellipse cx="69.35" cy="105.42" rx="14.04" ry="4.44" transform="rotate(-74.6 69.336 105.418)" fill="#ae7d1e"/><ellipse cx="69.35" cy="105.42" rx="13.57" ry="4.29" transform="rotate(-74.59 69.346 105.42)" fill="#af7e1e"/><ellipse cx="69.35" cy="105.42" rx="13.1" ry="4.14" transform="rotate(-74.6 69.342 105.423)" fill="#b07f1e"/><ellipse cx="69.35" cy="105.42" rx="12.63" ry="3.99" transform="rotate(-74.6 69.342 105.423)" fill="#b1801e"/><ellipse cx="69.35" cy="105.42" rx="12.17" ry="3.84" transform="rotate(-74.59 69.353 105.424)" fill="#b2801f"/><ellipse cx="69.35" cy="105.42" rx="11.7" ry="3.7" transform="rotate(-74.59 69.353 105.424)" fill="#b3811f"/><ellipse cx="69.35" cy="105.42" rx="11.23" ry="3.55" transform="rotate(-74.6 69.336 105.418)" fill="#b4821f"/><ellipse cx="69.35" cy="105.42" rx="10.76" ry="3.4" transform="rotate(-74.59 69.353 105.424)" fill="#b5831f"/><ellipse cx="69.35" cy="105.42" rx="10.29" ry="3.25" transform="rotate(-74.59 69.353 105.424)" fill="#b68420"/><ellipse cx="69.35" cy="105.42" rx="9.83" ry="3.11" transform="rotate(-74.59 69.346 105.42)" fill="#b78620"/><ellipse cx="69.35" cy="105.42" rx="9.36" ry="2.96" transform="rotate(-74.6 69.342 105.423)" fill="#b88720"/><ellipse cx="69.35" cy="105.42" rx="8.89" ry="2.81" transform="rotate(-74.59 69.346 105.42)" fill="#b98820"/><ellipse cx="69.35" cy="105.42" rx="8.42" ry="2.66" transform="rotate(-74.59 69.346 105.42)" fill="#ba8920"/><ellipse cx="69.35" cy="105.42" rx="7.95" ry="2.51" transform="rotate(-74.61 69.337 105.416)" fill="#bb8a21"/><ellipse cx="69.35" cy="105.42" rx="7.49" ry="2.37" transform="rotate(-74.6 69.342 105.423)" fill="#bc8b21"/><ellipse cx="69.35" cy="105.42" rx="7.02" ry="2.22" transform="rotate(-74.6 69.336 105.418)" fill="#be8d21"/><ellipse cx="69.35" cy="105.42" rx="6.55" ry="2.07" transform="rotate(-74.59 69.353 105.424)" fill="#bf8e21"/><ellipse cx="69.35" cy="105.42" rx="6.08" ry="1.92" transform="rotate(-74.6 69.354 105.422)" fill="#c08f22"/><ellipse cx="69.35" cy="105.42" rx="5.61" ry="1.77" transform="rotate(-74.6 69.354 105.422)" fill="#c19022"/><ellipse cx="69.35" cy="105.42" rx="5.15" ry="1.63" transform="rotate(-74.59 69.346 105.42)" fill="#c29122"/><ellipse cx="69.35" cy="105.42" rx="4.68" ry="1.48" transform="rotate(-74.58 69.352 105.427)" fill="#c39323"/><ellipse cx="69.35" cy="105.42" rx="4.21" ry="1.33" transform="rotate(-74.62 69.34 105.425)" fill="#c49423"/><ellipse cx="69.35" cy="105.42" rx="3.74" ry="1.18" transform="rotate(-74.6 69.342 105.423)" fill="#c69523"/><ellipse cx="69.35" cy="105.42" rx="3.28" ry="1.04" transform="rotate(-74.59 69.353 105.424)" fill="#c79623"/><ellipse cx="69.35" cy="105.42" rx="2.81" ry=".89" transform="rotate(-74.56 69.348 105.42)" fill="#c89824"/><ellipse cx="69.35" cy="105.42" rx="2.34" ry=".74" transform="rotate(-74.61 69.35 105.426)" fill="#c99924"/><ellipse cx="69.35" cy="105.42" rx="1.87" ry=".59" transform="rotate(-74.62 69.34 105.425)" fill="#ca9a24"/><ellipse cx="69.35" cy="105.42" rx="1.4" ry=".44" transform="rotate(-74.57 69.338 105.42)" fill="#cc9b24"/><ellipse cx="69.35" cy="105.42" rx=".94" ry=".3" transform="rotate(-74.54 69.351 105.42)" fill="#cd9d25"/><ellipse cx="69.35" cy="105.42" rx=".47" ry=".15" transform="rotate(-74.59 69.353 105.424)" fill="#ce9e25"/></g><path class="cls-47" d="M60.33 125.51c-.11-.21-.06-1.68-.21-1.83-1 2.22-1.3 3.39-.4 4 1.6 1 12.19-5.91 15.53-15.53S79.92 89.78 79.4 87c-.39-2-1.31-3.44-3-3.81 2.88 3.1 3.06 6.55-.8 22.25-4.07 16.72-14.11 22.14-15.27 20.07z"/><path fill="url(#linear-gradient-40)" d="M55.05 107.35l-.4-11.77-6.96.76 7.36 11.01z"/><path class="cls-44" d="M54.65 95.72v-.14l-6.96.76 6.96-.62z"/><path fill="url(#linear-gradient-41)" d="M61.4 97.16l-6.75-1.58.4 11.77 6.35-10.19z"/><path class="cls-44" d="M54.65 95.58l.4 11.77-.27-11.56 6.62 1.37-6.75-1.58z"/><path fill="url(#linear-gradient-42)" d="M47.69 96.34l6.96-.76-.02-1.91-4.86-2.52-2.08 5.19z"/><path fill="url(#linear-gradient-43)" d="M54.65 95.58l6.75 1.58-1.64-6.13-5.13 2.64.02 1.91z"/><path fill="url(#linear-gradient-44)" d="M54.63 93.67l5.13-2.64-4.96-1.2-5.03 1.32 4.86 2.52z"/><path class="cls-44" d="M54.63 93.67l5.13-2.64-5.13 2.44-4.86-2.32 4.86 2.52z"/><path class="cls-44" d="M54.65 95.58l.13.03-.04-2-.11-.01.02 1.98z"/><path fill="url(#linear-gradient-45)" d="M35.87 104.45l-3.16-9.89-3.16.43 6.32 9.46z"/><path fill="url(#linear-gradient-46)" d="M41.34 95.69l-8.63-1.13 3.16 9.89 5.47-8.76z"/><path class="cls-44" d="M35.87 104.45l-2.96-9.87-.2-.02 3.16 9.89z"/><path fill="url(#linear-gradient-47)" d="M32.71 94.56l.74-2.32-2.11-1.71-1.79 4.46 3.16-.43z"/><path class="cls-44" d="M32.76 94.41l-3.21.58 3.16-.43.05-.15z"/><path fill="url(#linear-gradient-48)" d="M32.71 94.56l8.63 1.13-1.41-5.26-6.48 1.81-.74 2.32z"/><path class="cls-44" d="M39.93 90.43l-6.48 1.81-.74 2.32 8.63 1.13-8.4-1.24.65-2.05 6.34-1.97z"/><path fill="url(#linear-gradient-49)" d="M33.45 92.24l6.48-1.81-6.02-.93-2.57 1.03 2.11 1.71z"/><path class="cls-44" d="M33.57 92.21l-2.23-1.68 2.11 1.71.12-.03z"/><path fill="url(#linear-gradient-50)" d="M80.16 94.99l-3.17-.43-3.17 9.89 6.34-9.46z"/><path fill="url(#linear-gradient-51)" d="M76.99 94.56l-8.63 1.13 5.46 8.76 3.17-9.89z"/><path class="cls-44" d="M76.99 94.56l-.2.02-2.97 9.87 3.17-9.89z"/><path fill="url(#linear-gradient-52)" d="M76.99 94.56l3.17.43-1.8-4.46-2.12 1.71.75 2.32z"/><path class="cls-44" d="M80.16 94.99l-3.22-.58.05.15 3.17.43z"/><path fill="url(#linear-gradient-53)" d="M68.36 95.69l8.63-1.13-.75-2.32-6.46-1.81-1.42 5.26z"/><path class="cls-44" d="M76.99 94.56l-.75-2.32-6.46-1.81 6.33 1.97.65 2.05-8.4 1.24 8.63-1.13z"/><path fill="url(#linear-gradient-54)" d="M76.24 92.24l2.12-1.71-2.57-1.03-6.01.93 6.46 1.81z"/><path class="cls-44" d="M78.36 90.53l-2.23 1.68.11.03 2.12-1.71z"/><path class="cls-231" d="M47.33 131.22a3.72 3.72 0 103.72-3.72 3.71 3.71 0 00-3.72 3.72z"/><path class="cls-232" d="M47.52 131.22a3.53 3.53 0 103.53-3.53 3.53 3.53 0 00-3.53 3.53z"/><path class="cls-233" d="M47.71 131.22a3.34 3.34 0 103.34-3.35 3.34 3.34 0 00-3.34 3.35z"/><path class="cls-234" d="M47.9 131.22a3.15 3.15 0 103.16-3.16 3.15 3.15 0 00-3.16 3.16z"/><path class="cls-235" d="M48.08 131.22a3 3 0 103-3 3 3 0 00-3 3z"/><path class="cls-236" d="M48.27 131.22a2.78 2.78 0 102.78-2.78 2.78 2.78 0 00-2.78 2.78z"/><path class="cls-237" d="M48.46 131.22a2.59 2.59 0 102.59-2.59 2.59 2.59 0 00-2.59 2.59z"/><path class="cls-238" d="M48.65 131.22a2.4 2.4 0 102.41-2.41 2.4 2.4 0 00-2.41 2.41z"/><path class="cls-239" d="M48.83 131.22a2.22 2.22 0 102.22-2.22 2.22 2.22 0 00-2.22 2.22z"/><path class="cls-240" d="M49 131.22a2 2 0 102-2 2 2 0 00-2 2z"/><path class="cls-241" d="M49.21 131.22a1.84 1.84 0 101.84-1.84 1.84 1.84 0 00-1.84 1.84z"/><path class="cls-242" d="M49.4 131.22a1.65 1.65 0 101.66-1.65 1.66 1.66 0 00-1.66 1.65z"/><path class="cls-243" d="M49.58 131.22a1.47 1.47 0 101.47-1.47 1.47 1.47 0 00-1.47 1.47z"/><path class="cls-44" d="M49.77 131.22a1.28 1.28 0 101.28-1.28 1.28 1.28 0 00-1.28 1.28z"/><path class="cls-44" d="M56.9 129c-1.93.54-3.38 1.22-4.63.62s-1.44-2.75-1.78-4.24c-.22 1.49-.22 3.66-.74 4.57s-2.32.85-3.51.76c.78.6 2.41.48 3 1.61s-.34 2.67-.69 3.66c1-.9 2.41-2.94 3.21-3s4.08 1.71 4.85 2.13c-.63-.52-3.55-2.88-3.55-3.51.03-1.04 3.1-2.11 3.84-2.6z"/><path class="cls-231" d="M27.28 118.89a2.52 2.52 0 102.52-2.53 2.52 2.52 0 00-2.52 2.53z"/><path class="cls-232" d="M27.4 118.89a2.4 2.4 0 102.4-2.41 2.39 2.39 0 00-2.4 2.41z"/><path class="cls-233" d="M27.53 118.89a2.27 2.27 0 102.27-2.28 2.27 2.27 0 00-2.27 2.28z"/><path class="cls-234" d="M27.66 118.89a2.14 2.14 0 102.14-2.15 2.14 2.14 0 00-2.14 2.15z"/><circle class="cls-235" cx="29.8" cy="118.89" r="2.02"/><circle class="cls-236" cx="29.8" cy="118.89" r="1.89"/><circle class="cls-237" cx="29.8" cy="118.89" r="1.76"/><circle class="cls-238" cx="29.8" cy="118.89" r="1.63"/><circle class="cls-239" cx="29.8" cy="118.89" r="1.51"/><circle class="cls-240" cx="29.8" cy="118.89" r="1.38"/><circle class="cls-241" cx="29.8" cy="118.89" r="1.25"/><circle class="cls-242" cx="29.8" cy="118.89" r="1.12"/><circle class="cls-243" cx="29.8" cy="118.89" r="1"/><circle class="cls-44" cx="29.8" cy="118.89" r=".87"/><path class="cls-44" d="M33.29 117.53c-1.07.29-1.88.68-2.57.34s-.79-1.52-1-2.34a9.9 9.9 0 01-.4 2.53c-.26.44-1.29.48-1.94.42.43.33 1.33.26 1.68.88s-.19 1.48-.38 2c.52-.5 1.33-1.63 1.77-1.68a11 11 0 012.68 1.17c-.35-.28-2-1.59-2-1.94.05-.52 1.75-1.11 2.16-1.38z"/><path class="cls-231" d="M90.37 77.78a4.56 4.56 0 104.57-4.56 4.57 4.57 0 00-4.57 4.56z"/><path class="cls-232" d="M90.6 77.78a4.33 4.33 0 104.34-4.33 4.34 4.34 0 00-4.34 4.33z"/><path class="cls-233" d="M90.83 77.78a4.1 4.1 0 104.11-4.1 4.11 4.11 0 00-4.11 4.1z"/><path class="cls-234" d="M91.06 77.78a3.87 3.87 0 103.88-3.87 3.88 3.88 0 00-3.88 3.87z"/><path class="cls-235" d="M91.29 77.78a3.64 3.64 0 103.65-3.64 3.65 3.65 0 00-3.65 3.64z"/><path class="cls-236" d="M91.52 77.78a3.41 3.41 0 103.42-3.41 3.42 3.42 0 00-3.42 3.41z"/><path class="cls-237" d="M91.75 77.78a3.18 3.18 0 103.19-3.18 3.19 3.19 0 00-3.19 3.18z"/><path class="cls-238" d="M92 77.78a3 3 0 103-3 3 3 0 00-3 3z"/><path class="cls-239" d="M92.21 77.78a2.72 2.72 0 102.73-2.72 2.73 2.73 0 00-2.73 2.72z"/><path class="cls-240" d="M92.44 77.78a2.49 2.49 0 102.5-2.49 2.5 2.5 0 00-2.5 2.49z"/><path class="cls-241" d="M92.67 77.78a2.26 2.26 0 102.27-2.26 2.27 2.27 0 00-2.27 2.26z"/><path class="cls-242" d="M92.9 77.78a2 2 0 102-2 2 2 0 00-2 2z"/><path class="cls-243" d="M93.13 77.78a1.8 1.8 0 101.8-1.8 1.8 1.8 0 00-1.8 1.8z"/><path class="cls-44" d="M93.36 77.78a1.57 1.57 0 101.57-1.57 1.57 1.57 0 00-1.57 1.57z"/><path class="cls-44" d="M101.22 75.32c-1.93.55-3.38 1.22-4.63.62s-1.43-2.75-1.78-4.25c-.21 1.5-.21 3.67-.74 4.58s-2.33.85-3.51.75c.78.6 2.4.48 3 1.6s-.34 2.67-.69 3.66c1-.91 2.41-2.95 3.2-3s4.13 1.72 4.93 2.1c-.63-.52-3.54-2.87-3.54-3.51-.04-.98 3.03-2.04 3.76-2.55z"/><g opacity=".75"><path class="cls-231" d="M29.56 77.13a6.64 6.64 0 109.18-2 6.64 6.64 0 00-9.18 2z"/><path class="cls-232" d="M29.84 77.31a6.3 6.3 0 108.72-1.87 6.31 6.31 0 00-8.72 1.87z"/><path class="cls-233" d="M30.12 77.49a6 6 0 108.25-1.77 6 6 0 00-8.25 1.77z"/><path class="cls-234" d="M30.4 77.68A5.64 5.64 0 1038.19 76a5.64 5.64 0 00-7.79 1.68z"/><path class="cls-235" d="M30.68 77.86A5.3 5.3 0 1038 76.29a5.3 5.3 0 00-7.32 1.57z"/><path class="cls-236" d="M31 78a5 5 0 106.86-1.47A5 5 0 0031 78z"/><path class="cls-237" d="M31.25 78.22a4.63 4.63 0 106.4-1.37 4.64 4.64 0 00-6.4 1.37z"/><path class="cls-238" d="M31.53 78.4a4.3 4.3 0 105.94-1.27 4.3 4.3 0 00-5.94 1.27z"/><path class="cls-239" d="M31.81 78.58a4 4 0 105.47-1.17 4 4 0 00-5.47 1.17z"/><path class="cls-240" d="M32.09 78.77a3.63 3.63 0 105-1.07 3.63 3.63 0 00-5 1.07z"/><path class="cls-241" d="M32.37 78.95a3.29 3.29 0 104.55-1 3.3 3.3 0 00-4.55 1z"/><path class="cls-242" d="M32.65 79.13a3 3 0 104.08-.87 3 3 0 00-4.08.87z"/><path class="cls-243" d="M32.93 79.31a2.62 2.62 0 103.62-.77 2.63 2.63 0 00-3.62.77z"/><path class="cls-44" d="M33.21 79.49A2.29 2.29 0 1037.05 82a2.29 2.29 0 00-3.84-2.49z"/></g><path class="cls-44" d="M41.78 80.43s-3.83-.49-5-1.45c-1.48-1.27-1.69-10.6-1.69-10.6-.61 2.94-1.4 10-2.63 10.88a17.56 17.56 0 01-4.44 1.66s4-.08 5.27.86 2.44 12.33 2.44 12.33 0-10.74.87-12c1.09-1.44 5.18-1.68 5.18-1.68z"/><path fill="url(#linear-gradient-55)" d="M55.35 158.43l-.18 53.21-47.93-31.96L0 126.47l55.35 31.96z"/><path d="M8.77 178.87c-.57-4.13-1.47-8.17-2.14-12.28a103.91 103.91 0 01-1.39-18.87c.11-5.06.41-11.52 2.26-16.92L0 126.47l7.24 53.21 1.89 1.26c-.13-.68-.26-1.36-.36-2.07z" opacity=".37" fill="#fdfa6f"/><path d="M55.35 158.43l-.18 53.21s-1.53-7.08-1.85-22.13-.62-29-.62-29-17.7-11-28.14-16.92S0 126.47 0 126.47z" fill="url(#linear-gradient-56)"/><ellipse class="cls-17" cx="50.18" cy="161.32" rx="2.93" ry="3.3"/><path class="cls-248" d="M53.31 161.56a2.78 2.78 0 11-2.75-3.13 3 3 0 012.75 3.13z"/><path class="cls-249" d="M50.56 158.43a2.4 2.4 0 00-.89.18 3.35 3.35 0 00-.78 2.17 3 3 0 002.76 3.14 2.39 2.39 0 00.89-.19 3.35 3.35 0 00.78-2.17 3 3 0 00-2.76-3.13z"/><path d="M53 161.07a1.71 1.71 0 11-1.7-1.93 1.83 1.83 0 011.7 1.93z" fill="url(#linear-gradient-57)"/><path class="cls-251" d="M52.39 159.6a1.56 1.56 0 010 1.12 1.5 1.5 0 01-.75 1 1.42 1.42 0 01-2-.71 1.71 1.71 0 103.38 0 2.05 2.05 0 00-.63-1.41z"/><path class="cls-252" d="M50.22 161.06a.66.66 0 00.12.19c.42.46 1.07-.4 1.28-.77.36-.63-.28-1.34-.89-.88a1.56 1.56 0 00-.51 1.46z"/><path class="cls-17" d="M50.8 160.31c.14 0 .34-.16.37-.32a.22.22 0 00-.36-.2c-.18.14-.25.5-.01.52z"/><path class="cls-248" d="M52 162.53a1.79 1.79 0 00.71-.94 1.94 1.94 0 000-1.13 2.06 2.06 0 01-1.2 1.8 1.63 1.63 0 01-1.18-.15c-.16-.07-.27-.2-.42-.28a1 1 0 00.09.17l.14.22a1.32 1.32 0 001.06.51 1.6 1.6 0 00.8-.2z"/><path class="cls-17" d="M52.33 201.36a2.95 2.95 0 11-2.93-3.29 3.13 3.13 0 012.93 3.29z"/><path class="cls-248" d="M52.54 201.6a2.78 2.78 0 11-2.76-3.12 3 3 0 012.76 3.12z"/><path class="cls-249" d="M49.78 198.47a2.48 2.48 0 00-.88.18 3.35 3.35 0 00-.77 2.18 3 3 0 002.74 3.17 2.21 2.21 0 00.88-.18 3.28 3.28 0 00.79-2.17 3 3 0 00-2.76-3.18z"/><path d="M52.21 201.12a1.71 1.71 0 11-1.69-1.94 1.82 1.82 0 011.69 1.94z" fill="url(#linear-gradient-58)"/><path class="cls-251" d="M51.6 199.64a1.92 1.92 0 01-.74 2.17 1.43 1.43 0 01-2-.72 1.71 1.71 0 103.38 0 2 2 0 00-.64-1.45z"/><path class="cls-252" d="M49.44 201.09a.73.73 0 00.12.2c.43.46 1.08-.41 1.29-.77.36-.64-.29-1.34-.9-.89a1.56 1.56 0 00-.51 1.46z"/><path class="cls-17" d="M50 200.36a.43.43 0 00.37-.33.22.22 0 00-.36-.2c-.16.17-.22.5-.01.53z"/><path class="cls-248" d="M51.23 202.57a1.76 1.76 0 00.71-.94 1.86 1.86 0 000-1.13 2 2 0 01-1.19 1.8 1.69 1.69 0 01-1.19-.14c-.15-.08-.26-.2-.41-.28s.07.17.07.18a1.24 1.24 0 00.14.22 1.29 1.29 0 001 .51 1.61 1.61 0 00.87-.22z"/><ellipse class="cls-17" cx="10.83" cy="176.86" rx="2.59" ry="2.91"/><ellipse class="cls-248" cx="11.17" cy="177.07" rx="2.43" ry="2.76"/><path class="cls-249" d="M11.17 174.31a2.12 2.12 0 00-.78.16 3 3 0 00-.69 1.92 2.61 2.61 0 002.43 2.75 2.13 2.13 0 00.78-.15 2.93 2.93 0 00.69-1.92 2.62 2.62 0 00-2.43-2.76z"/><path d="M13.31 176.65a1.62 1.62 0 01-1.49 1.7 1.72 1.72 0 010-3.41 1.61 1.61 0 011.49 1.71z" fill="url(#linear-gradient-59)"/><path class="cls-251" d="M12.77 175.34a1.43 1.43 0 010 1 1.32 1.32 0 01-.66.91 1.26 1.26 0 01-1.8-.63 1.62 1.62 0 001.49 1.7 1.62 1.62 0 001.49-1.7 1.84 1.84 0 00-.52-1.28z"/><path class="cls-252" d="M10.87 176.62a.79.79 0 00.1.17c.38.41 1-.36 1.14-.68.32-.56-.25-1.18-.78-.78a1.35 1.35 0 00-.46 1.29z"/><path class="cls-17" d="M11.38 176a.36.36 0 00.32-.28.19.19 0 00-.32-.18c-.15.09-.21.41 0 .46z"/><path class="cls-248" d="M12.45 177.93a1.57 1.57 0 00.63-.84 1.67 1.67 0 000-1A1.82 1.82 0 0112 177.7a1.46 1.46 0 01-1-.14c-.13-.06-.23-.17-.36-.24a1.22 1.22 0 00.06.16 1.86 1.86 0 00.13.2 1.19 1.19 0 00.93.45 1.45 1.45 0 00.69-.2z"/><path class="cls-17" d="M7.85 135.83a2.76 2.76 0 01-2.58 2.91 2.93 2.93 0 010-5.83 2.76 2.76 0 012.58 2.92z"/><path class="cls-248" d="M8 136a2.61 2.61 0 01-2.43 2.77 2.78 2.78 0 010-5.52A2.61 2.61 0 018 136z"/><path class="cls-249" d="M5.6 133.27a2.23 2.23 0 00-.78.15 3 3 0 00-.69 1.92 2.61 2.61 0 002.44 2.75 2.14 2.14 0 00.78-.15A2.93 2.93 0 008 136a2.61 2.61 0 00-2.4-2.73z"/><ellipse cx="6.25" cy="135.6" rx="1.49" ry="1.71" fill="url(#linear-gradient-60)"/><path class="cls-251" d="M7.21 134.31a1.34 1.34 0 010 1 1.31 1.31 0 01-.66.91 1.26 1.26 0 01-1.8-.62 1.61 1.61 0 001.49 1.71 1.61 1.61 0 001.49-1.71 1.8 1.8 0 00-.52-1.29z"/><path class="cls-252" d="M5.3 135.59a.54.54 0 00.11.17c.38.41 1-.36 1.14-.68.32-.56-.25-1.18-.79-.78a1.37 1.37 0 00-.46 1.29z"/><path class="cls-17" d="M5.81 134.93a.37.37 0 00.33-.28.19.19 0 00-.32-.18c-.15.13-.22.44-.01.46z"/><path class="cls-248" d="M6.88 136.89a1.6 1.6 0 00.63-.83 1.68 1.68 0 000-1 1.81 1.81 0 01-1.05 1.59 1.45 1.45 0 01-1.05-.13c-.13-.07-.23-.18-.36-.24s.06.15.06.16a1.81 1.81 0 00.12.2 1.16 1.16 0 00.93.45 1.41 1.41 0 00.72-.2z"/><path class="cls-17" d="M45.82 162.1c-1.5 3.5-.52 28.52-1.22 33 0 .19-27.77-19.12-30.29-19.07 5.5 5.27 29.83 20.94 32.16 22.06 0-.02.22-33.57-.65-35.99z"/><path fill="url(#linear-gradient-61)" d="M45.82 162.09l-.11 34.86-31.4-20.94-4.75-34.86 36.26 20.94z"/><path class="cls-257" d="M11.92 142.52l-2.36-1.37 4.75 34.86 31.4 20.94v-2.36l-29.36-19.6-4.43-32.47z"/><path class="cls-258" d="M17.23 175.59l-.89-.6-4.43-32.48-2.36-1.37L14.31 176l1.81 1.21a6.1 6.1 0 011.11-1.62z"/><path class="cls-257" d="M17.69 147.63a25.07 25.07 0 015.54 2.72c2.32 1.53 4.63 3.65 4.77 6.65.22 5-.92 6.42-3 8s-6.35 1.21-7.93-1 .82-4.9 1.93-4.06c.26.2-.25 1.19 1.09 1.19a1.53 1.53 0 001.17-2.42 2.33 2.33 0 00-3.18-.57c-2.6 1.25-3 5.57-1.3 7.34 4.48 4.68 12.46 1 12.89-5.62a10.85 10.85 0 00-1.8-7.38 9.79 9.79 0 00-1.3-1.48l-6.64-3.83c-1-.26-1.93-.24-2.24.46zm25.88 40.54a3.72 3.72 0 01-5.63 1.22c1.49 2.19 7.16 6.22 7.78 5.19v-14c0-1.37-1.27-4-3-6.41-3.93-5.37-12.63-4.15-13.88 2.21-.48 2.39 2.18 5.83 5 5.48 1.7-.2 2.35-1.22 2.37-2.19a1.53 1.53 0 00-2.21-1.41c-1.12.73-.16 1.28-.27 1.59-.49 1.31-4 .2-3.81-2.38s3.62-5.26 6.15-5.08 4.35.75 6.86 5.1c1.47 2.63 1.96 7.66.64 10.68z"/><path class="cls-258" d="M11.77 144.48L13 153.2c.43-4.31 2.87-5.51 6.29-4.64a4.8 4.8 0 001.93.12c-3.22-1.23-6.22-2.99-9.45-4.2z"/><path class="cls-252" d="M45.71 186.53a26.73 26.73 0 00-.53-5.16c-.93-3.75-1.33-4.17-3.05-6.54-3.94-5.36-12.64-4.15-13.89 2.2-.48 2.4 2.18 5.83 5 5.48 1.7-.2 2.35-1.21 2.37-2.19a1.53 1.53 0 00-2.28-1.42c-1.12.73-.17 1.28-.28 1.59-.48 1.31-4 .19-3.82-2.39s3.63-5.26 6.16-5.08 4.35.76 6.86 5.11a16.65 16.65 0 011.74 9c-.11 1.83-.62 3.11-1.53 3.65-2 1.2-5 .62-5 .62l8.25 5.49v-10.44z"/><path class="cls-259" d="M30.3 181.57a4.09 4.09 0 003 .95c1.7-.2 2.35-1.21 2.37-2.19v-.14c-1.26 3.4-5.17 1.49-5.37 1.38z"/><path class="cls-17" d="M33.45 172.41a10.5 10.5 0 018.22 1.86c-4.11-4.71-12.23-3.35-13.43 2.76a4.51 4.51 0 00.93 3.35c-1.82-2.87 1.23-7.31 4.28-7.97zm4.27 19.09a5 5 0 004.85.13c1.72-1 2.09-2.61 2-4.52a18.12 18.12 0 00-.88-5 20.25 20.25 0 01.32 5c-.11 1.83-.62 3.11-1.53 3.65a8 8 0 01-4.76.74zm-6.37-10.59c.88.63 2.16.45 2.29-.45a1.13 1.13 0 01.67-1 1 1 0 011.24.25 1.52 1.52 0 00-2.18-.82c-1.12.73-.17 1.28-.28 1.59-.21.58-.96.68-1.74.43z"/><ellipse class="cls-257" cx="30.6" cy="167.52" rx="4.25" ry="4.9"/><ellipse class="cls-252" cx="29.65" cy="168.19" rx="4.16" ry="4.75"/><path class="cls-259" d="M33.48 166.33c.33 2.53-.27 4.48-1.83 5.56a4 4 0 01-5.51-1.17 4.06 4.06 0 003.51 2.22 4.33 4.33 0 004.15-4.59 6.4 6.4 0 00-.32-2.02z"/><path class="cls-17" d="M26.14 167.14a3.8 3.8 0 014.18-2.85 4.22 4.22 0 013.2 2.2 4.22 4.22 0 00-3.88-3c-2.3 0-4.16 2.13-4.16 4.75a5.2 5.2 0 00.32 1.79 8.14 8.14 0 01.34-2.89z"/><path class="cls-257" d="M22.4 169.19c-.66.34-2.06.47-2.59 1 0 0 .29.53.48.58a7.13 7.13 0 002.93 0c.47-.13 1.56-.81 1.7-1.3a1.2 1.2 0 00-.57-1c-.61-.23-1.63.53-1.95.72z"/><path class="cls-252" d="M21.92 168.62a7.21 7.21 0 00-2.11 1.55 7.17 7.17 0 002.93 0 3.21 3.21 0 001.7-1.29c.29-.98-2.08-.5-2.52-.26z"/><path class="cls-17" d="M24.23 169.17a1.05 1.05 0 00.22-.34c.29-.93-2.09-.45-2.52-.22a7.21 7.21 0 00-2.11 1.55l.48.06a5.55 5.55 0 013.93-1.05z"/><path class="cls-257" d="M34.36 161.18c.55-.51 1.18-1.78 1.84-2.11 0 0 .4.47.38.67a7.17 7.17 0 01-1.07 2.76 3.34 3.34 0 01-1.84 1.15 1.21 1.21 0 01-.75-.9c.08-.65 1.18-1.33 1.44-1.57z"/><path class="cls-252" d="M34 160.51a7.55 7.55 0 012.22-1.44 7.11 7.11 0 01-1.08 2.77 3.3 3.3 0 01-1.85 1.16c-.99-.08.32-2.15.71-2.49z"/><path class="cls-17" d="M36.11 159.21a.22.22 0 01.08-.05.64.64 0 000-.09 7.55 7.55 0 00-2.19 1.44c-.38.34-1.68 2.41-.69 2.47a.55.55 0 00.24 0c-.09-1.68 1.52-2.65 2.56-3.77z"/><path class="cls-257" d="M30.86 159.78c.22-.72.12-2.13.53-2.75 0 0 .58.2.66.39a7.26 7.26 0 01.45 2.93 3.26 3.26 0 01-1 1.91 1.22 1.22 0 01-1.11-.4c-.27-.58.36-1.74.47-2.08z"/><path class="cls-252" d="M30.2 159.39a7.52 7.52 0 011.2-2.39 7.27 7.27 0 01.46 2.93 3.34 3.34 0 01-1 1.91c-.86.49-.86-1.96-.66-2.45z"/><path class="cls-17" d="M30.79 159.05a4 4 0 01.64-1.92.72.72 0 010-.1 7.52 7.52 0 00-1.2 2.36c-.14.48-.24 2.86.62 2.5a6.79 6.79 0 01-.06-2.84z"/><path class="cls-257" d="M36.67 164.23c.71-.24 1.79-1.16 2.53-1.19 0 0 .18.59.08.76a7.21 7.21 0 01-2.1 2.1 3.31 3.31 0 01-2.14.32 1.22 1.22 0 01-.33-1.12c.29-.59 1.63-.76 1.96-.87z"/><path class="cls-252" d="M36.59 163.46a7.63 7.63 0 012.61-.46 7.11 7.11 0 01-2.09 2.1 3.3 3.3 0 01-2.14.32c-.89-.42 1.15-1.79 1.62-1.96z"/><path class="cls-17" d="M39 163.29l.19-.26a7.63 7.63 0 00-2.61.43c-.48.16-2.51 1.54-1.62 2a1.06 1.06 0 00.39.08c-.18-1.68 2.06-2.06 3.65-2.25z"/><path class="cls-257" d="M37.62 168.12c.74.1 2.12-.24 2.79.06 0 0-.09.61-.26.72a7.27 7.27 0 01-2.81.95 3.31 3.31 0 01-2.06-.67 1.21 1.21 0 01.21-1.16c.51-.37 1.77.05 2.13.1z"/><path class="cls-252" d="M37.89 167.4a7.5 7.5 0 012.52.78 7.15 7.15 0 01-2.81.95 3.32 3.32 0 01-2.06-.67c-.54-.81 1.85-1.12 2.35-1.06z"/><path class="cls-17" d="M36 168.74a6.38 6.38 0 013-1.12 7.42 7.42 0 00-1.07-.22c-.5-.06-2.93.25-2.34 1.05a1.08 1.08 0 00.41.3z"/><path class="cls-257" d="M23.44 172.62c-.51.54-1.77 1.14-2.1 1.8 0 0 .45.41.65.38a7 7 0 002.74-1 3.28 3.28 0 001.16-1.8 1.18 1.18 0 00-.89-.75c-.64.02-1.32 1.12-1.56 1.37z"/><path class="cls-252" d="M22.78 172.24a7.57 7.57 0 00-1.44 2.18 7.08 7.08 0 002.74-1 3.23 3.23 0 001.15-1.79c-.05-1.03-2.11.24-2.45.61z"/><path class="cls-17" d="M25.07 172.13a1.16 1.16 0 00.16-.54c-.05-1-2.11.29-2.45.65a8 8 0 00-.86 1.1 4.48 4.48 0 013.15-1.21z"/><path class="cls-257" d="M25.93 175c-.29.69-1.29 1.71-1.38 2.44 0 0 .57.22.76.13a7.18 7.18 0 002.25-1.93 3.3 3.3 0 00.47-2.11 1.19 1.19 0 00-1.1-.41c-.59.32-.86 1.6-1 1.88z"/><path class="cls-252" d="M25.18 174.91a7.7 7.7 0 00-.63 2.57 7.11 7.11 0 002.25-1.93 3.26 3.26 0 00.48-2.12c-.39-.91-1.91 1.02-2.1 1.48z"/><path class="cls-17" d="M27.3 174.17a1.37 1.37 0 000-.73c-.39-.91-1.9 1-2.1 1.48a6.61 6.61 0 00-.25.64 4.63 4.63 0 012.35-1.39z"/><path d="M32.23 168.19a2.9 2.9 0 01-2.69 3.09 3.11 3.11 0 010-6.16 2.9 2.9 0 012.69 3.07z" fill="#7ad6bd"/><path class="cls-261" d="M31.27 165.86a2.43 2.43 0 010 1.78 2.38 2.38 0 01-1.19 1.65 2.27 2.27 0 01-3.24-1.12 2.91 2.91 0 002.69 3.09 2.9 2.9 0 002.69-3.09 3.21 3.21 0 00-.95-2.31z"/><path d="M27.84 168.17a.93.93 0 00.19.29c.68.74 1.71-.64 2-1.22.58-1-.45-2.13-1.42-1.41a2.47 2.47 0 00-.77 2.34z" fill="#9bffe4"/><path class="cls-44" d="M28.75 167a.68.68 0 00.59-.52.35.35 0 00-.58-.32c-.28.21-.39.78-.01.84z"/><path d="M30.69 170.51a2.85 2.85 0 001.13-1.5 3 3 0 00-.06-1.79 3.24 3.24 0 01-1.89 2.86 2.55 2.55 0 01-1.9-.23c-.25-.11-.42-.31-.65-.44 0 0 .1.28.11.29a3.35 3.35 0 00.22.35 2.09 2.09 0 001.68.82 2.56 2.56 0 001.36-.36z" fill="#437781"/><path class="cls-252" d="M26.93 152.53a13 13 0 00-4.36-3.92l-2.64-1.46-10.37-6 1.55 11.36c.43-4.31 2.86-5.5 6.29-4.63h.05a24.32 24.32 0 014.87 2.46C24.64 151.88 27 154 27.1 157c.23 5-.91 6.42-3 8s-6.35 1.2-7.92-1 .83-4.9 1.94-4.06c.26.2-.25 1.19 1.09 1.19a1.52 1.52 0 001.16-2.42 2.32 2.32 0 00-3.18-.57c-2.6 1.25-3 5.57-1.3 7.33 4.48 4.68 12.46 1 12.89-5.62a10.83 10.83 0 00-1.85-7.32z"/><path class="cls-259" d="M20.17 160.33a1.09 1.09 0 01-1.11.35c-.56-.17-.43-.85-1-1a1.29 1.29 0 00-1.42.66c.48-.43 1-.61 1.42-.31s-.25 1.19 1.09 1.19a1.53 1.53 0 001.44-1.71 1.9 1.9 0 01-.42.82z"/><path class="cls-17" d="M26.88 155.69a6.1 6.1 0 01.22 1.31c.23 5-.91 6.42-3 8a6.56 6.56 0 01-5.38.65c6.22 2.91 10.63-4.03 8.16-9.96zm-15.7-11.76c1.18-.73 12.87 5.74 14.3 6.87a12.24 12.24 0 00-2.91-2.19l-2.64-1.46-10.37-6 1.55 11.36c.07-.65-.3-8.35.07-8.58zm9.28 15.12a1.13 1.13 0 00-.15-.29 2.32 2.32 0 00-3.18-.57c-2.6 1.25-3 5.57-1.3 7.33l.39.38c-1.31-1.95-1.39-4.49-.06-5.92a4.41 4.41 0 012.28-1.46 2.13 2.13 0 012.02.53z"/><ellipse class="cls-44" cx="17.3" cy="158.6" rx=".64" ry=".25" transform="rotate(-27.29 17.291 158.594)"/><path class="cls-44" d="M33.93 179.06c.31.22-.24.63-.44.68a.26.26 0 01-.3-.14c-.19-.35.45-.75.74-.54z"/><path fill="url(#linear-gradient-62)" d="M110.35 126.47l-7.62 53.21-47.56 31.96.18-53.21 55-31.96z"/><path class="cls-9" d="M110.35 126.47l-7.62 53.21-36.23 24.34 34.19-25.9 9.66-51.65z" opacity=".6"/><path class="cls-9" d="M110.35 126.47l-.28 1.92-49.65 33.03-4.45 49.68-.8.54.18-53.21 55-31.96z"/><path class="cls-252" d="M57.67 201.44a3 3 0 102.93-3.3 3.14 3.14 0 00-2.93 3.3z"/><path class="cls-266" d="M58.2 201.63a2.78 2.78 0 102.8-3.14 3 3 0 00-2.8 3.14z"/><path class="cls-267" d="M61 198.49a2.38 2.38 0 01.88.18 3.36 3.36 0 01.78 2.17 3 3 0 01-2.8 3.16 2.49 2.49 0 01-.89-.18 3.32 3.32 0 01-.78-2.17 3 3 0 012.81-3.16z"/><ellipse cx="60.21" cy="201.14" rx="1.69" ry="1.94" fill="url(#linear-gradient-63)"/><path class="cls-269" d="M59.13 199.66a1.5 1.5 0 000 1.12 1.47 1.47 0 00.75 1 1.41 1.41 0 002-.7 1.71 1.71 0 11-3.38 0 2 2 0 01.63-1.42z"/><path class="cls-270" d="M61.28 201.12a.6.6 0 01-.11.18c-.43.47-1.08-.4-1.29-.76-.36-.63.29-1.34.9-.88a1.55 1.55 0 01.5 1.46z"/><path class="cls-271" d="M60.71 200.38a.44.44 0 01-.37-.33.22.22 0 01.37-.2c.17.15.24.5 0 .53z"/><path class="cls-272" d="M59.5 202.59a1.82 1.82 0 01-.72-.94 1.93 1.93 0 010-1.12 2.06 2.06 0 001.19 1.8 1.64 1.64 0 001.19-.14c.16-.07.26-.2.41-.28a1.31 1.31 0 01-.07.18 1.76 1.76 0 01-.15.22 1.3 1.3 0 01-1 .51 1.53 1.53 0 01-.85-.23z"/><ellipse class="cls-252" cx="59.87" cy="161.37" rx="2.93" ry="3.3"/><ellipse class="cls-266" cx="60.21" cy="161.55" rx="2.76" ry="3.13"/><path class="cls-267" d="M60.21 158.42a2.39 2.39 0 01.88.18 3.31 3.31 0 01.78 2.17 3 3 0 01-2.75 3.12 2.45 2.45 0 01-.88-.17 3.37 3.37 0 01-.78-2.18 3 3 0 012.75-3.12z"/><path d="M57.79 161.07a1.71 1.71 0 101.69-1.93 1.83 1.83 0 00-1.69 1.93z" fill="url(#linear-gradient-64)"/><path class="cls-269" d="M58.39 159.6a1.53 1.53 0 000 1.12 1.48 1.48 0 00.75 1 1.42 1.42 0 002-.71 1.71 1.71 0 11-3.38 0 2.05 2.05 0 01.63-1.41z"/><path class="cls-270" d="M60.55 161.05a.49.49 0 01-.11.19c-.43.46-1.08-.41-1.29-.77-.37-.63.28-1.33.89-.88a1.53 1.53 0 01.51 1.46z"/><path class="cls-271" d="M60 160.31a.41.41 0 01-.37-.32.22.22 0 01.36-.19c.15.13.22.48.01.51z"/><path class="cls-272" d="M58.76 162.52a1.78 1.78 0 01-.71-.94 1.9 1.9 0 010-1.13 2.07 2.07 0 001.19 1.8 1.6 1.6 0 001.19-.15 4.45 4.45 0 00.42-.27 1.76 1.76 0 01-.07.18 2.3 2.3 0 01-.14.22 1.32 1.32 0 01-1.06.52 1.68 1.68 0 01-.82-.23z"/><path class="cls-252" d="M101.6 136.42a2.62 2.62 0 102.59-2.93 2.78 2.78 0 00-2.59 2.93z"/><ellipse class="cls-266" cx="104.51" cy="136.58" rx="2.44" ry="2.78"/><path class="cls-267" d="M104.51 133.8a2.16 2.16 0 01.78.17 2.94 2.94 0 01.69 1.93 2.62 2.62 0 01-2.44 2.77 2.12 2.12 0 01-.78-.16 3 3 0 01-.69-1.93 2.63 2.63 0 012.44-2.78z"/><path d="M102.36 136.15a1.51 1.51 0 101.5-1.71 1.61 1.61 0 00-1.5 1.71z" fill="url(#linear-gradient-65)"/><path class="cls-269" d="M102.89 134.85a1.35 1.35 0 000 1 1.3 1.3 0 00.66.92 1.26 1.26 0 001.81-.63 1.51 1.51 0 11-3 0 1.83 1.83 0 01.53-1.29z"/><path class="cls-270" d="M104.81 136.14a.65.65 0 01-.1.17c-.38.41-1-.36-1.14-.69-.32-.56.25-1.18.79-.78a1.38 1.38 0 01.45 1.3z"/><path class="cls-271" d="M104.29 135.48a.38.38 0 01-.32-.29.19.19 0 01.32-.18c.16.13.21.44 0 .47z"/><path class="cls-272" d="M103.22 137.44a1.63 1.63 0 01-.63-.84 1.66 1.66 0 010-1 1.83 1.83 0 001.06 1.6 1.47 1.47 0 001.06-.14c.14-.06.23-.17.37-.24a1.12 1.12 0 01-.06.16l-.13.2a1.15 1.15 0 01-.93.46 1.48 1.48 0 01-.74-.2z"/><ellipse class="cls-252" cx="99.53" cy="177.21" rx="2.6" ry="2.93"/><ellipse class="cls-266" cx="99.84" cy="177.37" rx="2.45" ry="2.77"/><path class="cls-267" d="M99.84 174.6a2.12 2.12 0 01.79.15 3 3 0 01.68 1.93 2.63 2.63 0 01-2.44 2.78 2.09 2.09 0 01-.78-.16 3 3 0 01-.69-1.93 2.62 2.62 0 012.44-2.77z"/><path d="M97.69 176.94a1.51 1.51 0 101.5-1.71 1.62 1.62 0 00-1.5 1.71z" fill="url(#linear-gradient-66)"/><path class="cls-269" d="M98.23 175.63a1.35 1.35 0 000 1 1.31 1.31 0 00.66.93 1.27 1.27 0 001.81-.63 1.51 1.51 0 11-3 0 1.81 1.81 0 01.53-1.3z"/><path class="cls-270" d="M100.14 176.93a.53.53 0 01-.1.16c-.38.41-1-.36-1.14-.68-.32-.56.25-1.18.8-.78a1.38 1.38 0 01.44 1.3z"/><path class="cls-271" d="M99.63 176.27c-.12 0-.3-.15-.32-.29a.19.19 0 01.32-.18c.15.13.21.45 0 .47z"/><path class="cls-272" d="M98.55 178.23a1.54 1.54 0 01-.63-.84 1.6 1.6 0 010-1A1.83 1.83 0 0099 178a1.44 1.44 0 001.06-.13 3.27 3.27 0 00.37-.25.6.6 0 01-.06.17l-.13.19a1.14 1.14 0 01-.93.45 1.34 1.34 0 01-.76-.2z"/><path class="cls-9" d="M64.1 161.25c-.59.87-.8 24.59.23 35.73 2.31-.53 37-55 37-56.4.09-1.77-36.58 19.72-37.23 20.67z" opacity=".58"/><path d="M101.29 140.22S88.13 173.2 86 175.55c-3.91 4.41-20.59 18.72-21.64 21.6 5.56-2.72 32.31-20.59 32.45-21.07.25-.69 4.49-35.82 4.48-35.86z" opacity=".58" fill="#f1cc30"/><path fill="url(#linear-gradient-67)" d="M64.29 161.58l.12 35.57 32.03-21.37 4.85-35.56-37 21.36z"/><path class="cls-13" d="M98.89 141.6l2.4-1.38-4.85 35.56-32.03 21.37-.01-2.42 29.97-19.98 4.52-33.15z"/><path class="cls-258" d="M93.45 175.36l.92-.61 4.52-33.14 2.41-1.39-4.85 35.57-1.86 1.21a5.94 5.94 0 00-1.14-1.64z"/><path class="cls-13" d="M93 146.83a25.27 25.27 0 00-5.66 2.78c-2.37 1.56-4.74 3.71-4.88 6.81-.23 5.13.94 6.55 3.1 8.16s6.48 1.23 8.08-1-.84-5-2-4.14c-.27.2.25 1.21-1.11 1.22a1.55 1.55 0 01-1.18-2.47c.55-.83 1.67-1.34 3.24-.58 2.65 1.28 3 5.69 1.33 7.49-4.57 4.77-12.72 1-13.16-5.74a11.06 11.06 0 011.84-7.53 10.4 10.4 0 011.29-1.58l6.77-3.91c1.07-.26 1.98-.23 2.34.49zm-26.41 41.36a3.79 3.79 0 005.74 1.25c-1.52 2.24-7.31 6.34-7.94 5.29v-14.28c0-1.4 1.3-4.13 3.06-6.53 4-5.48 12.89-4.25 14.17 2.25.48 2.44-2.23 5.94-5.15 5.6-1.73-.21-2.39-1.24-2.42-2.24a1.55 1.55 0 012.33-1.44c1.14.73.17 1.3.28 1.61.5 1.34 4 .2 3.89-2.42s-3.69-5.37-6.28-5.19-4.44.76-7 5.21c-1.53 2.7-2.04 7.81-.68 10.89z"/><path class="cls-258" d="M99 143.6l-1.22 8.9c-.45-4.39-2.93-5.62-6.42-4.73a4.68 4.68 0 01-2 .12c3.35-1.25 6.4-3.05 9.64-4.29z"/><path class="cls-8" d="M64.41 186.51a27.4 27.4 0 01.54-5.26c1-3.83 1.36-4.27 3.12-6.67 4-5.47 12.89-4.24 14.17 2.25.48 2.45-2.23 5.95-5.15 5.6-1.73-.21-2.4-1.24-2.41-2.24a1.55 1.55 0 012.32-1.45c1.15.74.17 1.31.28 1.62.49 1.34 4.05.19 3.89-2.43s-3.7-5.37-6.28-5.19-4.44.76-7 5.21a17 17 0 00-1.77 9.23c.12 1.86.63 3.17 1.56 3.73 2 1.22 5.14.62 5.14.62l-8.41 5.61v-10.66z"/><path class="cls-252" d="M65.83 180.38a12.88 12.88 0 014.46-7.11 10.18 10.18 0 018.42-1.27 8.44 8.44 0 00-10.64 2.53c-1.77 2.41-2.17 2.85-3.12 6.67a27.4 27.4 0 00-.54 5.26v3.14a76.73 76.73 0 011.42-9.22zM76 180a1.18 1.18 0 011.6-.44c0-.23-.11-.5-.57-.79a1.55 1.55 0 00-2.32 1.45 2.17 2.17 0 001.57 2A1.89 1.89 0 0176 180zm3.16.76c.54 0 1.63-.37 2.18-1.93a3.42 3.42 0 00-1.59-3.83 4.89 4.89 0 011.43 3 2.88 2.88 0 01-2.02 2.76z"/><path class="cls-13" d="M75.49 167.11c0 2.76 1.94 5 4.33 5s4.33-2.24 4.33-5-1.94-5-4.33-5-4.33 2.25-4.33 5z"/><ellipse class="cls-8" cx="80.78" cy="167.8" rx="4.24" ry="4.85"/><path class="cls-252" d="M76.9 168.11c.25-1.39.52-2.86 1.62-3.71 2-1.58 4.23-.59 5.57.36a4.07 4.07 0 00-3.3-1.81c-2.34 0-4.25 2.17-4.25 4.85a5.38 5.38 0 00.35 1.91 5 5 0 01.01-1.6z"/><path class="cls-279" d="M84.28 165.05c.37 1.52.7 4.82-1.89 6.4-2.4 1.46-4.64-.71-5.36-1.4a4.21 4.21 0 003.76 2.61c2.34 0 4.24-2.18 4.24-4.86a5.32 5.32 0 00-.75-2.75z"/><path class="cls-13" d="M88.19 168.83c.68.34 2.1.47 2.65 1 0 0-.3.55-.5.6a7.64 7.64 0 01-3 0c-.48-.14-1.59-.83-1.74-1.33a1.21 1.21 0 01.58-1c.65-.25 1.69.57 2.01.73z"/><path class="cls-8" d="M88.68 168.23a7.61 7.61 0 012.15 1.58 7.25 7.25 0 01-3 0 3.32 3.32 0 01-1.74-1.32c-.28-.99 2.14-.49 2.59-.26z"/><path class="cls-279" d="M89.16 168.5a3.2 3.2 0 01-2.45.66 3.83 3.83 0 001.13.63 7.25 7.25 0 003 0 7.52 7.52 0 00-1.68-1.29z"/><path class="cls-13" d="M76 160.65c-.56-.51-1.2-1.82-1.88-2.15 0 0-.41.48-.39.68a7.36 7.36 0 001.1 2.82 3.36 3.36 0 001.87 1.17 1.22 1.22 0 00.76-.92c-.07-.66-1.21-1.35-1.46-1.6z"/><path class="cls-8" d="M76.36 160a7.67 7.67 0 00-2.26-1.47 7.29 7.29 0 001.1 2.82 3.4 3.4 0 001.87 1.17c1.01-.1-.32-2.2-.71-2.52z"/><path class="cls-279" d="M75 161c.07.12.13.23.21.34a3.4 3.4 0 001.87 1.17c.61 0 .37-.82 0-1.51a2.39 2.39 0 01-2.08 0z"/><path class="cls-13" d="M79.55 159.22c-.22-.73-.12-2.18-.55-2.8 0 0-.59.21-.67.4a7.37 7.37 0 00-.47 3 3.4 3.4 0 001 2 1.26 1.26 0 001.13-.42c.32-.66-.33-1.83-.44-2.18z"/><path class="cls-8" d="M80.23 158.83a7.75 7.75 0 00-1.23-2.41 7.24 7.24 0 00-.46 3 3.35 3.35 0 001 2c.94.4.84-2.1.69-2.59z"/><path class="cls-279" d="M80.23 158.83a7.06 7.06 0 00-.3-.81 3.08 3.08 0 01-1.2 2.06 2.6 2.6 0 00.85 1.28c.9.46.8-2.04.65-2.53z"/><path class="cls-13" d="M73.62 163.76c-.72-.25-1.82-1.19-2.58-1.22 0 0-.19.6-.08.78a7.4 7.4 0 002.14 2.14 3.33 3.33 0 002.18.33 1.23 1.23 0 00.33-1.15c-.32-.59-1.61-.77-1.99-.88z"/><path class="cls-8" d="M73.71 163a7.88 7.88 0 00-2.66-.45 7.31 7.31 0 002.13 2.16 3.4 3.4 0 002.18.32c.9-.49-1.16-1.88-1.65-2.03z"/><path class="cls-279" d="M74.61 163.52a3.53 3.53 0 01-2.61.21 5.55 5.55 0 001.18 1 3.4 3.4 0 002.18.32c.59-.34-.07-1.05-.75-1.53z"/><path class="cls-13" d="M72.66 167.72c-.76.1-2.17-.24-2.86.06 0 0 .1.62.28.74a7.46 7.46 0 002.87 1 3.3 3.3 0 002.05-.72 1.23 1.23 0 00-.21-1.18c-.51-.37-1.79.06-2.13.1z"/><path class="cls-8" d="M72.38 167a7.67 7.67 0 00-2.58.79 7.29 7.29 0 002.87 1 3.34 3.34 0 002.1-.69c.61-.85-1.87-1.18-2.39-1.1z"/><path class="cls-279" d="M74 167.21a5.1 5.1 0 01-2.42 1.33 4.49 4.49 0 001.11.21 3.34 3.34 0 002.1-.69c.29-.4-.19-.68-.79-.85z"/><path class="cls-13" d="M87.13 172.32c.51.55 1.8 1.17 2.13 1.84 0 0-.46.41-.67.39a7.38 7.38 0 01-2.8-1.06 3.33 3.33 0 01-1.17-1.84 1.24 1.24 0 01.9-.77c.67.05 1.37 1.18 1.61 1.44z"/><path class="cls-8" d="M87.8 171.93a7.54 7.54 0 011.47 2.23 7.4 7.4 0 01-2.8-1.06 3.34 3.34 0 01-1.18-1.83c.06-1.01 2.16.29 2.51.66z"/><path class="cls-279" d="M88 172.11a1.08 1.08 0 01-.28.53 1.51 1.51 0 01-1.4.28l.2.17a7.4 7.4 0 002.8 1.06 7.37 7.37 0 00-1.32-2.04z"/><path class="cls-13" d="M84.59 174.8c.3.7 1.32 1.74 1.4 2.49 0 0-.58.23-.77.14a7.28 7.28 0 01-2.3-2 3.39 3.39 0 01-.48-2.15 1.24 1.24 0 011.13-.41c.59.29.87 1.6 1.02 1.93z"/><path class="cls-8" d="M85.36 174.66a7.66 7.66 0 01.63 2.62 7.34 7.34 0 01-2.3-2 3.39 3.39 0 01-.48-2.16c.4-.89 1.94 1.07 2.15 1.54z"/><path class="cls-279" d="M84.44 176.15a10.65 10.65 0 001.56 1.13 7.66 7.66 0 00-.63-2.62 2.5 2.5 0 00-.18-.32 3.41 3.41 0 01-.75 1.81z"/><ellipse class="cls-261" cx="80.9" cy="167.8" rx="2.74" ry="3.14"/><path d="M82.66 165.42a2.52 2.52 0 010 1.82 2.46 2.46 0 01-1.21 1.69 2.31 2.31 0 01-3.31-1.15 2.77 2.77 0 105.48 0 3.3 3.3 0 00-.96-2.36z" fill="#508c7d"/><path d="M79.16 167.77a1 1 0 00.18.31c.7.75 1.75-.66 2.09-1.26.59-1-.46-2.17-1.45-1.43a2.49 2.49 0 00-.82 2.38z" fill="#7bcdb7"/><path class="cls-44" d="M80.1 166.58a.7.7 0 00.59-.53.35.35 0 00-.59-.32c-.28.22-.39.8 0 .85z"/><path d="M82.06 170.16a2.89 2.89 0 001.16-1.53 3 3 0 00-.06-1.82 3.33 3.33 0 01-1.93 2.92 2.68 2.68 0 01-1.94-.24c-.25-.12-.42-.32-.67-.45 0 0 .11.28.11.29l.23.36a2.12 2.12 0 001.71.83 2.6 2.6 0 001.39-.36z" fill="#37616a"/><path class="cls-8" d="M83.56 151.82a13.12 13.12 0 014.45-4l2.69-1.49 10.59-6.11-1.58 11.6c-.44-4.39-2.92-5.62-6.42-4.73h-.06a25.61 25.61 0 00-5 2.52c-2.36 1.56-4.63 4.12-4.88 6.81-.47 5.11.94 6.56 3.1 8.16s6.48 1.22 8.08-1-.84-5-2-4.14c-.26.2.26 1.2-1.1 1.21a1.56 1.56 0 01-1.19-2.47c.56-.83 1.67-1.34 3.24-.58 2.65 1.28 3.06 5.69 1.33 7.49-4.57 4.77-12.72 1-13.15-5.74a11.06 11.06 0 011.9-7.53z"/><path class="cls-252" d="M82.29 156.42a11.75 11.75 0 014.93-7.27c3.92-2.52 14.07-8.93 14.07-8.93l-10.59 6.11-2.7 1.49a13.12 13.12 0 00-4.45 4 11.06 11.06 0 00-1.83 7.53 8.33 8.33 0 001.79 4.65 14.26 14.26 0 01-1.22-7.58zm11.41 1.26l-.15-.08c-1.57-.75-2.68-.24-3.24.58a1.56 1.56 0 001.19 2.47 2.17 2.17 0 01-.5-2c.49-1.18 2.29-1.15 2.7-.97z"/><path class="cls-279" d="M95.24 163.61c-2.07 3.86-7.17 3.63-10 2.06a7.23 7.23 0 009.65-.58c1.45-1.53 1.39-4.9-.26-6.69a6.76 6.76 0 01.61 5.21z"/><path class="cls-44" d="M90.42 158.93c0 .13.11.24.22.25s.23-.47.27-.58.43-.58.2-.74-.65.42-.7.58a.93.93 0 00.01.49zm-14 19.96c-.32.22.24.65.46.69a.26.26 0 00.31-.14c.17-.36-.47-.77-.77-.55z"/><path class="cls-17" d="M55.17 158.39c-.25.91-.71 12.48-.76 26.61s.46 25.88.71 26.6c.25-.28.88-12.07.93-26.62 0-14-.36-25.46-.59-26.58h.08z"/><path fill="url(#linear-gradient-68)" d="M96.46 126.47L55.3 150.38l-41.41-23.91H0l55.35 31.96 55-31.96H96.46z"/><path class="cls-23" d="M110.35 126.47l-55 31.96L0 126.47l55.17 29.22 55.18-29.22z"/></svg>