<svg id="layer_1" data-name="layer 1" xmlns="http://www.w3.org/2000/svg" viewBox="0 0 63.12 62.22"><defs><style>.cls-1{fill:#ffb01f}.cls-2{fill:#ffd800;opacity:.8;isolation:isolate}.cls-4{fill:#ffe100}</style></defs><g id="layer_1-2" data-name="layer 1"><path class="cls-1" d="M33.94 56.69c0 2-1.06 3.64-2.37 3.64s-2.37-1.63-2.37-3.64V32.17c0-2 1.06-3.64 2.37-3.64s2.37 1.63 2.37 3.64z"/><path class="cls-2" d="M33.94 56.69c0 2-1.06 3.64-2.37 3.64s-2.37-1.63-2.37-3.64V32.17c0-2 1.06-3.64 2.37-3.64s2.37 1.63 2.37 3.64z"/><path d="M31.13 41.1a9.3 9.3 0 002.8-.12v-8.81c0-2-1.06-3.64-2.37-3.64s-2.37 1.63-2.37 3.64v8.57c.74.16 1.81.34 1.94.36zM29.2 53.71v3c0 2 1.06 3.64 2.37 3.64s2.37-1.63 2.37-3.64v-3.14c-1.58-.04-3.16.07-4.74.14z" style="isolation:isolate" fill="#ffac1d" opacity=".9"/><path class="cls-1" d="M44.2 62.22c-3-11.23-22.15-11-25.26 0z"/><path class="cls-2" d="M30.8 53.9a3.42 3.42 0 011.06.33 1.85 1.85 0 01.81 2.67 6.29 6.29 0 01-3 2.13A18.64 18.64 0 0126 60.14c-1.33.26-3.18.56-4.36-.3a2 2 0 01-.82-1.32 10.23 10.23 0 00-1.92 3.7h25.3c-1.6-5.88-7.6-8.62-13.4-8.32z"/><path class="cls-1" d="M44.59 31.47h-.5a1.69 1.69 0 010-3.38c5.57.08 10.3-1.49 13-4.33a10 10 0 002.57-7.92 5.8 5.8 0 00-2.12-4.54c-2.7-2-7.2-1.06-7.24-1a1.69 1.69 0 11-.74-3.3c.24 0 6-1.31 10 1.63a9.07 9.07 0 013.5 7 13.41 13.41 0 01-3.52 10.45c-3.25 3.48-8.54 5.39-14.95 5.39z"/><path class="cls-1" d="M50.3 10.25a13.41 13.41 0 013.7-.17c-.09-1.15-.22-2.28-.35-3.42a16.36 16.36 0 00-4.1.29 1.69 1.69 0 00.74 3.3zm.7 19.58a18.55 18.55 0 001.25-3 22.66 22.66 0 01-8.06 1.24 1.69 1.69 0 000 3.38h.5a27.9 27.9 0 005.63-.55 11.38 11.38 0 00.68-1.07zm-32.46 1.64c-6.39 0-11.7-1.91-15-5.39a13.42 13.42 0 01-3.46-10.5 9.07 9.07 0 013.5-7c4-3 9.75-1.69 10-1.63a1.69 1.69 0 11-.74 3.3s-4.54-1-7.26 1.06a5.79 5.79 0 00-2.13 4.53A10 10 0 006 23.76c2.67 2.84 7.4 4.42 13 4.33a1.69 1.69 0 010 3.38z"/><path class="cls-1" d="M8.68 10.13a13.21 13.21 0 014.16.12A1.69 1.69 0 1013.58 7a16.4 16.4 0 00-4.69-.24c-.1 1.08-.18 2.24-.21 3.37zM19 28.08a23.21 23.21 0 01-7.28-1 23.84 23.84 0 002.36 4 28.78 28.78 0 004.47.34h.5a1.69 1.69 0 100-3.38z"/><path class="cls-1" d="M51.78 3.6a2.47 2.47 0 00-.61-1 2.86 2.86 0 00-1.31-.6H13.11a2.31 2.31 0 00-1.32.67 2.09 2.09 0 00-.53 1.22v9.57c0 35.69 40.65 36.59 40.65 0v-9.4a4.21 4.21 0 00-.13-.46z"/><path class="cls-2" d="M51.78 3.6a2.47 2.47 0 00-.61-1 2.86 2.86 0 00-1.31-.6H13.11a2.31 2.31 0 00-1.32.67 2.09 2.09 0 00-.53 1.22v9.57c0 35.69 40.65 36.59 40.65 0v-9.4a4.21 4.21 0 00-.13-.46z"/><path class="cls-2" d="M39.83 36.81a22.36 22.36 0 01-11.71 1.41 17.7 17.7 0 01-10.58-5.5A32.66 32.66 0 0113.63 27c6.72 16.63 25.77 18.11 34.18 3.67a20.91 20.91 0 01-7.98 6.14z"/><path class="cls-1" d="M53 2.54a2.54 2.54 0 01-2.51 2.54H12.62a2.54 2.54 0 01-2.54-2.54A2.54 2.54 0 0112.62 0h37.92a2.53 2.53 0 012.53 2.53z"/><path class="cls-4" d="M35.09 2.06a1.38 1.38 0 01-1.37 1.39H13.08a1.38 1.38 0 01-1.38-1.38A1.38 1.38 0 0113.08.68h20.63a1.38 1.38 0 011.38 1.38z"/><path class="cls-1" d="M34 6.16H15s-2.59-.11-2.42 2.31.34 18.66 8.06 24.3S39.43 35.53 42 24s1-16.75-.4-17.48-7.6-.36-7.6-.36z"/><path class="cls-4" d="M31.41 52.14a.55.55 0 01-.55.55.55.55 0 01-.55-.55V42.08a.55.55 0 01.55-.55.55.55 0 01.55.55z"/><path d="M19.25 20.9a1.1 1.1 0 00.12-.42 77.37 77.37 0 01-.71-12.39 1.2 1.2 0 00-.66-.87h-2.46a1.15 1.15 0 00-1.35 1.3 67.81 67.81 0 001.25 13.21 1.43 1.43 0 00.86.54 1.79 1.79 0 00.45 0c.66-.28 1.32-.57 2-.83a1.48 1.48 0 00.5-.54zm-.46 2.16l-1.25.55a1.82 1.82 0 00-1.12 1.29 12.15 12.15 0 001.12 2.1 1.78 1.78 0 002.42.68 1.63 1.63 0 00.52-1c-.27-1.11-.5-2.23-.71-3.36a.93.93 0 00-.98-.26zM7.74 7.28s-7 .56-7.1 9.07c0 0 .74-6.65 7.16-8.23zm47.26 0s7 .56 7.1 9.07c0 0-.73-6.65-7.16-8.23zM28.48 55.26s.73-1-1.69-.28S21 57.69 23.24 58s4.62-1.79 5.24-2.74z" fill="#ffd800"/></g></svg>