<svg id="layer_1" data-name="layer 1" xmlns="http://www.w3.org/2000/svg" viewBox="0 0 340.78 293.5"><defs><style>.cls-1,.cls-3{fill:#7a8088}.cls-2{fill:#59616a}.cls-3{opacity:.3}.cls-3,.cls-7{isolation:isolate}.cls-4,.cls-7{opacity:.5}.cls-5,.cls-7{fill:#e26d0e}.cls-6{fill:#b64c00}.cls-8{fill:#cb6d2e}.cls-9{fill:#8e929a}.cls-10{fill:#ffb200}.cls-11{fill:#67707d}</style></defs><g id="layer_1-2" data-name="layer 1"><path class="cls-1" d="M340.2 147.24V22.33c0-14.7 1.93-22-12.25-22H15.79C1 .37.4 3 .4 26.68v120.56z"/><path class="cls-2" d="M.78 147.24V26.68c0-23.35.48-25.91 15-25.91H328c4.74 0 7.76.83 9.51 2.6 2.59 2.63 2.49 7.51 2.41 14.28v129.59h.77V22.33c0-1.65 0-3.22.06-4.68.1-6.94.17-12-2.65-14.82C336.21.9 333 0 328.05 0H15.79C.6 0 0 3 0 26.68v120.56z"/><path class="cls-3" d="M340.2 147.24v-45.07q-31.5 23.19-63.89 45zm-251.71 0c44.06-24.9 88.32-49.46 132.42-74.29 39.59-22.29 79-44.83 118.1-68-1.48-3-4.58-4.56-11-4.56h-96.6c-20.93 9.6-41.9 19.14-62.7 29C139 43.54 110 59.39 80.94 74.92Q40.45 96.68.4 119.17v28.07z"/><g class="cls-4"><path class="cls-1" d="M321.66 147.24V17.82H18.87v129.42z"/></g><path class="cls-1" d="M21.94 23.21h295.91v124.02H21.94z"/><path class="cls-5" d="M26.48 146.63h286.83v.61H26.48z"/><path class="cls-6" d="M26.87 147.24V147h286.06v.23h.77v-.61a.39.39 0 00-.38-.39H26.48a.38.38 0 00-.38.38v.61z"/><path class="cls-5" d="M313.31 64.4H26.48v41.5h286.83z"/><path class="cls-6" d="M313.31 106.28H26.48a.38.38 0 01-.38-.38V64.39a.38.38 0 01.37-.39h286.84a.38.38 0 01.38.38v41.5a.38.38 0 01-.37.39zm-286.44-.77h286.06V64.78H26.87z"/><path class="cls-5" d="M26.48 105.9v40.73h286.83V105.9z"/><path class="cls-6" d="M313.31 147H26.48a.38.38 0 01-.38-.38V105.9a.38.38 0 01.38-.38h286.83a.38.38 0 01.38.38v40.73a.38.38 0 01-.38.38zm-286.44-.77h286.06v-40H26.87z"/><path class="cls-5" d="M313.31 26H26.48v38.4h286.83z"/><path class="cls-6" d="M313.31 64.78H26.48a.38.38 0 01-.38-.38V26a.38.38 0 01.38-.37h286.83a.38.38 0 01.38.37v38.4a.38.38 0 01-.38.38zM26.87 64h286.06V26.41H26.87z"/><path class="cls-7" d="M54 32.37c25.56-2.12 51.2-.88 76.77.18 13.07.54 26.14 1 39.22 1 13.34 0 26.4-2.17 39.68-3.08 6.4-.44 12.82-.26 19.24-.35q10.1-.11 20.22-.38c13.5-.36 27-.91 40.5-1.48l23.64-1V26H26.48v10.17A246.33 246.33 0 0154 32.37zM54 71c25.56-2.11 51.2-.88 76.77.18 13.07.54 26.14 1 39.22 1 13.34 0 26.4-2.18 39.68-3.09 6.4-.42 12.82-.26 19.24-.34q10.1-.11 20.22-.39c13.5-.37 27-.9 40.5-1.47l23.64-1v-1.18H26.48v10.16A250.75 250.75 0 0154 71zm0 41.56c25.56-2.12 51.2-.88 76.77.17 13.07.54 26.14 1 39.22 1 13.34 0 26.4-2.19 39.68-3.09 6.4-.43 12.82-.26 19.24-.34q10.1-.11 20.22-.39c13.5-.36 27-.91 40.5-1.47l23.64-1v-1.24H26.48v10.17A247.46 247.46 0 0154 112.56zm-27.52 33.78h286.83v.9H26.48zm143.09-92.79c-26.88.63-53.75 1.37-80.64 1.52-13.46.06-26.87.09-40.33.84-7.37.42-14.74.9-22.12 1.25v7.24h286.83v-9.33c-47.87 2.75-95.82-2.62-143.74-1.52zm0 41.18c-26.88.63-53.75 1.37-80.64 1.51-13.46.07-26.87.1-40.33.86-7.37.41-14.74.88-22.12 1.23v7.23h286.83v-9.32c-47.87 2.76-95.82-2.62-143.74-1.51z"/><path class="cls-7" d="M169.57 135.6c-26.88.62-53.75 1.36-80.64 1.5-13.46.08-26.87.11-40.33.86-7.37.42-14.74.88-22.12 1.25v7.22h286.83v-9.31c-47.87 2.74-95.82-2.63-143.74-1.52z"/><g class="cls-4"><path class="cls-8" d="M49.18 42a50.52 50.52 0 00-11.32-1.22c-3.48-.14-7.17-.67-10.6 0-.1 0-.29.35-.12.35 5.17 0 10.4.43 15.57.76 5.34.33 13.29 1.84 16.91 6.11 2.77 3.25-6.75 4.4-7.66 4.55-2.71.5-5.38 1.11-8 1.73-5.67 1.32-11.05 3.11-17 3.22-.28 0-.61.52-.56.79a.22.22 0 000 .09.18.18 0 00.11 0h.06c6.79.1 13.18-2.31 19.72-3.79 3.85-.88 7.78-1.45 11.61-2.44A3.55 3.55 0 0060.55 50c1.3-5.25-7.69-7-11.37-8z"/><path class="cls-8" d="M69.06 40.25C55.72 37.38 40.58 35.25 27 37c-.11 0-.26.34-.11.34 11.24.27 22.17.52 33.33 2.15a104.09 104.09 0 0118.27 4.06c2.23.75 4.62 1.5 5.95 3.56 1.12 1.77-3 3.61-4 4.1-5.55 2.79-11.93 4.11-17.9 5.33a178.7 178.7 0 01-19.09 2.63c-5.18.47-10.79.35-15.69 2.23-.18.07-.49.64-.14.58 14-1.93 28.15-2.72 41.94-6.12 4.57-1.13 11.41-2.6 14.64-6.28 5.4-6.09-12.13-8.69-15.14-9.33z"/><path class="cls-8" d="M99.94 43.84c-7.45-2.22-15.36-2.52-22.89-4.51-8-2.11-15.68-4.72-23.81-6.21a126.26 126.26 0 00-25.08-2.06c-.15 0-.37.4-.17.43 13.9.8 27.4 2.06 40.81 6a166.22 166.22 0 0018.83 4.68c6.2 1.08 13 1.68 18.47 5 2.7 1.6 1.82 5-.73 6.44a28.23 28.23 0 01-5.54 1.93c-3.13.94-6.35 1.37-9.54 2-6.63 1.37-13.24 2.73-19.93 3.8-7.12 1.13-14.08.76-21.24.46S35 63.5 27.92 63.29c-.44 0-.95 1.06-.47 1.08 7.59.22 15-1.71 22.55-1.5a110.7 110.7 0 0023-1.25c8-1.42 16-3.32 24-4.92 2.79-.58 11.12-1.78 11.74-5.72.72-4.55-5.42-6.13-8.8-7.14zm82.34-17.26a64 64 0 01-13.95 4.52c-4.73.82-9.53 1.53-14.17 2.75-10.26 2.68-20.27 4.24-30.92 3.49-4.45-.32-8.87-1.39-13.3-2S100.8 34 96.26 33.21c-9.88-1.81-20.15-2.9-29.44-6.83-.22-.08-.53.42-.33.52 8.51 4.49 18.67 5.1 28 6.92 9.7 1.89 19.88 3.79 29.73 4.47 10.2.72 19.93-1 29.73-3.6 5.11-1.35 10.42-2.09 15.63-3a53.86 53.86 0 0012.68-4.4c.26-.12.5-.92.02-.71zm8.14.53c-6.64 5.41-16.63 6.58-24.74 8.34-8.5 1.86-17.1 3.74-25.49 6a32.78 32.78 0 00-9.78 4c-3.52 2.26-6.52 5.34-10 7.72-4 2.77-7.95 5.11-12.82 5.9-1.5.24-3.14 1.65-4.44 2.36-2.34 1.31-4.39 2.75-7.15 3.12-.18 0-.4.53-.12.49 4.37-.5 7.58-3.62 11.53-5.25 1.58-.65 3.44-.46 5.08-1.21A52.34 52.34 0 00118 55.4a93.77 93.77 0 009.69-7.2c4.11-3.37 8.48-5 13.57-6.29 8.86-2.32 18-4.22 26.94-6.17 7.42-1.6 16.27-3 22.35-8 .3-.22.36-1.04-.13-.63zm16.01.44c-.81 1.33-4 2.51-5.38 3.31a59.49 59.49 0 01-6.17 3 101.54 101.54 0 01-13.51 4.66c-4.42 1.26-9 3.12-13.6 3.35-4.26.21-8-.46-12.08 1s-7.6 3.39-11.55 4.75c-3.38 1.15-6.92 2.52-10.15 4-4.1 1.85-8 4-12.08 6s-8.1 4.83-12.33 6.69c-.14.06-.29.52-.07.43 3.37-1.25 6.44-3.42 9.67-5 4.55-2.24 9-4.65 13.63-6.79a133.78 133.78 0 0113.47-5.23c4.79-1.62 9.07-4.75 14.26-5 4.17-.21 8 .4 12.07-.71 4.51-1.22 9.08-2.6 13.53-4a111.49 111.49 0 0012.32-4.87 55.47 55.47 0 006.25-3.6c1.08-.68 1.6-.58 2.2-1.58.33-.66-.16-.96-.48-.41zm14.7-1.16c-4.67 5.06-11.43 7.14-17.6 9.94-6.74 3-13.57 5.77-20.29 8.8-3.24 1.46-6.71 2.37-10 3.78-3.84 1.66-7.6 3.45-11.43 5.13C155 57 149.08 59.2 143.9 64.62c-.11.12-.09.44.1.25 6.25-5.86 13.92-8.24 21.61-11.75 3.12-1.41 6.27-2.73 9.42-4-2.92 2.79-5.23 6-8.69 8.31s-6.74 6.07-10.76 7.1c-.14.05-.34.46-.11.43 1.74-.27 2.83-1.39 4.4-2.15a27.23 27.23 0 005.48-3.72 73.47 73.47 0 0010.32-10 .49.49 0 00.1-.29c4-1.64 8.11-3.23 12.16-4.9 6.43-2.66 12.76-5.32 19-8.36 5.45-2.65 10.29-4 14.47-8.59.45-.41.23-1.11-.27-.56zm21.68.42c-6 4.58-13.17 5.56-20.34 7-3.27.65-6.28 2.49-9.46 3.44-3.41 1-7 1.67-10.21 3.18a27.4 27.4 0 00-7.26 5.25A53.31 53.31 0 01185.12 53c-3.2 1.82-6.49 3.32-9.76 5-1.72.88-3.41 1.81-5.14 2.67-2.35 1.15-4.47 2.89-6.91 3.82-.13.06-.33.45-.1.39 2.9-.72 5.52-2.72 8.25-4 3.78-1.76 7.61-3.62 11.3-5.55a78.39 78.39 0 008.89-5.58c3.44-2.46 6.27-5.54 9.87-7.84s8.52-2.86 12.47-4c3.63-1.08 6.82-2.85 10.61-3.51 6.47-1.11 13.16-2.56 18.38-6.85.31-.27.42-1.18-.17-.74zm18.19.25c-6 0-11.38 1.91-16.83 4.27-6.74 2.92-14 4.17-20.69 7-5.77 2.4-11.13 7-16.12 10.71a105.13 105.13 0 00-8.69 7.11c-2.8 2.56-5 6.41-8.22 8.42-.12.08-.28.52 0 .39a11.42 11.42 0 003.88-3.5 55.39 55.39 0 018.74-8.29 132.36 132.36 0 0119.25-13.46c2.76-1.5 6-2.13 9.07-2.93a89.21 89.21 0 0010.11-3.42c3.25-1.29 6.41-2.76 9.73-3.9 3.09-1.07 6.34-1.16 9.54-1.66.23-.03.6-.74.23-.74zm50 24.68c-4.33 2-10.42.77-15.06.57-5-.19-9.86-.55-14.81-.29s-9.65 1.11-14.49 1.58c-5.1.51-10.29.4-15.43.69-4.33.26-8.62 0-13 0-4.86-.08-9.72.75-14.6.8a24.63 24.63 0 00-9.55 2.37c-3.68 1.6-6 5-9 7.44-.07.07-.13.35 0 .25C208.21 63 210.5 60 214 58.21c4.47-2.29 9.27-2.07 14.12-2.19 4.52-.11 8.91-.78 13.46-.55 4.85.22 9.63-.13 14.46-.33 10-.42 20-2.11 30-2.08 4.46 0 8.9.39 13.35.56 3.82.14 7.93.91 11.45-.9.45-.22.78-1.27.16-.98z"/><path class="cls-8" d="M312.62 46.6c-9.41 2.28-20 .86-29.6.75-10.31-.1-20.63-1.57-30.94-1.21-2.17.07-15.37 1.87-13.7-2.82s7.62-7.51 11.84-9.15a70.45 70.45 0 0113.29-3.33c3.59-.61 7-1.58 9.71-4.07.08-.07.17-.41 0-.27-4.87 3.38-10.55 3.46-16.15 4.83a44 44 0 00-12.89 5c-2.75 1.71-11.16 9.75-3.76 11 5.35.89 11.49-.42 16.92-.3 6.59.15 13.15.94 19.73 1.18 6 .23 12 .19 18.06.32s11.51.45 17.25-.92c.38-.09.79-1.14.24-1.01z"/><path class="cls-8" d="M312.17 36.56c-5.37 5.15-11.39 4.58-18.35 4.8-6 .17-12-.88-18-.73-2.74.07-5.47.26-8.2.4a30.88 30.88 0 01-4.11-.1 9.6 9.6 0 01-3.11-.75q.14-4.54 3.56-6.18c4.46-2.7 9.69-3.68 14.13-6.6.14-.09.3-.56 0-.42-5.92 3.1-13.55 4.44-18.24 9.4s4.26 5.74 7.3 5.7c4-.06 8-.5 12.1-.33 4.74.22 9.31.86 14.09.74 7.06-.17 14.11.58 19-5.34.26-.27.26-.98-.17-.59zm.45 48.08c-9.41 2.27-20 .86-29.6.75-10.31-.11-20.63-1.58-30.94-1.22-2.17.07-15.37 1.87-13.7-2.83s7.61-7.51 11.85-9.12a71.5 71.5 0 0113.29-3.32c3.59-.62 7-1.58 9.71-4.07.08-.06.17-.4 0-.27-4.87 3.39-10.55 3.45-16.15 4.83a43.78 43.78 0 00-12.89 5c-2.75 1.69-11.16 9.74-3.76 11 5.35.9 11.49-.41 16.92-.29 6.59.15 13.15.94 19.73 1.19 6 .21 12 .17 18.06.3s11.51.45 17.25-.91c.37-.12.78-1.17.23-1.04z"/><path class="cls-8" d="M312.17 74.6c-5.37 5.14-11.39 4.59-18.35 4.79-6 .18-12-.87-18-.72-2.74.06-5.47.27-8.2.41a33.42 33.42 0 01-4.11-.1 9.72 9.72 0 01-3.11-.75c.1-3 1.28-5.08 3.56-6.18 4.46-2.7 9.69-3.68 14.13-6.61.14-.09.3-.57 0-.42-5.92 3.09-13.55 4.43-18.24 9.4s4.26 5.74 7.3 5.7c4-.08 8-.51 12.1-.33 4.74.21 9.31.84 14.09.73 7.06-.17 14.11.58 19-5.34.26-.26.26-1.01-.17-.58zM61.91 64.87a77.5 77.5 0 01-8.34 4.39c-2.2.89-4.71.65-7 1.61-6 2.5-12.78 5.48-19.45 4.16-.13 0-.3.31-.14.36 6.07 1.89 12.7-1.21 18.2-3.36 1.34-.51 2.74-1 4.12-1.42s2.62 0 4.08-.5a41.36 41.36 0 008.52-4.57c.2-.15.45-.93.01-.67zm16.09.71A23.91 23.91 0 0172.43 69c-2.09.76-4.29 1.31-6.43 1.91-4.65 1.27-9.24 2.74-13.93 3.89-8.25 2-16.63 4.87-25.19 4.45-.12 0-.29.29-.14.32 8.47 1.49 16.92-2.26 25.13-4 5.19-1.1 10.23-2.87 15.34-4.26a31.84 31.84 0 0010.93-5.1c.28-.21.34-1.04-.14-.63zm27.67-.52A29.75 29.75 0 0197 67.69c-2.85.58-5.55 2.36-8 3.89s-4.71 3.26-7.29 4.57c-3.09 1.55-6.68 2.47-9.87 3.91a70.58 70.58 0 01-21.72 5.63c-7.62.87-15.09 2.7-22.83 2.06-.18 0-.44.43-.21.49 6.23 1.52 13.73-.05 20-1.13 3.93-.69 7.93-.93 11.87-1.64 3.43-.62 7.09-2.18 10.36-3.4s6.45-3.06 9.91-4.12a28.91 28.91 0 007.72-4.12c3.06-2.1 6.21-4.19 9.83-5.22 3.24-.92 5.92-.93 8.85-2.82.26-.15.54-.98.05-.73zm17.8.94c-3.67 1.59-7 3.14-10.91 3.92a39.15 39.15 0 00-10.22 3.21c-3.62 1.81-6.37 4.74-10.17 6.23s-7.31 3.64-10.88 5.5a120.49 120.49 0 01-26.07 10.05c-9 2.24-18.24 4.81-27.6 3.49-.2 0-.54.5-.32.6 2.92 1.35 7.78.77 10.9.53 4.81-.36 9.53-1.86 14.2-3 4.39-1.07 8.82-2.2 13.11-3.64s8.46-4 12.67-5.95C85.41 83.56 93 80.36 99.4 75.62c3.88-2.87 8.33-3.86 12.93-4.89a56.91 56.91 0 0011.09-4c.31-.12.58-.98.05-.73zm25.04-.48c-9.49 5.1-19.63 10-29.93 13.3-1.23.38-2.51.6-3.76.89 3.41-.79-5.88 1.46-3.71-.54 1.69-1.56 4-2.37 5.86-3.72 4.18-3.08 8.91-5.9 12.61-9.54.19-.18.26-.79-.1-.48-3.6 3.13-7.76 5.65-11.55 8.55-2.45 1.87-6.75 3.11-8.12 6.09-.06.13-.11.36 0 .45 1.67 1.13 4.23.2 6-.21a57.36 57.36 0 0010-3.5c7.71-3.27 15.24-6.52 22.61-10.52.34-.17.58-1.03.09-.77z"/><path class="cls-8" d="M162.54 65.29a18.39 18.39 0 01-7.13 2.11c-2.64.28-5 1.65-7.48 2.45a59.46 59.46 0 00-13.14 6.25c-9.28 5.76-20.6 6.15-30.2 11.06a87.5 87.5 0 01-15.51 6.63c-5.55 1.62-11.29 2.64-16.91 4s-11.32 2.74-17.1 3.78A57.86 57.86 0 0040.14 106c-.12.07-.26.48-.06.4a73.16 73.16 0 0114.83-4.14c5.74-1.06 11.39-2.42 17.09-3.75 11-2.56 21.48-4.59 31.45-10 5.17-2.81 10.74-4.22 16.4-5.73a80.31 80.31 0 0013.89-5.29c5.19-2.41 9.81-5.37 15.35-7.16 2.58-.84 4.52-1.84 7.23-2.13a15.33 15.33 0 006.21-2.13c.26-.18.47-1.07.01-.78zm11.2-.21c-6.68 5-15.22 7.38-22.43 11.51-7.81 4.47-16.55 7-24.33 11.64-8.06 4.79-17.67 8-26.79 10.13-4.45 1-8.79 2.37-13.19 3.62-2.22.63-4.51 1-6.73 1.57-3 .86-5.33 2.2-8.59 2.39-.34 0-.82.89-.38.91 4.61.16 8.43-2.42 12.93-3.2 4.84-.83 9.56-2.78 14.34-3.94 9.34-2.28 18.71-5.25 27.19-9.85 4.3-2.33 8.44-4.7 12.93-6.7 4.21-1.86 8.5-3.47 12.58-5.61 4.29-2.26 8.74-4.2 13.11-6.33 3.13-1.52 7.05-3.46 9.44-5.94.09-.11.09-.33-.08-.2zm39.26.39c-18.18 1.66-35.4 9.64-51.77 17.18-9.11 4.2-17.85 9-27.07 13s-18.68 8.83-28.73 9.73c-.07 0-.17.21-.08.21 8.7 0 16.9-4.44 24.76-7.61 8.81-3.56 17-8.23 25.58-12.1 22.42-10 36.2-16.88 57-19.55.31-.05.69-.88.31-.86zm14.94.42a13.83 13.83 0 00-4.8 1.61c-3.14 1.5-6.47 2.5-9.65 3.88-6.62 2.87-13.3 5-20.06 7.38-6.41 2.31-12.36 5.79-19 7.42-3.65.89-7.17 2.09-10.8 3.08-3.34.9-6.77 1.08-10.09 2.1-.28.07-.61.86-.19.76a80.35 80.35 0 018.65-1.51c3.68-.52 7.22-2.2 10.83-3 6.37-1.48 12.36-4.12 18.29-6.81s12.65-4.09 18.73-6.78q4.77-2.12 9.59-4c2.76-1.11 5.45-3 8.38-3.55.11-.12.32-.6.12-.58zm8.34 15.97c-6.43 3.51-13.84 5-20.89 6.83a142.57 142.57 0 01-20.7 4.26 77.82 77.82 0 00-9.73 2c-3.36.81-6.83 1-10.14 2.12-6.77 2.19-13.07 6.05-20 7.78-.07 0-.18.24-.06.22 6.84-1.11 13.4-4.88 19.85-7.28 3.23-1.2 6.8-1.3 10.13-2.09a92.67 92.67 0 0111.06-2.12c7.43-.76 14.64-2.74 21.83-4.69 6.09-1.64 13.56-2.52 18.67-6.45.19-.12.38-.8-.02-.58zM313 81.8c-2.66 2-7.49 2.36-10.68 3.14-3.7.91-7.25 2-11.06 2.56-7.83 1.21-15.18 2.35-22.78 4.73-7.38 2.32-14.87 3.54-22.45 5-7 1.34-12.8 5.17-19.07 8.26-.12.06-.31.51-.07.43 2.78-.94 5.24-2.71 7.92-3.93a54.27 54.27 0 0112.41-4.1A204.24 204.24 0 00271 92.34c8-2.49 16.16-3 24.34-4.6 3.55-.69 7-1.88 10.56-2.73 2.47-.58 5.18-.86 7.24-2.43.33-.28.39-1.22-.14-.78zm.52 12.79c-1.89.72-4.78.61-6.86 1-3.39.56-6.83.87-10.25 1.19-5.16.5-10.3 1.75-15.45 2.38-5.65.7-11.34.85-16.94 1.94-5.11 1-10 2.83-15 4.14-.35.1-.79 1.08-.24 1 5-.94 10-2.8 15-3.92 5.52-1.27 11.32-1.3 16.94-1.91s11.21-2 16.85-2.63c3-.35 6-.74 8.92-1.23 2.27-.39 5-.48 7-1.57.08-.12.2-.45.03-.39zM67.8 106c-2.15.15-4.11 1.3-6.05 2.17a129 129 0 01-12.6 5.12c-7.34 2.39-15 3.86-22.43 5.91-.32.09-.65 1-.21.85 7-2.06 14.28-3.44 21.25-5.65 3.15-1 6.24-2.19 9.29-3.49 3.5-1.49 7-3.76 10.66-4.68.07-.06.19-.23.09-.23zm11.05 0c-1.12.87-3.76.83-5.13 1.28-2.26.76-4.4 1.84-6.6 2.73-5.06 2-9.61 4.46-15 5.73-8.52 2-19.71 4.06-25.47 11.17-.27.33-.13.87.26.45 7.13-7.7 19.08-9 28.74-11.82 4.72-1.36 8.83-3.83 13.39-5.6 2.32-.9 4.5-2 6.9-2.74 1-.32 2.14-.18 2.94-1 .12-.03.12-.39-.03-.2zm21.92.31c-6 3.48-13.42 4.57-19.86 6.95-7.07 2.6-13.55 6.34-20.81 8.59a168.67 168.67 0 00-18.57 7.4 65 65 0 00-8.8 4.22c-2.4 1.52-3.72 3.68-6 5.34-.08.07-.13.36 0 .25 2.14-1.51 3.7-3.57 5.92-5.08 2.7-1.82 5.82-2.88 8.79-4.16a225.22 225.22 0 0121.1-8.08c6.75-2.15 12.85-5.8 19.5-8.17 6-2.14 13.28-3.06 18.65-6.57.31-.14.52-.95.08-.69zm22.52-.69a123.94 123.94 0 00-21.44 10.26c-7.49 4.71-16.25 6.65-24.59 9.36-7.67 2.5-14.27 6.5-21.5 9.88-8.29 3.87-17.41 7.71-26.47 9.27-.12 0-.25.36-.12.35 8.31-.8 16.3-4.64 23.92-7.82a107.66 107.66 0 0010.86-5.55c4.12-2.3 8.73-3.67 13.13-5.39 7.52-2.92 15.23-4.46 22.52-8.07 3.88-1.93 7.36-4.4 11.32-6.21s8.2-3.66 12.28-5.51c.16-.08.37-.68.09-.57zm22.79.49c-3.5 1-7.08 1.5-10.52 2.81-3.6 1.36-6.88 3.45-10.25 5.28s-6.74 4.4-10.24 6.35a85.44 85.44 0 01-12.83 6.16c-8.65 3.05-17.36 5.81-26.19 8.21-4.4 1.19-8.54 3-12.9 4.27s-8.49 5.53-13.15 5.61c-.42 0-.86 1-.43 1 3.16-.08 5.34-1.87 8.12-3.24a141.34 141.34 0 0113.67-5.39c4.74-1.77 9.87-2.69 14.72-4.13 4.46-1.33 9-2.84 13.35-4.4A90.78 90.78 0 00121 118a91 91 0 0112.07-7.29c4.13-2 8.61-2.69 12.91-4.23.14-.06.3-.43.1-.37zM104.73 132a132.07 132.07 0 01-18.65 7.72c-3 .92-6.1 1.7-9.17 2.48s-6.93 2.74-10 2.39c-.15 0-.31.29-.15.33 2.66.85 6-1 8.67-1.62 3.51-.87 7-1.74 10.49-2.74a101.22 101.22 0 0018.82-7.8c.26-.17.5-1.02-.01-.76zM164 106.12c-3.35 1.46-6.55 3-9.81 4.65a124.54 124.54 0 01-13.31 6.23c-6 2.14-12.37 3.52-16.92 8.22-.06.06-.05.22 0 .13 5.19-4.94 12.66-5.67 19-8.46 7-3.09 14.09-6.55 21-10 .26-.2.5-.99.04-.77zm-2.54 8.94c-9.09 8-21.33 10.64-32.22 15.3-6.4 2.73-12.69 5.82-19.35 7.87-4.44 1.39-9 3.16-11.83 7-.11.15 0 .42.14.2 4.13-5.38 12.33-6.54 18.34-9s11.77-5.15 17.77-7.43c9.17-3.49 20.28-6.29 27.31-13.55.17-.17.15-.67-.16-.39zm58.6-9.25c-7.24 1.09-14.58 2.09-21.46 4.74s-13.45 5.79-19.93 9c-7.07 3.5-13.13 8.32-19.53 12.8-6.06 4.25-12.66 9.66-19.8 11.93-.32.1-.72 1-.23.92 6.57-1.78 12.24-6.85 17.81-10.52 6.52-4.28 12.51-9.2 19.35-13a81.94 81.94 0 0110.73-4.87c3.85-1.47 7.53-3.69 11.38-5.26 6.87-2.81 14.39-3.39 21.55-5.17.2-.04.46-.62.13-.57zm66.46 1.13c-5 1.73-9.28 4.75-13.87 7.26-5.2 2.83-10.49 5.86-16.06 7.94s-12.75 1-18.51.44c-6-.55-11.84-.83-17.85-.94-5.76-.1-11.17 0-16.75 1.52s-11.22 3.32-16.84 5c-5.22 1.51-10.58 2.35-15.57 4.54a35.91 35.91 0 00-6.73 3.59c-2.09 1.52-3.79 3.54-5.87 5-.06 0-.11.27 0 .19a32.67 32.67 0 004-3.33 32.7 32.7 0 017.36-4.36c5.7-2.7 12-3.66 18-5.4 5.58-1.6 11.13-3.34 16.73-4.87 6.38-1.77 13.27-1.23 19.82-1.05 5.43.15 10.67.71 16.07 1.18 5.18.46 10.85.94 15.89-.56 10.72-3.18 19.63-11.05 29.93-15.2.34-.13.73-1.14.25-.95z"/><path class="cls-8" d="M313 132.27c-5.85.34-11.44 1.51-17.18 2.5-3.64.64-7.25 1.9-11 2.15s-7.61-.54-11.29-1c-6.76-.88-13.5-1.46-20.2-2.75-6.92-1.33-13.84-3-20.8-3.95-6.42-.9-13.33 0-19.75.39a89 89 0 00-18.41 3.12c-6.22 1.75-12.19 4.11-18.31 6.2-5.81 2-10.64 5.64-16.88 6.33 0 0-.09.12 0 .13 5 .61 8.67-2.22 12.93-4.32 6-3 13.09-4.65 19.47-6.73a89 89 0 0119.62-3.8c6.87-.62 14.16-1.2 21-.49 6.46.68 13 2.42 19.35 3.68 7.19 1.42 14.38 2.1 21.65 3 3.29.43 6.57.81 9.88 1s6.56-.81 9.81-1.45c6.59-1.3 13.09-2.38 19.75-3.12.36.01.76-.91.36-.89z"/><path class="cls-8" d="M299.94 145.17c-8.28-1.18-16.32-3.47-24.58-4.72s-16.29-4.13-24.83-4c-4.08.08-8.2 1.29-12.18 2.15-4.25.93-8.66 1.48-13 2.13-4.58.71-9.18 1.08-13.77 1.68-2.22.29-4.44.71-6.63 1.11-1.89.36-4.28 1.45-6.2 1.15-.18 0-.43.41-.25.47 2.47.8 6.38-.86 8.9-1.29 4.46-.75 9-1.11 13.44-1.65 9-1.07 17.77-3.27 26.7-4.7 4.63-.74 9.55.15 14.15.81a95.47 95.47 0 0112 2.66c4 1.11 8.43 1.55 12.54 2.36 4.44.88 8.78 2.21 13.34 2.47.35.04.68-.63.37-.63z"/><path class="cls-8" d="M212 147.24c2.66-.41 5.32-.81 7.93-1.35.21 0 .47-.51.15-.47-4.27.53-8.57 1-12.79 1.82zm-140.85 0l1.07-.39c.27-.1.6-.92.2-.78l-3.55 1.16zm89.57 0a75 75 0 008.62-1.2c.2 0 .52-.71.23-.68a109.16 109.16 0 00-13.17 1.88z"/></g><circle class="cls-9" cx="159.25" cy="14.29" r="3"/><path class="cls-9" d="M209 14.29a3 3 0 11-3-3 3 3 0 013 3zm56.44 0a3 3 0 11-3-3 3 3 0 013 3z"/><circle class="cls-9" cx="112.89" cy="14.29" r="3"/><circle class="cls-9" cx="63.79" cy="14.29" r="3"/><path class="cls-9" d="M16.42 66.53a3 3 0 11-3-3 3 3 0 013 3zm0 44.36a3 3 0 11-3-3 3 3 0 013 3zm313.64-44.36a3 3 0 11-3-3 3 3 0 013 3zm0 44.36a3 3 0 11-3-3 3 3 0 013 3z"/><path class="cls-10" d="M28.86 39.86s-.07.07 0 .07.03-.07 0-.07z"/><path class="cls-9" d="M10 23.64a7.43 7.43 0 009.32 2l-9-11.56a7.43 7.43 0 00-.32 9.56z"/><path class="cls-2" d="M15.86 26.89a7.79 7.79 0 01-5.79-13 .37.37 0 01.31-.13.36.36 0 01.28.15l8.94 11.55a.34.34 0 01.08.32.4.4 0 01-.2.26 7.85 7.85 0 01-3.62.85zm-5.51-12.18a7 7 0 005.51 11.46 7.11 7.11 0 002.86-.61z"/><path class="cls-9" d="M21.73 14.54a7.4 7.4 0 00-9.32-2l8.95 11.55a7.41 7.41 0 00.37-9.55z"/><path class="cls-2" d="M21.36 24.46a.41.41 0 01-.29-.15l-9-11.56a.41.41 0 01.12-.57 7.8 7.8 0 019.42 12.15.38.38 0 01-.25.13zM13 12.66l8.38 10.81A7 7 0 0013 12.66z"/><path class="cls-11" d="M11.31 13.17a8.6 8.6 0 00-.95.88l9 11.56a6.85 6.85 0 001.09-.71 6.46 6.46 0 001-.88l-9-11.49a6 6 0 00-1.14.64z"/><path class="cls-2" d="M19.32 26a.39.39 0 01-.31-.15l-9-11.55a.36.36 0 010-.49 9.57 9.57 0 011-.94 8.54 8.54 0 011.16-.74.38.38 0 01.48.1l9 11.55a.37.37 0 010 .49 7.07 7.07 0 01-1 .94 8.51 8.51 0 01-1.15.74.59.59 0 01-.18.05zm-8.45-11.83l8.55 11a6.63 6.63 0 00.77-.51 6.35 6.35 0 00.68-.62L12.32 13a6.51 6.51 0 00-1.45 1.17z"/><path class="cls-9" d="M320.46 22.43a7.44 7.44 0 009.33 2l-9-11.57a7.44 7.44 0 00-.33 9.57z"/><path class="cls-2" d="M326.34 25.69a7.81 7.81 0 01-5.79-13 .35.35 0 01.29-.12.45.45 0 01.3.15l9 11.5a.39.39 0 01.08.32.44.44 0 01-.2.26 7.94 7.94 0 01-3.68.89zm-5.52-12.18a7 7 0 005.52 11.41 7.07 7.07 0 002.85-.61z"/><path class="cls-9" d="M332.21 13.34a7.43 7.43 0 00-9.32-2l9 11.56a7.45 7.45 0 00.32-9.56z"/><path class="cls-2" d="M331.84 23.24a.38.38 0 01-.3-.15l-8.94-11.55a.37.37 0 01-.08-.32.4.4 0 01.2-.25 7.8 7.8 0 019.4 12.2.38.38 0 01-.28.07zm-8.37-11.8l8.37 10.82a7 7 0 00-5.51-11.43 7.17 7.17 0 00-2.85.62z"/><path class="cls-11" d="M321.78 12a7.79 7.79 0 00-.94.88l9 11.57a8.61 8.61 0 001.1-.7 10.39 10.39 0 001-.88l-9-11.56a7.86 7.86 0 00-1.16.69z"/><path class="cls-2" d="M329.79 24.84a.39.39 0 01-.3-.15l-9-11.56a.4.4 0 010-.5 8.25 8.25 0 011-.93 7.45 7.45 0 011.16-.74.37.37 0 01.48.11l8.94 11.55a.37.37 0 010 .49 7.29 7.29 0 01-1 .94 7.85 7.85 0 01-1.15.74zm-8.45-11.91l8.55 11a7.16 7.16 0 00.76-.5 8.31 8.31 0 00.69-.61l-8.55-11c-.27.17-.53.33-.76.5a6.29 6.29 0 00-.69.61z"/><path class="cls-7" d="M313.31 147.24V26H299c-7.44 17.15-15.8 33.88-26.38 49.29a187 187 0 01-40.72 43.07 245.49 245.49 0 01-49.81 28.84z"/><path class="cls-1" d="M14.93 2.1l11.69 6.85L268.58 2.1H14.93zM340.2 146.23v124.94c0 14.7 1.93 22-12.25 22H15.79C1 293.17.4 290.52.4 266.87V146.23z"/><path class="cls-2" d="M.78 146.23v120.56c0 23.35.48 25.91 15 25.91H328c4.74 0 7.76-.83 9.51-2.6 2.59-2.63 2.52-7.51 2.41-14.28V146.23h.77v124.94c0 1.65 0 3.22.06 4.68.1 6.94.17 12-2.65 14.82-1.89 1.93-5.09 2.83-10 2.83H15.79C.6 293.5 0 290.5 0 266.82V146.23z"/><path class="cls-3" d="M340.2 146.23v45q-31.5-23.19-63.89-45zm-251.71 0c44.06 24.9 88.32 49.46 132.42 74.29 39.59 22.29 79 44.83 118.1 68-1.48 3-4.58 4.56-11 4.56h-96.6c-20.93-9.6-41.9-19.14-62.7-29-29.72-14.15-58.76-30-87.77-45.53Q40.45 196.8.4 174.31v-28.08z"/><g class="cls-4"><path class="cls-1" d="M321.66 146.23v129.42H18.87V146.23z"/></g><path class="cls-1" d="M21.94 146.23h295.91v124.02H21.94z"/><path class="cls-5" d="M26.48 146.23h286.83v.61H26.48z"/><path class="cls-6" d="M26.87 146.23v.23h286.06v-.23h.77v.61a.39.39 0 01-.38.39H26.48a.38.38 0 01-.38-.38v-.61z"/><path class="cls-5" d="M313.31 229.07H26.48v-41.5h286.83z"/><path class="cls-6" d="M313.69 187.57v41.5a.38.38 0 01-.37.39H26.48a.38.38 0 01-.38-.38v-41.5a.38.38 0 01.37-.39h286.84a.38.38 0 01.38.38zM26.87 228.69h286.06v-40.74H26.87z"/><path class="cls-5" d="M26.48 187.57v-40.73h286.83v40.73z"/><path class="cls-6" d="M313.69 146.84v40.73a.38.38 0 01-.38.38H26.48a.38.38 0 01-.38-.38v-40.73a.38.38 0 01.38-.38h286.83a.38.38 0 01.38.38zM26.87 187.17h286.06v-40H26.87z"/><path class="cls-5" d="M313.31 267.44H26.48v-38.37h286.83z"/><path class="cls-6" d="M313.69 229.07v38.37a.38.38 0 01-.38.37H26.48a.38.38 0 01-.38-.37v-38.37a.38.38 0 01.38-.38h286.83a.38.38 0 01.38.38zm-286.83 38h286.07v-37.61H26.87z"/><path class="cls-7" d="M54 261.1c25.56 2.12 51.2.88 76.77-.18 13.07-.54 26.14-1 39.22-1 13.34 0 26.4 2.17 39.68 3.08 6.4.44 12.82.26 19.24.35q10.1.11 20.22.38c13.5.36 27 .91 40.5 1.48l23.64 1v1.23H26.48v-10.18A246.33 246.33 0 0054 261.1zm0-38.68c25.56 2.11 51.2.88 76.77-.18 13.07-.54 26.14-1 39.22-1 13.34 0 26.4 2.18 39.68 3.09 6.4.42 12.82.26 19.24.34q10.1.11 20.22.39c13.5.37 27 .9 40.5 1.47l23.64 1v1.23H26.48v-10.17A250.76 250.76 0 0054 222.42zm0-41.51c25.56 2.12 51.2.88 76.77-.17 13.07-.54 26.14-1 39.22-1 13.34 0 26.4 2.19 39.68 3.09 6.4.43 12.82.26 19.24.34q10.1.11 20.22.39c13.5.36 27 .91 40.5 1.47l23.64 1v1.24H26.48v-10.2A247.46 247.46 0 0054 180.91zm-27.52-34.68h286.83v.9H26.48zm143.09 93.69c-26.88-.63-53.75-1.37-80.64-1.52-13.46-.06-26.87-.09-40.33-.84-7.37-.42-14.74-.9-22.12-1.25v-7.24h286.83v9.33c-47.87-2.75-95.82 2.6-143.74 1.52zm0-41.18c-26.88-.63-53.75-1.37-80.64-1.51-13.46-.07-26.87-.1-40.33-.86-7.37-.41-14.74-.88-22.12-1.23v-7.23h286.83v9.32c-47.87-2.76-95.82 2.62-143.74 1.51z"/><path class="cls-7" d="M169.57 157.87c-26.88-.62-53.75-1.36-80.64-1.5-13.46-.08-26.87-.11-40.33-.86-7.37-.42-14.74-.88-22.12-1.25V147h286.83v9.31c-47.87-2.7-95.82 2.69-143.74 1.56z"/><g class="cls-4"><path class="cls-8" d="M49.18 251.48a50.52 50.52 0 01-11.32 1.22c-3.48.14-7.17.67-10.6 0-.1 0-.29-.35-.12-.35 5.17 0 10.4-.43 15.57-.76 5.34-.34 13.29-1.85 16.91-6.11 2.77-3.25-6.75-4.4-7.66-4.55-2.71-.5-5.38-1.11-8-1.73-5.67-1.32-11.05-3.11-17-3.22-.28 0-.61-.52-.56-.79a.22.22 0 010-.09.18.18 0 01.11 0h.06c6.79-.1 13.18 2.31 19.72 3.79 3.85.88 7.78 1.45 11.61 2.44a3.55 3.55 0 012.65 2.17c1.3 5.22-7.69 6.96-11.37 7.98z"/><path class="cls-8" d="M69.06 253.17c-13.34 2.87-28.48 5-42.1 3.21-.11 0-.26-.34-.11-.34 11.24-.27 22.17-.52 33.33-2.15a104.09 104.09 0 0018.27-4.06c2.23-.75 4.62-1.5 5.95-3.56 1.12-1.77-3-3.61-4-4.1-5.51-2.71-11.89-4.07-17.86-5.29a178.7 178.7 0 00-19.14-2.66c-5.18-.47-10.79-.35-15.69-2.23-.18-.07-.49-.64-.14-.58 14 1.93 28.15 2.72 41.94 6.12 4.57 1.13 11.41 2.6 14.64 6.28 5.45 6.19-12.08 8.77-15.09 9.36z"/><path class="cls-8" d="M99.94 249.63c-7.45 2.22-15.37 2.54-22.94 4.54-8 2.11-15.68 4.72-23.81 6.21a126.26 126.26 0 01-25.08 2.06c-.15 0-.37-.4-.17-.43 13.9-.8 27.4-2.06 40.81-6a166.22 166.22 0 0118.84-4.71c6.2-1.08 13-1.68 18.47-5 2.7-1.6 1.82-5-.73-6.44a28.23 28.23 0 00-5.54-1.93c-3.13-.94-6.35-1.37-9.54-2-6.63-1.37-13.24-2.73-19.93-3.8-7.12-1.13-14.08-.76-21.24-.46S35 230 27.88 230.18c-.44 0-.95-1.06-.47-1.08 7.59-.22 15 1.71 22.55 1.5a110.7 110.7 0 0123 1.25c8 1.42 16 3.32 24 4.92 2.79.58 11.12 1.78 11.74 5.72.76 4.51-5.38 6.13-8.76 7.14zm82.34 17.26a64 64 0 00-13.95-4.52c-4.73-.82-9.53-1.53-14.17-2.75-10.26-2.68-20.27-4.24-30.92-3.49-4.45.32-8.87 1.39-13.3 2s-9.14 1.3-13.68 2.13c-9.88 1.81-20.15 2.9-29.44 6.83-.22.08-.53-.42-.33-.52 8.51-4.49 18.67-5.1 28-6.92 9.7-1.89 19.88-3.79 29.73-4.47 10.2-.72 19.93 1 29.73 3.6 5.11 1.35 10.42 2.09 15.63 3a53.86 53.86 0 0112.68 4.4c.26.13.5.92.02.71zm8.14-.54c-6.64-5.41-16.63-6.58-24.74-8.34-8.5-1.86-17.1-3.74-25.49-6a32.78 32.78 0 01-9.78-4c-3.52-2.26-6.52-5.34-10-7.72-4-2.77-7.95-5.11-12.82-5.9-1.5-.24-3.14-1.65-4.44-2.36-2.34-1.31-4.39-2.75-7.15-3.12-.18 0-.4-.53-.12-.49 4.37.5 7.58 3.62 11.53 5.25 1.58.65 3.44.46 5.08 1.21a52.34 52.34 0 015.51 3.19 93.77 93.77 0 019.69 7.2c4.11 3.37 8.48 5 13.57 6.29 8.86 2.32 18 4.22 26.94 6.17 7.42 1.6 16.27 3 22.35 8 .3.22.36 1.03-.13.62zm16.01-.43c-.81-1.33-4-2.51-5.38-3.31a59.49 59.49 0 00-6.17-3 101.54 101.54 0 00-13.51-4.66c-4.42-1.26-9-3.12-13.6-3.35-4.26-.21-8 .46-12.08-1s-7.6-3.39-11.55-4.75c-3.38-1.15-6.92-2.52-10.15-4-4.1-1.85-8-4-12.08-6s-8.1-4.83-12.33-6.69c-.14-.06-.29-.52-.07-.43 3.37 1.25 6.44 3.42 9.67 5 4.55 2.24 9 4.65 13.63 6.79a133.78 133.78 0 0013.47 5.23c4.79 1.62 9.07 4.75 14.26 5 4.17.21 8-.4 12.07.71 4.51 1.22 9.08 2.6 13.53 4a111.49 111.49 0 0112.32 4.87 55.47 55.47 0 016.25 3.6c1.08.68 1.6.58 2.2 1.58.33.66-.16.96-.48.41zm14.7 1.16c-4.67-5.06-11.43-7.14-17.6-9.94-6.74-3-13.57-5.77-20.29-8.8-3.24-1.46-6.71-2.37-10-3.78-3.84-1.66-7.6-3.45-11.43-5.13-6.77-3-12.73-5.16-17.91-10.58-.11-.12-.09-.44.1-.25 6.25 5.86 13.92 8.24 21.61 11.75 3.12 1.41 6.27 2.73 9.42 4-2.92-2.79-5.23-6-8.69-8.31s-6.74-6.07-10.76-7.1c-.14 0-.34-.46-.11-.43 1.74.27 2.83 1.39 4.4 2.15a27.23 27.23 0 015.48 3.72 73.47 73.47 0 0110.32 10 .49.49 0 01.1.29c4 1.64 8.11 3.23 12.16 4.9 6.43 2.66 12.76 5.32 19 8.36 5.45 2.65 10.29 4 14.47 8.59.45.4.23 1.11-.27.56zm21.68-.42c-6-4.58-13.17-5.56-20.34-7-3.27-.65-6.28-2.49-9.46-3.44-3.41-1-7-1.67-10.21-3.18a27.4 27.4 0 01-7.26-5.25 53.31 53.31 0 00-10.42-7.34c-3.2-1.82-6.49-3.32-9.76-5-1.72-.88-3.41-1.81-5.14-2.67-2.35-1.15-4.47-2.89-6.91-3.82-.13-.06-.33-.45-.1-.39 2.9.72 5.52 2.72 8.25 4 3.78 1.76 7.61 3.62 11.3 5.55a78.39 78.39 0 018.89 5.58c3.44 2.46 6.27 5.54 9.87 7.84s8.52 2.86 12.47 4c3.63 1.08 6.82 2.85 10.61 3.51 6.47 1.11 13.16 2.56 18.38 6.85.31.27.42 1.2-.17.76zm18.19-.25c-6 0-11.38-1.91-16.83-4.27-6.74-2.92-14-4.17-20.69-7-5.77-2.4-11.13-7-16.12-10.71a105.13 105.13 0 01-8.69-7.11c-2.8-2.56-5-6.41-8.22-8.42-.12-.08-.28-.52 0-.39a11.42 11.42 0 013.88 3.5 55.39 55.39 0 008.72 8.24 132.36 132.36 0 0019.25 13.46c2.76 1.5 6 2.13 9.07 2.93a89.21 89.21 0 0110.11 3.42c3.25 1.29 6.41 2.76 9.73 3.9 3.09 1.07 6.34 1.16 9.54 1.66.25.08.62.79.25.79zm50-24.68c-4.33-2-10.42-.77-15.06-.57-5 .19-9.86.55-14.81.29s-9.65-1.11-14.49-1.58c-5.1-.51-10.29-.4-15.43-.69-4.33-.26-8.62 0-13 0-4.86.08-9.72-.75-14.6-.8a24.63 24.63 0 01-9.55-2.37c-3.68-1.6-6-5-9-7.44-.07-.07-.13-.35 0-.25 3.15 2.19 5.44 5.14 8.93 6.94 4.47 2.29 9.27 2.07 14.12 2.19 4.52.11 8.91.78 13.46.55 4.85-.22 9.63.13 14.46.33 10 .42 20 2.11 30 2.08 4.46 0 8.9-.39 13.35-.56 3.82-.14 7.93-.91 11.45.9.46.25.79 1.25.17.98z"/><path class="cls-8" d="M312.62 246.87c-9.41-2.28-20-.86-29.6-.75-10.31.1-20.63 1.57-30.94 1.21-2.17-.07-15.37-1.87-13.7 2.82s7.61 7.51 11.85 9.12a70.45 70.45 0 0013.29 3.33c3.59.61 7 1.58 9.71 4.07.08.07.17.41 0 .27-4.87-3.38-10.55-3.46-16.15-4.83a44 44 0 01-12.89-5c-2.75-1.71-11.16-9.75-3.76-11 5.35-.89 11.49.42 16.92.3 6.59-.15 13.15-.94 19.73-1.18 6-.23 12-.19 18.06-.32s11.51-.45 17.25.92c.37.11.78 1.17.23 1.04z"/><path class="cls-8" d="M312.17 256.91c-5.37-5.15-11.39-4.58-18.35-4.8-6-.17-12 .88-18 .73-2.74-.07-5.47-.26-8.2-.4a30.88 30.88 0 00-4.11.1 9.6 9.6 0 00-3.11.75q.14 4.54 3.56 6.18c4.46 2.7 9.69 3.68 14.13 6.6.14.09.3.56 0 .42-5.92-3.1-13.55-4.44-18.24-9.4s4.26-5.74 7.3-5.7c4 .06 8 .5 12.1.33 4.74-.22 9.31-.86 14.09-.74 7.06.17 14.11-.58 19 5.34.26.27.26 1-.17.59zm.45-48.09c-9.41-2.27-20-.86-29.6-.75-10.31.11-20.63 1.58-30.94 1.22-2.17-.07-15.37-1.87-13.7 2.83s7.61 7.51 11.85 9.12a71.5 71.5 0 0013.29 3.32c3.59.62 7 1.58 9.71 4.07.08.06.17.4 0 .27-4.87-3.39-10.55-3.45-16.15-4.83a43.78 43.78 0 01-12.89-5c-2.75-1.69-11.16-9.74-3.76-11 5.35-.9 11.49.41 16.92.29 6.59-.15 13.15-.94 19.73-1.19 6-.21 12-.17 18.06-.3s11.51-.45 17.25.91c.37.13.78 1.17.23 1.04z"/><path class="cls-8" d="M312.17 218.87c-5.37-5.14-11.39-4.59-18.35-4.79-6-.18-12 .87-18 .72-2.74-.06-5.47-.27-8.2-.41a33.42 33.42 0 00-4.11.1 9.72 9.72 0 00-3.11.75c.1 3 1.28 5.08 3.56 6.18 4.46 2.7 9.69 3.68 14.13 6.61.14.09.3.57 0 .42-5.92-3.09-13.55-4.43-18.24-9.4s4.26-5.74 7.3-5.7c4 .08 8 .51 12.1.33 4.74-.21 9.31-.84 14.09-.73 7.06.17 14.11-.58 19 5.34.26.25.26 1-.17.58zM61.91 228.6a77.5 77.5 0 00-8.34-4.39c-2.2-.89-4.71-.65-7-1.61-6-2.5-12.78-5.48-19.45-4.16-.13 0-.3-.31-.14-.36 6.07-1.89 12.7 1.21 18.2 3.36 1.34.51 2.74 1 4.12 1.42s2.62 0 4.08.5a41.36 41.36 0 018.52 4.57c.2.14.45.92.01.67zm16.09-.71a23.91 23.91 0 00-5.57-3.41c-2.09-.76-4.29-1.31-6.43-1.91-4.65-1.27-9.24-2.74-13.93-3.89-8.25-2-16.63-4.87-25.19-4.45-.12 0-.29-.29-.14-.32 8.47-1.49 16.92 2.26 25.13 4 5.19 1.1 10.23 2.87 15.34 4.26a31.84 31.84 0 0110.93 5.1c.28.2.34.98-.14.62zm27.67.52a29.75 29.75 0 00-8.67-2.63c-2.85-.58-5.55-2.36-8-3.89s-4.71-3.26-7.29-4.57c-3.09-1.55-6.68-2.47-9.87-3.91a70.58 70.58 0 00-21.72-5.63c-7.62-.87-15.09-2.7-22.83-2.06-.18 0-.44-.43-.21-.49 6.23-1.52 13.73.05 20 1.13 3.92.64 7.92.93 11.84 1.64 3.43.62 7.09 2.18 10.36 3.4s6.45 3.06 9.91 4.12a28.91 28.91 0 017.72 4.12c3.06 2.1 6.21 4.19 9.83 5.22 3.24.92 5.92.93 8.85 2.82.29.15.57.98.08.73zm17.8-.91c-3.67-1.59-7-3.14-10.91-3.92a39.15 39.15 0 01-10.22-3.21c-3.62-1.81-6.37-4.74-10.17-6.23s-7.31-3.68-10.88-5.53a120.49 120.49 0 00-26.07-10.05c-9-2.24-18.24-4.81-27.6-3.49-.2 0-.54-.5-.32-.6 2.92-1.35 7.78-.77 10.9-.53 4.81.36 9.53 1.86 14.2 3 4.39 1.07 8.82 2.2 13.11 3.64s8.46 4 12.67 5.95c7.23 3.38 14.78 6.58 21.22 11.32 3.88 2.87 8.33 3.86 12.93 4.89a56.91 56.91 0 0111.09 4c.31.12.58.97.05.76zm25.04.45c-9.49-5.1-19.63-10-29.93-13.3-1.23-.38-2.51-.6-3.76-.89 3.41.79-5.88-1.46-3.71.54 1.69 1.56 4 2.37 5.86 3.72 4.18 3.08 8.91 5.9 12.61 9.54.19.18.26.79-.1.48-3.6-3.13-7.76-5.65-11.55-8.55-2.45-1.87-6.75-3.11-8.12-6.09-.06-.13-.11-.36 0-.45 1.67-1.13 4.23-.2 6 .21a57.36 57.36 0 0110 3.5c7.71 3.27 15.24 6.52 22.61 10.52.34.17.58.99.09.77z"/><path class="cls-8" d="M162.54 228.17a18.39 18.39 0 00-7.13-2.11c-2.64-.28-5-1.65-7.48-2.45a59.46 59.46 0 01-13.14-6.25c-9.28-5.76-20.6-6.15-30.2-11.06a87.5 87.5 0 00-15.51-6.63c-5.55-1.62-11.29-2.64-16.91-4s-11.32-2.74-17.1-3.78a57.86 57.86 0 01-14.93-4.44c-.12-.07-.26-.48-.06-.4a73.16 73.16 0 0014.83 4.14c5.74 1.06 11.39 2.42 17.09 3.75 11 2.56 21.48 4.59 31.45 10 5.17 2.81 10.74 4.22 16.4 5.73a80.31 80.31 0 0113.89 5.33c5.19 2.41 9.81 5.37 15.35 7.16 2.58.84 4.52 1.84 7.23 2.13a15.33 15.33 0 016.21 2.13c.26.16.47 1.03.01.75zm11.2.22c-6.68-5-15.22-7.38-22.43-11.51-7.81-4.47-16.55-7-24.33-11.64-8.06-4.79-17.67-8-26.79-10.13-4.45-1-8.79-2.37-13.19-3.62-2.22-.63-4.51-1-6.73-1.57-3-.86-5.33-2.2-8.59-2.39-.34 0-.82-.89-.38-.91 4.61-.16 8.43 2.42 12.93 3.2 4.84.83 9.56 2.78 14.34 3.94 9.34 2.28 18.71 5.25 27.19 9.85 4.3 2.33 8.44 4.7 12.93 6.7 4.21 1.86 8.5 3.47 12.58 5.61 4.29 2.26 8.74 4.2 13.11 6.33 3.13 1.52 7.05 3.46 9.44 5.94.09.08.09.33-.08.2zM213 228c-18.18-1.66-35.4-9.64-51.77-17.18-9.11-4.2-17.85-9-27.07-13s-18.68-8.83-28.73-9.73c-.07 0-.17-.21-.08-.21 8.7 0 16.9 4.44 24.76 7.61 8.81 3.56 17 8.23 25.58 12.1 22.42 10 36.2 16.88 57 19.55.31.03.69.86.31.86zm14.94-.42a13.83 13.83 0 01-4.8-1.61c-3.15-1.48-6.47-2.49-9.65-3.88-6.62-2.87-13.3-5-20.06-7.38-6.41-2.31-12.36-5.79-19-7.42-3.65-.89-7.17-2.09-10.8-3.08-3.34-.9-6.77-1.08-10.09-2.1-.28-.07-.61-.86-.19-.76a80.35 80.35 0 008.62 1.51c3.68.52 7.22 2.2 10.83 3 6.37 1.48 12.36 4.12 18.29 6.81s12.65 4.09 18.73 6.78q4.77 2.12 9.59 4c2.76 1.11 5.45 3 8.38 3.55.14.12.35.6.15.58zm8.34-15.97c-6.43-3.51-13.84-5-20.89-6.83a142.57 142.57 0 00-20.7-4.26 77.82 77.82 0 01-9.73-2c-3.36-.81-6.83-1-10.14-2.12-6.77-2.19-13.07-6.05-20-7.78-.07 0-.18-.24-.06-.22 6.84 1.11 13.4 4.88 19.85 7.28 3.23 1.2 6.8 1.3 10.13 2.09a92.67 92.67 0 0011.06 2.12c7.43.76 14.64 2.74 21.83 4.69 6.09 1.64 13.56 2.52 18.67 6.45.19.14.38.8-.02.58zm76.72.06c-2.66-2-7.49-2.36-10.68-3.14-3.7-.91-7.25-2-11.06-2.56-7.83-1.21-15.18-2.35-22.78-4.73-7.38-2.32-14.87-3.54-22.45-5-7-1.34-12.8-5.17-19.07-8.26-.12-.06-.31-.51-.07-.43 2.78.94 5.24 2.71 7.92 3.93a54.27 54.27 0 0012.41 4.1 204.24 204.24 0 0123.78 5.59c8 2.49 16.16 3 24.34 4.6 3.55.69 7 1.88 10.56 2.73 2.47.58 5.18.86 7.24 2.43.33.24.39 1.18-.14.74zm.52-12.8c-1.89-.72-4.78-.61-6.86-1-3.39-.56-6.83-.87-10.25-1.19-5.16-.5-10.3-1.75-15.45-2.38-5.65-.7-11.34-.85-16.94-1.94-5.11-1-10-2.83-15-4.14-.35-.1-.79-1.08-.24-1 5 .94 10 2.8 15 3.92 5.52 1.27 11.32 1.3 16.94 1.91s11.21 2 16.85 2.63c3 .35 6 .74 8.92 1.23 2.27.39 5 .48 7 1.57.08.13.2.46.03.39zM67.8 187.48c-2.15-.15-4.11-1.3-6.05-2.17a129 129 0 00-12.6-5.12c-7.34-2.39-15-3.86-22.43-5.91-.32-.09-.65-1-.21-.85 7 2.06 14.28 3.44 21.25 5.65 3.15 1 6.24 2.19 9.29 3.49 3.5 1.49 7 3.76 10.66 4.68.07.01.19.24.09.23zm11.05.01c-1.12-.87-3.76-.83-5.13-1.28-2.26-.76-4.4-1.84-6.6-2.73-5.06-2-9.61-4.46-15-5.73-8.52-2-19.71-4.06-25.47-11.17-.27-.33-.13-.87.26-.45 7.13 7.7 19.08 9 28.74 11.82 4.72 1.36 8.83 3.83 13.39 5.6 2.32.9 4.5 2 6.9 2.74 1 .32 2.14.18 2.94 1 .12.04.12.37-.03.2zm21.92-.32c-6-3.48-13.42-4.57-19.86-6.95-7.07-2.6-13.55-6.34-20.81-8.59a168.67 168.67 0 01-18.57-7.4 65 65 0 01-8.8-4.22c-2.4-1.52-3.72-3.68-6-5.34-.08-.07-.13-.36 0-.25 2.14 1.51 3.7 3.57 5.92 5.08 2.7 1.82 5.82 2.88 8.79 4.16a225.22 225.22 0 0021.1 8.08c6.75 2.15 12.85 5.8 19.5 8.17 6 2.14 13.28 3.06 18.65 6.57.31.13.52.93.08.69zm22.52.68a123.94 123.94 0 01-21.44-10.26c-7.49-4.71-16.25-6.65-24.59-9.36-7.67-2.5-14.27-6.5-21.5-9.88-8.29-3.87-17.41-7.71-26.47-9.27-.12 0-.25-.36-.12-.35 8.31.8 16.3 4.64 23.92 7.82a107.66 107.66 0 0110.86 5.55c4.12 2.3 8.73 3.67 13.13 5.39 7.52 2.92 15.23 4.46 22.52 8.07 3.88 1.93 7.36 4.4 11.32 6.21s8.2 3.66 12.28 5.51c.16.08.37.72.09.57zm22.79-.49c-3.5-1-7.08-1.5-10.52-2.81-3.6-1.36-6.88-3.45-10.25-5.28s-6.74-4.4-10.24-6.35a85.44 85.44 0 00-12.83-6.16c-8.65-3.05-17.36-5.81-26.19-8.21-4.4-1.19-8.54-3-12.9-4.27s-8.49-5.53-13.12-5.61c-.42 0-.86-1-.43-1 3.16.08 5.34 1.87 8.12 3.24a141.34 141.34 0 0013.67 5.41c4.74 1.77 9.87 2.69 14.72 4.13 4.46 1.33 9 2.84 13.35 4.4A90.78 90.78 0 01121 175.48a91 91 0 0012.07 7.29c4.13 2 8.61 2.69 12.91 4.23.14 0 .3.42.1.36zm-41.35-25.88a132.07 132.07 0 00-18.65-7.72c-3-.92-6.1-1.7-9.17-2.48s-6.93-2.74-10-2.39c-.15 0-.31-.29-.15-.33 2.66-.85 6 1 8.67 1.62 3.51.87 7 1.74 10.49 2.74a101.22 101.22 0 0118.82 7.8c.26.15.5 1.01-.01.76zM164 187.35c-3.35-1.46-6.55-3-9.81-4.65a124.54 124.54 0 00-13.31-6.19c-6-2.14-12.37-3.52-16.92-8.22-.06-.06-.05-.22 0-.13 5.19 4.94 12.66 5.67 19 8.46 7 3.09 14.09 6.55 21 10 .26.15.5.95.04.73zm-2.54-8.94c-9.09-8-21.33-10.64-32.22-15.3-6.4-2.73-12.69-5.82-19.35-7.87-4.44-1.39-9-3.16-11.83-7-.11-.15 0-.42.14-.2 4.13 5.38 12.33 6.54 18.34 9s11.77 5.15 17.77 7.43c9.17 3.49 20.28 6.29 27.31 13.55.17.15.15.66-.16.39zm58.6 9.25c-7.24-1.09-14.58-2.09-21.46-4.74s-13.45-5.79-19.93-9c-7.07-3.5-13.13-8.32-19.53-12.8-6.06-4.25-12.66-9.66-19.8-11.93-.32-.1-.72-1-.23-.92 6.57 1.78 12.24 6.85 17.81 10.52 6.52 4.28 12.51 9.2 19.35 13a81.94 81.94 0 0010.73 4.87c3.85 1.47 7.53 3.69 11.38 5.26 6.87 2.81 14.39 3.39 21.55 5.17.2.08.46.61.13.57zm66.46-1.13c-5-1.73-9.28-4.75-13.87-7.26-5.2-2.83-10.49-5.86-16.06-7.94s-12.75-1-18.51-.44c-6 .55-11.84.83-17.85.94-5.76.1-11.17 0-16.75-1.52s-11.22-3.32-16.84-5c-5.22-1.51-10.58-2.35-15.57-4.54a35.91 35.91 0 01-6.73-3.59c-2.09-1.52-3.79-3.54-5.87-5-.06 0-.11-.27 0-.19a32.67 32.67 0 014 3.33 32.7 32.7 0 007.36 4.36c5.7 2.7 12 3.66 18 5.4 5.58 1.6 11.13 3.34 16.73 4.87 6.38 1.77 13.27 1.23 19.82 1.05 5.43-.15 10.67-.71 16.07-1.18 5.18-.46 10.85-.94 15.89.56 10.72 3.18 19.63 11.05 29.93 15.2.34.13.73 1.14.25.95z"/><path class="cls-8" d="M313 161.17c-5.85-.34-11.44-1.51-17.18-2.5-3.64-.64-7.25-1.9-11-2.15s-7.61.54-11.29 1c-6.76.88-13.5 1.46-20.2 2.75-6.92 1.33-13.84 3-20.8 3.95-6.42.9-13.33 0-19.75-.39a89 89 0 01-18.41-3.12c-6.22-1.75-12.19-4.11-18.31-6.2-5.81-2-10.64-5.64-16.88-6.33 0 0-.09-.12 0-.13 5-.61 8.67 2.22 12.93 4.32 6 3 13.09 4.65 19.47 6.73a89 89 0 0019.62 3.8c6.87.62 14.16 1.2 21 .49 6.46-.68 13-2.42 19.35-3.68 7.19-1.42 14.38-2.1 21.65-3 3.29-.43 6.57-.81 9.88-1s6.56.81 9.81 1.45c6.59 1.3 13.09 2.38 19.75 3.12.36.03.76.94.36.89z"/><path class="cls-8" d="M299.94 148.3c-8.28 1.18-16.32 3.47-24.58 4.72s-16.29 4.13-24.83 4c-4.08-.08-8.2-1.29-12.18-2.15-4.25-.93-8.66-1.48-13-2.13-4.58-.71-9.18-1.08-13.77-1.68-2.22-.29-4.44-.71-6.63-1.11-1.89-.36-4.28-1.45-6.2-1.15-.18 0-.43-.41-.25-.47 2.47-.8 6.38.86 8.9 1.29 4.46.75 9 1.11 13.44 1.65 9 1.07 17.77 3.27 26.7 4.7 4.63.74 9.55-.15 14.15-.81a95.47 95.47 0 0012-2.66c4-1.11 8.43-1.55 12.54-2.36 4.44-.88 8.78-2.21 13.34-2.47.35-.04.68.59.37.63z"/><path class="cls-8" d="M212 146.23c2.66.41 5.32.81 7.93 1.35.21 0 .47.51.15.47-4.27-.53-8.57-1-12.79-1.82zm-140.85 0l1.07.39c.27.1.6.92.2.78l-3.55-1.16zm89.57 0a75 75 0 018.62 1.2c.2 0 .52.71.23.68a109.16 109.16 0 01-13.17-1.88z"/></g><circle class="cls-9" cx="159.25" cy="279.18" r="3"/><path class="cls-9" d="M209 279.17a3 3 0 10-3 3 3 3 0 003-3zm56.44 0a3 3 0 10-3 3 3 3 0 003-3z"/><circle class="cls-9" cx="112.89" cy="279.18" r="3"/><circle class="cls-9" cx="63.79" cy="279.18" r="3"/><path class="cls-9" d="M16.42 226.94a3 3 0 10-3 3 3 3 0 003-3zm0-44.37a3 3 0 10-3 3 3 3 0 003-3zm313.64 44.37a3 3 0 10-3 3 3 3 0 003-3zm0-44.37a3 3 0 10-3 3 3 3 0 003-3z"/><path class="cls-10" d="M28.86 253.61s-.07-.07 0-.07.03.07 0 .07z"/><path class="cls-9" d="M10 269.83a7.43 7.43 0 019.32-2l-9 11.56a7.43 7.43 0 01-.32-9.56z"/><path class="cls-2" d="M19.49 267.47a.4.4 0 01.2.26.34.34 0 01-.08.32l-8.94 11.55a.36.36 0 01-.28.15.37.37 0 01-.31-.13 7.79 7.79 0 015.79-13 7.85 7.85 0 013.62.85zm-.78.48a7.11 7.11 0 00-2.86-.61 7 7 0 00-5.51 11.43z"/><path class="cls-9" d="M21.73 278.93a7.4 7.4 0 01-9.32 2l8.95-11.55a7.41 7.41 0 01.37 9.55z"/><path class="cls-2" d="M21.64 269.17a7.81 7.81 0 01-9.42 12.15.41.41 0 01-.12-.57l9-11.56a.41.41 0 01.29-.15.38.38 0 01.25.13zm-5.78 12.28A7 7 0 0021.37 270L13 280.81a7 7 0 002.86.61z"/><path class="cls-11" d="M11.31 280.25a8.6 8.6 0 01-.95-.88l9-11.56a6.85 6.85 0 011.09.71 6.46 6.46 0 011 .88l-8.95 11.55a6 6 0 01-1.19-.7z"/><path class="cls-2" d="M19.49 267.47a8.51 8.51 0 011.15.74 7.07 7.07 0 011 .94.37.37 0 010 .49l-9 11.55a.38.38 0 01-.48.1 8.54 8.54 0 01-1.15-.73 9.57 9.57 0 01-1-.94.36.36 0 010-.49l9-11.55a.39.39 0 01.31-.15zm-7.94 12.48a6.62 6.62 0 00.75.51l8.55-11a6.35 6.35 0 00-.68-.62 6.63 6.63 0 00-.77-.51l-8.55 11a6.63 6.63 0 00.7.62z"/><path class="cls-9" d="M320.46 271a7.44 7.44 0 019.33-2l-9 11.57a7.44 7.44 0 01-.33-9.57z"/><path class="cls-2" d="M330 268.67a.44.44 0 01.2.26.39.39 0 01-.08.32l-8.94 11.55a.45.45 0 01-.3.15.35.35 0 01-.29-.12 7.81 7.81 0 015.79-13 7.94 7.94 0 013.62.84zm-.78.48a7.07 7.07 0 00-2.85-.61 7 7 0 00-5.52 11.46z"/><path class="cls-9" d="M332.21 280.17a7.43 7.43 0 01-9.32 2l9-11.56a7.45 7.45 0 01.32 9.56z"/><path class="cls-2" d="M332.12 270.35a7.8 7.8 0 01-9.41 12.15.4.4 0 01-.2-.25.37.37 0 01.08-.32l8.94-11.55a.38.38 0 01.3-.15.38.38 0 01.29.12zm-5.78 12.28a7 7 0 005.51-11.46L323.48 282a7.17 7.17 0 002.86.63z"/><path class="cls-11" d="M321.78 281.46a7.79 7.79 0 01-.94-.88l9-11.57a8.61 8.61 0 011.1.7 10.39 10.39 0 011 .88l-9 11.56a7.86 7.86 0 01-1.16-.69z"/><path class="cls-2" d="M330 268.67a7.85 7.85 0 011.15.74 7.29 7.29 0 011 .94.37.37 0 010 .49l-8.94 11.55a.37.37 0 01-.48.11 7.45 7.45 0 01-1.16-.74 8.25 8.25 0 01-1-.93.4.4 0 010-.5l9-11.56a.39.39 0 01.3-.15zm-8 12.5a7.7 7.7 0 00.76.5l8.55-11a8.31 8.31 0 00-.69-.61 7.16 7.16 0 00-.76-.5l-8.55 11c.26.21.48.44.69.61z"/><path class="cls-7" d="M313.31 146.23v121.21H299c-7.44-17.15-15.8-33.88-26.38-49.29a187 187 0 00-40.72-43.07 245.49 245.49 0 00-49.81-28.84z"/><path class="cls-1" d="M14.93 291.37l11.69-6.86 241.96 6.86H14.93z"/></g></svg>