<svg id="layer_1" data-name="layer 1" xmlns="http://www.w3.org/2000/svg" viewBox="0 0 1356.35 1170.75"><defs><clipPath id="clip-path"><path class="cls-1" d="M759.55 782.43l-6.3.39c-12.69 1.08-31.07 3.16-46 6.49-8.67-4.72-50.67-19.42-87.41-21.76l10.73-31 62.73-4.8 68.21 28.19z"/></clipPath><clipPath id="clip-path-2"><path class="cls-1" d="M586.44 703.75l6.3.39c12.69 1.08 31.07 3.16 46 6.49 8.67-4.72 50.67-19.42 87.41-21.76l-10.73-31-62.73-4.8-68.21 28.19z"/></clipPath><clipPath id="clip-path-3"><path class="cls-1" d="M605.39 895.57l7 .43c14 1.19 34.29 3.48 50.76 7.16 9.57-5.21 55.92-21.44 96.47-24l-11.84-34.26-69.23-5.29-75.32 31.14z"/></clipPath><style>.cls-1{fill:none}.cls-3{fill:#e79f25}.cls-4{fill:#c76e4c}.cls-5{fill:#e1af92}.cls-6{fill:#1a2027}.cls-7{fill:#26343a}.cls-8{fill:#be3609}.cls-9{fill:#772501}.cls-10{fill:#cc4b13}.cls-11{fill:#fff}.cls-17{fill:#825007}.cls-18{fill:#fae699}.cls-20{fill:#da9400}.cls-21{fill:#ffc612}.cls-22{fill:#fefaeb}.cls-23,.cls-24{fill:#965015}.cls-24{opacity:.25}.cls-24,.cls-32{isolation:isolate}.cls-25{fill:#783b00}.cls-26{fill:#5a2c00}.cls-27,.cls-32{fill:#f3c000}.cls-28{fill:#451d00}.cls-30{fill:#f8d966}.cls-31{fill:#c37d38}.cls-32{opacity:.61}.cls-33{fill:#f5cd33}.cls-34{fill:#cf8019}</style></defs><g id="layer_1-2" data-name="layer 1"><path d="M124.55 376.15l-21.22-149.98h206.65l-17.47-106.23 376.92-81.5 363.1 66.94-11.64 108.65 186.67-6.99-18.59 153.02-1064.42 16.09zm18.81 134.21l40.01 485.66 983.77-12.19 27.65-480.18-1051.43 6.71z" fill="#e68f4c"/><path class="cls-3" d="M477.33 554.75c-78.76 0-142.62 3.21-142.62 3.21s63.85 3.21 142.62 3.21S620 558 620 558s-63.9-3.25-142.67-3.25zM978 570a320.31 320.31 0 00-90.23-5.79A320.32 320.32 0 00978 570z"/><path class="cls-4" d="M422.63 855.31C295.22 858.92 192 865.05 192 865.05s103.38.28 230.8-3.33S653.41 852 653.41 852s-103.41-.25-230.78 3.31zM604 781.43s-43.62-3.85-97.48-4.65-97.52 1.76-97.52 1.76 43.62 3.85 97.48 4.65 97.52-1.76 97.52-1.76zM482.43 948.29c65.51 0 118.61-3.21 118.61-3.21s-53.1-3.21-118.61-3.21-118.61 3.21-118.61 3.21 53.1 3.21 118.61 3.21zM951 795.17c-71.13 0-128.79 3.2-128.79 3.2s57.66 3.21 128.79 3.21 128.79-3.2 128.79-3.2-57.63-3.21-128.79-3.21z"/><path class="cls-3" d="M866.61 620c-67.92.34-123 3.82-123 3.82s55.07 2.93 123 2.59 123-3.82 123-3.82-55.08-2.96-123-2.59z"/><path class="cls-4" d="M958.9 723.66s-50-5.7-111.87-8.79-112.19-2.39-112.19-2.39 50 5.7 111.87 8.79 112.19 2.39 112.19 2.39zM858.62 860.68s38.77 3.21 86.59 3.21 86.59-3.21 86.59-3.21-38.77-3.21-86.59-3.21-86.59 3.21-86.59 3.21zm197.99-136.54s84.23-.84 125.61-2.24l.36-6.35c-41.11 2.13-125.97 8.59-125.97 8.59zm72.69 140.26s26 1.81 44.58 2.48l.33-5.73c-18.55.97-44.91 3.25-44.91 3.25z"/><path class="cls-3" d="M1018.7 662.75s112 2.79 166.74 3.17l.36-6.33c-54.64.41-167.1 3.16-167.1 3.16zm15.99-102.41s100.51 4.91 156.45 6.78l.36-6.2c-55.93-.76-156.81-.58-156.81-.58z"/><path class="cls-4" d="M331.81 788.86S219 785 165.92 784.28l.52 6.35c53.38.12 165.37-1.77 165.37-1.77z"/><path class="cls-3" d="M147.6 561.92c33.76 1 88.18 1.44 88.18 1.44s-55.06-5.15-88.68-7.51z"/><path class="cls-4" d="M1170.74 921.35c-64.7 3.25-213.1 13.23-213.1 13.23s147.68-4 212.73-6.82zM156.85 674.13l.52 6.36c57.34-.3 180.26-3.18 180.26-3.18s-123.63-2.89-180.78-3.18zm21.7 263.46l.51 6.26c32.21-.48 93.07-3.12 93.07-3.12s-61.5-2.68-93.58-3.14z"/><path class="cls-5" d="M215.93 927.97l9.42 9.62h243.8l1.86-26.89-4.85-4.36-6.83-317.07h-9.34L247.24 921.35l-31.31 6.62z"/><path class="cls-6" d="M565.93 606.37l4.19 378.54h206.57l3.34-378.54h-214.1z"/><path class="cls-7" d="M580.01 620.51v364.4l186.16-.59 4.37-363.81H580.01z"/><path class="cls-8" d="M556.19 988.23l-7.59-405.51 246.03 2.91-10.87 402.6-7.11-.37 3.37-381.49h-214.1l4.19 381.86h-13.92z"/><path class="cls-4" d="M110.36 275.89l262.92 6.67H111.31l-.95-6.67zm1083.9 40.62l-129.72 6.44h128.94l.78-6.44zm-164.94-181.17l-204.9 4.97 203.9 4.38 1-9.35zM301.73 176l97.02 4.33-95.56 4.53-1.46-8.86zm-4.42-26.91l174.71-4.4-173.49 11.83-1.22-7.43zm591.51 104s-91.62 3.21-204.65 3.21-204.65-3.21-204.65-3.21 91.62-3.21 204.65-3.21 204.65 3.21 204.65 3.21zM1141 293.92s-50.28 4-112.37 5.06-112.48-1.36-112.48-1.36 50.28-4 112.37-5.06 112.48 1.36 112.48 1.36zm-614.58 39.83s-58.49 1.42-130.52-.79-130.33-7.21-130.33-7.21 58.49-1.42 130.52.79 130.33 7.21 130.33 7.21zm291.45-34.68a314 314 0 01-89.51-2 314.13 314.13 0 0189.51 2zM905.21 109s-69 1.74-154-.06-153.84-6.47-153.84-6.47 69-1.75 154 .06S905.21 109 905.21 109zm39.27 79.75a505.81 505.81 0 01-56.75 3.3A506 506 0 01831 188.9a504 504 0 01113.51-.18zm-458.41 38.31a555.12 555.12 0 01-59.47 3.51 555.25 555.25 0 01-59.5-2.9 553.42 553.42 0 01119-.6zm-255.38 82.23a299.65 299.65 0 01-87.31 4.54 299.56 299.56 0 0187.31-4.54zM719 163s-40.28 3.6-90 4.09-90.06-2.33-90.06-2.33 40.28-3.6 90-4.09S719 163 719 163z"/><path class="cls-9" d="M226.53 116.42l18.91 18.92 421.31-96.05 408.94 80.04 16-18.19L663.11 0 226.53 116.42z"/><path class="cls-5" d="M104.46 234.16l3.54 25.06 217.93-5.17-7.26-40.97-214.21 21.08zm906.24-32.39l-7.28 41.87 198.93 6.25 3.54-29.12-195.19-19z"/><path class="cls-9" d="M75.22 207.3l4.52 26.65 233.6 1.95 5.33-22.82-243.45-5.78zm1149.92-13.33l-4.52 26.65-204.69 4.15-5.23-23 214.44-7.8z"/><path class="cls-10" d="M201.87 589.27l30.07 324.16h212.68l5.37-324.16H201.87z"/><path class="cls-6" d="M243.71 900.88l-23.08-294.51h211.98l-1.53 294.51H243.71z"/><path class="cls-7" d="M254.01 641.12l15.96 212.83h61.13l4.44 23.44 1.54.02h65.51l5.53-216.65-9.37-2.18h-50.24l-4.86-24.02-89.64 6.56z"/><path class="cls-10" d="M432.11 702v-7.46L377 693.41l-1.13-87h-7.6l2.09 86.9-72.05-1.56-4.43-85.36h-7.64l5.37 85.21-64.45-1.38.71 9 64.28.89 7.15 113.44-62.42.5v4.16h62.72l5.21 82.68h4.37l-4.29-82.68h68.5l2 82.68h4.37l-1.07-82.68h52.82v-5.73l-52.92.43-1.42-111.61zm-58.83 110.94l-68.62.55-5.88-113.3 71.8 1zM213.75 913.43l2.18 14.54h243.4V910.7l-245.58 2.73z"/><path class="cls-11" d="M243.71 900.88l46.84-.84c15.61-.42 31.23-.14 46.84-.23h93.68l-1.07 1.06.77-147.26.38-73.63c.09-24.54 1-49.08 1.45-73.62.2 24.54.85 49.09.69 73.63l-.38 73.63-.77 147.26v1.06h-94.75c-15.61-.08-31.23.19-46.84-.23zm215.62 9.87l-30.69 1.36-30.7.39-61.4.68-61.4.68c-20.47.08-40.92.86-61.4.1l.47-.55 1.71 14.59-2.66-14.46-.1-.52h.57c20.45-1.22 40.93-.89 61.39-1.27l61.4-.68 61.4-.68 30.7-.3z"/><path class="cls-5" d="M874.61 927.97l8.51 9.62h243.8l4.41-26.89-4.44-4.36 23.18-317.07h-9.33l-234.2 332.08-31.93 6.62z"/><path class="cls-10" d="M892.62 589.27L892 913.43h212.68l36.06-324.16H892.62z"/><path class="cls-6" d="M904.95 900.88l4.81-294.51h211.98l-29.42 294.51H904.95z"/><path class="cls-7" d="M939.85 641.12l-4.19 212.83h61.13l2.22 23.44 1.54.02h65.51l26.04-216.65-9.16-2.18h-50.24l-2.59-24.02-90.26 6.56z"/><path class="cls-10" d="M1112.18 702l.74-7.46-55-1.18 7.11-87h-7.64l-6.13 86.9-71.87-1.56 3.61-85.31h-7.6l-2.7 85.21-64.32-1.38-.15 9 64.19.89-3.59 113.44-62.47.5-.39 4.16h62.72l-2.62 82.68h4.37l3.56-82.68h68.5l-5.84 82.68h4.34l6.76-82.68h52.82l.57-5.73-53 .43 9.12-111.61zm-69.33 110.89l-68.67.55L979 700.19l71.71 1zM873.8 913.43l.81 14.54h243.4l1.63-17.27-245.84 2.73z"/><path class="cls-11" d="M874.61 928l-1.29-14.51V913h.52c20.48-1.23 41-.87 61.45-1.27l61.46-.68 61.46-.68 30.73-.28 30.74.67-30.68 1.33-30.73.4-61.46.68-61.46.68c-20.49.06-41 .88-61.47.1l.48-.51zM905 900.88l46.84-.84c15.61-.42 31.23-.15 46.84-.23h93.68l-1.06 1 14.7-147.29 7.35-73.63c2.41-24.55 5.64-49 8.42-73.52-2.12 24.58-3.8 49.2-6.29 73.73l-7.39 73.65L1093.38 901l-.1 1h-94.65c-15.61-.08-31.23.19-46.84-.23z"/><path class="cls-5" d="M142.62 509.23l13.77 159.34 1027.23 29.08 11.17-194-1052.17 5.58z"/><path class="cls-8" d="M109.37 507.61l46.92 482.94 19.6-.23-38-482.71h-28.52z"/><path class="cls-9" d="M137.89 507.61l38 482.71h8.6l-31.12-482.71h-15.48z"/><path class="cls-8" d="M144.13 583.09l76.5-74.32h31.86l-106.6 100.54-1.76-26.22z"/><path class="cls-9" d="M145.89 609.31l.52 6.61 128.28-107.15h-22.2l-106.6 100.54zm-36.52-101.7l7.82 80.5 27.5 5.93-6.8-86.43h-28.52z"/><path class="cls-9" d="M144.05 581.87l1.84 27.44 106.6-100.54h-31.86l-76.58 73.1z"/><path class="cls-8" d="M466.16 504.95l21.3 486.76 19.11-.23-12.63-486.53h-27.78z"/><path class="cls-9" d="M493.94 504.95l12.63 486.53h8.37l-5.91-486.53h-15.09z"/><path class="cls-8" d="M502.56 621.87l120.05-118.22h31.05L504.93 646.02l-2.37-24.15z"/><path class="cls-9" d="M504.93 646.02h5.78l164.57-142.37h-21.62L504.93 646.02z"/><path class="cls-8" d="M471.01 618.74l-97.73-115.09h-24.74l123.48 137.97-1.01-22.88z"/><path class="cls-9" d="M471.01 618.74l-97.73-115.09h16.19l81 102.72.54 12.37z"/><path class="cls-9" d="M348.54 503.65l68.78 76.84 24.34 3.68-68.38-80.52h-24.74zm117.62 1.3l3.61 74.77 26.11 3-1.94-77.77h-27.78zm80.27 73.72l32.86-3.83 74.37-71.19h-31.05l-76.18 75.02z"/><path class="cls-8" d="M1223.37 499.77l-46.92 491.94-19.6-.23 38-491.71h28.52z"/><path class="cls-9" d="M1194.85 499.77l-38 491.71h-8.6l31.12-491.71h15.48z"/><path class="cls-8" d="M1191.93 557.81l-55.29-58.04h-31.87l83.52 81.76 3.64-23.72z"/><path class="cls-9" d="M1189.61 567.64l-1.56 20.16-105.47-88.03h22.19l84.84 67.87z"/><path class="cls-9" d="M1223.37 499.77l-7.82 81.99-27.5 6.04 6.8-88.03h28.52z"/><path class="cls-9" d="M1211.87 574.22l-41.94-11.85-65.16-62.6h31.87l75.23 74.45z"/><path class="cls-8" d="M884.97 498.08l-21.31 493.63-19.11-.23 12.63-493.4h27.79z"/><path class="cls-9" d="M857.18 498.08l-12.63 493.4h-8.37l5.91-493.4h15.09z"/><path class="cls-8" d="M848.56 616.65L728.52 496.76h-31.05L846.2 641.14l2.36-24.49z"/><path class="cls-9" d="M846.2 641.14h-5.79L675.85 496.76h21.62L846.2 641.14z"/><path class="cls-8" d="M880.12 613.47l97.73-116.71h24.73L879.11 636.67l1.01-23.2z"/><path class="cls-9" d="M880.12 613.47l97.73-116.71h-16.2l-80.99 104.17-.54 12.54zm122.46-116.71l-68.77 77.93-24.34 3.73 68.38-81.66h24.73zm-117.61 1.32l-3.61 75.82-26.11 3.05 1.93-78.87h27.79zm-80.28 74.76l-32.86-3.89-74.36-72.19h31.05l76.17 76.08z"/><path fill="#dd4b0e" d="M39.29 992.38l1264.65-12.17-8.15 27.45-1252.05 2.91-4.45-18.19z"/><path fill="#adb8cc" d="M60.05 1010.57l20.76 149.9h1183.1l17.97-152.78-1221.83 2.88z"/><path d="M438.82 1149.21s-3.76-99.53-6.45-139.52H426c2.76 39.72 12.82 139.52 12.82 139.52zm457.47-32.76s.94-70.55.52-107.85h-6.26c1.38 37.25 5.74 107.85 5.74 107.85zm-526.87-24.04s-6.28-55.56-10.33-82.54h-6.42c4.66 26.47 16.75 82.54 16.75 82.54zm-162.03 38.06s-15.12-79.93-23.72-120.19h-6.47c9.27 39.64 30.19 120.19 30.19 120.19zm-87.55-93.59s13.85 88.41 20.56 123.59h6.53c-6.62-34.33-27.09-123.59-27.09-123.59zm973.9-28.74h-6.29c-.63 35.25 0 103.93 0 103.93s4.79-68.77 6.29-103.93zm70.58-.14c.4 18.63 2.9 53.9 2.9 53.9s2.8-35.3 3.35-53.91zm-153.08 15.61s-9.54 97.49-12.22 136.86h6.42c2.5-39.66 5.8-136.86 5.8-136.86zm157.06 98.3s-6.6 27.43-8.07 38.56h6.44c1.26-11.62 1.63-38.56 1.63-38.56zm52.7-114.07c-1.47 40-2.39 126-2.39 126s6.71-86.2 8.76-126zm-980.24 106.37s2.76 30.9 5.1 46.25h6.43c-2.96-14.8-11.53-46.25-11.53-46.25zm70.13-53.46s4.6 71.35 7.61 99.75h6.44c-3.05-27.98-14.05-99.75-14.05-99.75zm632.3 27.31s-4.26 48.4-5.38 72.41h6.32c.33-24.09-.94-72.41-.94-72.41z" fill="#2e3157"/><path class="cls-5" d="M60.05 1010.57l1221.83-2.88-6.16 52.42H913.38l37.65 100.36H506.57l2.96-106.24-443.86-3.09-5.62-40.57z"/><path class="cls-8" d="M510.63 988l-47.48 181.2h23.74l37.94-181.34-14.2.14zm321.48-1.69l47.83 184.44H856.2l-39.01-184.29 14.92-.15z"/><path class="cls-9" d="M524.83 987.86l-37.94 181.34h368.35l-39-184.29-291.41 2.95z"/><path fill="#4b1601" d="M532.2 1169.2l31.72-167.18 212.73-3.6 23.76 170.78H532.2z"/><path class="cls-8" d="M532.2 1028.51l281.56-3.44-3.76 13.23-272.44 3.88-5.36-13.67zm-8.05 44.9l297.66-3.44-3.98 13.23-288.01 3.88-5.67-13.67zm-12.43 47.5l322.53-3.44-4.31 13.23-312.08 3.88-6.14-13.67zm36.74-132.56l249.04-3.44-3.33 13.23-240.96 3.88-4.75-13.67zm807.89-506.06l-93.19.52-10.52.08-86.52.43-10.26.08-97.98.52h-10.18l-190.57 1.02-8.81.09-104.31.51-8.55.09-190.83 1.02h-8.46l-194.34 1.12h-8.46l-90.63.51h-8.21l-168 .94h-9.75l-56.77.34 90.2-125.17 129.61-1.37 8.98-.08 169.29-1.71 8.46-.09L533 359.86h.09l66.69-.68 8.46-.09 145.43-1.54 8.55-.08 151.51-1.54 9.4-.09 206.57-2.14h6.24l89.17-.94 131.24 129.53z"/><path class="cls-9" d="M0 489.58l7.46 21.65 1340.14-8.55 8.73-20.38L0 489.58z"/><path class="cls-9" d="M219.82 363c-12.31 29-31.12 77.55-32.49 81 1.8-3.42 28.13-53.27 41.47-81.14zm13.94 125l.77.26 7.18 2.74c.34-.85.68-1.71 1-2.74 8.29-22.53 23.71-73.27 24.65-76.53-1.45 3.27-25.65 55.43-33.6 76.27zm-177 1.2c-.51.86-1.11 1.71-1.54 2.48l7.27 4.44c1.2-1.88 2.56-4.27 4-6.92 8.72-15.65 21.55-41.89 22.4-43.78-1.33 1.88-22.89 29.67-32.11 43.78zm341.31-128c.77 31.12 5.64 97.81 5.64 97.81s2.82-66.86 2.82-97.9zm-64.7 126.53c-.26.85-.43 1.62-.6 2.31l8.29 1.88c.26-1.11.51-2.56.77-4.19 1.28-9.66 1.71-25.82 1.71-25.82s-7.54 16.84-10.17 25.84zm211.27-1.11C541.9 447.4 534.12 370 533.1 359.85a9.64 9.64 0 01-.1-1.1v1.11c.17 10.17 1.37 87.21 3.16 126.79.17 3.25.26 6.24.43 9l8.55-.51q-.25-3.87-.51-8.49zm63.61-127.56l-8.46.09c5.64 33 19.49 98.24 19.49 98.24s-6.42-64.8-11-98.32zM744 485.54c-3.24-14.87-12-43.94-12-43.94s1.54 28.73 3.51 44c.17 1.71.43 3.25.68 4.62l8.46-1.45c-.21-.92-.47-2.02-.65-3.23zm113.11-.6c-9.83-31-35.22-99.69-36.85-104 1.11 4.45 18.47 72 28 104.14.6 2 1.2 3.85 1.71 5.56l8.12-2.48a30.39 30.39 0 00-1-3.17zm-94.9-127.48l-8.55.09c3.59 12.57 14 38.13 14 38.13s-2.78-24.79-5.44-38.21zm160.91-1.62l-9.4.09c15.22 29.92 52.75 97.21 55.23 101.49-1.87-4.28-30.43-69.6-45.82-101.58zm134.75 128.08c-12-14.88-36.08-41.21-37.7-43 1.11 1.88 16.5 26.76 27.53 43 2.48 3.68 4.7 6.84 6.5 9.23l6.8-5.15c-.94-1.19-2-2.56-3.16-4.1zm108.24-.6c-20-28.73-67.8-92.08-74.21-100.38 5 8.12 43.26 69.43 64 100.46l4.87 7.18 7-4.87c-.54-.77-1.14-1.54-1.65-2.39zm-30.17-129.57H1125c9 12.48 37.16 44.07 38.78 46-1.08-2-18.18-31.75-27.84-46zm127.22 129.1c-15.39-19.67-53.78-63.35-58.14-68.14 3.76 5.56 31.46 46.34 47.62 68.23 1.8 2.39 3.42 4.62 4.87 6.5l6.75-5.22c-.33-.47-.67-.9-1.1-1.41z"/><path d="M89.93 375.38l101.22.47-9.37 86.39 52.71-91.67 40.23-.22-56 111.18-131-10.71 23.48-60-54.4 60.62-24.62-7.61L90 375.41zm301.92 5.45l-54.6-5.71-23 47.69 5.36-45.38-35.54-2.68-27 100.9h64.72l24-40.9 13.58 43.73 36.63-5.19-4.2-92.45zm70.61 56.81l-11.35-62.42-29.89 1.22-4.85 88.41 106.8 5.22-2.26-91.4-3.19-.6h-41l-14.27 59.58zm278.35-67.7l-41.1-3.37-3 36-9.75-34.69-61.46 1.39-1.49 99-32.55-95.67-45 2.67 9 97.16h153.5l5.46-12.29 10-43.45 37.71 57.62 75.39 1.9-29.78-104.38-35.41-4.75-.22 1 .88-.48 3.38 53.6-35.56-51.2zm217.87 103l-50.22-104.76-80.57.75 31.61 100.25 99.18 3.82zm-13.94-106.19L995.68 472l27.39.26-24.28-68.44 57.88 70.63 75-1.25 3.27-7.25-59.72-101.37zm381.19 103.6l-101.49-106.92-67.31-.34 16.93 60-49.48-59.34-23.25 2.72L1173 474.18l55.19 1.42-38.32-86 63.17 63 26.8 20.2 46-2.44z" fill="#d2420b"/><path class="cls-11" d="M42.71 1010.83l-4.78-19.5 1.36-.02 1264.64-12.17.02 2.14L40.66 993.44l4.12 16.88-2.07.51z"/><path class="cls-11" transform="rotate(-75.31 486.872 1078.511)" d="M393.21 1077.44h187.32v2.14H393.21z"/><path class="cls-17" d="M590.88 998.6a81.4 81.4 0 0115.94-.51 131.33 131.33 0 0115.86 1.89 139.94 139.94 0 0115.5 3.83c2.56.72 5 1.69 7.55 2.57 1.25.45 2.46 1 3.7 1.5s2.45 1 3.66 1.56c-2.58-.67-5.09-1.51-7.65-2.18l-3.83-1q-1.91-.54-3.83-1c-1.28-.31-2.56-.63-3.84-1l-3.86-.85c-2.56-.62-5.16-1.06-7.74-1.58q-7.77-1.43-15.64-2.28c-1.31-.15-2.62-.27-3.94-.38s-2.63-.21-4-.3c-2.58-.2-5.22-.27-7.88-.27z"/><path class="cls-18" d="M665.24 916.07c-.37 7.5-.85 15-1.34 22.47L662.32 961l-1.8 22.44c-.64 7.48-1.3 15-2 22.42.37-7.5.84-15 1.33-22.47l1.59-22.46 1.8-22.44c.58-7.49 1.24-14.95 2-22.42z"/><g id="Слой_2" data-name="Слой 2"><g opacity=".33"><path class="cls-20" d="M608.58 889.31c0 3.94-6.7 7.14-15 7.14s-15-3.2-15-7.14v-3.07h29.93z"/><ellipse class="cls-21" cx="593.61" cy="886.4" rx="14.96" ry="7.14"/><path class="cls-18" d="M578.65 885.8a4.51 4.51 0 00.81 2 6.76 6.76 0 001.59 1.45 14.48 14.48 0 003.93 1.82 31.55 31.55 0 0017.28 0 14.47 14.47 0 003.93-1.82 6.76 6.76 0 001.59-1.45 4.51 4.51 0 00.81-2 4.11 4.11 0 01-.52 2.2 7.24 7.24 0 01-1.49 1.76 13.43 13.43 0 01-4 2.27 23.55 23.55 0 01-4.42 1.18 28.63 28.63 0 01-9.1 0 23.51 23.51 0 01-4.42-1.18 13.43 13.43 0 01-4-2.27 7.23 7.23 0 01-1.49-1.76 4.12 4.12 0 01-.5-2.2z"/><path class="cls-22" d="M583.67 887.3a7 7 0 01.66 2 10.48 10.48 0 01.19 2 10.36 10.36 0 01-.19 2 7 7 0 01-.67 2 7 7 0 01-.66-2 10.34 10.34 0 01-.19-2 10.5 10.5 0 01.19-2 7 7 0 01.67-2z"/><path class="cls-22" d="M586.43 890.92a3.86 3.86 0 01-1.38.66 5 5 0 01-1.38.19 4.92 4.92 0 01-1.38-.19.85.85 0 110-1.33 4.92 4.92 0 011.38-.19 5 5 0 011.38.19 3.86 3.86 0 011.38.67z"/><path class="cls-20" d="M680.74 906.64c0 3.94-6.7 7.14-15 7.14s-15-3.2-15-7.14v-3.07h29.93z"/><ellipse class="cls-21" cx="665.77" cy="903.73" rx="14.96" ry="7.14"/><path class="cls-18" d="M650.81 903.13a4.51 4.51 0 00.81 2 6.76 6.76 0 001.59 1.45 14.47 14.47 0 003.93 1.82 31.55 31.55 0 0017.28 0 14.46 14.46 0 003.93-1.82 6.76 6.76 0 001.59-1.45 4.52 4.52 0 00.81-2 4.11 4.11 0 01-.52 2.2 7.24 7.24 0 01-1.49 1.76 13.44 13.44 0 01-4 2.27 23.55 23.55 0 01-4.42 1.18 28.63 28.63 0 01-9.1 0 23.52 23.52 0 01-4.42-1.18 13.43 13.43 0 01-4-2.27 7.24 7.24 0 01-1.49-1.76 4.11 4.11 0 01-.5-2.2z"/><path class="cls-20" d="M660.69 900.35c1.1 3.79-4.44 8.72-12.38 11S633 912.46 632 908.68l-.86-2.95 28.74-8.36z"/><ellipse class="cls-21" cx="645.44" cy="901.83" rx="14.96" ry="7.14" transform="rotate(-16.21 645.433 901.814)"/><path class="cls-18" d="M631 905.34a4.51 4.51 0 001.34 1.71 6.76 6.76 0 001.93 1 14.47 14.47 0 004.28.65 31.55 31.55 0 0016.59-4.83 14.47 14.47 0 003.26-2.87 6.76 6.76 0 001.12-1.84 4.51 4.51 0 00.21-2.16 4.11 4.11 0 01.11 2.26 7.24 7.24 0 01-.94 2.11 13.44 13.44 0 01-3.19 3.29 23.55 23.55 0 01-3.91 2.37 28.64 28.64 0 01-8.74 2.54 23.52 23.52 0 01-4.57.1 13.43 13.43 0 01-4.46-1.07 7.24 7.24 0 01-1.92-1.28 4.11 4.11 0 01-1.11-1.98z"/><path class="cls-22" d="M658.82 892.94a7 7 0 01.66 2 10.5 10.5 0 01.19 2 10.34 10.34 0 01-.19 2 7 7 0 01-.66 2 7 7 0 01-.67-2 10.36 10.36 0 01-.19-2 10.5 10.5 0 01.19-2 7 7 0 01.67-2z"/><path class="cls-22" d="M661.59 896.56a3.86 3.86 0 01-1.38.66 5 5 0 01-1.38.19 4.92 4.92 0 01-1.38-.19.85.85 0 110-1.33 4.92 4.92 0 011.38-.19 5 5 0 011.38.19 3.86 3.86 0 011.38.67z"/><path class="cls-20" d="M618.63 850.39c0 3.94-6.7 7.14-15 7.14s-15-3.2-15-7.14v-3.07h29.93z"/><ellipse class="cls-21" cx="603.67" cy="847.48" rx="14.96" ry="7.14"/><path class="cls-18" d="M588.7 846.88a4.51 4.51 0 00.81 2 6.76 6.76 0 001.59 1.45 14.47 14.47 0 003.93 1.82 31.55 31.55 0 0017.28 0 14.47 14.47 0 003.93-1.82 6.76 6.76 0 001.59-1.45 4.51 4.51 0 00.81-2 4.11 4.11 0 01-.52 2.2 7.24 7.24 0 01-1.49 1.76 13.44 13.44 0 01-4 2.27 23.55 23.55 0 01-4.42 1.18 28.64 28.64 0 01-9.1 0 23.51 23.51 0 01-4.42-1.18 13.42 13.42 0 01-4-2.27 7.23 7.23 0 01-1.49-1.76 4.11 4.11 0 01-.5-2.2z"/><path class="cls-22" d="M593.63 847.48a7 7 0 01.66 2 10.5 10.5 0 01.19 2 10.34 10.34 0 01-.19 2 7 7 0 01-.66 2 7 7 0 01-.67-2 10.36 10.36 0 01-.19-2 10.48 10.48 0 01.19-2 7 7 0 01.67-2z"/><path class="cls-22" d="M596.4 851.1a3.86 3.86 0 01-1.38.66 5 5 0 01-1.38.19 4.92 4.92 0 01-1.38-.19.85.85 0 110-1.33 4.92 4.92 0 011.38-.19 5 5 0 011.38.19 3.86 3.86 0 011.38.67z"/><path class="cls-23" d="M779.27 783.75V683.53a297.32 297.32 0 00-95.79-17s4.6 35.39-12.69 83c-.01-.03 66.3 3.78 108.48 34.22z"/><path class="cls-24" d="M779.27 698.93a313.44 313.44 0 00-80.77-17.69c.83.12 4.21 1.14 10.43 9.51 0 0 37 3.81 70.34 17.31zm0 60.65c-24.3-5-72.38-29-72.38-29-6.82 6.69-13.26 7.32-16 7.23 39.3 3.5 74.77 22.85 88.39 31.15z"/><path class="cls-25" d="M688.45 739.23c5.79-1.15 11.77-2.69 16.3-6.56 4.9-4.2 7.45-10.65 8.42-17a39.63 39.63 0 00-2-20.29 31.25 31.25 0 00-12.75-15.45s-2.42 32.47-9.97 59.3z"/><path class="cls-26" d="M693.7 738a34.45 34.45 0 007.89-3.62 20.68 20.68 0 006-5.92 27.79 27.79 0 003.54-7.72 38.85 38.85 0 001.51-8.42 39.94 39.94 0 00-2.21-16.88 33.64 33.64 0 00-9.79-14 30.11 30.11 0 0111 13.56 38 38 0 012.67 17.5c-.48 5.89-2.08 11.9-5.67 16.77a20.4 20.4 0 01-6.71 5.87 30.66 30.66 0 01-8.23 2.86z"/><path class="cls-27" d="M779.27 784.75v-15.83c-14-8.53-50.85-28.76-89.78-31.29 7.56-24.63 8.79-56.41 8.79-56.41 32.75 2.08 62.24 10.86 81 17.75v-15.44a297.32 297.32 0 00-95.79-17s4.6 35.39-12.69 83c-.02-.03 60.87 2.47 108.47 35.22z"/><path class="cls-27" d="M747.58 674.23s11.9 2.59 14.19 3.93a80.44 80.44 0 016.17-20.91 3.38 3.38 0 00.41-1.45 2.67 2.67 0 00-1.12-1.9c-2.22-1.9-2.68-1.84-5.3-2.37a5.7 5.7 0 00-3.33.12c-1.48.61-2.62 2.15-3.62 3.7a58.93 58.93 0 00-7.4 18.88zm7.1-1.79a1.46 1.46 0 01-.24-.9 9.15 9.15 0 01.44-2.5 74.67 74.67 0 013.36-9.47 15.53 15.53 0 012.34-4.08c.67-.77 2.19-1.47 2.74-.13.37.91-.72 2-1.14 2.71a40.37 40.37 0 00-3.45 8.08c-.53 1.58-1 3.17-1.56 4.76a3.34 3.34 0 01-.87 1.56 1.17 1.17 0 01-1.62-.03z"/><path class="cls-20" d="M779.27 783.35c-44.07-29.89-107.37-33.6-107.37-33.6-43.45 3.23-87.76 23.61-87.76 23.61 82.22-1.7 121 24.28 121 24.28 37.65-8.83 61.36-8.79 74.14-7.42zm-30.84-4.11a314.3 314.3 0 00-41.49 6.63c-8.67-4.72-41.42-18.34-76.36-21.43 0 0 22.51-6 41.89-7.59 0 0 48.45 5.27 82.26 22z"/><path class="cls-25" d="M714 756.68c-2.84-.34-5.64-.8-8.43-1.27l-8.36-1.41c-2.78-.51-5.57-1-8.35-1.55s-5.57-1.09-8.34-1.76a76.34 76.34 0 018.54.45c2.83.28 5.65.7 8.45 1.19s5.59 1.1 8.34 1.83a75.79 75.79 0 018.15 2.52z"/><path class="cls-28" d="M761.51 782.63c-33.81-16.73-89-25.77-89-25.77-19.38 1.55-52.62 10.7-52.62 10.7 34.93 3.09 80.36 16.68 89 21.4a295.88 295.88 0 0140.82-5.82z"/><g clip-path="url(#clip-path)"><path class="cls-20" d="M715.7 765.35c-.16 2.33-7 3.75-15.22 3.17s-14.8-2.93-14.63-5.26l.2-2.92 29.86 2.09z"/><ellipse class="cls-21" cx="701.01" cy="761.41" rx="4.23" ry="14.96" transform="rotate(-86 701.008 761.413)"/><path class="cls-18" d="M686.07 760a5.43 5.43 0 002.44 2.69 13.57 13.57 0 003.42 1.33 36.4 36.4 0 007.38 1 71.9 71.9 0 007.51-.08c1.25-.09 2.5-.19 3.75-.35a21.57 21.57 0 003.71-.71 23.38 23.38 0 01-7.36 2 43.67 43.67 0 01-7.66.37 28.09 28.09 0 01-7.61-1.28 12.19 12.19 0 01-3.49-1.77 5.31 5.31 0 01-2.09-3.2z"/><path class="cls-20" d="M754.07 774c-1.48 3.65-8.89 4.11-16.55 1s-12.68-8.57-11.2-12.23l1.15-2.85 27.75 11.22z"/><ellipse class="cls-21" cx="741.32" cy="765.74" rx="7.14" ry="14.96" transform="rotate(-67.98 741.322 765.747)"/><path class="cls-20" d="M684.48 758.89c-.34 3.93-7.29 6.53-15.52 5.82s-14.63-4.47-14.29-8.4l.26-3.06 29.82 2.58z"/><ellipse class="cls-21" cx="669.83" cy="754.71" rx="7.14" ry="14.96" transform="rotate(-85.05 669.83 754.708)"/><path class="cls-18" d="M655 752.81a4.51 4.51 0 00.63 2.08 6.76 6.76 0 001.46 1.59 14.48 14.48 0 003.76 2.16 31.55 31.55 0 0017.15 1.48 14.47 14.47 0 004.07-1.48 6.76 6.76 0 001.71-1.31 4.51 4.51 0 001-1.94 4.11 4.11 0 01-.71 2.15 7.25 7.25 0 01-1.64 1.63 13.44 13.44 0 01-4.17 1.92 23.55 23.55 0 01-4.5.79 28.64 28.64 0 01-9.06-.79 23.52 23.52 0 01-4.3-1.56 13.43 13.43 0 01-3.77-2.61 7.24 7.24 0 01-1.33-1.92 4.12 4.12 0 01-.3-2.19z"/><path class="cls-20" d="M675.54 781.21c-.34 3.93-7.29 6.53-15.52 5.82s-14.63-4.47-14.29-8.4l.26-3.06 29.82 2.58z"/><ellipse class="cls-21" cx="660.87" cy="777.02" rx="7.14" ry="14.96" transform="rotate(-85.05 660.874 777.017)"/><path class="cls-18" d="M646 775.14a4.51 4.51 0 00.63 2.08 6.76 6.76 0 001.46 1.59 14.47 14.47 0 003.76 2.16 31.55 31.55 0 0017.22 1.49 14.47 14.47 0 004.07-1.48 6.76 6.76 0 001.71-1.31 4.52 4.52 0 001-1.94 4.11 4.11 0 01-.71 2.15 7.24 7.24 0 01-1.64 1.63 13.43 13.43 0 01-4.17 1.92 23.55 23.55 0 01-4.5.79 28.63 28.63 0 01-9.06-.79 23.51 23.51 0 01-4.3-1.56 13.42 13.42 0 01-3.77-2.61 7.24 7.24 0 01-1.33-1.88 4.11 4.11 0 01-.37-2.24z"/><path class="cls-20" d="M754.32 781.75c-.33 2.31-7.23 3.25-15.41 2.09s-14.55-4-14.22-6.28l.41-2.9 29.63 4.2z"/><ellipse class="cls-21" cx="739.93" cy="776.8" rx="4.23" ry="14.96" transform="rotate(-81.94 739.928 776.796)"/><circle class="cls-21" cx="719.23" cy="765.88" r="13.33" transform="rotate(-74.3 719.224 765.875)"/><path class="cls-18" d="M714.28 754a26.76 26.76 0 00-4.33 3.81 27.43 27.43 0 00-3.31 4.72 9.34 9.34 0 017.64-8.53z"/><circle class="cls-21" cx="644.94" cy="760.08" r="13.33"/><path class="cls-18" d="M654.66 769a13.17 13.17 0 002.34-11.63 12.69 12.69 0 00-19.2-7.28 13.3 13.3 0 00-5.8 10.27 13 13 0 011.21-6.17 13.58 13.58 0 014.11-4.91 13.22 13.22 0 016-2.4 13.39 13.39 0 016.46.75 13.24 13.24 0 018.08 15.9 12.69 12.69 0 01-3.2 5.47z"/><path class="cls-22" d="M648.37 745.45a7 7 0 01.66 2 10.5 10.5 0 01.19 2 10.36 10.36 0 01-.19 2 7 7 0 01-.67 2 7 7 0 01-.66-2 10.34 10.34 0 01-.19-2 10.5 10.5 0 01.19-2 7 7 0 01.67-2z"/><path class="cls-22" d="M651.14 749.07a3.86 3.86 0 01-1.38.66 5 5 0 01-1.38.19 4.92 4.92 0 01-1.38-.17.85.85 0 110-1.33 4.92 4.92 0 011.38-.19 5 5 0 011.38.19 3.86 3.86 0 011.38.65z"/><path class="cls-20" d="M728.37 779.58c0 3.94-6.7 7.14-15 7.14s-15-3.2-15-7.14v-3.07h29.93z"/><ellipse class="cls-21" cx="713.41" cy="776.67" rx="14.96" ry="7.14"/><path class="cls-18" d="M698.45 776.07a6 6 0 002.43 3.45 13.94 13.94 0 003.85 1.82 37.21 37.21 0 004.26 1.07c1.45.29 2.92.53 4.42.8a18.93 18.93 0 01-4.55.19 19.3 19.3 0 01-4.52-.84 11 11 0 01-4.1-2.27 5.12 5.12 0 01-1.79-4.22z"/><path class="cls-20" d="M713.41 769.53c-1.8.34-3.55.55-5.3.88s-3.45.73-5.22 1.18a12.87 12.87 0 015.07-2 15.24 15.24 0 015.45-.06z"/><path class="cls-20" d="M708.33 773.29c1.1 3.79-4.44 8.72-12.38 11s-15.26 1.11-16.36-2.67l-.86-3 28.74-8.36z"/><ellipse class="cls-21" cx="693.09" cy="774.76" rx="14.96" ry="7.14" transform="rotate(-16.21 693.08 774.769)"/><path class="cls-18" d="M678.61 778.28A4.51 4.51 0 00680 780a6.76 6.76 0 001.93 1 14.47 14.47 0 004.28.65 31.55 31.55 0 0016.6-4.89 14.46 14.46 0 003.19-2.86 6.76 6.76 0 001.12-1.84 4.52 4.52 0 00.21-2.16 4.11 4.11 0 01.11 2.26 7.25 7.25 0 01-.94 2.11 13.44 13.44 0 01-3.19 3.29 23.54 23.54 0 01-3.91 2.37 28.63 28.63 0 01-8.74 2.54 23.51 23.51 0 01-4.57.1 13.43 13.43 0 01-4.46-1.07 7.24 7.24 0 01-1.92-1.28 4.12 4.12 0 01-1.1-1.94z"/><path class="cls-20" d="M696.35 759.38c2.24 3.25-1.46 9.68-8.27 14.37s-14.13 5.86-16.37 2.62l-1.71-2.53 24.64-17z"/><ellipse class="cls-21" cx="682.37" cy="765.53" rx="14.96" ry="7.14" transform="rotate(-34.58 682.376 765.532)"/><path class="cls-18" d="M669.72 773.48a4.51 4.51 0 001.81 1.2 6.76 6.76 0 002.14.29 14.47 14.47 0 004.27-.73 31.55 31.55 0 0014.23-9.81 14.47 14.47 0 002.2-3.73 6.76 6.76 0 00.49-2.1 4.51 4.51 0 00-.48-2.12 4.11 4.11 0 01.82 2.11 7.24 7.24 0 01-.23 2.3 13.44 13.44 0 01-2 4.13 23.55 23.55 0 01-3 3.48 28.64 28.64 0 01-7.49 5.16 23.5 23.5 0 01-4.31 1.54 13.43 13.43 0 01-4.57.39 7.24 7.24 0 01-2.23-.6 4.11 4.11 0 01-1.65-1.51z"/><path class="cls-20" d="M679.23 766.57c.12 2.33-6.46 4.58-14.72 5s-15-1.09-15.17-3.42l-.16-2.92 29.89-1.6z"/><ellipse class="cls-21" cx="664.08" cy="764.49" rx="14.96" ry="4.23" transform="rotate(-3.06 664.086 764.436)"/><path class="cls-18" d="M649.16 764.88a2.23 2.23 0 001.3 1.4 8.79 8.79 0 001.87.65 26.18 26.18 0 003.94.63 61.16 61.16 0 0016-.86 26.14 26.14 0 003.85-1 8.79 8.79 0 001.79-.85 2.23 2.23 0 001.14-1.53 2.22 2.22 0 01-.93 1.8 9.25 9.25 0 01-1.74 1.15 20.75 20.75 0 01-3.88 1.45 41.05 41.05 0 01-16.35.87 20.72 20.72 0 01-4-1 9.24 9.24 0 01-1.85-1 2.22 2.22 0 01-1.14-1.71z"/><path class="cls-22" d="M678.25 759.23a7 7 0 01.66 2 10.5 10.5 0 01.19 2 10.34 10.34 0 01-.19 2 7 7 0 01-.66 2 7 7 0 01-.67-2 10.36 10.36 0 01-.19-2 10.5 10.5 0 01.19-2 7 7 0 01.67-2z"/><path class="cls-22" d="M681 762.85a3.86 3.86 0 01-1.38.66 5 5 0 01-1.38.19 4.92 4.92 0 01-1.38-.19.85.85 0 110-1.33 4.92 4.92 0 011.38-.19 5 5 0 011.38.19 3.86 3.86 0 011.38.67zm24.13 2.06a7 7 0 01.66 2 10.48 10.48 0 01.19 2 10.32 10.32 0 01-.19 2 7 7 0 01-.66 2 7 7 0 01-.67-2 10.32 10.32 0 01-.19-2 10.46 10.46 0 01.19-2 7 7 0 01.67-2z"/><path class="cls-22" d="M707.9 768.53a3.86 3.86 0 01-1.38.66 5 5 0 01-1.38.19 4.92 4.92 0 01-1.38-.19.85.85 0 110-1.33 4.92 4.92 0 011.38-.19 5 5 0 011.38.19 3.86 3.86 0 011.38.67z"/><path class="cls-20" d="M735.27 777.16c1 2.09-4.14 6.75-11.56 10.4s-14.26 4.91-15.29 2.82l-1.29-2.63L734 774.53z"/><ellipse class="cls-21" cx="720.56" cy="781.12" rx="14.96" ry="4.23" transform="rotate(-26.22 720.558 781.117)"/><path class="cls-18" d="M707 787.42a6.53 6.53 0 001.72.4 11.59 11.59 0 001.66 0 21.63 21.63 0 013.62-.07 5.84 5.84 0 01-1.68.93 6.44 6.44 0 01-1.89.4 4.62 4.62 0 01-2-.32 2.64 2.64 0 01-1.43-1.34z"/><path class="cls-20" d="M714 780c-1.37 1.25-2.87 2.27-4.18 3.46a11.92 11.92 0 00-1.78 1.91 4.7 4.7 0 00-.93 2.43 3.6 3.6 0 01.36-2.77 8.07 8.07 0 011.79-2.2A16.2 16.2 0 01714 780zm-79.08-28.18c2.17.87 1.44 7.79-1.63 15.46s-7.31 13.19-9.48 12.33l-2.72-1.09 11.11-27.77z"/><ellipse class="cls-21" cx="626.63" cy="764.56" rx="14.96" ry="4.23" transform="rotate(-68.3 625.451 763.381)"/><path class="cls-18" d="M620.75 778.39a2.23 2.23 0 001.81-.59 8.79 8.79 0 001.38-1.42 26.19 26.19 0 002.23-3.31 61.17 61.17 0 005.94-14.87 26.15 26.15 0 00.67-3.94 8.79 8.79 0 000-2 2.23 2.23 0 00-.91-1.68 2.22 2.22 0 011.24 1.6 9.25 9.25 0 01.31 2.06 20.74 20.74 0 01-.31 4.13 41 41 0 01-6.08 15.2 20.71 20.71 0 01-2.63 3.18 9.24 9.24 0 01-1.65 1.28 2.22 2.22 0 01-2 .36z"/><path class="cls-20" d="M632.2 750.75a2.23 2.23 0 00-1.85.54 8.85 8.85 0 00-1.42 1.4 23.07 23.07 0 00-2.3 3.29 56.82 56.82 0 00-6 14.93 23 23 0 00-.6 4 8.82 8.82 0 00.07 2 2.23 2.23 0 001 1.67 2.22 2.22 0 01-1.18-1.61 9.15 9.15 0 01-.26-2 23 23 0 01.34-4.17 43.06 43.06 0 016.06-15.15 22.94 22.94 0 012.55-3.23 9.14 9.14 0 011.6-1.3 2.22 2.22 0 011.99-.37z"/></g><path class="cls-25" d="M713.7 787.91a99.44 99.44 0 01-18.32-3.45c-6-1.65-11.88-3.7-17.75-5.76s-11.73-4.08-17.7-5.76a97.11 97.11 0 00-18.23-3.42 33 33 0 01-5.53-.61c-1.82-.34-3.62-.73-5.42-1.08a37.54 37.54 0 00-5.45-.73 19.92 19.92 0 00-5.48.46 20 20 0 015.48-.65 37.81 37.81 0 015.51.54c3.64.59 7.24 1.48 10.89 1.45a90.29 90.29 0 0118.4 3.26c6 1.63 11.89 3.71 17.74 5.8s11.7 4.19 17.64 6a111 111 0 0018.22 3.95z"/><path class="cls-22" d="M673.09 744.6a7 7 0 01.66 2 10.46 10.46 0 01.19 2 10.32 10.32 0 01-.19 2 7 7 0 01-.67 2 7 7 0 01-.66-2 10.32 10.32 0 01-.19-2 10.46 10.46 0 01.19-2 7 7 0 01.67-2z"/><path class="cls-22" d="M675.86 748.22a3.86 3.86 0 01-1.38.66 5 5 0 01-1.38.19 4.92 4.92 0 01-1.38-.19.85.85 0 110-1.33 4.92 4.92 0 011.38-.19 5 5 0 011.38.19 3.86 3.86 0 011.38.67z"/><path class="cls-30" d="M713 885a8.92 8.92 0 002.22.88 7.56 7.56 0 01-6.28-.27 1.68 1.68 0 002-.5 3.75 3.75 0 00.63-1.62A6.3 6.3 0 00713 885z"/><path class="cls-31" d="M779.27 790c-29.92-3.46-74.14 7.6-74.14 7.6l6.49 85.24a3.17 3.17 0 004.26 2.72c27.43-10.09 49-10.2 56.82-9.81a3.61 3.61 0 003.73-3l2.84-15.45z"/><path class="cls-17" d="M766.68 864.31c-.5-.64-1.2-1.66-1.7-2.3 2.85-17.93 5.36-36.28 7.51-54.31l2.45-2.19s-6.1 52.49-8.26 58.8z"/><path class="cls-20" d="M720.89 810.57a148.62 148.62 0 0118.27-3.64 152.22 152.22 0 0133 0l2.45-2.19S752 800 720.53 808.29z"/><path class="cls-17" d="M762.49 803.59a7.38 7.38 0 012.54 0v.07a7.76 7.76 0 00.74 2.77l-2.61-.14c.11-.54-.28-1.1-.41-1.63a4.68 4.68 0 01-.11-.87v-.07s-.14-.11-.15-.13zm4.19 60.72a90.11 90.11 0 00-41.13 5.33l-.55-2.89s21.42-7.53 42-4.9z"/><path class="cls-27" d="M779.27 790c-24.64-2.85-59 4.14-70.33 6.7a4.52 4.52 0 00-3.52 4.76l6.19 81.24a3.27 3.27 0 004.39 2.81c26.25-9.63 47.14-10.13 55.67-9.81a4.86 4.86 0 005-4l2.64-14.37zm-5.1 17.62L768.46 853a62.59 62.59 0 01-2 11c-13.69-1.72-27.83.5-40.86 5-1.84-7.42-2.34-15.1-2.82-22.74-.8-12.51-1.41-25-2.21-37.55a137.65 137.65 0 0154.08-3.55c-.07.69-.34 1.83-.43 2.51z"/><path class="cls-32" d="M751.77 876.75c1.49-.11 3-.31 3-.31a33.79 33.79 0 012.89-13 33.89 33.89 0 00-3.82.07s-2.21 4.89-2.07 13.24zm27.5-29.88a25.1 25.1 0 00-10.1 1.18l-.47 2.95a21.35 21.35 0 0110.57-2.19z"/><path class="cls-20" d="M779.27 848.75a21.11 21.11 0 00-18.27 8.73 32.77 32.77 0 00-6.31 18.91l3.22-.27s-.32-8.2 6.39-18c0 0 4.08-6.74 14.93-7.1z"/><path class="cls-17" d="M755.74 868.93a35.07 35.07 0 00-1 7.48l3.22-.27a24.13 24.13 0 011-6.71 1.89 1.89 0 00-1-.63 4.53 4.53 0 00-2.22.13z"/><path class="cls-27" d="M779.27 850a20.22 20.22 0 00-18.66 11.45 35.78 35.78 0 00-3.89 14.84 119.47 119.47 0 0115.63-.44 4.09 4.09 0 004.14-3.34l2.77-14.93z"/><path class="cls-33" d="M773.27 864.92a4 4 0 01-.78 2.94 3.78 3.78 0 01-1.45 1.06 4.42 4.42 0 01-3.85-.18 4 4 0 01-2-3.25 3.67 3.67 0 011.84-3.31c2.66-1.43 5.89-.68 6.24 2.74z"/><path class="cls-18" d="M756.72 876.32a35.78 35.78 0 013.89-14.84 21.78 21.78 0 0111.18-10.19c-4.62 2-8.17 6.09-10.53 10.53a49.89 49.89 0 00-4.54 14.5z"/><path class="cls-27" d="M736.17 879.65a21.73 21.73 0 00-7.52-17.93c-5.14-4.34-10.71-6.25-19.19-5.81l2 26.46a3.71 3.71 0 004.85 3.24c5.83-1.92 15.69-5.09 19.86-5.96z"/><path class="cls-18" d="M709.45 855.91c8.48-.44 14 1.47 19.19 5.81a21 21 0 014.3 5 25.81 25.81 0 00-10.39-8 25.35 25.35 0 00-12.89-1.65 4.71 4.71 0 00-.16-1.09c.1.08-.15-.15-.05-.07z"/><path class="cls-33" d="M725.22 870.94a4 4 0 01-.78 2.94 3.78 3.78 0 01-1.45 1.06 4.42 4.42 0 01-3.85-.18 4 4 0 01-2-3.25 3.67 3.67 0 011.86-3.31c2.65-1.45 5.87-.68 6.22 2.74z"/><path class="cls-32" d="M736.17 879.65a24.24 24.24 0 00-3.23-12.93l2.35-.48a25.57 25.57 0 012.57 12.91zm-26.72-23.74a28.49 28.49 0 0114.25 2.49l-.4-3.74a31.14 31.14 0 00-14-2z"/><path class="cls-27" d="M779.27 790a70.21 70.21 0 00-13.06-.4c-.83 7.1-.18 14.54 3 20.93a20.67 20.67 0 0010 9.47z"/><path class="cls-32" d="M779.27 821.55a21.23 21.23 0 01-6.38-3.67l-.4 3.2a19.88 19.88 0 006.78 3.39z"/><path class="cls-20" d="M779.27 819.9a21.68 21.68 0 01-10-9.32s-4.35-7.41-3.13-21.2h-2.61a35.08 35.08 0 004.22 22.54 22.82 22.82 0 0011.55 9.6z"/><path class="cls-18" d="M766.1 789.37c-.83 7.1-.08 14.82 3.13 21.2a41.4 41.4 0 01-1.64-20.6.59.59 0 000-.29c-.09-.24-.42-.26-.66-.19a1.46 1.46 0 01-.83-.12z"/><path class="cls-33" d="M779.27 799.55a5.37 5.37 0 00-3 .68 3.67 3.67 0 00-1.84 3.31 4 4 0 002 3.25 4.34 4.34 0 002.78.47z"/><path class="cls-27" d="M707.24 828.5c6.28-.84 12.61-2.84 17.34-7.06a25.84 25.84 0 007.7-13.59 38 38 0 000-15.76s-15.48 2.27-23.72 4.47a4.31 4.31 0 00-3.19 4.44c.42 7.56 1.53 25.39 1.87 27.5z"/><path class="cls-33" d="M721.93 808.12a4 4 0 01-.78 2.94 3.78 3.78 0 01-1.45 1.06 4.42 4.42 0 01-3.85-.18 4 4 0 01-2-3.25 3.67 3.67 0 011.84-3.31c2.67-1.45 5.89-.69 6.24 2.74z"/><path class="cls-32" d="M707.79 828.42a36.76 36.76 0 0013.63-4.61l.32 3.65s-7.24 3.94-14 3.94zm24.45-36.32s1.82 8.5.4 13.92l3.13-.51s1.74-7.66-.71-13.83z"/><path class="cls-23" d="M587.07 773.27a2.07 2.07 0 00-1.88 2.81c13.77 36.07 23.41 74.94 26 85.67a3.77 3.77 0 003.6 2.9c45 .67 83.38 16.58 94.17 21.13a2 2 0 002.77-2l-6.56-86.14C661.64 773.28 601 773 587.07 773.27z"/><path class="cls-25" d="M693.49 866.46s-32.9-12.3-62.18-12.44l1 1.82 59.92 13zM620.53 844c-3.44-19.34-12.41-45-12.41-45l1.08-1.71s8.94 23.89 13.29 47.78zm59.94-40.79s-32.55-12.65-68.37-12.91l-.43 1.38s34.73.59 69.06 13z"/><path class="cls-25" d="M693.3 827.61q-4.82-1.68-9.68-3.17c-3.25-1-6.5-2-9.77-2.86-6.54-1.81-13.12-3.46-19.76-4.82-3.3-.76-6.64-1.36-10-2l-5-.82q-2.51-.42-5-.76l-5-.71-5.06-.54-2.53-.29-2.54-.2q-2.54-.19-5.08-.42a172.51 172.51 0 0120.37 1.18c6.77.76 13.49 1.92 20.15 3.31s13.26 3.11 19.76 5.13c3.25 1 6.48 2.08 9.69 3.21s6.35 2.37 9.45 3.76zm1.81 19.56c-3.07-1-6.13-1.9-9.22-2.75s-6.17-1.73-9.27-2.53c-6.2-1.59-12.43-3.08-18.71-4.31s-12.59-2.33-18.92-3.22l-4.76-.6c-1.59-.19-3.19-.3-4.78-.45-3.18-.4-6.39-.44-9.59-.71a149.79 149.79 0 0119.25.79q9.59 1 19.06 2.94c6.29 1.34 12.55 2.82 18.72 4.62a188 188 0 0118.22 6.22z"/><path class="cls-1" d="M652.4 779.32l2 27.19a6.46 6.46 0 01-.57 4c-1.28 2-4.31 1.93-6.39.81-4.76-2.56-6.34-8.56-7.08-13.92a125.43 125.43 0 01-1.17-19.77 118.48 118.48 0 0113.21 1.69z"/><path class="cls-20" d="M587.89 773.26a2.64 2.64 0 00-2.41 3.58c13.88 36.55 23.51 75.76 25.82 85.5a3.2 3.2 0 002.9 2.45c49.32 3.44 83.88 16.41 94.72 21a2 2 0 002.77-2l-6.56-86.14c-42.68-23.9-101.89-24.65-117.24-24.39zm16 16.85c29.83-.62 59.29 6.87 87.44 16.78q2.36 32 6.73 63.82A218.75 218.75 0 00647.65 857c-3.39-.51-6.79-1-10.2-1.24a91.81 91.81 0 00-15.17-.25 302.33 302.33 0 00-11.1-48.3 105.34 105.34 0 00-7.27-17.16z"/><path class="cls-18" d="M692.39 868.48c-4.88-1.63-9.8-3.09-14.76-4.43s-9.93-2.6-15-3.66c-2.5-.59-5-1.06-7.53-1.57s-5-.92-7.59-1.31l-3.8-.61-3.82-.51c-2.54-.4-5.1-.58-7.65-.92 5.14.24 10.27.65 15.37 1.39s10.17 1.63 15.21 2.7 10 2.38 15 3.86a149.11 149.11 0 0114.57 5.06zM620.53 844c-.87-3.54-1.73-7.07-2.63-10.6s-1.79-7-2.78-10.55-2-7-3-10.48c-.53-1.74-1.06-3.48-1.63-5.2s-1.15-3.45-1.7-5.19c1.48 3.33 2.78 6.74 4 10.19s2.21 7 3.2 10.46 1.83 7.06 2.59 10.62 1.42 7.1 1.95 10.75z"/><path class="cls-27" d="M655.26 779.7a201.85 201.85 0 001.61 32.92c-.8 0-2 0-2.78-.06a36.89 36.89 0 01-12-3 46.56 46.56 0 01-2.58-13.14c-.29-6.41-.51-13.29-.34-19.7a156.54 156.54 0 0116.09 2.98z"/><path class="cls-34" d="M656.87 812.62a191.16 191.16 0 01-1.61-32.92l2.7.79s-1.67 17 1.37 31c0 .16 0 .2-.19.28a4.9 4.9 0 01-2.27.85z"/><path class="cls-18" d="M656.59 812.62a57.43 57.43 0 01-1.27-6.54c-.32-2.2-.51-4.42-.68-6.63s-.2-4.44-.16-6.67c0-1.11.06-2.22.11-3.33s.16-2.22.28-3.32l.26 6.64c.09 2.21.19 4.42.35 6.62s.31 4.41.48 6.61.4 4.41.63 6.62z"/><path class="cls-20" d="M644.79 789.94a6.16 6.16 0 00.1 10.73c1.36.68 3.32.88 4 2.25a2 2 0 01-.64 2.63 4.63 4.63 0 01-3.27.84 8.87 8.87 0 01-6.25-3.7 13.89 13.89 0 01-2.45-7 12.35 12.35 0 01.2-4 9.34 9.34 0 017.59-6.84c1.29-.18 3.2-.12 3.93 1.19 1.14 2.15-1.71 3.15-3.21 3.9z"/><path class="cls-17" d="M648 786.07a1.77 1.77 0 01.31 1.44 2.65 2.65 0 01-.88 1.25 15.6 15.6 0 01-2.54 1.51 5.17 5.17 0 00-1.85 2 6.44 6.44 0 00-.84 2.59 6.2 6.2 0 002 4.92 7.26 7.26 0 002.46 1.35 3.77 3.77 0 012.27 1.82 3.82 3.82 0 00-2.41-1.42c-.47-.14-.94-.27-1.41-.45a5.14 5.14 0 01-1.34-.78 6.55 6.55 0 01-2.38-5.5 7.08 7.08 0 011-2.92 5.58 5.58 0 012.23-2.14 20.15 20.15 0 002.6-1.26 2.34 2.34 0 00.92-1 1.8 1.8 0 00-.14-1.41z"/><path class="cls-27" d="M644.94 806.38a7.76 7.76 0 01-3.61-1 9.9 9.9 0 01-2.88-2.48 13.87 13.87 0 01-2.63-7.09A13.17 13.17 0 01636 792a8.59 8.59 0 011.6-3.5 9.15 9.15 0 016.45-3.61 9.29 9.29 0 00-3.36 1.46 9.53 9.53 0 00-2.56 2.53 8.9 8.9 0 00-1.37 3.27 12.48 12.48 0 00-.07 3.59 13.81 13.81 0 002.3 6.78 9.14 9.14 0 005.95 3.86zM613 773.84s2.4 9.15-2.66 21.27c-4 9.57-14.28 12.46-14.28 12.46l.5 1.59s22.77-4.48 19.8-35.06z"/><path class="cls-20" d="M596.6 807.38a20 20 0 0012.18-9.22 29.69 29.69 0 004.61-13.35c.34-2.85.58-8.25-.34-11a206 206 0 00-26-.46 2.17 2.17 0 00-1.94 2.88c2.5 7.18 9.28 26.35 11.49 31.15z"/><path class="cls-20" d="M603 786.06a4 4 0 01-.78 2.94 3.78 3.78 0 01-1.45 1.06 4.42 4.42 0 01-3.85-.18 4 4 0 01-2-3.25 3.67 3.67 0 011.84-3.31c2.69-1.45 5.92-.69 6.24 2.74z"/><path class="cls-17" d="M601.69 789.75a3.42 3.42 0 01-2.23 1.17 4.33 4.33 0 01-2.58-.45 4 4 0 01-1.79-1.94A3.39 3.39 0 01595 786a4.43 4.43 0 002.3 3.71 4.74 4.74 0 002.14.55 4.82 4.82 0 002.25-.51z"/><path class="cls-27" d="M596.37 783.63a4.68 4.68 0 012.74-1 3.65 3.65 0 012.89 1.12 3.92 3.92 0 01.79 1.37 5.27 5.27 0 01.22 1.52 3.58 3.58 0 01-1.13 2.69 4.49 4.49 0 00.46-2.66 4.16 4.16 0 00-1-2.34 3.39 3.39 0 00-2.24-1 6.89 6.89 0 00-2.73.3z"/><path class="cls-18" d="M608.78 798.16a29.69 29.69 0 004.61-13.35c.34-2.85.58-8.25-.34-11a5.07 5.07 0 00-1.65-.19c1.26 4 1.09 9.27.69 13.5a29.08 29.08 0 01-3.31 11.04z"/><path class="cls-17" d="M596.61 809.16a29.8 29.8 0 005.31-2.28 27.37 27.37 0 004.73-3.23 24.73 24.73 0 004-4.12 33.07 33.07 0 003.08-4.89 20.46 20.46 0 01-2.55 5.28 21 21 0 01-1.81 2.34c-.32.37-.7.7-1 1a11.64 11.64 0 01-1.1 1 21.89 21.89 0 01-5 3.17 19.26 19.26 0 01-5.66 1.73z"/><path class="cls-20" d="M709 855.85s-7.34 1.81-12 6.45l-.56-4.3s3.58-3.44 12.9-5.34zm-16.61 12.63a28.26 28.26 0 00-2.39 10.44l-2.27-.81a26.67 26.67 0 012.78-10.31z"/><path class="cls-20" d="M709.55 855.7c-7.68 1.81-15 6.79-17.75 14.17a37.49 37.49 0 00-1.76 8.71s12.85 4.23 19.1 7.09a1.75 1.75 0 002.47-1.72c-.54-7.46-1.87-25.78-2.06-28.25z"/><path class="cls-20" d="M704.9 872a4 4 0 01-.78 2.94 3.78 3.78 0 01-1.45 1.06 4.42 4.42 0 01-3.85-.18 4 4 0 01-2-3.25 3.67 3.67 0 011.84-3.31c2.67-1.42 5.89-.66 6.24 2.74z"/><path class="cls-17" d="M703.57 875.67a3.42 3.42 0 01-2.23 1.17 4.33 4.33 0 01-2.58-.45 4 4 0 01-1.79-1.94 3.39 3.39 0 01-.11-2.53 4.44 4.44 0 002.3 3.71 4.74 4.74 0 002.14.55 4.82 4.82 0 002.27-.51z"/><path class="cls-27" d="M698.25 869.6a4.67 4.67 0 012.74-1 3.65 3.65 0 012.85 1.13 3.92 3.92 0 01.79 1.37 5.28 5.28 0 01.22 1.52 3.58 3.58 0 01-1.13 2.69 4.49 4.49 0 00.46-2.66 4.16 4.16 0 00-1-2.34 3.4 3.4 0 00-2.24-1 6.89 6.89 0 00-2.69.29z"/><path class="cls-20" d="M709.55 855.7c-7.68 1.81-15 6.79-17.75 14.17a37.49 37.49 0 00-1.76 8.71"/><path class="cls-17" d="M709.55 855.7a34.2 34.2 0 00-7.4 3.22 25.67 25.67 0 00-6.21 5 20.19 20.19 0 00-4.09 6.78 51 51 0 00-1.82 7.88 34.27 34.27 0 011.2-8.08 19.72 19.72 0 014.08-7.15 24.47 24.47 0 016.52-5 26 26 0 017.72-2.65z"/><path class="cls-20" d="M634.9 866.75a25.87 25.87 0 00-26.19-25.55q-1.28 0-2.56.16l4.9 20.06a4.53 4.53 0 004 3.44c5.95.53 18.01 1.57 19.85 1.89z"/><path class="cls-20" d="M622.86 854.46a4 4 0 01-.78 2.94 3.78 3.78 0 01-1.45 1.06 4.42 4.42 0 01-3.85-.18 4 4 0 01-2-3.25 3.67 3.67 0 011.84-3.31c2.66-1.45 5.89-.72 6.24 2.74z"/><path class="cls-17" d="M621.53 858.11a3.42 3.42 0 01-2.23 1.17 4.33 4.33 0 01-2.58-.45 4 4 0 01-1.79-1.94 3.39 3.39 0 01-.11-2.53 4.44 4.44 0 002.3 3.71 4.74 4.74 0 002.14.55 4.82 4.82 0 002.27-.51z"/><path class="cls-27" d="M616.2 852a4.68 4.68 0 012.74-1 3.65 3.65 0 012.85 1.13 3.92 3.92 0 01.79 1.37 5.27 5.27 0 01.22 1.52 3.58 3.58 0 01-1.13 2.69 4.49 4.49 0 00.46-2.66 4.16 4.16 0 00-1-2.34 3.39 3.39 0 00-2.24-1 6.89 6.89 0 00-2.69.29z"/><path class="cls-27" d="M634.9 866.75l2.6.29s.53-12.46-12.14-22c0 0-6.46-6.05-19.79-5.15l.59 1.52s11.27-1.13 19.35 5.76a28.72 28.72 0 019.39 19.58z"/><path class="cls-18" d="M618.82 843.2a25.72 25.72 0 017.34 4.52 26.22 26.22 0 018.74 19 7.72 7.72 0 00-1.92-.19c-.43-4.7-1.49-9.66-3.86-13.74a24.17 24.17 0 00-10.3-9.59z"/><path class="cls-20" d="M707.24 828.5s-6.65.69-14.54-5l.28 3.29s5 4.69 14.8 4.58zm-27.17-41.91a64.08 64.08 0 00.49 17.17l-3.27-1.08a51.45 51.45 0 010-17.24z"/><path class="cls-20" d="M707.26 828.54c-6.52.05-12.83-3-17.53-7.5a31.68 31.68 0 01-9.39-18.74 67.33 67.33 0 01-.27-15.71s14.12 4.38 25 11z"/><path class="cls-20" d="M697.34 807.2a4 4 0 01-.78 2.94 3.78 3.78 0 01-1.45 1.06 4.42 4.42 0 01-3.85-.18 4 4 0 01-2-3.25 3.67 3.67 0 011.84-3.31c2.67-1.46 5.9-.71 6.24 2.74z"/><path class="cls-17" d="M696 810.84a3.42 3.42 0 01-2.23 1.17 4.33 4.33 0 01-2.58-.45 4 4 0 01-1.79-1.93 3.39 3.39 0 01-.11-2.53 4.44 4.44 0 002.3 3.71 4.74 4.74 0 002.14.55 4.82 4.82 0 002.27-.52z"/><path class="cls-27" d="M690.68 804.75a4.68 4.68 0 012.74-1 3.65 3.65 0 012.85 1.13 3.92 3.92 0 01.79 1.37 5.27 5.27 0 01.22 1.52 3.58 3.58 0 01-1.13 2.69 4.49 4.49 0 00.46-2.66 4.16 4.16 0 00-1-2.34 3.4 3.4 0 00-2.24-1 6.89 6.89 0 00-2.69.29z"/><path class="cls-17" d="M707.24 828.5a17.72 17.72 0 01-5.34-.3 21.78 21.78 0 01-5.12-1.68 21.37 21.37 0 01-4.56-2.86 21 21 0 01-3.7-3.87 39.86 39.86 0 004.1 3.34 28.28 28.28 0 004.52 2.62 30.73 30.73 0 0010.1 2.75z"/><path class="cls-18" d="M680 787.31v4.23c0 1.41.12 2.81.25 4.21a63.57 63.57 0 001.25 8.3 46.45 46.45 0 002.5 8 31.64 31.64 0 001.89 3.74 35.85 35.85 0 002.3 3.53 28.07 28.07 0 01-4.79-7 41.63 41.63 0 01-2.73-8.07 54.34 54.34 0 01-1.07-8.44 45.8 45.8 0 01.4-8.5z"/><path class="cls-17" d="M709.14 885.67c-3.86-1.28-7.72-2.56-11.62-3.72l-5.83-1.77-5.85-1.68c-7.82-2.17-15.68-4.21-23.59-6s-15.87-3.34-23.87-4.7l-6-.95c-2-.28-4-.5-6-.76l-3-.41-3-.3q-3-.28-6.07-.61a198.42 198.42 0 0124.36 1.73q12.12 1.58 24.06 4.33c7.94 1.84 15.83 3.92 23.59 6.4l5.8 1.91c1.92.67 3.86 1.31 5.77 2 3.71 1.46 7.52 2.86 11.25 4.53z"/><path class="cls-18" d="M714.18 795.39a34 34 0 01-8.12 1.48 10.33 10.33 0 01-2.08-.21 8 8 0 01-1-.29l-1-.39-3.84-1.52c-2.54-1-5.13-2-7.71-2.94s-5.19-1.81-7.79-2.71a290.66 290.66 0 00-31.83-8.65 317.26 317.26 0 00-32.57-5.24l-4.1-.44-4.11-.36c-2.74-.27-5.49-.41-8.23-.59s-5.5-.27-8.25-.42-5.5-.13-8.26-.2h8.26c2.75 0 5.51.06 8.26.21s5.51.24 8.25.47l4.12.3 4.12.39a300 300 0 0132.7 5 276.2 276.2 0 0131.86 8.87c2.59.94 5.21 1.8 7.77 2.83s5.15 2 7.68 3.07l3.8 1.62a10.84 10.84 0 001.9.71 10.11 10.11 0 002 .25 33.94 33.94 0 008.17-1.24z"/></g><g opacity=".09"><path class="cls-23" d="M566.72 606.06v99c42.18-30.46 108.49-34.31 108.49-34.31A215.86 215.86 0 01662.09 606z"/><path class="cls-24" d="M620 606.06a315.54 315.54 0 00-53.24 14.15v9.13C600.11 615.85 637.1 612 637.1 612a50.2 50.2 0 015.1-6zm-53.28 74.81c24.3-5 72.38-29 72.38-29 6.82 6.69 13.26 7.32 16 7.23-39.3 3.5-74.77 22.85-88.39 31.15z"/><path class="cls-25" d="M641.54 606.06a32.59 32.59 0 00-6.69 10.56 39.64 39.64 0 00-2 20.29c1 6.4 3.52 12.85 8.42 17 4.53 3.88 10.51 5.41 16.3 6.56-5.76-20.54-8.52-44.4-9.5-54.46z"/><path class="cls-27" d="M647.9 606.06c.56 9 2.56 33.18 8.6 52.86-38.93 2.53-75.81 22.76-89.78 31.29V706c47.61-32.66 108.49-35.24 108.49-35.24A215.86 215.86 0 01662.09 606zm-81.18 0v14.2a312.91 312.91 0 0152-14.2z"/><path class="cls-20" d="M682.59 701.55a7.79 7.79 0 01.07-1.28 11.21 11.21 0 01-.07-1.4c.08-.84.14-1.68.24-2.52v-.83a19.11 19.11 0 01.25-2.52 12.11 12.11 0 010-1.65c-21.19 5.32-38.17 12.6-44 15.8a314.35 314.35 0 00-41.49-6.63l-6.3-.39c33.81-16.73 82.26-22 82.26-22 3.64.29 7.38.76 11.07 1.3v-2a16.44 16.44 0 01-.31-5.27c-3.39-.45-6.79-.84-10.19-1.09 0 0-63.3 3.71-107.37 33.59v6.88c12.79-1.37 36.49-1.41 74.14 7.42 0 0 13.66-9.06 41.72-16.13z"/><path class="cls-25" d="M632 678a75.83 75.83 0 018.16-2.56c2.75-.73 5.54-1.31 8.34-1.83s5.62-.91 8.45-1.19a76.34 76.34 0 018.54-.45c-2.78.68-5.56 1.23-8.34 1.76s-5.57 1-8.35 1.55l-8.37 1.5c-2.85.4-5.64.85-8.43 1.22z"/><path class="cls-28" d="M682.81 695.52a19 19 0 01.25-2.51 11.77 11.77 0 01.37-3.38c.1-.86.21-1.72.39-2.55a20.35 20.35 0 01.36-2.26 15.16 15.16 0 01.2-2v-.45a14.42 14.42 0 01.23-2.47v-.32c-3.94-.64-7.72-1.15-11.07-1.42 0 0-55.24 9-89 25.78l11.83.51a295.89 295.89 0 0140.82 5.82c5.25-2.86 24-9 45.71-14a2.29 2.29 0 01-.09-.75z"/><g clip-path="url(#clip-path-2)"><path class="cls-20" d="M630.29 686.64c.16 2.33 7 3.75 15.22 3.17s14.8-2.93 14.63-5.26l-.2-2.92-29.85 2.12z"/><ellipse class="cls-21" cx="645.04" cy="682.65" rx="14.96" ry="4.23" transform="rotate(-4 645.059 682.68)"/><path class="cls-18" d="M659.92 681.27a5.31 5.31 0 01-2.09 3.21 12.19 12.19 0 01-3.49 1.77 28.09 28.09 0 01-7.61 1.28 43.66 43.66 0 01-7.66-.37 23.38 23.38 0 01-7.36-2 21.58 21.58 0 003.71.71c1.25.16 2.5.26 3.75.35a71.9 71.9 0 007.51.08 36.41 36.41 0 007.38-1 13.57 13.57 0 003.42-1.33 5.43 5.43 0 002.44-2.7z"/><path class="cls-20" d="M591.92 695.26c1.48 3.65 8.89 4.11 16.55 1s12.68-8.57 11.2-12.23l-1.15-2.85-27.75 11.22z"/><ellipse class="cls-21" cx="604.74" cy="686.89" rx="14.96" ry="7.14" transform="rotate(-22.02 604.736 686.884)"/><path class="cls-20" d="M684.38 682.81v-.45a14.45 14.45 0 01.23-2.45v-2.46a14.73 14.73 0 01-.36-2.32l-23 2 .26 3.06c.34 3.93 7.29 6.53 15.52 5.82a27.61 27.61 0 007.16-1.58 14.53 14.53 0 01.19-1.62z"/><path class="cls-21" d="M684.6 679.88v-2.43a17.8 17.8 0 01.1-7.85 26.49 26.49 0 00-9.14-.72c-8.23.71-14.63 4.47-14.29 8.4s7.29 6.53 15.52 5.82a27.16 27.16 0 007.64-1.77 14.41 14.41 0 01.17-1.45z"/><path class="cls-18" d="M683.62 681a31.39 31.39 0 01-6.15 2 28.57 28.57 0 01-6.48.68 13.69 13.69 0 01-6.43-1.53 6.84 6.84 0 01-2.45-2.31 6.53 6.53 0 01-.9-3.14 7.24 7.24 0 001.41 2.78 6.87 6.87 0 002.4 1.79 15.3 15.3 0 006 1.13 43.52 43.52 0 006.28-.38q3.15-.42 6.32-1.02z"/><path class="cls-20" d="M682.24 708a1.91 1.91 0 01.17-.49 25.43 25.43 0 01.24-2.8 11.72 11.72 0 01-.06-1.61v-1.56a6.44 6.44 0 010-1 12.17 12.17 0 010-1.65v-.51l-12.44 1.08.27 3.06c.28 3.29 5.22 5.64 11.65 5.9a4.11 4.11 0 00.17-.42z"/><path class="cls-21" d="M682.66 704.68a11 11 0 01-.07-1.56v-1.57a6.44 6.44 0 010-1 12.17 12.17 0 010-1.65c.08-.84.14-1.68.24-2.52v-.83a19.42 19.42 0 01.25-2.53 12.14 12.14 0 010-1.62c-7.55 1-13.23 4.53-12.9 8.23.29 3.4 5.56 5.79 12.32 5.91.06-.31.11-.54.16-.86z"/><path class="cls-18" d="M681.71 704.93a13.68 13.68 0 01-3.57.22 12.68 12.68 0 01-3.56-.72 7.8 7.8 0 01-3.12-2 4.9 4.9 0 01-1.3-3.4 7 7 0 002 2.69 10 10 0 002.87 1.55 58.79 58.79 0 006.68 1.66z"/><path class="cls-20" d="M591.68 703c.33 2.31 7.23 3.25 15.41 2.09s14.55-4 14.22-6.28l-.41-2.9-29.63 4.2z"/><ellipse class="cls-21" cx="606.11" cy="698.01" rx="14.96" ry="4.23" transform="rotate(-8.06 606.126 698.006)"/><circle class="cls-21" cx="626.82" cy="687.07" r="13.33" transform="rotate(-15.7 626.819 687.048)"/><path class="cls-18" d="M631.72 675.34a9.34 9.34 0 017.64 8.53 27.43 27.43 0 00-3.36-4.72 26.77 26.77 0 00-4.28-3.81z"/><path class="cls-20" d="M617.62 700.87c0 3.94 6.7 7.14 15 7.14s15-3.2 15-7.14v-3.12h-30z"/><ellipse class="cls-21" cx="632.58" cy="697.96" rx="14.96" ry="7.14"/><path class="cls-18" d="M647.55 697.36a5.12 5.12 0 01-1.79 4.21 11 11 0 01-4.1 2.27 19.3 19.3 0 01-4.52.84 18.93 18.93 0 01-4.55-.19c1.5-.27 3-.51 4.42-.8a37.18 37.18 0 004.26-1.07 13.94 13.94 0 003.85-1.82 6 6 0 002.43-3.44z"/><path class="cls-20" d="M632.58 690.82a15.24 15.24 0 015.45 0 12.87 12.87 0 015.07 2c-1.77-.44-3.48-.87-5.22-1.18s-3.5-.48-5.3-.82z"/><path class="cls-20" d="M637.66 694.58c-1.1 3.79 4.44 8.72 12.38 11s15.26 1.11 16.36-2.67l.86-3-28.74-8.36z"/><ellipse class="cls-21" cx="652.8" cy="695.87" rx="7.14" ry="14.96" transform="rotate(-73.79 652.8 695.87)"/><path class="cls-18" d="M667.38 699.57a4.11 4.11 0 01-1.12 2 7.24 7.24 0 01-1.92 1.28 13.43 13.43 0 01-4.46 1.07 23.51 23.51 0 01-4.57-.1 28.63 28.63 0 01-8.74-2.54 23.54 23.54 0 01-3.91-2.37 13.43 13.43 0 01-3.19-3.29 7.25 7.25 0 01-.94-2.11 4.11 4.11 0 01.11-2.26 4.52 4.52 0 00.21 2.16 6.76 6.76 0 001.12 1.84 14.47 14.47 0 003.26 2.85 31.55 31.55 0 0016.59 4.83 14.47 14.47 0 004.28-.65 6.76 6.76 0 001.93-1 4.51 4.51 0 001.35-1.71z"/><path class="cls-20" d="M649.64 680.67c-2.24 3.25 1.46 9.68 8.27 14.37s14.13 5.86 16.37 2.62l1.74-2.53-24.64-17z"/><ellipse class="cls-21" cx="663.61" cy="686.72" rx="7.14" ry="14.96" transform="rotate(-55.42 663.608 686.723)"/><path class="cls-18" d="M676.28 694.75a4.11 4.11 0 01-1.68 1.51 7.24 7.24 0 01-2.23.6 13.43 13.43 0 01-4.57-.39 23.5 23.5 0 01-4.31-1.54 28.64 28.64 0 01-7.49-5.18 23.55 23.55 0 01-3-3.48 13.44 13.44 0 01-2-4.13 7.24 7.24 0 01-.23-2.3 4.11 4.11 0 01.82-2.11 4.51 4.51 0 00-.48 2.12 6.76 6.76 0 00.49 2.1 14.47 14.47 0 002.2 3.73 31.55 31.55 0 0014.2 9.81 14.47 14.47 0 004.27.73 6.76 6.76 0 002.14-.29 4.51 4.51 0 001.87-1.18z"/><path class="cls-20" d="M683.43 689.63c.1-.87.21-1.72.39-2.55a7.41 7.41 0 01.16-1.23l-17-.91-.16 2.93c-.12 2.33 6.46 4.58 14.72 5h1.57a11.54 11.54 0 01.32-3.24z"/><path class="cls-21" d="M683.43 689.63c.1-.86.21-1.72.39-2.55a20.35 20.35 0 01.36-2.26 15.16 15.16 0 01.2-2v-1.1c-.76-.08-1.52-.15-2.32-.19-8.25-.44-15 1.09-15.17 3.42s6.46 4.58 14.72 5h1.7z"/><path class="cls-18" d="M682.6 689.75a25 25 0 01-4.42.6 19.28 19.28 0 01-4.5-.28 10.71 10.71 0 01-4.26-1.74 6 6 0 01-2.48-3.78 7.76 7.76 0 003 2.94 13.55 13.55 0 004 1.32c2.77.57 5.7.58 8.66.94z"/><path class="cls-22" d="M667.74 680.52a7 7 0 01.66 2 10.5 10.5 0 01.19 2 10.34 10.34 0 01-.19 2 7 7 0 01-.66 2 7 7 0 01-.66-2 10.34 10.34 0 01-.19-2 10.5 10.5 0 01.19-2 7 7 0 01.66-2z"/><path class="cls-22" d="M665 684.14a3.86 3.86 0 011.38-.66 5 5 0 011.38-.19 4.92 4.92 0 011.38.19.85.85 0 110 1.33 4.92 4.92 0 01-1.38.19 5 5 0 01-1.38-.19 3.86 3.86 0 01-1.38-.67zm-24.13 2.06a7 7 0 01.66 2 10.48 10.48 0 01.19 2 10.34 10.34 0 01-.19 2 7 7 0 01-.67 2 7 7 0 01-.66-2 10.34 10.34 0 01-.19-2 10.5 10.5 0 01.19-2 7 7 0 01.67-2z"/><path class="cls-22" d="M638.1 689.82a3.86 3.86 0 011.38-.66 5 5 0 011.38-.19 4.92 4.92 0 011.38.19.85.85 0 110 1.33 4.92 4.92 0 01-1.38.19 5 5 0 01-1.38-.19 3.86 3.86 0 01-1.38-.67z"/><path class="cls-20" d="M610.72 698.44c-1 2.09 4.14 6.75 11.56 10.4s14.26 4.91 15.29 2.82l1.29-2.63L612 695.82z"/><ellipse class="cls-21" cx="625.45" cy="702.46" rx="4.23" ry="14.96" transform="rotate(-63.78 625.45 702.454)"/><path class="cls-18" d="M639 708.75a2.64 2.64 0 01-1.46 1.35 4.62 4.62 0 01-2 .32 6.44 6.44 0 01-1.89-.4 5.84 5.84 0 01-1.68-.93 21.64 21.64 0 013.63 0 11.57 11.57 0 001.66 0 6.54 6.54 0 001.74-.34z"/><path class="cls-20" d="M632 701.24a16.2 16.2 0 014.75 2.82 8.07 8.07 0 011.79 2.2 3.6 3.6 0 01.36 2.77 4.7 4.7 0 00-.93-2.43 11.91 11.91 0 00-1.78-1.91c-1.35-1.18-2.85-2.19-4.19-3.45z"/></g><path class="cls-25" d="M632.3 709.2a113 113 0 0012.58-2.66q6.21-1.67 12.3-3.76c4.08-1.31 8.13-2.74 12.23-4s8.22-2.54 12.42-3.49c-4.1 1.29-8.16 2.68-12.21 4.11s-8.1 2.86-12.17 4.24-8.21 2.6-12.4 3.58a78.85 78.85 0 01-12.75 1.98z"/><path class="cls-31" d="M566.72 711.34v67.34l1.91 10.4a21.27 21.27 0 016.78-2c1.72-.22 3.45-.42 5.18-.61V786a16.89 16.89 0 014.41-10.78 11.6 11.6 0 012.6-2.09 13.72 13.72 0 015.52-2.3c1.33-.59 2.66-1.14 4-1.62a11.54 11.54 0 011.22-.49 11.21 11.21 0 011.31-.58 11.86 11.86 0 014.22-1.91c.17-.06.32-.14.5-.2a11.35 11.35 0 013-1.06l.29-.07a11.88 11.88 0 012.15-.76 10.24 10.24 0 011.17-.34l.76-.13a15.39 15.39 0 013.21-1.32l1.37-.18a11.55 11.55 0 012.52-.34h1.66l.26-.06c.28-.13.54-.3.83-.41a11.28 11.28 0 011.84-1.14 11.67 11.67 0 011.16-.86c1.68-1.3 3-2.45 5.33-2.78.37-.1.74-.15 1.11-.22a13.64 13.64 0 017.62-7.73l2.26-29.68s-44.26-11.07-74.19-7.61z"/><path class="cls-17" d="M580.9 782.63c-2.81-17.72-5.28-35.83-7.41-53.64L571 726.8s6.1 52.53 8.26 58.8c.4-.52.93-1.27 1.39-1.88.1-.37.16-.72.25-1.09z"/><path class="cls-20" d="M625.1 731.86a148.62 148.62 0 00-18.27-3.64 152.22 152.22 0 00-33 0l-2.45-2.22s22.64-4.69 54.08 3.55z"/><path class="cls-17" d="M583.51 724.88a7.38 7.38 0 00-2.54 0v.12a7.76 7.76 0 01-.74 2.77l2.61-.14c-.11-.54.28-1.1.41-1.63a4.68 4.68 0 00.11-.87V725s.13-.1.15-.12z"/><path class="cls-27" d="M637 718c-11.36-2.56-45.69-9.54-70.33-6.7v67.34l1.91 10.4a21.27 21.27 0 016.78-2c1.72-.22 3.45-.42 5.18-.61v-1.29l-1 .09a62.57 62.57 0 01-2-11l-5.71-45.33c-.09-.68-.36-1.82-.43-2.5a137.65 137.65 0 0154.08 3.6c-.64 10-1.17 20-1.76 30 .27-.21.54-.43.84-.62 1.68-1.3 3-2.45 5.33-2.78.37-.1.74-.15 1.11-.22a13.64 13.64 0 017.62-7.73l2-25.82A4.52 4.52 0 00637 718z"/><path class="cls-32" d="M566.72 768.16a25.1 25.1 0 0110.1 1.18l.47 2.92a21.35 21.35 0 00-10.57-2.19z"/><path class="cls-20" d="M581.94 779.89a11.27 11.27 0 011.5-2.88 21.12 21.12 0 00-16.72-7v2.27c10.84.36 14.93 7.1 14.93 7.1.11.2.2.37.29.51z"/><path class="cls-27" d="M580.55 786a22.5 22.5 0 011.92-7.35 20.23 20.23 0 00-8.28-6 21.92 21.92 0 00-7.47-1.26v7.56l1.89 10.2a21.26 21.26 0 016.8-2c1.72-.22 3.45-.42 5.18-.61-.01-.25-.03-.42-.04-.54z"/><path class="cls-33" d="M580.55 786v-.53a3.5 3.5 0 00-1.59-1.94c-2.68-1.46-5.9-.69-6.25 2.73a4.61 4.61 0 00.07 1.35 22.85 22.85 0 012.62-.5c1.72-.22 3.45-.41 5.18-.61 0-.21-.02-.38-.03-.5z"/><path class="cls-18" d="M582.47 778.6a20.22 20.22 0 00-8.28-6 20.58 20.58 0 018 6.62c.11-.22.19-.47.28-.62z"/><path class="cls-27" d="M566.72 711.34a70.21 70.21 0 0113.06-.4c.83 7.1.18 14.54-3 20.93a20.67 20.67 0 01-10 9.47z"/><path class="cls-32" d="M566.72 742.84a21.23 21.23 0 006.38-3.67l.4 3.2a19.88 19.88 0 01-6.78 3.39z"/><path class="cls-20" d="M566.72 741.19a21.68 21.68 0 0010-9.32s4.35-7.41 3.13-21.2h2.61a35.08 35.08 0 01-4.22 22.54 22.82 22.82 0 01-11.55 9.6z"/><path class="cls-18" d="M579.89 710.66c.83 7.1.08 14.82-3.13 21.2a41.4 41.4 0 001.64-20.6.59.59 0 010-.29c.09-.24.42-.26.66-.19a1.46 1.46 0 00.83-.12z"/><path class="cls-33" d="M566.72 720.84a5.37 5.37 0 013 .68 3.67 3.67 0 011.84 3.31 4 4 0 01-2 3.25 4.34 4.34 0 01-2.78.47z"/><path class="cls-27" d="M638.89 748.51c.44-4.71 1.36-19.5 1.77-26.21a4.31 4.31 0 00-3.19-4.44c-8.23-2.19-23.72-4.47-23.72-4.47a38 38 0 000 15.76 25.84 25.84 0 007.7 13.59c4.23 3.78 9.76 5.77 15.38 6.75a13.49 13.49 0 012.06-.98z"/><path class="cls-33" d="M624.06 729.41a4 4 0 00.78 2.94 3.78 3.78 0 001.45 1.06 4.42 4.42 0 003.85-.18 4 4 0 002-3.25 3.67 3.67 0 00-1.84-3.31c-2.67-1.45-5.89-.67-6.24 2.74z"/><path class="cls-32" d="M636.75 749.5a37.7 37.7 0 01-12.17-4.4l-.33 3.65a39.18 39.18 0 009.29 3.4 13.17 13.17 0 013.21-2.65zm-22.99-36.11s-1.82 8.5-.4 13.92l-3.13-.51s-1.74-7.66.71-13.83z"/><path class="cls-23" d="M682.59 703.12V703c-14.31 3.6-28.77 8.68-41.72 15.94l-2.26 29.68a15.59 15.59 0 015.8-1.07 16.18 16.18 0 014.6.65 13.67 13.67 0 017.12 3.26l1.82-1.39c4.09-3.07 9.31-2.73 13.71-.61v-.11a11 11 0 01.94-3.81l2.29-6.33a11.55 11.55 0 01.88-2.32c.13-.34.29-.66.44-1a11.33 11.33 0 011.12-3.48l.13-.94a17.33 17.33 0 01.33-2.27c.18-1.28.4-2.53.58-3.8a1.32 1.32 0 01.15-.42c.05-.14 0-.37.06-.56a15.19 15.19 0 011.24-5 1.85 1.85 0 01.07-.62 15.66 15.66 0 01.45-2.92 11.91 11.91 0 01.49-2.58c.1-.25.17-.5.26-.76l.11-.27a11.7 11.7 0 01.52-3c.18-.44.27-.9.45-1.34a1.72 1.72 0 01.17-.48 26 26 0 01.24-2.76 12.2 12.2 0 01.01-1.57z"/><path class="cls-25" d="M679.73 719.91c-8.79 2.5-14.21 4.59-14.21 4.59l-.27 1.47c4.66-1.69 9.33-3.13 13.91-4.41a14.87 14.87 0 01.57-1.65zm-25.96 28.56a57 57 0 0118.75-6.34 96.15 96.15 0 01-9.24 3.56 91.66 91.66 0 01-9.51 2.78z"/><path class="cls-20" d="M682.59 703.12V703c-14.31 3.6-28.77 8.68-41.72 15.94l-2.26 29.68a15.59 15.59 0 015.8-1.07 16.16 16.16 0 014.69.67 14.57 14.57 0 013.73 1.07c.68-7 1.3-14.07 1.82-21.12 8.21-2.89 16.53-5.55 24.94-7.88.1-.27.19-.53.3-.8s0-.42.07-.62a15.66 15.66 0 01.45-2.92 11.91 11.91 0 01.49-2.58c.1-.25.17-.5.26-.76l.11-.27a11.7 11.7 0 01.52-3c.18-.44.27-.9.45-1.34a1.72 1.72 0 01.17-.48 26 26 0 01.24-2.76 12.2 12.2 0 01-.06-1.64z"/><path class="cls-20" d="M649.36 748.29a14.77 14.77 0 012.55.65 13.24 13.24 0 001.1-.83l.28-3.29a28.71 28.71 0 01-5.42 3.07 14.7 14.7 0 011.49.4zm16.56-40.41a64.08 64.08 0 01-.49 17.17l3.27-1.05a51.45 51.45 0 000-17.24z"/><path class="cls-20" d="M665.92 707.88s-14.12 4.38-25 11l-2 29.6a15.68 15.68 0 015.59-1 16.88 16.88 0 013.44.34 28 28 0 008.41-5.56 31.68 31.68 0 009.39-18.74 67.32 67.32 0 00.17-15.64z"/><path class="cls-20" d="M648.65 728.49a4 4 0 00.78 2.94 3.78 3.78 0 001.45 1.06 4.42 4.42 0 003.85-.18 4 4 0 002-3.25 3.67 3.67 0 00-1.84-3.31c-2.66-1.45-5.89-.69-6.24 2.74z"/><path class="cls-17" d="M650 732.13a4.82 4.82 0 002.28.51 4.74 4.74 0 002.14-.55 4.44 4.44 0 002.3-3.71 3.39 3.39 0 01-.11 2.53 4 4 0 01-1.79 1.93 4.32 4.32 0 01-2.58.45 3.42 3.42 0 01-2.24-1.16z"/><path class="cls-27" d="M655.31 726.06a6.89 6.89 0 00-2.72-.36 3.39 3.39 0 00-2.24 1 4.16 4.16 0 00-1 2.34 4.49 4.49 0 00.46 2.66 3.58 3.58 0 01-1.13-2.69 5.27 5.27 0 01.22-1.52 3.92 3.92 0 01.79-1.37 3.65 3.65 0 012.85-1.13 4.68 4.68 0 012.77 1.07z"/><path class="cls-17" d="M649.26 747.33c1.41-1 2.81-2 4.16-3s2.65-2.12 4-3.2a14.53 14.53 0 01-8.21 6.24z"/><path class="cls-18" d="M666 708.6a45.8 45.8 0 01.37 8.47 54.34 54.34 0 01-1.07 8.44 41.63 41.63 0 01-2.73 8.07 28.07 28.07 0 01-4.79 7 35.82 35.82 0 002.3-3.53 31.64 31.64 0 001.89-3.74 46.45 46.45 0 002.5-8 63.57 63.57 0 001.25-8.3q.2-2.1.25-4.21c.03-1.38.03-2.8.03-4.2z"/><path class="cls-18" d="M631.82 716.68a107.11 107.11 0 0012.8-1.85q6.33-1.3 12.54-3.14c4.16-1.15 8.27-2.48 12.4-3.75s8.26-2.56 12.44-3.66l-12.24 4.29q-6.13 2.11-12.37 4c-4.17 1.16-8.38 2.22-12.66 3a76.23 76.23 0 01-12.91 1.11z"/></g></g><path class="cls-20" d="M565.57 983.49c0 4.35 7.39 7.88 16.52 7.88s16.52-3.53 16.52-7.88v-3.39h-33z"/><ellipse class="cls-21" cx="582.09" cy="980.28" rx="16.52" ry="7.88"/><path class="cls-20" d="M772 1013.52c0 4.35 7.39 7.88 16.52 7.88s16.52-3.53 16.52-7.88v-3.39H772z"/><ellipse class="cls-21" cx="788.53" cy="1010.31" rx="16.52" ry="7.88"/><path class="cls-18" d="M805 1009.65a4.54 4.54 0 01-.58 2.43 8 8 0 01-1.64 1.94 14.82 14.82 0 01-4.4 2.51 25.93 25.93 0 01-4.88 1.3 31.6 31.6 0 01-10 0 26 26 0 01-4.88-1.3 14.83 14.83 0 01-4.4-2.51 8 8 0 01-1.64-1.95 4.54 4.54 0 01-.58-2.43 5 5 0 00.89 2.22 7.46 7.46 0 001.76 1.6 16 16 0 004.33 2 34.82 34.82 0 0019.07 0 16 16 0 004.33-2 7.46 7.46 0 001.76-1.6 5 5 0 00.86-2.21z"/><path class="cls-22" d="M799.51 1011.3a8.08 8.08 0 01.74 2.23 12.32 12.32 0 01.2 2.23 12.1 12.1 0 01-.2 2.23 8 8 0 01-.74 2.23 8 8 0 01-.74-2.23 12.12 12.12 0 01-.2-2.23 12.34 12.34 0 01.2-2.23 8.06 8.06 0 01.74-2.23z"/><path class="cls-22" d="M796.45 1015.3a4.44 4.44 0 011.53-.74 5.86 5.86 0 011.53-.2 5.76 5.76 0 011.53.2.94.94 0 110 1.48 5.76 5.76 0 01-1.53.2 5.86 5.86 0 01-1.53-.2 4.44 4.44 0 01-1.53-.74z"/><path class="cls-20" d="M692.38 1032.65c0 4.35 7.39 7.88 16.52 7.88s16.52-3.53 16.52-7.88v-3.39h-33z"/><ellipse class="cls-21" cx="708.89" cy="1029.44" rx="16.52" ry="7.88"/><path class="cls-18" d="M725.41 1028.75a4.54 4.54 0 01-.58 2.43 8 8 0 01-1.64 1.94 14.82 14.82 0 01-4.4 2.51 25.94 25.94 0 01-4.88 1.3 31.6 31.6 0 01-10 0 26 26 0 01-4.88-1.3 14.83 14.83 0 01-4.4-2.51 8 8 0 01-1.64-1.95 4.54 4.54 0 01-.58-2.43 5 5 0 00.89 2.22 7.45 7.45 0 001.76 1.6 16 16 0 004.33 2 34.82 34.82 0 0019.07 0 16 16 0 004.33-2 7.46 7.46 0 001.76-1.6 5 5 0 00.86-2.21z"/><path class="cls-20" d="M714.5 1025.75c-1.21 4.18 4.9 9.63 13.66 12.18s16.84 1.23 18.06-3l1-3.25-31.72-9.22z"/><ellipse class="cls-21" cx="731.21" cy="1027.12" rx="7.88" ry="16.52" transform="rotate(-73.79 731.21 1027.12)"/><path class="cls-18" d="M747.3 1031.21a4.54 4.54 0 01-1.23 2.17 8 8 0 01-2.12 1.41A14.82 14.82 0 01739 1036a25.94 25.94 0 01-5-.11 31.6 31.6 0 01-9.64-2.8 26 26 0 01-4.32-2.61 14.83 14.83 0 01-3.52-3.63 8 8 0 01-1-2.33 4.54 4.54 0 01.12-2.49 5 5 0 00.23 2.38 7.46 7.46 0 001.24 2 16 16 0 003.6 3.14 34.82 34.82 0 0018.31 5.33 16 16 0 004.72-.72 7.46 7.46 0 002.13-1.05 5 5 0 001.43-1.9z"/><path class="cls-22" d="M716.56 1017.52a8.06 8.06 0 01.74 2.23 12.32 12.32 0 01.2 2.23 12.1 12.1 0 01-.2 2.23 8 8 0 01-.74 2.23 8 8 0 01-.74-2.23 12.1 12.1 0 01-.2-2.23 12.32 12.32 0 01.2-2.23 8.08 8.08 0 01.74-2.23z"/><path class="cls-22" d="M713.51 1021.52a4.44 4.44 0 011.49-.77 5.86 5.86 0 011.53-.2 5.76 5.76 0 011.53.2.94.94 0 110 1.48 5.76 5.76 0 01-1.53.2 5.87 5.87 0 01-1.53-.2 4.44 4.44 0 01-1.49-.71z"/><path class="cls-20" d="M763.09 981.82c0 4.35 7.39 7.88 16.52 7.88s16.52-3.53 16.52-7.88v-3.39h-33z"/><ellipse class="cls-21" cx="779.61" cy="978.61" rx="16.52" ry="7.88"/><path class="cls-18" d="M796.12 977.95a4.54 4.54 0 01-.58 2.43 8 8 0 01-1.64 1.94 14.82 14.82 0 01-4.4 2.51 26 26 0 01-4.88 1.3 31.61 31.61 0 01-10 0 26 26 0 01-4.88-1.3 14.83 14.83 0 01-4.4-2.51 8 8 0 01-1.64-1.95 4.54 4.54 0 01-.58-2.43 5 5 0 00.89 2.22 7.46 7.46 0 001.76 1.6 16 16 0 004.33 2 34.82 34.82 0 0019.07 0 16 16 0 004.33-2 7.46 7.46 0 001.76-1.6 5 5 0 00.86-2.21z"/><path class="cls-22" d="M790.69 978.61a8.06 8.06 0 01.74 2.23 12.34 12.34 0 01.2 2.23 12.12 12.12 0 01-.2 2.23 8 8 0 01-.74 2.23 8 8 0 01-.74-2.23 12.1 12.1 0 01-.2-2.23 12.32 12.32 0 01.2-2.23 8.08 8.08 0 01.74-2.23z"/><path class="cls-22" d="M787.63 982.6a4.44 4.44 0 011.53-.74 5.86 5.86 0 011.53-.2 5.76 5.76 0 011.53.2.94.94 0 110 1.48 5.76 5.76 0 01-1.53.2 5.86 5.86 0 01-1.53-.2 4.44 4.44 0 01-1.53-.74z"/><path class="cls-23" d="M689.36 767.6c-54.4.73-96.83 14.5-121.31 24.91l1.12 109.84a13.11 13.11 0 011.47 5.63c44.27-43.69 132.73-48.76 132.73-48.76-19.09-52.56-14.01-91.62-14.01-91.62z"/><path class="cls-25" d="M634.29 801.64a62.58 62.58 0 016.25-1.84c2.1-.53 4.23-1 6.36-1.35s4.28-.7 6.44-.93a62.22 62.22 0 016.51-.42c-2.1.59-4.21 1.07-6.33 1.51s-4.24.84-6.36 1.23-4.26.73-6.4 1-4.3.63-6.47.8zm-.37 15.58a49.72 49.72 0 015.39-1.81c1.82-.52 3.66-1 5.51-1.35s3.71-.71 5.59-1a49.21 49.21 0 015.67-.48c-1.81.61-3.63 1.1-5.46 1.56s-3.67.86-5.51 1.25-3.69.73-5.55 1-3.74.67-5.64.83zm0 19.39a61 61 0 016.08-2.11c2.07-.61 4.16-1.13 6.26-1.61s4.22-.87 6.36-1.18a60.34 60.34 0 016.45-.66c-2.06.67-4.15 1.22-6.23 1.74s-4.18 1-6.27 1.48-4.2.9-6.31 1.3-4.19.78-6.34 1.04z"/><path class="cls-24" d="M568 809.59v11.06c39.73-20.75 93.22-26.27 93.22-26.27 6.87-9.23 10.6-10.36 11.52-10.49A341.21 341.21 0 00568 809.59zm9.11 75.24s49.47-34.25 105.61-38.69c0 0-9.23 1.94-19.2-7.83 0 0-49.92 5.07-91.52 32.65z"/><path class="cls-25" d="M683.86 847.9c-6.39-1.27-13-3-18-7.24-5.41-4.63-8.22-11.75-9.3-18.81a43.74 43.74 0 012.25-22.39 34.48 34.48 0 0114.07-17s2.67 35.83 10.98 65.44z"/><path class="cls-26" d="M678.07 846.57a33.84 33.84 0 01-9.17-3.2 22.51 22.51 0 01-7.4-6.48c-4-5.38-5.73-12-6.25-18.51a41.9 41.9 0 013-19.31 33.23 33.23 0 0112.17-15 37.12 37.12 0 00-10.81 15.51 44.08 44.08 0 00-2.44 18.63 42.87 42.87 0 001.66 9.29 30.67 30.67 0 003.91 8.52 22.82 22.82 0 006.68 6.54 38 38 0 008.65 4.01z"/><path class="cls-27" d="M689.36 767.6c-54.4.73-96.83 14.5-121.31 24.91v17.14c16.4-7 57.6-22.77 105-25.77 0 0 1.36 35.08 9.7 62.26-54.63 3.54-105.61 38.69-105.61 38.69a179.25 179.25 0 01-9.14-28.08l1.12 45.64a13.11 13.11 0 011.47 5.63c53.65-45.46 132.73-48.76 132.73-48.76-19.04-52.6-13.96-91.66-13.96-91.66z"/><path class="cls-27" d="M610.44 755.33c-1.1-1.72-2.36-3.42-4-4.09a6.3 6.3 0 00-3.67-.13c-2.89.59-3.4.52-5.85 2.62a2.94 2.94 0 00-1.23 2.1 3.73 3.73 0 00.45 1.6 88.78 88.78 0 016.8 23.08c2.53-1.48 15.66-4.33 15.66-4.33a65 65 0 00-8.16-20.85zM609 774.21a3.68 3.68 0 01-1-1.72c-.59-1.74-1.14-3.5-1.72-5.25a44.55 44.55 0 00-3.81-8.91c-.47-.78-1.67-2-1.26-3 .61-1.49 2.29-.71 3 .14a17.14 17.14 0 012.58 4.5 82.4 82.4 0 013.71 10.45 10.1 10.1 0 01.49 2.75 1.61 1.61 0 01-.26 1 1.29 1.29 0 01-1.73.04z"/><path class="cls-20" d="M702.13 859.51s-83.69 4.89-131.64 47.21c0 0 26.8-10.34 95 5.64 0 0 42.78-28.68 133.52-26.8-.01 0-48.92-22.49-96.88-26.05zm-38.66 39.86a346.86 346.86 0 00-45.79-7.31l-7-.43c37.31-18.46 90.79-24.28 90.79-24.28 21.39 1.71 46.23 8.38 46.23 8.38-38.51 3.39-74.7 18.42-84.23 23.63z"/><path class="cls-25" d="M633.64 873.59a168.85 168.85 0 0128.91-9c4.94-1.08 9.92-2 14.92-2.68s10-1.17 15.09-1.38l-14.85 2.83c-4.93 1-9.86 2-14.76 3.07-9.81 2.11-19.53 4.62-29.31 7.16z"/><path class="cls-28" d="M603.23 895.75c37.31-18.46 98.27-28.45 98.27-28.45 21.39 1.71 58.07 11.81 58.07 11.81-38.55 3.41-88.68 18.41-98.25 23.62-16.47-3.68-31-5.23-45-6.42z"/><g clip-path="url(#clip-path-3)"><path class="cls-20" d="M653.79 876.75c.18 2.57 7.7 4.14 16.8 3.5s16.33-3.23 16.15-5.8l-.23-3.22-33 2.3z"/><ellipse class="cls-21" cx="672.33" cy="874.73" rx="16.56" ry="4.67" transform="rotate(-4 673.014 875.61)"/><path class="cls-18" d="M686.49 870.75a2.45 2.45 0 01-1 2 10.21 10.21 0 01-1.9 1.3 22.88 22.88 0 01-4.25 1.67 45.31 45.31 0 01-18 1.26 22.9 22.9 0 01-4.44-1.06 10.21 10.21 0 01-2.06-1 2.45 2.45 0 01-1.27-1.84 2.46 2.46 0 001.43 1.52 9.7 9.7 0 002.08.68 28.86 28.86 0 004.36.63 67.5 67.5 0 0017.63-1.23 28.9 28.9 0 004.23-1.23 9.7 9.7 0 002-1 2.46 2.46 0 001.19-1.7z"/><path class="cls-20" d="M611.45 886.23c1.63 4 9.81 4.53 18.26 1.11s14-9.46 12.36-13.49l-1.27-3.1-30.62 12.38z"/><ellipse class="cls-21" cx="625.6" cy="876.99" rx="16.52" ry="7.88" transform="rotate(-22.02 625.597 877.004)"/><path class="cls-18" d="M640.62 870.26a4.49 4.49 0 01.5 3.5 8 8 0 01-1.65 3.2 12.43 12.43 0 01-2.6 2.36 12.25 12.25 0 01-3.09 1.58c1.58-1.7 3.24-3.16 4.59-4.83s2.44-3.46 2.25-5.81z"/><path class="cls-20" d="M688.25 869.59c.38 4.33 8 7.21 17.13 6.42s16.15-4.94 15.77-9.27l-.29-3.38-32.86 2.85z"/><ellipse class="cls-21" cx="704.42" cy="864.96" rx="16.52" ry="7.88" transform="rotate(-4.95 704.444 864.995)"/><path class="cls-18" d="M720.82 862.88a4.54 4.54 0 01-.37 2.47 8 8 0 01-1.47 2.08 14.82 14.82 0 01-4.16 2.88 26 26 0 01-4.75 1.72 31.6 31.6 0 01-10 .87 26 26 0 01-5-.88 14.83 14.83 0 01-4.6-2.12 8 8 0 01-1.81-1.8 4.54 4.54 0 01-.78-2.37 5 5 0 001.08 2.14 7.46 7.46 0 001.89 1.45 16 16 0 004.49 1.63 34.82 34.82 0 0019-1.64 16 16 0 004.14-2.38 7.46 7.46 0 001.61-1.75 5 5 0 00.73-2.3z"/><path class="cls-20" d="M698.12 894.22c.38 4.33 8 7.21 17.13 6.42s16.15-4.94 15.77-9.27l-.29-3.38-32.91 2.85z"/><ellipse class="cls-21" cx="714.31" cy="889.6" rx="16.52" ry="7.88" transform="rotate(-4.95 714.272 889.642)"/><path class="cls-18" d="M730.69 887.52a4.54 4.54 0 01-.37 2.47 8 8 0 01-1.47 2.08 14.82 14.82 0 01-4.16 2.88 26 26 0 01-4.75 1.72 31.6 31.6 0 01-10 .87 26 26 0 01-5-.88 14.82 14.82 0 01-4.6-2.12 8 8 0 01-1.81-1.8 4.54 4.54 0 01-.78-2.37 5 5 0 001.08 2.14 7.46 7.46 0 001.89 1.45 16 16 0 004.49 1.63 34.82 34.82 0 0019-1.64 16 16 0 004.14-2.38 7.46 7.46 0 001.61-1.75 5 5 0 00.73-2.3z"/><path class="cls-20" d="M611.17 894.82c.36 2.55 8 3.58 17 2.3s16.06-4.38 15.7-6.93l-.45-3.2-32.7 4.63z"/><ellipse class="cls-21" cx="627.11" cy="889.26" rx="16.52" ry="4.66" transform="rotate(-8.06 627.1 889.27)"/><path class="cls-18" d="M643.37 886.59a3.44 3.44 0 01-1 2.79 7.69 7.69 0 01-2.45 1.72 13 13 0 01-5.65 1.1 18.74 18.74 0 012.55-1.28l2.51-1.1a15.69 15.69 0 002.31-1.25 5 5 0 001.73-1.98z"/><circle class="cls-21" cx="647.16" cy="874.78" r="14.67" transform="rotate(-15.71 647.102 874.706)"/><path class="cls-18" d="M642.25 889.57a14 14 0 01-5-4.81 14.61 14.61 0 013.84-19.3 14.78 14.78 0 016.64-2.73 14.59 14.59 0 017.1.75 15 15 0 015.84 4 14.32 14.32 0 013.13 6.2 14.68 14.68 0 00-9.32-9.16A14 14 0 00636.25 878a14.53 14.53 0 006 11.57z"/><circle class="cls-21" cx="731.88" cy="870.9" r="14.71"/><path class="cls-18" d="M721.15 880.7a14 14 0 01-3.52-6 14.61 14.61 0 018.92-17.54 14.78 14.78 0 017.13-.83 14.59 14.59 0 016.64 2.64 15 15 0 014.54 5.41 14.32 14.32 0 011.34 6.81 14.68 14.68 0 00-6.5-11.34 14 14 0 00-21.19 8 14.53 14.53 0 002.64 12.85z"/><path class="cls-22" d="M728.09 854.75a8.06 8.06 0 01.74 2.23 12.34 12.34 0 01.2 2.23 12.12 12.12 0 01-.2 2.23 8 8 0 01-.74 2.23 8 8 0 01-.74-2.23 12.1 12.1 0 01-.2-2.23 12.32 12.32 0 01.2-2.23 8.08 8.08 0 01.74-2.23z"/><path class="cls-22" d="M725 858.75a4.44 4.44 0 011.53-.74 5.87 5.87 0 011.53-.2 5.76 5.76 0 011.53.2.94.94 0 110 1.48 5.76 5.76 0 01-1.53.2 5.86 5.86 0 01-1.53-.2 4.44 4.44 0 01-1.53-.74z"/><path class="cls-20" d="M639.8 892.42c0 4.35 7.39 7.88 16.52 7.88s16.52-3.53 16.52-7.88V889h-33z"/><ellipse class="cls-21" cx="656.32" cy="889.21" rx="16.52" ry="7.88"/><path class="cls-18" d="M672.83 888.55a4.54 4.54 0 01-.58 2.43 8 8 0 01-1.64 1.94 14.82 14.82 0 01-4.4 2.51 25.94 25.94 0 01-4.88 1.3 31.6 31.6 0 01-10 0 26 26 0 01-4.88-1.3 14.83 14.83 0 01-4.4-2.51 8 8 0 01-1.64-1.95 4.54 4.54 0 01-.58-2.43 5 5 0 00.89 2.22 7.46 7.46 0 001.76 1.6 16 16 0 004.33 2 34.82 34.82 0 0019.07 0 16 16 0 004.33-2 7.47 7.47 0 001.76-1.6 5 5 0 00.86-2.21z"/><path class="cls-20" d="M641.92 885.35a14.9 14.9 0 016-3.29 26.87 26.87 0 016.77-1.16 29.18 29.18 0 016.84.46 28 28 0 013.32.85 18.54 18.54 0 013.15 1.39 29.58 29.58 0 00-6.55-1.53 39.49 39.49 0 00-6.69-.23 35.08 35.08 0 00-6.62.91 21.39 21.39 0 00-3.18 1 14.37 14.37 0 00-3.04 1.6z"/><path class="cls-20" d="M661.93 885.48c-1.21 4.18 4.9 9.63 13.66 12.18s16.84 1.23 18.06-3l1-3.25-31.72-9.22z"/><ellipse class="cls-21" cx="679.07" cy="888.02" rx="7.88" ry="16.52" transform="rotate(-73.74 679.065 888.02)"/><path class="cls-18" d="M694.72 891a4.54 4.54 0 01-1.23 2.17 8 8 0 01-2.12 1.41 14.82 14.82 0 01-4.92 1.18 26 26 0 01-5-.11 31.6 31.6 0 01-9.64-2.8 26 26 0 01-4.32-2.61 14.83 14.83 0 01-3.49-3.64 8 8 0 01-1-2.33 4.54 4.54 0 010-2.52 5 5 0 00.23 2.38 7.46 7.46 0 001.24 2 16 16 0 003.6 3.14 34.82 34.82 0 0018.31 5.33 16 16 0 004.72-.72 7.46 7.46 0 002.13-1.05 5 5 0 001.49-1.83z"/><path class="cls-20" d="M675.15 870.13c-2.47 3.58 1.62 10.68 9.13 15.86s15.6 6.47 18.07 2.89l1.92-2.79-27.19-18.75z"/><ellipse class="cls-21" cx="690.56" cy="876.81" rx="7.88" ry="16.52" transform="rotate(-55.42 690.557 876.809)"/><path class="cls-18" d="M704.54 885.69a4.54 4.54 0 01-1.85 1.67 8 8 0 01-2.46.67 14.82 14.82 0 01-5-.43 26 26 0 01-4.75-1.7 31.6 31.6 0 01-8.27-5.7 26 26 0 01-3.28-3.84 14.83 14.83 0 01-2.2-4.56 8 8 0 01-.25-2.53 4.54 4.54 0 01.9-2.33 5 5 0 00-.53 2.34 7.46 7.46 0 00.54 2.32 16 16 0 002.43 4.12 34.82 34.82 0 0015.7 10.83 16 16 0 004.71.8 7.46 7.46 0 002.36-.32 5 5 0 001.95-1.34z"/><path class="cls-20" d="M694 878.06c-.14 2.57 7.13 5.05 16.24 5.54s16.6-1.2 16.74-3.77l.17-3.23-33-1.77z"/><ellipse class="cls-21" cx="710.66" cy="875.64" rx="4.66" ry="16.52" transform="rotate(-86.94 710.657 875.64)"/><path class="cls-18" d="M727.22 876.19A2.45 2.45 0 01726 878a10.21 10.21 0 01-2 1.06 22.87 22.87 0 01-4.42 1.13 45.31 45.31 0 01-18-1 22.9 22.9 0 01-4.28-1.6 10.2 10.2 0 01-1.92-1.27 2.45 2.45 0 01-1-2 2.46 2.46 0 001.26 1.69 9.7 9.7 0 002 .93 28.83 28.83 0 004.25 1.16 67.5 67.5 0 0017.65.95 28.88 28.88 0 004.35-.7 9.7 9.7 0 002.06-.72 2.46 2.46 0 001.27-1.44z"/><path class="cls-22" d="M695.12 870a8.06 8.06 0 01.74 2.23 12.34 12.34 0 01.2 2.23 12.12 12.12 0 01-.2 2.23 8 8 0 01-.74 2.23 8 8 0 01-.74-2.23 12.12 12.12 0 01-.2-2.23 12.36 12.36 0 01.2-2.23 8.08 8.08 0 01.74-2.23z"/><path class="cls-22" d="M692.06 874a4.44 4.44 0 011.53-.74 5.87 5.87 0 011.53-.2 5.76 5.76 0 011.53.2.94.94 0 110 1.48 5.76 5.76 0 01-1.53.2 5.86 5.86 0 01-1.53-.2 4.44 4.44 0 01-1.53-.74zm-26.6 2.23a8.08 8.08 0 01.74 2.23 12.32 12.32 0 01.2 2.23 12.1 12.1 0 01-.2 2.23 8 8 0 01-.74 2.23 8 8 0 01-.74-2.23 12.1 12.1 0 01-.2-2.23 12.32 12.32 0 01.2-2.23 8.06 8.06 0 01.74-2.23z"/><path class="cls-22" d="M662.4 880.23a4.44 4.44 0 011.53-.74 5.86 5.86 0 011.53-.2 5.76 5.76 0 011.53.2.94.94 0 110 1.48 5.76 5.76 0 01-1.53.2 5.87 5.87 0 01-1.53-.2 4.44 4.44 0 01-1.53-.74z"/><path class="cls-20" d="M632.19 889.75c-1.14 2.31 4.57 7.45 12.76 11.48s15.74 5.42 16.88 3.11l1.43-2.9-29.63-14.59z"/><ellipse class="cls-21" cx="648.44" cy="894.16" rx="4.66" ry="16.52" transform="rotate(-63.78 648.438 894.161)"/><path class="cls-18" d="M663.43 901.08a2.45 2.45 0 01-1.87 1.22 10.2 10.2 0 01-2.3.17 22.88 22.88 0 01-4.51-.7 45.3 45.3 0 01-16.21-8 22.88 22.88 0 01-3.3-3.15 10.2 10.2 0 01-1.24-1.87 2.45 2.45 0 01-.17-2.23 2.46 2.46 0 00.49 2 9.7 9.7 0 001.45 1.64 28.83 28.83 0 003.45 2.74 67.49 67.49 0 0015.86 7.81 28.9 28.9 0 004.28 1.07 9.7 9.7 0 002.18.15 2.46 2.46 0 001.89-.85z"/><path class="cls-20" d="M633.62 886.85a2.45 2.45 0 011.88-1.16 10.09 10.09 0 012.28-.11 25.31 25.31 0 014.47.76 47.53 47.53 0 0116.15 8 25.41 25.41 0 013.33 3.08 10.09 10.09 0 011.3 1.88 2.45 2.45 0 01.22 2.2 2.46 2.46 0 00-.44-2.08 9.75 9.75 0 00-1.42-1.68 25.34 25.34 0 00-3.43-2.81 62.7 62.7 0 00-15.96-7.84 25.43 25.43 0 00-4.32-1 9.75 9.75 0 00-2.2-.1 2.46 2.46 0 00-1.86.86zm109.32-25.1c-2.39 1-1.59 8.6 1.8 17.07s8.07 14.56 10.46 13.6l3-1.2-12.26-30.67z"/><ellipse class="cls-21" cx="752.03" cy="876" rx="4.66" ry="16.52" transform="rotate(-21.79 752.039 875.99)"/><path class="cls-18" d="M758.58 891.1a2.45 2.45 0 01-2.21-.34 10.2 10.2 0 01-1.82-1.41 22.87 22.87 0 01-2.89-3.54 45.31 45.31 0 01-6.71-16.81 22.9 22.9 0 01-.35-4.55 10.2 10.2 0 01.34-2.28 2.45 2.45 0 011.37-1.77 2.46 2.46 0 00-1 1.85 9.69 9.69 0 000 2.19 28.84 28.84 0 00.73 4.35 67.48 67.48 0 006.56 16.41 28.89 28.89 0 002.46 3.65 9.71 9.71 0 001.52 1.57 2.46 2.46 0 002 .68z"/><path class="cls-20" d="M745.94 860.58a2.45 2.45 0 012.17.39 10.1 10.1 0 011.77 1.44 25.34 25.34 0 012.81 3.56 47.52 47.52 0 016.69 16.72 25.41 25.41 0 01.42 4.52 10.1 10.1 0 01-.29 2.26 2.45 2.45 0 01-1.31 1.78 2.46 2.46 0 001.06-1.84 9.77 9.77 0 00.07-2.2 25.36 25.36 0 00-.66-4.38 62.69 62.69 0 00-6.59-16.48 25.45 25.45 0 00-2.54-3.63 9.76 9.76 0 00-1.57-1.54 2.46 2.46 0 00-2.03-.6z"/><path class="cls-22" d="M634.6 882a8.06 8.06 0 01.74 2.23 12.32 12.32 0 01.2 2.23 12.08 12.08 0 01-.2 2.23 8 8 0 01-.74 2.23 8 8 0 01-.74-2.23 12.1 12.1 0 01-.2-2.23 12.32 12.32 0 01.2-2.23 8.07 8.07 0 01.74-2.23zm16.77-24.11a14.73 14.73 0 01.74 3.14 24.16 24.16 0 01.2 3.14 23.73 23.73 0 01-.2 3.14 14.55 14.55 0 01-.74 3.14 14.56 14.56 0 01-.74-3.14 23.73 23.73 0 01-.2-3.14 24.2 24.2 0 01.2-3.14 14.76 14.76 0 01.74-3.14z"/><path class="cls-22" d="M647.08 863.51a7.55 7.55 0 012.15-.74 11.39 11.39 0 012.15-.2 11.19 11.19 0 012.15.2 7.45 7.45 0 012.15.74 7.45 7.45 0 01-2.15.74 11.19 11.19 0 01-2.15.2 11.39 11.39 0 01-2.15-.2 7.55 7.55 0 01-2.15-.74z"/></g><path class="cls-25" d="M633.57 898c4.66.82 9.38 1.12 14.07 1.71a57.89 57.89 0 0113.85 3.16h-.22l24-8.24c8-2.72 16.09-5.29 24.25-7.55a235.55 235.55 0 0124.77-5.62 159.6 159.6 0 0125.27-2.3 178.14 178.14 0 00-25.17 2.9c-8.31 1.55-16.52 3.56-24.65 5.86s-16.17 4.91-24.2 7.55-16 5.43-24.08 8h-.23a59.87 59.87 0 00-13.67-3.37c-4.63-.72-9.36-1.15-13.99-2.1z"/><path class="cls-22" d="M700.81 853.82a8.07 8.07 0 01.74 2.23 12.32 12.32 0 01.2 2.23 12.1 12.1 0 01-.2 2.23 8 8 0 01-.74 2.23 8 8 0 01-.74-2.23 12.1 12.1 0 01-.2-2.23 12.32 12.32 0 01.2-2.23 8.07 8.07 0 01.74-2.23z"/><path class="cls-22" d="M697.76 857.81a4.44 4.44 0 011.53-.74 5.86 5.86 0 011.53-.2 5.76 5.76 0 011.53.2.94.94 0 110 1.48 5.76 5.76 0 01-1.53.2 5.86 5.86 0 01-1.53-.2 4.44 4.44 0 01-1.53-.74z"/><path class="cls-30" d="M656.82 1008.75a9.84 9.84 0 01-2.45 1 8.35 8.35 0 006.93-.3 1.86 1.86 0 01-2.16-.55 4.14 4.14 0 01-.69-1.79c-.57.52-.91 1.22-1.63 1.64z"/><path class="cls-31" d="M570.49 906.75l16.28 88.62a4 4 0 004.12 3.26c8.6-.43 32.43-.31 62.71 10.83a3.5 3.5 0 004.7-3l7.17-94.07s-63.95-16.02-94.98-5.64z"/><path class="cls-23" d="M634.52 944.14a18.13 18.13 0 013.18 0c1 .09 2.09.22 3.13.41a31.3 31.3 0 013.07.72 17.94 17.94 0 013 1.11 18.36 18.36 0 01-3.2 0 31.07 31.07 0 01-3.11-.41c-1-.19-2-.43-3.06-.72a18.56 18.56 0 01-3.01-1.11zm-.98 20.19a15.62 15.62 0 013.12 0 24.84 24.84 0 013 .48 24.23 24.23 0 013 .86 15.13 15.13 0 012.83 1.31 20.27 20.27 0 01-3.1-.25c-1-.15-2-.33-3-.55s-2-.48-3-.78a19.92 19.92 0 01-2.85-1.07z"/><path class="cls-17" d="M597.52 985.94c.55-.71 1.33-1.83 1.88-2.54-3.15-19.79-5.91-40-8.29-59.93l-2.7-2.42s6.73 57.95 9.11 64.89z"/><path class="cls-20" d="M648.06 926.63a164 164 0 00-20.16-4 168 168 0 00-36.41 0l-2.7-2.42s25-5.17 59.68 3.92z"/><path class="cls-17" d="M602.16 918.92c-.91 0-2-.32-2.81 0v.08a8.56 8.56 0 01-.81 3.06l2.88-.16c-.12-.6.31-1.21.46-1.8a5.17 5.17 0 00.12-1v-.1s.14-.06.16-.08zm-4.64 67.02a99.44 99.44 0 0145.4 5.88l.58-3.21s-23.64-8.3-46.32-5.41z"/><path class="cls-27" d="M571.23 910.75l15.32 83.43a5.36 5.36 0 005.46 4.4c9.42-.35 32.47.2 61.44 10.83a3.61 3.61 0 004.85-3.1l6.83-89.66a5 5 0 00-3.88-5.25c-14-3.15-59.67-12.42-86.69-5.82a4.49 4.49 0 00-3.33 5.17zm74.77 55.3c-.54 8.42-1.08 16.9-3.12 25.09-14.38-5-30-7.46-45.09-5.56a69.09 69.09 0 01-2.26-12.11l-6.3-50c-.09-.75-.4-2-.47-2.76a151.91 151.91 0 0159.68 3.92c-.89 13.76-1.56 27.58-2.48 41.39z"/><path class="cls-32" d="M614 999.63c-1.65-.12-3.26-.34-3.26-.34s0-7.86-3.19-14.37a37.39 37.39 0 014.22.08s2.37 5.44 2.23 14.63zm-32.12-30.68a24.1 24.1 0 0113.42 2.27l-.52-3.22a26.67 26.67 0 00-13.22-1z"/><path class="cls-20" d="M581.88 968.95a23.33 23.33 0 0121.87 9.47 36.36 36.36 0 017 20.87l-3.56-.3s.35-9.05-7-19.86c0 0-4.8-8-17.75-7.88z"/><path class="cls-17" d="M609.6 991a38.71 38.71 0 011.12 8.25l-3.56-.3a26.64 26.64 0 00-1.14-7.41 2.08 2.08 0 011.13-.7 5 5 0 012.45.16z"/><path class="cls-27" d="M608.52 999.18a39.49 39.49 0 00-4.29-16.37 24 24 0 00-12.34-11.24 25.21 25.21 0 00-9.8-1.39L586.7 995a4.51 4.51 0 004.57 3.69 131.82 131.82 0 0117.25.49z"/><path class="cls-33" d="M590.26 986.61a4.44 4.44 0 00.86 3.25 4.17 4.17 0 001.6 1.17 4.87 4.87 0 004.25-.19 4.42 4.42 0 002.23-3.58 4 4 0 00-2-3.66c-3-1.6-6.55-.77-6.94 3.01z"/><path class="cls-18" d="M608.52 999.18a39.49 39.49 0 00-4.29-16.37 24 24 0 00-12.34-11.24c5.09 2.22 9 6.72 11.63 11.62s4.01 10.56 5 15.99z"/><path class="cls-27" d="M631.2 1002.86a24 24 0 018.3-19.79c5.67-4.79 11.82-6.9 21.18-6.41l-2.22 29.2a4.09 4.09 0 01-5.36 3.58c-6.41-2.12-17.3-5.62-21.9-6.58z"/><path class="cls-18" d="M660.69 976.66c-9.36-.48-15.5 1.62-21.18 6.41a23.2 23.2 0 00-4.74 5.52 28.48 28.48 0 0111.47-8.84 28 28 0 0114.23-1.82 5.2 5.2 0 01.18-1.2c-.13.1.15-.16.04-.07z"/><path class="cls-33" d="M643.28 993.25a4.44 4.44 0 00.86 3.25 4.17 4.17 0 001.6 1.17 4.87 4.87 0 004.25-.19 4.42 4.42 0 002.23-3.58 4 4 0 00-2-3.66c-2.99-1.61-6.55-.77-6.94 3.01z"/><path class="cls-20" d="M644.76 997.28a5.32 5.32 0 002.51.57 5.23 5.23 0 002.37-.6 4.89 4.89 0 002.54-4.09 3.74 3.74 0 01-.12 2.79 4.36 4.36 0 01-2 2.14 4.77 4.77 0 01-2.85.5 3.77 3.77 0 01-2.45-1.31z"/><path class="cls-18" d="M650.63 990.57a7.6 7.6 0 00-3-.4 3.75 3.75 0 00-2.48 1.15 4.59 4.59 0 00-1.08 2.58 5 5 0 00.51 2.93 4 4 0 01-1.24-3 5.82 5.82 0 01.24-1.67 4.32 4.32 0 01.87-1.51 4 4 0 013.15-1.25 5.16 5.16 0 013.03 1.17z"/><path class="cls-32" d="M631.2 1002.86a26.75 26.75 0 013.56-14.27l-2.59-.53a28.22 28.22 0 00-2.83 14.25zm29.49-26.2s-8.34-.95-15.73 2.75l.45-4.13a34.37 34.37 0 0115.46-2.21z"/><path class="cls-27" d="M576.47 939.25c7.8-1.19 14.7-5.57 18.25-12.62s4.25-15.26 3.34-23.1a80.42 80.42 0 00-24.17 2.22 3.8 3.8 0 00-2.77 4.37z"/><path class="cls-32" d="M591.12 938.22l-.44-3.53c-5.61 4.88-14 5.85-14 5.85l.43 2.68c4.74-.54 9.76-1.67 14.01-5z"/><path class="cls-20" d="M601 903.23a38.72 38.72 0 01-4.66 24.88c-4.12 7.05-11.6 11.32-19.69 12.43l-.23-1.28s12.46-1.71 18.25-12.62c0 0 4.8-8.18 3.46-23.4z"/><path class="cls-18" d="M598.17 903.23c.91 7.84.08 16.35-3.46 23.4a45.69 45.69 0 001.81-22.73.65.65 0 010-.33c.09-.26.46-.29.73-.21a1.61 1.61 0 00.92-.13z"/><path class="cls-33" d="M580 918.23a4.44 4.44 0 00.86 3.25 4.17 4.17 0 001.6 1.17 4.87 4.87 0 004.25-.19 4.42 4.42 0 002.23-3.58 4 4 0 00-2-3.66c-3-1.62-6.55-.78-6.94 3.01z"/><path class="cls-17" d="M582.19 939.26a30.44 30.44 0 01-5.49 1.27l-.23-1.28a25.18 25.18 0 005-1.39 2 2 0 00.72 1.4z"/><path class="cls-27" d="M663.12 946.41c-6.93-.93-13.92-3.13-19.13-7.79a28.52 28.52 0 01-8.5-15 42 42 0 010-17.39s17.09 2.51 26.17 4.93a4.76 4.76 0 013.52 4.89c-.45 8.36-1.68 28.03-2.06 30.36z"/><path class="cls-33" d="M646.91 923.92a4.44 4.44 0 00.86 3.25 4.17 4.17 0 001.6 1.17 4.87 4.87 0 004.25-.19 4.42 4.42 0 002.23-3.58 4 4 0 00-2-3.66c-2.99-1.62-6.55-.78-6.94 3.01z"/><path class="cls-20" d="M648.38 927.94a5.32 5.32 0 002.51.57 5.24 5.24 0 002.37-.6 4.89 4.89 0 002.54-4.09 3.74 3.74 0 01-.12 2.79 4.36 4.36 0 01-2 2.14 4.77 4.77 0 01-2.85.5 3.77 3.77 0 01-2.45-1.31z"/><path class="cls-18" d="M654.26 921.24a7.6 7.6 0 00-3-.4 3.75 3.75 0 00-2.48 1.15 4.59 4.59 0 00-1.08 2.58 5 5 0 00.51 2.93 4 4 0 01-1.24-3 5.81 5.81 0 01.24-1.67 4.32 4.32 0 01.87-1.51 4 4 0 013.15-1.25 5.16 5.16 0 013.03 1.17z"/><path class="cls-32" d="M662.52 946.33a40.56 40.56 0 01-15-5.09l-.36 4s8 4.35 15.4 4.35zm-26.98-40.09s-2 9.38-.45 15.36l-3.45-.56s-1.92-8.45.79-15.27z"/><path class="cls-23" d="M665.46 912.36l-7.24 95.07a2.2 2.2 0 003 2.2c11.9-5 54.26-22.58 103.92-23.32a4.16 4.16 0 004-3.2c2.82-11.84 13.46-54.74 28.66-94.54a2.28 2.28 0 00-2.08-3.11c-15.35-.31-82.27.01-130.26 26.9z"/><path class="cls-25" d="M678.3 988.31s36.31-13.57 68.62-13.73l-1.07 2L679.72 991zm80.53-24.84c3.8-21.34 13.69-49.66 13.69-49.66l-1.19-1.88s-9.87 26.37-14.66 52.73zm-66.16-44.97s35.93-14 75.45-14.24l.47 1.52s-38.33.65-76.21 14.35z"/><path class="cls-25" d="M678.51 945.43c3.43-1.53 7-2.84 10.47-4.15s7.11-2.42 10.69-3.55c7.18-2.23 14.47-4 21.81-5.67 3.67-.81 7.38-1.42 11.08-2.1l5.57-.85 2.79-.41 2.8-.3a190.4 190.4 0 0122.48-1.3l-5.61.47-2.8.22-2.79.32-5.58.59-5.56.78q-2.78.37-5.55.84l-5.54.91c-3.67.71-7.35 1.37-11 2.21-7.33 1.5-14.59 3.33-21.8 5.32l-5.4 1.53-5.37 1.63c-3.59 1.08-7.2 2.27-10.69 3.51zm-2 21.57c6.57-2.66 13.32-4.87 20.12-6.86s13.71-3.66 20.66-5.1 14-2.5 21-3.25a165.29 165.29 0 0121.25-.87c-3.54.3-7.07.34-10.59.78-1.76.17-3.52.29-5.28.5l-5.26.67c-7 1-14 2.09-20.88 3.55s-13.8 3-20.65 4.76c-3.42.88-6.84 1.81-10.23 2.79S679.9 966 676.51 967z"/><path class="cls-1" d="M723.65 892.13l-2.16 30a7.13 7.13 0 00.63 4.42c1.41 2.19 4.75 2.13 7 .89 5.26-2.83 7-9.44 7.82-15.36a138.43 138.43 0 001.29-21.82 130.74 130.74 0 00-14.58 1.87z"/><path class="cls-20" d="M665.46 912.36l-7.24 95.07a2.21 2.21 0 003 2.2c12-5.05 50.11-19.37 104.54-23.17a3.53 3.53 0 003.2-2.7c2.55-10.76 13.17-54 28.49-94.36a2.91 2.91 0 00-2.66-4c-16.89-.23-82.23.6-129.33 26.96zM769.13 923c-5.35 17.45-9.83 35.21-12.25 53.3a101.33 101.33 0 00-16.75.28c-3.77.3-7.52.8-11.26 1.37A241.41 241.41 0 00673.24 993q4.85-35.13 7.42-70.44c31.06-10.94 63.57-19.2 96.5-18.52a116.25 116.25 0 00-8.03 18.96z"/><path class="cls-18" d="M679.52 990.53a158.52 158.52 0 0116.09-5.53c5.44-1.58 11-3 16.5-4.26s11.15-2.23 16.78-3 11.3-1.26 17-1.53c-2.82.38-5.64.58-8.45 1l-4.21.56-4.2.67c-2.8.43-5.58 1-8.37 1.45s-5.56 1.09-8.32 1.74c-5.54 1.16-11 2.55-16.51 4s-10.93 3.12-16.31 4.9zm79.31-27.06c.58-4 1.35-7.93 2.2-11.86s1.84-7.83 2.86-11.72 2.24-7.73 3.53-11.54 2.74-7.57 4.37-11.24c-.61 1.92-1.31 3.8-1.88 5.73s-1.22 3.82-1.8 5.74c-1.14 3.85-2.3 7.69-3.31 11.57s-2.07 7.75-3.07 11.64l-1.46 5.84z"/><path class="cls-27" d="M720.49 892.55a222.76 222.76 0 01-1.77 36.33c.88 0 2.19 0 3.07-.06a40.71 40.71 0 0013.29-3.34 51.38 51.38 0 002.85-14.48c.32-7.07.57-14.67.38-21.75a172.75 172.75 0 00-17.82 3.3z"/><path class="cls-34" d="M718.72 928.88a211 211 0 001.77-36.33l-3 .87s1.84 18.7-1.51 34.27c0 .18.06.22.21.31a5.41 5.41 0 002.53.88z"/><path class="cls-18" d="M719 928.88q.38-3.66.69-7.3c.21-2.43.4-4.86.53-7.3s.28-4.87.39-7.31l.29-7.33c.13 1.22.23 2.44.31 3.67s.11 2.45.12 3.68c.06 2.45 0 4.91-.18 7.36s-.4 4.89-.75 7.32a63.41 63.41 0 01-1.4 7.21z"/><path class="cls-20" d="M732 903.85a6.79 6.79 0 01-.11 11.84c-1.5.76-3.66 1-4.38 2.49a2.18 2.18 0 00.7 2.9 5.1 5.1 0 003.61.92 9.79 9.79 0 006.9-4.08 15.33 15.33 0 002.71-7.71 13.63 13.63 0 00-.22-4.4 10.3 10.3 0 00-8.38-7.54c-1.42-.19-3.53-.13-4.34 1.31-1.24 2.34 1.91 3.42 3.51 4.27z"/><path class="cls-17" d="M728.55 899.59a2 2 0 00-.11 1.52 2.58 2.58 0 001 1.09 19.68 19.68 0 002.87 1.4 6.08 6.08 0 012.46 2.35 7.82 7.82 0 011.1 3.22 7.2 7.2 0 01-2.63 6.07 5.86 5.86 0 01-1.47.86c-.52.2-1 .35-1.56.51a4.22 4.22 0 00-2.66 1.57 2.64 2.64 0 011-1.25 8.67 8.67 0 011.46-.76 7.63 7.63 0 002.71-1.48 6.87 6.87 0 002.17-5.43 7.11 7.11 0 00-.93-2.86 5.79 5.79 0 00-2-2.17 19 19 0 01-2.81-1.67 2.92 2.92 0 01-1-1.38 2 2 0 01.4-1.59z"/><path class="cls-27" d="M731.88 922a9.09 9.09 0 003.75-1.48 10.48 10.48 0 002.84-2.78 15.63 15.63 0 002.54-7.48 13.91 13.91 0 00-.1-4 9.63 9.63 0 00-1.5-3.61 10.52 10.52 0 00-2.82-2.8 10.25 10.25 0 00-3.71-1.61 10.1 10.1 0 017.11 4 9.63 9.63 0 011.79 3.86 14.39 14.39 0 01.16 4.23 15 15 0 01-2.9 7.82 10.93 10.93 0 01-3.18 2.74 8.56 8.56 0 01-3.98 1.11zm35.19-35.91s-2.65 10.1 2.94 23.47c4.42 10.56 15.76 13.75 15.76 13.75l-.56 1.76s-25.13-4.95-21.85-38.69z"/><path class="cls-20" d="M785.23 923.1a22.12 22.12 0 01-13.44-10.17 32.77 32.77 0 01-5.09-14.73c-.37-3.14-.63-9.11.37-12.11a227.31 227.31 0 0128.72-.51 2.39 2.39 0 012.14 3.18c-2.77 7.89-10.26 29.05-12.7 34.34z"/><path class="cls-20" d="M778.14 899.58a4.44 4.44 0 00.86 3.25 4.17 4.17 0 001.6 1.17 4.87 4.87 0 004.25-.19 4.42 4.42 0 002.23-3.58 4 4 0 00-2-3.66c-3-1.62-6.55-.82-6.94 3.01z"/><path class="cls-17" d="M779.61 903.6a5.32 5.32 0 002.51.57 5.23 5.23 0 002.37-.6 4.89 4.89 0 002.54-4.09 3.74 3.74 0 01-.12 2.79 4.36 4.36 0 01-2 2.14 4.77 4.77 0 01-2.85.5 3.77 3.77 0 01-2.45-1.31z"/><path class="cls-27" d="M785.48 896.89a7.6 7.6 0 00-3-.4 3.75 3.75 0 00-2.48 1.15 4.6 4.6 0 00-1.08 2.58 5 5 0 00.51 2.93 4 4 0 01-1.24-3 5.82 5.82 0 01.24-1.67 4.32 4.32 0 01.87-1.51 4 4 0 013.15-1.25 5.16 5.16 0 013.03 1.17z"/><path class="cls-18" d="M771.79 912.92a32.77 32.77 0 01-5.09-14.73c-.37-3.14-.63-9.11.37-12.11a5.6 5.6 0 011.82-.21c-1.39 4.47-1.2 10.23-.76 14.9a32.1 32.1 0 003.66 12.15z"/><path class="cls-17" d="M785.22 925.07a21.29 21.29 0 01-6.22-1.87 23.8 23.8 0 01-5.49-3.49 12.84 12.84 0 01-1.21-1.1c-.38-.39-.79-.75-1.15-1.16a22 22 0 01-2-2.59 23.36 23.36 0 01-1.63-2.81 12.43 12.43 0 01-.63-1.49q-.3-.75-.56-1.51a36.36 36.36 0 003.4 5.4 27.77 27.77 0 004.37 4.55 31.86 31.86 0 008.07 5 27.23 27.23 0 003.05 1.07z"/><path class="cls-20" d="M661.23 976.59s8.1 2 13.26 7.12l.61-4.75s-4-3.8-14.24-5.89zm18.29 13.94a31.19 31.19 0 012.6 11.53l2.5-.9a29.43 29.43 0 00-3.07-11.37z"/><path class="cls-20" d="M660.58 976.43c8.47 2 16.54 7.49 19.59 15.64a41.38 41.38 0 012 9.61s-14.18 4.67-21.08 7.83a1.93 1.93 0 01-2.72-1.9c.54-8.23 2-28.45 2.21-31.18z"/><path class="cls-20" d="M665.71 994.45a4.44 4.44 0 00.86 3.25 4.17 4.17 0 001.6 1.17 4.87 4.87 0 004.25-.19 4.42 4.42 0 002.23-3.58 4 4 0 00-2-3.66c-3-1.62-6.55-.78-6.94 3.01z"/><path class="cls-17" d="M667.18 998.47a5.32 5.32 0 002.51.57 5.24 5.24 0 002.37-.6 4.89 4.89 0 002.54-4.09 3.74 3.74 0 01-.12 2.79 4.36 4.36 0 01-2 2.14 4.77 4.77 0 01-2.85.5 3.78 3.78 0 01-2.45-1.31z"/><path class="cls-27" d="M673 991.75a7.6 7.6 0 00-3-.4 3.75 3.75 0 00-2.48 1.15 4.59 4.59 0 00-1.08 2.58A5 5 0 00667 998a4 4 0 01-1.24-3 5.83 5.83 0 01.24-1.67 4.32 4.32 0 01.87-1.51 4 4 0 013.15-1.25 5.16 5.16 0 012.98 1.18z"/><path class="cls-20" d="M660.58 976.43c8.47 2 16.54 7.49 19.59 15.64a41.38 41.38 0 012 9.61"/><path class="cls-17" d="M660.58 976.43a28.66 28.66 0 018.52 2.92 27 27 0 017.2 5.52 21.76 21.76 0 014.51 7.89 37.81 37.81 0 011.32 8.92c-.29-1.47-.51-3-.84-4.41a29.81 29.81 0 00-1.17-4.28 22.27 22.27 0 00-4.52-7.48 28.33 28.33 0 00-6.85-5.52 30.65 30.65 0 00-4-2 40 40 0 00-4.17-1.56z"/><path class="cls-20" d="M743 988.68a28.55 28.55 0 0128.92-28.18q1.41 0 2.81.18l-5.45 22.07a5 5 0 01-4.44 3.79c-6.52.59-19.84 1.73-21.84 2.14z"/><path class="cls-20" d="M756.25 975.06a4.44 4.44 0 00.86 3.25 4.17 4.17 0 001.6 1.17 4.87 4.87 0 004.25-.19 4.42 4.42 0 002.23-3.58 4 4 0 00-2-3.66c-2.99-1.61-6.55-.77-6.94 3.01z"/><path class="cls-17" d="M757.72 979.09a5.32 5.32 0 002.51.57 5.23 5.23 0 002.37-.6 4.89 4.89 0 002.54-4.09 3.74 3.74 0 01-.14 2.78 4.36 4.36 0 01-2 2.14 4.77 4.77 0 01-2.85.5 3.77 3.77 0 01-2.43-1.3z"/><path class="cls-27" d="M763.6 972.38a7.6 7.6 0 00-3-.4 3.75 3.75 0 00-2.48 1.15 4.59 4.59 0 00-1.12 2.62 5 5 0 00.51 2.93 4 4 0 01-1.24-3 5.82 5.82 0 01.24-1.67 4.32 4.32 0 01.87-1.51 4 4 0 013.15-1.25 5.16 5.16 0 013.07 1.13z"/><path class="cls-27" d="M743 988.68l-2.87.32s-.59-13.76 13.4-24.33c0 0 7.12-6.68 21.84-5.69l-.65 1.68s-12.44-1.24-21.36 6.36A31.7 31.7 0 00743 988.68z"/><path class="cls-18" d="M760.71 962.63a28.39 28.39 0 00-8.1 5 28.94 28.94 0 00-9.61 21.05 8.51 8.51 0 012.11-.21c.47-5.19 1.65-10.66 4.26-15.16a26.67 26.67 0 0111.34-10.68z"/><path class="cls-20" d="M663.12 946.41s7.34.76 16-5.48l-.31 3.63s-5.56 5.17-16.34 5.05zm29.99-46.25a70.72 70.72 0 01-.54 18.95l3.6-1.19a56.78 56.78 0 000-19z"/><path class="cls-20" d="M663.11 946.45c7.19.06 14.16-3.29 19.34-8.27a35 35 0 0010.37-20.68 74.31 74.31 0 00.3-17.33s-15.58 4.83-27.65 12.19z"/><path class="cls-20" d="M674 922.9a4.44 4.44 0 00.86 3.25 4.17 4.17 0 001.6 1.17 4.87 4.87 0 004.25-.19 4.42 4.42 0 002.23-3.58 4 4 0 00-2-3.66c-2.94-1.61-6.5-.77-6.94 3.01z"/><path class="cls-17" d="M675.53 926.92a5.32 5.32 0 002.51.57 5.23 5.23 0 002.37-.6 4.89 4.89 0 002.59-4.09 3.74 3.74 0 01-.12 2.79 4.36 4.36 0 01-2 2.14 4.77 4.77 0 01-2.85.5 3.77 3.77 0 01-2.5-1.31z"/><path class="cls-27" d="M681.4 920.22a7.6 7.6 0 00-3-.4 3.75 3.75 0 00-2.48 1.15 4.59 4.59 0 00-1.08 2.58 5 5 0 00.51 2.93 4 4 0 01-1.24-3 5.82 5.82 0 01.24-1.67 4.32 4.32 0 01.87-1.51 4 4 0 013.15-1.25 5.16 5.16 0 013.03 1.17z"/><path class="cls-17" d="M663.12 946.41a33.91 33.91 0 0011.15-3 31.21 31.21 0 005-2.89 44 44 0 004.52-3.68 29.11 29.11 0 01-1.9 2.26 21.84 21.84 0 01-2.19 2 23.58 23.58 0 01-5 3.16 24 24 0 01-5.65 1.85 19.56 19.56 0 01-5.93.3z"/><path class="cls-18" d="M693.2 901a50.53 50.53 0 01.41 9.35 60 60 0 01-1.18 9.32 45.94 45.94 0 01-3 8.91 31 31 0 01-5.28 7.73 39.63 39.63 0 002.54-3.9 22.81 22.81 0 001.11-2l1-2.1a51.28 51.28 0 002.76-8.81 70.13 70.13 0 001.38-9.16q.22-2.31.28-4.64c.02-1.63.01-3.18-.02-4.7z"/><path class="cls-17" d="M661 1009.51c4.11-1.81 8.32-3.4 12.53-5 2.11-.77 4.24-1.48 6.37-2.22l6.41-2.1c8.57-2.74 17.27-5 26-7.07a261.25 261.25 0 0126.55-4.78 219 219 0 0126.89-1.91q-3.35.37-6.7.68l-3.35.33-3.33.45c-2.22.29-4.45.53-6.67.84l-6.64 1c-8.83 1.49-17.63 3.13-26.35 5.18s-17.4 4.22-26 6.61l-6.46 1.85-6.43 2c-4.26 1.31-8.52 2.72-12.82 4.14z"/><path class="cls-18" d="M633.49 905.67c5.34.51 10.66 1.21 15.94 2.2a121.73 121.73 0 0115.61 4h-.24a161.88 161.88 0 0114.93-7.28c5.1-2.16 10.31-4.06 15.57-5.77 10.53-3.43 21.28-6.1 32.06-8.55h8.92a151.62 151.62 0 0130.54-4.6c10.28-.66 20.58-.57 30.87-.6-10.29.23-20.58.45-30.83 1.18a161 161 0 00-30.36 4.84h-8.94c-10.75 2.53-21.49 5.14-32 8.51a181.25 181.25 0 00-30.48 12.76l-.12.06h-.12a153.4 153.4 0 00-31.35-6.75z"/><path style="isolation:isolate" opacity=".41" fill="#1a2027" d="M567.67 766.12l2.44 201.74 8.54 2.14-1.75-19 .37-201.98-9.6 17.1z"/><path class="cls-17" d="M764.62 841.45a135.35 135.35 0 00-14.34.86q-7.12.78-14.17 2.07c-2.34.47-4.7.87-7 1.44l-3.5.77-3.48.87q-1.75.41-3.47.9l-3.47.94c-2.32.61-4.59 1.37-6.93 2q3.3-1.45 6.67-2.77c2.27-.79 4.52-1.67 6.84-2.33a126.83 126.83 0 0114-3.47 119 119 0 0114.37-1.73 73.75 73.75 0 0114.48.45z"/></g></svg>