<svg id="layer_1" data-name="layer 1" xmlns="http://www.w3.org/2000/svg" viewBox="0 0 42.86 63.86"><defs><style>.cls-1{fill:#e2b84d}.cls-6{fill:#b86621}.cls-7{fill:#fa8b39}.cls-8{fill:#884a12}</style></defs><g id="layer_1-2" data-name="layer 1"><path class="cls-1" d="M6.67 56.22s7.47-2 13.82-3.59h1.85L35.14 56z"/><path class="cls-1" d="M22.87 40.74c.11-2.8-.24-6.8 1.4-9.27.46-1.72 3.84-2.86 5-3.67 2.24-1.51 3.51-4.23 4.35-6.78.1-.31.18-.62.28-.93h-25c.09.31.17.62.27.93.84 2.55 2.11 5.27 4.35 6.78 1.23.84 4.81 2 5.09 3.83a7 7 0 011 3.34c.24 2.68.32 5.38.42 8.07.12 3.39.25 6.77.49 10.15.09 1.26.18 2.53.24 3.79h1.45c.13-5.42.45-10.83.66-16.24z"/><path d="M29.32 36c-1.25-.84-4.84-2-5.09-3.85v-.52c.25-1.82 3.85-3 5.09-3.85 2.24-1.51 3.51-4.23 4.35-6.78A44.92 44.92 0 0035.6 7v-.18H7.28V7a45 45 0 001.93 14c.84 2.55 2.11 5.27 4.35 6.78 1.24.84 4.84 2 5.09 3.85v.08a1.47 1.47 0 010 .18 1.58 1.58 0 010 .19v.07c-.25 1.82-3.85 3-5.09 3.85-2.24 1.51-3.51 4.23-4.35 6.78a45 45 0 00-1.93 14V57h28.31v-.22a44.91 44.91 0 00-1.93-14c-.84-2.53-2.1-5.24-4.34-6.78z" style="isolation:isolate" opacity=".7" fill="#66c9d6"/><path d="M29.08 35.81c-1.25-.81-4.84-2-5.08-3.81v-.08a1.54 1.54 0 010-.19 1.51 1.51 0 010-.18v-.07c.25-1.82 3.85-3 5.09-3.85 2.24-1.51 3.51-4.23 4.34-6.78a45 45 0 001.93-14v-.26H7v.22a44.89 44.89 0 002 14c.83 2.55 2.1 5.27 4.34 6.78 1.24.84 4.84 2 5.09 3.85v.26a1.86 1.86 0 010 .19V32c-.25 1.82-3.85 3-5.09 3.85-2.26 1.49-3.53 4.2-4.34 6.75a44.9 44.9 0 00-2 14v.22h28.36v-.22a45 45 0 00-1.93-14c-.84-2.6-2.11-5.28-4.35-6.79zM11.71 22C9.07 17.84 9 9.49 9 9.49h21s-.45 5.85-1.28 10.33c-1 5.23-5 8-8 8s-6.37-1.54-9.01-5.82zm-3 32.52s.35-9.57 3-13.78S17.54 35 20.6 35s7.09 2.82 8 8c.82 4.48 1.28 11 1.28 11z" style="isolation:isolate" fill="#009adb" opacity=".3"/><path d="M35.59 57.7H7.28a.72.72 0 01-.72-.7v-.23a45.38 45.38 0 012-14.18c1.15-3.53 2.63-5.81 4.62-7.15a13.6 13.6 0 011.45-.8c1.26-.62 3.14-1.57 3.32-2.51a.66.66 0 010-.12v-.13a.63.63 0 010-.12c-.18-1-2.07-1.89-3.32-2.52a14.16 14.16 0 01-1.45-.79c-2-1.35-3.47-3.62-4.62-7.15a45.38 45.38 0 01-2-14.18v-.24a.72.72 0 01.72-.71h28.31a.72.72 0 01.72.71V7a45.23 45.23 0 01-2 14.18c-1.1 3.56-2.59 5.82-4.59 7.18a13.7 13.7 0 01-1.45.79c-1.26.63-3.14 1.57-3.32 2.52a.85.85 0 010 .12v.09a.66.66 0 010 .12c.18.94 2.07 1.89 3.32 2.51a13.17 13.17 0 011.45.8c2 1.34 3.47 3.62 4.63 7.15a45.23 45.23 0 012 14.18v.23a.72.72 0 01-.65.79zM8 56.26h26.87A43.45 43.45 0 0033 43c-1-3.17-2.36-5.26-4.06-6.41-.29-.19-.78-.44-1.29-.7-1.73-.86-3.87-1.94-4.11-3.65a.61.61 0 010-.1 1.26 1.26 0 010-.17.31.31 0 010-.08 1.71 1.71 0 010-.2.54.54 0 010-.1c.24-1.72 2.39-2.79 4.11-3.66a12.57 12.57 0 001.29-.69c1.7-1.15 3-3.24 4.06-6.41a43.46 43.46 0 001.9-13.24H8a43.41 43.41 0 001.9 13.24c1 3.16 2.36 5.26 4.06 6.41a12.68 12.68 0 001.29.69c1.73.87 3.88 1.94 4.11 3.66a.78.78 0 010 .1v.45a.89.89 0 010 .1C19.13 34 17 35 15.21 35.92a13.59 13.59 0 00-1.29.7c-1.7 1.15-3 3.24-4.06 6.41A43.41 43.41 0 008 56.26z" style="isolation:isolate" fill="#06aac7" opacity=".7"/><path d="M10.09 10.65s-.16 12.79 8.41 16.48a46.28 46.28 0 01-3-16.48zm0 42.35s-.16-12.75 8.41-16.44a46.25 46.25 0 00-3 16.44z" style="isolation:isolate" fill="#fff" opacity=".5"/><path class="cls-6" d="M4.21 4a1.82 1.82 0 00-1.82 1.86v51.68a1.82 1.82 0 003.64 0V5.86A1.82 1.82 0 004.21 4z"/><path class="cls-6" d="M6 9.36v-3.5a1.82 1.82 0 00-3.64 0v3.5zM2.38 54.6v2.94a1.82 1.82 0 003.64 0V54.6z"/><path class="cls-7" d="M4.44 52c0 .78-.31 1.41-.69 1.41-.38 0-.69-.63-.69-1.41V12c0-.78.31-1.4.69-1.4.38 0 .69.63.69 1.4z"/><path class="cls-6" d="M38.13 4a1.82 1.82 0 00-1.82 1.82v51.72a1.83 1.83 0 003.65 0V5.86A1.82 1.82 0 0038.14 4z"/><path class="cls-6" d="M40 9.36v-3.5a1.83 1.83 0 10-3.65 0v3.5zM36.3 54.6v2.94a1.83 1.83 0 003.65 0V54.6z"/><path class="cls-7" d="M38.36 52c0 .78-.31 1.41-.68 1.41-.38 0-.69-.63-.69-1.41V12c0-.78.3-1.4.69-1.4.38 0 .68.63.68 1.4z"/><path class="cls-8" d="M42.86 59.66c0 2.32-1.53 4.2-3.43 4.2h-36C1.54 63.86 0 62 0 59.66c0-2.32 1.54-4.2 3.43-4.2h36c1.89 0 3.43 1.88 3.43 4.2z"/><path class="cls-7" d="M40.58 59.5a3.38 3.38 0 01-3.21 3.5H3.62a3.38 3.38 0 01-3.21-3.5A3.38 3.38 0 013.62 56h33.75a3.38 3.38 0 013.21 3.5z"/><path class="cls-7" d="M17 58.11a1.32 1.32 0 01-1.17 1.43H3.55a1.32 1.32 0 01-1.16-1.43 1.32 1.32 0 011.16-1.43h12.26A1.32 1.32 0 0117 58.11z"/><path class="cls-8" d="M42.86 4.2c0 2.32-1.53 4.21-3.43 4.21h-36C1.54 8.41 0 6.52 0 4.2 0 1.88 1.54 0 3.43 0h36c1.89 0 3.43 1.88 3.43 4.2z"/><path class="cls-7" d="M40.58 4a3.38 3.38 0 01-3.21 3.53H3.62A3.38 3.38 0 01.41 4 3.38 3.38 0 013.62.51h33.75A3.38 3.38 0 0140.58 4z"/><path class="cls-7" d="M17.85 2.74a1.4 1.4 0 01-1.24 1.52h-13a1.4 1.4 0 01-1.24-1.52 1.41 1.41 0 011.24-1.52h13a1.4 1.4 0 011.24 1.52z"/></g></svg>