<svg id="Layer_1" data-name="Layer 1" xmlns="http://www.w3.org/2000/svg" viewBox="0 0 296.76 296.74"><defs><style>.cls-1{fill:#b0b297}.cls-2{fill:#a5a58e}.cls-3{fill:#eae8d6}.cls-4{fill:#5b5845}.cls-5,.cls-9{fill:#4c4a38}.cls-5{opacity:.54}.cls-10,.cls-13,.cls-5,.cls-6,.cls-7{isolation:isolate}.cls-6{fill:#605d4a;opacity:.45}.cls-7{fill:#fefbeb;opacity:.65}.cls-8{fill:#77745f}.cls-10{fill:#d3ceba;opacity:.3}.cls-11{fill:none;stroke:#77745f;stroke-linecap:round;stroke-linejoin:round;stroke-width:0}.cls-12{fill:#a49e85}.cls-13{fill:#51493c;opacity:.55}</style></defs><path class="cls-1" d="M195.84 274.71c0 .44-.07.88-.11 1.32.04-.44.09-.88.11-1.32zm100.87-142.56h.01-.01zm-57.45 152.46a13.73 13.73 0 01-.31 1.87 13.74 13.74 0 00.31-1.87zM42.29 280c.39 1 .77 2 1.17 3l-1.17-3zm182.4-79.36a12.12 12.12 0 011.1-1 12.32 12.32 0 00-1.09 1zm-28.86 71.8v1.88c.03-.63.03-1.26 0-1.88zM33.17 211.89l.77-.2zm205.64-5.77a11.67 11.67 0 002.05-1.26l.08-.07c.23-.18.44-.38.65-.57l.3-.29c.13-.13.24-.27.36-.4s.29-.35.41-.53l.15-.22c.07-.1.12-.21.18-.32a9.93 9.93 0 01-4.18 3.66zm6.04 73.46l-.16-.47zm-49.22-9.37c.08.64.14 1.29.18 1.94-.04-.65-.09-1.3-.18-1.94zM209.1 249a4.45 4.45 0 005.79 3.69 7.26 7.26 0 002.07-1.06 9.92 9.92 0 01-.77 1 9.33 9.33 0 00.81-1 8.28 8.28 0 00.75-1.44 8.28 8.28 0 01-.75 1.44 7.26 7.26 0 01-2.07 1.06 4.45 4.45 0 01-5.83-3.69 7.11 7.11 0 01-.08-.77 9.18 9.18 0 01.88-1.18 7.51 7.51 0 014.85-2.66 7.47 7.47 0 00-4.87 2.66 9.17 9.17 0 00-.86 1.15 7.11 7.11 0 00.08.8zM269 117.92q.63.25 1.24.53-.59-.28-1.24-.53zM293.61 133a10.86 10.86 0 01-3 .42 10.86 10.86 0 003-.42zm3.1 68.09c-5.23 2.55-10.57 4.87-15.69 7.66a6.42 6.42 0 01-1.77.77 6.21 6.21 0 01-1.21.09 6.21 6.21 0 001.21-.09 6.42 6.42 0 001.77-.77c5.11-2.79 10.46-5.12 15.69-7.66v-10.68z"/><path class="cls-1" d="M271 118.88l.38.15c3 1.22 6 2.4 9 3.59s6.62 3.27 9.83 3.73c.28 0 .57.05.85.06q-.42 0-.83-.06c-3.21-.46-6.83-2.54-9.83-3.73s-6-2.37-9-3.59q-.6-.31-1.21-.6.61.28 1.21.6zM76.54 47.35zM213.65 254.6a9.48 9.48 0 003.65-2.49 9.47 9.47 0 01-3.42 2.35z"/><path class="cls-1" d="M282.08 217.33c-6.82 7.66-10 18-16.25 26 5.94.81 11.86 1.69 16.86 5.3a16.23 16.23 0 016.94 13.37 15.51 15.51 0 01-14.93 15.71c-14.78.81-25.69-10.48-34.57-20.89h-.05l-.32.13.29-.17-2.05-2.46c-3.94-4.66-7.75-9.91-8.32-16a6.74 6.74 0 01.53-3.81 5.68 5.68 0 015.32-2.6c6 .27 10 5.09 15 7.59a35.32 35.32 0 0010.59 3.12c3.43-3.92 5.78-8.52 8.77-13.51.64-1.08 1.42-2.19 2.23-3.31 1.94-2.72 4-5.58 4.64-8.51a59.49 59.49 0 00-15.41-6 58.67 58.67 0 016.59 1.94l-.59.49a32.91 32.91 0 01-31 4.82 8 8 0 01-2.4-1.25c-1.72-1.43-2.16-3.93-2-6.17a17.19 17.19 0 01.22-1.82 18.75 18.75 0 004.87-.75 11.26 11.26 0 001.15-.42 7.92 7.92 0 005.1-6.09 7.92 7.92 0 01-5.09 6 11.25 11.25 0 01-1.15.42 18.75 18.75 0 01-4.88.76 20.511 20.511 0 000-.01h-1.35a12.16 12.16 0 01-5.06-1.07 5.92 5.92 0 01-3.24-3.85c-.79-3.6 1.9-6 4.76-7.36-.22.18-.42.36-.62.55l.24-.21c.14-.13.27-.25.42-.37l.1-.08c-.19.14-.35.3-.52.45s-.35.33-.51.49a7.5 7.5 0 00-1.22 1.74 7.51 7.51 0 012.23-2.56l.18-.14a11.27 11.27 0 01.94-.64l.37-.21.7-.36.47-.22c.32-.14.66-.26 1-.38l.6-.19.76-.2.42-.11a13.19 13.19 0 015.81 0 9 9 0 012.55 1 5.24 5.24 0 012.17 2.29 5.13 5.13 0 00-2.16-2.3 9 9 0 00-2.55-1c2.14-4.25 3.76-8.48 2.92-13-1.3-6.88-7.66-11.38-13.3-15.51-14.67-10.77-15.09-35.4-4.31-49.92 1.07.24 2.07.47 3.07.73a89.7 89.7 0 0010.8 1.62 89.68 89.68 0 01-10.81-1.62c-1-.27-2.07-.5-3.07-.73-1.32-.3-2.67-.61-4-1l-5.53-1.64a43.75 43.75 0 01-5.26-2c-1.2-.53-2.4-1.15-3.62-1.61a7.9 7.9 0 00-1.54-.56h-.06a24.82 24.82 0 01-2.68-.41 26 26 0 0117.82-.58 53.39 53.39 0 018.61 3.66 49.15 49.15 0 019.53-7.28c11.36-6.8 24.42-7.4 37-4.25 7.59 1.91 14.8 7.32 22.58 8.55V50v6.83c-6.62 4.05-14.86 9.33-16.33 10.26-5.06 3.25-10 6.77-15 10.19l11.43-10-11.43 9.95-5.72 5c8.59-15.47 22-26.37 37.06-35V0h-45c-.47.57-1 1-1.47 1.57A29 29 0 00248 4.19a14.59 14.59 0 00-2.24 4.35 8.08 8.08 0 01.26 1.76 14.19 14.19 0 01-.17 2.27 23.24 23.24 0 01-.56 2.95v1.82c-.25 2.91-2.11 5.33-4 7.4a35.06 35.06 0 01-3.37 3.15c.88-1 1.72-2 2.54-3.08-.82 1-1.67 2.07-2.54 3.07s-1.65 1.83-2.5 2.72l-.21.22c-.56.71-1.14 1.41-1.74 2.08.16-.54.33-1.07.49-1.6 1.17-3.84 2.46-7.56 3.92-11.31 2.21-5.74 1.86-10.21-1.53-15.56-.72-1.14-1.5-2.23-2.29-3.32-.3-.38-.58-.76-.86-1.15.29.39.57.77.86 1.15.79 1.09 1.57 2.18 2.29 3.32 3.39 5.35 3.74 9.82 1.53 15.56-1.46 3.75-2.75 7.47-3.92 11.31-.31.29-.6.59-.89.89-3.19 3.35-5.68 7.36-9.07 10.5a18.76 18.76 0 01-5.43 3.53 6.13 6.13 0 00-.35-.51 9.48 9.48 0 00-4.62-3.69c-1.77-.93-3.61-.93-4.77.07a3.57 3.57 0 00-1 3.07c-5.25-3.87-7.35-12.3-12.47-17a26 26 0 00.29-8.41v.07a26.32 26.32 0 01-3.89 17.31 53.35 53.35 0 01-12.58 13.68l.12-.23c3.43-6.73 8.65-12.19 12-19.07a31.58 31.58 0 001.47-3.72 30.85 30.85 0 01-1.51 3.75c-3.4 6.87-8.61 12.33-12 19.07a26.74 26.74 0 01-2 2.16 89.64 89.64 0 014.26-10.06c1.18-2.14 2.19-4.36 3.44-6.45l3-5a43.75 43.75 0 013.25-4.6l.71-.87c-15.91-7.65-30 16.83-47.7.83-5.74-5.17-10.75-12.17-18.36-13.52-3.2-.57-6.43 0-9.65.56a50.3 50.3 0 015.2 13.68c-.5-1-1-2-1.56-3-2.77-3.34-5.38-6.74-8.17-10a15.62 15.62 0 01-1.92.18 23.9 23.9 0 01-16.55-5.39C90.29 6.71 87.7 3.38 84 2.71c-3.15-.56-6.15.87-9.15 1.94C68.29 7 59.6 7.23 51.23 5.49c-.37.63-.75 1.27-1.17 1.88l-2.6 3.84a35.1 35.1 0 01-2.85 3.53c-.7.79-1.46 1.55-2.11 2.38a6.37 6.37 0 00-.67.81c-.24.55-.5 1.09-.77 1.61 7.55 4.7 13.8 12 19.3 18.51 3.94 4.66 7.75 9.91 8.32 16a6.74 6.74 0 01-.53 3.81 5.68 5.68 0 01-5.32 2.6c-6-.27-10-5.06-15-7.59-10.17-5.18-22.71-2.3-32.17-9.1A16.23 16.23 0 018.7 30.42 15.51 15.51 0 0123.63 14.7a29.15 29.15 0 0117.1 4.66A21.08 21.08 0 0144.59 6.3c.52-.72 1.07-1.42 1.64-2.11A44.32 44.32 0 0136.75 0H0v47.24c15 8.67 28.47 19.58 37.07 35l-5.72-5c-5-3.42-9.94-6.94-15-10.15-1.49-.87-9.73-6.2-16.35-10.2V109c7.8-1.23 15-6.65 22.62-8.56 12.58-3.15 25.64-2.55 37 4.25A49.15 49.15 0 0171 113.86c12.63 14.07 13 40.84-2.49 52.14-5.64 4.13-12 8.63-13.3 15.51-.84 4.55.77 8.75 2.89 12.94h.07a13.19 13.19 0 015.81 0l.42.11.76.2.6.19c.34.11.68.24 1 .38l.47.22c.24.11.47.23.7.36l.37.21a11.29 11.29 0 01.94.64l.18.14.19.17c2.81 1.37 5.4 3.75 4.63 7.29a5.92 5.92 0 01-3.24 3.86 12.16 12.16 0 01-5.07 1.09h-1.31a17.16 17.16 0 01.22 1.81c.16 2.24-.28 4.74-2 6.17a8 8 0 01-2.4 1.25 32.91 32.91 0 01-31-4.82l-.57-.47a59.47 59.47 0 00-9 4.06c.64 2.93 2.7 5.79 4.64 8.51.81 1.12 1.59 2.23 2.23 3.31 3.41 5.65 5.93 10.77 10.16 15a28.16 28.16 0 005.28 4.15q7.14 4.49 14.5 8.61l.19.08q-7.46-4.17-14.69-8.72A28.16 28.16 0 0137 244.1a35.73 35.73 0 0010.86-3.16c5-2.53 9-7.32 15-7.59a5.68 5.68 0 015.32 2.6 6.74 6.74 0 01.53 3.81c-.57 6.09-4.38 11.34-8.32 16C51 266.74 39.63 280 23.63 279.15A15.51 15.51 0 018.7 263.43 16.23 16.23 0 0115.63 250c4.92-3.54 10.68-4.45 16.5-5.25a35.81 35.81 0 0011.32 8.69c.68.33 1.37.63 2.07.92-.7-.29-1.39-.6-2.06-.93a35.81 35.81 0 01-11.32-8.69l-.41-.46c-6.81-8.15-10-19-17.07-27-3.27-3.61-7.08-4.89-11.38-6.54-1.11-.49-2.2-1-3.28-1.54v87.45h36.82a44.31 44.31 0 019.41-4.15 42.78 42.78 0 003.9 4.15 42.79 42.79 0 01-3.9-4.15c-.57-.69-1.12-1.39-1.64-2.11a21.09 21.09 0 01-3.84-13.82 20.41 20.41 0 011.06 2.17 6.38 6.38 0 00.68.82c.65.83 1.41 1.59 2.11 2.38a35.11 35.11 0 012.85 3.51l2.6 3.84c.41.62.8 1.25 1.17 1.88 8.37-1.74 17.06-1.48 23.57.84 3 1.06 6 2.5 9.15 1.94 3.76-.66 6.34-4 9.26-6.42a23.9 23.9 0 0116.52-5.53c.63 0 1.27.1 1.9.18 2.79-3.25 5.39-6.65 8.17-10 .58-1 1.07-2 1.58-3a50.31 50.31 0 01-5.18 13.68c3.22.56 6.43 1.12 9.63.55 7.61-1.35 12.63-8.36 18.36-13.52 17.7-16 31.79 8.47 47.69.84l-.66-.81a43.75 43.75 0 01-3.25-4.6l-3-5c-1.25-2.1-2.26-4.32-3.44-6.45a89.65 89.65 0 01-4.26-10.07c.44.44 1.18 1.24 2 2.16 3.43 6.73 8.65 12.19 12 19.07 1.42 2.93 2.17 6.2 3.28 9.17-1.11-3-1.86-6.25-3.24-9.17-3.4-6.87-8.61-12.33-12-19.07l-.12-.23a53.35 53.35 0 0112.58 13.68 26.31 26.31 0 013.81 10.34c-.07-.47-.13-.93-.22-1.4 5.13-4.65 7.22-13.08 12.47-17a3.57 3.57 0 001 3.07 3.33 3.33 0 002.94.69 3.16 3.16 0 01-3.91-3.72 7.17 7.17 0 011-3c0-.11.1-.21.14-.31a4.07 4.07 0 01.45-.74c1.69-2.13 3.82-4.08 6.69-3.84a6.14 6.14 0 01.7.1 3.72 3.72 0 01.94.31 3.26 3.26 0 011.61 2.33 6.14 6.14 0 01-.81 4v.06A18.77 18.77 0 01224 254c3.4 3.14 5.88 7.15 9.07 10.5.29.31.59.6.89.89-.17-.53-.33-1.06-.49-1.6.64.71 1.26 1.45 1.85 2.21l.07.08q1.28 1.33 2.5 2.72c1.5 1.71 2.93 3.48 4.27 5.32a23.26 23.26 0 011.3 2.23 23 23 0 00-1.28-2.24 75.283 75.283 0 00-4.27-5.32 35.13 35.13 0 013.37 3.15c1.85 2.07 3.71 4.5 4 7.4v1.87a23.25 23.25 0 01.55 2.91 14.19 14.19 0 01.17 2.27 8.08 8.08 0 01-.26 1.76 14.3 14.3 0 01-1.33 3.22 14 14 0 001.34-3.22 14.59 14.59 0 002.21 4.41 29 29 0 002.32 2.61c.46.51 1 1 1.44 1.54h45v-87.49c-1.08.53-2.15 1-3.26 1.53-4.3 1.69-8.12 2.97-11.38 6.58zm-49.73-22.75l-.76.2zM231 195c-.34.11-.68.24-1 .38.32-.16.66-.29 1-.38zm-1.48.61c-.24.11-.47.23-.7.36.18-.15.46-.27.7-.38zm-1.08.57a11.25 11.25 0 00-.94.64 11.25 11.25 0 01.94-.66zm1.23-140.63c.57-6.09 4.38-11.34 8.32-16 9.28-11 20.69-24.25 36.67-23.39a15.49 15.49 0 0114.93 15.72 16.21 16.21 0 01-1 5.54c-.07.2-.15.4-.23.6s-.28.66-.44 1-.24.49-.37.72a16.21 16.21 0 01-5 5.54l-.26.17c-9.29 6.55-21.69 3.77-31.77 8.9-5 2.53-9 7.32-15 7.59a5.68 5.68 0 01-5.32-2.6 6.74 6.74 0 01-.53-3.81zm-20.79-13.34c1.15-1.07 3-1 4.77-.07a8.21 8.21 0 011.66 1.1 10 10 0 01.9.89 9.35 9.35 0 00-.94-.93 8.21 8.21 0 00-1.66-1.1 9.48 9.48 0 014.6 3.66 6.13 6.13 0 01.35.51l-.83.31a8.29 8.29 0 00-.76-1.46 8.29 8.29 0 01.76 1.47c.8 2 .68 3.93-.53 5a3.67 3.67 0 01-3.44.61 3.68 3.68 0 003.47-.6c1.21-1.07 1.33-3 .53-5l.83-.31a6.14 6.14 0 01.85 4.11 3.26 3.26 0 01-1.63 2.35 3.72 3.72 0 01-.94.31 6.15 6.15 0 01-.7.1c-2.87.24-5-1.71-6.69-3.84a4.08 4.08 0 01-.57-1 7.17 7.17 0 01-1-3 3.57 3.57 0 01.97-3.11zm-14.22 25.45a8.6 8.6 0 012-.2c6.51.06 14 6.84 13.39 13.08a2.23 2.23 0 01-2 2.39h-.15a5.68 5.68 0 01-.73.07c-7.69.31-23.53-12.81-12.51-15.34zm-87.91-.09a9.18 9.18 0 013.33.09c11 2.53-4.79 15.64-12.43 15.34a5.64 5.64 0 01-.72-.07h-.15a2.23 2.23 0 01-2-2.39c-.67-5.8 5.81-12.07 11.97-12.97zM65.39 26.45h-.15a2.23 2.23 0 01-2-2.39c-.52-5.15 4.52-10.68 10-12.48a10.17 10.17 0 015.38-.4c11.31 2.61-5.93 16.5-13.23 15.27zM79 83.77c-.2.87-.41 1.72-.66 2.49-1.43 4.47-3 8.13-3 12.49a18.35 18.35 0 00.27 3.13q.86 5.45 2 10.85c-.22-1.08-1.81-2.61-2.35-3.67a22.71 22.71 0 01-1.67-4.36 23.13 23.13 0 01-.59-9.57c1.08-6.78 5-12.93 5.89-19.78.37-3.12-.63-5.52-1.63-8.33a48.09 48.09 0 01-2.05-10.18A26.66 26.66 0 0176.45 45c0 .78.08 1.54.08 2.31a26.28 26.28 0 001.42 5.46c.29.89.68 1.76 1 2.66a35.87 35.87 0 011 3.5c1.09 4.47 2.58 8.84 3.58 13.34a4.14 4.14 0 00.38 1.19 4 4 0 00.47.63c1.34 1.56 2.78 3.06 4 4.71a9.5 9.5 0 01.71 1.48 7.21 7.21 0 011.59 2.67v.07a37.91 37.91 0 00-9.51-5C80 79.44 79.5 81.67 79 83.77zm-.47 200.41c-3.85.86-8.44-1.15-11.6-4.29a15.26 15.26 0 01-1.87-2.25 13 13 0 01-.73-1.21 9.41 9.41 0 01-1.18-4.48v-.65a2.23 2.23 0 012-2.39h.15a7.21 7.21 0 012.28 0 12.84 12.84 0 011.72.4 18.35 18.35 0 011.81.66 25.41 25.41 0 013.67 1.93 21.27 21.27 0 016.43 5.95 6.85 6.85 0 01.9 2c.57 1.97-.37 3.6-3.58 4.33zm8.61-99.57c-2.51 2.52-7.61 1.52-11.38-2.24q-.36-.36-.68-.73c-3.21-3.67-4-8.29-1.6-10.66 2.51-2.52 7.61-1.52 11.38 2.24a12.38 12.38 0 013.5 6.17 5.63 5.63 0 01-1.22 5.22zm118.17-32.49c-.48.14-1 .28-1.5.41-.75.19-1.54.36-2.34.52-5.25 1.35-11.48 2.59-15.1 4.26a11 11 0 00-1.31.72c-11.19 7.39 25.14 11.13 4.95 19.75-6.36 2.73-15.28 5.31-16.36 8.49-.75 2.23 2.62 4.24 3.53 6.39 1 2.4-1.12 4.94-5.86 7.11-3 1.38-7.19 2.68-7.73 4.25-.45 1.18 1.35 2.25 3 3.25a57 57 0 0110-5.64 15.74 15.74 0 016-1.22 17.09 17.09 0 0111.72 4.94c.33.3.68.71.56 1.14l-.12-.06v.06c-.78-.39-1.59-.75-2.4-1.1-2.32-.26-6.31 0-7.66-.06-3.53-.11-6 1.16-9 3.15l-5 3.29-.08.05.09-.06c2.29 6.06-4.7 14-22.21 17.23h-.24l-1.43-.28a34.36 34.36 0 00-4.5 5.21 1.68 1.68 0 01-.6.62 2.12 2.12 0 01-1.59-.27 14.25 14.25 0 00-4.23-1.27c-6.21-.91-13 1.92-18.86 4.76-3.93 1.91-7.85 3.75-11.62 5.91-1.89 1.08-9.29 7.5-11.72 8.62l.06-.09-.17.09c1-1.48 2.55-3.84 3.4-5.1l-.13.1a39.39 39.39 0 013.54-5.29 17.66 17.66 0 013.77-4c3.83-2.63 8.23-3.74 12.3-5.82 3.47-1.77 5.74-3.32 9.85-3.71 4.73-.45 10.18 1.29 14-1.47-10.5-3.44-15.21-9-14.62-13.74a8.09 8.09 0 014-5.72c1.39-.91 3.1-1.82 3.47-2.83a1.06 1.06 0 000-.69c-.54-1.57-4.71-2.87-7.73-4.25-3.87-1.77-6-3.79-6.09-5.77v-.44a3.08 3.08 0 01.23-.93c.68-1.6 2.73-3.13 3.41-4.73a2.25 2.25 0 00.11-1.63c-1.08-3.18-10-5.76-16.36-8.49-5.39-2.3-6.75-4.25-6.06-6 1.38-3.73 11.92-6.63 13.11-10.22.34-1.09-.18-2.25-2.09-3.51a21.21 21.21 0 00-5.22-2.17c-1.42-.43-3-.83-4.55-1.22-2.23-.55-4.54-1.07-6.7-1.61-.8-.17-1.59-.34-2.34-.52-4-1-7.2-2.47-7.1-4.12a1.34 1.34 0 01.12-.62c.4-1 1.92-1.87 4-2.61a30.57 30.57 0 013-.89c.76-.21 1.55-.38 2.35-.55 1.8-.46 3.71-.91 5.59-1.37q-.27-.44-.49-.89a4.94 4.94 0 01-.91-2.61 6.95 6.95 0 01.38-3.33c1.06-3 3.65-4.77 5.78-4a3.76 3.76 0 012.08 2.27v.07A11.59 11.59 0 01109 137a6.08 6.08 0 01.16 2.81.23.23 0 010 .17 14.3 14.3 0 002.62-1.28c11.19-7.38-25.13-11.12-5-19.75 6.37-2.73 15.28-5.31 16.36-8.49.76-2.23-2.62-4.24-3.53-6.39-.63-1.56 0-3.18 1.88-4.72a38.83 38.83 0 01.91-11.63v.12-.09c.09.67.15 1.34.22 2v-.06c.21 2.61.84 5.2 1.15 7.85v.26q.75-.41 1.61-.81c3-1.37 7.19-2.68 7.73-4.25.45-1.3-1.77-2.43-3.48-3.55-8.82-5.79-3.43-17.42 18.6-21.42h.13q2.07.38 3.95.84c18.77 4.59 23 15.16 14.73 20.6-1.71 1.12-3.93 2.25-3.48 3.55.54 1.57 4.73 2.88 7.73 4.25 4.73 2.17 6.86 4.71 5.86 7.11-.91 2.15-4.29 4.16-3.53 6.39 1.08 3.18 10 5.76 16.36 8.49 20.18 8.63-16.14 12.37-4.95 19.75a14.41 14.41 0 002.57 1.26.24.24 0 00-.06-.18 6.08 6.08 0 01.16-2.81 10.79 10.79 0 011.52-3.45 3.41 3.41 0 011.38-1.47 3.73 3.73 0 01.5-.27l.32-.09-.32.08a2.85 2.85 0 00-.46.24 3.72 3.72 0 01.5-.27c2.13-.77 4.72 1 5.78 4a7.2 7.2 0 01.22 4.29v.13a4.37 4.37 0 01-.7 1.4 10.19 10.19 0 01-.49.9c1.87.46 3.77.9 5.56 1.36.8.16 1.59.33 2.34.52 4 1 7.2 2.47 7.1 4.12.12 1.33-2.34 2.64-5.64 3.61zm4.28 32.49a4.67 4.67 0 01-1.23-2.32c-.6-2.67.67-6.25 3.51-9.07 3.77-3.76 8.87-4.76 11.38-2.24a4.52 4.52 0 011 1.67c1 2.72-.25 6.66-3.32 9.71-3.74 3.76-8.83 4.77-11.34 2.25z"/><path class="cls-1" d="M284.27 196.25a54.37 54.37 0 00-5.17 5.15 54.8 54.8 0 015.17-5.15zM51.23 291.23c.62 1 1.21 2.1 1.83 3.15.43.75.84 1.54 1.24 2.31-.41-.78-.82-1.57-1.26-2.34-.6-1.02-1.19-2.12-1.81-3.12zM293.61 133c1-.25 2.1-.54 3.1-.84-1.03.3-2.1.59-3.1.84zm-49.35 145c-.18-.44-.38-.87-.59-1.3q.33.64.59 1.3zM25.54 118.94l.07-.06-.3.15zm27.84 82.81c.06.14.13.27.2.41s.18.33.28.49.22.34.35.51l.17.22a11.28 11.28 0 004.76 3.27v-.05c-3.28-1.23-5.61-3.55-6-6v-.06a4.7 4.7 0 01-.06-.5v-.14a4.43 4.43 0 010-.45v-.13a4.43 4.43 0 01.06-.44c0-.11.06-.21.09-.32 0 .1-.08.2-.11.31a.68.68 0 000 .12 1.21 1.21 0 010 .19v.82a4.63 4.63 0 00.06.5v.06c0 .12.06.24.09.36s.07.3.12.44-.06.28-.01.39zM160.42 19.18a4.17 4.17 0 004.16-.14 4.25 4.25 0 01-4.16.14zm5.71-1.23l-.18.16zm.49-.57l-.17.2c.05-.07.12-.13.17-.2zM233.2.01l-.01-.01H106.1l.01.01H233.2zM53.42 197.83l-.07.16zM167.1 14.43a1.86 1.86 0 01.07.17c0-.06 0-.12-.06-.18-.55-1.05-2-1.39-3.48-1 1.5-.35 2.9 0 3.47 1.01zm51.76 97.17c5.47 1.77 10.67 4.22 16.31 5.44h.05l.22.05-.11-.08h-.16c-5.64-1.2-10.82-3.64-16.31-5.41zm5.67 91.28a5.66 5.66 0 011.8-5l.08-.1a5.72 5.72 0 00-1.88 5.1zM101.85 0c.76.74 1.46 1.49 2.16 2.25-.73-.77-1.44-1.53-2.16-2.25zM60.38 197.49c3.51-1.89 8.7 0 11.7 3.18v-.08c-3-3.15-8.16-5-11.65-3.13a5.52 5.52 0 00-2.09 1.85 5.54 5.54 0 012.04-1.82zm49.87-184.57q-.81-.91-1.66-1.81.84.89 1.66 1.81zM17.5 209.51a6.21 6.21 0 001.21.09h6.21c-6.23-6.46-11.26-14.39-19.48-17.73A24.69 24.69 0 000 190.42v-58.26c1 .31 2.11.6 3.11.84a10.86 10.86 0 004.08.35 12 12 0 004.13-1.77c2.53-1.49 5.06-3 7.43-4.73a48.29 48.29 0 004.44-4.16q1.25-1.17 2.43-2.42.59-.62 1.16-1.27c.22-.25.63-1 .93-1.08h-.07c-.29.15-.67.82-.87 1.05q-.57.65-1.16 1.27-1.18 1.25-2.43 2.42a48.29 48.29 0 01-4.44 4.16c-2.37 1.73-4.9 3.24-7.43 4.73a12 12 0 01-4.13 1.77 10.86 10.86 0 01-4.07-.32c-1-.25-2.11-.54-3.11-.84v69c5.23 2.55 10.58 4.91 15.73 7.65a6.42 6.42 0 001.77.7z"/><path class="cls-1" d="M4.94 130.59a6 6 0 002.31.29 6.35 6.35 0 002.2-.88c1-.6 2-1.22 3-1.84-1 .62-2 1.24-3 1.83a6.35 6.35 0 01-2.2.88 6 6 0 01-2.31-.29l-.86-.24Q2 129.75 0 129q2 .75 4.08 1.35zM40.75 20v-.65a4.71 4.71 0 010 .75zM53.5 202.07a7.91 7.91 0 001.67 3.63 7.91 7.91 0 01-1.66-3.6zm190.2-3.14a4.36 4.36 0 01.06.44v.54c0 .14 0 0 0 0v.14a4.63 4.63 0 01-.06.5v.06a5.53 5.53 0 01-.65 1.73c.07-.12.15-.23.2-.36l.09-.19a5.39 5.39 0 00.37-1.18v-.06a4.67 4.67 0 00.06-.5v-.72a4.39 4.39 0 00-.06-.44 5.23 5.23 0 00-1.71-2.69 5.42 5.42 0 011.65 2.73zM21.66 211.74c3-.31 6-1.26 9-1.31a11.2 11.2 0 014.74.87 11.2 11.2 0 00-4.76-.88c-3 .05-6 1-9 1.31a22.91 22.91 0 01-14-3.33L0 204.23c2.56 1.37 5.13 2.76 7.66 4.17a22.91 22.91 0 0014 3.34zM235.07 31l.07-.07q1.05-1.84 2-3.74-.98 1.93-2.07 3.81zm4.69 260.56c1.18-1.87 2.71-4.3 2.92-6.3a10 10 0 00-.68-4.06 81.34 81.34 0 00-6.89-15.47A81.34 81.34 0 01242 281.2a10 10 0 01.68 4.06c-.21 2-1.74 4.43-2.92 6.3l-.48.72a24.28 24.28 0 00-2.22 4.41h.08a24.28 24.28 0 012.22-4.41zm-133.7 5.13a72.63 72.63 0 004.88-5.86 72.63 72.63 0 01-4.88 5.86zm-79.14-87.03h-.68z"/><path class="cls-1" d="M236.39 292.24a18.89 18.89 0 002.56-5.76 18.89 18.89 0 01-2.56 5.76c-.72 1.14-1.5 2.23-2.28 3.29-.3.38-.58.77-.87 1.16.28-.38.56-.76.85-1.13.8-1.09 1.58-2.18 2.3-3.32zm-73.85-15.17a3.13 3.13 0 00-2.22.55 3.16 3.16 0 012.22-.55zm116.71-67.55a6.42 6.42 0 001.77-.77c5.12-2.79 10.46-5.11 15.69-7.66v-10.68a24.69 24.69 0 00-5.42 1.45 25.86 25.86 0 00-7 4.39 54.8 54.8 0 00-5.17 5.15c-2.43 2.71-4.76 5.58-7.27 8.21H278a6.21 6.21 0 001.25-.09zM230.2 59.34a6.74 6.74 0 01-.34-.92 6.74 6.74 0 00.34.92 5.68 5.68 0 003 2.34 5.68 5.68 0 01-3-2.34zm44.46-43.2c-16-.85-27.39 12.4-36.67 23.39 9.28-10.97 20.69-24.25 36.67-23.39zm14.02 21.26c-.07.2-.15.4-.23.6.08-.2.16-.4.23-.6zM288 39q-.18.37-.37.72.21-.36.37-.72zm-53.27 23a5.67 5.67 0 01-.77-.09 5.67 5.67 0 00.77.09zm47.7-16.58c-9.43 6.57-21.87 3.8-31.91 8.93C260.6 49.22 273 52 282.43 45.42zm-58.14 127.24c1 2.72-.26 6.65-3.32 9.7-3.77 3.76-8.87 4.76-11.38 2.24a4.66 4.66 0 01-1.23-2.3 4.67 4.67 0 001.23 2.32c2.51 2.52 7.6 1.51 11.38-2.24 3.03-3.06 4.32-7 3.32-9.72zM210 80.54a2.23 2.23 0 01-2 2.39 2.23 2.23 0 002-2.39c.6-6.24-6.88-13-13.39-13.08 6.54.08 14.02 6.86 13.39 13.08zM207.12 83a5.68 5.68 0 00.73-.07 5.62 5.62 0 01-.73.07zm-110.19-.07a5.64 5.64 0 00.72.07 5.62 5.62 0 01-.71-.07zm-.15 0a2.23 2.23 0 01-2-2.39c-.56-5.8 5.87-12.07 12-13-6.15.9-12.63 7.17-12 13a2.23 2.23 0 002 2.39zm4.42 59.33a3.2 3.2 0 01-.88-.83 4.94 4.94 0 01-.9-2.52v-.06a7.33 7.33 0 01.42-3c1.06-2.95 3.66-4.73 5.78-4a3.29 3.29 0 011.84 1.71 5 5 0 01.35 1 7 7 0 01.16 2 7 7 0 00-.16-2 5 5 0 00-.37-1 3.29 3.29 0 00-1.83-1.7c-2.12-.73-4.72 1-5.78 4a7.33 7.33 0 00-.42 3 4.94 4.94 0 00.91 2.61 3.2 3.2 0 00.88.79z"/><path class="cls-1" d="M100.27 138.55q-.28.48-.52 1 .25-.55.52-1zm34.84-24.97a71.12 71.12 0 01-1.41 8.93c-.1.48-.23 1-.36 1.42.13-.47.26-1 .36-1.42a71.09 71.09 0 001.41-8.93zm-33.46 23.07q.39-.44.83-.84-.48.4-.83.84zm2.86-2.32a3.77 3.77 0 012.15-.44 3.6 3.6 0 00-2.15.44zm18.86-33.2a35 35 0 01-.72-11.34v-.07c-.07-.67-.13-1.34-.22-2v.09c.08.66.16 1.32.22 2a35 35 0 00.72 11.32z"/><path class="cls-1" d="M123.8 97.75c.32 2.42 1.32 3.11 3.32 4.74 3.28 2.64 7.53 3.73 10.81 6.35a2.13 2.13 0 011.16 1.15 2.1 2.1 0 01-.19 1.1q-2.07 7.32-4.65 14.46l-1 .53-.43.22v.1l.55-.28 1-.53q2.58-7.14 4.65-14.46a2.1 2.1 0 00.19-1.1 2.13 2.13 0 00-1.16-1.15c-3.28-2.62-7.53-3.71-10.81-6.35-2-1.63-3-2.32-3.32-4.74q.75-.41 1.61-.81c3-1.38 7.19-2.68 7.73-4.25.45-1.31-1.77-2.43-3.48-3.55-8.83-5.79-3.4-17.42 18.6-21.42h.13q2 .37 3.87.82-1.88-.46-3.95-.84h-.13c-22 4-27.42 15.63-18.6 21.42 1.71 1.12 3.93 2.25 3.48 3.55-.54 1.57-4.73 2.88-7.73 4.25q-.86.4-1.61.81v-.26c-.31-2.65-.94-5.24-1.15-7.85v.07c.22 2.58.83 5.14 1.14 7.76zm-19.93 36.94a12.12 12.12 0 00-1 .76 12.12 12.12 0 011-.76zm42.91 94.01a86 86 0 0112.64-9.51l11.13-7.36-11.14 7.37a86 86 0 00-12.63 9.5zm-45.51-91.6q-.35.44-.67.91.32-.47.67-.91zm31.9 66.9c-.54-1.57-4.73-2.88-7.73-4.25-3.84-1.76-6-3.77-6.1-5.74.12 2 2.22 4 6.09 5.77 3 1.38 7.19 2.68 7.73 4.25a1.06 1.06 0 010 .69 1.05 1.05 0 00.01-.72zm13.59 24.72l1.43.28h.11l-1.52-.3zm-23.65-42.48c-1.08-3.18-10-5.76-16.36-8.49-5.35-2.29-6.73-4.23-6.07-6-.68 1.77.68 3.72 6.06 6 6.36 2.73 15.28 5.31 16.36 8.49a2.25 2.25 0 01-.11 1.63 2.25 2.25 0 00.12-1.63zM111.7 158a21.87 21.87 0 00-5.23-2.14 21.21 21.21 0 015.22 2.17c1.91 1.26 2.44 2.42 2.09 3.51.37-1.1-.15-2.27-2.08-3.54z"/><path class="cls-1" d="M95.31 143.75c1.8-.46 3.71-.91 5.59-1.37l.29-.07a2.88 2.88 0 00.57.29 4.2 4.2 0 004.42-1.62c1-.34 2-.66 2.89-1a5.34 5.34 0 01-5.79 4.1 5.34 5.34 0 005.88-4.09 14.3 14.3 0 002.62-1.28c11.22-7.37-25.13-11.11-4.94-19.71 6.36-2.73 15.28-5.31 16.36-8.49.75-2.23-2.62-4.24-3.53-6.39-.62-1.55 0-3.15 1.83-4.67v-.08c-1.84 1.53-2.51 3.15-1.88 4.72.91 2.15 4.29 4.16 3.53 6.39-1.08 3.18-10 5.76-16.36 8.49-20.18 8.63 16.14 12.37 5 19.75a14.3 14.3 0 01-2.62 1.28.23.23 0 000-.17A6.08 6.08 0 00109 137a6.08 6.08 0 01.13 2.73.23.23 0 00-.05.17c-.88.37-1.87.68-2.86 1a4.2 4.2 0 01-4.42 1.62 2.88 2.88 0 01-.57-.29l-.39.09c-1.88.46-3.79.91-5.59 1.37-.8.17-1.59.34-2.35.55a30.57 30.57 0 00-3 .89 29.65 29.65 0 013.08-.89c.74-.15 1.53-.32 2.33-.49z"/><path class="cls-1" d="M105.57 131.54a3.76 3.76 0 012.08 2.27 3.76 3.76 0 01.17.72 3.76 3.76 0 00-.16-.69v-.07a3.76 3.76 0 00-2.08-2.27c-2.13-.77-4.72 1-5.78 4a6.89 6.89 0 00-.44 2.48 6.89 6.89 0 01.44-2.47c1.05-2.97 3.64-4.74 5.77-3.97zM135.9 233a14.25 14.25 0 014.17 1.31 1.77 1.77 0 001.13.32 1.76 1.76 0 01-1-.32 14.38 14.38 0 00-4.3-1.31zm4.8-2.32c-2.51 0-5-.4-7.52-.35 2.49-.04 5.02.34 7.52.35zm-47.82-78.2c-4-1-7.2-2.47-7.1-4.12a1.31 1.31 0 01.11-.59 1.34 1.34 0 00-.12.62c-.1 1.65 3.1 3.12 7.1 4.12.75.18 1.54.35 2.34.52 2.16.54 4.47 1.06 6.7 1.61-2.23-.55-4.54-1.09-6.69-1.64-.8-.16-1.59-.33-2.34-.52zM181 202.86a27.64 27.64 0 0111.34 2.53c-2.35-.26-6.38-.06-7.69-.06h-.07c1.35.05 5.33-.2 7.66.06.81.35 1.62.71 2.4 1.1v-.06c-.74-.37-1.5-.71-2.28-1a27.64 27.64 0 00-11.36-2.57z"/><path class="cls-1" d="M151.84 216.28c-2.13.92-4.47 1.92-6 3.44s-2.42 3.56-3.64 5.33a7.82 7.82 0 01-1.87 1.92c-10.47-3.46-15.18-9-14.63-13.71-.58 4.75 4.12 10.29 14.62 13.74-3.82 2.76-9.27 1-14 1.47-4.11.39-6.38 1.94-9.85 3.71-4.07 2.08-8.47 3.19-12.3 5.82a17.66 17.66 0 00-3.77 4 39.39 39.39 0 00-3.54 5.26l.13-.1c-.85 1.26-2.4 3.62-3.4 5.1l.17-.09c1-1.46 2.46-3.71 3.31-5l-.07.05a39.38 39.38 0 013.41-5.25 17.66 17.66 0 013.77-4c3.83-2.63 8.23-3.74 12.3-5.82 3.47-1.77 5.74-3.32 9.85-3.71 4.72-.47 10.18 1.29 14-1.47a7.82 7.82 0 001.87-1.92c1.22-1.77 2.11-3.81 3.64-5.33s3.87-2.52 6-3.46c5.31-2.29 10-5.79 14.75-9a57 57 0 0110-5.67 15.77 15.77 0 015.88-1.22 15.74 15.74 0 00-6 1.22 57 57 0 00-10 5.64c-4.63 3.24-9.32 6.77-14.63 9.05zm-32.49-22.43a2.92 2.92 0 010-.29c-.01.09 0 .19 0 .29zm70.53-50.66a5.33 5.33 0 01-.7-.58 5.35 5.35 0 00.7.58zm.45.28l-.35-.21zm11.21 9.53c-5.32 1.32-11.57 2.56-15.17 4.28 3.62-1.67 9.85-2.91 15.1-4.26.8-.16 1.59-.33 2.34-.52a36.76 36.76 0 00.07-.02c-.75.21-1.54.38-2.34.52zm-37.85 26.84a1.9 1.9 0 01-.13-.33 2 2 0 00.12.35c.73 1.4 3 1.53 5 .4-1.98 1.11-4.23.93-4.99-.42zM187.71 140a.25.25 0 01-.06-.19 6.08 6.08 0 01.16-2.81 10.79 10.79 0 011.49-3.41.23.23 0 000-.05 3.41 3.41 0 011.38-1.47 3.76 3.76 0 00-1.42 1.6v.09a3.77 3.77 0 011.5-1.7 2.84 2.84 0 01.46-.24 3.25 3.25 0 012 0 3.39 3.39 0 00-1.76-.12l-.32.09a3.73 3.73 0 00-.5.27 3.41 3.41 0 00-1.38 1.47 10.79 10.79 0 00-1.52 3.45 6.08 6.08 0 00-.16 2.81.24.24 0 01.06.18h.08zm-18.31 39.8l-.28.18zm24.66-35.8a5.29 5.29 0 01-3.65-.48 5.3 5.3 0 003.68.5 3.43 3.43 0 001.7-1.31c.06-.09.12-.19.17-.28-.06.09-.1.18-.16.27a3.43 3.43 0 01-1.74 1.3zm-4.96-1.48a5.34 5.34 0 01-.57-.68 5.3 5.3 0 00.57.68z"/><path class="cls-1" d="M189.23 133.74v-.09a.41.41 0 000-.07.59.59 0 000 .16zm-.77 7.99a5.34 5.34 0 01-.46-.73 5.28 5.28 0 00.46.73zm-.46-.93a5.33 5.33 0 01-.25-.77 5.34 5.34 0 00.25.77zm1-6.04v-.08.08zm3.73-.2a3.16 3.16 0 00-3-.35 3.18 3.18 0 013 .35 12.79 12.79 0 014.4 5.49 4.37 4.37 0 01-.71 1.42 3.2 3.2 0 01-.88.8 2.86 2.86 0 01-.56.29 4.18 4.18 0 01-1.2.12 4.18 4.18 0 001.26-.12 2.86 2.86 0 00.56-.29 3.2 3.2 0 00.86-.78 4.37 4.37 0 00.7-1.4v-.13a12.79 12.79 0 00-4.43-5.4zM73.15 11.58c-5.44 1.8-10.48 7.33-10 12.48-.45-5.16 4.57-10.68 10-12.48zm.41 93.12a23.13 23.13 0 01-.56-9.59c1.08-6.78 5-12.93 5.89-19.78.37-3.12-.63-5.52-1.63-8.33a48.09 48.09 0 01-2-10.16 26.14 26.14 0 01.12-7.56 26.14 26.14 0 00-.15 7.56A48.09 48.09 0 0077.26 67c1 2.81 2 5.21 1.63 8.33C78 82.2 74.08 88.35 73 95.13a23.13 23.13 0 00.56 9.59 22.71 22.71 0 001.67 4.36c.54 1.06 2.13 2.59 2.35 3.67-.24-1.08-1.8-2.59-2.34-3.64a22.71 22.71 0 01-1.68-4.41zm2.98-57.35c.37 7.11 2.27 13.85 3.76 20.82-1.48-6.94-3.39-13.71-3.76-20.82z"/><path class="cls-1" d="M90.68 83v-.07a37.91 37.91 0 00-9.48-5c-1.2 1.49-1.7 3.72-2.2 5.82-.2.87-.41 1.72-.66 2.49-1.43 4.47-3 8.14-3 12.51 0-4.35 1.6-8 3-12.49.25-.77.46-1.62.66-2.49.5-2.1 1-4.33 2.17-5.82A37.91 37.91 0 0190.68 83zm-3.55 101.59c-2.51 2.52-7.61 1.52-11.38-2.24q-.35-.35-.67-.72.32.37.68.73c3.77 3.76 8.87 4.76 11.38 2.24a5.63 5.63 0 001.21-5.22 5.63 5.63 0 01-1.22 5.21zm-19.46 84.35a12.84 12.84 0 011.72.4 12.84 12.84 0 00-1.72-.4zm-3.67.45a2.23 2.23 0 00-.84 1.91 2.23 2.23 0 01.84-1.91zm17.31 8.49a6.85 6.85 0 01.9 2 6.85 6.85 0 00-.9-2zm-15.92-8.97a7.21 7.21 0 012.28 0 7.21 7.21 0 00-2.28 0h-.15a2.22 2.22 0 00-1.21.48 2.22 2.22 0 011.21-.48zM71.2 270a25.41 25.41 0 013.67 1.93A25.41 25.41 0 0071.2 270z"/><circle class="cls-2" cx="233.2" cy=".01" transform="rotate(-60.17 233.193 .007)" r=".01"/><path class="cls-2" d="M245.76 8.54A14.59 14.59 0 01248 4.19a29 29 0 012.29-2.61c.5-.52 1-1 1.47-1.57h-10c.38.84.71 1.62 1 2.25 1 2.13 2.42 4.02 3 6.28zm-129.6 5.19c3.23-.59 6.46-1.13 9.65-.56 7.61 1.35 12.62 8.35 18.36 13.52 17.7 16 31.8-8.48 47.7-.83.61-.73 1.21-1.47 1.75-2.23a7.93 7.93 0 00.93-1.36 24.78 24.78 0 011-2.42v-.07.07-.07a26 26 0 01-.29 8.41c5.12 4.7 7.22 13.13 12.47 17a3.57 3.57 0 011-3.07c1.16-1 3-1 4.77-.07a9.48 9.48 0 014.62 3.69 6.13 6.13 0 01.35.51 18.76 18.76 0 005.53-3.51c3.39-3.14 5.88-7.15 9.07-10.5.29-.3.58-.6.89-.89 1.17-3.84 2.46-7.56 3.92-11.31 2.21-5.74 1.86-10.21-1.53-15.56-.72-1.14-1.5-2.23-2.29-3.32-.3-.38-.58-.76-.86-1.15H106.11a72.65 72.65 0 0110.05 13.72zm45.91.3a6 6 0 011.55-.61c1.52-.38 2.93 0 3.48 1 0 .06 0 .12.06.18a2.82 2.82 0 01-.55 2.77c-.05.07-.12.13-.17.2s-.2.25-.32.37l-.18.16a6 6 0 01-1.13.83l-.24.11a4.17 4.17 0 01-4.16.14 2 2 0 01-.63-.65c-.78-1.35.22-3.37 2.29-4.53zm78.4 10.83c-.82 1-1.67 2.08-2.54 3.08a35.06 35.06 0 003.37-3.15c1.89-2.07 3.75-4.49 4-7.4v-1.82a23.25 23.25 0 01-3.11 7.05c-.55.76-1.13 1.5-1.72 2.24zM51.23 5.49C59.6 7.23 68.29 7 74.8 4.65c3-1.07 6-2.5 9.15-1.94 3.75.67 6.34 4 9.26 6.42a23.9 23.9 0 0016.51 5.55 15.62 15.62 0 001.92-.18c-.46-.54-.93-1.06-1.4-1.58s-1.1-1.21-1.66-1.81-1-1.08-1.54-1.6c-3.26-3.24-6.6-6.44-10-9.51h-42.7c-.42.8-.84 1.59-1.28 2.37-.62 1.02-1.21 2.12-1.83 3.12zM50.17 0H36.75a44.32 44.32 0 009.48 4.19A42.88 42.88 0 0150.17 0z"/><path class="cls-3" d="M108.59 11.11q.84.89 1.66 1.81c.47.53.94 1 1.4 1.58 2.79 3.26 5.4 6.66 8.17 10a111.26 111.26 0 00-15-21.28l-.82-.97c-.7-.76-1.4-1.51-2.16-2.25H97c3.45 3.07 6.79 6.27 10 9.51.58.49 1.08 1.06 1.59 1.6z"/><path class="cls-4" d="M104.8 3.16a111.26 111.26 0 0115 21.28c.53 1 1.06 2 1.56 3a50.3 50.3 0 00-5.2-13.68A72.65 72.65 0 00106.11 0h-4.26c.72.72 1.43 1.48 2.13 2.25z"/><path class="cls-3" d="M44.76 10.87c-1.22 2.23-1.94 4.74-2.93 7.06a6.37 6.37 0 01.67-.81c.65-.83 1.41-1.59 2.11-2.38a35.1 35.1 0 002.85-3.53l2.6-3.84c.42-.61.8-1.25 1.17-1.88.62-1 1.21-2.1 1.83-3.12.44-.78.86-1.57 1.28-2.37h-1.73q-.49.67-1 1.33c-2.36 3.09-4.93 6.06-6.85 9.54z"/><path class="cls-4" d="M46.23 4.19c-.57.69-1.12 1.39-1.64 2.11a21.08 21.08 0 00-3.86 13.06l.32.19c.27-.52.53-1.06.77-1.61 1-2.31 1.71-4.82 2.93-7.06 1.92-3.48 4.49-6.45 6.85-9.54q.51-.66 1-1.33h-2.43a42.88 42.88 0 00-3.94 4.18z"/><path class="cls-3" d="M234.07 1.16c.79 1.09 1.57 2.18 2.29 3.32 3.39 5.35 3.74 9.82 1.53 15.56-1.46 3.75-2.75 7.47-3.92 11.31-.16.53-.33 1.06-.49 1.6.61-.67 1.18-1.37 1.74-2.08l-.12.13v-.07l-.07.07q1.09-1.88 2.07-3.81a81.35 81.35 0 004.78-11.67 10 10 0 00.68-4.06c-.21-2-1.74-4.43-2.92-6.3l-.45-.72A24.28 24.28 0 01237 0h-3.79c.28.4.56.78.86 1.16z"/><path class="cls-4" d="M239.23 4.44l.45.72c1.18 1.87 2.71 4.28 2.92 6.3a10 10 0 01-.68 4.06 81.35 81.35 0 01-4.78 11.67q-1 1.89-2 3.74V31l.12-.13.21-.22q1.28-1.33 2.5-2.72c.88-1 1.72-2 2.54-3.07.58-.74 1.16-1.48 1.72-2.24a23.58 23.58 0 003.67-10 14.19 14.19 0 00.17-2.27 8.08 8.08 0 00-.26-1.76c-.58-2.26-2-4.16-3-6.28-.27-.63-.6-1.41-1-2.25H237a24.28 24.28 0 002.23 4.38z"/><path class="cls-2" d="M78.53 11.18a10.17 10.17 0 00-5.38.4c-5.43 1.8-10.45 7.32-10 12.48a2.23 2.23 0 002 2.39h.15c7.39 1.23 24.63-12.66 13.23-15.27zm81.89 8a4.25 4.25 0 004.16-.14l.24-.11a6 6 0 001.13-.83l.18-.16c.12-.12.21-.24.32-.37l.17-.2a2.82 2.82 0 00.55-2.77 1.86 1.86 0 00-.07-.17c-.57-1-2-1.37-3.48-1a6 6 0 00-1.55.61c-2 1.13-3 3.15-2.28 4.5a2 2 0 00.63.64z"/><path class="cls-5" d="M160.42 19.18a4.25 4.25 0 004.16-.14l.24-.11a6 6 0 001.13-.83l.18-.16c.12-.12.21-.24.32-.37l.17-.2a2.82 2.82 0 00.55-2.77 1.86 1.86 0 00-.07-.17c-.57-1-2-1.37-3.48-1a6 6 0 00-1.55.61c-2 1.13-3 3.15-2.28 4.5a2 2 0 00.63.64z"/><path class="cls-1" d="M87.13 184.59a5.63 5.63 0 001.22-5.2 12.38 12.38 0 00-3.5-6.17c-3.77-3.76-8.87-4.76-11.38-2.24-2.36 2.37-1.61 7 1.6 10.66q.32.36.67.72c3.78 3.76 8.88 4.76 11.39 2.23z"/><path class="cls-6" d="M87.13 184.59a5.63 5.63 0 001.22-5.2 12.38 12.38 0 00-3.5-6.17c-3.77-3.76-8.87-4.76-11.38-2.24-2.36 2.37-1.61 7 1.6 10.66q.32.36.67.72c3.78 3.76 8.88 4.76 11.39 2.23z"/><path class="cls-3" d="M194.58 22.29a7.93 7.93 0 01-.93 1.36c-.54.76-1.14 1.5-1.75 2.23l-.71.87a43.75 43.75 0 00-3.25 4.6l-3 5c-1.25 2.09-2.26 4.31-3.44 6.45a89.64 89.64 0 00-4.26 10.06 26.74 26.74 0 002-2.16c3.39-6.74 8.6-12.2 12-19.07a30.85 30.85 0 001.51-3.75c.62-1.88 1.16-3.8 1.83-5.59z"/><path class="cls-4" d="M194.59 22.27c-.67 1.78-1.21 3.68-1.84 5.55a31.58 31.58 0 01-1.47 3.72c-3.35 6.88-8.57 12.34-12 19.07l-.12.23a53.35 53.35 0 0012.58-13.68 26.32 26.32 0 003.89-17.31 24.78 24.78 0 00-1.04 2.42zm1.02-2.49v.07-.07z"/><path class="cls-1" d="M209 48.51l-.09-.17a4.08 4.08 0 00.57 1c1.69 2.13 3.82 4.08 6.69 3.84a6.15 6.15 0 00.7-.1 3.72 3.72 0 00.94-.31 3.26 3.26 0 001.63-2.35 6.14 6.14 0 00-.85-4.11l-.83.31c.8 2 .68 3.92-.53 5a3.68 3.68 0 01-3.47.6 8.07 8.07 0 01-3.88-2.5 9.18 9.18 0 01-.88-1.21z"/><path class="cls-7" d="M209 48.51l-.09-.17a4.08 4.08 0 00.57 1c1.69 2.13 3.82 4.08 6.69 3.84a6.15 6.15 0 00.7-.1 3.72 3.72 0 00.94-.31 3.26 3.26 0 001.63-2.35 6.14 6.14 0 00-.85-4.11l-.83.31c.8 2 .68 3.92-.53 5a3.68 3.68 0 01-3.47.6 8.07 8.07 0 01-3.88-2.5 9.18 9.18 0 01-.88-1.21z"/><path class="cls-2" d="M217 45.14a8.29 8.29 0 01.76 1.46l.83-.31a6.13 6.13 0 00-.35-.51 9.48 9.48 0 00-4.6-3.66 8.21 8.21 0 011.66 1.1 9.35 9.35 0 01.94.93 10 10 0 01.76.99zm-1.69-1.93a9.35 9.35 0 011.69 1.9 9.94 9.94 0 00-1.69-1.9z"/><path class="cls-7" d="M217 45.14a8.29 8.29 0 01.76 1.46l.83-.31a6.13 6.13 0 00-.35-.51 9.48 9.48 0 00-4.6-3.66 8.21 8.21 0 011.66 1.1 9.35 9.35 0 01.94.93 10 10 0 01.76.99zm-1.69-1.93a9.35 9.35 0 011.69 1.9 9.94 9.94 0 00-1.69-1.9z"/><path class="cls-8" d="M214 43.89a4.45 4.45 0 00-5 3.86 7.13 7.13 0 00-.08.75v.07a9.18 9.18 0 00.88 1.18 8.07 8.07 0 003.88 2.5 3.67 3.67 0 003.44-.61c1.21-1.07 1.33-3 .53-5a8.29 8.29 0 00-.76-1.47 7.27 7.27 0 00-2.06-1 4.45 4.45 0 00-.83-.28zm3 1.22a9.35 9.35 0 00-1.69-1.9 9.94 9.94 0 011.69 1.9z"/><path class="cls-9" d="M208.88 48.28l.09.17a7.13 7.13 0 01.08-.75 4.45 4.45 0 015.82-3.67 7.27 7.27 0 012.06 1 10.06 10.06 0 00-1.69-1.9 8.21 8.21 0 00-1.66-1.1c-1.78-.9-3.62-1-4.77.07a3.57 3.57 0 00-1 3.07 7.17 7.17 0 001.07 3.11zm.12.29v-.07z"/><path class="cls-2" d="M194.55 274.33v.12zm41.84 17.91a18.89 18.89 0 002.56-5.76 13.73 13.73 0 00.31-1.87q0-.47.06-.94a18.1 18.1 0 00-1.39-7c-.73-1.87-1.42-3.74-2.07-5.62q-.49-1.41-1-2.83t-.9-2.86c-.3-.29-.6-.58-.89-.89-3.19-3.35-5.67-7.36-9.07-10.5a18.77 18.77 0 00-5.46-3.55c-.1.16-.2.31-.31.45a9.76 9.76 0 01-4.62 3.72 6 6 0 01-1.84.62 3.33 3.33 0 01-2.94-.69 3.57 3.57 0 01-1-3.07c-5.25 3.92-7.34 12.35-12.47 17 .09.46.15.93.22 1.4 0 .11 0 .22.05.33.08.64.14 1.29.18 1.94v2.56c0 .44-.07.88-.11 1.32s0 .61-.08.91a24.77 24.77 0 01-1.06-2.49 7.91 7.91 0 00-.9-1.34c-.54-.77-1.15-1.5-1.75-2.23l-.06-.07c-15.9 7.63-30-16.79-47.69-.84-5.73 5.16-10.75 12.17-18.36 13.52-3.2.57-6.41 0-9.63-.55v.06a78.44 78.44 0 01-10.07 13.69h127.14c.29-.39.57-.78.87-1.16.78-1.03 1.56-2.12 2.28-3.26zm-69.29-9.94c-.76 1.35-3 1.53-5 .4s-3-3.15-2.28-4.5a2 2 0 01.53-.58 3.13 3.13 0 012.22-.55 5.71 5.71 0 012.28.73c1.99 1.13 3.01 3.15 2.25 4.5zm77.16-4.3c.15.37.3.74.43 1.12l.16.47c.18.53.33 1.06.47 1.6v-1.87c-.29-2.9-2.15-5.33-4-7.4a35.13 35.13 0 00-3.37-3.15c1.5 1.71 2.93 3.48 4.27 5.32a23 23 0 011.28 2.24l.18.36c.2.43.4.87.58 1.31zM107 287.21c1.6-1.62 3.14-3.29 4.59-5-.63-.08-1.27-.14-1.9-.18a23.9 23.9 0 00-16.51 5.55c-2.92 2.46-5.5 5.76-9.26 6.42-3.12.56-6.18-.88-9.15-1.94-6.51-2.32-15.2-2.58-23.57-.84.62 1 1.21 2.1 1.83 3.12.44.77.85 1.56 1.26 2.34H97c3.43-3.03 6.77-6.23 10-9.47zm-60.77 5.33a44.31 44.31 0 00-9.41 4.15h-.07 13.42a42.78 42.78 0 01-3.94-4.15zm201.77 0a14.59 14.59 0 01-2.21-4.41 14 14 0 01-1.34 3.22c-.55 1-1.14 2-1.62 3.11-.29.64-.62 1.42-1 2.26h10c-.47-.52-1-1-1.44-1.54a29 29 0 01-2.39-2.64z"/><path class="cls-3" d="M104.8 293.54a111.26 111.26 0 0015-21.28c-2.78 3.35-5.38 6.75-8.17 10-1.46 1.71-3 3.37-4.59 5-3.26 3.24-6.6 6.44-10 9.5h4.85c.97-1.09 1.91-2.14 2.91-3.22z"/><path class="cls-4" d="M116.17 283v-.06a50.31 50.31 0 005.18-13.68c-.51 1-1 2-1.58 3a111.26 111.26 0 01-15 21.28c-1 1.08-1.94 2.13-3 3.16h4.26a75.69 75.69 0 0010.14-13.7z"/><path class="cls-3" d="M51.23 291.23c-.37-.63-.76-1.26-1.17-1.88l-2.6-3.84a35.11 35.11 0 00-2.85-3.51c-.7-.79-1.46-1.55-2.11-2.38a6.38 6.38 0 01-.68-.82c.17.39.32.79.47 1.19l1.17 3a25.72 25.72 0 001.28 2.83c2.2 4 5.25 7.28 7.86 10.87h1.72c-.4-.77-.81-1.56-1.24-2.31-.64-1.05-1.23-2.1-1.85-3.15z"/><path class="cls-4" d="M44.75 285.86a25.72 25.72 0 01-1.28-2.86c-.4-1-.78-2-1.17-3-.16-.4-.31-.8-.47-1.19a20.41 20.41 0 00-1.06-2.17 21.09 21.09 0 003.84 13.82c.52.72 1.07 1.42 1.64 2.11a42.79 42.79 0 003.9 4.15h2.44c-2.59-3.58-5.59-6.89-7.84-10.86z"/><path class="cls-2" d="M81.31 277.88a21.27 21.27 0 00-6.43-5.95A25.41 25.41 0 0071.2 270a18.35 18.35 0 00-1.81-.66 12.84 12.84 0 00-1.72-.4 7.21 7.21 0 00-2.28 0h-.15a2.23 2.23 0 00-2 2.39v.65a9.41 9.41 0 001.18 4.48 13 13 0 00.73 1.21 15.26 15.26 0 001.87 2.25c3.16 3.15 7.75 5.15 11.6 4.29 3.21-.73 4.15-2.36 3.68-4.29a6.85 6.85 0 00-.99-2.04zm83.51-.08a5.71 5.71 0 00-2.28-.73 3.16 3.16 0 00-2.22.55 2 2 0 00-.53.58c-.76 1.35.26 3.37 2.28 4.5s4.27 1 5-.4-.23-3.37-2.25-4.5z"/><path class="cls-5" d="M164.82 277.8a5.71 5.71 0 00-2.28-.73 3.16 3.16 0 00-2.22.55 2 2 0 00-.53.58c-.76 1.35.26 3.37 2.28 4.5s4.27 1 5-.4-.23-3.37-2.25-4.5z"/><path class="cls-3" d="M193.69 273.11a7.91 7.91 0 01.9 1.34v-.12c-1.11-3-1.86-6.24-3.28-9.17-3.35-6.88-8.57-12.34-12-19.07-.82-.92-1.56-1.72-2-2.16a89.65 89.65 0 004.22 10.07c1.18 2.13 2.19 4.35 3.44 6.45l3 5a43.75 43.75 0 003.25 4.6l.66.81.06.07c.6.68 1.21 1.41 1.75 2.18z"/><path class="cls-4" d="M195.65 276.94c0-.3 0-.61.08-.91s.09-.88.11-1.32v-2.56c0-.65-.09-1.29-.18-1.94 0-.11 0-.22-.05-.33a26.31 26.31 0 00-3.81-10.34 53.35 53.35 0 00-12.58-13.68l.12.23c3.39 6.74 8.6 12.2 12 19.07 1.38 2.92 2.13 6.16 3.24 9.17v.12a24.77 24.77 0 001.07 2.49z"/><path class="cls-1" d="M214.75 244.36a3.31 3.31 0 012.47.77c1.21 1.07 1.33 3 .54 5v-.08l.81.3a6.14 6.14 0 00.81-4 3.26 3.26 0 00-1.58-2.35 3.72 3.72 0 00-.94-.31 6.14 6.14 0 00-.7-.1c-2.87-.24-5 1.71-6.69 3.84a4.07 4.07 0 00-.45.74 9.17 9.17 0 01.86-1.15 7.47 7.47 0 014.87-2.66z"/><path class="cls-7" d="M214.75 244.36a3.31 3.31 0 012.47.77c1.21 1.07 1.33 3 .54 5v-.08l.81.3a6.14 6.14 0 00.81-4 3.26 3.26 0 00-1.58-2.35 3.72 3.72 0 00-.94-.31 6.14 6.14 0 00-.7-.1c-2.87-.24-5 1.71-6.69 3.84a4.07 4.07 0 00-.45.74 9.17 9.17 0 01.86-1.15 7.47 7.47 0 014.87-2.66z"/><path class="cls-1" d="M209 248.21c0 .1-.1.2-.14.31l.16-.29z"/><path class="cls-7" d="M209 248.21c0 .1-.1.2-.14.31l.16-.29z"/><path class="cls-2" d="M217.75 250.14a8.28 8.28 0 01-.75 1.44 9.33 9.33 0 01-.81 1 9.92 9.92 0 01-.92.91 8.2 8.2 0 01-1.38.94 9.46 9.46 0 004.38-3.58c.11-.15.21-.3.31-.45v-.06l-.81-.3zm-2.44 3.37a9.93 9.93 0 001.69-1.89 9.34 9.34 0 01-1.69 1.89z"/><path class="cls-7" d="M217.75 250.14a8.28 8.28 0 01-.75 1.44 9.33 9.33 0 01-.81 1 9.92 9.92 0 01-.92.91 8.2 8.2 0 01-1.38.94 9.46 9.46 0 004.38-3.58c.11-.15.21-.3.31-.45v-.06l-.81-.3zm-2.44 3.37a9.93 9.93 0 001.69-1.89 9.34 9.34 0 01-1.69 1.89z"/><path class="cls-8" d="M217.22 245.13a3.31 3.31 0 00-2.47-.77 7.51 7.51 0 00-4.85 2.64 9.18 9.18 0 00-.88 1.18 7.11 7.11 0 00.08.77 4.45 4.45 0 005.82 3.67 7.26 7.26 0 002.07-1.06 8.28 8.28 0 00.75-1.44c.81-1.97.69-3.92-.52-4.99zm-1.91 8.38a9.34 9.34 0 001.69-1.89 9.93 9.93 0 01-1.69 1.89z"/><path class="cls-9" d="M213.65 254.6l.24-.14a8.2 8.2 0 001.38-.94 10.09 10.09 0 001.69-1.89 7.26 7.26 0 01-2.07 1.06 4.45 4.45 0 01-5.79-3.69 7.11 7.11 0 01-.08-.77l-.16.29a7.17 7.17 0 00-1 3 3.16 3.16 0 003.91 3.72 6 6 0 001.84-.62z"/><path class="cls-1" d="M237.14 104.7a49.15 49.15 0 00-9.53 7.28 53.39 53.39 0 017.81 5.08h-.09l.11.08-.22-.05c1.08.56 2 1.06 2.55 1.41a89.7 89.7 0 01-10.8-1.62c-1-.26-2-.49-3.07-.73-10.78 14.52-10.36 39.15 4.31 49.92 5.64 4.13 12 8.63 13.3 15.51.84 4.52-.78 8.75-2.92 13a9 9 0 012.55 1 5.23 5.23 0 01.88.62 5.23 5.23 0 00-.91-.65 5.37 5.37 0 012.58 3.38 4.39 4.39 0 01.06.44v.72a4.67 4.67 0 01-.06.5v.06a5.39 5.39 0 01-.37 1.18c0-.08.08-.16.12-.24v-.1a5.19 5.19 0 00.24-.87 5.4 5.4 0 01-.24.87v.1c-.05.14-.1.28-.17.42v.07a7.92 7.92 0 01-5.1 6.09 11.26 11.26 0 01-1.15.42 18.75 18.75 0 01-4.87.75 17.19 17.19 0 00-.22 1.82c-.16 2.24.28 4.74 2 6.17a8 8 0 002.4 1.25 32.91 32.91 0 0031-4.82l.59-.49a58.67 58.67 0 00-6.59-1.94h-.11a11.2 11.2 0 014.77-.88h.11a14.31 14.31 0 012.37-.66 26.26 26.26 0 013.32-.14c2.51-2.64 4.84-5.51 7.27-8.21a54.37 54.37 0 015.17-5.15 25.86 25.86 0 017-4.39 24.69 24.69 0 015.42-1.45v-58.3c-1 .3-2.05.59-3.1.84a10.86 10.86 0 01-3 .42q-.51 0-1-.06a12 12 0 01-4.13-1.77c-1.9-1.12-3.79-2.25-5.62-3.47q-.91-.61-1.8-1.26a48.21 48.21 0 01-4.44-4.16q-1.25-1.17-2.43-2.42-.59-.62-1.16-1.27c-.22-.25-.63-1-.93-1.08q.63.25 1.24.53t1.21.6q4.48 1.83 9 3.59c3 1.19 6.62 3.27 9.83 3.73q.42 0 .83.06a10.87 10.87 0 005.59-1.33V109c-7.78-1.23-15-6.64-22.58-8.55-12.6-3.15-25.66-2.55-37.02 4.25z"/><path class="cls-10" d="M237.14 104.7a49.15 49.15 0 00-9.53 7.28 53.39 53.39 0 017.81 5.08h-.09l.11.08-.22-.05c1.08.56 2 1.06 2.55 1.41a89.7 89.7 0 01-10.8-1.62c-1-.26-2-.49-3.07-.73-10.78 14.52-10.36 39.15 4.31 49.92 5.64 4.13 12 8.63 13.3 15.51.84 4.52-.78 8.75-2.92 13a9 9 0 012.55 1 5.23 5.23 0 01.88.62 5.23 5.23 0 00-.91-.65 5.37 5.37 0 012.58 3.38 4.39 4.39 0 01.06.44v.72a4.67 4.67 0 01-.06.5v.06a5.39 5.39 0 01-.37 1.18c0-.08.08-.16.12-.24v-.1a5.19 5.19 0 00.24-.87 5.4 5.4 0 01-.24.87v.1c-.05.14-.1.28-.17.42v.07a7.92 7.92 0 01-5.1 6.09 11.26 11.26 0 01-1.15.42 18.75 18.75 0 01-4.87.75 17.19 17.19 0 00-.22 1.82c-.16 2.24.28 4.74 2 6.17a8 8 0 002.4 1.25 32.91 32.91 0 0031-4.82l.59-.49a58.67 58.67 0 00-6.59-1.94h-.11a11.2 11.2 0 014.77-.88h.11a14.31 14.31 0 012.37-.66 26.26 26.26 0 013.32-.14c2.51-2.64 4.84-5.51 7.27-8.21a54.37 54.37 0 015.17-5.15 25.86 25.86 0 017-4.39 24.69 24.69 0 015.42-1.45v-58.3c-1 .3-2.05.59-3.1.84a10.86 10.86 0 01-3 .42q-.51 0-1-.06a12 12 0 01-4.13-1.77c-1.9-1.12-3.79-2.25-5.62-3.47q-.91-.61-1.8-1.26a48.21 48.21 0 01-4.44-4.16q-1.25-1.17-2.43-2.42-.59-.62-1.16-1.27c-.22-.25-.63-1-.93-1.08q.63.25 1.24.53t1.21.6q4.48 1.83 9 3.59c3 1.19 6.62 3.27 9.83 3.73q.42 0 .83.06a10.87 10.87 0 005.59-1.33V109c-7.78-1.23-15-6.64-22.58-8.55-12.6-3.15-25.66-2.55-37.02 4.25z"/><path class="cls-1" d="M224.53 202.88a5.72 5.72 0 011.89-5.12l.19-.19c.2-.19.4-.37.62-.55-2.86 1.37-5.55 3.76-4.76 7.36a5.92 5.92 0 003.24 3.85 12.16 12.16 0 005.06 1.07h1.35c.1-.57.23-1.12.38-1.69-4.08-.03-7.38-1.87-7.97-4.73z"/><path class="cls-7" d="M224.53 202.88a5.72 5.72 0 011.89-5.12l.19-.19c.2-.19.4-.37.62-.55-2.86 1.37-5.55 3.76-4.76 7.36a5.92 5.92 0 003.24 3.85 12.16 12.16 0 005.06 1.07h1.35c.1-.57.23-1.12.38-1.69-4.08-.03-7.38-1.87-7.97-4.73z"/><path class="cls-1" d="M242.67 203c-.13.18-.27.35-.41.53.14-.17.28-.34.41-.53z"/><path class="cls-10" d="M242.67 203c-.13.18-.27.35-.41.53.14-.17.28-.34.41-.53z"/><path class="cls-7" d="M242.67 203c-.13.18-.27.35-.41.53.14-.17.28-.34.41-.53z"/><path class="cls-1" d="M240.94 204.8l-.08.07z"/><path class="cls-10" d="M240.94 204.8l-.08.07z"/><path class="cls-7" d="M240.94 204.8l-.08.07z"/><path class="cls-1" d="M243 202.47c-.06.11-.11.21-.18.32.06-.1.14-.19.2-.29l.1-.17c.06-.1.1-.21.15-.31-.06.12-.14.24-.2.36z"/><path class="cls-10" d="M243 202.47c-.06.11-.11.21-.18.32.06-.1.14-.19.2-.29l.1-.17c.06-.1.1-.21.15-.31-.06.12-.14.24-.2.36z"/><path class="cls-7" d="M243 202.47c-.06.11-.11.21-.18.32.06-.1.14-.19.2-.29l.1-.17c.06-.1.1-.21.15-.31-.06.12-.14.24-.2.36z"/><path class="cls-1" d="M241.89 203.94l-.3.29z"/><path class="cls-10" d="M241.89 203.94l-.3.29z"/><path class="cls-7" d="M241.89 203.94l-.3.29z"/><path class="cls-1" d="M243 202.5a11.28 11.28 0 01-7.53 4.81 14.25 14.25 0 01-3 .3c-.15.56-.28 1.13-.38 1.7a18.75 18.75 0 004.88-.76 11.25 11.25 0 001.15-.42 7.92 7.92 0 005.09-6c0 .08-.09.15-.13.23z"/><path class="cls-10" d="M243 202.5a11.28 11.28 0 01-7.53 4.81 14.25 14.25 0 01-3 .3c-.15.56-.28 1.13-.38 1.7a18.75 18.75 0 004.88-.76 11.25 11.25 0 001.15-.42 7.92 7.92 0 005.09-6c0 .08-.09.15-.13.23z"/><path class="cls-7" d="M243 202.5a11.28 11.28 0 01-7.53 4.81 14.25 14.25 0 01-3 .3c-.15.56-.28 1.13-.38 1.7a18.75 18.75 0 004.88-.76 11.25 11.25 0 001.15-.42 7.92 7.92 0 005.09-6c0 .08-.09.15-.13.23z"/><path class="cls-11" d="M231.59 194.78l.76-.2m-4.85 2.22a11.25 11.25 0 01.94-.64m1.56-.8c.32-.14.66-.27 1-.38m-2.18 1.02c.23-.13.46-.25.7-.36"/><path class="cls-8" d="M242 196.2a5.22 5.22 0 00-.92-.65 5.31 5.31 0 012.19 2.33 5.23 5.23 0 00-1.27-1.68zm-14.73.8c-.15.12-.28.25-.42.37.17-.15.34-.32.52-.45zm16.19 4.59c0 .08-.08.16-.12.24l-.09.19c0 .1-.09.21-.15.31 0-.08.09-.15.13-.23v-.07c.13-.16.17-.3.23-.44zm0 0v-.1zm.04-.1a5.4 5.4 0 00.24-.87 5.19 5.19 0 01-.24.87zm-17.08-3.73l-.08.1c.16-.17.33-.33.51-.49l-.24.21z"/><path class="cls-8" d="M235.48 207.31a11.28 11.28 0 007.52-4.81c-.06.1-.13.19-.2.29l-.15.22c-.13.18-.27.35-.41.53s-.23.27-.36.4l-.3.29c-.21.2-.42.39-.65.57l-.08.07a11.67 11.67 0 01-2.05 1.26c-.39.19-.79.37-1.21.53 2-3.21 2.56-7.1-1.25-9.16-3.1-1.67-7.51-.39-10.56 2.12a12.12 12.12 0 00-1.1 1 8.37 8.37 0 011.68-2.81 5.66 5.66 0 00-1.8 5c.59 2.86 3.89 4.7 8 4.73a14.25 14.25 0 002.92-.23zm7.63-4.98l-.1.17z"/><path class="cls-9" d="M224.7 200.62a12.32 12.32 0 011.09-1c3.05-2.51 7.46-3.79 10.56-2.12 3.81 2.06 3.26 6 1.25 9.16.42-.16.82-.33 1.21-.53a9.93 9.93 0 004.19-3.65l.06-.1a5.53 5.53 0 00.65-1.73v-.06a4.63 4.63 0 00.06-.5v-.52c0-.14 0 0 0 0v-.11a4.36 4.36 0 00-.06-.44 5.23 5.23 0 00-.38-1 5.24 5.24 0 00-2.17-2.29 9 9 0 00-2.55-1 13.19 13.19 0 00-5.81 0l-.42.11-.76.2-.6.19c-.34.12-.68.24-1 .38l-.47.22-.7.36-.37.21a11.27 11.27 0 00-.94.64l-.18.14a7.54 7.54 0 00-2.7 3.63z"/><path class="cls-3" d="M291.79 130.59a6 6 0 01-2.31.29 6.35 6.35 0 01-2.2-.88A138 138 0 01271 118.88l.42.17q-.6-.31-1.21-.6t-1.24-.53c.3.08.71.83.93 1.08q.57.65 1.16 1.27 1.18 1.25 2.43 2.42a48.21 48.21 0 004.44 4.16q.89.65 1.8 1.26c1.83 1.22 3.73 2.35 5.63 3.47a12 12 0 004.13 1.77q.51.05 1 .06a10.86 10.86 0 003-.42c1-.24 2.07-.53 3.1-.84V129q-2 .73-4.07 1.32z"/><path class="cls-4" d="M291.13 126.43c-.28 0-.57 0-.85-.06-3.21-.46-6.83-2.54-9.83-3.73s-6-2.37-9-3.59l-.38-.15a138 138 0 0016.21 11.1 6.35 6.35 0 002.2.88 6 6 0 002.31-.29l.86-.24q2.06-.59 4.07-1.32v-3.92a10.87 10.87 0 01-5.59 1.32z"/><path class="cls-1" d="M221 182.36c3.06-3.05 4.31-7 3.32-9.7a4.52 4.52 0 00-1-1.67c-2.51-2.52-7.61-1.52-11.38 2.24-2.83 2.82-4.11 6.4-3.51 9.07a4.66 4.66 0 001.23 2.3c2.44 2.52 7.54 1.52 11.34-2.24z"/><path class="cls-6" d="M221 182.36c3.06-3.05 4.31-7 3.32-9.7a4.52 4.52 0 00-1-1.67c-2.51-2.52-7.61-1.52-11.38 2.24-2.83 2.82-4.11 6.4-3.51 9.07a4.66 4.66 0 001.23 2.3c2.44 2.52 7.54 1.52 11.34-2.24z"/><path class="cls-1" d="M50.24 256a35.16 35.16 0 01-4.72-1.6c-.7-.29-1.39-.59-2.07-.92a35.81 35.81 0 01-11.32-8.69c-5.82.8-11.58 1.71-16.5 5.25a16.23 16.23 0 00-6.93 13.39 15.51 15.51 0 0014.93 15.72c16 .88 27.42-12.41 36.71-23.39 3.94-4.66 7.75-9.91 8.32-16a6.74 6.74 0 00-.53-3.81 5.68 5.68 0 00-5.32-2.6c-6 .27-10 5.06-15 7.59A35.73 35.73 0 0137 244.1a28.16 28.16 0 005.27 4.15q7.23 4.55 14.69 8.72l-.19-.08.19.11c-1.53-.85-4.96-.55-6.72-1z"/><path class="cls-10" d="M50.24 256a35.16 35.16 0 01-4.72-1.6c-.7-.29-1.39-.59-2.07-.92a35.81 35.81 0 01-11.32-8.69c-5.82.8-11.58 1.71-16.5 5.25a16.23 16.23 0 00-6.93 13.39 15.51 15.51 0 0014.93 15.72c16 .88 27.42-12.41 36.71-23.39 3.94-4.66 7.75-9.91 8.32-16a6.74 6.74 0 00-.53-3.81 5.68 5.68 0 00-5.32-2.6c-6 .27-10 5.06-15 7.59A35.73 35.73 0 0137 244.1a28.16 28.16 0 005.27 4.15q7.23 4.55 14.69 8.72l-.19-.08.19.11c-1.53-.85-4.96-.55-6.72-1z"/><path class="cls-1" d="M274.7 277.71A15.51 15.51 0 00289.63 262a16.23 16.23 0 00-6.94-13.39c-5-3.61-10.92-4.49-16.86-5.3l-.82 1a35.82 35.82 0 01-11.77 9.16 35.17 35.17 0 01-6.79 2.49c-1.66.42-4.7.2-6.31.84 8.86 10.43 19.78 21.72 34.56 20.91z"/><path class="cls-10" d="M274.7 277.71A15.51 15.51 0 00289.63 262a16.23 16.23 0 00-6.94-13.39c-5-3.61-10.92-4.49-16.86-5.3l-.82 1a35.82 35.82 0 01-11.77 9.16 35.17 35.17 0 01-6.79 2.49c-1.66.42-4.7.2-6.31.84 8.86 10.43 19.78 21.72 34.56 20.91z"/><path class="cls-1" d="M235.52 231.91a5.68 5.68 0 00-5.32 2.6 6.74 6.74 0 00-.53 3.81c.57 6.09 4.38 11.34 8.32 16l2.09 2.46q7.29-4.08 14.37-8.53a28.31 28.31 0 006.65-5.62 35.32 35.32 0 01-10.59-3.12c-4.99-2.51-8.99-7.33-14.99-7.6z"/><path class="cls-10" d="M235.52 231.91a5.68 5.68 0 00-5.32 2.6 6.74 6.74 0 00-.53 3.81c.57 6.09 4.38 11.34 8.32 16l2.09 2.46q7.29-4.08 14.37-8.53a28.31 28.31 0 006.65-5.62 35.32 35.32 0 01-10.59-3.12c-4.99-2.51-8.99-7.33-14.99-7.6z"/><path class="cls-1" d="M40.75 20v.09a4.71 4.71 0 000-.75 29.15 29.15 0 00-17.1-4.66A15.51 15.51 0 008.7 30.42a16.23 16.23 0 006.94 13.39c9.46 6.8 22 3.92 32.17 9.1 5 2.53 9 7.32 15 7.59a5.68 5.68 0 005.32-2.6 6.74 6.74 0 00.53-3.81c-.57-6.09-4.38-11.34-8.32-16-5.5-6.5-11.75-13.81-19.3-18.51l-.29.54V20z"/><path class="cls-10" d="M40.75 20v.09a4.71 4.71 0 000-.75 29.15 29.15 0 00-17.1-4.66A15.51 15.51 0 008.7 30.42a16.23 16.23 0 006.94 13.39c9.46 6.8 22 3.92 32.17 9.1 5 2.53 9 7.32 15 7.59a5.68 5.68 0 005.32-2.6 6.74 6.74 0 00.53-3.81c-.57-6.09-4.38-11.34-8.32-16-5.5-6.5-11.75-13.81-19.3-18.51l-.29.54V20z"/><path class="cls-4" d="M40.75 20v.1l.29-.54-.32-.19c.02.21.02.43.03.63z"/><path class="cls-10" d="M40.75 20v.1l.29-.54-.32-.19c.02.21.02.43.03.63z"/><path class="cls-1" d="M230.2 59.34a5.68 5.68 0 005.32 2.6c6-.27 10-5.06 15-7.59 10-5.13 22.48-2.36 31.91-8.93l.26-.17a16.21 16.21 0 005-5.54q.2-.36.37-.72t.44-1c.08-.2.16-.4.23-.6a16.21 16.21 0 001-5.54 15.51 15.51 0 00-15.03-15.71c-16-.85-27.39 12.42-36.67 23.39-3.94 4.66-7.75 9.91-8.32 16a6.74 6.74 0 00.53 3.81z"/><path class="cls-10" d="M230.2 59.34a5.68 5.68 0 005.32 2.6c6-.27 10-5.06 15-7.59 10-5.13 22.48-2.36 31.91-8.93l.26-.17a16.21 16.21 0 005-5.54q.2-.36.37-.72t.44-1c.08-.2.16-.4.23-.6a16.21 16.21 0 001-5.54 15.51 15.51 0 00-15.03-15.71c-16-.85-27.39 12.42-36.67 23.39-3.94 4.66-7.75 9.91-8.32 16a6.74 6.74 0 00.53 3.81z"/><path class="cls-2" d="M94.74 80.54a2.23 2.23 0 002 2.39h.15a5.62 5.62 0 00.71.07c7.64.3 23.47-12.81 12.43-15.34a9.18 9.18 0 00-3.33-.09c-6.09.9-12.52 7.17-11.96 12.97zM207.12 83a5.62 5.62 0 00.71-.07h.17a2.23 2.23 0 002-2.39c.63-6.22-6.85-13-13.36-13.08a8.6 8.6 0 00-2 .2c-11 2.53 4.84 15.65 12.48 15.34z"/><path class="cls-3" d="M31.35 77.3L0 50v6.89c6.62 4 14.86 9.33 16.33 10.26 5.08 3.21 10.01 6.73 15.02 10.15z"/><path class="cls-4" d="M37.07 82.29C28.47 66.82 15 55.91 0 47.24V50l31.35 27.3z"/><path class="cls-3" d="M265.38 77.3c5-3.42 9.94-6.94 15-10.19 1.47-.93 9.71-6.21 16.33-10.26V50l-19.9 17.32z"/><path class="cls-4" d="M259.66 82.29l5.72-5 11.43-9.95L296.71 50v-2.76c-15.02 8.67-28.46 19.58-37.05 35.05z"/><path class="cls-1" d="M53 198.89c0-.11.08-.2.11-.31a5.23 5.23 0 01.21-.6l.07-.16.05-.1a5.21 5.21 0 00-.47 1.18v.1a.68.68 0 01.03-.11z"/><path class="cls-10" d="M53 198.89c0-.11.08-.2.11-.31a5.23 5.23 0 01.21-.6l.07-.16.05-.1a5.21 5.21 0 00-.47 1.18v.1a.68.68 0 01.03-.11z"/><path class="cls-1" d="M53.24 201.41v.14c0 .07.07.14.1.2-.01-.11-.06-.22-.1-.34z"/><path class="cls-10" d="M53.24 201.41v.14c0 .07.07.14.1.2-.01-.11-.06-.22-.1-.34z"/><path class="cls-1" d="M6.43 126.37c3.21-.46 6.83-2.54 9.83-3.73s6-2.37 9-3.59h.06l.3-.15h.06l-.42.17a26 26 0 012.45-1.08h-.06.07c-.3.08-.71.83-.93 1.08q-.57.65-1.16 1.27-1.18 1.25-2.43 2.42a48.29 48.29 0 01-4.44 4.16c-2.37 1.73-4.9 3.24-7.43 4.73a12 12 0 01-4.13 1.77 10.86 10.86 0 01-4.08-.42c-1-.24-2.08-.53-3.11-.84v58.26a24.69 24.69 0 015.43 1.45c8.22 3.34 13.25 11.27 19.48 17.73h1.96c.45 0 .91 0 1.36.08a14.31 14.31 0 012.41.67 11.2 11.2 0 014.76.88l-1.49.38-.77.2q-2.18.6-4.3 1.36l.57.47a32.91 32.91 0 0031 4.82 8 8 0 002.4-1.25c1.72-1.43 2.16-3.93 2-6.17a17.16 17.16 0 00-.22-1.81 18.75 18.75 0 01-4.83-.75 11.25 11.25 0 01-1.15-.42 8 8 0 01-5.1-6.07c-.08-.16-.14-.32-.2-.49a5.4 5.4 0 01-.25-.9c0 .11.06.21.09.32 0-.12-.07-.24-.09-.36v-.06a4.63 4.63 0 01-.07-.5v-.84a.73.73 0 010 .14 4.43 4.43 0 01.06-.44 5.81 5.81 0 012.62-3.45 9 9 0 012.48-1c-2.13-4.19-3.73-8.39-2.89-12.94 1.3-6.88 7.66-11.38 13.3-15.51C84 154.7 83.63 127.93 71 113.86a49.15 49.15 0 00-11.38-9.17c-11.36-6.8-24.42-7.4-37-4.25C15 102.35 7.8 107.77 0 109v16.1a10.86 10.86 0 006.43 1.27zM53 200.57a4.7 4.7 0 01-.06-.5 4.7 4.7 0 00.06.5z"/><path class="cls-10" d="M6.43 126.37c3.21-.46 6.83-2.54 9.83-3.73s6-2.37 9-3.59h.06l.3-.15h.06l-.42.17a26 26 0 012.45-1.08h-.06.07c-.3.08-.71.83-.93 1.08q-.57.65-1.16 1.27-1.18 1.25-2.43 2.42a48.29 48.29 0 01-4.44 4.16c-2.37 1.73-4.9 3.24-7.43 4.73a12 12 0 01-4.13 1.77 10.86 10.86 0 01-4.08-.42c-1-.24-2.08-.53-3.11-.84v58.26a24.69 24.69 0 015.43 1.45c8.22 3.34 13.25 11.27 19.48 17.73h1.96c.45 0 .91 0 1.36.08a14.31 14.31 0 012.41.67 11.2 11.2 0 014.76.88l-1.49.38-.77.2q-2.18.6-4.3 1.36l.57.47a32.91 32.91 0 0031 4.82 8 8 0 002.4-1.25c1.72-1.43 2.16-3.93 2-6.17a17.16 17.16 0 00-.22-1.81 18.75 18.75 0 01-4.83-.75 11.25 11.25 0 01-1.15-.42 8 8 0 01-5.1-6.07c-.08-.16-.14-.32-.2-.49a5.4 5.4 0 01-.25-.9c0 .11.06.21.09.32 0-.12-.07-.24-.09-.36v-.06a4.63 4.63 0 01-.07-.5v-.84a.73.73 0 010 .14 4.43 4.43 0 01.06-.44 5.81 5.81 0 012.62-3.45 9 9 0 012.48-1c-2.13-4.19-3.73-8.39-2.89-12.94 1.3-6.88 7.66-11.38 13.3-15.51C84 154.7 83.63 127.93 71 113.86a49.15 49.15 0 00-11.38-9.17c-11.36-6.8-24.42-7.4-37-4.25C15 102.35 7.8 107.77 0 109v16.1a10.86 10.86 0 006.43 1.27zM53 200.57a4.7 4.7 0 01-.06-.5 4.7 4.7 0 00.06.5z"/><path class="cls-1" d="M71.17 198.76a5.25 5.25 0 011.07 4.15c-.64 2.87-4 4.73-8 4.73.15.56.28 1.11.37 1.67h1.31a12.16 12.16 0 005.08-1.09 5.92 5.92 0 003.24-3.85c.77-3.54-1.82-5.92-4.63-7.29a7.49 7.49 0 011.56 1.68z"/><path class="cls-7" d="M71.17 198.76a5.25 5.25 0 011.07 4.15c-.64 2.87-4 4.73-8 4.73.15.56.28 1.11.37 1.67h1.31a12.16 12.16 0 005.08-1.09 5.92 5.92 0 003.24-3.85c.77-3.54-1.82-5.92-4.63-7.29a7.49 7.49 0 011.56 1.68z"/><path class="cls-1" d="M54.37 203.38l-.17-.22z"/><path class="cls-10" d="M54.37 203.38l-.17-.22z"/><path class="cls-7" d="M54.37 203.38l-.17-.22z"/><path class="cls-1" d="M64.25 207.64a14.25 14.25 0 01-3-.3c-3.7-.77-6.62-2.85-7.78-5.25a7.93 7.93 0 005.09 6 11.25 11.25 0 001.15.42 18.75 18.75 0 004.83.75c-.02-.51-.15-1.06-.29-1.62z"/><path class="cls-10" d="M64.25 207.64a14.25 14.25 0 01-3-.3c-3.7-.77-6.62-2.85-7.78-5.25a7.93 7.93 0 005.09 6 11.25 11.25 0 001.15.42 18.75 18.75 0 004.83.75c-.02-.51-.15-1.06-.29-1.62z"/><path class="cls-7" d="M64.25 207.64a14.25 14.25 0 01-3-.3c-3.7-.77-6.62-2.85-7.78-5.25a7.93 7.93 0 005.09 6 11.25 11.25 0 001.15.42 18.75 18.75 0 004.83.75c-.02-.51-.15-1.06-.29-1.62z"/><path class="cls-11" d="M53 200.57a4.7 4.7 0 01-.06-.5"/><path class="cls-8" d="M53.47 197.72a5.2 5.2 0 00-.47 1.19 5.21 5.21 0 01.47-1.18zm-.47 1.19a4.43 4.43 0 00-.06.44.73.73 0 000-.14 1.21 1.21 0 000-.19s.06-.08.06-.11zm.12 2.09c0-.11-.07-.21-.09-.32a5.4 5.4 0 00.25.9v-.14c0-.05-.12-.32-.16-.44zm.16.55z"/><path class="cls-8" d="M61.29 207.34a14.25 14.25 0 003 .3c4 0 7.35-1.86 8-4.73a5.25 5.25 0 00-1.07-4.15 7.5 7.5 0 01.93 1.88l-.05-.05v.08c-3-3.18-8.19-5.07-11.7-3.18a5.54 5.54 0 00-2.07 1.82c-1.35 2.11-.66 4.9.84 7.31h-.05v.05a11.28 11.28 0 01-4.76-3.27l-.17-.22c-.13-.17-.24-.34-.35-.51s-.2-.33-.28-.49-.14-.27-.2-.41-.07-.13-.1-.2c.06.17.12.33.2.49 1.21 2.43 4.13 4.51 7.83 5.28z"/><path class="cls-9" d="M53.47 197.72l-.05.1-.07.16a5.23 5.23 0 00-.21.6c0 .1-.06.21-.09.32a4.43 4.43 0 00-.06.44v.13a4.43 4.43 0 000 .45v.14a4.7 4.7 0 00.06.5v.06c.44 2.43 2.77 4.75 6 6h.05c-1.5-2.41-2.19-5.19-.84-7.31a5.52 5.52 0 012.09-1.85c3.49-1.88 8.66 0 11.65 3.13l.05.05a7.66 7.66 0 00-2.49-3.56l-.19-.17-.18-.14a11.29 11.29 0 00-.94-.64l-.37-.21c-.23-.13-.46-.25-.7-.36l-.47-.22c-.32-.14-.66-.27-1-.38l-.6-.19-.76-.2-.42-.11a13.19 13.19 0 00-5.81 0h-.07a9 9 0 00-2.48 1 5.24 5.24 0 00-2.1 2.26z"/><path class="cls-3" d="M7.19 133.35a12 12 0 004.13-1.77c2.53-1.49 5.06-3 7.43-4.73a48.29 48.29 0 004.44-4.16q1.25-1.17 2.43-2.42.59-.62 1.16-1.27c.21-.23.58-.9.87-1.05h.06a26 26 0 00-2.45 1.05l.42-.17h-.06l-.07.06.14-.06a138 138 0 01-13.22 9.28c-1 .62-2 1.25-3 1.84a6.35 6.35 0 01-2.2.88 6 6 0 01-2.31-.29l-.86-.24Q2 129.75 0 129v3.13c1 .3 2.06.59 3.11.84a10.86 10.86 0 004.08.38z"/><path class="cls-4" d="M4.94 130.58a6 6 0 002.31.29 6.35 6.35 0 002.2-.88c1-.59 2-1.21 3-1.83a138 138 0 0013.22-9.28l-.14.06-.23.09h-.06q-4.48 1.83-9 3.59c-3 1.19-6.62 3.27-9.83 3.73A10.86 10.86 0 010 125.1v3.9q2 .75 4.08 1.34z"/><path class="cls-3" d="M21.69 211.72c3-.34 6-1.26 9-1.31a14.31 14.31 0 00-2.41-.67c-.45 0-.9-.06-1.36-.08h-8.21a6.21 6.21 0 01-1.21-.09 6.42 6.42 0 01-1.77-.77c-5.15-2.8-10.5-5.16-15.73-7.71v3.14l7.69 4.16a22.91 22.91 0 0014 3.33z"/><path class="cls-4" d="M14.66 217.32c7.11 8 10.26 18.85 17.07 27l.41.46a35.81 35.81 0 0011.32 8.69c.68.34 1.37.64 2.06.93a35.16 35.16 0 004.72 1.6c1.79.45 5.19.15 6.67 1l-.19-.11q-7.36-4.12-14.5-8.61a28.16 28.16 0 01-5.28-4.15c-4.23-4.23-6.75-9.35-10.16-15-.64-1.08-1.42-2.19-2.23-3.31-1.94-2.72-4-5.58-4.64-8.51a59.47 59.47 0 019-4.06q2.12-.76 4.3-1.36l.77-.2 1.49-.38a11.2 11.2 0 00-4.74-.87c-3 .05-6 1-9 1.31a22.91 22.91 0 01-14-3.33c-2.53-1.41-5.1-2.8-7.66-4.17v5c1.08.54 2.17 1.05 3.28 1.54 4.23 1.64 8.04 2.92 11.31 6.53z"/><path class="cls-3" d="M296.76 201.11c-5.23 2.54-10.58 4.87-15.69 7.66a6.42 6.42 0 01-1.77.77 6.21 6.21 0 01-1.21.09h-6.29a26.26 26.26 0 00-3.32.14 14.31 14.31 0 00-2.37.66c3 .07 5.92 1 8.89 1.3a22.91 22.91 0 0014-3.33c2.6-1.39 5.17-2.78 7.73-4.17z"/><path class="cls-4" d="M289 208.39a22.91 22.91 0 01-14 3.33c-3-.34-5.92-1.23-8.89-1.3H266a11.2 11.2 0 00-4.77.88h.11a59.49 59.49 0 0115.41 6c-.6 2.93-2.7 5.79-4.64 8.51-.81 1.12-1.59 2.23-2.23 3.31-3 5-5.35 9.59-8.77 13.51a28.31 28.31 0 01-6.65 5.62q-7.07 4.45-14.37 8.53l-.29.17.32-.13h.05c1.61-.65 4.64-.43 6.31-.84a35.17 35.17 0 006.79-2.49 35.82 35.82 0 0011.73-9.16l.82-1c6.24-8 9.43-18.32 16.25-26 3.26-3.61 7.08-4.89 11.38-6.58 1.11-.48 2.18-1 3.26-1.53v-5c-2.54 1.39-5.11 2.78-7.71 4.17z"/><path class="cls-1" d="M211 148.39c.1-1.65-3.09-3.12-7.1-4.12-.75-.19-1.54-.36-2.34-.52-1.79-.46-3.69-.9-5.56-1.36-.05.09-.11.19-.17.28a3.43 3.43 0 01-1.7 1.31 5.3 5.3 0 01-3.68-.5h-.08l-.35-.21h-.06a5.35 5.35 0 01-.7-.58l-.08-.08a5.3 5.3 0 01-.57-.68l-.07-.11a5.28 5.28 0 01-.54-.82l-.07-.17a5.34 5.34 0 01-.25-.77h-.08a14.41 14.41 0 01-2.57-1.26c-11.15-7.46 25.17-11.2 4.97-19.8-6.37-2.73-15.28-5.31-16.36-8.49-.76-2.23 2.62-4.24 3.53-6.39 1-2.4-1.13-4.94-5.86-7.11-3-1.37-7.19-2.68-7.73-4.25-.45-1.3 1.77-2.43 3.48-3.55 8.28-5.43 4-16-14.73-20.6q-1.84-.45-3.87-.82h-.13c-22 4-27.43 15.63-18.6 21.42 1.71 1.12 3.93 2.24 3.48 3.55-.54 1.57-4.71 2.87-7.73 4.25q-.86.4-1.61.81c.34 2.42 1.29 3.11 3.32 4.74 3.28 2.64 7.53 3.73 10.81 6.35a2.13 2.13 0 011.16 1.15 2.1 2.1 0 01-.19 1.1q-2.07 7.32-4.65 14.46l-1 .53-.55.28v-.1l-.12.06c.17-.69.39-1.48.55-2.07l.09-.36-.09.36v-9a4.69 4.69 0 00-.21-1.69 4.4 4.4 0 00-1-1.41 33.66 33.66 0 00-7.48-5.83 6.2 6.2 0 01-1.84-1.35 5.33 5.33 0 01-.91-2.69c-.14-1-.24-1.92-.31-2.88-1.8 1.52-2.45 3.12-1.83 4.67.91 2.15 4.28 4.16 3.53 6.39-1.08 3.18-10 5.76-16.36 8.49-20.19 8.62 16.14 12.36 4.95 19.75a14.3 14.3 0 01-2.62 1.28 5.46 5.46 0 01-6.47 4 3.43 3.43 0 01-1.7-1.26l-.19-.32h.1c-1.88.46-3.79.91-5.59 1.37-.8.17-1.59.34-2.34.52a29.65 29.65 0 00-3.08.89c-2.09.74-3.6 1.64-4 2.61a1.31 1.31 0 00-.11.59c-.1 1.65 3.09 3.12 7.1 4.12.75.19 1.54.36 2.34.52 2.15.55 4.46 1.09 6.69 1.64 1.59.39 3.14.8 4.55 1.22a21.87 21.87 0 015.28 2.05c1.93 1.27 2.45 2.44 2.08 3.54-1.19 3.59-11.72 6.49-13.11 10.22-.65 1.76.73 3.7 6.07 6 6.37 2.73 15.28 5.31 16.36 8.49a2.25 2.25 0 01-.12 1.66c-.68 1.6-2.74 3.12-3.41 4.73a3.08 3.08 0 00-.23.93 2.92 2.92 0 000 .29v.15c.13 2 2.26 4 6.1 5.74 3 1.37 7.19 2.68 7.73 4.25a1.05 1.05 0 010 .72c-.36 1-2.08 1.92-3.47 2.83a8.09 8.09 0 00-4 5.72c-.55 4.74 4.16 10.25 14.63 13.71a7.82 7.82 0 001.87-1.98c1.22-1.77 2.11-3.81 3.64-5.33s3.87-2.52 6-3.44c5.31-2.31 10-5.81 14.75-9-1.62-1-3.43-2.06-3-3.25.54-1.57 4.71-2.87 7.73-4.25 4.74-2.17 6.83-4.71 5.86-7.11-.91-2.15-4.28-4.16-3.53-6.39 1.08-3.18 10-5.76 16.36-8.49 20.19-8.62-16.14-12.36-4.95-19.75a11 11 0 011.31-.72c3.6-1.71 9.85-3 15.17-4.28.8-.17 1.59-.34 2.34-.52.49-.12 1-.25 1.43-.39 3.3-.93 5.76-2.24 5.69-3.69zm-45 26.95c2-1.13 4.27-1 5 .4.67 1.19 0 2.89-1.6 4.06l-.28.18c-.13.09-.26.18-.4.26-2 1.13-4.27 1-5-.4a2 2 0 01-.12-.35c-.48-1.32.51-3.11 2.4-4.15z"/><path class="cls-10" d="M211 148.39c.1-1.65-3.09-3.12-7.1-4.12-.75-.19-1.54-.36-2.34-.52-1.79-.46-3.69-.9-5.56-1.36-.05.09-.11.19-.17.28a3.43 3.43 0 01-1.7 1.31 5.3 5.3 0 01-3.68-.5h-.08l-.35-.21h-.06a5.35 5.35 0 01-.7-.58l-.08-.08a5.3 5.3 0 01-.57-.68l-.07-.11a5.28 5.28 0 01-.54-.82l-.07-.17a5.34 5.34 0 01-.25-.77h-.08a14.41 14.41 0 01-2.57-1.26c-11.15-7.46 25.17-11.2 4.97-19.8-6.37-2.73-15.28-5.31-16.36-8.49-.76-2.23 2.62-4.24 3.53-6.39 1-2.4-1.13-4.94-5.86-7.11-3-1.37-7.19-2.68-7.73-4.25-.45-1.3 1.77-2.43 3.48-3.55 8.28-5.43 4-16-14.73-20.6q-1.84-.45-3.87-.82h-.13c-22 4-27.43 15.63-18.6 21.42 1.71 1.12 3.93 2.24 3.48 3.55-.54 1.57-4.71 2.87-7.73 4.25q-.86.4-1.61.81c.34 2.42 1.29 3.11 3.32 4.74 3.28 2.64 7.53 3.73 10.81 6.35a2.13 2.13 0 011.16 1.15 2.1 2.1 0 01-.19 1.1q-2.07 7.32-4.65 14.46l-1 .53-.55.28v-.1l-.12.06c.17-.69.39-1.48.55-2.07l.09-.36-.09.36v-9a4.69 4.69 0 00-.21-1.69 4.4 4.4 0 00-1-1.41 33.66 33.66 0 00-7.48-5.83 6.2 6.2 0 01-1.84-1.35 5.33 5.33 0 01-.91-2.69c-.14-1-.24-1.92-.31-2.88-1.8 1.52-2.45 3.12-1.83 4.67.91 2.15 4.28 4.16 3.53 6.39-1.08 3.18-10 5.76-16.36 8.49-20.19 8.62 16.14 12.36 4.95 19.75a14.3 14.3 0 01-2.62 1.28 5.46 5.46 0 01-6.47 4 3.43 3.43 0 01-1.7-1.26l-.19-.32h.1c-1.88.46-3.79.91-5.59 1.37-.8.17-1.59.34-2.34.52a29.65 29.65 0 00-3.08.89c-2.09.74-3.6 1.64-4 2.61a1.31 1.31 0 00-.11.59c-.1 1.65 3.09 3.12 7.1 4.12.75.19 1.54.36 2.34.52 2.15.55 4.46 1.09 6.69 1.64 1.59.39 3.14.8 4.55 1.22a21.87 21.87 0 015.28 2.05c1.93 1.27 2.45 2.44 2.08 3.54-1.19 3.59-11.72 6.49-13.11 10.22-.65 1.76.73 3.7 6.07 6 6.37 2.73 15.28 5.31 16.36 8.49a2.25 2.25 0 01-.12 1.66c-.68 1.6-2.74 3.12-3.41 4.73a3.08 3.08 0 00-.23.93 2.92 2.92 0 000 .29v.15c.13 2 2.26 4 6.1 5.74 3 1.37 7.19 2.68 7.73 4.25a1.05 1.05 0 010 .72c-.36 1-2.08 1.92-3.47 2.83a8.09 8.09 0 00-4 5.72c-.55 4.74 4.16 10.25 14.63 13.71a7.82 7.82 0 001.87-1.98c1.22-1.77 2.11-3.81 3.64-5.33s3.87-2.52 6-3.44c5.31-2.31 10-5.81 14.75-9-1.62-1-3.43-2.06-3-3.25.54-1.57 4.71-2.87 7.73-4.25 4.74-2.17 6.83-4.71 5.86-7.11-.91-2.15-4.28-4.16-3.53-6.39 1.08-3.18 10-5.76 16.36-8.49 20.19-8.62-16.14-12.36-4.95-19.75a11 11 0 011.31-.72c3.6-1.71 9.85-3 15.17-4.28.8-.17 1.59-.34 2.34-.52.49-.12 1-.25 1.43-.39 3.3-.93 5.76-2.24 5.69-3.69zm-45 26.95c2-1.13 4.27-1 5 .4.67 1.19 0 2.89-1.6 4.06l-.28.18c-.13.09-.26.18-.4.26-2 1.13-4.27 1-5-.4a2 2 0 01-.12-.35c-.48-1.32.51-3.11 2.4-4.15z"/><path class="cls-1" d="M146.78 228.7l1.52.3h.13c17.51-3.18 24.5-11.17 22.21-17.23l-.09.06-11.13 7.36a86 86 0 00-12.64 9.51z"/><path class="cls-10" d="M146.78 228.7l1.52.3h.13c17.51-3.18 24.5-11.17 22.21-17.23l-.09.06-11.13 7.36a86 86 0 00-12.64 9.51z"/><path class="cls-3" d="M192.38 205.39a27.64 27.64 0 00-11.38-2.53 9.69 9.69 0 00-5.48 2c-11.46 7.78-25.06 14.57-33.34 25.78h-1.52c-2.51 0-5-.4-7.52-.35a15.66 15.66 0 00-3 .31c-9.1 1.89-17.47 5.92-25.47 10.62-2.77 1.64-5 3.9-7.62 5.9h-.06c-.85 1.26-2.31 3.5-3.31 5l-.06.09c2.43-1.12 9.83-7.54 11.72-8.62 3.77-2.16 7.69-4 11.62-5.91 5.9-2.84 12.66-5.66 18.86-4.76a14.38 14.38 0 014.28 1.31 1.85 1.85 0 001.48.27 1.68 1.68 0 00.6-.62 34.36 34.36 0 014.5-5.21 86 86 0 0112.63-9.51l11.14-7.37.08-.05 5-3.29c3-2 5.46-3.26 9-3.15h.07c1.4.03 5.4-.17 7.78.09z"/><path class="cls-4" d="M166.64 207.3c-4.77 3.21-9.44 6.71-14.75 9-2.18.94-4.52 1.94-6 3.46s-2.42 3.56-3.64 5.33a7.82 7.82 0 01-1.87 1.92c-3.82 2.76-9.28 1-14 1.47-4.11.39-6.38 1.94-9.85 3.71-4.07 2.08-8.47 3.19-12.3 5.82a17.66 17.66 0 00-3.77 4 39.38 39.38 0 00-3.46 5.25l.07-.05h.06c2.61-2 4.85-4.26 7.62-5.9 8-4.7 16.37-8.73 25.47-10.62a15.66 15.66 0 013-.31c2.49 0 5 .34 7.52.35h1.52c8.28-11.21 21.88-18 33.34-25.78a9.69 9.69 0 015.48-2 27.64 27.64 0 0111.35 2.53c.78.33 1.55.68 2.28 1l.12.06c.12-.43-.23-.84-.56-1.14a17.09 17.09 0 00-11.72-4.94 15.77 15.77 0 00-5.88 1.22 57 57 0 00-10.03 5.62z"/><path class="cls-3" d="M80.3 68.17a14.8 14.8 0 004.33 8.23 56.83 56.83 0 014.46 3.83 9.5 9.5 0 00-.71-1.48c-1.22-1.65-2.66-3.15-4-4.71a4 4 0 01-.47-.63 4.14 4.14 0 01-.38-1.19c-1-4.5-2.49-8.87-3.58-13.34a35.87 35.87 0 00-1-3.5c-.32-.9-.71-1.77-1-2.66a26.28 26.28 0 01-1.42-5.46v.09c.38 7.11 2.29 13.88 3.77 20.82z"/><path class="cls-4" d="M78.34 86.24c.25-.77.46-1.62.66-2.49.5-2.1 1-4.33 2.17-5.87a37.91 37.91 0 019.48 5 7.21 7.21 0 00-1.59-2.67 56.83 56.83 0 00-4.46-3.83 14.8 14.8 0 01-4.33-8.23c-1.49-7-3.39-13.71-3.76-20.82v-.09c0-.77-.08-1.53-.08-2.31a26.2 26.2 0 00-1.21 11.89 48.09 48.09 0 002 10.16c1 2.81 2 5.21 1.63 8.33-.86 6.85-4.81 13-5.89 19.78a23.13 23.13 0 00.53 9.59 22.71 22.71 0 001.67 4.36c.54 1.05 2.1 2.56 2.34 3.64q-1.14-5.4-2-10.85a18.35 18.35 0 01-.27-3.13c.09-4.32 1.68-7.99 3.11-12.46z"/><path class="cls-3" d="M235.22 117.07h-.05c-5.64-1.22-10.84-3.67-16.31-5.44a48.2 48.2 0 00-5.18-1.39c-3.21-.65-6.56-.56-9.76-.89a7.9 7.9 0 011.54.56c1.22.46 2.42 1.08 3.62 1.61a43.75 43.75 0 005.26 2l5.53 1.64c1.33.39 2.68.7 4 1 1 .23 2.05.46 3.07.73a89.68 89.68 0 0010.81 1.62c-.52-.38-1.45-.88-2.53-1.44z"/><path class="cls-4" d="M218.86 111.6c5.49 1.77 10.67 4.21 16.31 5.4h.25a53.41 53.41 0 00-16.42-8.68 26 26 0 00-17.82.58 24.82 24.82 0 002.68.41h.06c3.2.33 6.55.25 9.76.89a48.2 48.2 0 015.18 1.4z"/><path class="cls-1" d="M107.81 134.52a7.13 7.13 0 01-.26 4 7.42 7.42 0 01-1.33 2.34c1-.31 2-.62 2.86-1a.23.23 0 01.05-.17A6.08 6.08 0 00109 137a11.59 11.59 0 00-1.32-3.17 3.76 3.76 0 01.16.69z"/><path class="cls-7" d="M107.81 134.52a7.13 7.13 0 01-.26 4 7.42 7.42 0 01-1.33 2.34c1-.31 2-.62 2.86-1a.23.23 0 01.05-.17A6.08 6.08 0 00109 137a11.59 11.59 0 00-1.32-3.17 3.76 3.76 0 01.16.69z"/><path class="cls-1" d="M100.32 141.46q.22.45.49.89l.39-.09a3.2 3.2 0 01-.88-.8z"/><path class="cls-7" d="M100.32 141.46q.22.45.49.89l.39-.09a3.2 3.2 0 01-.88-.8z"/><path class="cls-1" d="M109.08 140c-.87.34-1.85.66-2.89 1a4.2 4.2 0 01-4.42 1.62 2.88 2.88 0 01-.57-.29l-.29.07h-.1l.19.32a3.43 3.43 0 001.7 1.26 5.36 5.36 0 006.38-4z"/><path class="cls-10" d="M109.08 140c-.87.34-1.85.66-2.89 1a4.2 4.2 0 01-4.42 1.62 2.88 2.88 0 01-.57-.29l-.29.07h-.1l.19.32a3.43 3.43 0 001.7 1.26 5.36 5.36 0 006.38-4z"/><path class="cls-7" d="M109.08 140c-.87.34-1.85.66-2.89 1a4.2 4.2 0 01-4.42 1.62 2.88 2.88 0 01-.57-.29l-.29.07h-.1l.19.32a3.43 3.43 0 001.7 1.26 5.36 5.36 0 006.38-4z"/><path class="cls-12" d="M108 136.54a7 7 0 00-.16-2 2 2 0 00-1.15-.67 3.77 3.77 0 00-2.15.44l-.45.23-.19.13a12.12 12.12 0 00-1 .76l-.4.35q-.43.4-.83.84l-.38.45q-.35.44-.67.91-.17.26-.33.53-.28.48-.52 1c-.05.11-.11.22-.16.33a6.88 6.88 0 01-.18-.94 4.94 4.94 0 00.9 2.52 3.2 3.2 0 00.88.83 2.88 2.88 0 00.57.29 4.2 4.2 0 004.42-1.62 7.42 7.42 0 001.33-2.34 7 7 0 00.47-2.04z"/><path class="cls-1" d="M99.83 135.82c1.06-3 3.66-4.73 5.78-4a3.29 3.29 0 011.83 1.7l.2.28a3.76 3.76 0 00-2.08-2.27c-2.13-.77-4.72 1-5.78 4a6.91 6.91 0 00-.38 3.32 7.33 7.33 0 01.43-3.03z"/><path class="cls-13" d="M99.83 135.82c1.06-3 3.66-4.73 5.78-4a3.29 3.29 0 011.83 1.7l.2.28a3.76 3.76 0 00-2.08-2.27c-2.13-.77-4.72 1-5.78 4a6.91 6.91 0 00-.38 3.32 7.33 7.33 0 01.43-3.03z"/><path class="cls-1" d="M107.64 133.79l-.2-.28a5 5 0 01.37 1 3.76 3.76 0 00-.17-.72z"/><path class="cls-7" d="M107.64 133.79l-.2-.28a5 5 0 01.37 1 3.76 3.76 0 00-.17-.72z"/><path class="cls-13" d="M107.64 133.79l-.2-.28a5 5 0 01.37 1 3.76 3.76 0 00-.17-.72z"/><path class="cls-12" d="M99.76 139.52q.24-.5.52-1 .16-.27.33-.53.31-.47.67-.91l.38-.45q.39-.44.83-.84l.4-.35a12.12 12.12 0 011-.76l.19-.13.45-.23a3.6 3.6 0 012.15-.44 2 2 0 011.15.67 5 5 0 00-.35-1 3.29 3.29 0 00-1.84-1.71c-2.12-.73-4.72 1.05-5.78 4a7.33 7.33 0 00-.42 3v.06a6.88 6.88 0 00.18.94c.03-.1.09-.21.14-.32z"/><path class="cls-13" d="M99.76 139.52q.24-.5.52-1 .16-.27.33-.53.31-.47.67-.91l.38-.45q.39-.44.83-.84l.4-.35a12.12 12.12 0 011-.76l.19-.13.45-.23a3.6 3.6 0 012.15-.44 2 2 0 011.15.67 5 5 0 00-.35-1 3.29 3.29 0 00-1.84-1.71c-2.12-.73-4.72 1.05-5.78 4a7.33 7.33 0 00-.42 3v.06a6.88 6.88 0 00.18.94c.03-.1.09-.21.14-.32z"/><path class="cls-1" d="M190.52 140.93a7.42 7.42 0 01-1.35-2.37 6.67 6.67 0 01-.19-4 3.75 3.75 0 01.19-.69 6.64 6.64 0 00-.19.69v.22-.08a3.76 3.76 0 01.21-.8v-.08a.59.59 0 01.07-.16 10.79 10.79 0 00-1.46 3.34 6.08 6.08 0 00-.16 2.81.25.25 0 00.06.19c.87.31 1.85.63 2.82.93z"/><path class="cls-7" d="M190.52 140.93a7.42 7.42 0 01-1.35-2.37 6.67 6.67 0 01-.19-4 3.75 3.75 0 01.19-.69 6.64 6.64 0 00-.19.69v.22-.08a3.76 3.76 0 01.21-.8v-.08a.59.59 0 01.07-.16 10.79 10.79 0 00-1.46 3.34 6.08 6.08 0 00-.16 2.81.25.25 0 00.06.19c.87.31 1.85.63 2.82.93z"/><path class="cls-1" d="M195.55 142.27l.38.1a10.19 10.19 0 00.49-.9 3.2 3.2 0 01-.87.8z"/><path class="cls-7" d="M195.55 142.27l.38.1a10.19 10.19 0 00.49-.9 3.2 3.2 0 01-.87.8z"/><path class="cls-1" d="M195.56 142.27a2.86 2.86 0 01-.56.29 4.28 4.28 0 01-4.46-1.61c-1-.3-2-.62-2.82-1v.05a5.33 5.33 0 00.25.77l.07.17a5.34 5.34 0 00.41.75l.07.11a5.34 5.34 0 00.57.68l.08.08a5.33 5.33 0 00.7.58h.06l.35.21h.08a5.29 5.29 0 003.65.48 3.43 3.43 0 001.7-1.31c.06-.09.11-.18.16-.27z"/><path class="cls-10" d="M195.56 142.27a2.86 2.86 0 01-.56.29 4.28 4.28 0 01-4.46-1.61c-1-.3-2-.62-2.82-1v.05a5.33 5.33 0 00.25.77l.07.17a5.34 5.34 0 00.41.75l.07.11a5.34 5.34 0 00.57.68l.08.08a5.33 5.33 0 00.7.58h.06l.35.21h.08a5.29 5.29 0 003.65.48 3.43 3.43 0 001.7-1.31c.06-.09.11-.18.16-.27z"/><path class="cls-7" d="M195.56 142.27a2.86 2.86 0 01-.56.29 4.28 4.28 0 01-4.46-1.61c-1-.3-2-.62-2.82-1v.05a5.33 5.33 0 00.25.77l.07.17a5.34 5.34 0 00.41.75l.07.11a5.34 5.34 0 00.57.68l.08.08a5.33 5.33 0 00.7.58h.06l.35.21h.08a5.29 5.29 0 003.65.48 3.43 3.43 0 001.7-1.31c.06-.09.11-.18.16-.27z"/><path class="cls-12" d="M188.94 134.79v-.22a6.67 6.67 0 00.19 4 7.42 7.42 0 001.35 2.37 4.21 4.21 0 004.41 1.61 2.86 2.86 0 00.56-.29 3.2 3.2 0 00.88-.8 4.37 4.37 0 00.71-1.42 12.79 12.79 0 00-4.4-5.49 3.18 3.18 0 00-3-.35 2.46 2.46 0 00-.73.58z"/><path class="cls-12" d="M189 134.57a6.64 6.64 0 01.19-.69 3.75 3.75 0 00-.19.69zm.27-.92a3.76 3.76 0 011.42-1.6 3.41 3.41 0 00-1.38 1.47.23.23 0 010 .05.41.41 0 01-.04.08zm-.07.14v-.09.09z"/><path class="cls-1" d="M193.22 131.82a6.31 6.31 0 013.74 4 6.94 6.94 0 01.44 2.07 6.89 6.89 0 00-.44-2.13c-1.06-3-3.65-4.77-5.78-4a3.72 3.72 0 00-.5.27 2.85 2.85 0 01.46-.24l.32-.08a3.39 3.39 0 011.76.11z"/><path class="cls-13" d="M193.22 131.82a6.31 6.31 0 013.74 4 6.94 6.94 0 01.44 2.07 6.89 6.89 0 00-.44-2.13c-1.06-3-3.65-4.77-5.78-4a3.72 3.72 0 00-.5.27 2.85 2.85 0 01.46-.24l.32-.08a3.39 3.39 0 011.76.11z"/><path class="cls-12" d="M193.22 131.82a3.25 3.25 0 00-2 0 2.84 2.84 0 00-.46.24 3.77 3.77 0 00-1.5 1.7v.08a3.76 3.76 0 00-.21.8v.11a2.46 2.46 0 01.73-.58 3.16 3.16 0 013 .35 12.79 12.79 0 014.41 5.4 7 7 0 00-.22-4.23 6.31 6.31 0 00-3.75-3.87z"/><path class="cls-13" d="M193.22 131.82a3.25 3.25 0 00-2 0 2.84 2.84 0 00-.46.24 3.77 3.77 0 00-1.5 1.7v.08a3.76 3.76 0 00-.21.8v.11a2.46 2.46 0 01.73-.58 3.16 3.16 0 013 .35 12.79 12.79 0 014.41 5.4 7 7 0 00-.22-4.23 6.31 6.31 0 00-3.75-3.87z"/><path class="cls-3" d="M121.81 102.31a5.33 5.33 0 00.91 2.69 6.2 6.2 0 001.84 1.35 33.66 33.66 0 017.48 5.83 4.4 4.4 0 011 1.41 4.69 4.69 0 01.21 1.69v9l.09-.36c.13-.47.26-.94.36-1.42a71.12 71.12 0 001.41-8.93c.29-3.28-4.78-6.12-7.4-8-1-.71-2.2-1.16-3.2-1.86a1.53 1.53 0 01-.76-1.08q-.21-.75-.38-1.51a35 35 0 01-.74-11.35c-.06-.66-.13-1.32-.22-2v-.12a38.83 38.83 0 00-.91 11.63v.12c.07.99.17 1.95.31 2.91z"/><path class="cls-4" d="M123.37 101.13q.17.76.38 1.51a1.53 1.53 0 00.76 1.08c1 .7 2.2 1.15 3.2 1.86 2.62 1.87 7.69 4.71 7.4 8a71.09 71.09 0 01-1.41 8.93c-.1.47-.23.95-.36 1.42l-.09.36c-.16.59-.38 1.38-.55 2.07l.12-.06.43-.22 1-.53q2.58-7.14 4.65-14.46a2.1 2.1 0 00.19-1.1 2.13 2.13 0 00-1.16-1.15c-3.28-2.62-7.53-3.71-10.81-6.35-2-1.63-3-2.32-3.32-4.74v-.26c-.31-2.62-.92-5.18-1.14-7.76v.06a35 35 0 00.71 11.34z"/><path class="cls-1" d="M163.69 179.84c.76 1.35 3 1.53 5 .41.14-.08.27-.17.4-.26l.28-.18c1.56-1.16 2.27-2.86 1.6-4.06-.76-1.35-3-1.53-5-.4-1.86 1-2.86 2.83-2.41 4.17a1.9 1.9 0 00.13.32z"/><path class="cls-10" d="M163.69 179.84c.76 1.35 3 1.53 5 .41.14-.08.27-.17.4-.26l.28-.18c1.56-1.16 2.27-2.86 1.6-4.06-.76-1.35-3-1.53-5-.4-1.86 1-2.86 2.83-2.41 4.17a1.9 1.9 0 00.13.32z"/><path class="cls-5" d="M163.69 179.84c.76 1.35 3 1.53 5 .41.14-.08.27-.17.4-.26l.28-.18c1.56-1.16 2.27-2.86 1.6-4.06-.76-1.35-3-1.53-5-.4-1.86 1-2.86 2.83-2.41 4.17a1.9 1.9 0 00.13.32z"/><path class="cls-3" d="M239.71 291.56c1.18-1.87 2.71-4.28 2.92-6.3a10 10 0 00-.68-4.06 81.34 81.34 0 00-6.85-15.48l.26.27c-.59-.76-1.2-1.5-1.85-2.21.16.54.32 1.07.49 1.6q.44 1.44.9 2.86t1 2.83c.65 1.88 1.34 3.75 2.07 5.62a18.1 18.1 0 011.39 7q0 .47-.06.94a13.74 13.74 0 01-.31 1.87 18.89 18.89 0 01-2.56 5.76c-.72 1.14-1.5 2.23-2.29 3.32-.29.37-.57.75-.85 1.13H237a24.28 24.28 0 012.22-4.41z"/><path class="cls-4" d="M242.83 294.46c.48-1.07 1.08-2.08 1.62-3.11a14.3 14.3 0 001.33-3.22 8.08 8.08 0 00.26-1.76 14.19 14.19 0 00-.17-2.27 23.25 23.25 0 00-.55-2.91c-.14-.54-.3-1.07-.47-1.6l-.16-.47c-.13-.38-.28-.75-.43-1.12s-.38-.87-.59-1.3l-.18-.36a23.26 23.26 0 00-1.3-2.23 75.283 75.283 0 00-4.27-5.32q-1.22-1.39-2.5-2.72l-.07-.08-.26-.27A81.34 81.34 0 01242 281.2a10 10 0 01.68 4.06c-.21 2-1.74 4.43-2.92 6.3l-.45.72a24.28 24.28 0 00-2.22 4.41h4.75c.37-.81.7-1.59.99-2.23z"/></svg>