<svg id="layer_1" data-name="layer 1" xmlns="http://www.w3.org/2000/svg" viewBox="0 0 53.09 72.8"><defs><style>.cls-1{fill:#ffc226}.cls-2{fill:#ffba2c}.cls-3{fill:#fbdba4}</style></defs><g id="layer_1-2" data-name="layer 1"><path class="cls-1" d="M46.37 6L31.31.29 20.43 30.67q-.62 1.45-1.19 3c-.71 1.88-1.34 3.76-1.88 5.61l-10 27.82 14 5.26c8.07 3 20.22-9.34 27.13-27.66S54.45 9 46.37 6z"/><path class="cls-2" d="M46.37 6L31.31.29 20.43 30.67q-.62 1.45-1.19 3c-.71 1.88-1.34 3.76-1.88 5.61l-10 27.82 14 5.26c8.07 3 20.22-9.34 27.13-27.66S54.45 9 46.37 6z"/><path class="cls-3" d="M46.37 6L31.31.29 20.43 30.67q-.62 1.45-1.19 3c-.71 1.88-1.34 3.76-1.88 5.61l-10 27.82 14 5.26c8.07 3 20.22-9.34 27.13-27.66S54.45 9 46.37 6z"/><path class="cls-3" d="M33 .92L31.82.5l-25 66.35 1.12.43c8.08 3 20.22-9.34 27.13-27.67S41.07 4 33 .92z"/><path class="cls-1" d="M50 8.92L30.82 1.67 30.32 3l20.83 7.86A12.61 12.61 0 0050 8.92zM7.9 65.68L26 72.52a12.38 12.38 0 002.15-.73L8.39 64.32zm3.74-10.44L37 64.78l1-1.17-25.87-9.73zm-1.82 5.22L32.56 69c.42-.33.83-.69 1.25-1.07L10.26 59.1zM13.51 50l27 10.17c.28-.4.55-.81.83-1.23L14 48.66zm3.86-10.75l-.12.33 28.8 10.86c.21-.43.4-.87.6-1.31l-29-10.92c-.07.34-.18.69-.28 1.04zm-1.99 5.55l28.11 10.6.71-1.27-28.38-10.69zm3.87-11.16c-.09.23-.16.45-.24.68l29.22 11 .26-.67.24-.68L19.51 33c-.08.19-.18.41-.26.64zm3.57-9.72l28.69 10.8c.11-.48.21-1 .31-1.42L23.33 22.56zM21 29.13l29.07 11c.15-.46.28-.92.42-1.39l-29-10.93zm3.72-10.43l27.82 10.49c.07-.49.14-1 .19-1.47L25.21 17.34zm3.74-10.45l24.36 9.21c-.06-.55-.14-1.1-.23-1.63L28.94 6.89zm-1.88 5.23l26.49 10v-1.53l-26-9.82z" opacity=".4"/><ellipse class="cls-1" cx="19.25" cy="33.64" rx="35.46" ry="15.63" transform="rotate(-69.34 19.247 33.64)"/><path class="cls-1" d="M5.41 28.42c6.8-18 18.66-30.29 26.73-27.79l-.38-.17c-8.08-3-20.22 9.34-27.13 27.67s-6 35.64 2.11 38.69c.13.05.27.08.4.12-7.72-3.45-8.53-20.5-1.73-38.52z"/><ellipse class="cls-2" cx="18.8" cy="33.46" rx="28.71" ry="12.65" transform="rotate(-69.35 18.799 33.459)"/><ellipse class="cls-1" cx="18.8" cy="33.46" rx="26.08" ry="11.49" transform="rotate(-69.34 18.804 33.461)"/><path class="cls-1" d="M9.12 29.82c4.93-13.07 13.47-22 19.4-20.52a4.58 4.58 0 00-.52-.24c-5.95-2.24-14.88 6.87-20 20.35S3.6 55.63 9.54 57.87a4.64 4.64 0 00.55.17C4.7 55.26 4.2 42.88 9.12 29.82z"/></g></svg>