<svg id="layer_1" data-name="layer 1" xmlns="http://www.w3.org/2000/svg" viewBox="0 0 164.35 176.04"><defs><style>.cls-1{fill:#c46c1a}.cls-2{opacity:.3}.cls-3{fill:#c4ae1a}.cls-4{fill:#c4931a}.cls-5{fill:#fc9f21}.cls-6{fill:#fcee21}.cls-7{fill:#fccb21}</style></defs><g id="layer_1-2" data-name="layer 1"><path class="cls-1" d="M163.47 163.57v10.53a1.92 1.92 0 01-1.92 1.92H88.78a1.92 1.92 0 01-1.92-1.92v-10.53a1.35 1.35 0 010-.33 1.91 1.91 0 011.89-1.59h72.77a1.91 1.91 0 011.89 1.59 1.35 1.35 0 01.06.33z"/><g class="cls-2"><path class="cls-3" d="M93.55 161.63h6.46v14.36h-6.46zm10.39 0h6.46v14.36h-6.46zm36.68 0h16.15v14.36h-16.15z"/></g><path class="cls-4" d="M163.44 163.22H86.89a1.91 1.91 0 011.89-1.59h72.77a1.91 1.91 0 011.89 1.59zm-76.55 11.19h76.55a1.91 1.91 0 01-1.89 1.59H88.78a1.91 1.91 0 01-1.89-1.59z"/><path class="cls-1" d="M154 149.19v10.53a1.92 1.92 0 01-1.92 1.92H79.29a1.92 1.92 0 01-1.92-1.92v-10.53a1.35 1.35 0 010-.33 1.91 1.91 0 011.89-1.59H152a1.91 1.91 0 011.89 1.59 1.35 1.35 0 01.11.33z"/><g class="cls-2"><path class="cls-3" d="M84.06 147.27h6.46v14.36h-6.46zm10.39 0h6.46v14.36h-6.46zm36.68 0h16.15v14.36h-16.15z"/></g><path class="cls-4" d="M153.94 148.86H77.4a1.91 1.91 0 011.89-1.59h72.77a1.91 1.91 0 011.88 1.59zM77.4 160h76.54a1.91 1.91 0 01-1.89 1.59H79.29A1.91 1.91 0 0177.4 160z"/><path class="cls-1" d="M145.47 134.83v10.53a1.92 1.92 0 01-1.92 1.92H70.78a1.92 1.92 0 01-1.92-1.92v-10.53a1.35 1.35 0 010-.33 1.91 1.91 0 011.89-1.59h72.77a1.91 1.91 0 011.89 1.59 1.35 1.35 0 01.06.33z"/><g class="cls-2"><path class="cls-3" d="M75.55 132.91h6.46v14.36h-6.46zm10.39 0h6.46v14.36h-6.46zm36.69 0h16.15v14.36h-16.15z"/></g><path class="cls-4" d="M145.44 134.5H68.89a1.91 1.91 0 011.89-1.59h72.77a1.91 1.91 0 011.89 1.59zm-76.55 11.18h76.55a1.91 1.91 0 01-1.89 1.59H70.78a1.91 1.91 0 01-1.89-1.59z"/><path class="cls-1" d="M154 120.26v10.53a1.92 1.92 0 01-1.92 1.92H79.29a1.92 1.92 0 01-1.92-1.92v-10.53a1.35 1.35 0 010-.33 1.91 1.91 0 011.89-1.59H152a1.91 1.91 0 011.89 1.59 1.35 1.35 0 01.11.33z"/><g class="cls-2"><path class="cls-3" d="M84.06 118.35h6.46v14.36h-6.46zm10.39 0h6.46v14.36h-6.46zm36.68 0h16.15v14.36h-16.15z"/></g><path class="cls-4" d="M153.94 119.94H77.4a1.91 1.91 0 011.89-1.59h72.77a1.91 1.91 0 011.88 1.59zM77.4 131.12h76.54a1.91 1.91 0 01-1.89 1.59H79.29a1.91 1.91 0 01-1.89-1.59z"/><path class="cls-1" d="M145.47 106.1v10.53a1.92 1.92 0 01-1.92 1.92H70.78a1.92 1.92 0 01-1.92-1.92V106.1a1.35 1.35 0 010-.33 1.91 1.91 0 011.89-1.59h72.77a1.91 1.91 0 011.89 1.59 1.35 1.35 0 01.06.33z"/><g class="cls-2"><path class="cls-3" d="M75.55 104.19h6.46v14.36h-6.46zm10.39 0h6.46v14.36h-6.46zm36.69 0h16.15v14.36h-16.15z"/></g><path class="cls-4" d="M145.44 105.78H68.89a1.91 1.91 0 011.89-1.59h72.77a1.91 1.91 0 011.89 1.59zM68.89 117h76.55a1.91 1.91 0 01-1.89 1.59H70.78a1.91 1.91 0 01-1.89-1.59z"/><path class="cls-1" d="M138.28 87.3l1.29 10.45a1.92 1.92 0 01-1.67 2.14l-72.22 8.9a1.92 1.92 0 01-2.14-1.67l-1.3-10.45a1.35 1.35 0 010-.33 1.91 1.91 0 011.68-1.81l72.22-8.9a1.91 1.91 0 012.07 1.37 1.35 1.35 0 01.07.3z"/><g class="cls-2"><path class="cls-3" transform="rotate(-7.02 72.701 100.683)" d="M69.49 93.5h6.46v14.36h-6.46z"/><path class="cls-3" transform="rotate(-7.02 83.006 99.433)" d="M79.8 92.24h6.46v14.36H79.8z"/><path class="cls-3" transform="rotate(-7.02 124.229 94.352)" d="M116.18 87.16h16.15v14.36h-16.15z"/></g><path class="cls-4" d="M138.21 87l-76 9.36a1.91 1.91 0 011.68-1.81l72.22-8.9a1.91 1.91 0 012.1 1.35zM63.6 107.44l76-9.36a1.91 1.91 0 01-1.68 1.81l-72.22 8.9a1.91 1.91 0 01-2.1-1.35z"/><path class="cls-1" d="M107.19 79.57l-.59 10.51a1.92 1.92 0 01-2 1.8L32 87.77a1.92 1.92 0 01-1.81-2l.59-10.51a1.35 1.35 0 01.05-.32 1.91 1.91 0 012-1.48l72.65 4.11a1.91 1.91 0 011.8 1.69 1.35 1.35 0 01-.09.31z"/><g class="cls-2"><path class="cls-3" transform="rotate(-86.76 40.312 81.033)" d="M33.13 77.8h14.36v6.46H33.13z"/><path class="cls-3" transform="rotate(-86.76 50.679 81.615)" d="M43.5 78.38h14.36v6.46H43.5z"/><path class="cls-3" transform="rotate(-86.76 92.143 83.96)" d="M84.96 75.89h14.36v16.15H84.96z"/></g><path class="cls-4" d="M107.18 79.21l-76.42-4.33a1.91 1.91 0 012-1.48l72.65 4.11a1.91 1.91 0 011.77 1.7zm-77.06 6.84l76.42 4.33a1.91 1.91 0 01-2 1.48l-72.65-4.11a1.91 1.91 0 01-1.77-1.7z"/><path class="cls-5" d="M131.19 160.7v12.94a1.78 1.78 0 010 .41 2.26 2.26 0 01-.1.4 3.11 3.11 0 01-.14.33.17.17 0 000 .07 2.45 2.45 0 01-.82.82l-.09.05-.29.13a2 2 0 01-.36.1h-.07a1.78 1.78 0 01-.41 0H39.37a1.78 1.78 0 01-.41 0h-.07a2 2 0 01-.36-.1l-.29-.13-.11-.07a2.31 2.31 0 01-.79-.8.16.16 0 000-.07 3.13 3.13 0 01-.14-.33 2.25 2.25 0 01-.1-.4 1.78 1.78 0 010-.41V160.7a1.35 1.35 0 010-.41 2.35 2.35 0 012.32-2h89.42a2.36 2.36 0 012.33 2 1.78 1.78 0 01.02.41z"/><g class="cls-2"><path class="cls-6" d="M45.23 158.34h7.95V176h-7.95zm12.77 0h7.94V176H58zm45.1 0h19.86V176H103.1z"/></g><path class="cls-7" d="M131.15 160.29h-94.1a2.35 2.35 0 012.32-2h89.47a2.36 2.36 0 012.31 2zM37.05 174h94.1a2.35 2.35 0 01-2.32 2H39.37a2.35 2.35 0 01-2.32-2z"/><path class="cls-5" d="M117.63 143v13a1.78 1.78 0 010 .41 2.27 2.27 0 01-.1.4 3.17 3.17 0 01-.14.33.16.16 0 000 .07 2.17 2.17 0 01-.51.59 1.94 1.94 0 01-.41.28l-.29.13a2 2 0 01-.36.1h-.07a1.78 1.78 0 01-.41 0h-89.5a1.78 1.78 0 01-.41 0h-.07a2 2 0 01-.36-.1l-.29-.13-.11-.08a2.31 2.31 0 01-.79-.8.16.16 0 000-.07 3.13 3.13 0 01-.14-.33 2.26 2.26 0 01-.1-.4 1.78 1.78 0 010-.41V143a1.35 1.35 0 010-.41 2.38 2.38 0 012.31-1.95h89.44a2.36 2.36 0 012.33 2 1.78 1.78 0 01-.02.36z"/><g class="cls-2"><path class="cls-6" d="M31.67 140.68h7.95v17.66h-7.95zm12.77 0h7.94v17.66h-7.94zm64.96 0v17.66H89.54v-17.66h19.86z"/></g><path class="cls-7" d="M117.59 142.64h-94.1a2.38 2.38 0 012.31-1.95h89.44a2.36 2.36 0 012.35 1.95zm-94.1 13.75h94.1a2.35 2.35 0 01-2.32 2H25.84a2.35 2.35 0 01-2.35-2z"/><path class="cls-5" d="M100.56 125.93v12.94a1.75 1.75 0 010 .4 2.65 2.65 0 01-.1.41 2.41 2.41 0 01-.17.37 2.16 2.16 0 01-.52.62l-.2.14-.15.1-.29.13a2 2 0 01-.36.1h-.07a1.78 1.78 0 01-.41 0H8.74a1.78 1.78 0 01-.41 0h-.07a2 2 0 01-.36-.1l-.29-.13-.11-.07a2.34 2.34 0 01-.8-.83 2.41 2.41 0 01-.17-.37 2.66 2.66 0 01-.1-.41 1.75 1.75 0 010-.4v-12.9a1.78 1.78 0 010-.41 2.34 2.34 0 012.32-2h89.46a2.34 2.34 0 012.33 2 1.78 1.78 0 01.02.41z"/><g class="cls-2"><path class="cls-6" d="M14.61 123.57h7.95v17.66h-7.95zm12.77 0h7.94v17.66h-7.94zm45.09.01h19.86v17.66H72.47z"/></g><path class="cls-7" d="M100.52 125.57H6.42a2.34 2.34 0 012.32-2H98.2a2.34 2.34 0 012.32 2zm0 13.7a2.65 2.65 0 01-.1.41 2.41 2.41 0 01-.17.37 2.16 2.16 0 01-.52.62l-.2.14-.15.1-.29.13a2 2 0 01-.36.1h-.07a1.78 1.78 0 01-.41 0H8.74a1.78 1.78 0 01-.41 0h-.07a2 2 0 01-.36-.1l-.29-.13-.11-.07a2.34 2.34 0 01-.8-.83 2.41 2.41 0 01-.17-.37 2.66 2.66 0 01-.1-.41z"/><path class="cls-5" d="M94.14 108.14v12.94a1.75 1.75 0 010 .4 2.64 2.64 0 01-.1.41 2.41 2.41 0 01-.17.37 2.16 2.16 0 01-.52.62l-.2.14-.15.1-.29.13a2 2 0 01-.36.1h-.07a1.78 1.78 0 01-.41 0H2.32a1.78 1.78 0 01-.41 0h-.07a2 2 0 01-.36-.1l-.29-.13-.11-.07a2.33 2.33 0 01-.8-.83 2.4 2.4 0 01-.17-.37 2.65 2.65 0 01-.1-.41 1.75 1.75 0 010-.4v-12.9a1.78 1.78 0 010-.41 2.34 2.34 0 012.32-2h89.46a2.34 2.34 0 012.33 2 1.78 1.78 0 01.02.41z"/><g class="cls-2"><path class="cls-6" d="M8.19 105.78h7.95v17.66H8.19zm12.77 0h7.94v17.66h-7.94zm45.09 0h19.86v17.66H66.05z"/></g><path class="cls-7" d="M94.1 107.73H0a2.34 2.34 0 012.32-2h89.46a2.34 2.34 0 012.32 2zm0 13.75a2.64 2.64 0 01-.1.41 2.41 2.41 0 01-.17.37 2.16 2.16 0 01-.52.62l-.2.14-.15.1-.29.13a2 2 0 01-.36.1h-.07a1.78 1.78 0 01-.41 0H2.32a1.78 1.78 0 01-.41 0h-.07a2 2 0 01-.36-.1l-.29-.13-.11-.07a2.33 2.33 0 01-.8-.83 2.4 2.4 0 01-.17-.37 2.65 2.65 0 01-.1-.41z"/><path class="cls-5" d="M107.42 90.52v12.94a1.75 1.75 0 010 .4 2.65 2.65 0 01-.1.41 2.42 2.42 0 01-.17.37 2.16 2.16 0 01-.52.62l-.2.14-.15.1-.29.13a2 2 0 01-.36.1h-.07a1.78 1.78 0 01-.41 0H15.6a1.78 1.78 0 01-.41 0h-.07a2 2 0 01-.36-.1l-.29-.13-.11-.07a2.34 2.34 0 01-.8-.83 2.41 2.41 0 01-.17-.37 2.65 2.65 0 01-.1-.41 1.75 1.75 0 010-.4v-12.9a1.78 1.78 0 010-.41 2.34 2.34 0 012.32-2h89.46a2.34 2.34 0 012.33 2 1.78 1.78 0 01.02.41z"/><g class="cls-2"><path class="cls-6" d="M21.47 88.16h7.95v17.66h-7.95zm12.77 0h7.94v17.66h-7.94zm45.09 0h19.86v17.66H79.33z"/></g><path class="cls-7" d="M107.38 90.11h-94.1a2.34 2.34 0 012.32-2h89.46a2.34 2.34 0 012.32 2zm0 13.75a2.65 2.65 0 01-.1.41 2.42 2.42 0 01-.17.37 2.16 2.16 0 01-.52.62l-.2.14-.15.1-.29.13a2 2 0 01-.36.1h-.07a1.78 1.78 0 01-.41 0H15.6a1.78 1.78 0 01-.41 0h-.07a2 2 0 01-.36-.1l-.29-.13-.11-.07a2.34 2.34 0 01-.8-.83 2.41 2.41 0 01-.17-.37 2.65 2.65 0 01-.1-.41z"/><path class="cls-5" d="M115.42 72.9v12.94a1.75 1.75 0 010 .4 2.65 2.65 0 01-.1.41 2.4 2.4 0 01-.17.37 2.16 2.16 0 01-.52.62l-.2.14-.15.1-.28.12a2 2 0 01-.36.1h-.07a1.78 1.78 0 01-.41 0H23.6a1.78 1.78 0 01-.41 0h-.07a2 2 0 01-.36-.1l-.29-.13-.11-.07a2.33 2.33 0 01-.8-.83 2.4 2.4 0 01-.17-.37 2.64 2.64 0 01-.1-.41 1.75 1.75 0 010-.4V72.9a1.78 1.78 0 010-.41 2.34 2.34 0 012.32-2h89.46a2.34 2.34 0 012.33 2 1.78 1.78 0 01.02.41z"/><g class="cls-2"><path class="cls-6" d="M29.47 70.54h7.95V88.2h-7.95zm12.77 0h7.94V88.2h-7.94zm45.1 0h19.86V88.2H87.34z"/></g><path class="cls-7" d="M115.38 72.49h-94.1a2.34 2.34 0 012.32-2h89.46a2.34 2.34 0 012.32 2zm0 13.74a2.65 2.65 0 01-.1.41 2.4 2.4 0 01-.17.37 2.16 2.16 0 01-.52.62l-.2.14-.15.1-.24.13a2 2 0 01-.36.1h-.07a1.78 1.78 0 01-.41 0H23.6a1.78 1.78 0 01-.41 0h-.07a2 2 0 01-.36-.1l-.29-.13-.11-.07a2.33 2.33 0 01-.8-.83 2.4 2.4 0 01-.17-.37 2.64 2.64 0 01-.1-.41z"/><path class="cls-5" d="M107.42 55.27v12.94a1.75 1.75 0 010 .4 2.64 2.64 0 01-.1.41 2.41 2.41 0 01-.17.37 2.16 2.16 0 01-.52.62l-.2.14-.15.1-.29.13a2 2 0 01-.36.1h-.07a1.77 1.77 0 01-.41 0H15.6a1.77 1.77 0 01-.41 0h-.07a2 2 0 01-.36-.1l-.29-.13-.11-.07a2.33 2.33 0 01-.8-.83 2.41 2.41 0 01-.17-.37 2.64 2.64 0 01-.1-.41 1.75 1.75 0 010-.4v-12.9a1.78 1.78 0 010-.41 2.34 2.34 0 012.32-2h89.46a2.34 2.34 0 012.33 2 1.78 1.78 0 01.02.41z"/><g class="cls-2"><path class="cls-6" d="M21.47 52.91h7.95v17.66h-7.95zm12.77 0h7.94v17.66h-7.94zm45.09.01h19.86v17.66H79.33z"/></g><path class="cls-7" d="M107.38 54.87h-94.1a2.34 2.34 0 012.32-2h89.46a2.34 2.34 0 012.32 2zm0 13.7a2.64 2.64 0 01-.1.41 2.41 2.41 0 01-.17.37 2.16 2.16 0 01-.52.62l-.2.14-.15.1-.29.13a2 2 0 01-.36.1h-.07a1.77 1.77 0 01-.41 0H15.6a1.77 1.77 0 01-.41 0h-.07a2 2 0 01-.36-.1l-.29-.13-.11-.07a2.33 2.33 0 01-.8-.83 2.41 2.41 0 01-.17-.37 2.64 2.64 0 01-.1-.41z"/><path class="cls-5" d="M117.28 37.65v12.92a1.75 1.75 0 010 .4 2.66 2.66 0 01-.1.41 2.41 2.41 0 01-.17.37 2.16 2.16 0 01-.52.62l-.2.14-.15.1-.29.13a2 2 0 01-.36.1h-.07a1.78 1.78 0 01-.41 0H25.45a1.78 1.78 0 01-.41 0H25a2 2 0 01-.36-.1l-.29-.13-.11-.07a2.33 2.33 0 01-.8-.83 2.41 2.41 0 01-.17-.37 2.65 2.65 0 01-.1-.41 1.75 1.75 0 010-.4V37.65a1.78 1.78 0 010-.41 2.34 2.34 0 012.32-2h89.46a2.34 2.34 0 012.33 2 1.78 1.78 0 010 .41z"/><g class="cls-2"><path class="cls-6" d="M31.32 35.29h7.95v17.66h-7.95zm12.77 0h7.94v17.66h-7.94zm45.1.01h19.86v17.66H89.19z"/></g><path class="cls-7" d="M117.24 37.25h-94.1a2.34 2.34 0 012.32-2h89.46a2.34 2.34 0 012.32 2zm0 13.75a2.66 2.66 0 01-.1.41 2.41 2.41 0 01-.17.37 2.16 2.16 0 01-.52.62l-.2.14-.15.1-.29.13a2 2 0 01-.36.1h-.07a1.78 1.78 0 01-.41 0H25.45a1.78 1.78 0 01-.41 0H25a2 2 0 01-.36-.1l-.29-.13-.11-.07a2.33 2.33 0 01-.8-.83 2.41 2.41 0 01-.17-.37 2.65 2.65 0 01-.1-.41z"/><path class="cls-5" d="M122.64 20v13a1.75 1.75 0 010 .4 2.65 2.65 0 01-.1.41 2.4 2.4 0 01-.17.37 2.16 2.16 0 01-.52.62l-.2.14-.15.1-.29.13a2 2 0 01-.36.1h-.07a1.78 1.78 0 01-.41 0H30.84a1.78 1.78 0 01-.41 0h-.07a2 2 0 01-.36-.1l-.29-.17-.11-.07a2.33 2.33 0 01-.8-.83 2.4 2.4 0 01-.17-.37 2.64 2.64 0 01-.1-.41 1.75 1.75 0 010-.4V20a1.78 1.78 0 010-.41 2.34 2.34 0 012.32-2h89.46a2.34 2.34 0 012.33 2 1.78 1.78 0 010 .41z"/><g class="cls-2"><path class="cls-6" d="M36.69 17.67h7.95v17.66h-7.95zm12.77 0h7.94v17.66h-7.94zm45.09 0h19.86v17.66H94.55z"/></g><path class="cls-7" d="M122.6 19.62H28.5a2.34 2.34 0 012.32-2h89.46a2.34 2.34 0 012.32 2zm0 13.75a2.65 2.65 0 01-.1.41 2.4 2.4 0 01-.17.37 2.16 2.16 0 01-.52.62l-.2.14-.15.1-.29.13a2 2 0 01-.36.1h-.07a1.78 1.78 0 01-.41 0H30.84a1.78 1.78 0 01-.41 0h-.07a2 2 0 01-.36-.1l-.29-.14-.11-.07a2.33 2.33 0 01-.8-.83 2.4 2.4 0 01-.17-.37 2.64 2.64 0 01-.1-.41z"/><path class="cls-5" d="M130.61 2.41v12.94a1.75 1.75 0 010 .4 2.64 2.64 0 01-.1.41 2.41 2.41 0 01-.17.37 2.16 2.16 0 01-.52.62l-.2.14-.15.1-.29.13a2 2 0 01-.36.1h-.07a1.78 1.78 0 01-.41 0H38.78a1.78 1.78 0 01-.41 0h-.07a2 2 0 01-.36-.1l-.29-.13-.11-.07a2.33 2.33 0 01-.8-.83 2.4 2.4 0 01-.17-.37 2.65 2.65 0 01-.1-.41 1.75 1.75 0 010-.4V2.41a1.79 1.79 0 010-.41 2.34 2.34 0 012.32-2h89.45a2.34 2.34 0 012.33 2 1.78 1.78 0 01.04.41z"/><g class="cls-2"><path class="cls-6" d="M44.65.05h7.95v17.66h-7.95zm12.77 0h7.94v17.66h-7.94zm45.1 0h19.86v17.66h-19.86z"/></g><path class="cls-7" d="M130.57 2h-94.1a2.34 2.34 0 012.32-2h89.45a2.34 2.34 0 012.33 2zm0 13.75a2.64 2.64 0 01-.1.41 2.41 2.41 0 01-.17.37 2.16 2.16 0 01-.52.62l-.2.14-.15.1-.29.13a2 2 0 01-.36.1h-.07a1.78 1.78 0 01-.41 0H38.78a1.78 1.78 0 01-.41 0h-.07a2 2 0 01-.36-.1l-.29-.13-.11-.07a2.33 2.33 0 01-.8-.83 2.4 2.4 0 01-.17-.37 2.65 2.65 0 01-.1-.41z"/><path d="M117.59 142.64a1.78 1.78 0 010 .41v12.52l-8.23-5.77-10.26-7.19-2-1.4-.78-.55-2-1.41-2-1.41-17.58-12.27-2.27-1.57-.52-.37h26.24a2.34 2.34 0 012.33 2 1.78 1.78 0 010 .41V139a1.75 1.75 0 010 .4 2.65 2.65 0 01-.1.41 2.41 2.41 0 01-.17.37 2.16 2.16 0 01-.52.62h15.55a2.36 2.36 0 012.31 1.84zm13.6 18.06v4.41l-6.87-4.82-1.36-1-1.42-1h7.3a2.36 2.36 0 012.33 2 1.78 1.78 0 01.02.41z" style="isolation:isolate" fill="#a5681e" opacity=".5"/><path class="cls-5" d="M163.77 165.4l-8.47 9.79a2.36 2.36 0 01-3.33.23l-67.64-58.54a2.36 2.36 0 01-.25-3.33l8.47-9.79a1.66 1.66 0 01.29-.28 2.35 2.35 0 013 0L163.48 162a2.35 2.35 0 01.48 3 1.66 1.66 0 01-.19.4z"/><g class="cls-2"><path class="cls-6" transform="rotate(-49.12 97.56 116.653)" d="M88.72 112.68h17.66v7.95H88.72z"/><path class="cls-6" transform="rotate(-49.12 107.203 125.015)" d="M98.37 121.04h17.66v7.94H98.37z"/><path class="cls-6" transform="rotate(-49.12 145.818 158.426)" d="M136.99 148.49h17.66v19.86h-17.66z"/></g><path class="cls-7" d="M164 165.07l-71.16-61.59a2.35 2.35 0 013 0L163.48 162a2.35 2.35 0 01.52 3.07zm-80.16-51.19L155 175.46a2.35 2.35 0 01-3 0l-67.65-58.54a2.35 2.35 0 01-.51-3.04z"/><path d="M69.45 77.29C61.72 79.34 60.06 81 58 88.73c-2-7.73-3.7-9.39-11.43-11.44C54.3 75.24 56 73.58 58 65.85c2.05 7.72 3.72 9.39 11.45 11.44zM119 117.18c-4.59 1.22-5.58 2.21-6.8 6.8-1.22-4.59-2.21-5.58-6.8-6.8 4.59-1.22 5.58-2.21 6.8-6.8 1.27 4.62 2.25 5.62 6.8 6.8zM98.75 53.41c-3.51.93-4.26 1.69-5.2 5.2-.93-3.51-1.69-4.26-5.2-5.2 3.51-.93 4.26-1.69 5.2-5.2.93 3.52 1.69 4.27 5.2 5.2z" fill="#fff"/></g></svg>