<svg id="layer_1" data-name="layer 1" xmlns="http://www.w3.org/2000/svg" viewBox="0 0 177.61 215.21"><defs><style>.cls-1{fill:#c46c1a}.cls-2{opacity:.3}.cls-3{fill:#c4ae1a}.cls-4{fill:#c4931a}.cls-5{fill:#fc9f21}.cls-6{fill:#fcee21}.cls-7{fill:#fccb21}</style></defs><g id="layer_1-2" data-name="layer 1"><path class="cls-1" d="M76 203.36v10.52a1.68 1.68 0 010 .33v.14a1.16 1.16 0 01-.09.26v.05a1.41 1.41 0 01-.11.21.92.92 0 01-.11.16 2.34 2.34 0 01-.37.37l-.14.1-.21.11h-.08a1.42 1.42 0 01-.29.09h-.05a1.53 1.53 0 01-.38 0H1.28a1.53 1.53 0 01-.38 0 1.61 1.61 0 01-.31-.09 1.53 1.53 0 01-.28-.15l-.13-.09a.56.56 0 01-.18-.16 1.09 1.09 0 01-.18-.21 1 1 0 01-.12-.18.86.86 0 01-.11-.21v-.05a1.16 1.16 0 01-.09-.26v-.14a1.68 1.68 0 010-.33v-10.47a1.14 1.14 0 010-.33 1.91 1.91 0 011.78-1.55H74a1.92 1.92 0 011.89 1.59 1.68 1.68 0 01.11.29z"/><g class="cls-2"><path class="cls-3" d="M6.05 201.44h6.46v14.36H6.05zm10.38 0h6.46v14.36h-6.46zm36.69 0h16.15v14.36H53.12z"/></g><path class="cls-4" d="M75.91 203H-.61a1.91 1.91 0 011.89-1.55H74a1.92 1.92 0 011.91 1.55zm0 11.21v.14a1.16 1.16 0 01-.09.26v.05a1.41 1.41 0 01-.11.21.92.92 0 01-.11.16 2.34 2.34 0 01-.37.37l-.14.1-.21.11h-.08a1.42 1.42 0 01-.29.09h-.05a1.53 1.53 0 01-.38 0H1.28a1.53 1.53 0 01-.38 0 1.61 1.61 0 01-.31-.09 1.53 1.53 0 01-.28-.15l-.13-.09a.56.56 0 01-.18-.16 1.09 1.09 0 01-.18-.21 1 1 0 01-.12-.18.86.86 0 01-.11-.21v-.05a1.16 1.16 0 01-.09-.26v-.14z"/><path class="cls-1" d="M78.41 189v10.49a1.67 1.67 0 010 .33v.14a1.16 1.16 0 01-.09.26.91.91 0 01-.12.24 1 1 0 01-.12.16l-.05.06a1.31 1.31 0 01-.16.17l-.12.1-.15.1a1.53 1.53 0 01-.28.15 1.61 1.61 0 01-.31.09 1.52 1.52 0 01-.38 0H3.73a1.52 1.52 0 01-.38 0 1.79 1.79 0 01-.61-.24.39.39 0 01-.13-.09l-.18-.15a1 1 0 01-.19-.22l-.1-.13a.91.91 0 01-.12-.24H2a1.16 1.16 0 01-.09-.26v-.14a1.67 1.67 0 010-.33V189a1.14 1.14 0 010-.33 1.91 1.91 0 011.89-1.58h72.79a1.91 1.91 0 011.89 1.58 1.14 1.14 0 01-.07.33z"/><g class="cls-2"><path class="cls-3" d="M8.5 187.08h6.46v14.36H8.5zm10.38 0h6.46v14.36h-6.46zm36.69 0h16.15v14.36H55.57z"/></g><path class="cls-4" d="M78.38 188.67H1.84a1.91 1.91 0 011.89-1.58H76.5a1.91 1.91 0 011.88 1.58zm0 11.18v.15a1.16 1.16 0 01-.09.26.91.91 0 01-.12.24 1 1 0 01-.12.16l-.05.06a1.31 1.31 0 01-.16.17l-.12.1-.15.1a1.53 1.53 0 01-.28.15 1.61 1.61 0 01-.31.09 1.52 1.52 0 01-.38 0H3.73a1.52 1.52 0 01-.38 0 1.79 1.79 0 01-.61-.24.39.39 0 01-.13-.09l-.18-.15a1 1 0 01-.19-.22l-.1-.13a.91.91 0 01-.12-.24H2a1.16 1.16 0 01-.09-.26v-.14z"/><path class="cls-1" d="M85.11 174.63v10.53a1.69 1.69 0 010 .33v.14a1.17 1.17 0 01-.09.26v.05a1.42 1.42 0 01-.11.21.67.67 0 01-.12.17 2 2 0 01-.33.34l-.17.12-.21.11H84a1.42 1.42 0 01-.29.09h-.05a1.53 1.53 0 01-.38 0H10.42a1.53 1.53 0 01-.38 0 1.61 1.61 0 01-.31-.09 1.54 1.54 0 01-.28-.15l-.15-.1-.12-.1a1.32 1.32 0 01-.16-.17v-.05a.92.92 0 01-.14-.2.86.86 0 01-.11-.21v-.05a1.16 1.16 0 01-.09-.26v-.14a1.69 1.69 0 010-.33v-10.5a1.18 1.18 0 010-.33 1.91 1.91 0 011.89-1.58h72.77a1.92 1.92 0 011.89 1.58 1.77 1.77 0 01-.12.33z"/><g class="cls-2"><path class="cls-3" d="M15.19 172.72h6.46v14.36h-6.46zm10.38 0h6.46v14.36h-6.46zm36.69 0h16.15v14.36H62.26z"/></g><path class="cls-4" d="M85.08 174.3H8.53a1.91 1.91 0 011.89-1.58h72.77a1.92 1.92 0 011.89 1.58zm0 11.18v.14a1.17 1.17 0 01-.09.26v.05a1.42 1.42 0 01-.11.21.67.67 0 01-.12.17 2 2 0 01-.33.34l-.17.12-.21.11H84a1.42 1.42 0 01-.29.09h-.05a1.53 1.53 0 01-.38 0H10.42a1.53 1.53 0 01-.38 0 1.61 1.61 0 01-.31-.09 1.54 1.54 0 01-.28-.15l-.15-.1-.12-.1a1.32 1.32 0 01-.16-.17v-.05a.92.92 0 01-.14-.2.86.86 0 01-.11-.21v-.05a1.16 1.16 0 01-.09-.26v-.14z"/><path class="cls-1" d="M81.25 160.27v10.52a1.81 1.81 0 01-.11.62 1.53 1.53 0 01-.13.29 1.16 1.16 0 01-.15.23 1.47 1.47 0 01-.21.22l-.13.11-.15.1a1.53 1.53 0 01-.28.15 1.6 1.6 0 01-.31.09 1.52 1.52 0 01-.38 0H6.55a1.52 1.52 0 01-.38 0h-.05a1.41 1.41 0 01-.29-.09h-.07a.66.66 0 01-.22-.11l-.17-.12a2 2 0 01-.33-.34.67.67 0 01-.12-.17 1.42 1.42 0 01-.11-.21v-.05a1.16 1.16 0 01-.09-.26v-.14a1.68 1.68 0 010-.33v-10.51a1.68 1.68 0 010-.33 1.92 1.92 0 011.89-1.59h72.77a1.9 1.9 0 011.89 1.59 1.14 1.14 0 01-.02.33z"/><g class="cls-2"><path class="cls-3" d="M11.32 158.35h6.46v14.36h-6.46zm10.39 0h6.46v14.36h-6.46zm36.69 0h16.15v14.36H58.4z"/></g><path class="cls-4" d="M81.2 159.95H4.66a1.92 1.92 0 011.89-1.59h72.77a1.9 1.9 0 011.88 1.59zm0 11.17a2.5 2.5 0 01-.07.29 1.53 1.53 0 01-.13.29 1.16 1.16 0 01-.15.23 1.47 1.47 0 01-.21.22l-.13.11-.15.1a1.53 1.53 0 01-.28.15 1.6 1.6 0 01-.31.09 1.52 1.52 0 01-.38 0H6.55a1.52 1.52 0 01-.38 0h-.05a1.41 1.41 0 01-.29-.09h-.07a.66.66 0 01-.22-.11l-.17-.12a2 2 0 01-.33-.34.67.67 0 01-.12-.17 1.42 1.42 0 01-.11-.21v-.05a1.16 1.16 0 01-.09-.26v-.14z"/><path class="cls-1" d="M85.11 145.91v10.57a1.88 1.88 0 010 .34v.09a1.63 1.63 0 01-.1.31 2 2 0 01-.13.25.67.67 0 01-.12.17 1.7 1.7 0 01-.33.34l-.17.12-.21.11H84a1.43 1.43 0 01-.29.09h-.05a1.52 1.52 0 01-.38 0H10.42a1.52 1.52 0 01-.38 0 1.62 1.62 0 01-.31-.09 1.54 1.54 0 01-.28-.15L9.3 158l-.12-.1a1.32 1.32 0 01-.16-.17.1.1 0 010-.05.92.92 0 01-.14-.2 1.21 1.21 0 01-.13-.25 1.63 1.63 0 01-.1-.31v-.09a1.88 1.88 0 010-.34v-10.58a1.14 1.14 0 010-.33 1.91 1.91 0 011.89-1.58h72.77a1.92 1.92 0 011.89 1.59 1.69 1.69 0 01-.09.32z"/><g class="cls-2"><path class="cls-3" d="M15.19 143.99h6.46v14.36h-6.46zm10.38 0h6.46v14.36h-6.46zm36.69 0h16.15v14.36H62.26z"/></g><path class="cls-4" d="M85.08 145.58H8.53a1.91 1.91 0 011.89-1.58h72.77a1.92 1.92 0 011.89 1.58zm0 11.19v.09a1.63 1.63 0 01-.1.31 2 2 0 01-.13.25.67.67 0 01-.12.17 1.7 1.7 0 01-.33.34l-.17.12-.21.11h-.08a1.43 1.43 0 01-.29.09h-.05a1.52 1.52 0 01-.38 0h-72.8a1.52 1.52 0 01-.38 0 1.62 1.62 0 01-.31-.09 1.54 1.54 0 01-.28-.15l-.15-.1-.12-.1a1.32 1.32 0 01-.16-.17.1.1 0 010-.05.92.92 0 01-.14-.2 1.21 1.21 0 01-.13-.25 1.63 1.63 0 01-.1-.31v-.09z"/><path class="cls-1" d="M81.24 131.53V142a1.87 1.87 0 010 .34v.09a1.63 1.63 0 01-.1.31 2 2 0 01-.14.26.67.67 0 01-.12.17 1.7 1.7 0 01-.33.34l-.17.12-.21.11h-.07a1.43 1.43 0 01-.29.09h-.05a1.52 1.52 0 01-.38 0H6.55a1.52 1.52 0 01-.38 0 1.62 1.62 0 01-.31-.09 1.54 1.54 0 01-.28-.15l-.15-.1-.12-.1a1.32 1.32 0 01-.16-.17.1.1 0 010-.05A.92.92 0 015 143a1.21 1.21 0 01-.13-.25 1.63 1.63 0 01-.1-.31v-.09a1.87 1.87 0 010-.34v-10.48a1.14 1.14 0 010-.33 1.91 1.91 0 011.89-1.59h72.78a1.92 1.92 0 011.89 1.59 1.68 1.68 0 01-.09.33z"/><g class="cls-2"><path class="cls-3" d="M11.32 129.61h6.46v14.36h-6.46zm10.38 0h6.46v14.36H21.7zm36.69 0h16.15v14.36H58.39z"/></g><path class="cls-4" d="M81.2 131.21H4.66a1.91 1.91 0 011.89-1.59h72.77a1.92 1.92 0 011.88 1.59zm0 11.18v.09a1.63 1.63 0 01-.1.31 2 2 0 01-.1.21.67.67 0 01-.12.17 1.7 1.7 0 01-.33.34l-.17.12-.21.11h-.08a1.43 1.43 0 01-.29.09h-.05a1.52 1.52 0 01-.38 0H6.55a1.52 1.52 0 01-.38 0 1.62 1.62 0 01-.31-.09 1.54 1.54 0 01-.28-.15l-.15-.1-.12-.1a1.32 1.32 0 01-.16-.17.1.1 0 010-.05A.92.92 0 015 143a1.21 1.21 0 01-.13-.25 1.63 1.63 0 01-.1-.31v-.09z"/><path class="cls-1" d="M78.41 117.15v10.53a1.88 1.88 0 010 .34v.09a1.63 1.63 0 01-.1.31 2 2 0 01-.13.25.67.67 0 01-.12.17 1.7 1.7 0 01-.33.34l-.17.12-.21.11h-.08a1.43 1.43 0 01-.29.09h-.07a1.52 1.52 0 01-.38 0H3.73a1.52 1.52 0 01-.38 0 1.62 1.62 0 01-.31-.09 1.54 1.54 0 01-.28-.15l-.15-.1-.12-.1a1.32 1.32 0 01-.16-.17.1.1 0 010-.05.92.92 0 01-.14-.2 1.21 1.21 0 01-.13-.25 1.63 1.63 0 01-.1-.31V128a1.88 1.88 0 010-.34v-10.5a1.14 1.14 0 010-.33 1.91 1.91 0 011.89-1.59h72.77a1.92 1.92 0 011.89 1.59 1.69 1.69 0 01-.1.32z"/><g class="cls-2"><path class="cls-3" d="M8.49 115.24h6.46v14.36H8.49zm10.39 0h6.46v14.36h-6.46zm36.68-.01h16.15v14.36H55.56z"/></g><path class="cls-4" d="M78.38 116.83H1.84a1.91 1.91 0 011.89-1.59H76.5a1.92 1.92 0 011.88 1.59zm0 11.17v.09a1.63 1.63 0 01-.1.31 2 2 0 01-.13.25.67.67 0 01-.12.17 1.7 1.7 0 01-.33.34l-.17.12-.21.11h-.08a1.43 1.43 0 01-.29.09 1.52 1.52 0 01-.38 0H3.73a1.52 1.52 0 01-.38 0 1.62 1.62 0 01-.35-.08 1.54 1.54 0 01-.28-.15l-.15-.1-.12-.1a1.32 1.32 0 01-.16-.17.1.1 0 010-.05.92.92 0 01-.14-.2 1.21 1.21 0 01-.13-.25 1.63 1.63 0 01-.1-.31V128z"/><path class="cls-1" d="M89.33 102.78v10.52a1.88 1.88 0 010 .34v.09a1.63 1.63 0 01-.1.31 2 2 0 01-.13.25.67.67 0 01-.12.17 1.7 1.7 0 01-.33.34l-.17.12-.21.11h-.08a1.43 1.43 0 01-.29.09h-.05a1.52 1.52 0 01-.38 0H14.64a1.52 1.52 0 01-.38 0 1.62 1.62 0 01-.31-.09 1.54 1.54 0 01-.28-.15l-.15-.1-.12-.1a1.32 1.32 0 01-.16-.17.1.1 0 010-.05.92.92 0 01-.14-.2 1.21 1.21 0 01-.1-.26 1.63 1.63 0 01-.1-.31v-.09a1.88 1.88 0 010-.34v-10.48a1.14 1.14 0 010-.33 1.91 1.91 0 011.89-1.59h72.62a1.92 1.92 0 011.89 1.59 1.69 1.69 0 01.03.33z"/><g class="cls-2"><path class="cls-3" d="M19.41 100.86h6.46v14.36h-6.46zm10.38 0h6.46v14.36h-6.46zm36.69 0h16.15v14.36H66.48z"/></g><path class="cls-4" d="M89.3 102.48H12.75a1.91 1.91 0 011.89-1.59h72.77a1.92 1.92 0 011.89 1.59zm0 11.16v.09a1.63 1.63 0 01-.1.31 2 2 0 01-.13.25.67.67 0 01-.12.17 1.7 1.7 0 01-.33.34l-.17.12-.21.11h-.08a1.43 1.43 0 01-.29.09h-.05a1.52 1.52 0 01-.38 0h-72.8a1.52 1.52 0 01-.38 0 1.62 1.62 0 01-.31-.09 1.54 1.54 0 01-.28-.15l-.15-.1-.12-.1a1.32 1.32 0 01-.16-.17.1.1 0 010-.05.92.92 0 01-.14-.2 1.21 1.21 0 01-.1-.26 1.63 1.63 0 01-.1-.31v-.09z"/><path class="cls-1" d="M91.74 93.36a1.68 1.68 0 010 .32L89.65 104a1.14 1.14 0 01-.1.31 1.72 1.72 0 01-.28.5.76.76 0 01-.15.16.7.7 0 01-.18.16l-.19.13h-.05l-.22.1a1.64 1.64 0 01-.37.1 1.58 1.58 0 01-.31 0 1.75 1.75 0 01-.4 0l-2.25-.46-1.67-.34-.76-.15-4.27-.86-2.83-.58-8.72-1.77-6.44-1.3-23.18-4.7-6.37-1.3-3.85-.77L20.73 92l-4.67-1a2.14 2.14 0 01-.63-.24l-.26-.19a1.91 1.91 0 01-.65-1.49 1.24 1.24 0 010-.33l2.11-10.32a1.6 1.6 0 01.09-.31A1.9 1.9 0 0118.91 77l4.68.94 6.33 1.29 3.85.77 6.33 1.29 21.6 4.38 8 1.63 3.35.68 12.48 2.53 4.67.94a1.91 1.91 0 011.54 1.91z"/><g class="cls-2"><path class="cls-3" transform="rotate(-78.54 25.307 85.606)" d="M18.12 82.38h14.36v6.46H18.12z"/><path class="cls-3" transform="rotate(-78.54 35.488 87.655)" d="M28.31 84.43h14.36v6.46H28.31z"/><path class="cls-3" d="M85.53 90.47v.01l-.31 1.56L82.99 103l-.02.11-.29 1.44-4.27-.86-2.83-.58h-.02l-8.72-1.77.32-1.55 2.22-10.96.31-1.56 3.36.68 12.48 2.52z"/></g><path class="cls-4" d="M91.74 93.36L85.22 92l-15.84-3.17-7.85-1.59-21.77-4.41-6.33-1.29-3.85-.77-6.33-1.29-6.53-1.32A1.9 1.9 0 0118.91 77l4.68.94 6.33 1.29 3.85.77 6.33 1.29 21.6 4.38 8 1.63 3.35.68 12.48 2.53 4.67.94a1.91 1.91 0 011.54 1.91zm-2.23 10.96a1.72 1.72 0 01-.28.5.76.76 0 01-.15.16.7.7 0 01-.18.16l-.19.13h-.05l-.22.1a1.64 1.64 0 01-.37.1 1.58 1.58 0 01-.31 0 1.75 1.75 0 01-.4 0l-2.25-.47-1.67-.34-.76-.15-4.27-.86-2.83-.58-8.72-1.77-6.44-1.3-23.18-4.69L30.91 94l-3.85-.77L20.73 92l-4.67-1a2.14 2.14 0 01-.63-.24l-.26-.19a1.91 1.91 0 01-.65-1.49L21 90.45l6.33 1.29 3.85.77 6.33 1.29 23 4.66 6.61 1.34L83 103z"/><path class="cls-5" d="M155.48 200.48v13a1.65 1.65 0 010 .41v.19a1.22 1.22 0 01-.12.33 1.12 1.12 0 01-.1.2 2.33 2.33 0 01-1.37 1.12h-.2a2.05 2.05 0 01-.5.06H63.67a2.05 2.05 0 01-.5-.06h-.34l-.17-.07a2.3 2.3 0 01-1.06-1 1.11 1.11 0 01-.1-.2 2.2 2.2 0 01-.11-.33 1.57 1.57 0 010-.19 1.64 1.64 0 010-.41v-13a1.64 1.64 0 010-.4 2.36 2.36 0 012.32-2h89.45a2.35 2.35 0 012.32 2 1.65 1.65 0 010 .35z"/><g class="cls-2"><path class="cls-6" d="M69.53 198.15h7.95v17.66h-7.95zm12.77 0h7.94v17.66H82.3zm45.1 0h19.86v17.65H127.4z"/></g><path class="cls-7" d="M155.44 200.1h-94.1a2.36 2.36 0 012.32-2h89.45a2.35 2.35 0 012.33 2zm0 13.75v.15a1.22 1.22 0 01-.12.33 1.12 1.12 0 01-.1.2 2.33 2.33 0 01-1.37 1.12h-.2a2.05 2.05 0 01-.5.06H63.67a2.05 2.05 0 01-.5-.06h-.34l-.17-.07a2.3 2.3 0 01-1.06-1 1.11 1.11 0 01-.1-.2 2.2 2.2 0 01-.11-.33 1.57 1.57 0 010-.19z"/><path class="cls-5" d="M162.2 182.85v12.94a2.14 2.14 0 010 .4 2.65 2.65 0 01-.2.63.78.78 0 01-.08.14 2.33 2.33 0 01-1 1l-.15.07h-.34a2.05 2.05 0 01-.5.06H70.39a2.22 2.22 0 01-.54-.07h-.31l-.15-.07a2.26 2.26 0 01-.94-.79 1.14 1.14 0 01-.11-.17l-.1-.18a2.17 2.17 0 01-.14-.39 2.08 2.08 0 01-.08-.6v-13a1.64 1.64 0 010-.41 2.35 2.35 0 012.32-2h89.46a2.35 2.35 0 012.32 2 2.17 2.17 0 01.08.44z"/><g class="cls-2"><path class="cls-6" d="M76.25 180.49h7.95v17.66h-7.95zm12.77 0h7.94v17.66h-7.94zm45.1 0h19.86v17.65h-19.86z"/></g><path class="cls-7" d="M162.17 182.48H68.06a2.35 2.35 0 012.32-2h89.46a2.35 2.35 0 012.33 2zm0 13.71a2.65 2.65 0 01-.2.63.78.78 0 01-.08.14 2.33 2.33 0 01-1 1l-.15.07h-.34a2.05 2.05 0 01-.5.06H70.39a2.22 2.22 0 01-.54-.07h-.31l-.15-.07a2.26 2.26 0 01-.94-.79 1.14 1.14 0 01-.11-.17l-.1-.18a2.17 2.17 0 01-.14-.39 1.8 1.8 0 010-.21z"/><path class="cls-5" d="M158.65 165.19v13a2.09 2.09 0 01-.08.6 2.18 2.18 0 01-.14.39 2.14 2.14 0 01-.33.52l-.14.15-.17.16-.18.13-.2.12a1.59 1.59 0 01-.42.18h-.2a2.05 2.05 0 01-.5.06H66.83a2.22 2.22 0 01-.54-.07H66l-.15-.07a2.26 2.26 0 01-.92-.88 1.14 1.14 0 01-.11-.17l-.1-.18a2.17 2.17 0 01-.14-.39 2.08 2.08 0 01-.08-.6v-13a1.58 1.58 0 010-.4 2.36 2.36 0 012.32-2h89.45a2.35 2.35 0 012.32 2 1.58 1.58 0 01.06.45z"/><g class="cls-2"><path class="cls-6" d="M72.7 162.83h7.95v17.66H72.7zm12.77 0h7.94v17.66h-7.94zm45.1 0h19.86v17.66h-19.86z"/></g><path class="cls-7" d="M158.61 164.79h-94.1a2.36 2.36 0 012.32-2h89.45a2.35 2.35 0 012.33 2zm0 13.74a1.86 1.86 0 010 .21 2.18 2.18 0 01-.14.39 2.14 2.14 0 01-.33.52l-.14.15-.17.16-.18.13-.2.12a1.59 1.59 0 01-.42.18h-.2a2.05 2.05 0 01-.5.06h-89.5a2.22 2.22 0 01-.54-.07H66l-.15-.07a2.26 2.26 0 01-.92-.83 1.14 1.14 0 01-.11-.17l-.1-.18a2.17 2.17 0 01-.14-.39 1.84 1.84 0 010-.21z"/><path class="cls-5" d="M166.91 147.53v12.95a1.64 1.64 0 010 .4 2.25 2.25 0 01-.11.4l-.07.17a2.4 2.4 0 01-.83 1l-.2.12a1 1 0 01-.21.1l-.21.08h-.17a2.22 2.22 0 01-.54.07H75.06a2 2 0 01-.5-.06h-.2l-.21-.08a2.71 2.71 0 01-.41-.21l-.18-.13a1 1 0 01-.17-.16l-.14-.15a1.11 1.11 0 01-.12-.16.9.9 0 01-.12-.19c0-.07-.07-.13-.11-.2a2.2 2.2 0 01-.13-.45.18.18 0 010-.07 2.18 2.18 0 010-.4v-13a2.18 2.18 0 010-.41 2.36 2.36 0 012.33-2h89.45a2.36 2.36 0 012.32 2 1.64 1.64 0 01.04.38z"/><g class="cls-2"><path class="cls-6" d="M80.92 145.18h7.95v17.66h-7.95zm12.77 0h7.94v17.66h-7.94zm45.1 0h19.86v17.65h-19.86z"/></g><path class="cls-7" d="M166.84 147.13H72.73a2.36 2.36 0 012.33-2h89.45a2.36 2.36 0 012.33 2zm0 13.75a2.25 2.25 0 01-.11.4l-.07.17a2.4 2.4 0 01-.83 1l-.2.12a1 1 0 01-.21.1l-.21.08H165a2.22 2.22 0 01-.54.07h-89.4a2 2 0 01-.5-.06h-.2l-.21-.08a2.71 2.71 0 01-.41-.21l-.18-.13a1 1 0 01-.17-.16l-.14-.15a1.11 1.11 0 01-.12-.16.9.9 0 01-.12-.19c0-.07-.07-.13-.11-.2a2.2 2.2 0 01-.13-.45.19.19 0 010-.07z"/><path class="cls-5" d="M163.39 142.82a2.24 2.24 0 01-.05.4v.19a.53.53 0 000 .11.76.76 0 01-.12.3 2.22 2.22 0 01-.13.24l-.07.11a2.34 2.34 0 01-.82.74l-.2.09-.21.08h-.17a2.23 2.23 0 01-.54.07h-89.5a2.05 2.05 0 01-.5-.06h-.2l-.21-.08a1 1 0 01-.21-.1l-.2-.12-.18-.13-.17-.18-.14-.15a2.36 2.36 0 01-.52-1.12 2.14 2.14 0 010-.4v-12.93a2.17 2.17 0 010-.4 2.36 2.36 0 012.33-2H161a2.35 2.35 0 012.32 2 1.64 1.64 0 010 .4z"/><g class="cls-2"><path class="cls-6" d="M77.44 127.52h7.95v17.66h-7.95zm12.76 0h7.94v17.66H90.2zm45.11 0h19.86v17.66h-19.86z"/></g><path class="cls-7" d="M163.35 129.48h-94.1a2.36 2.36 0 012.33-2H161a2.35 2.35 0 012.35 2zm0 13.74v.19a.53.53 0 000 .11.76.76 0 01-.12.3 2.22 2.22 0 01-.13.24l-.07.11a2.34 2.34 0 01-.82.74l-.2.09-.21.08h-.17a2.23 2.23 0 01-.54.07H71.58a2.05 2.05 0 01-.5-.06h-.2l-.21-.08a1 1 0 01-.21-.1l-.2-.12-.18-.13-.17-.18-.14-.15a2.36 2.36 0 01-.52-1.12z"/><path class="cls-5" d="M166.91 125.17a2.24 2.24 0 01-.05.4v.19a.53.53 0 000 .11.76.76 0 01-.12.3 2.22 2.22 0 01-.13.24l-.07.11a2.34 2.34 0 01-.82.74l-.2.09-.21.08h-.17a2.22 2.22 0 01-.54.07H75.06a2.05 2.05 0 01-.5-.06h-.2l-.21-.08a1 1 0 01-.21-.1l-.2-.12-.18-.13-.17-.16-.14-.15a2.36 2.36 0 01-.52-1.12 2.15 2.15 0 010-.4v-13a2.09 2.09 0 010-.4 2.36 2.36 0 012.33-2h89.45a2.36 2.36 0 012.32 2 1.58 1.58 0 010 .4z"/><g class="cls-2"><path class="cls-6" d="M80.92 109.87h7.95v17.66h-7.95zm12.77 0h7.94v17.66h-7.94zm45.1 0h19.86v17.66h-19.86z"/></g><path class="cls-7" d="M166.84 111.82H72.73a2.36 2.36 0 012.33-2h89.45a2.36 2.36 0 012.33 2zm0 13.75v.19a.53.53 0 000 .11.76.76 0 01-.12.3 2.22 2.22 0 01-.13.24l-.07.11a2.34 2.34 0 01-.82.74l-.2.09-.21.08h-.17a2.22 2.22 0 01-.54.07H75.06a2.05 2.05 0 01-.5-.06h-.2l-.21-.08a1 1 0 01-.21-.1l-.2-.12-.18-.13-.17-.16-.14-.15a2.36 2.36 0 01-.52-1.12z"/><path class="cls-5" d="M174.41 94.57v12.91a1.65 1.65 0 010 .4v.19a1.22 1.22 0 01-.12.33 1.11 1.11 0 01-.1.2 2.3 2.3 0 01-1.06 1l-.17.07h-.34a2.05 2.05 0 01-.5.06H82.59a2.05 2.05 0 01-.5-.06h-.2a2.14 2.14 0 01-.62-.3l-.18-.13a1 1 0 01-.17-.16l-.14-.15a1.1 1.1 0 01-.12-.16.9.9 0 01-.12-.19 1.91 1.91 0 01-.18-.42 2.23 2.23 0 01-.06-.22.24.24 0 010-.07 2.17 2.17 0 010-.4v-12.9a2.17 2.17 0 010-.4 2.37 2.37 0 01.7-1.29 2.33 2.33 0 01.6-.42 2.44 2.44 0 011-.24H172a2.36 2.36 0 012.32 2 1.65 1.65 0 01.09.35z"/><g class="cls-2"><path class="cls-6" d="M88.45 92.21h7.95v17.66h-7.95zm12.77 0h7.94v17.66h-7.94zm45.1 0h19.86v17.65h-19.86z"/></g><path class="cls-7" d="M174.37 94.17h-94.1a2.35 2.35 0 012.32-2h89.46a2.35 2.35 0 012.32 2zm0 13.74v.19a1.22 1.22 0 01-.12.33 1.11 1.11 0 01-.1.2 2.3 2.3 0 01-1.06 1l-.17.07h-.34a2.05 2.05 0 01-.5.06H82.59a2.05 2.05 0 01-.5-.06h-.2a2.14 2.14 0 01-.62-.3l-.18-.13a1 1 0 01-.17-.16l-.14-.15a1.1 1.1 0 01-.12-.16.9.9 0 01-.12-.19 1.91 1.91 0 01-.18-.42 2.23 2.23 0 01-.06-.22.24.24 0 010-.07z"/><path class="cls-5" d="M171.62 76.91v12.94a1.64 1.64 0 010 .41v.19a1.22 1.22 0 01-.12.33 1.1 1.1 0 01-.1.2 2.3 2.3 0 01-1.06 1l-.17.07h-.34a2 2 0 01-.5.06H79.8a2 2 0 01-.5-.06h-.2a2.15 2.15 0 01-.62-.3l-.18-.13a1 1 0 01-.17-.16l-.13-.15a1.1 1.1 0 01-.12-.16.9.9 0 01-.12-.19 1.91 1.91 0 01-.18-.42 2.23 2.23 0 01-.06-.22.24.24 0 010-.07 2.17 2.17 0 010-.41V76.91a2.17 2.17 0 010-.4 2.37 2.37 0 01.69-1.29 2.33 2.33 0 01.6-.42 2.44 2.44 0 011-.24h89.45a2.36 2.36 0 012.32 2 1.64 1.64 0 01.04.35z"/><g class="cls-2"><path class="cls-6" d="M85.66 74.56h7.95v17.66h-7.95zm12.77 0h7.94v17.66h-7.94zm45.1 0h19.86v17.65h-19.86z"/></g><path class="cls-7" d="M171.57 76.48h-94.1a2.35 2.35 0 012.32-2h89.46a2.35 2.35 0 012.32 2zm.01 13.78v.19a1.22 1.22 0 01-.12.33 1.1 1.1 0 01-.1.2 2.3 2.3 0 01-1.06 1l-.17.07h-.34a2 2 0 01-.5.06H79.8a2 2 0 01-.5-.06h-.2a2.15 2.15 0 01-.62-.3l-.18-.13a1 1 0 01-.17-.16l-.13-.15a1.1 1.1 0 01-.12-.16.9.9 0 01-.12-.19 1.91 1.91 0 01-.18-.42 2.23 2.23 0 01-.06-.22.24.24 0 010-.07z"/><path class="cls-5" d="M166.43 59.26V72.2a1.65 1.65 0 010 .41v.19a1.22 1.22 0 01-.12.33 1.1 1.1 0 01-.1.2 2.3 2.3 0 01-1.06 1l-.17.07h-.34a2 2 0 01-.5.06H74.62a2 2 0 01-.5-.06h-.2a2.15 2.15 0 01-.62-.3l-.18-.1a1 1 0 01-.17-.16l-.14-.15a1.11 1.11 0 01-.12-.16.9.9 0 01-.12-.19 1.91 1.91 0 01-.18-.42 2.23 2.23 0 01-.06-.22.24.24 0 010-.07 2.17 2.17 0 010-.41V59.26a2.17 2.17 0 010-.41 2.37 2.37 0 01.67-1.29 2.33 2.33 0 01.6-.42 2.44 2.44 0 011-.24h89.45a2.36 2.36 0 012.32 2 1.65 1.65 0 01.06.36z"/><g class="cls-2"><path class="cls-6" d="M80.48 56.9h7.95v17.66h-7.95zm12.77 0h7.94v17.66h-7.94zm45.09 0h19.86v17.65h-19.86z"/></g><path class="cls-7" d="M166.39 58.86h-94.1a2.35 2.35 0 012.32-2h89.46a2.35 2.35 0 012.32 2zm0 13.74v.19a1.22 1.22 0 01-.12.33 1.1 1.1 0 01-.1.2 2.3 2.3 0 01-1.06 1l-.17.07h-.34a2 2 0 01-.5.06H74.62a2 2 0 01-.5-.06h-.2a2.15 2.15 0 01-.62-.3l-.18-.09a1 1 0 01-.12-.2l-.14-.15a1.11 1.11 0 01-.12-.16.9.9 0 01-.12-.19 1.91 1.91 0 01-.18-.42 2.23 2.23 0 01-.06-.22.24.24 0 010-.07z"/><path class="cls-5" d="M171.62 41.6v12.94a1.64 1.64 0 010 .41v.19a1.22 1.22 0 01-.12.33 1.11 1.11 0 01-.1.2 2.3 2.3 0 01-1.06 1l-.17.07h-.34a2 2 0 01-.5.06H79.8a2 2 0 01-.5-.06h-.2a2.14 2.14 0 01-.62-.3l-.18-.13a1 1 0 01-.17-.16L78 56a1.1 1.1 0 01-.12-.16.9.9 0 01-.12-.19 1.91 1.91 0 01-.18-.42 2.23 2.23 0 01-.06-.22.24.24 0 010-.07 2.17 2.17 0 010-.41V41.6a2.17 2.17 0 010-.4 2.37 2.37 0 01.69-1.29 2.33 2.33 0 01.6-.42 2.44 2.44 0 011-.24h89.45a2.36 2.36 0 012.32 2 1.64 1.64 0 01.04.35z"/><g class="cls-2"><path class="cls-6" d="M85.66 39.25h7.95v17.66h-7.95zm12.77 0h7.94v17.66h-7.94zm45.1 0h19.86V56.9h-19.86z"/></g><path class="cls-7" d="M171.57 41.2h-94.1a2.35 2.35 0 012.32-2h89.46a2.35 2.35 0 012.32 2zm.01 13.75v.19a1.22 1.22 0 01-.12.33 1.11 1.11 0 01-.1.2 2.3 2.3 0 01-1.06 1l-.17.07h-.34a2 2 0 01-.5.06H79.8a2 2 0 01-.5-.06h-.2a2.14 2.14 0 01-.62-.3l-.18-.13a1 1 0 01-.17-.16L78 56a1.1 1.1 0 01-.12-.16.9.9 0 01-.12-.19 1.91 1.91 0 01-.18-.42 2.23 2.23 0 01-.06-.22.24.24 0 010-.07z"/><path class="cls-5" d="M177.66 23.95v12.94a1.65 1.65 0 010 .4v.19a1.22 1.22 0 01-.12.33 1.11 1.11 0 01-.1.2 2.3 2.3 0 01-1.06 1l-.17.07h-.34a2 2 0 01-.5.06H85.84a2 2 0 01-.5-.06h-.2a2.15 2.15 0 01-.62-.3l-.18-.13a1 1 0 01-.17-.16l-.17-.15a1.11 1.11 0 01-.12-.16.9.9 0 01-.12-.19 1.91 1.91 0 01-.18-.42 2.23 2.23 0 01-.06-.22.24.24 0 010-.07 2.17 2.17 0 010-.4V23.95a2.17 2.17 0 010-.41 2.37 2.37 0 01.69-1.29 2.33 2.33 0 01.6-.42 2.44 2.44 0 011-.24h89.45a2.36 2.36 0 012.32 2 1.65 1.65 0 01.08.36z"/><g class="cls-2"><path class="cls-6" d="M91.7 21.59h7.95v17.66H91.7zm12.77 0h7.94v17.66h-7.94zm45.1 0h19.86v17.65h-19.86z"/></g><path class="cls-7" d="M177.61 23.54h-94.1a2.35 2.35 0 012.32-2h89.46a2.35 2.35 0 012.32 2zm.01 13.75v.19a1.22 1.22 0 01-.12.33 1.11 1.11 0 01-.1.2 2.3 2.3 0 01-1.06 1l-.17.07h-.34a2 2 0 01-.5.06H85.84a2 2 0 01-.5-.06h-.2a2.15 2.15 0 01-.62-.3l-.18-.13a1 1 0 01-.17-.16l-.17-.15a1.11 1.11 0 01-.12-.16.9.9 0 01-.12-.19 1.91 1.91 0 01-.18-.42 2.23 2.23 0 01-.06-.22.24.24 0 010-.07z"/><path class="cls-5" d="M166.36 2.54l.84 12.94A2.36 2.36 0 01165 18l-89.28 5.76a2.36 2.36 0 01-2.51-2.2l-.84-12.92a1.65 1.65 0 010-.4 2.35 2.35 0 012.19-2.1L163.83.36a2.35 2.35 0 012.44 1.8 1.66 1.66 0 01.09.38z"/><g class="cls-2"><path class="cls-6" transform="rotate(-3.71 84.998 14.344)" d="M81.01 5.47h7.95v17.66h-7.95z"/><path class="cls-6" transform="rotate(-3.71 97.698 13.519)" d="M93.75 4.64h7.94V22.3h-7.94z"/><path class="cls-6" transform="rotate(-3.71 148.65 10.223)" d="M138.74 1.34h19.86V19h-19.86z"/></g><path class="cls-7" d="M166.3 2.15L72.4 8.23a2.35 2.35 0 012.19-2.1L163.86.35a2.35 2.35 0 012.44 1.8zm-93.02 19.8l93.9-6.08A2.35 2.35 0 01165 18l-89.28 5.75a2.35 2.35 0 01-2.44-1.8z"/></g></svg>