<svg version="1.1" id="Слой_1" xmlns="http://www.w3.org/2000/svg" x="0" y="0" viewBox="0 0 2487.7 228.1" xml:space="preserve"><style>.st10,.st11{fill:#d47f02}.st10,.st11,.st12,.st13,.st9{enable-background:new}.st9{opacity:.5;fill:#d47f02}.st10{opacity:.2}.st11{opacity:.3}.st12,.st13{opacity:.1;fill:#fdf9e3}.st13{opacity:.2}.st14{opacity:.5}.st15,.st16{fill:#ffdc7c}.st16{opacity:.9;enable-background:new}.st17{fill:#fff6e6}.st18{opacity:.6;fill:#d47f02;enable-background:new}.st26{fill:#fff}</style><linearGradient id="SVGID_1_" gradientUnits="userSpaceOnUse" x1="1570.467" y1="440.423" x2="1198.197" y2="2.232" gradientTransform="rotate(180 892.21 145.92)"><stop offset=".04" stop-color="#fff"/><stop offset=".18" stop-color="#fff"/><stop offset=".95"/></linearGradient><path d="M706.8 22.5S329.6 27 142.6 33C75 35.1 71.9 42.1 82.7 66.7c14 31.6 47.2 94.8 47.2 94.8s-45.6-69.1-68.8-103C52.5 46 38.6 34.7 120.9 31.4c188.1-7.5 585.9-8.9 585.9-8.9z" fill="url(#SVGID_1_)"/><radialGradient id="SVGID_2_" cx="3117.438" cy="116.872" r="170.45" gradientTransform="matrix(-5.12 -.01 0 -1 17982.928 332.7)" gradientUnits="userSpaceOnUse"><stop offset=".14" stop-color="#fff"/><stop offset=".96"/></radialGradient><path d="M429.4 190.6c524.9-6.9 1082.8 2.2 1597.6 1 105.4-.3 131.7-2.4 159.1-14.5 49.7-21.9 36.4-29.1 46.5-38 10.3-8.8 53.8-29.3 18.3 2.5s-52.6 41.5-60.2 46.4c-7.4 4.9 12.8 11.2-139.5 9.2-342.4-4.5-691.9.5-1034.1.2-229.3-.3-497 6.5-721.9-3 43.8-2.1 89.3-3.2 134.2-3.8z" fill="url(#SVGID_2_)"/><radialGradient id="SVGID_3_" cx="3412.063" cy="132.49" r="155.91" gradientTransform="matrix(-5.32 0 0 -1 18661.26 291.84)" gradientUnits="userSpaceOnUse"><stop offset=".14" stop-color="#fff"/><stop offset=".96"/></radialGradient><path d="M1970.4 186.9c-534-5.2-1127.6 13.4-1648.7 7.8-91.1-.9-138.4-4-153.5-18.9s-41.6-32.1-48.4-42.2-35.3-35.1-11.4.9 41.7 47.7 48.8 53.4c7.3 5.7 4.1 13.3 140.7 12.6 353.3-1.9 708.3-2 1061.7-4.4 255.1-1.7 512.1-2.1 767-4.2-46-3-107.5-4.6-156.2-5z" fill="url(#SVGID_3_)"/><linearGradient id="SVGID_4_" gradientUnits="userSpaceOnUse" x1="250.032" y1="641.563" x2="926.123" y2="-75.507" gradientTransform="rotate(180 892.21 145.92)"><stop offset=".14" stop-color="#fff"/><stop offset=".96"/></linearGradient><path d="M1350.8 32.6c-136.4-.4-428.6 3.2-428.6 3.2-.4.7 99.2 3.3 292.2 2.9 104.4-.1 189.5 1.4 197.7-.6 8.1-2 28-5.2-61.3-5.5z" fill="url(#SVGID_4_)"/><linearGradient id="SVGID_5_" gradientUnits="userSpaceOnUse" x1="2273.763" y1="440.418" x2="1901.493" y2="2.228" gradientTransform="matrix(1 0 0 -1 0 291.84)"><stop offset=".04" stop-color="#fff"/><stop offset=".18" stop-color="#fff"/><stop offset=".95"/></linearGradient><path d="M1780.9 22.5S2158.1 27 2345.1 33c67.7 2.1 70.7 9.1 59.9 33.7-14 31.6-47.2 94.8-47.2 94.8s45.6-69.1 68.8-103c8.5-12.5 22.5-23.8-59.8-27.1-188.1-7.5-585.9-8.9-585.9-8.9z" fill="url(#SVGID_5_)"/><radialGradient id="SVGID_6_" cx="3254.692" cy="115.048" r="170.45" gradientTransform="matrix(5.12 -.01 0 -1 -16198.508 332.7)" gradientUnits="userSpaceOnUse"><stop offset=".14" stop-color="#fff"/><stop offset=".96"/></radialGradient><path d="M2058.3 190.6c-524.9-6.9-1082.8 2.2-1597.6 1-105.4-.3-131.7-2.4-159.1-14.6-49.7-21.9-36.4-29.1-46.5-38-10.3-8.8-53.8-29.3-18.3 2.5s52.6 41.5 60.2 46.4c7.5 4.9-12.8 11.2 139.5 9.2 342.4-4.5 691.8.5 1034.1.2 229.3-.3 497 6.5 721.9-3-43.8-2-89.3-3.1-134.2-3.7z" fill="url(#SVGID_6_)"/><radialGradient id="SVGID_7_" cx="3544.427" cy="132.49" r="155.91" gradientTransform="matrix(5.32 0 0 -1 -16876.84 291.84)" gradientUnits="userSpaceOnUse"><stop offset=".14" stop-color="#fff"/><stop offset=".96"/></radialGradient><path d="M517.3 186.9c534-5.2 1127.6 13.4 1648.7 7.8 91.1-.9 138.4-4 153.5-18.9s41.6-32.1 48.4-42.2 35.3-35.1 11.4.9-41.7 47.7-48.8 53.4c-7.3 5.7-4.1 13.3-140.7 12.6-353.3-1.9-708.3-2-1061.7-4.4-255.1-1.7-512.1-2.1-767-4.2 46-3 107.5-4.6 156.2-5z" fill="url(#SVGID_7_)"/><linearGradient id="SVGID_8_" gradientUnits="userSpaceOnUse" x1="953.322" y1="641.563" x2="1629.422" y2="-75.507" gradientTransform="matrix(1 0 0 -1 0 291.84)"><stop offset=".14" stop-color="#fff"/><stop offset=".96"/></linearGradient><path d="M1136.9 32.6c136.4-.4 428.6 3.2 428.6 3.2.4.7-99.2 3.3-292.2 2.9-104.4-.1-189.5 1.4-197.7-.6-8.1-2-27.9-5.2 61.3-5.5z" fill="url(#SVGID_8_)"/><g id="Layer_1"><linearGradient id="SVGID_9_" gradientUnits="userSpaceOnUse" x1="1198.71" y1="1211.13" x2="1963.67" y2="4.31" gradientTransform="matrix(1 0 0 -1 0 291.84)"><stop offset=".14" stop-color="#eac991"/><stop offset=".51" stop-color="#d5a76f"/><stop offset="1" stop-color="#a14e01"/></linearGradient><path d="M2402.1 14.6c-34.7-2.6-76.6-3.7-130.9-5-86.3-2-181-5.3-359.4-6.3-216.7-1.1-442.3-3-667.9-3.4v224.5c261 1.3 523.1 2.7 784.5 3 50.4 0 91.4.3 127.1.5 30.1.1 58.8.2 84.4-1.5 29-.8 56.5-1.8 81.3-6.6 25.9-5.2 39.7-13.2 48.8-20.1 12.1-8.8 23.5-18.7 33.9-29.5 12.6-13.2 20.3-26.8 34.5-40.3 15.2-14.3 29.4-28.8 38.9-43.7 5.3-8.5 9.1-17 10.4-25.8 3.2-17.5 7.9-38.6-85.6-45.8z" fill="url(#SVGID_9_)"/><path class="st9" d="M2488.2 49c-16.2 0-32.2 0-48.6.2-36.2.5-76.8 4.2-128.1 2.4-2.8-.1-5.4-.3-7.4-.6-12.5 27.5-32.9 54.9-55.6 82.1-11.9 14.2 7.9 39.9-82.4 46.6-171.8 12.7-417.6 3.9-599.8 3.5-107.2-.2-214.7-.3-322.3-.4v41.5c261 1.3 523.1 2.7 784.5 3 50.4 0 91.4.3 127.1.5 30.1.1 58.8.2 84.4-1.5 29-.8 56.5-1.8 81.3-6.6 25.9-5.2 39.7-13.2 48.8-20.1 12.1-8.8 23.5-18.7 33.9-29.5 12.6-13.2 20.3-26.8 34.5-40.3 15.2-14.3 29.4-28.8 38.9-43.7 5.3-8.5 9.1-17 10.4-25.8.8-3.6.9-7.5.4-11.3z"/><path class="st10" d="M2271.2 9.6c-86.3-2-181-5.3-359.4-6.3-216.7-1.1-442.3-3-667.9-3.4V37c187.3-.4 374.6-.2 560.7-.7 144.4-.4 287-.9 428.9 2.5 10.5.2 21.2.6 31.6.9 10.5-3.9 21.5-7.9 34.4-11.8 17.6-5.3 34.8-10.7 50.4-16.1-23.1-.8-49.1-1.5-78.7-2.2z"/><path class="st10" d="M2129.5 6.6c-66.2-1.3-120.2-2.7-217.7-3.3-44.9-.3-99.8-.5-160.8-.6-26.7 10-56.4 20-108.5 29.8-7.3 1.4-15.3 2.8-23.7 4.2 67.2-.2 130.1-.3 185.8-.5 90.1-.2 162-.4 201.6-.5 29.9-10.2 84.4-19.3 123.3-29.1zm171.3 3.8c-9.5-.2-19.3-.5-29.6-.7-11.2-.3-23.1-.5-35.3-.8-16.1 8.8-67.9 15.7-109 23.1-8.6 1.5-16.1 3.1-23.5 4.7 21.1.2 41 .5 59.6.8 51.5-9.1 98.7-18 137.8-27.1z"/><path class="st9" d="M2475.9 70c3 .1 6.1.3 9.3.5 1.2-3.2 2.1-6.6 2.5-10 1.9-10.1 1.2-21.1-14.8-30.2-47 6-98.5 13.1-165.3 21-11.8 4.8-16.6 10.2-18.5 15.7 77.3-.7 131.8 0 186.8 3z"/><path class="st11" d="M2289.1 96.7c-2.4 7.7-8.9 10-11.8 17.6 68.5-.2 117.7 1.1 173.7 3.5 6.6-6.5 12.9-13.4 18.6-20.7-58.6-2.5-107.6.8-180.5-.4z"/><path class="st9" d="M1243.9 186.2v38.3l167.2.8c-28.4-12.9-49.9-25.7-48.3-38.3l-118.9-.8z"/><path class="st10" d="M2445.9 123c-58.4-5-101-9.1-168.6-8.8-.8 2.2-3.8 10.1-4.6 12.3-5.5 14.4-8.6 29.5-26.1 43.4-6.5 5.2-20.6 10.7-45.8 13.6-34.2 3.9-77.6 4.4-129.8 4.8-192.1 1.3-385.2.1-577.7-.7-1.6 12.6 18.9 25.3 46.1 38.1 162.8.7 325.8 1.2 489 1.7 50.4 0 91.4.3 127.1.5 30.1.1 58.8.2 84.4-1.5 29-.8 56.5-1.8 81.3-6.6 25.9-5.2 39.7-13.2 48.8-20.1 12.1-8.8 23.5-18.7 33.9-29.5 12.6-13.2 20.3-26.8 34.5-40.3 2.5-2.2 4.9-4.5 7.5-6.9z"/><path class="st12" d="M2143.6 187.3c-21.9.7-46.2.9-72.6 1.1-25.3.1-47.4.3-78.1.4.9 12.9 2.8 25.8 4.4 38.7h31.2c50.4 0 91.4.3 127.1.5h.2c-4-13.3-8.9-26.9-12.2-40.7z"/><path class="st13" d="M2262.4 208.3c-13.2-7.9-26.9-15-40.9-21.5 4.7 13.6-3.1 27.3-3.7 40.8 7.8-.3 15-.5 22.2-1 14.2-.4 28-.8 41.4-1.8-5.5-5.5-10.2-11.2-19-16.5zm159.5-59.5c-54-4.4-94-9.5-153.5-10.8-3.8 8.5-11.6 23.7-21.5 31.7 41.2.5 75.5 3.7 106.8 6.9 12.7 1.3 25.8 2.7 39.5 4.2 3.6-3.4 7.5-6.9 10.7-10.4 6.9-7.1 12.4-14.4 18-21.6z"/><g class="st14"><path class="st15" d="M2321.3 40.4c4.8 2.3 10.5 4.6 15.6 6.9 60.7-.1 104.6-.9 150.8.2-3.1-13.2-15.2-26.3-77.3-32.1-9.8 4.9-26.5 9-43.5 13.3-15 3.7-30.4 7.6-45.6 11.7z"/><path class="st16" d="M2228.2 192.3c-1.9.3-4.1.7-6.4 1.1-1.1 5.2 11.2 11.2 13.6 16 2.8 5.5 4.9 11.2 6.5 17.1 28.1-.7 55-1.8 79.3-6.5 14.5-2.9 25.2-6.8 33.5-10.7-39.7-6.2-78-11.3-121.3-17.7-1.6.1-3.4.4-5.2.7z"/></g><path class="st17" d="M2360.2 45.8l42.9-3.7c25.7-2.8 48.1-6 69.5-9.1-34.5 3.7-71.9 7.5-112.4 12.8zm106-18.7c-8.2-3.5-19.4-6.7-35.1-9.1-28.3 6.1-52.6 14.8-83.3 22-.9.2-2.2.5-3.3.8 45.3-5.6 86-9.7 121.7-13.7zm-168.6 181.5c9.2 3.5 18.3 6.9 28.6 10.1 5.1-1.2 9.8-2.4 14-3.7-11.9-1.6-22.8-3.3-32.3-5.5-8.5-2-17.7-3.7-27-5.6 5.6 1.2 11.2 2.8 16.7 4.7z"/><path class="st18" d="M2402.1 14.6c-34.7-2.6-76.6-3.7-130.9-5-86.3-2-181-5.3-359.4-6.3-216.6-1.1-442.3-3-667.9-3.4v4.4c223.9.3 448.7 1.7 668.1 2.8 169 .8 259.7 4.1 344.6 6 55.8 1.2 98.1 3 133.9 5.2 54.9 3.5 75.9 9.4 83 22.1 6 10.6 2.7 21.1-1.8 30.9-14.7 31.5-49.3 63.7-79.8 95.3-8.2 8.5-16.5 17-25.7 25.5-8.5 7.7-19.3 15.6-41.2 22.4-24.1 7.4-67.9 9.1-104.2 9.8-48.3.9-102.6.3-178.6.1-263.8-.4-528.2-1.7-791.2-3h-7.2v3c261 1.3 523.1 2.7 784.5 3 50.4 0 91.4.3 127.1.5 30.1.1 58.8.2 84.4-1.5 29-.8 56.5-1.8 81.3-6.6 25.9-5.2 39.7-13.2 48.8-20.1 12.1-8.8 23.5-18.7 33.9-29.5 12.6-13.2 20.3-26.8 34.5-40.3 15.2-14.3 29.4-28.8 38.9-43.7 5.3-8.5 9.1-17 10.4-25.8 3.3-17.5 8-38.6-85.5-45.8z"/><radialGradient id="SVGID_10_" cx="3418.456" cy="239.58" r="229.31" fx="3267.651" fy="287.579" gradientTransform="matrix(5.23 0 0 -1 -16564.684 291.84)" gradientUnits="userSpaceOnUse"><stop offset="0" stop-color="#fdf9e3"/><stop offset=".9" stop-color="#eac991"/></radialGradient><path d="M2432.2 45c-3.9-13.3-59.5-15-145.5-17-326-11-686.6-14.9-1042.9-13.4v187l102.2.5c234.4 1.3 473.5 3.8 704.9 2.3 50.1-.3 132.7.5 175.2.2 34.6-.3 60.7-1.7 85.4-6.6s32.5-14.2 39.1-20.7c22.3-21.4 41.1-43.3 53.8-65.6 6.6-11.8 13.6-22.9 19.5-34.8 5.4-10.6 11.8-20.8 8.3-31.9z" fill="url(#SVGID_10_)"/><linearGradient id="SVGID_11_" gradientUnits="userSpaceOnUse" x1="367.1" y1="1753.099" x2="2027.33" y2="-34.841" gradientTransform="matrix(1 0 0 -1 0 291.84)"><stop offset="0" stop-color="#fdf9e3"/><stop offset=".37" stop-color="#eac991"/><stop offset=".94" stop-color="#d47f02"/></linearGradient><path d="M2432.2 45c-3.9-13.3-59.5-15-145.5-17-326-11-686.6-14.9-1042.9-13.4v8.2c108.8.2 216.9.5 323.2.4 186.6 0 378.2-.9 564 3.6 65.3 1.6 119.6 2.7 165.2 4 51.1 1.4 90.7 1.8 109.4 9.3 21.4 8.5 15.8 18.8 12 27.3-7.1 15-21.5 30.1-28.3 44.9-6.5 14.5-16.8 28.7-31.2 42.8-4.1 4.2-8.1 11-14.9 18-6.1 6.4-13.6 14.7-31.5 20.4-34.2 10.8-104.3 7.7-177.4 8.1-246.2 1.2-493.6-.3-739.2-1.6l-151.2-.8v2.3l102.1.5c234.4 1.3 473.5 3.8 704.9 2.3 50.1-.3 132.7.5 175.2.2 34.6-.3 60.7-1.7 85.4-6.6s32.5-14.2 39.1-20.7c22.3-21.4 41.1-43.3 53.8-65.6C2411.1 100 2418 89 2424 77c5.3-10.7 11.7-20.9 8.2-32z" opacity=".9" fill="url(#SVGID_11_)"/><linearGradient id="SVGID_12_" gradientUnits="userSpaceOnUse" x1="999.133" y1="684.763" x2="1675.233" y2="-32.307" gradientTransform="matrix(1 0 0 -1 0 291.84)"><stop offset=".14" stop-color="#fff"/><stop offset=".96"/></linearGradient><path d="M1243.9 32.8v5.9h29.5c193 .4 292.6-2.3 292.2-2.9-.1 0-178.6-2.2-321.7-3z" fill="url(#SVGID_12_)"/><radialGradient id="SVGID_13_" cx="3412.396" cy="430.01" r="366.43" gradientTransform="matrix(5.44 0 0 -1 -17294.185 291.84)" gradientUnits="userSpaceOnUse"><stop offset=".84" stop-color="#fff"/><stop offset=".94" stop-color="#d47f02"/></radialGradient><path d="M2122.3 137.1c-187.6 30.8-583.8 26.6-878.5 23.7v29.6c281.5 1.5 566.5 2.5 836.4 1.8 206.4-.5 269.5-19.3 281.7-49.3 10.4-25.6-114.7-26.3-239.6-5.8z" opacity=".3" fill="url(#SVGID_13_)"/><radialGradient id="SVGID_14_" cx="3544.427" cy="132.49" r="155.91" gradientTransform="matrix(5.32 0 0 -1 -16876.84 291.84)" gradientUnits="userSpaceOnUse"><stop offset=".14" stop-color="#fff"/><stop offset=".96"/></radialGradient><path d="M2368 133.5c-6.8 10.1-33.2 27.4-48.4 42.2s-62.4 18-153.5 18.9c-292.3 3.2-607.5-1.3-922.2-4.9v7.1c315.1 1.7 631.3 2 946.1 3.7 136.5.7 133.4-6.9 140.7-12.6 7.1-5.7 24.8-17.3 48.8-53.4s-4.8-11-11.5-1z" fill="url(#SVGID_14_)"/><radialGradient id="SVGID_15_" cx="3254.692" cy="115.048" r="170.45" gradientTransform="matrix(5.12 -.01 0 -1 -16198.508 332.7)" gradientUnits="userSpaceOnUse"><stop offset=".14" stop-color="#fff"/><stop offset=".96"/></radialGradient><path d="M2058.3 190.6c-266.3-3.5-541.1-2.9-814.4-1.6v7.8c75.8.3 151.4.4 226.8.4 229.3-.3 497 6.5 721.9-3-43.9-1.9-89.4-3-134.3-3.6z" opacity=".6" fill="url(#SVGID_15_)"/><linearGradient id="SVGID_16_" gradientUnits="userSpaceOnUse" x1="2273.763" y1="440.418" x2="1901.493" y2="2.228" gradientTransform="matrix(1 0 0 -1 0 291.84)"><stop offset=".04" stop-color="#fff6ff"/><stop offset=".18" stop-color="#fcd9b5"/><stop offset=".95" stop-color="#e12100"/></linearGradient><path d="M1780.9 22.5S2158.1 27 2345.1 33c67.7 2.1 70.7 9.1 59.9 33.7-14 31.6-47.2 94.8-47.2 94.8s45.6-69.1 68.8-103c8.5-12.5 22.5-23.8-59.8-27.1-188.1-7.5-585.9-8.9-585.9-8.9z" opacity=".7" fill="url(#SVGID_16_)"/><path class="st26" d="M1243.9 21.8v3.6c439.1-.4 920.4 1.9 920.4 1.9s-452.5-5-920.4-5.5z"/><linearGradient id="SVGID_17_" gradientUnits="userSpaceOnUse" x1="495.424" y1="1211.133" x2="1260.384" y2="4.313" gradientTransform="rotate(180 892.21 145.92)"><stop offset=".14" stop-color="#eac991"/><stop offset=".51" stop-color="#d5a76f"/><stop offset="1" stop-color="#a14e01"/></linearGradient><path d="M85.6 14.6c34.7-2.6 76.6-3.7 130.9-5 86.3-2 181-5.3 359.4-6.3 216.7-1.1 442.3-3 667.9-3.4v224.5c-261 1.3-523.1 2.7-784.5 3-50.4 0-91.4.3-127.1.5-30.1.1-58.8.2-84.4-1.5-29-.8-56.5-1.8-81.3-6.6-25.9-5.2-39.7-13.2-48.8-20.1-12.1-8.8-23.5-18.7-33.9-29.5-12.6-13.2-20.3-26.8-34.5-40.3-15.2-14.3-29.4-28.8-38.9-43.7C5.1 77.9 1.3 69.3 0 60.5c-3.2-17.6-7.9-38.7 85.6-45.9z" fill="url(#SVGID_17_)"/><path class="st9" d="M-.4 49c16.2 0 32.2 0 48.6.2 36.2.5 76.8 4.2 128.1 2.4 2.8-.1 5.4-.3 7.4-.6 12.5 27.5 32.9 54.9 55.6 82.1 11.9 14.2-7.9 39.9 82.4 46.6 171.8 12.7 417.5 3.9 599.8 3.5 107.2-.2 214.7-.3 322.3-.4v41.5c-261 1.3-523.1 2.7-784.5 3-50.4 0-91.4.3-127.1.5-30.1.1-58.8.2-84.4-1.5-29-.8-56.5-1.8-81.3-6.6-25.9-5.2-39.7-13.2-48.8-20.1-12.1-8.8-23.5-18.7-33.9-29.5-12.6-13.2-20.3-26.8-34.5-40.3-15.2-14.3-29.4-28.8-38.9-43.7-5.3-8.3-9-16.8-10.4-25.6-.9-3.8-1-7.7-.4-11.5z"/><path class="st10" d="M216.5 9.6c86.3-2 181-5.3 359.4-6.3 216.7-1.1 442.3-3 667.9-3.4V37c-187.3-.4-374.6-.2-560.7-.7-144.4-.4-287-.9-428.9 2.5-10.5.2-21.2.6-31.6.9-10.5-3.9-21.5-7.9-34.4-11.8-17.6-5.3-34.8-10.7-50.4-16.1 23.1-.8 49.1-1.5 78.7-2.2z"/><path class="st10" d="M358.2 6.6C424.4 5.3 478.5 4 575.9 3.4c44.9-.3 99.8-.5 160.8-.6 26.7 10 56.4 20 108.5 29.8 7.3 1.4 15.3 2.8 23.7 4.2-67.2-.2-130.1-.3-185.8-.5-90.1-.2-162-.4-201.6-.5-29.8-10.3-84.4-19.4-123.3-29.2zm-171.3 3.8c9.5-.2 19.3-.5 29.6-.7 11.2-.3 23.1-.5 35.3-.8 16.1 8.8 67.9 15.7 109 23.1 8.6 1.5 16.1 3.1 23.5 4.7-21.1.2-41 .5-59.6.8-51.5-9.1-98.7-18-137.8-27.1z"/><path class="st9" d="M11.8 70c-3 .1-6.1.3-9.3.5C1.3 67.3.5 64 0 60.6c-1.9-10.1-1.2-21.1 14.8-30.2 47 6 98.5 13.1 165.3 21 11.8 4.8 16.6 10.2 18.5 15.7-77.2-.8-131.8-.1-186.8 2.9z"/><path class="st11" d="M198.7 96.7c2.4 7.7 8.9 10 11.8 17.6-68.5-.2-117.7 1.1-173.7 3.5-6.6-6.5-12.9-13.4-18.6-20.7 58.5-2.5 107.5.8 180.5-.4z"/><path class="st9" d="M1243.9 186.2v38.3l-167.2.8c28.4-12.9 49.9-25.7 48.3-38.3l118.9-.8z"/><path class="st10" d="M41.8 123c58.3-5 101-9.1 168.6-8.8.8 2.2 3.8 10.1 4.6 12.3 5.5 14.4 8.6 29.5 26.1 43.4 6.5 5.2 20.6 10.7 45.8 13.6 34.2 3.9 77.6 4.4 129.8 4.8 192.1 1.3 385.2.1 577.7-.7 1.6 12.6-18.9 25.3-46.1 38.1-162.8.7-325.8 1.2-489 1.7-50.4 0-91.4.3-127.1.5-30.1.1-58.8.2-84.4-1.5-29-.8-56.5-1.8-81.3-6.6-25.9-5.2-39.7-13.2-48.8-20.1-12.1-8.8-23.5-18.7-33.9-29.5-12.6-13.2-20.3-26.8-34.5-40.3-2.5-2.2-4.9-4.5-7.5-6.9z"/><path class="st12" d="M344.1 187.3c21.9.7 46.2.9 72.7 1.1 25.3.1 47.5.3 78.1.4-.9 12.9-2.8 25.8-4.4 38.7h-31.2c-50.4 0-91.4.3-127.1.5h-.2c3.9-13.3 8.9-26.9 12.1-40.7z"/><path class="st13" d="M225.3 208.3c13.2-7.9 26.9-15 40.9-21.5-4.7 13.6 3.1 27.3 3.7 40.8-7.8-.3-15-.5-22.2-1-14.2-.4-28-.8-41.4-1.8 5.5-5.5 10.2-11.2 19-16.5zM65.8 148.8c54-4.4 94-9.5 153.5-10.8 3.8 8.5 11.6 23.7 21.5 31.7-41.2.5-75.5 3.7-106.8 6.9-12.7 1.3-25.8 2.7-39.5 4.2-3.6-3.4-7.5-6.9-10.7-10.4-6.9-7.1-12.4-14.4-18-21.6z"/><g class="st14"><path class="st15" d="M166.4 40.4c-4.8 2.3-10.5 4.6-15.6 6.9-60.7-.1-104.6-.9-150.8.2 3.1-13.2 15.2-26.2 77.3-32.1 9.8 4.9 26.5 9 43.5 13.3 15 3.7 30.4 7.6 45.6 11.7z"/><path class="st16" d="M259.5 192.3c1.9.3 4.1.7 6.4 1.1 1.1 5.2-11.2 11.2-13.6 16-2.8 5.5-4.9 11.2-6.5 17.1-28.1-.7-55-1.8-79.3-6.5-14.5-2.9-25.2-6.8-33.5-10.7 39.7-6.2 78-11.3 121.3-17.7 1.6.1 3.4.4 5.2.7z"/></g><path class="st17" d="M127.5 45.8l-42.9-3.7c-25.7-2.8-48.1-6-69.5-9.1 34.5 3.7 72 7.5 112.4 12.8zm-106-18.7c8.2-3.5 19.4-6.7 35.1-9.1 28.3 6.1 52.6 14.8 83.3 22 .9.2 2.2.5 3.3.8-45.3-5.6-86-9.7-121.7-13.7zm168.7 181.5c-9.2 3.5-18.3 6.9-28.6 10.1-5.1-1.2-9.8-2.4-14-3.7 11.9-1.6 22.8-3.3 32.3-5.5 8.5-2 17.7-3.7 27-5.6-5.7 1.2-11.3 2.8-16.7 4.7z"/><path class="st18" d="M85.6 14.6c34.7-2.6 76.6-3.7 130.9-5 86.3-2 181-5.3 359.4-6.3 216.6-1.1 442.3-3 667.9-3.4v4.4c-223.9.3-448.7 1.7-668.1 2.8-169 .8-259.7 4.1-344.6 6-55.8 1.2-98.1 3-133.9 5.2-54.9 3.5-75.9 9.4-83 22.1-6 10.6-2.7 21.1 1.8 30.9 14.7 31.5 49.3 63.7 79.8 95.3 8.2 8.5 16.5 17 25.7 25.5 8.5 7.7 19.3 15.6 41.2 22.4 24.1 7.4 67.9 9.1 104.2 9.8 48.3.9 102.6.3 178.6.1 263.8-.4 528.2-1.7 791.2-3h7.2v3c-261 1.3-523.1 2.7-784.5 3-50.4 0-91.4.3-127.1.5-30.1.1-58.8.2-84.4-1.5-29-.8-56.5-1.8-81.3-6.6-25.9-5.2-39.7-13.2-48.8-20.1-12.1-8.8-23.5-18.7-33.9-29.5-12.6-13.2-20.3-26.8-34.5-40.3-15.2-14.3-29.4-28.8-38.9-43.7C5.2 77.9 1.4 69.3 0 60.6c-3.2-17.7-7.9-38.8 85.6-46z"/><radialGradient id="SVGID_18_" cx="3284.084" cy="239.58" r="229.31" fx="3133.285" fy="287.579" gradientTransform="matrix(-5.23 0 0 -1 18349.104 291.84)" gradientUnits="userSpaceOnUse"><stop offset="0" stop-color="#fdf9e3"/><stop offset=".9" stop-color="#eac991"/></radialGradient><path d="M55.5 45C59.4 31.8 115 30 201 28c326-11 686.6-14.9 1042.9-13.4v187l-102.2.5c-234.4 1.3-473.5 3.8-704.9 2.3-50.1-.3-132.7.5-175.2.2-34.5-.3-60.7-1.7-85.5-6.6s-32.5-14.2-39.1-20.7c-22.3-21.4-41.1-43.3-53.8-65.6-6.6-11.6-13.5-22.7-19.4-34.6-5.4-10.8-11.8-21-8.3-32.1z" fill="url(#SVGID_18_)"/><linearGradient id="SVGID_19_" gradientUnits="userSpaceOnUse" x1="-336.193" y1="1753.097" x2="1324.037" y2="-34.843" gradientTransform="rotate(180 892.21 145.92)"><stop offset="0" stop-color="#fdf9e3"/><stop offset=".37" stop-color="#eac991"/><stop offset=".94" stop-color="#d47f02"/></linearGradient><path d="M55.5 45C59.4 31.8 115 30 201 28c326-11 686.6-14.9 1042.9-13.4v8.2c-108.8.2-216.9.5-323.2.4-186.6 0-378.2-.9-564 3.6-65.3 1.6-119.6 2.7-165.2 4-51.1 1.4-90.7 1.8-109.4 9.3-21.4 8.5-15.8 18.8-12 27.3 7.1 15 21.5 30.1 28.3 44.9 6.5 14.5 16.8 28.7 31.2 42.8 4.1 4.2 8.1 11 14.9 18 6.1 6.4 13.6 14.7 31.5 20.4 34.2 10.8 104.3 7.7 177.4 8.1 246.2 1.2 493.6-.3 739.2-1.6l151.2-.8v2.3l-102.2.5c-234.4 1.3-473.5 3.8-704.9 2.3-50.1-.3-132.7.5-175.2.2-34.5-.3-60.7-1.7-85.5-6.6s-32.5-14.2-39.1-20.6c-22.3-21.4-41.1-43.3-53.8-65.6-6.5-11.6-13.4-22.7-19.3-34.6-5.4-10.8-11.8-21-8.3-32.1z" opacity=".9" fill="url(#SVGID_19_)"/><linearGradient id="SVGID_20_" gradientUnits="userSpaceOnUse" x1="295.838" y1="684.758" x2="971.938" y2="-32.312" gradientTransform="rotate(180 892.21 145.92)"><stop offset=".14" stop-color="#fff"/><stop offset=".96"/></linearGradient><path d="M1243.9 32.8v5.9h-29.5c-193 .4-292.6-2.3-292.2-2.9 0 0 178.6-2.2 321.7-3z" fill="url(#SVGID_20_)"/><radialGradient id="SVGID_21_" cx="3282.894" cy="430.01" r="366.43" gradientTransform="matrix(-5.44 0 0 -1 19078.607 291.84)" gradientUnits="userSpaceOnUse"><stop offset=".84" stop-color="#fff"/><stop offset=".94" stop-color="#d47f02"/></radialGradient><path d="M365.4 137.1c187.5 30.8 583.8 26.6 878.5 23.7v29.6c-281.5 1.5-566.5 2.5-836.4 1.8-206.4-.5-269.5-19.3-281.7-49.3-10.4-25.6 114.7-26.3 239.6-5.8z" opacity=".3" fill="url(#SVGID_21_)"/><radialGradient id="SVGID_22_" cx="3412.063" cy="132.49" r="155.91" gradientTransform="matrix(-5.32 0 0 -1 18661.26 291.84)" gradientUnits="userSpaceOnUse"><stop offset=".14" stop-color="#fff"/><stop offset=".96"/></radialGradient><path d="M119.7 133.5c6.8 10.1 33.2 27.4 48.4 42.2s62.4 18 153.5 18.9c292.3 3.2 607.5-1.3 922.2-4.9v7.1c-315.1 1.7-631.3 2-946.1 3.7-136.5.7-133.4-6.9-140.7-12.6-7.1-5.7-24.8-17.3-48.8-53.4s4.8-11 11.5-1z" fill="url(#SVGID_22_)"/><radialGradient id="SVGID_23_" cx="3117.438" cy="116.872" r="170.45" gradientTransform="matrix(-5.12 -.01 0 -1 17982.928 332.7)" gradientUnits="userSpaceOnUse"><stop offset=".14" stop-color="#fff"/><stop offset=".96"/></radialGradient><path d="M429.4 190.6c266.3-3.5 541.1-2.9 814.4-1.6v7.8c-75.9.3-151.5.5-226.8.5-229.3-.3-497 6.5-721.9-3 43.9-2 89.4-3.1 134.3-3.7z" opacity=".6" fill="url(#SVGID_23_)"/><linearGradient id="SVGID_24_" gradientUnits="userSpaceOnUse" x1="1570.467" y1="440.423" x2="1198.197" y2="2.232" gradientTransform="rotate(180 892.21 145.92)"><stop offset=".04" stop-color="#fff6ff"/><stop offset=".18" stop-color="#fcd9b5"/><stop offset=".95" stop-color="#e12100"/></linearGradient><path d="M706.8 22.5S329.6 27 142.6 33C75 35.1 71.9 42.1 82.7 66.7c14 31.6 47.2 94.8 47.2 94.8s-45.6-69.1-68.8-103C52.5 46 38.6 34.7 120.9 31.4c188.1-7.5 585.9-8.9 585.9-8.9z" opacity=".7" fill="url(#SVGID_24_)"/><path class="st26" d="M1243.9 21.8v3.6c-439.1-.4-920.4 1.9-920.4 1.9s452.4-5 920.4-5.5z"/></g></svg>