<svg id="layer_1" data-name="layer 1" xmlns="http://www.w3.org/2000/svg" viewBox="0 0 149.71 156.43"><defs><style>.cls-3{fill:#79a8e8}.cls-4{fill:none;stroke:#2c3a70;stroke-miterlimit:10;stroke-width:5px}</style></defs><path d="M147.17 52.63c0 26.23-19.27 50-45.5 50s-51-26.27-51-52.5a47.5 47.5 0 0147.5-47.5c26.24 0 49 23.74 49 50z" fill="#fedc90"/><path d="M47.39 76.75c0-.45-7 4.78-11.58 14.24a38.57 38.57 0 00-3.42 24s13.25 18 28.75 7.25c0 0 1.5-11.75 7.75-15 0 .01-20.75-14.99-21.5-30.49z" fill="#5889c9"/><path class="cls-3" d="M41.59 103.86c-1.38 7.23 0 19.19 0 19.19a34.56 34.56 0 01-9.23-8 37 37 0 011.52-19.42s11.56-11.86 7.71 8.23zM61 114.12a45.37 45.37 0 00-2 7.56l-2.25 1.37a17.22 17.22 0 014.25-8.93z"/><path class="cls-4" d="M47.39 76.75c0-.45-7 4.78-11.58 14.24a38.57 38.57 0 00-3.42 24s13.25 18 28.75 7.25c0 0 1.5-11.75 7.75-15 0 .01-20.75-14.99-21.5-30.49z"/><path d="M0 113.31s11.75 13.4 4.25 28.58c0 0 28-13.83 50 13.92 0 0 7.25-31.5 43.25-33l-28.62-6.37-13.38 16.19z" fill="#77745f"/><path d="M62.67 123.26s-9 11.67-24.67-.83c0 0-10.53-6.17-8.37-17A50.79 50.79 0 010 113.26s41.17 10.17 54.33 43.17c0 0-4-41.33 43.17-32.67l-4.17-9s-16.92-.42-23.25-5.58c.01.01-9.08 8.16-7.41 14.08z" fill="#4c4a38"/><path d="M113.73 84.44s44.75 24.75 0 52.25c0 0-73.72 29.25-84.22-32 0 0 .92-16 12.11-26.33.66-.62 72.11 6.08 72.11 6.08z" style="isolation:isolate" opacity=".26"/><path d="M136.84 62.11c0 26.23-19.27 50-45.5 50s-51-26.27-51-52.5a47.5 47.5 0 0147.5-47.5c26.23 0 49 23.76 49 50z" fill="#4d77bb" stroke="#2c3a70" stroke-miterlimit="10" stroke-width="5"/><path class="cls-3" d="M59 77s-11.74-.76-12.12 7.64l-5.3-14.5V42.86l10.18-13 2 3.28s-3.22 17.35-3.12 18.6 3.37 12.89 3.37 12.89l5 11.5z"/><path class="cls-4" d="M136.84 62.11c0 26.23-19.27 50-45.5 50s-51-26.27-51-52.5a47.5 47.5 0 0147.5-47.5c26.23 0 49 23.76 49 50z"/><path d="M147.17 52.63c0 26.23-19.27 50-45.5 50s-51-26.27-51-52.5a47.5 47.5 0 0147.5-47.5c26.24 0 49 23.74 49 50z" fill="#3c57ae"/><path d="M135.52 33.79A143.81 143.81 0 0096.1 44.23C75.68 53 75.81 84.63 75.81 84.63 41.18 55 60.25 20.05 80.68 11.28s46.08 2.09 54.84 22.51z" fill="#2c4797"/><path d="M81.92 96.48s26.13-.37 36.25-5.87c12.47-6.77 27.5-31.25 27.5-31.25 1.5 12.25-16.34 35.25-29.87 39.5-11.74 3.68-24.13 3.14-33.88-2.38z" fill="#fff"/><path class="cls-4" d="M147.17 52.63c0 26.23-19.27 50-45.5 50s-51-26.27-51-52.5a47.5 47.5 0 0147.5-47.5c26.24 0 49 23.74 49 50z"/><ellipse class="cls-3" cx="61.68" cy="91.79" rx="3.17" ry="7.37" transform="rotate(-45 61.681 91.79)"/></svg>