<svg version="1.1" id="Layer_1" xmlns="http://www.w3.org/2000/svg" x="0" y="0" viewBox="0 0 512 512" xml:space="preserve"><path d="M63 33C28.262 33 0 61.262 0 96s28.262 63 63 63 63-28.262 63-63-28.262-63-63-63zm0 160c-34.738 0-63 28.262-63 63s28.262 63 63 63 63-28.262 63-63-28.262-63-63-63zm0 160c-34.738 0-63 28.262-63 63s28.262 63 63 63 63-28.262 63-63-28.262-63-63-63zM465 49H207c-25.916 0-47 21.084-47 47s21.084 47 47 47h258c25.916 0 47-21.084 47-47s-21.084-47-47-47zm0 160H207c-25.916 0-47 21.084-47 47s21.084 47 47 47h258c25.916 0 47-21.084 47-47s-21.084-47-47-47zm0 160H207c-25.916 0-47 21.084-47 47s21.084 47 47 47h258c25.916 0 47-21.084 47-47s-21.084-47-47-47z"/></svg>