<svg id="layer_1" data-name="layer 1" xmlns="http://www.w3.org/2000/svg" viewBox="0 0 60.32 57.87"><defs><style>.cls-1{fill:#ff8210}.cls-4{fill:#ffc226;opacity:.9;isolation:isolate}</style></defs><g id="layer_1-2" data-name="layer 1"><path class="cls-1" d="M59.95 21.34c-1.15-2.75-2.57-3-5.87-3.5L41.41 16 35.69 4.47c-1.47-3-2.21-4.24-5.18-4.47-3.51-.24-5.36 3.4-5.4 3.46L18.93 16l-12.8 1.84c-3.3.59-4.73 1-5.8 3.74s.76 5 1.49 5.83L12 37.32 9.64 51.07c-.15 3 0 4.42 2.36 6a5.63 5.63 0 005.49.13l.77-.4.15-.14 11.76-6.18 11.73 6.18 1 .5a5.56 5.56 0 005.43-.16c2.41-1.6 2.51-3 2.35-6.13l-2.37-13.54 10.35-10.09c.75-.83 2.4-3.24 1.29-5.9z"/><path class="cls-1" d="M30.87 15.27c0 5.74-.34 11.49-.16 17.22a86.46 86.46 0 0110.6-16.64L35.69 4.47C34.28 1.61 33.54.34 30.87.05zm9.02 25.94a26.48 26.48 0 00-6.4.76 22.12 22.12 0 01-3.27.53q-.15.93-.23 1.87c0 2.09 0 4.18-.06 6.27l.22-.12 11.75 6.14 1 .5a5.8 5.8 0 004.74.19c-1-1.94-2.06-3.85-3-5.82-1.57-3.39-3.14-6.87-4.75-10.32zM24 40.76a102.94 102.94 0 00-13.21 15.32 7.13 7.13 0 001.21 1 4.79 4.79 0 002.85.78c.75-1.68 1.5-3.35 2.39-5 2.17-4.05 4.68-7.98 6.76-12.1zM6 24.66c1.18.44 2.39.81 3.61 1.17l-2.46-1.62q-3.05-2-6.23-3.82a7.53 7.53 0 00-.59 1.22A4.71 4.71 0 000 22.84c2 .82 4.35 1.16 6 1.82zM20.87 12l-1.94 4a27.77 27.77 0 017.57 7.45c-1.19-3.31-4.09-8.08-5.63-11.45zM51 25.78c-2.23.82-4.48 1.63-6.67 2.55-1.46.61-3.22 1.09-4.7 1.84 1.86-.46 4.1-1.48 5.37-.2.46.46.12 1-.27 1.38-.6.53-1.24 1.07-1.84 1.65a62 62 0 005.72 4.09l10.11-9.85a6.59 6.59 0 001.64-4.35c-3.17.95-6.36 1.77-9.36 2.89z" opacity=".5"/><path d="M55.62 21.52c-1-2.35-2.2-2.61-5-3l-10.88-1.58-4.86-9.84C33.62 4.55 33 3.47 30.45 3.29c-3-.22-4.59 2.89-4.61 3l-5.28 10.7-10.94 1.55c-2.82.5-4 .82-5 3.2s.65 4.29 1.28 5l8.69 8.47-2 11.79c-.13 2.58 0 3.78 2 5.12a4.8 4.8 0 004.69.11l.66-.35.12-.08 10-5.29 10 5.28.82.43a4.76 4.76 0 004.66-.22c2.06-1.36 2.14-2.58 2-5.24l-2-11.62 8.85-8.63a4.68 4.68 0 001.23-4.99z" fill="#ffc226"/><path class="cls-4" d="M48 46.78l-2.12-11.52 8.64-8.69-9 8.48-.08.07v.1l2 11.62v1.44a5.59 5.59 0 01-.2 1.38 3.14 3.14 0 01-.24.62c-.1.19-.25.36-.37.55l-.47.46-.59.44a5.39 5.39 0 01-.58.32 6 6 0 01-.64.23 2.47 2.47 0 01-.67.1 5.47 5.47 0 01-.68 0 5.63 5.63 0 01-1.33-.3l-.34-.14h-.09l-.24-.08-.6-.32-.65-.34-9.42-5-.18-.1-.18.1-9.46 5v-.12l-.62.43a6.73 6.73 0 01-.61.33 5.16 5.16 0 01-.63.27 5.5 5.5 0 01-1.33.31 6.17 6.17 0 01-.68 0l-.64-.09c-.2-.07-.4-.11-.61-.2l-.61-.33-.56-.41-.49-.46a3.45 3.45 0 01-.39-.53 4.65 4.65 0 01-.25-.61 3.92 3.92 0 01-.14-.66 6.27 6.27 0 01-.06-.69V47l1.9-11.74v-.1l-.07-.07-8.8-8.32 8.49 8.48-2.1 11.62v1.48a6.64 6.64 0 000 .76 4.41 4.41 0 00.15.76 4.9 4.9 0 00.3.74c.15.22.3.45.46.65a4.07 4.07 0 00.56.54l.61.45c.26.16.44.24.67.37a4.66 4.66 0 00.77.27 3.51 3.51 0 00.78.12 7.52 7.52 0 00.78 0 6.22 6.22 0 001.52-.35 5.48 5.48 0 00.72-.3l.21-.11h.06l.31-.16 9.89-5.16 9.9 5.16h.16l.16.08.1.05.19.1.16.09h.16l.46.25a6.35 6.35 0 001.53.34 6.22 6.22 0 00.79 0 4.31 4.31 0 00.79-.12 7.35 7.35 0 00.75-.27 7.2 7.2 0 00.7-.4l.59-.44.57-.57a6.92 6.92 0 00.45-.67 3.71 3.71 0 00.29-.75 6 6 0 00.15-1.54v-1.49z"/><path d="M30.48 27.43c8.46-.24 17.74-1.65 24.82-6.57-.93-1.74-2.18-2-4.7-2.33l-10.86-1.59-4.86-9.84C33.62 4.55 33 3.47 30.45 3.29c-3-.22-4.59 2.89-4.61 3l-5.28 10.7-10.94 1.55c-2.62.46-3.86.77-4.76 2.73 7.07 5.39 16.98 6.39 25.62 6.16z" style="isolation:isolate" opacity=".7" fill="#ffc226"/><path class="cls-4" d="M30.66 7.66C30.43 6.3 29.54 5.17 28.15 6c-1.21.72-1.9 2.33-2.52 3.52-.91 1.74-2.67 4.67-2.17 6.72.35 1.43 1.75 1 2.71.38a9.25 9.25 0 003.5-3.87 8.59 8.59 0 00.99-5.09zM22.41 19a.68.68 0 00-.5-.82h-.11c-.85-.17-1.7.75-2 1.41A1 1 0 0020.87 21a2 2 0 001-.73 2.08 2.08 0 00.54-1.18.37.37 0 000-.09z"/></g></svg>